<svg width="500" height="500" viewBox="0 0 500 500" fill="none" xmlns="http://www.w3.org/2000/svg">
<path d="M167.326 145.623V357H253.166C316.887 357 354.533 317.596 354.533 250.066C354.533 182.684 317.033 145.623 253.166 145.623H167.326ZM221.086 188.982H246.135C280.119 188.982 299.895 210.516 299.895 250.213C299.895 292.4 281.145 313.641 246.135 313.641H221.086V188.982Z" fill="black"/>
<path fill-rule="evenodd" clip-rule="evenodd" d="M250 466C369.294 466 466 369.294 466 250C466 130.706 369.294 34 250 34C130.706 34 34 130.706 34 250C34 369.294 130.706 466 250 466ZM250 500C388.071 500 500 388.071 500 250C500 111.929 388.071 0 250 0C111.929 0 0 111.929 0 250C0 388.071 111.929 500 250 500Z" fill="black"/>
</svg>
