<svg fill="none" height="57" viewBox="0 0 77 57" width="77" xmlns="http://www.w3.org/2000/svg" xmlns:xlink="http://www.w3.org/1999/xlink"><linearGradient id="a" gradientUnits="userSpaceOnUse" x1="37" x2="37" y1="4" y2="36"><stop offset="0" stop-color="#eceff4"/><stop offset="1" stop-color="#abb7cf"/></linearGradient><g fill="url(#a)" opacity=".85"><path d="m28.4997 47.8202c1.2702 4.1413 3.4633 5.2924 7.7468 6.4104-3.149-1.204-1.5579-3.1688-7.7468-6.4104z"/><path d="m23.9186 46.1858c.6847 3.9032 2.8281 5.4281 7.029 6.8339-2.8976-1.3132-.7707-2.4577-7.029-6.8339z"/><path d="m19.6084 44.0858c.0595 3.9561 2.5404 5.7754 6.1293 7.2904-1.8391-2.5934-3.89-5.0312-6.1293-7.2904z"/><path d="m20.7696 49.2165c-1.9317-1.4125-1.0849-3.2912-5.0212-7.7733-.6946 3.7179 1.7432 5.9374 5.0212 7.7733z"/><path d="m16.1359 46.4737c-1.472-1.4322-.8468-3.6584-3.7014-8.1967-1.3628 3.2681.7906 6.0698 3.7014 8.1967z"/><path d="m12.0041 43.0866c-1.1015-1.558-.1191-2.7785-2.20959-8.468-1.24377 1.7432-1.3033 4.8526 2.20959 8.468z"/><path d="m8.57404 39.071c-.05954-2.8711-.28777-5.7389-.6847-8.5839-2.29558 2.1501-1.0585 5.9772.6847 8.5839z"/><path d="m6.73789 26.0414c-2.54038 1.5746-1.91519 5.8184-.74425 8.468-.39033-1.4984 1.075-3.3707.74425-8.468z"/><path d="m6.30452 21.3908c-2.07396.8468-2.82812 4.6673-1.98133 8.2232.91293-2.6727 1.57784-5.4282 1.98133-8.2232z"/><path d="m6.54906 16.6573c-1.78623.3803-3.38717 4.2339-2.99689 7.8493 1.32642-2.4808 2.33199-5.1172 2.99689-7.8493z"/><path d="m7.45598 12.2718c-.99896-.1092-3.52944 1.9152-3.86019 7.072 1.56792-2.193 2.86453-4.568 3.86019-7.072z"/><path d="m8.55097 9.36722c.1257-.19516.2547-.37378.35725-.53255l.26131-.4234c.14555-.23816.22162-.3804.22162-.3804h-.0033c-.17201-.05623-.35394-.05623-.52594 0-.24477.07277-.48294.17863-.70125.31094-2.00453 1.40246-3.38387 3.52939-3.85359 5.92759 1.54142-1.5183 2.9605-3.159 4.2439-4.90218z"/><path d="m26.0027 55.5836.4995.1257v.0033c.1852.0463.3771.0827.5656.1092.2216 0 .4664.0761.7277.1025h.8633c3.3872.086 4.803-1.4388 7.5285-1.4488-3.4103-.9526-7.059-.5557-10.1846 1.1081z"/><path d="m30.8452 53.3413c-5.5703-2.1501-9.2555 0-10.2115 0 4.353 1.9384 7.5186-.2018 10.2115 0z"/><path d="m25.612 51.7069c-4.9782-2.3717-7.7137-1.2272-10.1115-1.1776 4.2869 2.5569 7.5715.7641 10.1115 1.1776z"/><path d="m20.5972 49.557c-4.5548-2.8547-7.7568-2.2097-9.7813-2.59 3.7875 3.2317 7.6146 1.9714 9.7813 2.59z"/><path d="m15.9073 46.8048c-3.8602-3.1325-6.43696-3.2185-9.11995-4.1413 3.15897 3.9627 7.23085 3.3177 9.11995 4.1413z"/><path d="m3.63881 37.7247c2.12689 4.4126 6.61229 4.707 8.07099 5.6728-3.03324-3.4963-5.81843-4.3266-8.07099-5.6728z"/><path d="m1.51166 32.356c1.4984 5.0047 5.49425 5.8515 6.68831 6.986-2.53708-3.9958-4.29019-4.8856-6.68831-6.986z"/><path d="m5.55066 34.7711c-.7211-1.9549-2.10048-4.4953-5.140295-7.942.559019 5.0973 4.455575 6.9265 5.140295 7.942z"/><path d="m3.83368 29.7496c-.65164-3.0498-1.88217-5.9441-3.625297-8.5272-.2778499 5.1568 3.039817 7.3069 3.625297 8.5272z"/><path d="m3.0199 24.6096c-.22162-3.0597-.95925-6.0598-2.176514-8.8744-1.068399 5.1403 1.829244 7.6376 2.176514 8.8744z"/><path d="m3.0266 19.3433c.28777-3.0299-.56895-8.7228-.65164-9.0861-2.166605 4.8592.5094 7.942.65164 9.0861z"/><path d="m4.68707 5.80142c-2.70906 4.59788-.96585 7.21428-.95594 8.35878 0-.0761 1.49179-6.4866 1.24377-8.82527-.10254.15216-.19852.30772-.28783.46649z"/><path d="m5.56022 9.62889c3.15897-2.65944 4.49528-6.69831 6.15578-9.62889-2.26916 1.56792-6.59577 6.39397-6.15578 9.62889z"/><path d="m40.381 54.2473c4.2835-1.1181 6.4766-2.2692 7.7468-6.4105-6.1889 3.2251-4.5979 5.1899-7.7468 6.4105z"/><path d="m45.6974 53.0203c4.234-1.4059 6.3411-2.9307 7.0291-6.8339-6.2749 4.3762-4.1479 5.5207-7.0291 6.8339z"/><path d="m50.8904 51.3698c3.622-1.5183 6.0533-3.3375 6.1294-7.2838-2.2394 2.256-4.2902 4.6905-6.1294 7.2838z"/><path d="m55.8588 49.2165c3.2781-1.8392 5.7159-4.0554 5.0213-7.7733-3.9363 4.4821-3.0895 6.3608-5.0213 7.7733z"/><path d="m64.1912 38.2776c-2.8117 4.5383-2.2262 6.7743-3.7015 8.1967 2.9142-2.1269 5.0676-4.9286 3.7015-8.1967z"/><path d="m66.8341 34.6026c-2.0906 5.7059-1.1081 6.9265-2.2096 8.4679 3.5128-3.5989 3.4533-6.7082 2.2096-8.4679z"/><path d="m68.7393 30.4871c-.3969 2.8447-.6251 5.7126-.6847 8.5839 1.7432-2.6065 2.9803-6.4336.6847-8.5839z"/><path d="m69.89 26.0414c-.3308 5.0808 1.1345 6.9696.7541 8.468 1.1611-2.6529 1.7697-6.8934-.7541-8.468z"/><path d="m70.3237 21.3908c.4035 2.7951 1.0684 5.5505 1.9813 8.2232.8468-3.5559.0927-7.393-1.9813-8.2232z"/><path d="m70.079 16.6573c.6648 2.7322 1.6704 5.3685 2.9969 7.8493.3704-3.6055-1.2107-7.469-2.9969-7.8493z"/><path d="m69.1721 12.2718c.9957 2.5039 2.2923 4.8789 3.8602 7.072-.3308-5.1568-2.8612-7.1812-3.8602-7.072z"/><path d="m68.4677 8.35195c-.2183-.13231-.4565-.23816-.7012-.31423-.172-.05624-.354-.05624-.526 0 0 0 .0761.14554.2216.38039l.2614.4234c.1025.16208.2282.3374.3572.53256l-.0033.00331c1.2801 1.74322 2.6958 3.38052 4.234 4.90212-.4664-2.3981-1.8425-4.52509-3.8437-5.92755z"/><path d="m48.1978 55.9841h.6351c.2613 0 .5094-.0662.7277-.1026.1886-.0264.3804-.0628.5657-.1091l.4994-.1257v-.0033c-3.1258-1.6374-6.7644-2.0145-10.1615-1.0486 2.7257 0 4.1678 1.5315 7.5285 1.4488z"/><path d="m55.9944 53.4005c-.9559 0-4.6408-2.1831-10.2115 0 2.6926-.2613 5.8581 1.8789 10.2115 0z"/><path d="m51.0162 51.7069c2.5834-.4135 5.8349 1.3793 10.1115-1.1776-2.4047-.0496-5.1403-1.1941-10.1115 1.1776z"/><path d="m65.8089 46.9632c-2.0244.3804-5.2263-.2613-9.7813 2.59 2.1699-.6153 5.997.645 9.7813-2.59z"/><path d="m69.8405 42.6632c-2.686.9228-5.2594 1.0089-9.12 4.1413 1.8888-.8236 5.9607-.1786 9.12-4.1413z"/><path d="m73.0329 37.7247c-2.2526 1.3462-5.0212 2.1765-8.0709 5.6728 1.4157-.9625 5.9044-1.2602 8.0709-5.6728z"/><path d="m68.4251 39.342c1.1941-1.1345 5.1899-1.9813 6.6883-6.986-2.3948 2.1004-4.1479 2.9902-6.6883 6.986z"/><path d="m71.0774 34.7711c.6848-.9824 4.5814-2.8116 5.1403-7.942-3.0398 3.4103-4.4225 5.9507-5.1403 7.942z"/><path d="m76.42 21.2224c-1.7399 2.59-2.9638 5.4909-3.6088 8.5441.569-1.2371 3.8867-3.3872 3.6088-8.5441z"/><path d="m73.6086 24.6096c.3473-1.1942 3.2416-3.6915 2.1765-8.8321-1.214 2.8017-1.9483 5.7853-2.1765 8.8321z"/><path d="m74.2528 10.2572c-.086.3639-.9395 6.0532-.6517 9.0861.1423-1.1445 2.8182-4.2274.6517-9.0861z"/><path d="m71.9412 5.80146c-.0893-.15877-.1852-.31423-.2878-.4664-.2447 2.3386 1.2371 8.74574 1.2438 8.82534.0099-1.1446 1.753-3.7611-.956-8.35894z"/><path d="m64.9117.00251437c1.6936 2.93066563 2.9968 6.96953563 6.1557 9.62888563.44-3.2383-3.8866-8.06435-6.1557-9.62888563z"/><path d="m23.7766 16h1.3886l-3.0527-8.45508h-1.418l-3.0527 8.45508h1.3652l.7735-2.2852h3.2226zm-2.4024-7.04883h.0352l1.2597 3.70903h-2.5546z"/><path d="m29.1742 16v-6.22852h.0528l4.3828 6.22852h1.1836v-8.45508h-1.2774v6.23438h-.0469l-4.3828-6.23438h-1.1894v8.45508z"/><path d="m39.4352 16v-6.22852h.0527l4.3828 6.22852h1.1836v-8.45508h-1.2773v6.23438h-.0469l-4.3828-6.23438h-1.1895v8.45508z"/><path d="m52.075 7.4043c-2.4375 0-3.9609 1.68164-3.9609 4.3711 0 2.6894 1.5234 4.3652 3.9609 4.3652 2.4316 0 3.9609-1.6758 3.9609-4.3652 0-2.68946-1.5293-4.3711-3.9609-4.3711zm0 1.15429c1.6055 0 2.6133 1.24219 2.6133 3.21681 0 1.9687-1.0078 3.2109-2.6133 3.2109s-2.6191-1.2422-2.6191-3.2109c0-1.97462 1.0136-3.21681 2.6191-3.21681z"/><path d="m28.1652 32v-8.4551h-1.5234l-2.7305 6.6739h-.0468l-2.7364-6.6739h-1.5176v8.4551h1.1954v-6.2227h.041l2.5547 6.1582h.9726l2.5488-6.1582h.0411v6.2227z"/><path d="m40.0785 32v-8.4551h-1.5234l-2.7305 6.6739h-.0469l-2.7363-6.6739h-1.5176v8.4551h1.1953v-6.2227h.0411l2.5546 6.1582h.9727l2.5488-6.1582h.041v6.2227z"/><path d="m44.7496 32v-8.4551h-1.3125v8.4551z"/><path d="m47.5867 32h1.4531l2.1329-3.2227h.041l2.1035 3.2227h1.5351l-2.8125-4.1953v-.0352l2.8653-4.2246h-1.4824l-2.1094 3.2696h-.0469l-2.0859-3.2696h-1.5645l2.7774 4.1778v.041z"/></g></svg>