<svg width="77" height="57" viewBox="0 0 77 57" fill="none" xmlns="http://www.w3.org/2000/svg">
<g opacity="0.85">
<path d="M28.4997 47.8202C29.7699 51.9615 31.963 53.1126 36.2465 54.2306C33.0975 53.0266 34.6886 51.0618 28.4997 47.8202Z" fill="url(#paint0_linear)"/>
<path d="M23.9186 46.1858C24.6033 50.089 26.7467 51.6139 30.9476 53.0197C28.05 51.7065 30.1769 50.562 23.9186 46.1858Z" fill="url(#paint1_linear)"/>
<path d="M19.6084 44.0858C19.6679 48.0419 22.1488 49.8612 25.7377 51.3762C23.8986 48.7828 21.8477 46.345 19.6084 44.0858Z" fill="url(#paint2_linear)"/>
<path d="M20.7696 49.2165C18.8379 47.804 19.6847 45.9253 15.7484 41.4432C15.0538 45.1611 17.4916 47.3806 20.7696 49.2165Z" fill="url(#paint3_linear)"/>
<path d="M16.1359 46.4737C14.6639 45.0415 15.2891 42.8153 12.4345 38.277C11.0717 41.5451 13.2251 44.3468 16.1359 46.4737Z" fill="url(#paint4_linear)"/>
<path d="M12.0041 43.0866C10.9026 41.5286 11.885 40.3081 9.79451 34.6186C8.55074 36.3618 8.49121 39.4712 12.0041 43.0866Z" fill="url(#paint5_linear)"/>
<path d="M8.57404 39.071C8.5145 36.1999 8.28627 33.3321 7.88934 30.4871C5.59376 32.6372 6.83084 36.4643 8.57404 39.071Z" fill="url(#paint6_linear)"/>
<path d="M6.73789 26.0414C4.19751 27.616 4.8227 31.8598 5.99364 34.5094C5.60331 33.011 7.06864 31.1387 6.73789 26.0414Z" fill="url(#paint7_linear)"/>
<path d="M6.30452 21.3908C4.23056 22.2376 3.4764 26.0581 4.32319 29.614C5.23612 26.9413 5.90103 24.1858 6.30452 21.3908Z" fill="url(#paint8_linear)"/>
<path d="M6.54906 16.6573C4.76283 17.0376 3.16189 20.8912 3.55217 24.5066C4.87859 22.0258 5.88416 19.3894 6.54906 16.6573Z" fill="url(#paint9_linear)"/>
<path d="M7.45598 12.2718C6.45702 12.1626 3.92654 14.187 3.59579 19.3438C5.16371 17.1508 6.46032 14.7758 7.45598 12.2718Z" fill="url(#paint10_linear)"/>
<path d="M8.55097 9.36722C8.67667 9.17206 8.80567 8.99344 8.90822 8.83467L9.16953 8.41127C9.31508 8.17311 9.39115 8.03087 9.39115 8.03087H9.38785C9.21584 7.97464 9.03391 7.97464 8.86191 8.03087C8.61714 8.10364 8.37897 8.2095 8.16066 8.34181C6.15613 9.74427 4.77679 11.8712 4.30707 14.2694C5.84849 12.7511 7.26757 11.1104 8.55097 9.36722Z" fill="url(#paint11_linear)"/>
<path d="M26.0027 55.5836L26.5022 55.7093V55.7126C26.6874 55.7589 26.8793 55.7953 27.0678 55.8218C27.2894 55.8218 27.5342 55.8979 27.7955 55.9243H28.6588C32.046 56.0103 33.4618 54.4855 36.1873 54.4755C32.777 53.5229 29.1283 53.9198 26.0027 55.5836Z" fill="url(#paint12_linear)"/>
<path d="M30.8452 53.3413C25.2749 51.1912 21.5897 53.3413 20.6337 53.3413C24.9867 55.2797 28.1523 53.1395 30.8452 53.3413Z" fill="url(#paint13_linear)"/>
<path d="M25.612 51.7069C20.6338 49.3352 17.8983 50.4797 15.5005 50.5293C19.7874 53.0862 23.072 51.2934 25.612 51.7069Z" fill="url(#paint14_linear)"/>
<path d="M20.5972 49.557C16.0424 46.7023 12.8404 47.3473 10.8159 46.967C14.6034 50.1987 18.4305 48.9384 20.5972 49.557Z" fill="url(#paint15_linear)"/>
<path d="M15.9073 46.8048C12.0471 43.6723 9.47034 43.5863 6.78735 42.6635C9.94632 46.6262 14.0182 45.9812 15.9073 46.8048Z" fill="url(#paint16_linear)"/>
<path d="M3.63881 37.7247C5.7657 42.1373 10.2511 42.4317 11.7098 43.3975C8.67656 39.9012 5.89137 39.0709 3.63881 37.7247Z" fill="url(#paint17_linear)"/>
<path d="M1.51166 32.356C3.01006 37.3607 7.00591 38.2075 8.19997 39.342C5.66289 35.3462 3.90978 34.4564 1.51166 32.356Z" fill="url(#paint18_linear)"/>
<path d="M5.55066 34.7711C4.82956 32.8162 3.45018 30.2758 0.410365 26.8291C0.969384 31.9264 4.86594 33.7556 5.55066 34.7711Z" fill="url(#paint19_linear)"/>
<path d="M3.83368 29.7496C3.18204 26.6998 1.95151 23.8055 0.208383 21.2224C-0.0694669 26.3792 3.2482 28.5293 3.83368 29.7496Z" fill="url(#paint20_linear)"/>
<path d="M3.0199 24.6096C2.79828 21.5499 2.06065 18.5498 0.843386 15.7352C-0.225013 20.8755 2.67263 23.3728 3.0199 24.6096Z" fill="url(#paint21_linear)"/>
<path d="M3.0266 19.3433C3.31437 16.3134 2.45765 10.6205 2.37496 10.2572C0.208355 15.1164 2.88436 18.1992 3.0266 19.3433Z" fill="url(#paint22_linear)"/>
<path d="M4.68707 5.80142C1.97801 10.3993 3.72122 13.0157 3.73113 14.1602C3.73113 14.0841 5.22292 7.6736 4.9749 5.33493C4.87236 5.48709 4.77638 5.64265 4.68707 5.80142Z" fill="url(#paint23_linear)"/>
<path d="M5.56022 9.62889C8.71919 6.96945 10.0555 2.93058 11.716 0C9.44684 1.56792 5.12023 6.39397 5.56022 9.62889Z" fill="url(#paint24_linear)"/>
<path d="M40.381 54.2473C44.6645 53.1292 46.8576 51.9781 48.1278 47.8368C41.9389 51.0619 43.5299 53.0267 40.381 54.2473Z" fill="url(#paint25_linear)"/>
<path d="M45.6974 53.0203C49.9314 51.6144 52.0385 50.0896 52.7265 46.1864C46.4516 50.5626 48.5786 51.7071 45.6974 53.0203Z" fill="url(#paint26_linear)"/>
<path d="M50.8904 51.3698C54.5124 49.8515 56.9437 48.0323 57.0198 44.086C54.7804 46.342 52.7296 48.7765 50.8904 51.3698Z" fill="url(#paint27_linear)"/>
<path d="M55.8588 49.2165C59.1369 47.3773 61.5747 45.1611 60.8801 41.4432C56.9438 45.9253 57.7906 47.804 55.8588 49.2165Z" fill="url(#paint28_linear)"/>
<path d="M64.1912 38.2776C61.3795 42.8159 61.965 45.0519 60.4897 46.4743C63.4039 44.3474 65.5573 41.5457 64.1912 38.2776Z" fill="url(#paint29_linear)"/>
<path d="M66.8341 34.6026C64.7435 40.3085 65.726 41.5291 64.6245 43.0705C68.1373 39.4716 68.0778 36.3623 66.8341 34.6026Z" fill="url(#paint30_linear)"/>
<path d="M68.7393 30.4871C68.3424 33.3318 68.1142 36.1997 68.0546 39.071C69.7978 36.4645 71.0349 32.6374 68.7393 30.4871Z" fill="url(#paint31_linear)"/>
<path d="M69.89 26.0414C69.5592 31.1222 71.0245 33.011 70.6441 34.5094C71.8052 31.8565 72.4138 27.616 69.89 26.0414Z" fill="url(#paint32_linear)"/>
<path d="M70.3237 21.3908C70.7272 24.1859 71.3921 26.9413 72.305 29.614C73.1518 26.0581 72.3977 22.221 70.3237 21.3908Z" fill="url(#paint33_linear)"/>
<path d="M70.079 16.6573C70.7438 19.3895 71.7494 22.0258 73.0759 24.5066C73.4463 20.9011 71.8652 17.0376 70.079 16.6573Z" fill="url(#paint34_linear)"/>
<path d="M69.1721 12.2718C70.1678 14.7757 71.4644 17.1507 73.0323 19.3438C72.7015 14.187 70.1711 12.1626 69.1721 12.2718Z" fill="url(#paint35_linear)"/>
<path d="M68.4677 8.35195C68.2494 8.21964 68.0112 8.11379 67.7665 8.03772C67.5945 7.98148 67.4125 7.98148 67.2405 8.03772C67.2405 8.03772 67.3166 8.18326 67.4621 8.41811L67.7235 8.84151C67.826 9.00359 67.9517 9.17891 68.0807 9.37407L68.0774 9.37738C69.3575 11.1206 70.7732 12.7579 72.3114 14.2795C71.845 11.8814 70.4689 9.75441 68.4677 8.35195Z" fill="url(#paint36_linear)"/>
<path d="M48.1978 55.9841H48.8329C49.0942 55.9841 49.3423 55.9179 49.5606 55.8815C49.7492 55.8551 49.941 55.8187 50.1263 55.7724L50.6257 55.6467V55.6434C47.4999 54.006 43.8613 53.6289 40.4642 54.5948C43.1899 54.5948 44.632 56.1263 47.9927 56.0436L48.1978 55.9841Z" fill="url(#paint37_linear)"/>
<path d="M55.9944 53.4005C55.0385 53.4005 51.3536 51.2174 45.7829 53.4005C48.4755 53.1392 51.641 55.2794 55.9944 53.4005Z" fill="url(#paint38_linear)"/>
<path d="M51.0162 51.7069C53.5996 51.2934 56.8511 53.0862 61.1277 50.5293C58.723 50.4797 55.9874 49.3352 51.0162 51.7069Z" fill="url(#paint39_linear)"/>
<path d="M65.8089 46.9632C63.7845 47.3436 60.5826 46.7019 56.0276 49.5532C58.1975 48.9379 62.0246 50.1982 65.8089 46.9632Z" fill="url(#paint40_linear)"/>
<path d="M69.8405 42.6632C67.1545 43.586 64.5811 43.6721 60.7205 46.8045C62.6093 45.9809 66.6812 46.6259 69.8405 42.6632Z" fill="url(#paint41_linear)"/>
<path d="M73.0329 37.7247C70.7803 39.0709 68.0117 39.9012 64.962 43.3975C66.3777 42.435 70.8664 42.1373 73.0329 37.7247Z" fill="url(#paint42_linear)"/>
<path d="M68.4251 39.342C69.6192 38.2075 73.615 37.3607 75.1134 32.356C72.7186 34.4564 70.9655 35.3462 68.4251 39.342Z" fill="url(#paint43_linear)"/>
<path d="M71.0774 34.7711C71.7622 33.7887 75.6588 31.9595 76.2177 26.8291C73.1779 30.2394 71.7952 32.7798 71.0774 34.7711Z" fill="url(#paint44_linear)"/>
<path d="M76.42 21.2224C74.6801 23.8124 73.4562 26.7133 72.8112 29.7665C73.3802 28.5294 76.6979 26.3793 76.42 21.2224Z" fill="url(#paint45_linear)"/>
<path d="M73.6086 24.6096C73.9559 23.4154 76.8502 20.9181 75.7851 15.7775C74.5711 18.5792 73.8368 21.5628 73.6086 24.6096Z" fill="url(#paint46_linear)"/>
<path d="M74.2528 10.2572C74.1668 10.6211 73.3133 16.3104 73.6011 19.3433C73.7434 18.1988 76.4193 15.1159 74.2528 10.2572Z" fill="url(#paint47_linear)"/>
<path d="M71.9412 5.80146C71.8519 5.64269 71.756 5.48723 71.6534 5.33506C71.4087 7.67366 72.8905 14.0808 72.8972 14.1604C72.9071 13.0158 74.6502 10.3993 71.9412 5.80146Z" fill="url(#paint48_linear)"/>
<path d="M64.9117 0.00251437C66.6053 2.93318 67.9085 6.97205 71.0674 9.6314C71.5074 6.3931 67.1808 1.56705 64.9117 0.00251437Z" fill="url(#paint49_linear)"/>
<path d="M23.7766 16H25.1652L22.1125 7.54492H20.6945L17.6418 16H19.007L19.7805 13.7148H23.0031L23.7766 16ZM21.3742 8.95117H21.4094L22.6691 12.6602H20.1145L21.3742 8.95117Z" fill="url(#paint50_linear)"/>
<path d="M29.1742 16V9.77148H29.227L33.6098 16H34.7934V7.54492H33.516V13.7793H33.4691L29.0863 7.54492H27.8969V16H29.1742Z" fill="url(#paint51_linear)"/>
<path d="M39.4352 16V9.77148H39.4879L43.8707 16H45.0543V7.54492H43.777V13.7793H43.7301L39.3473 7.54492H38.1578V16H39.4352Z" fill="url(#paint52_linear)"/>
<path d="M52.075 7.4043C49.6375 7.4043 48.1141 9.08594 48.1141 11.7754C48.1141 14.4648 49.6375 16.1406 52.075 16.1406C54.5066 16.1406 56.0359 14.4648 56.0359 11.7754C56.0359 9.08594 54.5066 7.4043 52.075 7.4043ZM52.075 8.55859C53.6805 8.55859 54.6883 9.80078 54.6883 11.7754C54.6883 13.7441 53.6805 14.9863 52.075 14.9863C50.4695 14.9863 49.4559 13.7441 49.4559 11.7754C49.4559 9.80078 50.4695 8.55859 52.075 8.55859Z" fill="url(#paint53_linear)"/>
<path d="M28.1652 32V23.5449H26.6418L23.9113 30.2188H23.8645L21.1281 23.5449H19.6105V32H20.8059V25.7773H20.8469L23.4016 31.9355H24.3742L26.923 25.7773H26.9641V32H28.1652Z" fill="url(#paint54_linear)"/>
<path d="M40.0785 32V23.5449H38.5551L35.8246 30.2188H35.7777L33.0414 23.5449H31.5238V32H32.7191V25.7773H32.7602L35.3148 31.9355H36.2875L38.8363 25.7773H38.8773V32H40.0785Z" fill="url(#paint55_linear)"/>
<path d="M44.7496 32V23.5449H43.4371V32H44.7496Z" fill="url(#paint56_linear)"/>
<path d="M47.5867 32H49.0398L51.1727 28.7773H51.2137L53.3172 32H54.8523L52.0398 27.8047V27.7695L54.9051 23.5449H53.4227L51.3133 26.8145H51.2664L49.1805 23.5449H47.616L50.3934 27.7227V27.7637L47.5867 32Z" fill="url(#paint57_linear)"/>
</g>
<defs>
<linearGradient id="paint0_linear" x1="37" y1="4" x2="37" y2="36" gradientUnits="userSpaceOnUse">
<stop stop-color="#ECEFF4"/>
<stop offset="1" stop-color="#ABB7CF"/>
</linearGradient>
<linearGradient id="paint1_linear" x1="37" y1="4" x2="37" y2="36" gradientUnits="userSpaceOnUse">
<stop stop-color="#ECEFF4"/>
<stop offset="1" stop-color="#ABB7CF"/>
</linearGradient>
<linearGradient id="paint2_linear" x1="37" y1="4" x2="37" y2="36" gradientUnits="userSpaceOnUse">
<stop stop-color="#ECEFF4"/>
<stop offset="1" stop-color="#ABB7CF"/>
</linearGradient>
<linearGradient id="paint3_linear" x1="37" y1="4" x2="37" y2="36" gradientUnits="userSpaceOnUse">
<stop stop-color="#ECEFF4"/>
<stop offset="1" stop-color="#ABB7CF"/>
</linearGradient>
<linearGradient id="paint4_linear" x1="37" y1="4" x2="37" y2="36" gradientUnits="userSpaceOnUse">
<stop stop-color="#ECEFF4"/>
<stop offset="1" stop-color="#ABB7CF"/>
</linearGradient>
<linearGradient id="paint5_linear" x1="37" y1="4" x2="37" y2="36" gradientUnits="userSpaceOnUse">
<stop stop-color="#ECEFF4"/>
<stop offset="1" stop-color="#ABB7CF"/>
</linearGradient>
<linearGradient id="paint6_linear" x1="37" y1="4" x2="37" y2="36" gradientUnits="userSpaceOnUse">
<stop stop-color="#ECEFF4"/>
<stop offset="1" stop-color="#ABB7CF"/>
</linearGradient>
<linearGradient id="paint7_linear" x1="37" y1="4" x2="37" y2="36" gradientUnits="userSpaceOnUse">
<stop stop-color="#ECEFF4"/>
<stop offset="1" stop-color="#ABB7CF"/>
</linearGradient>
<linearGradient id="paint8_linear" x1="37" y1="4" x2="37" y2="36" gradientUnits="userSpaceOnUse">
<stop stop-color="#ECEFF4"/>
<stop offset="1" stop-color="#ABB7CF"/>
</linearGradient>
<linearGradient id="paint9_linear" x1="37" y1="4" x2="37" y2="36" gradientUnits="userSpaceOnUse">
<stop stop-color="#ECEFF4"/>
<stop offset="1" stop-color="#ABB7CF"/>
</linearGradient>
<linearGradient id="paint10_linear" x1="37" y1="4" x2="37" y2="36" gradientUnits="userSpaceOnUse">
<stop stop-color="#ECEFF4"/>
<stop offset="1" stop-color="#ABB7CF"/>
</linearGradient>
<linearGradient id="paint11_linear" x1="37" y1="4" x2="37" y2="36" gradientUnits="userSpaceOnUse">
<stop stop-color="#ECEFF4"/>
<stop offset="1" stop-color="#ABB7CF"/>
</linearGradient>
<linearGradient id="paint12_linear" x1="37" y1="4" x2="37" y2="36" gradientUnits="userSpaceOnUse">
<stop stop-color="#ECEFF4"/>
<stop offset="1" stop-color="#ABB7CF"/>
</linearGradient>
<linearGradient id="paint13_linear" x1="37" y1="4" x2="37" y2="36" gradientUnits="userSpaceOnUse">
<stop stop-color="#ECEFF4"/>
<stop offset="1" stop-color="#ABB7CF"/>
</linearGradient>
<linearGradient id="paint14_linear" x1="37" y1="4" x2="37" y2="36" gradientUnits="userSpaceOnUse">
<stop stop-color="#ECEFF4"/>
<stop offset="1" stop-color="#ABB7CF"/>
</linearGradient>
<linearGradient id="paint15_linear" x1="37" y1="4" x2="37" y2="36" gradientUnits="userSpaceOnUse">
<stop stop-color="#ECEFF4"/>
<stop offset="1" stop-color="#ABB7CF"/>
</linearGradient>
<linearGradient id="paint16_linear" x1="37" y1="4" x2="37" y2="36" gradientUnits="userSpaceOnUse">
<stop stop-color="#ECEFF4"/>
<stop offset="1" stop-color="#ABB7CF"/>
</linearGradient>
<linearGradient id="paint17_linear" x1="37" y1="4" x2="37" y2="36" gradientUnits="userSpaceOnUse">
<stop stop-color="#ECEFF4"/>
<stop offset="1" stop-color="#ABB7CF"/>
</linearGradient>
<linearGradient id="paint18_linear" x1="37" y1="4" x2="37" y2="36" gradientUnits="userSpaceOnUse">
<stop stop-color="#ECEFF4"/>
<stop offset="1" stop-color="#ABB7CF"/>
</linearGradient>
<linearGradient id="paint19_linear" x1="37" y1="4" x2="37" y2="36" gradientUnits="userSpaceOnUse">
<stop stop-color="#ECEFF4"/>
<stop offset="1" stop-color="#ABB7CF"/>
</linearGradient>
<linearGradient id="paint20_linear" x1="37" y1="4" x2="37" y2="36" gradientUnits="userSpaceOnUse">
<stop stop-color="#ECEFF4"/>
<stop offset="1" stop-color="#ABB7CF"/>
</linearGradient>
<linearGradient id="paint21_linear" x1="37" y1="4" x2="37" y2="36" gradientUnits="userSpaceOnUse">
<stop stop-color="#ECEFF4"/>
<stop offset="1" stop-color="#ABB7CF"/>
</linearGradient>
<linearGradient id="paint22_linear" x1="37" y1="4" x2="37" y2="36" gradientUnits="userSpaceOnUse">
<stop stop-color="#ECEFF4"/>
<stop offset="1" stop-color="#ABB7CF"/>
</linearGradient>
<linearGradient id="paint23_linear" x1="37" y1="4" x2="37" y2="36" gradientUnits="userSpaceOnUse">
<stop stop-color="#ECEFF4"/>
<stop offset="1" stop-color="#ABB7CF"/>
</linearGradient>
<linearGradient id="paint24_linear" x1="37" y1="4" x2="37" y2="36" gradientUnits="userSpaceOnUse">
<stop stop-color="#ECEFF4"/>
<stop offset="1" stop-color="#ABB7CF"/>
</linearGradient>
<linearGradient id="paint25_linear" x1="37" y1="4" x2="37" y2="36" gradientUnits="userSpaceOnUse">
<stop stop-color="#ECEFF4"/>
<stop offset="1" stop-color="#ABB7CF"/>
</linearGradient>
<linearGradient id="paint26_linear" x1="37" y1="4" x2="37" y2="36" gradientUnits="userSpaceOnUse">
<stop stop-color="#ECEFF4"/>
<stop offset="1" stop-color="#ABB7CF"/>
</linearGradient>
<linearGradient id="paint27_linear" x1="37" y1="4" x2="37" y2="36" gradientUnits="userSpaceOnUse">
<stop stop-color="#ECEFF4"/>
<stop offset="1" stop-color="#ABB7CF"/>
</linearGradient>
<linearGradient id="paint28_linear" x1="37" y1="4" x2="37" y2="36" gradientUnits="userSpaceOnUse">
<stop stop-color="#ECEFF4"/>
<stop offset="1" stop-color="#ABB7CF"/>
</linearGradient>
<linearGradient id="paint29_linear" x1="37" y1="4" x2="37" y2="36" gradientUnits="userSpaceOnUse">
<stop stop-color="#ECEFF4"/>
<stop offset="1" stop-color="#ABB7CF"/>
</linearGradient>
<linearGradient id="paint30_linear" x1="37" y1="4" x2="37" y2="36" gradientUnits="userSpaceOnUse">
<stop stop-color="#ECEFF4"/>
<stop offset="1" stop-color="#ABB7CF"/>
</linearGradient>
<linearGradient id="paint31_linear" x1="37" y1="4" x2="37" y2="36" gradientUnits="userSpaceOnUse">
<stop stop-color="#ECEFF4"/>
<stop offset="1" stop-color="#ABB7CF"/>
</linearGradient>
<linearGradient id="paint32_linear" x1="37" y1="4" x2="37" y2="36" gradientUnits="userSpaceOnUse">
<stop stop-color="#ECEFF4"/>
<stop offset="1" stop-color="#ABB7CF"/>
</linearGradient>
<linearGradient id="paint33_linear" x1="37" y1="4" x2="37" y2="36" gradientUnits="userSpaceOnUse">
<stop stop-color="#ECEFF4"/>
<stop offset="1" stop-color="#ABB7CF"/>
</linearGradient>
<linearGradient id="paint34_linear" x1="37" y1="4" x2="37" y2="36" gradientUnits="userSpaceOnUse">
<stop stop-color="#ECEFF4"/>
<stop offset="1" stop-color="#ABB7CF"/>
</linearGradient>
<linearGradient id="paint35_linear" x1="37" y1="4" x2="37" y2="36" gradientUnits="userSpaceOnUse">
<stop stop-color="#ECEFF4"/>
<stop offset="1" stop-color="#ABB7CF"/>
</linearGradient>
<linearGradient id="paint36_linear" x1="37" y1="4" x2="37" y2="36" gradientUnits="userSpaceOnUse">
<stop stop-color="#ECEFF4"/>
<stop offset="1" stop-color="#ABB7CF"/>
</linearGradient>
<linearGradient id="paint37_linear" x1="37" y1="4" x2="37" y2="36" gradientUnits="userSpaceOnUse">
<stop stop-color="#ECEFF4"/>
<stop offset="1" stop-color="#ABB7CF"/>
</linearGradient>
<linearGradient id="paint38_linear" x1="37" y1="4" x2="37" y2="36" gradientUnits="userSpaceOnUse">
<stop stop-color="#ECEFF4"/>
<stop offset="1" stop-color="#ABB7CF"/>
</linearGradient>
<linearGradient id="paint39_linear" x1="37" y1="4" x2="37" y2="36" gradientUnits="userSpaceOnUse">
<stop stop-color="#ECEFF4"/>
<stop offset="1" stop-color="#ABB7CF"/>
</linearGradient>
<linearGradient id="paint40_linear" x1="37" y1="4" x2="37" y2="36" gradientUnits="userSpaceOnUse">
<stop stop-color="#ECEFF4"/>
<stop offset="1" stop-color="#ABB7CF"/>
</linearGradient>
<linearGradient id="paint41_linear" x1="37" y1="4" x2="37" y2="36" gradientUnits="userSpaceOnUse">
<stop stop-color="#ECEFF4"/>
<stop offset="1" stop-color="#ABB7CF"/>
</linearGradient>
<linearGradient id="paint42_linear" x1="37" y1="4" x2="37" y2="36" gradientUnits="userSpaceOnUse">
<stop stop-color="#ECEFF4"/>
<stop offset="1" stop-color="#ABB7CF"/>
</linearGradient>
<linearGradient id="paint43_linear" x1="37" y1="4" x2="37" y2="36" gradientUnits="userSpaceOnUse">
<stop stop-color="#ECEFF4"/>
<stop offset="1" stop-color="#ABB7CF"/>
</linearGradient>
<linearGradient id="paint44_linear" x1="37" y1="4" x2="37" y2="36" gradientUnits="userSpaceOnUse">
<stop stop-color="#ECEFF4"/>
<stop offset="1" stop-color="#ABB7CF"/>
</linearGradient>
<linearGradient id="paint45_linear" x1="37" y1="4" x2="37" y2="36" gradientUnits="userSpaceOnUse">
<stop stop-color="#ECEFF4"/>
<stop offset="1" stop-color="#ABB7CF"/>
</linearGradient>
<linearGradient id="paint46_linear" x1="37" y1="4" x2="37" y2="36" gradientUnits="userSpaceOnUse">
<stop stop-color="#ECEFF4"/>
<stop offset="1" stop-color="#ABB7CF"/>
</linearGradient>
<linearGradient id="paint47_linear" x1="37" y1="4" x2="37" y2="36" gradientUnits="userSpaceOnUse">
<stop stop-color="#ECEFF4"/>
<stop offset="1" stop-color="#ABB7CF"/>
</linearGradient>
<linearGradient id="paint48_linear" x1="37" y1="4" x2="37" y2="36" gradientUnits="userSpaceOnUse">
<stop stop-color="#ECEFF4"/>
<stop offset="1" stop-color="#ABB7CF"/>
</linearGradient>
<linearGradient id="paint49_linear" x1="37" y1="4" x2="37" y2="36" gradientUnits="userSpaceOnUse">
<stop stop-color="#ECEFF4"/>
<stop offset="1" stop-color="#ABB7CF"/>
</linearGradient>
<linearGradient id="paint50_linear" x1="37" y1="4" x2="37" y2="36" gradientUnits="userSpaceOnUse">
<stop stop-color="#ECEFF4"/>
<stop offset="1" stop-color="#ABB7CF"/>
</linearGradient>
<linearGradient id="paint51_linear" x1="37" y1="4" x2="37" y2="36" gradientUnits="userSpaceOnUse">
<stop stop-color="#ECEFF4"/>
<stop offset="1" stop-color="#ABB7CF"/>
</linearGradient>
<linearGradient id="paint52_linear" x1="37" y1="4" x2="37" y2="36" gradientUnits="userSpaceOnUse">
<stop stop-color="#ECEFF4"/>
<stop offset="1" stop-color="#ABB7CF"/>
</linearGradient>
<linearGradient id="paint53_linear" x1="37" y1="4" x2="37" y2="36" gradientUnits="userSpaceOnUse">
<stop stop-color="#ECEFF4"/>
<stop offset="1" stop-color="#ABB7CF"/>
</linearGradient>
<linearGradient id="paint54_linear" x1="37" y1="4" x2="37" y2="36" gradientUnits="userSpaceOnUse">
<stop stop-color="#ECEFF4"/>
<stop offset="1" stop-color="#ABB7CF"/>
</linearGradient>
<linearGradient id="paint55_linear" x1="37" y1="4" x2="37" y2="36" gradientUnits="userSpaceOnUse">
<stop stop-color="#ECEFF4"/>
<stop offset="1" stop-color="#ABB7CF"/>
</linearGradient>
<linearGradient id="paint56_linear" x1="37" y1="4" x2="37" y2="36" gradientUnits="userSpaceOnUse">
<stop stop-color="#ECEFF4"/>
<stop offset="1" stop-color="#ABB7CF"/>
</linearGradient>
<linearGradient id="paint57_linear" x1="37" y1="4" x2="37" y2="36" gradientUnits="userSpaceOnUse">
<stop stop-color="#ECEFF4"/>
<stop offset="1" stop-color="#ABB7CF"/>
</linearGradient>
</defs>
</svg>
