<svg width="538" height="249" viewBox="0 0 538 249" fill="none" xmlns="http://www.w3.org/2000/svg">
<path d="M92.4451 117.188H50.4707V8.09659H92.019C103.241 8.09659 112.935 10.2805 121.103 14.6484C129.306 18.9808 135.627 25.2308 140.066 33.3984C144.54 41.5305 146.778 51.2784 146.778 62.642C146.778 74.0057 144.558 83.7713 140.119 91.9389C135.68 100.071 129.395 106.321 121.263 110.689C113.131 115.021 103.525 117.188 92.4451 117.188ZM80.0872 92.0455H91.3798C96.7775 92.0455 101.376 91.1754 105.176 89.4354C109.011 87.6953 111.923 84.6946 113.912 80.4332C115.936 76.1719 116.948 70.2415 116.948 62.642C116.948 55.0426 115.918 49.1122 113.858 44.8508C111.834 40.5895 108.851 37.5888 104.91 35.8487C101.003 34.1087 96.2093 33.2386 90.5275 33.2386H80.0872V92.0455Z" fill="black"/>
<path d="M183.705 118.466C178.485 118.466 173.868 117.614 169.855 115.909C165.878 114.169 162.753 111.541 160.48 108.026C158.208 104.51 157.071 100.036 157.071 94.6023C157.071 90.1278 157.835 86.3104 159.362 83.1499C160.889 79.9538 163.02 77.3438 165.754 75.3196C168.488 73.2955 171.667 71.7507 175.289 70.6854C178.946 69.62 182.888 68.9276 187.114 68.6079C191.695 68.2528 195.37 67.8267 198.14 67.3295C200.946 66.7969 202.97 66.0689 204.213 65.1456C205.456 64.1868 206.077 62.9261 206.077 61.3636V61.1506C206.077 59.0199 205.26 57.3864 203.627 56.25C201.993 55.1136 199.898 54.5455 197.341 54.5455C194.536 54.5455 192.245 55.1669 190.47 56.4098C188.73 57.6172 187.682 59.4815 187.327 62.0028H160.267C160.623 57.0312 162.203 52.4503 165.008 48.2599C167.849 44.0341 171.986 40.6605 177.419 38.1392C182.853 35.5824 189.635 34.304 197.767 34.304C203.627 34.304 208.882 34.9964 213.534 36.3814C218.186 37.7308 222.146 39.6307 225.413 42.081C228.68 44.4957 231.166 47.3366 232.87 50.6037C234.61 53.8352 235.48 57.3509 235.48 61.1506V117.188H207.995V105.682H207.355C205.722 108.736 203.733 111.204 201.39 113.086C199.081 114.968 196.436 116.335 193.453 117.188C190.505 118.04 187.256 118.466 183.705 118.466ZM193.293 99.929C195.53 99.929 197.625 99.4673 199.578 98.544C201.567 97.6207 203.183 96.2891 204.426 94.549C205.669 92.8089 206.29 90.696 206.29 88.2102V81.392C205.509 81.7116 204.674 82.0135 203.787 82.2976C202.934 82.5817 202.011 82.848 201.017 83.0966C200.058 83.3452 199.028 83.576 197.927 83.7891C196.862 84.0021 195.743 84.1974 194.571 84.375C192.299 84.7301 190.434 85.3161 188.978 86.1328C187.558 86.9141 186.493 87.8906 185.782 89.0625C185.108 90.1989 184.77 91.4773 184.77 92.8977C184.77 95.1705 185.569 96.9105 187.167 98.1179C188.765 99.3253 190.807 99.929 193.293 99.929Z" fill="black"/>
<path d="M249.53 117.188V35.3693H277.442V50.9233H278.294C279.998 45.8097 282.91 41.7614 287.03 38.7784C291.149 35.7955 296.05 34.304 301.731 34.304C307.484 34.304 312.438 35.831 316.593 38.8849C320.748 41.9034 323.251 45.9162 324.104 50.9233H324.956C326.341 45.9162 329.288 41.9034 333.798 38.8849C338.308 35.831 343.599 34.304 349.672 34.304C357.52 34.304 363.876 36.8253 368.741 41.8679C373.642 46.9105 376.092 53.6222 376.092 62.0028V117.188H346.689V69.4602C346.689 65.8736 345.783 63.0682 343.972 61.044C342.161 58.9844 339.729 57.9545 336.675 57.9545C333.656 57.9545 331.259 58.9844 329.483 61.044C327.743 63.0682 326.873 65.8736 326.873 69.4602V117.188H298.748V69.4602C298.748 65.8736 297.843 63.0682 296.032 61.044C294.221 58.9844 291.788 57.9545 288.734 57.9545C286.71 57.9545 284.97 58.4162 283.514 59.3395C282.058 60.2628 280.922 61.5945 280.105 63.3345C279.324 65.0391 278.933 67.081 278.933 69.4602V117.188H249.53Z" fill="black"/>
<path d="M390.594 117.188V35.3693H419.998V117.188H390.594ZM405.296 26.8466C401.319 26.8466 397.909 25.5327 395.069 22.9048C392.228 20.277 390.807 17.1165 390.807 13.4233C390.807 9.73011 392.228 6.5696 395.069 3.94176C397.909 1.31392 401.319 0 405.296 0C409.309 0 412.718 1.31392 415.523 3.94176C418.364 6.5696 419.784 9.73011 419.784 13.4233C419.784 17.1165 418.364 20.277 415.523 22.9048C412.718 25.5327 409.309 26.8466 405.296 26.8466Z" fill="black"/>
<path d="M434.979 117.188V35.3693H463.53V50.9233H464.382C465.874 45.1705 468.235 40.9624 471.467 38.299C474.734 35.6357 478.551 34.304 482.919 34.304C484.198 34.304 485.458 34.4105 486.701 34.6236C487.98 34.8011 489.205 35.0675 490.377 35.4226V60.5114C488.921 60.0142 487.127 59.6413 484.997 59.3928C482.866 59.1442 481.037 59.0199 479.51 59.0199C476.634 59.0199 474.041 59.6768 471.733 60.9908C469.46 62.2692 467.667 64.0803 466.353 66.424C465.039 68.7322 464.382 71.4489 464.382 74.5739V117.188H434.979Z" fill="black"/>
<path d="M0.519531 247.188V138.097H30.136V182.202H31.6275L64.44 138.097H98.957L62.0962 186.676L99.8093 247.188H64.44L39.9371 206.278L30.136 219.062V247.188H0.519531Z" fill="black"/>
<path d="M141.584 248.679C132.706 248.679 125.107 246.921 118.786 243.406C112.465 239.854 107.617 234.918 104.244 228.597C100.87 222.241 99.1834 214.872 99.1834 206.491C99.1834 198.111 100.87 190.76 104.244 184.439C107.617 178.082 112.465 173.146 118.786 169.631C125.107 166.08 132.706 164.304 141.584 164.304C150.462 164.304 158.061 166.08 164.382 169.631C170.703 173.146 175.551 178.082 178.924 184.439C182.298 190.76 183.985 198.111 183.985 206.491C183.985 214.872 182.298 222.241 178.924 228.597C175.551 234.918 170.703 239.854 164.382 243.406C158.061 246.921 150.462 248.679 141.584 248.679ZM141.797 226.946C144.283 226.946 146.431 226.112 148.242 224.442C150.053 222.773 151.456 220.394 152.45 217.305C153.445 214.215 153.942 210.54 153.942 206.278C153.942 201.982 153.445 198.306 152.45 195.252C151.456 192.163 150.053 189.783 148.242 188.114C146.431 186.445 144.283 185.611 141.797 185.611C139.169 185.611 136.914 186.445 135.032 188.114C133.15 189.783 131.712 192.163 130.718 195.252C129.723 198.306 129.226 201.982 129.226 206.278C129.226 210.54 129.723 214.215 130.718 217.305C131.712 220.394 133.15 222.773 135.032 224.442C136.914 226.112 139.169 226.946 141.797 226.946Z" fill="black"/>
<path d="M244.709 165.369V186.676H190.803V165.369H244.709ZM201.243 145.767H230.646V220.874C230.646 222.01 230.842 222.969 231.232 223.75C231.623 224.496 232.227 225.064 233.044 225.455C233.86 225.81 234.908 225.987 236.186 225.987C237.074 225.987 238.104 225.881 239.276 225.668C240.483 225.455 241.371 225.277 241.939 225.135L246.2 245.803C244.887 246.193 243.004 246.673 240.554 247.241C238.139 247.809 235.263 248.182 231.925 248.359C225.178 248.714 219.514 248.022 214.933 246.282C210.352 244.506 206.907 241.719 204.599 237.919C202.291 234.119 201.172 229.361 201.243 223.643V145.767Z" fill="black"/>
<path d="M295.246 248.679C286.368 248.679 278.769 246.921 272.448 243.406C266.127 239.854 261.279 234.918 257.906 228.597C254.532 222.241 252.846 214.872 252.846 206.491C252.846 198.111 254.532 190.76 257.906 184.439C261.279 178.082 266.127 173.146 272.448 169.631C278.769 166.08 286.368 164.304 295.246 164.304C304.124 164.304 311.723 166.08 318.044 169.631C324.365 173.146 329.213 178.082 332.586 184.439C335.96 190.76 337.647 198.111 337.647 206.491C337.647 214.872 335.96 222.241 332.586 228.597C329.213 234.918 324.365 239.854 318.044 243.406C311.723 246.921 304.124 248.679 295.246 248.679ZM295.459 226.946C297.945 226.946 300.093 226.112 301.904 224.442C303.716 222.773 305.118 220.394 306.113 217.305C307.107 214.215 307.604 210.54 307.604 206.278C307.604 201.982 307.107 198.306 306.113 195.252C305.118 192.163 303.716 189.783 301.904 188.114C300.093 186.445 297.945 185.611 295.459 185.611C292.831 185.611 290.576 186.445 288.694 188.114C286.812 189.783 285.374 192.163 284.38 195.252C283.385 198.306 282.888 201.982 282.888 206.278C282.888 210.54 283.385 214.215 284.38 217.305C285.374 220.394 286.812 222.773 288.694 224.442C290.576 226.112 292.831 226.946 295.459 226.946Z" fill="black"/>
<path d="M349.578 247.188V165.369H378.13V180.923H378.982C380.473 175.17 382.835 170.962 386.066 168.299C389.333 165.636 393.151 164.304 397.519 164.304C398.797 164.304 400.058 164.411 401.301 164.624C402.579 164.801 403.804 165.067 404.976 165.423V190.511C403.52 190.014 401.727 189.641 399.596 189.393C397.466 189.144 395.637 189.02 394.11 189.02C391.233 189.02 388.641 189.677 386.333 190.991C384.06 192.269 382.267 194.08 380.953 196.424C379.639 198.732 378.982 201.449 378.982 204.574V247.188H349.578Z" fill="black"/>
<path d="M414.618 247.188V165.369H444.021V247.188H414.618ZM429.319 156.847C425.342 156.847 421.933 155.533 419.092 152.905C416.251 150.277 414.831 147.116 414.831 143.423C414.831 139.73 416.251 136.57 419.092 133.942C421.933 131.314 425.342 130 429.319 130C433.332 130 436.741 131.314 439.547 133.942C442.387 136.57 443.808 139.73 443.808 143.423C443.808 147.116 442.387 150.277 439.547 152.905C436.741 155.533 433.332 156.847 429.319 156.847Z" fill="black"/>
<path d="M498.42 248.679C489.542 248.679 481.943 246.921 475.622 243.406C469.301 239.854 464.453 234.918 461.08 228.597C457.706 222.241 456.019 214.872 456.019 206.491C456.019 198.111 457.706 190.76 461.08 184.439C464.453 178.082 469.301 173.146 475.622 169.631C481.943 166.08 489.542 164.304 498.42 164.304C506.445 164.304 513.388 165.76 519.247 168.672C525.142 171.548 529.705 175.632 532.937 180.923C536.168 186.179 537.802 192.358 537.838 199.46H510.565C510.174 195.163 508.931 191.896 506.836 189.659C504.776 187.386 502.113 186.25 498.846 186.25C496.289 186.25 494.052 186.996 492.134 188.487C490.217 189.943 488.725 192.163 487.66 195.146C486.595 198.093 486.062 201.804 486.062 206.278C486.062 210.753 486.595 214.482 487.66 217.464C488.725 220.412 490.217 222.631 492.134 224.123C494.052 225.579 496.289 226.307 498.846 226.307C501.012 226.307 502.93 225.81 504.599 224.815C506.268 223.786 507.617 222.294 508.647 220.341C509.713 218.352 510.352 215.937 510.565 213.097H537.838C537.731 220.305 536.08 226.591 532.884 231.953C529.688 237.28 525.16 241.399 519.301 244.311C513.477 247.223 506.517 248.679 498.42 248.679ZM488.832 155.142L499.059 131.278H524.201L508.221 155.142H488.832Z" fill="black"/>
</svg>
