<svg height="94" viewBox="0 0 94 94" width="94" xmlns="http://www.w3.org/2000/svg"><g fill="#fff" fill-rule="evenodd"><path d="m31.375 22h20.312v3.125h-20.312z"/><path d="m54.812 22h7.8125v3.125h-7.8125z"/><path d="m86.062.125h-3.125c-.86328 0-1.5625.69922-1.5625 1.5625v10.938h-79.688c-.86328 0-1.5625.69922-1.5625 1.5625v65.625c0 .41406.16406.8125.45703 1.1055s.69141.45703 1.1055.45703h84.375c4.3125-.003906 7.8086-3.5 7.8125-7.8125v-65.625c-.003906-4.3125-3.5-7.8086-7.8125-7.8125zm0 78.125h-82.812v-62.5h78.125v51.562c0 .41406.16406.8125.45703 1.1055s.69141.45703 1.1055.45703h3.125c2.5898 0 4.6875 2.0977 4.6875 4.6875s-2.0977 4.6875-4.6875 4.6875zm4.6875-10.938c-1.3516-1.0156-2.9961-1.5664-4.6875-1.5625h-1.5625v-62.5h1.5625c2.5898 0 4.6875 2.0977 4.6875 4.6875z" fill-rule="nonzero"/><path d="m76.688 50.125h-7.8125v-4.6875c0-.41406-.16406-.8125-.45703-1.1055s-.69141-.45703-1.1055-.45703h-18.75v-3.125h7.8125c.41406 0 .8125-.16406 1.1055-.45703s.45703-.69141.45703-1.1055v-9.375c0-.41406-.16406-.8125-.45703-1.1055s-.69141-.45703-1.1055-.45703h-18.75c-.86328 0-1.5625.69922-1.5625 1.5625v9.375c0 .41406.16406.8125.45703 1.1055s.69141.45703 1.1055.45703h7.8125v3.125h-18.75c-.86328 0-1.5625.69922-1.5625 1.5625v4.6875h-7.8125c-.86328 0-1.5625.69922-1.5625 1.5625v9.375c0 .41406.16406.8125.45703 1.1055s.69141.45703 1.1055.45703h18.75c.41406 0 .8125-.16406 1.1055-.45703s.45703-.69141.45703-1.1055v-9.375c0-.41406-.16406-.8125-.45703-1.1055s-.69141-.45703-1.1055-.45703h-7.8125v-3.125h37.5v3.125h-7.8125c-.86328 0-1.5625.69922-1.5625 1.5625v9.375c0 .41406.16406.8125.45703 1.1055s.69141.45703 1.1055.45703h18.75c.41406 0 .8125-.16406 1.1055-.45703s.45703-.69141.45703-1.1055v-9.375c0-.41406-.16406-.8125-.45703-1.1055s-.69141-.45703-1.1055-.45703zm-42.188 3.125v6.25h-15.625v-6.25zm4.6875-15.625v-6.25h15.625v6.25zm35.938 21.875h-15.625v-6.25h15.625z" fill-rule="nonzero"/><path d="m15.75 65.75h6.25v3.125h-6.25z"/><path d="m25.125 65.75h12.5v3.125h-12.5z"/><path d="m78.25 86.062c0-.41406-.16406-.8125-.45703-1.1055s-.69141-.45703-1.1055-.45703h-35.938c-.30859 0-.60938.089844-.86719.26172l-4.6875 3.125c-.43359.28906-.69531.77734-.69531 1.3008s.26172 1.0117.69531 1.3008l4.6875 3.125c.25781.17188.55859.26172.86719.26172h35.938c.41406 0 .8125-.16406 1.1055-.45703s.45703-.69141.45703-1.1055zm-9.375 4.6875h-27.656l-2.3438-1.5625 2.3438-1.5625h27.656zm6.25 0h-3.125v-3.125h3.125z" fill-rule="nonzero"/><path d="m56.375 65.75h12.5v3.125h-12.5z"/><path d="m72 65.75h6.25v3.125h-6.25z"/></g></svg>