<svg width="77" height="60" viewBox="0 0 77 60" fill="none" xmlns="http://www.w3.org/2000/svg">
<path d="M42.2237 37.5719C42.2237 29.1374 45.0352 21.5974 50.6582 14.9521C56.2812 8.30671 63.7573 3.32269 73.0863 3.18409e-07L76.5368 8.05111C73.9809 9.45686 71.2333 11.5016 68.294 14.1853C65.2269 16.9968 62.4154 20.1917 59.8595 23.77L69.2525 30.0959C72.1918 32.1406 74.1726 34.3131 75.195 36.6134C76.2173 39.0415 76.7285 41.5974 76.7285 44.2812C76.7285 46.4537 76.2812 48.4984 75.3867 50.4153C74.4921 52.3323 73.278 53.9936 71.7445 55.3994C70.2109 56.8051 68.4857 57.8914 66.5688 58.6582C64.6518 59.5527 62.671 60 60.6263 60C57.4314 60 54.7477 59.361 52.5752 58.0831C50.4026 56.8051 48.5496 55.5911 47.016 54.4409C45.3547 51.885 44.1406 49.1374 43.3739 46.1981C42.6071 43.3866 42.2237 40.5112 42.2237 37.5719ZM0.434576 37.5719C0.434575 29.1374 3.24607 21.5975 8.86908 14.9521C14.4921 8.30671 21.9681 3.32269 31.2972 3.97173e-06L34.7477 8.05112C32.1918 9.45687 29.4442 11.5016 26.5049 14.1853C23.4378 16.9968 20.6263 20.1917 18.0704 23.77L27.4633 30.0959C30.4026 32.1406 32.3835 34.3131 33.4058 36.6134C34.4282 39.0415 34.9394 41.5975 34.9394 44.2812C34.9394 46.4537 34.4921 48.4984 33.5975 50.4153C32.7029 52.3323 31.4889 53.9936 29.9553 55.3994C28.4218 56.8051 26.6966 57.8914 24.7796 58.6582C22.8627 59.5527 20.8819 60 18.8371 60C15.6422 60 12.9585 59.361 10.786 58.0831C8.61349 56.8051 6.76045 55.5911 5.22691 54.4409C3.56557 51.885 2.3515 49.1374 1.58473 46.1981C0.817954 43.3866 0.434576 40.5112 0.434576 37.5719Z" fill="url(#paint0_linear)"/>
<defs>
<linearGradient id="paint0_linear" x1="38.6279" y1="-0.225035" x2="38.6279" y2="59.775" gradientUnits="userSpaceOnUse">
<stop stop-color="#496397"/>
<stop offset="1" stop-color="#3A4F79"/>
</linearGradient>
</defs>
</svg>
