<svg fill="none" height="59" viewBox="0 0 80 59" width="80" xmlns="http://www.w3.org/2000/svg"><g clip-rule="evenodd" fill="#000" fill-rule="evenodd"><path d="m18 45.301h-8.99998v9.6992l8.99998-2.3008z"/><path d="m35 41.301v-8h-9v13.5l7-6.4023z"/><path d="m50.398 34.102 1.6016.6992v-14.5h-9v24.301l1.3984.5977z"/><path d="m69 6.30101h-9v25.69899l9-17.602z"/><path d="m69 58.301v-32.902l-9 17.5v15.402h-8v-16.602l-5.3984 9.8008-3.6016-1.5v8.3008h-8v-11.602l-1-.3984-8 7.3008v4.6992h-13.898l5.8984-1.5 4.3008-1.1016 3.6992-3.3984 7.8008-7.1992 1.1992.5 8 3.2969 3.1992 1.3008 5.8008-10.598.1992-.3008 7 3 .8008-1.6016 19.898-38.69901-2.6992-1.300804-8.1992 15.902014-9 17.598-2.1992 4.1992-5.8008-2.5-1.1016-.5-6 11-1.8984-.6992-8-3.3984-1.8008-.6993-7.1992 6.5977-5.1992 4.8008-2.8008.6993-8.99998 2.4023-8.800801 2.1992z"/></g></svg>