<svg fill="none" height="23" viewBox="0 0 24 23" width="24" xmlns="http://www.w3.org/2000/svg"><path clip-rule="evenodd" d="m12.6545 1.88127c1.2259-1.18403 2.8678-1.8391934 4.5721-1.8243837 1.7043.0148098 3.3346.6984077 4.5397 1.9035637 1.2052 1.20515 1.8888 2.83543 1.9036 4.53971s-.6404 3.34619-1.8244 4.57214l-.0183.0186-2.9998 2.9998s-.0001.0001-.0002.0002c-.6589.6591-1.4518 1.1688-2.325 1.4945-.8733.3257-1.8065.4599-2.7361.3933-.9297-.0666-1.8342-.3323-2.6522-.7792-.8179-.4469-1.5302-1.0645-2.08848-1.8108-.49621-.6634-.3607-1.6034.30267-2.0996.66338-.4963 1.60341-.3607 2.09961.3026.3006.4019.6842.7345 1.1246.9751s.9275.3837 1.4281.4196c.5006.0358 1.003-.0364 1.4733-.2118.4702-.1754.8972-.4499 1.252-.8049l.0002-.0002 2.99-2.98993c.6323-.65918.982-1.53961.9741-2.45334-.008-.91769-.3761-1.79553-1.025-2.44446s-1.5268-1.01702-2.4445-1.025c-.9144-.00794-1.7954.34228-2.4548.97551l-1.7116 1.70167c-.5875.58407-1.5372.5813-2.1213-.00619s-.5813-1.53723.0062-2.12131l1.72-1.71zm-4.70334 5.51401c.87329-.32577 1.80642-.4599 2.73614-.39332.9296.06658 1.8341.33232 2.6521.77921.8179.44688 1.5302 1.06446 2.0885 1.81082.4962.66341.3607 1.60341-.3027 2.09961-.6633.4962-1.6034.3607-2.0996-.3027-.3006-.4019-.6841-.7344-1.1246-.975-.4404-.2407-.9274-.3838-1.428-.41961-.50064-.03585-1.0031.03641-1.47333.21181s-.89724.4499-1.25206.8048l-.00019.0002-2.98997 2.99c-.63235.6592-.98205 1.5396-.97411 2.4533.00797.9177.37606 1.7956 1.02499 2.4445s1.52677 1.017 2.44446 1.025c.91373.0079 1.79417-.3418 2.45335-.9741l1.69996-1.7c.5858-.5858 1.5355-.5858 2.1213 0s.5858 1.5355 0 2.1213l-1.71 1.71-.0186.0183c-1.2259 1.184-2.8678 1.8392-4.57208 1.8244s-3.33456-.6984-4.53971-1.9036c-1.20515-1.2051-1.888751-2.8354-1.903561-4.5397s.640351-3.3462 1.824381-4.5721l.01827-.0186 2.99981-2.99981c.00006-.00006.00013-.00013.00019-.00019.65892-.6591 1.45186-1.16879 2.32506-1.49452z" fill-rule="evenodd"/></svg>