<svg width="500" height="500" viewBox="0 0 500 500" fill="none" xmlns="http://www.w3.org/2000/svg">
<path d="M249.999 1.42456C386.91 1.42456 498.572 113.087 498.572 249.994C498.572 386.905 386.91 498.568 249.999 498.568C113.092 498.568 1.42578 386.905 1.42578 249.994C1.42578 113.087 113.092 1.42456 249.999 1.42456ZM249.999 11.3302C118.546 11.3302 11.3314 118.541 11.3314 249.994C11.3314 381.451 118.546 488.662 249.999 488.662C381.456 488.662 488.67 381.451 488.67 249.994C488.67 118.541 381.456 11.3302 249.999 11.3302Z" fill="white"/>
<path d="M162.696 355.935C147.132 343.083 134.427 326.871 125.707 308.425C117.314 290.669 112.617 270.854 112.617 249.994C112.617 174.33 174.334 112.614 250.005 112.614C325.672 112.614 387.389 174.33 387.389 249.994C387.389 270.854 382.689 290.672 374.298 308.425C365.582 326.871 352.877 343.083 337.31 355.935L334.161 352.126C349.173 339.723 361.429 324.09 369.833 306.317C377.915 289.217 382.44 270.121 382.44 249.991C382.44 177.052 322.95 117.559 250.009 117.559C177.063 117.559 117.573 177.052 117.573 249.991C117.573 270.118 122.098 289.217 130.18 306.317C138.58 324.086 150.837 339.72 165.849 352.126L162.696 355.935Z" fill="white"/>
<path fill-rule="evenodd" clip-rule="evenodd" d="M250.828 376.866L222.694 333.936C231.333 329.488 230.263 315.619 222.862 314.465C214.622 313.174 208.063 312.777 202.283 299.824H215.685L211.571 288.589C196.235 289.936 193.106 285.674 185.835 273.695L204.99 273.039L201.118 263.264C180.244 264.231 174.737 259.114 169.524 247.219L193.846 246.367L188.581 234.736C163.674 235.43 158.402 234.725 149.268 217.881L180.209 217.73L175.845 206.65C147.644 207.867 140.6 205.106 132.617 191.002L196.008 189.399C205.246 189.164 215.794 195.461 219.68 203.84L227.302 220.288L235.324 192.605C239.46 178.343 270.629 183.514 280.661 193.005L261.807 199.824L271.033 222.287C277.718 206.643 285.909 189.392 303.531 189.392H365.718C360.934 203.131 349.383 209.982 324.275 205.538L319.863 217.169L350.874 217.075C343.451 234.378 335.216 236.552 312.149 233.929L307.333 245.561L332.02 246.364C327.271 257.328 318.673 263.884 299.616 261.604L295.603 272.93L315.261 272.839C309.627 286.617 305.99 289.694 288.073 288.887L283.965 300.118L298.125 300.171C292.173 312.164 290.409 313.588 277.704 314.714C270.152 315.384 266.785 327.474 276.841 334.641L250.828 376.866Z" fill="white"/>
<path fill-rule="evenodd" clip-rule="evenodd" d="M37.1459 332.969L27.7734 307.819L32.8946 306.038L75.8562 312.59L69.2832 294.95L74.4042 293.168L82.9838 316.2L77.8664 317.985L34.9045 311.443L42.2636 331.188L37.1459 332.969Z" fill="white"/>
<path fill-rule="evenodd" clip-rule="evenodd" d="M53.5001 367.264L50.9112 362.237L71.119 351.844L64.7103 339.382L44.5027 349.771L41.9141 344.752L85.1108 322.534L87.6996 327.561L69.5052 336.912L75.9174 349.378L94.1113 340.02L96.6929 345.05L53.5001 367.264Z" fill="white"/>
<path fill-rule="evenodd" clip-rule="evenodd" d="M73.9885 394.627L58.6426 373.195L99.1558 348.035L113.755 368.421L109.254 371.217L98.114 355.661L85.5497 363.465L95.7849 377.755L91.288 380.551L81.0528 366.257L66.5977 375.237L78.4885 391.838L73.9885 394.627Z" fill="white"/>
<path fill-rule="evenodd" clip-rule="evenodd" d="M108.414 428.314L103.271 423.975L133.09 387.341L138.236 391.684L108.414 428.314Z" fill="white"/>
<path fill-rule="evenodd" clip-rule="evenodd" d="M131.513 444.457L137.623 431.468L130.218 426.105L119.194 436.838L114.16 432.948L149.114 398.408L156.126 402.684L137.507 447.831L131.513 444.457ZM140.443 425.115L147.732 408.377L147.059 407.826L134.456 420.646L140.443 425.115Z" fill="white"/>
<path fill-rule="evenodd" clip-rule="evenodd" d="M166.545 461.393L160.232 458.456L163.915 424.751L150.109 453.086L143.809 450.189L165.717 406.803L171.407 409.44L168.762 441.462L183.003 415.021L188.303 417.224L166.545 461.393Z" fill="white"/>
<path fill-rule="evenodd" clip-rule="evenodd" d="M199.172 471.121L195.1 469.792L195.475 465.976C194.524 466.793 193.258 467.316 191.687 467.551C190.112 467.793 188.537 467.649 186.937 467.13C183.57 466.035 181.083 463.394 179.476 459.206C177.863 455.018 178.182 449.255 180.441 441.917C182.914 433.905 185.952 428.324 189.565 425.181C193.17 422.049 198.657 420.299 203.508 421.853C208.731 423.519 212.119 429.942 210.618 438.83L204.381 438.318C205.458 434.512 204.911 428.574 201.192 427.363C198.18 426.385 194.801 427.311 192.655 429.71C190.505 432.112 188.414 436.634 186.362 443.292C184.419 449.602 183.878 454.207 184.738 457.119C185.597 460.03 187.077 461.823 189.151 462.5C191.231 463.177 193.118 462.903 194.819 461.668C196.513 460.444 197.895 458.115 198.944 454.712L199.814 451.896L192.378 449.472L193.875 444.614L206.11 448.606L199.172 471.121Z" fill="white"/>
<path fill-rule="evenodd" clip-rule="evenodd" d="M263.789 460.417C263.649 464.791 262.477 468.218 260.289 470.694C258.096 473.171 254.715 474.314 250.151 474.142C245.592 473.971 242.291 472.574 240.267 469.94C238.243 467.303 237.293 463.798 237.436 459.424L238.506 426.33L244.336 426.547L243.266 459.642C243.164 462.743 243.771 465.047 245.076 466.556C246.381 468.067 248.131 468.867 250.323 468.955C252.519 469.032 254.315 468.365 255.715 466.959C257.111 465.553 257.865 463.304 257.967 460.199L259.04 427.105L264.866 427.322L263.789 460.417Z" fill="white"/>
<path fill-rule="evenodd" clip-rule="evenodd" d="M296.952 469.253L291.754 470.039L275.366 438.456L277.87 472.365L271.693 473.248L268.066 425.702L275.177 425.043L288.691 447.197L286.183 423.352L291.343 422.468L296.952 469.253Z" fill="white"/>
<path fill-rule="evenodd" clip-rule="evenodd" d="M314.717 464.273L308.62 466.122L295.947 421.118L302.044 419.27L314.717 464.273Z" fill="white"/>
<path fill-rule="evenodd" clip-rule="evenodd" d="M331.157 407.241L338.863 456.927L332.851 459.891L306.533 417.719L312.324 415.281L330.617 444.037L325.544 409.683L331.157 407.241Z" fill="white"/>
<path fill-rule="evenodd" clip-rule="evenodd" d="M380.034 435.407L357.824 447.414L333.643 405.89L354.766 394.477L357.452 399.086L341.334 407.795L348.834 420.671L363.64 412.67L366.327 417.28L351.514 425.284L360.143 440.097L377.351 430.799L380.034 435.407Z" fill="white"/>
<path fill-rule="evenodd" clip-rule="evenodd" d="M405.341 417.664L400.455 421.838L383.243 407.579L378.792 411.61L390.423 427.429L385.54 432.544L357.051 392.549L366.132 386.046C369.036 383.963 372.853 382.475 376.291 382.886C385.161 383.942 388.953 389.919 388.546 396.867C388.42 399.06 388.294 401.196 387.434 403.37L405.341 417.664ZM374.642 389.491C371.026 388.505 368.177 391.3 365.575 393.335L375.042 405.836C377.935 403.753 379.282 403.3 381.471 399.526C382.419 394.987 380.391 391.062 374.642 389.491Z" fill="white"/>
<path fill-rule="evenodd" clip-rule="evenodd" d="M420.705 379.05C430.635 385.016 428.32 401.944 415.268 403.922C411.757 404.452 407.628 403.393 405.854 402.27L408.084 397.205C410.234 397.686 412.413 398.461 414.475 398.072C422.932 396.461 422.56 387.675 417.629 384.034C415.91 382.764 413.451 382.603 411.416 382.827C405.71 383.466 402.055 387.724 395.706 388.121C388.764 388.559 383.931 384.325 382.798 377.57C382.198 373.988 383.054 370.516 384.832 367.727C388.505 361.978 396.299 361.199 401.978 364.549L399.767 369.772C396.699 368.141 391.248 368.148 389.196 371.357C388.126 373.037 387.754 374.756 388.077 376.506C388.789 380.32 391.395 382.533 395.067 382.091C401.23 381.34 405.398 376.272 411.462 376.468C414.353 376.566 417.78 377.292 420.705 379.05Z" fill="white"/>
<path fill-rule="evenodd" clip-rule="evenodd" d="M441.651 372.881L438.074 377.269L397.129 351.596L400.706 347.208L441.651 372.881Z" fill="white"/>
<path fill-rule="evenodd" clip-rule="evenodd" d="M420.989 321.087L416.456 329.484L455.128 352.224L452.522 357.054L413.854 334.31L409.322 342.708L404.492 339.867L416.158 318.246L420.989 321.087Z" fill="white"/>
<path fill-rule="evenodd" clip-rule="evenodd" d="M428.073 289.143L451.659 310.224L467.408 316.966L465.489 322.276L450.897 316.629L417.305 315.85L418.918 310.47L442.36 310.848L425.761 295.576L428.073 289.143Z" fill="white"/>
<path fill-rule="evenodd" clip-rule="evenodd" d="M104.797 407.162C100.626 411.315 96.7287 413.462 93.1159 413.581C89.5032 413.704 86.2338 412.269 83.2909 409.27C80.6113 406.545 79.2853 403.367 79.317 399.733C79.3307 397.892 79.8675 395.997 80.9165 394.051L86.2272 397.295C85.7746 398.218 85.5358 399.095 85.5149 399.933C85.4624 401.912 86.0726 403.56 87.346 404.861C89.1384 406.685 91.0185 407.506 92.9863 407.341C94.9573 407.176 97.3532 405.693 100.184 402.879L123.794 379.504L128.2 383.991L104.797 407.162Z" fill="white"/>
<path fill-rule="evenodd" clip-rule="evenodd" d="M185.137 398.977L168.584 388.707L170.085 386.108L176.23 389.927L186.076 372.789L179.924 368.969L181.264 366.643C183.593 368.085 185.445 368.906 186.834 369.081C188.213 369.257 189.377 368.713 190.317 367.412L193.846 369.593L180.622 392.635L186.631 396.36L185.137 398.977ZM234.496 388.514C234.759 387.198 234.303 386.009 233.121 384.933C231.925 383.873 230.122 383.168 227.698 382.831C225.474 382.526 223.591 382.67 222.016 383.263C220.434 383.841 219.512 384.802 219.238 386.149C219.038 387.128 219.238 387.994 219.824 388.766C220.402 389.538 221.364 390.292 222.696 391.029C223.289 391.334 224.18 391.786 225.401 392.362C226.611 392.923 227.719 393.407 228.74 393.771C230.691 393.147 232.069 392.393 232.897 391.576C233.718 390.727 234.254 389.702 234.496 388.514ZM232.346 403.341C232.595 402.12 232.42 401.127 231.841 400.31C231.241 399.493 229.978 398.577 228.031 397.549C227.39 397.213 226.523 396.813 225.44 396.364C224.349 395.911 223.121 395.385 221.756 394.792C219.929 395.29 218.452 395.995 217.344 396.925C216.228 397.855 215.538 399.012 215.267 400.359C214.906 402.141 215.443 403.695 216.863 405.094C218.284 406.476 220.248 407.36 222.752 407.693C225.313 408.062 227.464 407.837 229.203 407.066C230.957 406.28 232.002 405.042 232.346 403.341ZM222.086 410.626C219.831 410.303 217.817 409.809 216.053 409.118C214.289 408.426 212.844 407.592 211.703 406.582C210.588 405.62 209.809 404.558 209.367 403.372C208.925 402.2 208.831 401.012 209.069 399.791C209.399 398.202 210.346 396.837 211.935 395.683C213.514 394.529 215.632 393.74 218.294 393.291L218.319 393.179C216.249 392.025 214.783 390.885 213.899 389.731C213.033 388.577 212.745 387.258 213.05 385.767C213.499 383.536 215.169 381.884 218.042 380.776C220.928 379.654 224.355 379.38 228.319 379.927C232.462 380.502 235.629 381.66 237.828 383.424C240.035 385.157 240.915 387.132 240.477 389.296C240.21 390.615 239.354 391.835 237.902 392.955C236.44 394.077 234.524 394.848 232.132 395.248L232.115 395.378C234.594 396.549 236.408 397.798 237.538 399.131C238.677 400.464 239.053 402.036 238.684 403.817C238.172 406.336 236.341 408.248 233.174 409.545C230.01 410.85 226.313 411.222 222.086 410.626ZM279.345 392.477C279.345 390.457 279.065 388.801 278.514 387.535C277.952 386.269 277.181 385.287 276.195 384.599C275.329 383.954 274.438 383.505 273.54 383.266C272.639 383.042 271.653 382.912 270.569 382.912C268.114 382.912 266.156 383.505 264.704 384.676C263.234 385.848 262.512 387.532 262.512 389.762C262.512 391.029 262.743 392.039 263.227 392.86C263.708 393.677 264.483 394.386 265.577 394.964C266.325 395.364 267.191 395.652 268.145 395.799C269.096 395.943 270.13 396.01 271.225 396.01C272.498 396.01 273.891 395.848 275.357 395.557C276.844 395.252 278.124 394.852 279.226 394.371C279.25 394.161 279.286 393.905 279.306 393.568C279.338 393.249 279.345 392.895 279.345 392.477ZM256.433 389.927C256.433 388.387 256.808 386.991 257.545 385.739C258.303 384.459 259.32 383.364 260.628 382.449C261.856 381.565 263.371 380.895 265.171 380.393C266.959 379.895 268.763 379.657 270.611 379.657C272.663 379.657 274.525 379.882 276.188 380.344C277.858 380.797 279.299 381.467 280.517 382.333C282.056 383.427 283.246 384.855 284.098 386.619C284.94 388.401 285.371 390.632 285.371 393.344C285.371 395.799 284.957 398.142 284.122 400.338C283.298 402.555 282.084 404.382 280.464 405.824C278.749 407.364 276.686 408.553 274.276 409.356C271.863 410.173 268.892 410.577 265.353 410.577C264.561 410.577 263.708 410.559 262.81 410.499C261.912 410.433 261.07 410.321 260.288 410.16V406.34H260.593C261.095 406.536 261.87 406.725 262.936 406.887C263.989 407.062 265.069 407.143 266.163 407.143C270.078 407.143 273.157 406.29 275.392 404.575C277.63 402.842 278.896 400.387 279.194 397.195C277.598 397.918 276.079 398.447 274.634 398.784C273.175 399.121 271.604 399.282 269.91 399.282C268.247 399.282 266.749 399.156 265.384 398.914C264.027 398.675 262.655 398.209 261.284 397.521C259.678 396.704 258.474 395.676 257.657 394.438C256.84 393.183 256.433 391.692 256.433 389.927ZM321.325 364.493L320.234 395.174L315.53 398.146L315.947 369.134L298.023 377.83L296.445 374.381L318.981 362.683L321.325 364.493Z" fill="white"/>
<path fill-rule="evenodd" clip-rule="evenodd" d="M343.859 129.848C340.548 127.624 343.157 127.34 343.824 124.011C344.395 121.152 343.02 117.564 343.883 115.614C346.216 110.355 352.933 113.421 356.399 116.778C357.016 117.374 357.441 118.844 357.763 120.251C358.563 123.751 359.215 128.627 355.058 130.469C351.474 132.061 346.738 131.784 343.859 129.848Z" fill="white"/>
<path fill-rule="evenodd" clip-rule="evenodd" d="M304.847 107.824C304.748 107.729 304.647 107.631 304.549 107.537C304.738 107.144 304.924 106.747 305.096 106.414C306.397 106.436 318.828 103.927 318.916 103.654C322.704 102.521 326.292 100.998 328.583 97.6416C320.589 97.1258 311.841 99.6095 304.303 97.2314C301.24 95.0355 299.655 92.2677 297.687 90.2896C297.747 90.1141 297.779 89.9947 297.817 89.8794C294.962 85.8069 295.902 82.4115 300.729 82.7024C307.442 87.2835 320.824 86.5223 328.814 86.6488C330.646 86.5784 335.766 86.7712 337.549 85.8452C343.062 76.7748 345.889 66.5952 350.176 57.5248C355.237 51.7442 357.97 58.3978 360.418 63.0212C360.73 63.6105 361.19 64.6906 361.523 66.2865C361.642 66.3253 362.565 71.4044 358.78 72.9304C355.111 76.7605 352.2 81.4748 350.316 86.8345C355.665 88.1325 360.496 84.9335 366.392 87.1819C366.718 90.458 365.62 92.6993 362.123 93.9304C357.033 94.2671 351.666 94.2534 345.949 94.5233C342.855 98.9814 338.502 104.215 333.455 106.828C332.718 107.211 329.288 108.537 328.544 108.649C324.675 109.22 320.967 110.318 317.141 109.901C306.586 108.75 306.646 108.263 304.847 107.824Z" fill="white"/>
<path fill-rule="evenodd" clip-rule="evenodd" d="M180.418 124.998C176.065 124.216 171.316 120.452 168.457 118.078C168.538 116.945 168.622 115.812 168.783 114.721C176.139 105.475 183.537 96.7372 189.685 86.3933C191.187 81.8719 193.411 76.9785 195.108 72.4535C195.207 72.3591 195.441 71.8892 195.403 71.7734C197.269 69.3387 198.128 68.6025 200.892 71.0719C201.702 73.5341 197.676 77.3331 197.108 80.1142C196.118 84.9903 193.509 97.2704 191.692 101.943C190.53 104.924 185.567 121.484 182.551 124.167C181.786 124.416 181.098 124.707 180.418 124.998Z" fill="white"/>
<path fill-rule="evenodd" clip-rule="evenodd" d="M226.036 78.7837C220.333 80.0148 217.786 76.8194 213.851 74.3429C213.366 72.877 214.036 71.7475 213.882 70.6913C215.211 69.9969 219.105 68.1939 221.627 67.3663C224.679 65.7776 231.501 57.8745 234.932 59.6071C237.152 66.3561 231.498 75.2342 226.036 78.7837Z" fill="white"/>
<path fill-rule="evenodd" clip-rule="evenodd" d="M179.873 79.2947C177.222 77.9549 174.524 69.3575 173.633 66.6564C173.966 61.3457 178.814 59.8799 183.725 61.9702C188.106 65.4044 190.775 66.6039 188.681 72.4932C185.7 76.857 184.037 77.534 179.873 79.2947Z" fill="white"/>
<path fill-rule="evenodd" clip-rule="evenodd" d="M220.582 64.1434C219.301 61.6388 221.476 55.0092 220.073 53.9118C218.762 54.473 217.492 55.346 216.082 55.8092C212.258 55.0516 207.449 51.8914 207.968 48.3379C209.74 44.8303 208.954 45.8018 212.827 44.5321C216.117 41.8873 219.424 39.3057 222.795 36.703C228.818 33.8724 232.634 36.5837 234.641 42.6835C234.567 46.9944 232.715 50.8564 230.922 54.6975C228.043 57.4016 225.531 60.2393 223.002 63.021C222.146 63.3684 221.364 63.7541 220.582 64.1434Z" fill="white"/>
<path fill-rule="evenodd" clip-rule="evenodd" d="M181.251 55.243C179.614 54.419 180.01 53.6405 180.403 52.2721C179.554 49.6941 177.432 47.9859 176.621 45.52C176.267 40.697 174.948 39.2483 178.182 36.0388C181.479 36.579 193.184 39.1641 192.241 45.5831C190.35 49.9081 185.222 53.6752 181.251 55.243Z" fill="white"/>
<path fill-rule="evenodd" clip-rule="evenodd" d="M101.638 229.024C96.6435 232.767 86.6955 230.385 85.145 223.637C84.0506 218.869 78.0001 205.442 75.4149 198.195C74.1134 195.937 72.6016 194.197 73.4399 191.632C75.117 191.138 77.095 192.923 78.593 194.302C79.3471 194.085 80.5149 192.211 80.4241 190.942C80.0486 185.655 79.8522 179.871 78.9052 174.645C77.5338 173.547 76.1654 172.446 74.8782 171.323C73.9838 174.003 70.9603 182.762 67.8067 178.23C68.4874 174.659 68.7537 168.759 66.6389 165.287C63.9731 162.568 60.2231 160.804 58.9746 157.801C59.3221 153.561 65.7726 152.298 69.645 153.845C72.7353 153.981 72.4404 148.197 76.3057 157.619C76.4425 159.169 77.9858 160.081 79.7256 160.892C79.9853 160.541 80.2486 160.19 80.5113 159.839C80.2695 155.77 80.0134 151.34 80.196 147.012C76.2394 143.304 72.921 140.228 70.4869 135.668C70.3149 131.213 75.2746 128.435 79.6134 126.934C80.943 124.496 80.8797 122.419 80.6588 119.347C80.9149 118.361 80.9149 118.361 81.9113 116.793C83.4297 116.846 84.7103 117.334 86.443 118.28C90.0981 122.665 83.3246 136.766 90.2593 137.59C91.5608 135.205 89.544 132.841 88.3965 130.947C88.6562 127.505 93.7915 122.988 97.4603 121.543C102.985 120.83 102.764 123.945 102.978 128.702C103.262 129.35 103.539 129.993 103.852 130.586C111.056 135.429 111.056 135.429 121.056 141.589C124.164 144.265 124.501 148.699 124.816 150.039C125.016 150.888 126.465 157.198 123.214 157.745C115.024 152.645 106.858 146.857 98.9022 142.234C98.8144 142.396 98.7792 142.589 98.7726 142.725C102.364 145.812 107.331 154.497 107.65 159.457C105.876 162.709 102.399 164.189 99.1654 163.41C98.5583 162.586 98.7511 161.849 98.5935 160.849C96.0853 156.809 89.0879 153.132 85.5205 150.905C84.2894 153.68 87.3481 161.607 88.3093 164.873C88.5159 166.816 88.7231 168.752 88.9578 170.643C91.4272 173.47 93.9598 176.045 96.7027 178.879C97.7236 180.489 98.7971 182.13 99.8705 183.772C99.7828 183.937 99.7231 184.042 99.6634 184.151C100.93 186.599 103.767 193.772 99.0073 193.993C98.52 193.726 98.0848 193.488 97.6818 193.197C96.0471 189.489 93.0093 185.519 89.7966 183.411C88.8598 187.192 90.3363 191.201 88.6318 194.309C87.5899 196.214 85.5414 197.168 84.0858 197.774C82.5425 198.42 81.5639 198.753 81.4624 199.328C82.8654 201.009 84.4716 202.597 85.8119 204.372C91.1435 211.433 95.6716 218.399 101.757 225.166C102.206 227.081 102.133 227.603 101.638 229.024Z" fill="white"/>
<path fill-rule="evenodd" clip-rule="evenodd" d="M66.64 198.404C64.6196 198.495 63.518 196.138 61.9257 195.058C56.3379 193.697 52.1461 192.746 50.0977 187.344C50.3116 186.825 50.5747 186.338 50.8413 185.85C53.6757 184.65 59.0109 183.763 62.6129 183.479C69.5303 184.721 67.5344 193.406 66.64 198.404Z" fill="white"/>
<path fill-rule="evenodd" clip-rule="evenodd" d="M51.5685 182.725C50.4287 183.651 50.1867 183.448 49.6359 183.427C48.8538 182.157 48.5275 181.206 47.2472 180.719C41.1369 180.831 34.6337 176.513 35.5211 170.245C36.591 168.929 37.8046 169.662 40.1618 170.245C45.2619 169.017 52.8068 165.499 53.4629 173.746C53.0206 176.769 52.2247 179.849 51.5685 182.725Z" fill="white"/>
<path fill-rule="evenodd" clip-rule="evenodd" d="M400.438 167.402C397.821 162.509 404.657 156.999 407.766 155.118C412.252 156.072 412.273 163.295 409.277 166.739C405.057 169.619 404.57 170.177 400.438 167.402Z" fill="white"/>
<path fill-rule="evenodd" clip-rule="evenodd" d="M392.643 216.176C392.58 215.962 392.57 215.79 392.521 215.66C387.393 211.205 383.24 206.204 380.426 200.402C380.605 199.819 380.605 199.819 381.128 199.213C385.141 200.244 388.35 204.18 392.931 203.418C395.302 201.633 397.295 200.096 398.863 198.104C393.784 193.688 387.891 194.537 382.735 192.183C379.29 189.188 376.406 180.548 377.999 177.023C382.127 172.839 381.138 175.578 385.888 179.71C392.138 184 400.476 186.175 407.849 188.988C409.75 189.247 409.75 189.247 410.606 189.581C415.17 187.252 416.579 187.416 420.894 190.261C422.999 190.945 422.999 190.945 429.586 192.503C430.091 192.205 430.593 191.906 431.144 191.65C424.157 186.228 414.1 186.318 405.804 184.754C402.661 183.004 401.192 180.741 400.23 178.272C398.986 177.35 391.675 172.306 397.133 172.796C399.704 173.887 402.423 173.958 405.253 175.031C413.058 176.501 421.161 179.128 429.098 181.201C429.828 180.363 429.951 179.654 430.018 179.296C431.084 178.258 431.803 177.904 432.901 177.388C431.635 176.778 431.435 176.437 430.554 176.985C426.24 175.361 422.273 176.82 422.595 171.457C419.319 173.435 415.643 173.432 412.848 171.001C411.518 166.981 415.881 162.432 417.453 159.867C417.509 159.429 418.849 157.317 420.101 154.564C421.333 150.888 421.817 145.907 425.524 145.125C428.593 145.83 429.8 146.138 428.864 150.319C429.211 152.743 429.544 157.373 429.106 159.454C428.4 162.8 427.18 167.588 424.086 170.299C426.314 170.843 429.926 171.204 430.649 168.398C429.569 164.838 433.013 163.985 435.43 164.782C436.521 165.974 436.521 165.974 438.141 167.307C438.667 166.7 438.622 166.658 438.664 166.044C437.391 163.466 438.215 163.361 440.285 162.302C438.846 159.25 440.33 156.04 442.852 155.209C451.021 160.021 451.021 160.021 455.059 162.056C459.615 161.523 468.689 156.728 471.369 161.927C471.162 164.61 469.598 167.914 466.953 170.11C465.417 170.654 463.852 170.853 462.519 171.821C462.937 172.186 463.319 172.596 463.695 173.007C467.77 174.343 470.636 173.965 468.23 179.651C469.472 183.674 470.784 184.242 465.992 187.115C460.268 189.09 454.112 191.184 448.152 192.959C447.942 193.103 447.735 193.25 447.573 193.436C447.963 194.021 448.355 194.607 448.707 195.238C447.272 197.266 445.192 199.469 443.063 201.542C439.008 202.349 436.938 200.307 433.981 198.066C429.008 196.442 424.654 194.863 419.667 193.636C419.052 194.25 418.344 194.779 417.853 195.905C419.491 197.413 421.136 199.002 422.778 200.595C423.42 203.527 420.049 206.653 417.043 207.473C414.963 205.912 413.633 205.085 411.49 204.45C410.448 205.176 409.403 205.905 408.323 206.684C405.053 210.279 398.586 220.444 392.643 216.176ZM445.1 183.411C445.041 183.193 444.988 183.067 444.936 182.941C447.781 180.422 448.629 179.443 445.686 177.374C444.869 177.563 443.319 177.935 443.287 176.929C443.252 175.845 448.471 174.641 449.268 174.192C450.758 175.487 452.944 177.96 453.122 180.489C451.057 182.86 448.335 183.358 445.1 183.411Z" fill="white"/>
</svg>
