<svg height="60" viewBox="0 0 408 60" width="408" xmlns="http://www.w3.org/2000/svg"><g fill="#fff" fill-rule="evenodd"><path d="m79.2428 8.38086h-2.0367v43.26024h2.0367z"/><g fill-rule="nonzero"><path d="m44.215 0-43.15418 24.8656 32.50358 18.6493v-8.3593l-17.9279-10.29 35.7496-20.68597zm8.3805 6.08911-32.5036 18.75529 7.2985 4.1796 6.2164-3.5855 11.7114-6.6832v41.2447l7.2985-4.1796v-49.73129zm-9.5686 16.50639-7.2985 4.1796v7.0439 22.0014l7.2985 4.1796zm-43.0269 4.1796v8.3593l25.099 14.5756 7.2984-4.1796-16.1456-9.4413z"/><path d="m124.667 42.433-9.929-24.8656h-4.901l-10.0352 24.8656h6.8102l1.316-3.5856h8.613l1.189 3.5856zm-9.802-8.5926h-5.134l2.504-8.4866h.127z"/><path d="m143.677 42.4333-6.81-8.4866c3.946-.594 6.216-3.9462 6.216-7.7652 0-2.6308-.955-5.1344-2.991-6.8105-2.143-1.6761-5.135-1.7821-7.659-1.7821h-7.893v24.8656h6.089v-7.9986l5.729 7.9986h7.319zm-6.704-15.8911c0 2.5035-1.804 3.5856-4.18 3.5856h-2.143v-6.9378h2.271c2.142 0 4.052.9547 4.052 3.3522z"/></g><path d="m169.137 33.118h-6.577c-1.188 2.5035-3.225 4.3069-5.983 4.3069-4.074 0-6.683-3.5855-6.683-7.4045s2.63-7.2984 6.577-7.2984c2.864 0 5.134 1.7821 6.089 4.3069h6.577c-.234-1.4427-.828-2.8642-1.676-4.0736-2.504-3.7128-6.45-5.8557-10.884-5.8557-7.299 0-13.027 5.6224-13.027 12.8996 0 7.2984 5.856 12.8996 13.027 12.8996 6.11.0212 11.117-3.819 12.56-9.7808z"/><path d="m191.117 42.433v-24.8656h-6.322v9.3352h-8.126v-9.3352h-6.344v24.8656h6.344v-9.908h8.126v9.908z"/><path d="m199.731 17.5674h-6.343v24.8656h6.343z"/><path d="m228.055 42.433v-24.8656h-8.126l-4.901 16.379-5.007-16.379h-8.147v24.8656h5.856l-.234-18.5219.128-.1273 5.261 18.6492h4.18l5.368-18.6492v.1273l-.106 18.5219z"/><path d="m244.201 42.433v-5.495h-7.765v-4.307h7.531v-5.6223h-7.531v-3.819h7.765v-5.6223h-13.876v24.8656z"/><path d="m267.857 30.0002c0-2.7581-.594-5.4951-2.27-7.7652-2.758-3.819-6.45-4.6676-10.99-4.6676h-8.126v24.8656h8.614c8.125 0 12.772-4.3069 12.772-12.4328zm-6.323.1273c0 3.9462-1.676 6.8105-6.089 6.8105h-2.631v-13.7483h2.759c4.158 0 5.961 2.8642 5.961 6.9378z" fill-rule="nonzero"/><path d="m282.815 42.433v-5.495h-7.659v-4.307h7.404v-5.6223h-7.404v-3.819h7.659v-5.6223h-13.749v24.8656z"/><path d="m301.804 35.2609c0-3.819-2.504-5.4951-5.856-7.0439-1.082-.488-4.307-1.8034-4.901-2.7581-.233-.3607-.233-.7214-.233-1.0821 0-1.1881 1.082-1.9094 2.143-1.9094 1.676 0 2.142 1.082 2.397 2.3974h6.216c0-1.9095-.36-3.3522-1.676-4.901-1.548-1.9095-4.307-2.8642-6.683-2.8642-4.179 0-8.72 2.7581-8.72 7.4045 0 3.819 2.864 5.7285 6.089 7.0439.722.3607 1.549.594 2.271.9547 1.315.5941 2.63 1.0821 2.63 2.7582 0 1.3154-1.082 2.3974-2.397 2.3974-1.91 0-2.631-1.7822-2.631-3.4583h-6.344v.8275c0 5.3677 3.947 7.8925 8.975 7.8925 4.901 0 8.72-2.3975 8.72-7.6591z"/><path d="m310.651 17.334h-6.683v25.3324h6.683c7.892 0 12.666-5.7285 12.666-12.7935 0-6.9166-4.774-12.5389-12.666-12.5389zm0 22.0014h-3.225v-18.5219h3.225c5.856 0 9.208 3.9462 9.208 9.0806s-3.352 9.4413-9.208 9.4413z" fill-rule="nonzero"/><path d="m328.091 17.334h-3.459v25.3324h3.459z"/><path d="m342.453 29.1724v3.3521h6.578v5.389c-1.804 1.1881-4.074 1.7822-6.45 1.7822-5.623 0-9.442-4.413-9.442-9.6747s3.819-9.6747 9.442-9.6747c2.991 0 5.261 1.0821 7.044 2.8642l2.27-2.5035c-2.27-2.2701-5.495-3.7129-9.314-3.7129-7.893 0-12.9 6.0891-12.9 13.0269 0 7.0439 5.028 13.0269 12.9 13.0269 4.073 0 7.532-1.3154 9.802-3.7129v-10.1626z"/><path d="m358.111 17.334h-3.352v25.3324h3.352z"/><path d="m375.445 17.334h-16.019v3.4583h6.45v21.8741h3.352v-21.8741h6.217z"/><path d="m389.894 42.6657h3.819l-11.245-25.693h-.488l-11.117 25.693h3.819l2.143-5.3889h10.884zm-11.584-8.7199 3.946-9.6747 4.074 9.6747z" fill-rule="nonzero"/><path d="m398.041 39.3354v-22.0014h-3.479v25.3324h12.793v-3.331z"/></g></svg>