<svg fill="none" height="500" viewBox="0 0 500 500" width="500" xmlns="http://www.w3.org/2000/svg"><g fill="#000"><path d="m249.999 1.42456c136.911 0 248.573 111.66244 248.573 248.56944 0 136.911-111.662 248.574-248.573 248.574-136.907 0-248.57322-111.663-248.57322-248.574 0-136.907 111.66622-248.56944 248.57322-248.56944zm0 9.90564c-131.453 0-238.6676 107.2108-238.6676 238.6638 0 131.457 107.2146 238.668 238.6676 238.668 131.457 0 238.671-107.211 238.671-238.668 0-131.453-107.214-238.6638-238.671-238.6638z"/><path d="m162.696 355.935c-15.564-12.852-28.269-29.064-36.989-47.51-8.393-17.756-13.09-37.571-13.09-58.431 0-75.664 61.717-137.38 137.388-137.38 75.667 0 137.384 61.716 137.384 137.38 0 20.86-4.7 40.678-13.091 58.431-8.716 18.446-21.421 34.658-36.988 47.51l-3.149-3.809c15.012-12.403 27.268-28.036 35.672-45.809 8.082-17.1 12.607-36.196 12.607-56.326 0-72.939-59.49-132.432-132.431-132.432-72.946 0-132.436 59.493-132.436 132.432 0 20.127 4.525 39.226 12.607 56.326 8.4 17.769 20.657 33.403 35.669 45.809z"/><g clip-rule="evenodd" fill-rule="evenodd"><path d="m250.828 376.866-28.134-42.93c8.639-4.448 7.569-18.317.168-19.471-8.24-1.291-14.799-1.688-20.579-14.641h13.402l-4.114-11.235c-15.336 1.347-18.465-2.915-25.736-14.894l19.155-.656-3.872-9.775c-20.874.967-26.381-4.15-31.594-16.045l24.322-.852-5.265-11.631c-24.907.694-30.179-.011-39.313-16.855l30.941-.151-4.364-11.08c-28.201 1.217-35.245-1.544-43.228-15.648l63.391-1.603c9.238-.235 19.786 6.062 23.672 14.441l7.622 16.448 8.022-27.683c4.136-14.262 35.305-9.091 45.337.4l-18.854 6.819 9.226 22.463c6.685-15.644 14.876-32.895 32.498-32.895h62.187c-4.784 13.739-16.335 20.59-41.443 16.146l-4.412 11.631 31.011-.094c-7.423 17.303-15.658 19.477-38.725 16.854l-4.816 11.632 24.687.803c-4.749 10.964-13.347 17.52-32.404 15.24l-4.013 11.326 19.658-.091c-5.634 13.778-9.271 16.855-27.188 16.048l-4.108 11.231 14.16.053c-5.952 11.993-7.716 13.417-20.421 14.543-7.552.67-10.919 12.76-.863 19.927z"/><path d="m37.1459 332.969-9.3725-25.15 5.1212-1.781 42.9616 6.552-6.573-17.64 5.121-1.782 8.5796 23.032-5.1174 1.785-42.9619-6.542 7.3591 19.745z"/><path d="m53.5001 367.264-2.5889-5.027 20.2078-10.393-6.4087-12.462-20.2076 10.389-2.5886-5.019 43.1967-22.218 2.5888 5.027-18.1944 9.351 6.4122 12.466 18.1939-9.358 2.5816 5.03z"/><path d="m73.9885 394.627-15.3459-21.432 40.5132-25.16 14.5992 20.386-4.501 2.796-11.14-15.556-12.5643 7.804 10.2352 14.29-4.4969 2.796-10.2352-14.294-14.4551 8.98 11.8908 16.601z"/><path d="m108.414 428.314-5.143-4.339 29.819-36.634 5.146 4.343z"/><path d="m131.513 444.457 6.11-12.989-7.405-5.363-11.024 10.733-5.034-3.89 34.954-34.54 7.012 4.276-18.619 45.147zm8.93-19.342 7.289-16.738-.673-.551-12.603 12.82z"/><path d="m166.545 461.393-6.313-2.937 3.683-33.705-13.806 28.335-6.3-2.897 21.908-43.386 5.69 2.637-2.645 32.022 14.241-26.441 5.3 2.203z"/><path d="m199.172 471.121-4.072-1.329.375-3.816c-.951.817-2.217 1.34-3.788 1.575-1.575.242-3.15.098-4.75-.421-3.367-1.095-5.854-3.736-7.461-7.924-1.613-4.188-1.294-9.951.965-17.289 2.473-8.012 5.511-13.593 9.124-16.736 3.605-3.132 9.092-4.882 13.943-3.328 5.223 1.666 8.611 8.089 7.11 16.977l-6.237-.512c1.077-3.806.53-9.744-3.189-10.955-3.012-.978-6.391-.052-8.537 2.347-2.15 2.402-4.241 6.924-6.293 13.582-1.943 6.31-2.484 10.915-1.624 13.827.859 2.911 2.339 4.704 4.413 5.381 2.08.677 3.967.403 5.668-.832 1.694-1.224 3.076-3.553 4.125-6.956l.87-2.816-7.436-2.424 1.497-4.858 12.235 3.992z"/><path d="m263.789 460.417c-.14 4.374-1.312 7.801-3.5 10.277-2.193 2.477-5.574 3.62-10.138 3.448-4.559-.171-7.86-1.568-9.884-4.202-2.024-2.637-2.974-6.142-2.831-10.516l1.07-33.094 5.83.217-1.07 33.095c-.102 3.101.505 5.405 1.81 6.914 1.305 1.511 3.055 2.311 5.247 2.399 2.196.077 3.992-.59 5.392-1.996 1.396-1.406 2.15-3.655 2.252-6.76l1.073-33.094 5.826.217z"/><path d="m296.952 469.253-5.198.786-16.388-31.583 2.504 33.909-6.177.883-3.627-47.546 7.111-.659 13.514 22.154-2.508-23.845 5.16-.884z"/><path d="m314.717 464.273-6.097 1.849-12.673-45.004 6.097-1.848z"/><path d="m331.157 407.241 7.706 49.686-6.012 2.964-26.318-42.172 5.791-2.438 18.293 28.756-5.073-34.354z"/><path d="m380.034 435.407-22.21 12.007-24.181-41.524 21.123-11.413 2.686 4.609-16.118 8.709 7.5 12.876 14.806-8.001 2.687 4.61-14.813 8.004 8.629 14.813 17.208-9.298z"/><path d="m405.341 417.664-4.886 4.174-17.212-14.259-4.451 4.031 11.631 15.819-4.883 5.115-28.489-39.995 9.081-6.503c2.904-2.083 6.721-3.571 10.159-3.16 8.87 1.056 12.662 7.033 12.255 13.981-.126 2.193-.252 4.329-1.112 6.503zm-30.699-28.173c-3.616-.986-6.465 1.809-9.067 3.844l9.467 12.501c2.893-2.083 4.24-2.536 6.429-6.31.948-4.539-1.08-8.464-6.829-10.035z"/><path d="m420.705 379.05c9.93 5.966 7.615 22.894-5.437 24.872-3.511.53-7.64-.529-9.414-1.652l2.23-5.065c2.15.481 4.329 1.256 6.391.867 8.457-1.611 8.085-10.397 3.154-14.038-1.719-1.27-4.178-1.431-6.213-1.207-5.706.639-9.361 4.897-15.71 5.294-6.942.438-11.775-3.796-12.908-10.551-.6-3.582.256-7.054 2.034-9.843 3.673-5.749 11.467-6.528 17.146-3.178l-2.211 5.223c-3.068-1.631-8.519-1.624-10.571 1.585-1.07 1.68-1.442 3.399-1.119 5.149.712 3.814 3.318 6.027 6.99 5.585 6.163-.751 10.331-5.819 16.395-5.623 2.891.098 6.318.824 9.243 2.582z"/><path d="m441.651 372.881-3.577 4.388-40.945-25.673 3.577-4.388z"/><path d="m420.989 321.087-4.533 8.397 38.672 22.74-2.606 4.83-38.668-22.744-4.532 8.398-4.83-2.841 11.666-21.621z"/><path d="m428.073 289.143 23.586 21.081 15.749 6.742-1.919 5.31-14.592-5.647-33.592-.779 1.613-5.38 23.442.378-16.599-15.272z"/><path d="m104.797 407.162c-4.171 4.153-8.0683 6.3-11.6811 6.419-3.6127.123-6.8821-1.312-9.825-4.311-2.6796-2.725-4.0056-5.903-3.9739-9.537.0137-1.841.5505-3.736 1.5995-5.682l5.3107 3.244c-.4526.923-.6914 1.8-.7123 2.638-.0525 1.979.5577 3.627 1.8311 4.928 1.7924 1.824 3.6725 2.645 5.6403 2.48 1.971-.165 4.3669-1.648 7.1977-4.462l23.61-23.375 4.406 4.487z"/><path d="m185.137 398.977-16.553-10.27 1.501-2.599 6.145 3.819 9.846-17.138-6.152-3.82 1.34-2.326c2.329 1.442 4.181 2.263 5.57 2.438 1.379.176 2.543-.368 3.483-1.669l3.529 2.181-13.224 23.042 6.009 3.725zm49.359-10.463c.263-1.316-.193-2.505-1.375-3.581-1.196-1.06-2.999-1.765-5.423-2.102-2.224-.305-4.107-.161-5.682.432-1.582.578-2.504 1.539-2.778 2.886-.2.979 0 1.845.586 2.617.578.772 1.54 1.526 2.872 2.263.593.305 1.484.757 2.705 1.333 1.21.561 2.318 1.045 3.339 1.409 1.951-.624 3.329-1.378 4.157-2.195.821-.849 1.357-1.874 1.599-3.062zm-2.15 14.827c.249-1.221.074-2.214-.505-3.031-.6-.817-1.863-1.733-3.81-2.761-.641-.336-1.508-.736-2.591-1.185-1.091-.453-2.319-.979-3.684-1.572-1.827.498-3.304 1.203-4.412 2.133-1.116.93-1.806 2.087-2.077 3.434-.361 1.782.176 3.336 1.596 4.735 1.421 1.382 3.385 2.266 5.889 2.599 2.561.369 4.712.144 6.451-.627 1.754-.786 2.799-2.024 3.143-3.725zm-10.26 7.285c-2.255-.323-4.269-.817-6.033-1.508-1.764-.692-3.209-1.526-4.35-2.536-1.115-.962-1.894-2.024-2.336-3.21-.442-1.172-.536-2.36-.298-3.581.33-1.589 1.277-2.954 2.866-4.108 1.579-1.154 3.697-1.943 6.359-2.392l.025-.112c-2.07-1.154-3.536-2.294-4.42-3.448-.866-1.154-1.154-2.473-.849-3.964.449-2.231 2.119-3.883 4.992-4.991 2.886-1.122 6.313-1.396 10.277-.849 4.143.575 7.31 1.733 9.509 3.497 2.207 1.733 3.087 3.708 2.649 5.872-.267 1.319-1.123 2.539-2.575 3.659-1.462 1.122-3.378 1.893-5.77 2.293l-.017.13c2.479 1.171 4.293 2.42 5.423 3.753 1.139 1.333 1.515 2.905 1.146 4.686-.512 2.519-2.343 4.431-5.51 5.728-3.164 1.305-6.861 1.677-11.088 1.081zm57.259-18.149c0-2.02-.28-3.676-.831-4.942-.562-1.266-1.333-2.248-2.319-2.936-.866-.645-1.757-1.094-2.655-1.333-.901-.224-1.887-.354-2.971-.354-2.455 0-4.413.593-5.865 1.764-1.47 1.172-2.192 2.856-2.192 5.086 0 1.267.231 2.277.715 3.098.481.817 1.256 1.526 2.35 2.104.748.4 1.614.688 2.568.835.951.144 1.985.211 3.08.211 1.273 0 2.666-.162 4.132-.453 1.487-.305 2.767-.705 3.869-1.186.024-.21.06-.466.08-.803.032-.319.039-.673.039-1.091zm-22.912-2.55c0-1.54.375-2.936 1.112-4.188.758-1.28 1.775-2.375 3.083-3.29 1.228-.884 2.743-1.554 4.543-2.056 1.788-.498 3.592-.736 5.44-.736 2.052 0 3.914.225 5.577.687 1.67.453 3.111 1.123 4.329 1.989 1.539 1.094 2.729 2.522 3.581 4.286.842 1.782 1.273 4.013 1.273 6.725 0 2.455-.414 4.798-1.249 6.994-.824 2.217-2.038 4.044-3.658 5.486-1.715 1.54-3.778 2.729-6.188 3.532-2.413.817-5.384 1.221-8.923 1.221-.792 0-1.645-.018-2.543-.078-.898-.066-1.74-.178-2.522-.339v-3.82h.305c.502.196 1.277.385 2.343.547 1.053.175 2.133.256 3.227.256 3.915 0 6.994-.853 9.229-2.568 2.238-1.733 3.504-4.188 3.802-7.38-1.596.723-3.115 1.252-4.56 1.589-1.459.337-3.03.498-4.724.498-1.663 0-3.161-.126-4.526-.368-1.357-.239-2.729-.705-4.1-1.393-1.606-.817-2.81-1.845-3.627-3.083-.817-1.255-1.224-2.746-1.224-4.511zm64.892-25.434-1.091 30.681-4.704 2.972.417-29.012-17.924 8.696-1.578-3.449 22.536-11.698z"/><path d="m343.859 129.848c-3.311-2.224-.702-2.508-.035-5.837.571-2.859-.804-6.447.059-8.397 2.333-5.259 9.05-2.193 12.516 1.164.617.596 1.042 2.066 1.364 3.473.8 3.5 1.452 8.376-2.705 10.218-3.584 1.592-8.32 1.315-11.199-.621z"/><path d="m304.847 107.824c-.099-.095-.2-.193-.298-.287.189-.393.375-.79.547-1.123 1.301.022 13.732-2.487 13.82-2.76 3.788-1.133 7.376-2.656 9.667-6.0124-7.994-.5158-16.742 1.9679-24.28-.4102-3.063-2.1959-4.648-4.9637-6.616-6.9418.06-.1755.092-.2949.13-.4102-2.855-4.0725-1.915-7.4679 2.912-7.177 6.713 4.5811 20.095 3.8199 28.085 3.9464 1.832-.0704 6.952.1224 8.735-.8036 5.513-9.0704 8.34-19.25 12.627-28.3204 5.061-5.7806 7.794.873 10.242 5.4964.312.5893.772 1.6694 1.105 3.2653.119.0388 1.042 5.1179-2.743 6.6439-3.669 3.8301-6.58 8.5444-8.464 13.9041 5.349 1.298 10.18-1.901 16.076.3474.326 3.2761-.772 5.5174-4.269 6.7485-5.09.3367-10.457.323-16.174.5929-3.094 4.4581-7.447 9.6917-12.494 12.3047-.737.383-4.167 1.709-4.911 1.821-3.869.571-7.577 1.669-11.403 1.252-10.555-1.151-10.495-1.638-12.294-2.077z"/><path d="m180.418 124.998c-4.353-.782-9.102-4.546-11.961-6.92.081-1.133.165-2.266.326-3.357 7.356-9.246 14.754-17.9838 20.902-28.3277 1.502-4.5214 3.726-9.4148 5.423-13.9398.099-.0944.333-.5643.295-.6801 1.866-2.4347 2.725-3.1709 5.489-.7015.81 2.4622-3.216 6.2612-3.784 9.0423-.99 4.8761-3.599 17.1562-5.416 21.8288-1.162 2.981-6.125 19.541-9.141 22.224-.765.249-1.453.54-2.133.831z"/><path d="m226.036 78.7837c-5.703 1.2311-8.25-1.9643-12.185-4.4408-.485-1.4659.185-2.5954.031-3.6516 1.329-.6944 5.223-2.4974 7.745-3.325 3.052-1.5887 9.874-9.4918 13.305-7.7592 2.22 6.749-3.434 15.6271-8.896 19.1766z"/><path d="m179.873 79.2947c-2.651-1.3398-5.349-9.9372-6.24-12.6383.333-5.3107 5.181-6.7765 10.092-4.6862 4.381 3.4342 7.05 4.6337 4.956 10.523-2.981 4.3638-4.644 5.0408-8.808 6.8015z"/><path d="m220.582 64.1434c-1.281-2.5046.894-9.1342-.509-10.2316-1.311.5612-2.581 1.4342-3.991 1.8974-3.824-.7576-8.633-3.9178-8.114-7.4713 1.772-3.5076.986-2.5361 4.859-3.8058 3.29-2.6448 6.597-5.2264 9.968-7.8291 6.023-2.8306 9.839-.1193 11.846 5.9805-.074 4.3109-1.926 8.1729-3.719 12.014-2.879 2.7041-5.391 5.5418-7.92 8.3235-.856.3474-1.638.7331-2.42 1.1224z"/><path d="m181.251 55.243c-1.637-.824-1.241-1.6025-.848-2.9709-.849-2.578-2.971-4.2862-3.782-6.7521-.354-4.823-1.673-6.2717 1.561-9.4812 3.297.5402 15.002 3.1253 14.059 9.5443-1.891 4.325-7.019 8.0921-10.99 9.6599z"/><path d="m101.638 229.024c-4.9945 3.743-14.9425 1.361-16.493-5.387-1.0944-4.768-7.1449-18.195-9.7301-25.442-1.3015-2.258-2.8133-3.998-1.975-6.563 1.6771-.494 3.6551 1.291 5.1531 2.67.7541-.217 1.9219-2.091 1.8311-3.36-.3755-5.287-.5719-11.071-1.5189-16.297-1.3714-1.098-2.7398-2.199-4.027-3.322-.8944 2.68-3.9179 11.439-7.0715 6.907.6807-3.571.947-9.471-1.1678-12.943-2.6658-2.719-6.4158-4.483-7.6643-7.486.3475-4.24 6.798-5.503 10.6704-3.956 3.0903.136 2.7954-5.648 6.6607 3.774.1368 1.55 1.6801 2.462 3.4199 3.273.2597-.351.523-.702.7857-1.053-.2418-4.069-.4979-8.499-.3153-12.827-3.9566-3.708-7.275-6.784-9.7091-11.344-.172-4.455 4.7877-7.233 9.1265-8.734 1.3296-2.438 1.2663-4.515 1.0454-7.587.2561-.986.2561-.986 1.2525-2.554 1.5184.053 2.799.541 4.5317 1.487 3.6551 4.385-3.1184 18.486 3.8163 19.31 1.3015-2.385-.7153-4.749-1.8628-6.643.2597-3.442 5.395-7.959 9.0638-9.404 5.5247-.713 5.3037 2.402 5.5177 7.159.284.648.561 1.291.874 1.884 7.204 4.843 7.204 4.843 17.204 11.003 3.108 2.676 3.445 7.11 3.76 8.45.2.849 1.649 7.159-1.602 7.706-8.19-5.1-16.356-10.888-24.3118-15.511-.0878.162-.123.355-.1296.491 3.5914 3.087 8.5584 11.772 8.8774 16.732-1.774 3.252-5.251 4.732-8.4846 3.953-.6071-.824-.4143-1.561-.5719-2.561-2.5082-4.04-9.5056-7.717-13.073-9.944-1.2311 2.775 1.8276 10.702 2.7888 13.968.2066 1.943.4138 3.879.6485 5.77 2.4694 2.827 5.002 5.402 7.7449 8.236 1.0209 1.61 2.0944 3.251 3.1678 4.893-.0877.165-.1474.27-.2071.379 1.2666 2.448 4.1036 9.621-.6561 9.842-.4873-.267-.9225-.505-1.3255-.796-1.6347-3.708-4.6725-7.678-7.8852-9.786-.9368 3.781.5397 7.79-1.1648 10.898-1.0419 1.905-3.0904 2.859-4.546 3.465-1.5433.646-2.5219.979-2.6234 1.554 1.403 1.681 3.0092 3.269 4.3495 5.044 5.3316 7.061 9.8597 14.027 15.9451 20.794.449 1.915.376 2.437-.119 3.858z"/><path d="m66.64 198.404c-2.0204.091-3.122-2.266-4.7143-3.346-5.5878-1.361-9.7796-2.312-11.828-7.714.2139-.519.477-1.006.7436-1.494 2.8344-1.2 8.1696-2.087 11.7716-2.371 6.9174 1.242 4.9215 9.927 4.0271 14.925z"/><path d="m51.5685 182.725c-1.1398.926-1.3818.723-1.9326.702-.7821-1.27-1.1084-2.221-2.3887-2.708-6.1103.112-12.6135-4.206-11.7261-10.474 1.0699-1.316 2.2835-.583 4.6407 0 5.1001-1.228 12.645-4.746 13.3011 3.501-.4423 3.023-1.2382 6.103-1.8944 8.979z"/><path d="m400.438 167.402c-2.617-4.893 4.219-10.403 7.328-12.284 4.486.954 4.507 8.177 1.511 11.621-4.22 2.88-4.707 3.438-8.839.663z"/><path d="m392.643 216.176c-.063-.214-.073-.386-.122-.516-5.128-4.455-9.281-9.456-12.095-15.258.179-.583.179-.583.702-1.189 4.013 1.031 7.222 4.967 11.803 4.205 2.371-1.785 4.364-3.322 5.932-5.314-5.079-4.416-10.972-3.567-16.128-5.921-3.445-2.995-6.329-11.635-4.736-15.16 4.128-4.184 3.139-1.445 7.889 2.687 6.25 4.29 14.588 6.465 21.961 9.278 1.901.259 1.901.259 2.757.593 4.564-2.329 5.973-2.165 10.288.68 2.105.684 2.105.684 8.692 2.242.505-.298 1.007-.597 1.558-.853-6.987-5.422-17.044-5.332-25.34-6.896-3.143-1.75-4.612-4.013-5.574-6.482-1.244-.922-8.555-5.966-3.097-5.476 2.571 1.091 5.29 1.162 8.12 2.235 7.805 1.47 15.908 4.097 23.845 6.17.73-.838.853-1.547.92-1.905 1.066-1.038 1.785-1.392 2.883-1.908-1.266-.61-1.466-.951-2.347-.403-4.314-1.624-8.281-.165-7.959-5.528-3.276 1.978-6.952 1.975-9.747-.456-1.33-4.02 3.033-8.569 4.605-11.134.056-.438 1.396-2.55 2.648-5.303 1.232-3.676 1.716-8.657 5.423-9.439 3.069.705 4.276 1.013 3.34 5.194.347 2.424.68 7.054.242 9.135-.706 3.346-1.926 8.134-5.02 10.845 2.228.544 5.84.905 6.563-1.901-1.08-3.56 2.364-4.413 4.781-3.616 1.091 1.192 1.091 1.192 2.711 2.525.526-.607.481-.649.523-1.263-1.273-2.578-.449-2.683 1.621-3.742-1.439-3.052.045-6.262 2.567-7.093 8.169 4.812 8.169 4.812 12.207 6.847 4.556-.533 13.63-5.328 16.31-.129-.207 2.683-1.771 5.987-4.416 8.183-1.536.544-3.101.743-4.434 1.711.418.365.8.775 1.176 1.186 4.075 1.336 6.941.958 4.535 6.644 1.242 4.023 2.554 4.591-2.238 7.464-5.724 1.975-11.88 4.069-17.84 5.844-.21.144-.417.291-.579.477.39.585.782 1.171 1.134 1.802-1.435 2.028-3.515 4.231-5.644 6.304-4.055.807-6.125-1.235-9.082-3.476-4.973-1.624-9.327-3.203-14.314-4.43-.615.614-1.323 1.143-1.814 2.269 1.638 1.508 3.283 3.097 4.925 4.69.642 2.932-2.729 6.058-5.735 6.878-2.08-1.561-3.41-2.388-5.553-3.023-1.042.726-2.087 1.455-3.167 2.234-3.27 3.595-9.737 13.76-15.68 9.492zm52.457-32.765c-.059-.218-.112-.344-.164-.47 2.845-2.519 3.693-3.498.75-5.567-.817.189-2.367.561-2.399-.445-.035-1.084 5.184-2.288 5.981-2.737 1.49 1.295 3.676 3.768 3.854 6.297-2.065 2.371-4.787 2.869-8.022 2.922z"/></g></g></svg>