<svg fill="none" height="500" viewBox="0 0 424 500" width="424" xmlns="http://www.w3.org/2000/svg"><path d="m209.889 473.5c12.389-12.464 40.363-34.032 67.14-42.181 30.77-9.105 110.299-23.491 128.686-105.453 14.788-64.231-12.786-136.612-15.983-169.208-2.796-28.277 5.593-93.4684 7.193-103.0553 1.599-13.4191-10.792-18.2145-18.788-15.3365-13.584 5.2707-42.759 14.8554-76.328 15.3365-35.967.4815-80.331-25.8818-91.92-43.6171-11.19 17.7353-55.551 44.0986-91.52 43.6171-33.5708-.4793-62.7433-10.0658-76.332-15.3365-8.3897-2.878-20.7811 1.9153-18.7813 15.3365 1.1971 9.5869 9.9892 74.7783 7.1926 103.0553-3.1969 32.596-30.772201 104.977-15.9866 169.208 18.3848 81.962 97.9143 96.348 128.2883 105.453 26.776 8.149 54.752 29.717 67.139 42.181z" fill="#000"/><path d="m209.888 456.721c15.589-16.295 48.755-33.55 70.737-39.302 60.744-16.297 97.113-43.619 110.302-85.325 19.181-59.437-7.193-126.54-12.792-170.641-3.594-30.197 3.597-89.1531 5.197-96.345 2.396-14.382.796-16.2995-11.191-11.9833-11.985 4.3139-45.958 12.9437-76.728 11.9833-29.572-.9568-64.341-19.1716-85.525-36.4315-21.181 17.2599-55.551 35.4747-85.124 36.4315-30.7721.9604-65.1419-7.6694-77.1329-11.9833-11.5885-4.3162-13.5884-2.3987-10.7918 11.9833 1.1991 7.1937 8.794 66.148 4.7964 96.345-5.1968 44.101-31.97137 111.204-12.7898 170.641 13.5925 41.706 49.5595 69.028 110.7061 85.325 21.98 5.752 54.752 23.007 70.336 39.302z" stroke="#fff" stroke-linecap="round" stroke-width="2.4198"/><g fill="#fff"><path d="m220.682 71.3382c.396 4.3158 1.196 8.6302.796 13.9005-1.197-3.3532-4.396-7.1879-8.39-7.1879-4.796 0-8.792 3.3532-10.792 7.1879-.798 6.7126-.798 12.9441.401 19.6513 2.797-.957 5.197-3.833 7.995-5.2712 6.793-4.3162 17.979-.9608 20.781-10.5473l.395-.4815c1.197 2.3969-.395 5.7563-1.197 8.6302-6.791 11.5018-23.18 1.9171-28.375 14.3818.401 8.149-1.196 17.254 1.202 24.924 1.197 1.441 3.195.96 4.792.481 10.792-3.353 16.786-13.901 19.582-23.488h.402c-.402 5.753-.402 12.465-1.599 18.217-11.991 7.668-23.98 14.855-35.969 21.089 5.593-11.023 1.599-25.884 2.797-38.822-.801-7.667-.801-14.3801-.801-22.0495 0-1.4419-1.6-2.8779-2.797-3.8347-1.199-.4792-2.798-.4792-3.997-.9608.798-1.436 2.796-2.872 4.796-3.8347 9.191-5.7518 18.781-10.0657 27.973-15.3364 2.005-.4834 1.202 2.3968 2.005 3.3513z"/><path d="m355.362 92.4301c2.797 8.6239 0 18.2109-.803 26.8389-2.394 20.132-3.196 41.702 2.797 59.917.403 1.436-1.599 1.436-2.394.96-4.398-2.399-6.398-7.673-8.39-12.465-4.798-8.63-7.595-18.695-13.192-27.319l-.396.956.396 40.266c.401 1.436 2 2.397 3.197 2.872-3.197 3.359-7.595 5.277-11.589 7.194 0-1.917 1.198-3.835 1.198-6.233 0-21.089 0-42.663-.795-63.27-.803-2.878-4.396-3.36-6.799-4.316 3.198-2.878 7.193-5.277 11.193-7.194 1.599-.475 2.797.961 3.197 2.399 4.396 8.63 7.593 18.214 12.385 26.844.401 0 .401-.481.801-.481 0-13.901 2.396-27.32 1.197-41.2207-.401-2.8779-5.593-3.8347-3.996-7.1941 1.996-1.4361 3.996-3.3532 6.793-2.3964 2.404.0018 3.601 2.4004 5.2 3.8423z"/><path d="m176.719 92.4348c-.799 1.9176-1.599 4.3099-1.998 6.2275l.399 54.6457c.4 1.436 0 2.878 1.599 4.316l2.399 1.436c-3.596 3.359-9.193 5.75-13.589 8.149 0-.481-.398-1.436.402-1.436l.799-4.316-.4-28.281c-1.998-2.398-3.996.481-5.996.961-3.195 2.872-7.595 4.31-10.389 7.188 0 9.105-.801 19.171.798 27.801.401 1.917 1.996 2.878 3.596 3.353h1.599c-5.195 4.314-11.19 7.674-17.183 10.067 1.199-2.393 1.997-5.753 2.398-8.625l-1.198-53.21c0-2.392-2.798-3.353-3.997-4.789 4.396-3.834 9.993-6.712 15.188-8.63-3.6 6.713-.799 16.779-1.2 24.927 0 .957.401.957.8 1.437 5.194-1.437 9.59-5.753 14.785-8.151l.801-1.916-.399-18.696c-.402-1.436-1.599-2.872-3.199-3.353h-1.197c0-1.9151 1.998-1.436 2.797-2.8777 3.994-1.4383 7.591-5.273 12.385-6.2275z"/><path d="m127.164 113.521c1.597 8.629.398 17.735 4.396 24.923-6.396-3.354-5.197-11.023-11.191-14.855-1.599-.961-2.796.956-3.595 1.915-.798 22.051.799 42.183 1.197 63.27.799 1.442 1.996 2.398 3.197 2.878h2.396c-5.991 4.314-13.187 7.187-19.579 11.022 6.393-6.706 3.194-17.253 3.595-25.402l-.799-44.099c-.402-.957 0-2.398-1.197-3.353-5.199 1.436-5.5971 8.148-7.593 12.465-1.2009 6.227-1.5996 13.419-6.7942 17.733h-.7986c4.7941-8.63.7986-20.614 3.595-30.198 10.7918-5.752 21.1838-12.944 32.3718-18.215z"/><path d="m301.809 134.609c-5.197 1.442-6.796 7.193-7.593 11.507-2.402 15.337-4.002 34.033.797 48.891 1.197 2.396 2.796 7.194 6.796 6.712 4.792-1.436 5.193-6.712 6.792-11.026 3.197-15.818 3.597-34.509.4-50.806-1.597-2.4-3.597-5.752-7.192-5.278zm13.584.481c7.994 19.177 6.798 43.144-1.599 61.834-2.797 4.795-6.392 10.066-11.985 11.027-4.402.956-8.796-.961-11.989-3.833-8.396-13.425-9.995-32.117-7.199-48.415 2.401-11.026 6.396-25.884 20.385-28.282 5.595-.48 9.591 3.355 12.387 7.669z"/><path d="m278.629 140.845c-.401 2.878-2.396 5.752-2.396 8.63v32.115c0 11.502 0 23.006.796 33.551.801 1.436 2 2.399 3.198 2.878l-.401.957c-4.796 3.36-9.589 6.232-14.788 8.63 2.403-4.316 3.199-10.066 2.797-16.299l-.795-43.138-.803-14.861c-.394-1.436-1.993-2.399-3.196-3.354 4.001-3.359 8.796-4.795 13.192-8.149.796 0 1.599-.96 2.396-.96z"/><path d="m258.25 154.743c1.599 8.149.795 16.779 1.599 24.449-4.001-4.317-2.002-11.503-7.995-14.382-2-.957-3.197.96-4.396 2.398l-.4 1.917v40.264l.4 21.57c.796 1.918 2.396 3.36 4.396 4.315-4.396 3.834-9.193 6.712-14.386 8.15l1.198-6.713v-34.991l-.803-28.762c-.795-1.436-2.394-1.436-3.593-.481-5.199 5.276-4.002 13.425-7.593 19.177h-.403c.797-6.233 0-13.419 0-19.177l.797-1.917c9.595-5.271 19.584-11.503 29.177-16.773.797 0 2.002.481 2.002.956z"/><path d="m198.301 188.777c-2.398 4.317-2.398 9.591-3.599 14.382l-2.395 12.945-6.794 37.386c-3.197 9.105-1.599 21.568-8.392 28.761 0-6.237-1.999-11.51-3.198-17.741l-9.99-38.342c-1.201-4.796-2.398-11.027-8.393-12.465v-.481c5.593-3.354 10.789-7.668 16.783-9.585-2.398 2.872-1.6 7.667-1.197 11.022 1.599 11.027 4.794 21.095 7.192 31.641.403 0 .799.475 1.201.475 2.797-9.105 3.195-19.171 5.195-28.281.799-6.227 3.596-13.419.399-19.171-.399-.957-1.599-1.917-2.399-1.917 3.998-3.354 9.193-6.232 14.388-8.63h1.199"/><path d="m348.171 217.538c1.593 2.872 1.593 7.668 0 11.023-4.798 15.342-11.595 29.725-16.788 45.061-.4 7.67-.4 16.773.395 24.446 0 1.438 2.002 2.393 2.802 3.835-4.796 3.835-10.789 6.228-15.989 10.062.803-3.355 2.797-6.227 3.198-10.062 0-9.111 0-18.694-1.198-27.326-4.395-9.587-9.192-19.171-14.385-28.756l-3.197-2.397c5.193-3.353 9.99-7.188 15.582-9.105-.796 3.353-2.796 8.624-.394 12.459 3.191 5.752 4.791 11.51 7.988 16.772 1.601.482 1.601-1.911 2.796-2.39 3.6-11.984 9.996-22.531 11.192-34.99 0-4.316-2-8.63-5.993-10.066-.4-.96.4-1.917.4-2.398 3.193-1.917 7.193-1.436 10.39 0 1.601.479 1.998 2.397 3.201 3.832z"/><path d="m145.546 235.271c0 17.254 0 34.514.799 51.766.801 1.438.398 2.878 2.398 3.355 1.998.961 3.197-.475 4.795-1.438 6.395-6.704 2.798-17.733 10.393-23.966h1.596c-2.395 5.751-2.797 11.983-2.395 18.216-.402 1.917 0 4.314-.402 6.232-7.991 5.27-16.783 10.066-25.177 14.855l-.4-.481.4-8.622-.4-43.62-.397-18.694c-1.201-2.871-3.997-4.316-6.794-4.316 6.394-3.834 11.989-8.623 18.383-11.022-3.197 4.797-2.396 11.985-2.799 17.735z"/><path d="m294.613 248.214c0 2.872-1.599 5.75-1.599 9.106v25.402l.802 37.388c.4 1.921 2 2.876 3.593 3.835-4.395 3.359-8.389 5.756-13.186 7.667 1.197-4.308.4-8.142.4-12.456l-.4-34.514c-.394-.48-.796 0-1.197.481-3.197 9.111-5.593 18.215-9.192 27.32-1.6-.479-2.797-2.393-3.593-4.314-2.797-4.316-4.397-9.108-7.594-13.422-.802 0-1.599.482-1.599.957.795 15.343-.403 28.762.795 44.099 1.197.961 2.796 1.923 3.599 3.361-3.996 3.354-9.194 5.75-13.991 8.149.801-3.36 2.797-6.713 2.797-11.027l-.395-31.636-.803-26.839c-.796-2.878-3.593-4.314-5.993-5.276 3.597-2.393 7.193-5.752 11.589-6.225 4.396 7.187 8.395 14.855 12.791 22.043 1.6.961 1.6-1.438 2.397-1.917 2.796-11.984 6.396-23.488 9.995-35.471 3.189-3.357 6.788-4.793 10.784-6.711z"/><path d="m86.3986 256.842c-5.1946 6.706-4.3959 18.214-1.9977 25.884-3.1969 0-4.7964-2.878-6.7941-4.79-1.1973 0-3.1969.476-3.9978-.479 1.2009-1.923 2-4.314 2-6.231 0-3.361-1.1991-6.234-4.3964-7.676-3.9973-2.39-9.5928-1.911-13.5883.961-3.1991 3.354-5.5973 7.188-3.5995 11.504 5.5973 13.425 22.7811 17.739 29.5752 31.161 3.9977 10.066 2.7968 23.01-3.595 31.634-5.5951 6.712-13.9888 10.547-23.5798 9.107-5.9937-1.438-11.5887-6.227-13.1862-11.984-1.9978-6.227.3984-11.504 4.7943-14.855 3.1969-2.399 7.9955-2.399 10.7919 0 1.5996.959 2.3982 2.397 2.3982 4.314-.7986 1.436-2.3982-.481-3.595.48-1.5996.956-3.5996 2.392-3.9978 3.834 0 2.872-.3986 4.314.7987 6.227 2.7968 3.36 6.3941 4.314 10.7919 3.833 5.195-1.43 10.7878-7.188 11.5887-13.413 2.3982-22.537-26.7766-25.89-31.573-45.061-2.3982-9.112.7987-17.741 7.9951-22.531 7.1928-4.789 16.3851-4.314 23.9784-.957 2.3959-1.923 5.9914-3.835 9.1905-2.878v1.916"/><path d="m111.978 261.633-1.599.479c-1.197 8.624-3.596 19.653-3.596 27.802 3.197-1.442 6.794-2.397 8.792-5.277zm3.595-29.237c-1.997 1.917-1.997 5.27-1.997 7.669 5.995 20.128 10.789 40.739 16.783 60.871.402 2.399 3.199 3.835 2.8 6.233-4.796 2.876-9.592 6.232-15.187 8.149 3.997-6.231 1.599-12.94-.399-19.177-1.201-3.835-2-2.872-3.997-1.912-2.399.957-5.595 2.872-6.794 3.354-2.399.956-2.399 4.314-2.797 6.225-.799 3.835-4.7967 14.388 1.197 17.262 1.197 0 1.6.48 2.398 0-5.195 5.277-12.7895 8.628-18.7832 11.983.7987-2.872 2.3982-5.278 3.1969-7.669 5.5932-26.845 9.5913-54.646 14.7853-81.487 2-4.314 3.6-10.065 8.794-11.501z"/><path d="m225.479 296.626c-2.002 0-4.402 1.442-4.798 3.355-.801 9.112-.4 19.651 0 29.244.396 1.436 1.996 1.436 3.199 1.436 3.593 0 6.79-2.397 8.389-5.271 2.795-8.149 5.197-19.171.401-26.845-2-1.437-4.394-1.919-7.191-1.919zm18.78 2.397c3.995 8.624 1.196 19.653-3.6 26.365-1.994 4.314-8.792 5.271-7.593 11.023 2.803 11.504 5.994 23.487 16.391 30.679 2.397 1.436 5.593 1.436 8.39.957 0 2.876-3.197 4.314-5.593 4.793-13.192.482-19.982-13.419-24.781-23.006-1.994-4.793-3.593-9.59-4.796-13.904l-1.197-.957-.797.957c-.401 9.59.396 19.65 0 29.243.797 1.436 3.199 1.436 3.199 2.872-4.002 3.359-8.396 5.756-13.188 7.667 1.996-8.622-.405-17.729.396-26.839-.396-14.379-.396-30.197-.799-45.061-.799-1.43-1.998-2.872-3.595-2.872h-2.394c2.394-3.353 6.79-5.277 10.389-7.188 6.392-3.834 15.983-6.231 22.781-1.923 2.793 1.923 5.189 4.797 6.787 7.194z"/><path d="m180.318 331.139-1.201 3.833c-1.6 10.068-3.998 19.653-4.396 29.719 4.396-.48 7.993-3.354 11.989-5.752.398-1.436.398-2.397 0-3.36-2.398-8.142-3.197-16.772-6.392-24.44zm13.186 10.066 7.991 34.506c0 1.924 2.399 2.878 3.197 3.835-3.997 3.359-8.392 5.277-12.387 6.718 1.998-6.237-1.201-12.943-2.8-18.701-.399-1.912-2.797-.957-3.996-.474-4.797 2.397-9.593 4.789-13.589 8.149-.798 6.711-3.197 13.419-2.398 20.132.799 1.917 2.398 2.397 3.998 2.397l-.401.956c-5.593 3.835-11.588 7.669-17.584 10.066.398-2.397 2.797-3.832 3.596-6.231 4.396-11.502 5.592-23.967 7.993-36.423 3.197-17.262 7.194-34.521 9.993-51.768 1.996-5.277 3.197-10.553 7.992-14.386 1.202 14.383 5.997 27.324 8.395 41.224z"/></g><path d="m241.862 473.986c1.996 0 3.996 0 3.996-2.878 0-1.919-2-2.401-3.597-2.401h-3.594v5.279zm-3.197 9.104h-2.402v-16.298h6.398c3.597 0 5.593 1.437 5.593 4.789 0 2.878-1.599 4.315-3.995 4.315l4.396 7.194h-2.797l-4.396-7.194h-2.797zm3.197 3.833c6.392 0 11.589-5.27 11.589-11.982s-5.197-11.982-11.589-11.982c-6.396 0-11.594 5.27-11.594 11.982.002 6.712 5.2 11.982 11.594 11.982zm-14.389-11.982c0-8.149 6.398-14.383 14.391-14.383 7.593 0 14.386 6.234 14.386 14.383s-6.793 14.378-14.386 14.378c-7.995 0-14.391-6.229-14.391-14.378z" fill="#000"/><path d="m213.087 204.113-1.203.476c-1.598 8.148-3.593 19.177-3.593 27.325 2.796-1.442 6.396-2.396 8.792-5.276zm9.19 6.707c2.797 10.547 4.793 22.051 7.99 32.597.401 1.436 2.797 2.396 2.797 3.353-4.396 3.359-9.187 6.231-13.985 8.148.797-3.353 1.599-7.667 1.197-11.501l-2-7.189c-.396-1.442-1.996-.96-3.193-.481-2.801 2.872-7.993 3.353-9.993 7.188 0 5.75-2.797 10.547-1.595 16.3.798 1.917 3.194 1.917 5.592 1.917-6.393 3.833-11.988 8.148-18.782 11.023h.402c7.192-17.257 7.991-36.907 12.387-54.64 3.595-14.862 3.595-31.155 11.19-44.581l.801-.481c-.4 13.423 5.195 25.407 7.192 38.347z" fill="#fff"/></svg>