<svg height="120" viewBox="0 0 479 120" width="479" xmlns="http://www.w3.org/2000/svg"><g fill="none" fill-rule="evenodd" transform="translate(1 1)"><g fill="#fff"><path d="m192.537 81.8796c0-1.0017-.66-1.744-2.002-2.0328v-.6481c.743 0 3.225.1002 3.92.1002.606 0 3.005-.1002 3.753-.1002v.6481c-1.247.2416-1.906.9722-1.906 2.0328v12.7144c0 4.025 2.227 6.305 6.889 6.305 4.015 0 7.145-1.791 7.145-6.004v-13.0625c0-.9428-.6-1.6911-2.103-1.9798v-.6481c.547 0 2.602.1002 3.297.1002.599 0 2.749-.1002 3.302-.1002v.6481c-1.455.3418-2.097.9899-2.097 1.9798v12.3615c0 5.55-3.254 8.738-10.274 8.738-6.539 0-9.924-2.946-9.924-8.161z"/><path d="m220.575 101.935c1.52-.282 2.12-1.042 2.12-1.979v-17.5761c0-1.4907-.802-2.1624-2.162-2.5277v-.6481c.772.0589 2.067.0884 2.726.0884.6 0 1.532-.0118 2.162-.0884l15.364 17.9239v-15.2902c0-.9427-.606-1.691-2.102-1.9856v-.6481c.552 0 2.53.1002 3.231.1002.611 0 2.732-.1002 3.29-.1002v.6481c-1.467.3418-2.174.9958-2.174 1.9856v21.0992h-.926c-.582-.135-1.681-.754-3.362-2.581l-13.749-15.8845v15.4905c0 .942.547 1.691 2.049 1.979v.648c-.552 0-2.53-.106-3.23-.106-.606 0-2.679.106-3.237.106z"/><path d="m341.821 97.193h.647c.345 1.313 1.099 2.51 2.162 3.199 1.105.772 2.839 1.143 4.235 1.143 3.094 0 5.048-1.52 5.048-3.924 0-2.487-2.512-3.7828-5.517-5.2734-2.239-1.1077-6.634-2.946-6.634-7.1588 0-3.9241 3.017-6.3692 7.845-6.3692 3.183 0 4.68.7718 6.83.6717l-.042 4.7607h-.653c-.861-2.8046-3.427-3.7827-6.242-3.7827-3.147 0-4.323 1.7853-4.323 3.6 0 2.5984 2.565 3.9123 5.469 5.1968 3.267 1.4435 6.813 3.2641 6.813 7.3299 0 3.847-3.029 6.628-8.57 6.628-3.297 0-5.274-.937-7.008-1.143z"/><path d="m411.439 91.949v7.954c0 .79.606 1.78 1.972 2.027v.648c-.761 0-3.255-.106-3.974-.106-.605 0-2.993.106-3.86.106v-.648c1.372-.247 2.031-1.243 2.031-2.027v-7.6064zm-3.581.9604-6.254-9.9575c-1.069-1.7499-1.883-2.669-3.077-3.1051v-.6481c.856 0 3.172.1002 3.831.1002.594 0 3.094-.1002 3.997-.1002v.6481c-.802.1415-1.176.5362-1.176 1.1372 0 .5303.362 1.2079.725 1.7971.356.5833 4.614 7.5888 4.614 7.5888l4.443-7.583c.451-.76.766-1.5142.766-2.0091 0-.4537-.321-.8249-1.081-.9251v-.6481c.754 0 2.334.1002 2.839.1002.504 0 2.322-.1002 3.064-.1002v.601c-1.71.6953-2.773 2.18-3.813 3.9064l-5.689 9.4272z" fill-rule="nonzero"/><path d="m291.605 79.1986h14.67c.451 0 1.247-.053 1.704-.2474h.654l-.101 4.7312h-.648c-.558-1.4906-1.14-2.6808-3.979-2.6808h-6.366v8.2429h4.911c.719 0 1.586-.0589 1.96-.1473 1.105-.2416 1.592-.8485 1.811-1.7794h.654c-.048.7129-.048 2.3391-.048 2.8223 0 .4831.048 2.1977.048 2.9695h-.654c-.314-.9309-.742-1.6379-1.811-1.8972-.374-.1002-1.259-.1767-1.96-.1767h-4.911v9.6683h6.93c3.023 0 3.902-1.249 4.657-3.022l.647.153-.647 4.855c-2.251-.2-3.599-.2-6.153-.2h-7.323c-.707 0-3.296.1-4.045.1v-.648c1.319-.248 2.091-.896 2.091-2.157v-17.876c0-1.1077-.6-1.803-2.085-2.0446v-.6658z"/><path d="m254.136 82.0324c0-1.202-.719-1.8619-2.132-2.1624v-.6422c.79 0 3.332.1002 4.074.1002.624 0 3.237-.1002 4.033-.1002v.6422c-1.408.3005-2.144.9015-2.144 2.1624v17.7526c0 1.202.724 1.85 2.144 2.151v.648c-.796 0-3.302-.101-4.033-.101-.629 0-3.29.101-4.08.101v-.648c1.443-.266 2.138-.896 2.138-2.151z"/><path d="m365.423 82.0324c0-1.202-.73-1.8619-2.138-2.1624v-.6422c.784 0 3.338.1002 4.074.1002.63 0 3.243-.1002 4.039-.1002v.6422c-1.408.3005-2.138.9015-2.138 2.1624v17.7526c0 1.202.724 1.85 2.138 2.151v.648c-.79 0-3.296-.101-4.039-.101-.623 0-3.284.101-4.074.101v-.648c1.443-.266 2.138-.896 2.138-2.151z"/><path d="m385.817 79.299c-8.041 0-9.33-.1473-10.975-.2475l.012 4.8197h.653c.6-2.1329 1.799-2.6338 3.35-2.6338h5.042v18.5476c0 1.255-.695 1.88-2.138 2.151v.648c.796 0 3.474-.1 4.092-.1.736 0 3.254.1 4.038.1v-.648c-1.419-.295-2.144-.949-2.144-2.151v-18.5476h5.007c1.609 0 2.762.5421 3.361 2.6338h.648l.012-4.8197c-1.628.1002-2.916.2475-10.958.2475z"/><path d="m321.645 90.2518c.748.1002 1.853.1473 2.945.1473 4.413 0 5.803-2.5158 5.803-4.7489 0-3.1522-2.12-5.1084-5.987-5.1084-.801 0-1.96.1002-2.761.2475zm0 9.5332c0 1.202.766 1.85 2.185 2.151v.648c-.784 0-3.361-.1-4.092-.1-.629 0-3.141.1-3.931.1v-.648c1.318-.248 2.09-.896 2.09-2.151v-17.9351c0-1.1018-.606-1.7971-2.084-2.0446v-.6422c.784 0 3.272.1002 3.979.1002 1.152 0 4.424-.1945 5.713-.1945 5.636 0 8.778 2.3097 8.778 6.275 0 3.1169-2.334 5.2262-5.933 6.0864 0 0 .819.4714 1.639 1.42.992 1.1608 3.676 4.9848 4.793 6.3218 1.11 1.338 2.536 2.834 4.062 2.905v.524c-.73.16-1.906.295-2.797.295-1.913 0-3.445-.672-4.93-2.451-1.282-1.55-3.462-4.767-4.745-6.393-.819-1.0368-1.817-1.844-3.635-2.1386-.35-.0589-.683-.112-1.08-.1532v8.0248z" fill-rule="nonzero"/><path d="m265.766 82.103c-.517-1.1312-1.301-1.9561-2.649-2.2507v-.6599c.838 0 3.736.106 4.371.106.588 0 3.118-.106 3.979-.106v.6422c-.766.1473-1.633.5656-1.633 1.3375 0 .5538.339 1.308.986 2.728l6.076 13.7109 5.749-13.7345c.451-1.1077.784-1.9679.784-2.6219 0-.7247-.671-1.2256-1.628-1.42v-.6422c.766 0 2.637.106 3.219.106.535 0 2.732-.106 3.57-.106v.6599c-1.438.383-2.311 1.1666-3.112 3.0226l-8.458 19.7851h-1.912z"/><path d="m287.45 19.7014c-.98-2.1388-2.476-3.7002-5.018-4.2599v-1.2433c1.579 0 6.83.1886 8.035.1886 1.111 0 6.195-.1886 7.816-.1886v1.2138c-1.437.2769-3.088 1.0723-3.088 2.5453 0 1.037.647 2.4688 1.858 5.1555l11.522 25.9778 10.898-26.0249c.85-2.1093 1.485-3.7179 1.485-4.9611 0-1.3846-1.289-2.3214-3.094-2.6926v-1.2138c1.443 0 4.947.1886 6.063.1886 1.016 0 5.179-.1886 6.759-.1886v1.1784c-2.714.7306-4.377 2.2802-5.891 5.7919l-16.024 37.5083h-3.629z"/><path d="m132.346 57.2448c2.09-.4713 3.563-1.4199 3.563-3.7708v-34.3857c0-2.2566-1.366-3.1934-3.563-3.759v-1.2197c1.098 0 5.832.1827 6.984.1827 1.324 0 6.289-.1827 7.376-.1827v1.2197c-2.09.4713-3.64 1.414-3.64 3.759v14.3647h25.822v-14.3647c0-2.3509-1.377-3.2877-3.557-3.759v-1.2197c1.093 0 5.963.1827 7.287.1827 1.14 0 5.987-.1827 7.068-.1827v1.2197c-2.091.4713-3.641 1.414-3.641 3.759v34.3857c0 2.2566 1.455 3.2052 3.641 3.7708v1.1254c-1.081 0-5.922-.0943-7.068-.0943-1.324 0-6.194.0943-7.287.0943v-1.1254c2.079-.4713 3.557-1.4199 3.557-3.7708v-16.2501h-25.822v16.2501c0 2.3509 1.455 3.2052 3.64 3.7708v1.1254c-1.093 0-6.052-.0943-7.376-.0943-1.152 0-5.886.0943-6.984.0943z"/><g fill-rule="nonzero"><path d="m442.339 54.9766c1.616.2887 4.609.4713 6.967.4713 13.345 0 20.287-7.9659 20.287-19.0782 0-11.5189-7.328-19.6262-19.806-19.6262-2.548 0-5.737.1885-7.448.4654zm-11.308 2.2684c2.679-.4714 4.158-1.5319 4.158-3.9594v-34.1971c0-2.3568-1.455-3.2877-4.045-3.7591v-1.2196c1.491 0 6.349.1826 7.691.1826 2.174 0 8.226-.4714 12.941-.4714 15.887 0 25.526 8.8027 25.526 22.1834 0 13.0095-10.037 22.6429-26.411 22.6429-4.721 0-10.322-.3712-12.513-.3712-1.33 0-5.862.1885-7.347.1885z"/><path d="m251.226 35.1261c1.414.1827 3.504.2769 5.577.2769 8.356 0 10.981-4.7725 10.981-8.9852 0-5.9863-4.014-9.6747-11.337-9.6747-1.509 0-3.706.1886-5.221.4655zm0 18.0354c0 2.2802 1.455 3.5175 4.134 4.0831v1.2197c-1.491 0-6.349-.1886-7.751-.1886-1.181 0-5.944.1886-7.435.1886v-1.2197c2.488-.4713 3.949-1.7027 3.949-4.0831v-33.9555c0-2.0917-1.14-3.4115-3.943-3.8828v-1.2197c1.49 0 6.2.1827 7.525.1827 2.185 0 8.379-.3594 10.82-.3594 10.685 0 16.63 4.3836 16.63 11.8782 0 5.9097-4.437 9.8868-11.249 11.5306 0 0 1.544.8897 3.1 2.6927 1.883 2.1977 7.086 9.5862 9.194 12.1139 2.102 2.5335 4.799 5.3617 7.685 5.4913v.9958c-1.384.2946-3.593.5479-5.286.5479-3.64 0-6.533-1.2668-9.348-4.6488-2.423-2.9342-6.669-9.1738-9.098-12.2494-1.55-1.962-3.427-3.4881-6.86-4.0537-.677-.1119-1.312-.2003-2.061-.2887v15.2249z"/><path d="m392.023 35.1261c1.431.1827 3.51.2769 5.583.2769 8.356 0 10.975-4.7725 10.975-8.9852 0-5.9863-4.021-9.6747-11.326-9.6747-1.52 0-3.706.1886-5.232.4655zm0 18.0354c0 2.2802 1.461 3.5175 4.14 4.0831v1.2197c-1.491 0-6.343-.1886-7.739-.1886-1.2 0-5.951.1886-7.447.1886v-1.2197c2.482-.4713 3.949-1.7027 3.949-4.0831v-33.9555c0-2.0917-1.146-3.4115-3.943-3.8828v-1.2197c1.496 0 6.188.1827 7.524.1827 2.192 0 8.38-.3594 10.809-.3594 10.702 0 16.63 4.3836 16.63 11.8782 0 5.9097-4.425 9.8868-11.243 11.5306 0 0 1.55.8897 3.094 2.6927 1.907 2.1977 7.103 9.5862 9.2 12.1139 2.108 2.5335 4.81 5.3617 7.679 5.4913v.9958c-1.366.2946-3.587.5479-5.262.5479-3.653 0-6.557-1.2668-9.36-4.6488-2.423-2.9342-6.658-9.1738-9.105-12.2494-1.55-1.962-3.42-3.4881-6.847-4.0537-.689-.1119-1.319-.2003-2.073-.2887v15.2249z"/><path d="m214.952 40.6648-7.109-16.4386-6.622 16.4386zm-28.472 16.5683c2.827-.654 4.378-2.4687 5.411-4.9021l14.301-34.1382c.606-1.4141 1.319-4.3129 1.319-4.3129h4.002s.719 2.9106 1.313 4.3247l15.109 34.2206c1.075 2.3568 2.245 4.0596 5.25 4.8079l-.006 1.1372c-1.639 0-6.723-.0943-7.881-.0943-1.152 0-6.01.0943-7.644.0943l.006-1.1372c2.198-.5362 2.893-1.6439 2.893-2.7221 0-.9132-.38-1.9443-.844-3.0108l-3.248-7.3532h-16.653l-2.976 7.3945c-.332.8366-.73 2.0209-.73 2.8222 0 1.2314.647 2.2154 3.147 2.8694l-.006 1.1372c-1.478 0-5.38-.0943-6.295-.0943l-6.468.0943z"/><path d="m356.634 40.6648-7.115-16.4386-6.616 16.4386zm-28.472 16.5683c2.827-.654 4.383-2.4687 5.405-4.9021l14.307-34.1382c.605-1.4141 1.324-4.3129 1.324-4.3129h4.003s.707 2.9106 1.301 4.3247l15.12 34.2206c1.069 2.3568 2.245 4.0596 5.239 4.8079l-.006 1.1372c-1.634 0-6.723-.0943-7.887-.0943-1.141 0-5.999.0943-7.632.0943v-1.1372c2.215-.5362 2.898-1.6439 2.898-2.7221 0-.9132-.374-1.9443-.831-3.0108l-3.261-7.3532h-16.653l-2.981 7.3945c-.333.8366-.725 2.0209-.725 2.8222 0 1.2314.648 2.2154 3.148 2.8694v1.1372c-1.485 0-5.381-.0943-6.301-.0943l-6.468.0943z"/></g><path d="m0 0h99.7105v37.36697c0 17.1221-6.426 53.4285-49.4843 80.4551 0 0-46.6569-19.332-50.2262-80.4551z"/></g><path d="m0 0h99.8116v37.39641c0 17.128-6.432 53.458-49.5319 80.496 0 0-46.7044-19.343-50.2797-80.496z" stroke="#fff" stroke-width=".23"/><path d="m75.8209711 47.9116s-.8908 2.8105-4.8403-.0766l-13.5765-.324s-1.7758.5656-2.0193-1.2786c0 0 .3266-3.6884.1603-4.0065 0 0 .0832-1.0429-1.7045-1.0429 0 0-2.7438.3182-2.821-2.0917 0 0-.481-2.563 3.314-2.4805 0 0 1.2115.5598 1.2947-.9663 0 0-.1604-10.4229-.0832-11.2183 0 0 .3267-.9545-1.5382-1.1195 0 0-2.6666.5597-2.9873-1.202 0 0-.1603-2.6455 1.6214-2.8104 0 0 2.1796.1649 2.5834-.4007 0 0 .487.3182.4039-1.5967l.0831-3.2936s.2317-.8779 1.6095-.7955c0 0 2.5063.1591 2.8329-.0883 0 0 .5583-.7189.7246-1.0429 0 0 1.2947-.0766 1.5322.2416 0 0 1.9421 1.2844 9.2946.8013 0 0 1.1344 0 1.366.324 0 0 1.3778 1.0429 2.1855-.0766 0 0 1.2116-.2474 4.8463-.1591 0 0 3.9672 1.037 6.7051-1.2078l.8909.1591s1.128 1.8383 1.936 1.2844c0 0 2.423-.2357 2.827.2416 0 0 .808 1.1961.404 4.3306 0 0-.481 1.3552 1.859 1.3552 0 0 2.666-.4832 2.34 2.0032 0 0 .724 2.8046-3.712 2.4099 0 0-.57.8013-.493 1.361 0 0-.077 9.1326-.16 10.1814 0 0-.078 1.4435 1.859 1.361 0 0 2.589-.165 2.672 2.1624 0 0 .321 3.0461-3.403 2.4805 0 0-1.128.165-1.301.8838l-.154 4.0065s.077 2.0033-2.18 1.5202c-.32 0-12.6022.2474-13.6534-.0707.0118.0059-.5583-.0707-.7187.2415z" fill="#fff"/><path d="m49.9536664 61.339593s.5642-.2357.7245-.6304c0 0 1.6986-.165 1.9361-.4007l5.3333.4007s5.2501.3947 7.5128-1.2138c0 0 .8137 0 1.3779.2475 0 0 1.1225.2474 1.4491.7188l3.0705-.0825s1.7757.5656 1.6154 1.691v1.4377s-.3267 2.887.4811 3.052h2.3518s1.9421.8779 1.6986 2.0033c0 0 .0831 1.5967-1.6095 1.9208 0 0-1.7045.4772-2.2628.4006 0 0-.5701.7189-.6533 1.5968l-.2375 10.4995s-.1663 1.1195 1.5322.9604c0 0 2.5004-.2416 3.2309 1.1254 0 0 .6473 2.3214-.6474 2.7221l-.9681.4772-2.1024.3359s-.8849.0707-.968 1.5967v2.7987s.0831 1.9323-1.4551 1.9323l-2.2628.159s-.5642.472-1.6926.154c0 0-13.7369.247-14.2239.082l-1.6154.324s-1.7758 1.603-3.2309.395l-1.1284-.884s-.8077.159-1.1284.077c-.3266-.077-15.192.165-15.192.165s-3.1536.324-3.3912-.725c0 0-.4038-4.0833-.2435-4.5723 0 0 0-1.1961-.7245-1.2727 0 0-3.1536-.159-3.2309-.489 0 0-1.6985-1.1961-1.2115-2.398 0 0 .5701-1.6085 2.2627-1.7676 0 0 2.5835.4065 2.5835-.3182 0 0 .1663-.4831.1663-1.2786 0 0 .1604-9.545.0772-10.1813 0 0 .2435-1.202-.8077-1.202 0 0-1.1284.3182-1.853-.1591 0 0-1.942.0825-2.3459-1.4435 0 0-.3266-.9604.1544-1.7676 0 0 .8909-1.7617 3.4744-1.1961 0 0 1.455.4007 1.6154-.6363l-.0772-3.8534s-.3267-1.037 1.6926-1.5967c0 0 2.5835.7188 3.3912-.5598 0 0 .8908-1.7676 1.6094-.5656 0 0 1.5442 1.4436 5.7431 1.2904 0 0 7.2753-.5657 7.4356-.2534 0 0 1.7758.2534 2.2628.8072z" fill="#fff"/><path d="m27.8216138 47.9057s-.8908 2.8105-4.8521-.0825l-13.57069995-.324s-1.7757.5656-2.0192-1.2786c0 0 .3266-3.6825.1544-4.0065 0 0 .089-1.0429-1.6927-1.0429 0 0-2.7438.3299-2.821-2.0799 0 0-.487-2.5748 3.308-2.4864 0 0 1.2057.5597 1.2948-.9663 0 0-.1604-10.417-.0891-11.2242 0 0 .3325-.9545-1.5264-1.1136 0 0-2.6666.5597-2.9873-1.2079 0 0-.1663-2.6396 1.6095-2.8046 0 0 2.1796.165 2.5894-.3888 0 0 .487.3122.4039-1.6144l.0831-3.2819s.2435-.8838 1.6095-.8013c0 0 2.51219995.1591 2.83879995-.0825 0 0 .5642-.7188.7186-1.0429 0 0 1.3007-.0765 1.5442.2357 0 0 1.9361 1.2904 9.2945.8072 0 0 1.1225 0 1.366.3241 0 0 1.3719 1.0429 2.1796-.0825 0 0 1.2116-.2416 4.8522-.1591 0 0 3.9495 1.0429 6.7052-1.2019l.8849.1649s1.1284 1.8383 1.948 1.2786c0 0 2.4231-.2416 2.827.2416 0 0 .8077 1.2019.3979 4.3306 0 0-.4811 1.361 1.8589 1.361 0 0 2.6666-.4772 2.3459 1.9974 0 0 .7305 2.8046-3.7178 2.4098 0 0-.5702.8013-.493 1.3611 0 0-.0772 9.1326-.1603 10.1813 0 0-.0772 1.4318 1.8589 1.3611 0 0 2.5835-.1709 2.6666 2.1623 0 0 .3207 3.0462-3.3912 2.4806 0 0-1.1343.1649-1.3006.8838l-.1604 4.0065s.0832 2.0033-2.1855 1.526c-.3207 0-12.5967.2357-13.6479-.0766 0 0-.5642-.0766-.7246.2357z" fill="#fff"/><path d="m75.8209711 47.9116s-.8908 2.8105-4.8403-.0766l-13.5765-.324s-1.7758.5656-2.0193-1.2786c0 0 .3266-3.6884.1603-4.0065 0 0 .0832-1.0429-1.7045-1.0429 0 0-2.7438.3182-2.821-2.0917 0 0-.481-2.563 3.314-2.4805 0 0 1.2115.5598 1.2947-.9663 0 0-.1604-10.4229-.0832-11.2183 0 0 .3267-.9545-1.5382-1.1195 0 0-2.6666.5597-2.9873-1.202 0 0-.1603-2.6455 1.6214-2.8104 0 0 2.1796.1649 2.5834-.4007 0 0 .487.3182.4039-1.5967l.0831-3.2936s.2317-.8779 1.6095-.7955c0 0 2.5063.1591 2.8329-.0883 0 0 .5583-.7189.7246-1.0429 0 0 1.2947-.0766 1.5322.2416 0 0 1.9421 1.2844 9.2946.8013 0 0 1.1344 0 1.366.324 0 0 1.3778 1.0429 2.1855-.0766 0 0 1.2116-.2474 4.8463-.1591 0 0 3.9672 1.037 6.7051-1.2078l.8909.1591s1.128 1.8383 1.936 1.2844c0 0 2.423-.2357 2.827.2416 0 0 .808 1.1961.404 4.3306 0 0-.481 1.3552 1.859 1.3552 0 0 2.666-.4832 2.34 2.0032 0 0 .724 2.8046-3.712 2.4099 0 0-.57.8013-.493 1.361 0 0-.077 9.1326-.16 10.1814 0 0-.078 1.4435 1.859 1.361 0 0 2.589-.165 2.672 2.1624 0 0 .321 3.0461-3.403 2.4805 0 0-1.128.165-1.301.8838l-.154 4.0065s.077 2.0033-2.18 1.5202c-.32 0-12.6022.2474-13.6534-.0707.0118.0059-.5583-.0707-.7187.2415z" fill="#000"/><path d="m75.8209711 47.9235s-.8908 2.8105-4.8402-.0766l-13.5766-.3241s-1.7758.5657-2.0193-1.2785c0 0 .3266-3.6884.1603-4.0066 0 0 .0832-1.0429-1.6985-1.0429 0 0-2.7438.3241-2.827-2.0857 0 0-.481-2.563 3.314-2.4806 0 0 1.2115.5598 1.2947-.9662 0 0-.1604-10.423-.0832-11.2243 0 0 .3267-.9604-1.5322-1.1195 0 0-2.6666.5598-2.9933-1.2019 0 0-.1544-2.6455 1.6214-2.8105 0 0 2.1796.1591 2.5834-.4007 0 0 .493.3182.4039-1.6026l.0891-3.2936s.2316-.8779 1.6154-.7954c0 0 2.5063.1591 2.827-.0884 0 0 .5582-.7129.7245-1.0429 0 0 1.2947-.0825 1.5323.2416 0 0 1.9361 1.2844 9.2945.7954 0 0 1.1344 0 1.366.3241 0 0 1.3779 1.0429 2.1856-.0766 0 0 1.2115-.2475 4.8462-.1591 0 0 3.9673 1.037 6.7052-1.2079l.8908.1591s1.1281 1.8442 1.9361 1.2845c0 0 2.423-.2357 2.827.2415 0 0 .808 1.202.404 4.3307 0 0-.481 1.361 1.859 1.361 0 0 2.666-.4831 2.34 1.9974 0 0 .724 2.8105-3.712 2.4098 0 0-.564.8013-.487 1.3669 0 0-.077 9.1326-.16 10.1814 0 0-.084 1.4435 1.858 1.3669 0 0 2.59-.1649 2.673 2.1565 0 0 .315 3.0462-3.403 2.4805 0 0-1.128.165-1.301.8838l-.154 4.0066s.077 2.0033-2.18 1.5201c-.32 0-12.6023.2475-13.6595-.0766.0059.0118-.5642-.0648-.7246.2534z" stroke="#000" stroke-width=".01"/><path d="m60.853 15.0061603s.1604 1.6026.1604 2.0092c0 .4006-.2376 23.1614-.2376 23.1614s.2376 1.7617-1.2888 2.6455c0 0-.4098.159-.487-.9663l.1604-24.0393c-.006.0059.1544-2.9696 1.6926-2.8105z" fill="#fff"/><path d="m60.8708 15.0061602s.1544 1.6026.1544 2.0092c0 .4006-.2375 23.1673-.2375 23.1673s.2375 1.7617-1.2947 2.6455c0 0-.4098.159-.493-.9604l.1604-24.0452c.0119 0 .1722-2.9755 1.7104-2.8164z" stroke="#000" stroke-width=".012"/><path d="m57.8778684 43.7274111s.1603-22.6016.0831-23.0023c-.0831-.3947.0772.33.0772.33s-.2435-3.9359.8077-5.5385c0 0-.3266-1.3551-2.1855.3241l-.0832 3.2818s0 1.8442-1.6926 1.7676c0 0-1.9421-.0825-2.827.8013 0 0-.487 1.7676 1.3719 1.4494 0 0 2.9102 0 3.0705 1.1961l-.1603 12.1081s.6473 2.015-1.6155 2.015c0 0-2.7557-.1709-2.6666 1.5143 0 0 .5702 1.4435 2.9101.9662 0 0 1.6927.3123 1.6155 1.9267v3.0462s-.1604 1.2078 1.455 1.2844h12.6026s.6414.0766.6414-.7247c0 0-.0772-.6422-1.0453-.6422l-10.5001-.1591c0-.0177-1.6986.5421-1.8589-1.9444z" fill="#fff"/><path d="m60.0400766 43.0658402s-.3266 1.1194.8849.8897h8.3206l2.2568.489s2.34-.5656 0-1.8442c0 0-7.4297.0707-8.077-.0825 0 0-1.5382-.4006-1.8649-.4772.0059-.0118-.7958-.33-1.5204 1.0252z" fill="#fff"/><path d="m60.0400766 43.0707293s-.3266 1.1253.8849.8897h8.3265l2.2568.489s2.3459-.5715 0-1.8501c0 0-7.4297.0707-8.077-.0825 0 0-1.5382-.4006-1.8649-.4831 0 0-.8017-.3241-1.5263 1.037z" stroke="#000" stroke-width=".012"/><path d="m74.4579221 44.0342564s-1.5323 0-1.4551 2.0091c0 0 .1603 1.5143 1.7758 1.5143 0 0 1.4491-.2357 1.2947-1.8383 0 0-.8909-2.0033-1.6154-1.6851z" fill="#fff"/><path d="m75.0174638 43.1502333s.7246-.8013 1.2116-.8013c0 0 8.077.7188 9.443-.2416 0 0 1.2175-.2415 1.5442 0 0 0 1.2117.9604 1.2117 1.5202 0 0-.077.7247-1.5325.3122 0 0-9.1282.0884-9.6152.0884-.006.0059-2.5123.5656-2.2628-.8779z" fill="#fff"/><path d="m75.0174125 43.1502333s.7246-.8013 1.2116-.8013c0 0 8.083.7188 9.449-.2416 0 0 1.2175-.2415 1.5441 0 0 0 1.2117.9604 1.2117 1.5261 0 0-.077.7247-1.5324.3122 0 0-9.1342.0884-9.6212.0884 0 0-2.5122.5597-2.2628-.8838z" stroke="#000" stroke-width=".012"/><g fill="#fff"><path d="m76 46.4461748s0-.6481 1.1343-.6481l11.3081-.0766s1.051.5597 1.051-1.3552c0 0 .416-8.7378.451-18.3594.012-2.8635.143-5.8684.042-8.6494 0 0-.249-1.202-.576-1.4495 0 0 0-1.2785 1.378-.8013 0 0 1.211.0825.891 1.9326l.083 2.7928s-.244 1.2078 1.93.8838c0 0 2.18.324 2.263 1.1195 0 0 .647 1.6085-1.936 1.4435h-1.865s-.808.4773-.565 1.4435l-.243 11.6249s-.16 2.0033 1.776 1.9267c0 0 2.013-.0825 2.423.5597 0 0 1.384 2.0033-1.616 1.8442 0 0-1.858-.0825-2.262.2416 0 0-.327.4007-.565 4.1715 0 0 .167 2.2449-1.532 1.9974 0 0-11.2305.1591-12.2817-.0766.006-.0059-1.1224.3241-1.2887-.5656z"/><path d="m61.2438895 14.71318-.2435 25.7362s-.0772 1.1961 1.9421 1.4376c0 0 2.3399.2416 2.9041 0 0 0 1.5442-.0824 5.4936.0825 0 0 .974.9722 1.0572-.2415 0 0 .6414-20.8341.3266-25.1706 0 0-.0891-1.8442-1.455-1.9208 0 0-6.141.489-6.7052 0l-2.4231-.6363c-.0119-.0059-.9799.0766-.8968.7129z"/><path d="m74.6474 15.8773333s-.2435 12.1021-.1604 12.5028l-.1603 10.1754-.3267 3.5293s.487.7189.8909.2416c0 0 2.5834-.6481 4.1988-.4006 0 0 5.1789.4772 6.2241-.33 0 0 .8077.4007 1.0453-.8838 0 0 .3207-22.4367.1722-22.8373 0 0 .3148-3.2171.1485-3.5293 0 0-.0713-.7189-1.4491-.0825 0 0 .1603.6422-7.5129.3947 0 .0118-2.9042-.0648-3.0704 1.2197z"/><path d="m87.0772 15.5349944-.0772 25.3238s.6473 2.2507 1.6924 2.015c0 0 .161-.489.238-1.2903l.326-24.1277c-.006.0059-.813-3.8357-2.1792-1.9208z"/></g><path d="m87.0772 15.5355591-.0772 25.3297s.6473 2.2507 1.6983 2.015c0 0 .161-.489.238-1.2903l.326-24.1336c-.006 0-.813-3.8357-2.1851-1.9208z" stroke="#000" stroke-width=".012"/><path d="m77.35966 22.7188c-.2435-.6422 1.3719-.7188 1.3719-.7188l.8077.159c.5642-.0766 1.1343.165 1.1343.165.5642.8779-.4038 1.3552-.4038 1.3552l-.3207 1.0429c-.0832.8838 0 8.4962 0 8.4962.1603.3948.8077 1.1136.8077 1.1136 0 .7247-.8909.5656-.8909.5656l-2.3399.0825c-.7305-.0825-.487-.8838-.487-.8838.8077-.4006 1.0512-1.8442 1.0512-1.8442v-7.9306z" fill="#000"/><path d="m66.764946 23.7421662c.0772 1.7676.0772 4.1716.0772 4.1716 1.5382 1.2019 2.4231-.4832 2.4231-.4832 2.0193-1.9208 0-3.6884-.3207-4.1656-.3267-.4832-1.9421-.0825-1.9421-.0825zm-.0772 6.3398-.1604 2.4864.7186 1.202c.493.6422-.3207 1.1254-.3207 1.1254l-2.5835-.2416c-.481-.2475 0-1.0429 0-1.0429.6474-.3948.7306-1.4435.7306-1.4435l-.0832-4.6488.0832-3.3643c0-.4007-.6474-1.1195-.6474-1.1195-.5642-.0825-.4039-.8013-.4039-.8013.1604-.4007 1.5264-.165 1.5264-.165h3.3971c3.2308 1.0429 2.7498 3.3702 2.7498 3.3702.2435 2.3215-2.2628 3.2878-2.2628 3.2878l-.1663 1.2844 2.3459 3.6825c.4039.3241.3267.6481.3267.6481-.3267.8838-1.6214 0-1.6214 0l-2.9042-4.4897c-.2435-.3358-.7245.2298-.7245.2298z" fill="#000" fill-rule="nonzero"/><path d="m49.9536664 61.339593s.5642-.2357.7245-.6304c0 0 1.6986-.165 1.9361-.4007l5.3333.4007s5.2501.3947 7.5128-1.2138c0 0 .8137 0 1.3779.2475 0 0 1.1225.2474 1.4491.7188l3.0705-.0825s1.7757.5656 1.6154 1.691v1.4377s-.3267 2.887.4811 3.052h2.3518s1.9421.8779 1.6986 2.0033c0 0 .0831 1.5967-1.6095 1.9208 0 0-1.7045.4772-2.2628.4006 0 0-.5701.7189-.6533 1.5968l-.2375 10.4995s-.1663 1.1195 1.5322.9604c0 0 2.5004-.2416 3.2309 1.1254 0 0 .6473 2.3214-.6474 2.7221l-.9681.4772-2.1024.3359s-.8849.0707-.968 1.5967v2.7987s.0831 1.9323-1.4551 1.9323l-2.2628.159s-.5642.472-1.6926.154c0 0-13.7369.247-14.2239.082l-1.6154.324s-1.7758 1.603-3.2309.395l-1.1284-.884s-.8077.159-1.1284.077c-.3266-.077-15.192.165-15.192.165s-3.1536.324-3.3912-.725c0 0-.4038-4.0833-.2435-4.5723 0 0 0-1.1961-.7245-1.2727 0 0-3.1536-.159-3.2309-.489 0 0-1.6985-1.1961-1.2115-2.398 0 0 .5701-1.6085 2.2627-1.7676 0 0 2.5835.4065 2.5835-.3182 0 0 .1663-.4831.1663-1.2786 0 0 .1604-9.545.0772-10.1813 0 0 .2435-1.202-.8077-1.202 0 0-1.1284.3182-1.853-.1591 0 0-1.942.0825-2.3459-1.4435 0 0-.3266-.9604.1544-1.7676 0 0 .8909-1.7617 3.4744-1.1961 0 0 1.455.4007 1.6154-.6363l-.0772-3.8534s-.3267-1.037 1.6926-1.5967c0 0 2.5835.7188 3.3912-.5598 0 0 .8908-1.7676 1.6094-.5656 0 0 1.5442 1.4436 5.7431 1.2904 0 0 7.2753-.5657 7.4356-.2534 0 0 1.7758.2534 2.2628.8072z" fill="#000"/><path d="m49.9833621 61.3538497s.5583-.2357.7246-.6364c0 0 1.6985-.1649 1.9361-.4006l5.3332.4006s5.2501.4007 7.5129-1.2078c0 0 .8136 0 1.3778.2475 0 0 1.1285.2415 1.4432.7129l3.0764-.0766s1.7758.5656 1.6095 1.691v1.4435s-.3207 2.8871.487 3.0462h2.3459s1.9361.8838 1.6986 2.0033c0 0 .0831 1.5967-1.6154 1.9207 0 0-1.7045.4773-2.2628.4007 0 0-.5701.7188-.6533 1.6026l-.2376 10.5054s-.1603 1.1136 1.5323.9604c0 0 2.5003-.2357 3.2368 1.1254 0 0 .6473 2.3214-.6474 2.728l-.968.4772-2.1084.3241s-.8849.0766-.9621 1.5967v2.8105s.0772 1.9207-1.4551 1.9207l-2.2627.159s-.5642.477-1.6986.159c0 0-13.7369.242-14.2239.077l-1.6214.324s-1.7698 1.603-3.2249.395l-1.1343-.884s-.8077.159-1.1284.088c-.3267-.088-15.1921.159-15.1921.159s-3.1536.324-3.3971-.724c0 0-.4038-4.0894-.2435-4.5726 0 0 0-1.196-.7305-1.2785 0 0-3.1477-.1591-3.2308-.4832 0 0-1.6986-1.2019-1.2116-2.4039 0 0 .5702-1.6085 2.2628-1.7676 0 0 2.5835.4125 2.5835-.3182 0 0 .1663-.4772.1663-1.2726 0 0 .1603-9.545.0831-10.1873 0 0 .2435-1.2078-.8136-1.2078 0 0-1.1284.3181-1.8589-.1591 0 0-1.9362.0766-2.34-1.4435 0 0-.3267-.9604.1603-1.7676 0 0 .885-1.7617 3.4744-1.202 0 0 1.455.4065 1.6154-.6363l-.0832-3.8534s-.3266-1.037 1.6986-1.6026c0 0 2.5835.7247 3.3912-.5598 0 0 .8849-1.7676 1.6094-.5715 0 0 1.5442 1.4436 5.7371 1.2904 0 0 7.2753-.5657 7.4357-.2475 0 0 1.7817.2475 2.2628.8072z" stroke="#000" stroke-width=".01"/><path d="m52.0510655 93.2228904s.974-.4891 1.6214-.3182c.6473.1591 10.0963-.0766 10.0963-.0766s4.1217.3182 4.769-.2474l.9622-.3182s.4038-.4773.4038-1.1136c0-.6481.0832-2.8105.0832-2.8105l.2494-.7954s-.0832-.8013 0-22.2069c0 0 .3148-1.6733-.7364-2.7221 0 0 0-.6363.3207-.5597.3266.0883.1663.0883.1663.0883s1.455-.4065 1.6926.1532c0 0 .6533 1.9149.0831 3.0462 0 0-.1603 2.3273 1.0572 2.3273 0 0 .4751.4832 1.4491.2416 0 0 2.1024.2416 2.1024.8779 0 0 0 1.4494-1.4551 1.2079l-1.942.1532s-1.2947.2474-1.1284 1.7617c.1663 1.526-.0832 12.4262-.0832 12.4262s0 1.2903 2.0252 1.2078c0 0 2.5003-.0825 2.5003.6364 0 0 .6474 1.6026-1.1284 1.6851 0 0-3.3971-.0825-3.1476.8779 0 0-.2435 2.2507-.4098 2.6455 0 0 .3325 1.8442-.0832 2.1682 0 0-.2375 1.0368-2.4172.8778 0 0-13.8913-.076-16.0769.083 0-.018-1.2947-.177-.974-1.2966z" fill="#fff"/><path d="m49.3596885 92s1.3719.2356 1.3719 1.5201c0 1.2783.0832 2.0033-.7305 2.1623-.8077.159-1.6926-.077-1.9302-1.114-.2494-1.0424.1544-2.3328 1.2888-2.5684z" fill="#fff"/><path d="m51.0166609 91.5452448s1.455-.9663 2.0192-.8013c0 0 7.3526.4772 9.6153.0824 2.2628-.4006.8849-.0824.8849-.0824s1.9421 0 2.5004-.7248c0 0 .5701-.1531.8908.4066l1.2056 1.2903s.0891.7954-1.2887.713c0 0-13.1728 0-13.5707.0824.0059-.0058-2.5003.3889-2.2568-.9662z" fill="#fff"/><path d="m51.0159216 91.551069s1.455-.9663 2.0192-.8013c0 0 7.3525.4773 9.6212.0884 2.2628-.4065.8849-.0884.8849-.0884s1.9421 0 2.5063-.7306c0 0 .5642-.1532.8909.4066l1.2056 1.2903s.0891.7954-1.2888.7129c0 0-13.1727 0-13.5766.0825 0 0-2.5003.3948-2.2627-.9604z" stroke="#000" stroke-width=".012"/><path d="m31.5382 63s.5642 0 .487.9604l-.1663 24.2043s.2494 1.6085-1.1285 2.6455c0 0-.7304.8779-.7304-.4772l.3325-24.6875c-.0059 0 .0713-1.8442 1.2057-2.6455z" fill="#fff"/><path d="m31.5441 63s.5642 0 .493.9604l-.1723 24.2102s.2495 1.6085-1.1284 2.6455c0 0-.7364.8779-.7364-.4773l.3326-24.6933c-.006 0 .0772-1.8442 1.2115-2.6455z" stroke="#000" stroke-width=".012"/><path d="m30.3662849 62.6481s-.968 1.7676-.8908 2.1683l-.0832 5.3617s-.0831 3.4468 0 3.8475c.0832.4006-.0831 10.4995-.0831 10.4995s-.0832 1.9208 0 2.563v4.3247s-.1604 1.9267 1.2887 1.4377c0 0 14.224-.3182 15.1148-.0708 0 0 1.2888.2357.8078.878 0 0 0 .5655-.8968.4005 0 0-6.7052.636-12.763.401 0 0-4.0385.235-4.288-.236 0 0-.6414-.082-.6414-2.4097 0 0 0-2.1565-.1544-2.5572 0 0 .1544-1.1371-1.8589-1.3669 0 0-2.827.4831-2.9101-1.202 0 0 .4038-1.2019 3.1536-1.0428 0 0 2.0193.324 1.6154-1.2845l.2376-11.8547s.2494-2.0916-1.1284-2.18c0 0-1.2888-.0648-1.6986.0825 0 0-2.34 0-2.1796-1.3552 0 0 .8077-1.4494 3.1536-1.1253 0 0 1.7758.3181 1.8589-1.6793 0 0-.0831-4.089.8849-4.2481.006.0118 2.0252.0884 1.461.6481z" fill="#fff"/><path d="m32.5121913 89s1.1343 1.196 2.9932 1.1253l10.9813.1532s1.2175.0884 1.1403.7188c0 0-.1723.9604-1.6214.6423l-13.2499-.1591-1.4551.0884s-.968-.165.5702-2.0092z" fill="#fff"/><path d="m32.5121913 89s1.1343 1.202 2.9992 1.1254l10.9812.159s1.2175.0825 1.1462.7189c0 0-.1722.9604-1.6154.6481l-13.2618-.1591-1.461.0825s-.968-.165.5702-2.0092z" stroke="#000" stroke-width=".012"/><path d="m67 87.8839298s.968 1.8442 1.455 2.0976c0 0 .8909 1.0311.6474-.8072l.1603-23.0849s-.2435-.8013 0-2.0798l-.968-1.7617s-1.0512-.8013-1.0512.4772l-.1604 24.6109z" fill="#fff"/><path d="m67 87.8947586s.9739 1.8442 1.4609 2.0975c0 0 .8909 1.037.6474-.813l.1604-23.0908s-.2435-.8013 0-2.0739l-.9681-1.7676s-1.0572-.8014-1.0572.4831l-.1603 24.6108z" stroke="#000" stroke-width=".012"/><path d="m48.7562 77.2737s.0832 1.9149-.1663 3.7591c-.1306 1.0193.3267 5.6975-.0831 8.1015 0 0-.0713.8013-1.7758.0883 0 0-10.3398.2357-10.6605-.0883 0 0-2.827.0883-3.0705-1.3611 0 0 .4039-10.9826.1604-11.3892 0 0-.1604-6.0098 0-6.5696 0 0 .2435-5.5325.0831-6.1689 0 0 .0832-1.2844-.1603-1.9266 0 0 0-.8014 1.3778-.3241 0 0 .4751.8838 3.1477.489 0 0 1.942.3182 3.801.0766 0 0 4.1157-.3181 5.1728 0 0 0 1.6155-.3181 2.0965 1.4495l-.0831 4.9669.481 1.6026.5702-.4006.2375-1.202.0832-5.291s.3207-.9663 1.6213-1.1254c0 0 2.0193-.2474 2.3459-.0766.3208.1532 4.68.3948 5.8975.1532 1.2115-.2415 1.4491.8013 5.0897-1.037 0 0 .9681.0825.9681.713 0 0-.3326 6.8229 0 8.0955 0 0 0 12.5028-.2495 13.3866l.1663 4.0066s.1604 1.7617-2.6606 1.9267c0 0 1.7757.2415-9.3777-.0766 0 0-1.7758-.0825-3.7119.7954 0 0-.4039-.0766-.4039-1.1195 0 0 .3207-3.765 0-7.4592l-.1544-4.0891z" fill="#fff"/><path d="m41.2442 72.0579s.2435 5.9273 0 6.7286l-.0772 1.2845s.3207.8779.8077 1.202c0 0 .4038 1.1194-.5642 1.0428 0 0-2.0193-.159-2.5004-.0883 0 0-1.1343 0 0-1.4318 0 0 .4039-.5715.3208-2.0092 0 0 0-6.7286.1663-7.1292 0 0 .1603-.8897-.4039-1.1313l-.974.0825-1.2056 1.1195s-.2495 1.2078-.8137-.0766v-.6482l.7305-1.9207.487-.0825s.7246.4831 1.366.6481h3.801l1.3719-.6481s.5642.0825.4098.8013c0 0 .2375 1.8501-.8137 2.0857 0 0-.6473-.2356-.968-1.1194-.006.0059-1.0572-.548-1.1403 1.2903z" fill="#000"/><path d="m59.2076232 69.3954222s-3.0646-.2416-3.1418 3.0461c0 0-.3326 2.2508 3.0646 3.6943 0 0 2.5062 1.1961 2.3399 2.7163 0 0-.3207 2.7279-2.9873 1.3669 0 0-1.2888-.6422-1.2056-1.3669 0 0-.4098-.8838-.8968-.7189 0 0-.5702.1591-.3148 2.8046 0 0 0 1.0429 1.2116 0l.6355.165s2.1855 1.7617 4.0385-.4066c0 0 2.0252-1.8442.5642-4.0831 0 0-1.0512-1.5967-2.9042-2.404 0 0-1.7758-.8072-2.1796-2.1682 0 0 .5642-2.4098 2.7438-1.1254 0 0 .8077.9604 1.2947 1.1254 0 0 .6474 0 .4811-1.4494l-.1485-1.1961s-.1603-.8897-1.3006 0c0 0-1.0512.3947-1.2947 0z" fill="#000"/><path d="m47.967088 73.3864115c-.0832.4006-.6533 2.6455-.6533 2.6455l.487.8072s1.2947.0707 1.7757.0707c.4811 0 .5642-.3948.5642-.8013 0-.3948-.8908-2.7987-.8908-2.7987l-.4098-.4831zm1.2887-5.291c.5642.4065.6474 1.2078.6474 1.2078 1.6154 4.2482 2.9932 10.423 2.9932 10.423.4039.7954 1.1285 1.4376 1.1285 1.4376 1.3719.4773 0 .8779 0 .8779-.5643.2416-2.4232-.0707-2.4232-.0707-.974-.1709-.576-.4831-.576-.4831.4097-.4007.0831-2.0092.0831-2.0092-.0831-.6363-.8077-1.6792-.8077-1.6792-.3207-.1591-.8909.5597-.8909.5597s-.8849.3241-.974 0c-.0831-.324-.6473-.6304-.6473-.6304-.9681 0-1.3719 2.3921-1.3719 2.3921.5642 2.0033 0 1.6793 0 1.6793-.4811.6481-2.0193.1708-2.0193.1708-.7246-.1709-.2375-.7306-.2375-.7306.8849-.1532 1.1224-1.1195 1.1224-1.1195.4039-.5597 2.9873-10.9767 2.9873-10.9767.2614-.4891.4217-1.4495.9859-1.0488z" fill="#000" fill-rule="nonzero"/><path d="m27.8216138 47.9057s-.8908 2.8105-4.8521-.0825l-13.57069995-.324s-1.7757.5656-2.0192-1.2786c0 0 .3266-3.6825.1544-4.0065 0 0 .089-1.0429-1.6927-1.0429 0 0-2.7438.3299-2.821-2.0799 0 0-.487-2.5748 3.308-2.4864 0 0 1.2057.5597 1.2948-.9663 0 0-.1604-10.417-.0891-11.2242 0 0 .3325-.9545-1.5264-1.1136 0 0-2.6666.5597-2.9873-1.2079 0 0-.1663-2.6396 1.6095-2.8046 0 0 2.1796.165 2.5894-.3888 0 0 .487.3122.4039-1.6144l.0831-3.2819s.2435-.8838 1.6095-.8013c0 0 2.51219995.1591 2.83879995-.0825 0 0 .5642-.7188.7186-1.0429 0 0 1.3007-.0765 1.5442.2357 0 0 1.9361 1.2904 9.2945.8072 0 0 1.1225 0 1.366.3241 0 0 1.3719 1.0429 2.1796-.0825 0 0 1.2116-.2416 4.8522-.1591 0 0 3.9495 1.0429 6.7052-1.2019l.8849.1649s1.1284 1.8383 1.948 1.2786c0 0 2.4231-.2416 2.827.2416 0 0 .8077 1.2019.3979 4.3306 0 0-.4811 1.361 1.8589 1.361 0 0 2.6666-.4772 2.3459 1.9974 0 0 .7305 2.8046-3.7178 2.4098 0 0-.5702.8013-.493 1.3611 0 0-.0772 9.1326-.1603 10.1813 0 0-.0772 1.4318 1.8589 1.3611 0 0 2.5835-.1709 2.6666 2.1623 0 0 .3207 3.0462-3.3912 2.4806 0 0-1.1343.1649-1.3006.8838l-.1604 4.0065s.0832 2.0033-2.1855 1.526c-.3207 0-12.5967.2357-13.6479-.0766 0 0-.5642-.0766-.7246.2357z" fill="#000"/><path d="m27.8275628 47.9058s-.8908 2.8104-4.8522-.0825l-13.57649997-.3241s-1.7758.5656-2.0193-1.2844c0 0 .3266-3.6825.1603-4.0066 0 0 .0832-1.0429-1.6985-1.0429 0 0-2.7438.33-2.8211-2.0798 0 0-.487-2.5748 3.314-2.4865 0 0 1.2056.5598 1.2888-.9604 0 0-.1604-10.4229-.0832-11.2301 0 0 .3326-.9545-1.5322-1.1136 0 0-2.6666.5598-2.9874-1.2078 0 0-.1662-2.6396 1.6155-2.7987 0 0 2.1796.1591 2.5894-.3948 0 0 .487.3123.4038-1.6085l.0832-3.2877s.2435-.8838 1.6094-.7954c0 0 2.51219997.1532 2.83299997-.0825 0 0 .5642-.713.7186-1.0429 0 0 1.3006-.0766 1.5441.2357 0 0 1.9302 1.2903 9.2946.8013 0 0 1.1225 0 1.366.324 0 0 1.3719 1.0429 2.1796-.0824 0 0 1.2115-.2416 4.8522-.1532 0 0 3.9553 1.037 6.7051-1.202l.8909.165s1.1284 1.8383 1.942 1.2785c0 0 2.4231-.2415 2.8329.2416 0 0 .8077 1.202.3979 4.3306 0 0-.481 1.367 1.859 1.367 0 0 2.6666-.4832 2.3459 1.9973 0 0 .7305 2.8105-3.7119 2.4099 0 0-.5702.8013-.493 1.3669 0 0-.0831 9.1326-.1603 10.1814 0 0-.0832 1.4376 1.8589 1.3669 0 0 2.5835-.1709 2.6666 2.1624 0 0 .3207 3.0402-3.3912 2.4746 0 0-1.1284.1709-1.2947.8838l-.1603 4.0065s.0891 2.0092-2.1856 1.532c-.3207 0-12.5966.2356-13.6538-.0825-.0059-.0177-.5701-.0943-.7305.2239z" stroke="#000" stroke-width=".01"/><path d="m12.8708 15.0061719s.1603 1.6026.1603 2.0033c0 .4006-.2494 23.1673-.2494 23.1673s.2494 1.7676-1.2947 2.6455c0 0-.4039.165-.487-.9545l.1663-24.0452c.0118-.0059.1722-2.9755 1.7045-2.8164z" fill="#fff"/><path d="m12.8648 15.0061721s.1604 1.6026.1604 2.0033c0 .4006-.2435 23.1673-.2435 23.1673s.2435 1.7676-1.2947 2.6514c0 0-.4039.1591-.487-.9604l.1603-24.0511s.1604-2.9696 1.7045-2.8105z" stroke="#000" stroke-width=".012"/><path d="m9.8764744 43.737353s.1603-22.6017.0831-23.0082c-.0831-.3948.0772.324.0772.324s-.2375-3.924.8137-5.5325c0 0-.3267-1.3611-2.1856.3181l-.0712 3.2937s0 1.8442-1.7045 1.7617c0 0-1.9421-.0825-2.833.8013 0 0-.481 1.7617 1.372 1.4435 0 0 2.9101 0 3.0704 1.1961l-.1544 12.108s.6474 2.0033-1.6154 2.0033c0 0-2.7438-.1532-2.6666 1.5319 0 0 .5642 1.4435 2.916.9604 0 0 1.6927.3241 1.6214 1.9149v3.052s-.1722 1.202 1.4432 1.2786h12.6085s.6474.0825.6474-.7247c0 0-.0832-.6305-1.0453-.6305l-10.5002-.1649c-.0119 0-1.7164.5597-1.8767-1.9267z" fill="#fff"/><path d="m12.0386744 43.0770633s-.3207 1.1254.8849.8779h8.3205l2.2628.4773s2.3519-.5598 0-1.8442c0 0-7.4356.0884-8.083-.0766 0 0-1.5323-.4007-1.8589-.4832.0059.0059-.8018-.3122-1.5263 1.0488z" fill="#fff"/><path d="m12.0386744 43.0725806s-.3207 1.1313.8849.8779h8.3265l2.2628.4831s2.3518-.5597 0-1.8442c0 0-7.4357.0884-8.083-.0824 0 0-1.5323-.4007-1.8589-.4773.0059.0059-.8077-.3182-1.5323 1.0429z" stroke="#000" stroke-width=".012"/><path d="m25.4583498 45.0365958s-1.5382 0-1.4551 1.9915c0 0 .1604 1.5319 1.7758 1.5319 0 0 1.455-.2474 1.3006-1.8442-.0059 0-.8968-2.0091-1.6213-1.6792z" fill="#fff"/><path d="m27.0166597 44.1442778s.7246-.8013 1.2116-.8013c0 0 8.077.7247 9.4489-.2356 0 0 1.2175-.2416 1.5323 0 0 0 1.2116.9603 1.2116 1.5201 0 0-.0773.7306-1.5264.3299 0 0-9.1401.0766-9.6152.0766 0-.0059-2.5063.5539-2.2628-.8897z" fill="#fff"/><path d="m27.0166591 44.1442778s.7246-.8013 1.2116-.8013c0 0 8.077.7247 9.4549-.2356 0 0 1.2175-.2416 1.5382 0 0 0 1.2115.9603 1.2115 1.5201 0 0-.0772.7306-1.5263.324 0 0-9.1401.0766-9.6212.0766-.0059 0-2.5122.5598-2.2687-.8838z" stroke="#000" stroke-width=".012"/><path d="m28 46.4387477s0-.6363 1.1225-.6363l11.3198-.0825s1.0452.5538 1.0452-1.3611c0 0 .4158-8.7378.4514-18.3594.0178-2.8635.1425-5.8684.0297-8.6494 0 0-.2435-1.202-.5642-1.4436 0 0 0-1.2844 1.3778-.7954 0 0 1.2057.0766.885 1.9149l.0772 2.8046s-.2435 1.202 1.942.8838c0 0 2.1796.3182 2.2569 1.1195 0 0 .6532 1.6085-1.9302 1.4435h-1.8589s-.8077.4773-.5702 1.4435l-.2435 11.619s-.1663 2.0033 1.7758 1.9326c0 0 2.0192-.0825 2.4172.5539 0 0 1.3778 2.0032-1.6155 1.8441 0 0-1.8589-.0824-2.2627.2357 0 0-.3207.4066-.5642 4.1716 0 0 .1603 2.2448-1.5382 2.0032 0 0-11.2307.1591-12.276-.0825.0178 0-1.1165.3241-1.2769-.5597z" fill="#fff"/><path d="m13.2379822 14.7247-.2375 25.7303s-.0832 1.1961 1.9361 1.4377c0 0 2.3459.2415 2.9101 0 0 0 1.5323-.0766 5.4936.0825 0 0 .968.9545 1.0512-.2416 0 0 .6473-20.8459.3266-25.1706 0 0-.0772-1.8442-1.455-1.9208 0 0-6.135.4773-6.6992 0l-2.4232-.6422c-.0118 0-.9858.0766-.9027.7247z" fill="#fff"/><path d="m39.0772 15.5400903-.0772 25.3296s.6474 2.2508 1.7045 2.0092c0 0 .1604-.4831.2376-1.2903l.3266-24.1277s-.8136-3.8475-2.1915-1.9208z" fill="#fff"/><path d="m39.0772 15.5400903-.0772 25.3296s.6474 2.2508 1.7045 2.0092c0 0 .1604-.4831.2376-1.2903l.3266-24.1277s-.8136-3.8475-2.1915-1.9208z" stroke="#000" stroke-width=".012"/><path d="m39.0772 15.5400903-.0772 25.3296s.6474 2.2508 1.7045 2.0092c0 0 .1604-.4831.2376-1.2903l.3266-24.1277s-.8136-3.8475-2.1915-1.9208z" stroke="#000" stroke-width=".012"/><path d="m26.6474 15.860878s-.2435 12.1022-.1663 12.5087l-.1544 10.1814-.3267 3.5175s.4811.7306.885.2475c0 0 2.5894-.6364 4.2048-.4007 0 0 5.1729.4831 6.2181-.3182 0 0 .8077.4007 1.0512-.8838 0 0 .3208-22.4366.1604-22.8432 0 0 .3266-3.2052.1604-3.5175 0 0-.0832-.7306-1.4492-.0884 0 0 .1544.6481-7.5128.4066 0-.0059-2.9101-.0943-3.0705 1.1901z" fill="#fff"/><path d="m23.5510007 23.6363-.7305 1.5319s-1.7699 7.7715-2.7379 9.3683c0 0-.1604 1.6085-1.5382.324 0 0-3.1536-9.8573-3.314-10.1813l-1.0512-.7189s-.6355-.8838.487-.9603l2.9873.0765s.9681.8014-.3207 1.691c0 0 .1604 1.2786 1.8589 6.1631 0 0 .4811 1.8442 1.0512.4831l1.6155-5.6916-.487-1.6852s-.487-.8013.2435-.8779c0 0 1.6985-.159 1.9361.4773z" fill="#000"/><path d="m28.9592588 24.0376621-.0891 8.4962-.2375.6423s-.8078 1.0369-.2495 1.1194c0 0-.7186.4832 5.167.5598 0 0 2.2687.4006 1.6985-2.4864 0 0-.2435-1.0429-1.0512.4831 0 0-.2435 1.2786-3.1417.8779 0 0-.6474-.5597-.6474-1.202v-3.5293s-.0891-.8838 1.2888-.7954c0 0 1.5322.9545 1.7757.5539 0 0 .5643-1.2786 0-2.0799 0 0-.7304-.0766-.8077.2475 0 0-.487.9545-1.8589.3947 0 0-.6473-1.2785-.2435-2.3214 0 0-.1603-2.0033 1.2116-1.8442 0 0 1.6154.3182 1.7698.8013 0 0 .4039.9663.8137-.1591l-.4098-1.3669s-.2376-.5598-.6414-.4007c0 0-2.7498.4007-3.0765.0766l-2.1796.2475s-.3207.8013.6533 1.2019c.0119-.0059.2554.1591.2554.4832z" fill="#000"/></g></svg>