<?xml version="1.0" encoding="UTF-8"?>
<svg width="165px" height="40px" viewBox="0 0 165 40" version="1.1" xmlns="http://www.w3.org/2000/svg" xmlns:xlink="http://www.w3.org/1999/xlink">
    <!-- Generator: Sketch 52.6 (67491) - http://www.bohemiancoding.com/sketch -->
    <title>tnw</title>
    <desc>Created with Sketch.</desc>
    <g id="Page-1" stroke="none" stroke-width="1" fill="none" fill-rule="evenodd">
        <g id="tnw" fill="#000000">
            <path d="M72.48641,4.39346 C69.6733528,1.58037006 65.8580068,-7.04547674e-06 61.87972,0 L40,0 L40,40 L55,40 L55,15 L59.80865,15 C61.1357497,14.9999302 62.4086139,15.5266241 63.34765,16.46439 L68.52865,21.642 C69.4682976,22.5789598 69.9975133,23.8506491 70,25.17761 L70,40 L85,40 L85,23.10654 C84.997399,19.1274933 83.4146631,15.3123594 80.5998,12.5 L72.48641,4.39346 Z" id="Path"></path>
            <path d="M150,0 L150,14.82239 C149.99747,16.1493099 149.468233,17.4209436 148.52859,18.35785 L143.344,23.53547 C142.406384,24.4732378 141.134596,25.0000576 139.8085,25 L132.60315,25 C134.163864,22.5839419 134.995956,19.7696182 135,16.89331 L135,0 L120,0 L120,14.82239 C119.99747,16.1493099 119.468233,17.4209436 118.52859,18.35785 L113.344,23.53547 C112.406384,24.4732378 111.134596,25.0000576 109.8085,25 L105,25 L105,0 L90,0 L90,40 L111.87974,40 C115.859025,40.0000623 119.675436,38.4197446 122.48979,35.60654 L127.5,30.59845 L127.5,40 L141.87973,40 C145.859015,40.0000623 149.675426,38.4197446 152.48978,35.60654 L160.59978,27.49985 C163.414702,24.6875281 164.997454,20.8723716 165,16.89331 L165,0 L150,0 Z" id="Path"></path>
            <polygon id="Path" points="0 15 10 15 10 40 25 40 25 15 35 15 35 0 0 0"></polygon>
        </g>
    </g>
</svg>