<svg height="56" viewBox="0 0 56 56" width="56" xmlns="http://www.w3.org/2000/svg"><path d="m49.7778 0c1.6502 0 3.2329.655553 4.3998 1.82245 1.1668 1.16689 1.8224 2.74954 1.8224 4.39977v43.55558c0 1.6502-.6556 3.2329-1.8224 4.3998-1.1669 1.1668-2.7496 1.8224-4.3998 1.8224h-43.55558c-1.65023 0-3.23288-.6556-4.39977-1.8224-1.166897-1.1669-1.82245-2.7496-1.82245-4.3998v-43.55558c0-1.65023.655553-3.23288 1.82245-4.39977 1.16689-1.166897 2.74954-1.82245 4.39977-1.82245zm-1.5556 48.2222v-16.4889c0-2.6899-1.0685-5.2696-2.9706-7.1716-1.902-1.902-4.4817-2.9706-7.1716-2.9706-2.6444 0-5.7244 1.6178-7.2178 4.0445v-3.4534h-8.68v26.04h8.68v-15.3378c0-2.3955 1.9289-4.3555 4.3245-4.3555 1.1551 0 2.263.4589 3.0798 1.2757s1.2757 1.9247 1.2757 3.0798v15.3378zm-36.1511-30.9244c1.3862 0 2.7156-.5507 3.6958-1.5309s1.5309-2.3096 1.5309-3.6958c0-2.89332-2.3334-5.25777-5.2267-5.25777-1.3944 0-2.73178.55395-3.7178 1.53997s-1.53997 2.3234-1.53997 3.7178c0 2.8933 2.36445 5.2267 5.25777 5.2267zm4.3245 30.9244v-26.04h-8.61782v26.04z" fill="#fff"/></svg>