<svg fill="none" height="50" viewBox="0 0 62 50" width="62" xmlns="http://www.w3.org/2000/svg" xmlns:xlink="http://www.w3.org/1999/xlink"><clipPath id="a"><path d="m0 0h62v50h-62z"/></clipPath><g clip-path="url(#a)"><path d="m61.5294 5.88235c-2.2647 1.02941-4.7059 1.70589-7.2353 2.02941 2.5883-1.55882 4.5883-4.02941 5.5294-6.999995-2.4411 1.470585-5.147 2.500005-8 3.088235-2.3235-2.52941-5.5882-4-9.2941-4-6.9118 0-12.5588 5.64706-12.5588 12.6176 0 1 .1176 1.9706.3235 2.8824-10.4706-.5294-19.7941-5.55882-25.99998-13.17647-1.08824 1.85294-1.70588 4.02941-1.70588 6.32353 0 4.38234 2.20588 8.26474 5.61764 10.47054-2.08823 0-4.02941-.5882-5.73529-1.4705v.0882c0 6.1176 4.35294 11.2353 10.11761 12.3823-1.0588.2942-2.1764.4412-3.32349.4412-.79412 0-1.58824-.0882-2.35294-.2353 1.58823 4.9706 6.20583 8.6765 11.76473 8.7647-4.2941 3.4118-9.73532 5.4118-15.6765 5.4118-1 0-2-.0588-3-.1765 5.58824 3.5883 12.2353 5.6765 19.3529 5.6765 23.1765 0 35.9118-19.2353 35.9118-35.9118 0-.5588 0-1.0882-.0294-1.647 2.4706-1.7647 4.5882-4.00002 6.2941-6.55885z" fill="#fff"/></g></svg>