<svg width="1969" height="559" viewBox="0 0 1969 559" fill="none" xmlns="http://www.w3.org/2000/svg">
<g clip-path="url(#clip0_1982_215)">
<path fill-rule="evenodd" clip-rule="evenodd" d="M1289.1 184C1261.6 153.9 1227.3 138.5 1187 138.5C1148.2 138.5 1109.7 165.6 1086 192.4L1086.1 142.3L1013.7 142.2L1012.9 553.1V558.5L1085.7 558.6L1086 430.1C1108 454.8 1142.8 469.3 1181.5 469.4C1224.1 469.4 1259.9 454.2 1288 424.3C1316.3 394.2 1330.7 351.7 1330.8 303C1330.9 253.2 1316.9 213.2 1289.1 184ZM1169.6 206.2C1194.3 206.2 1215.2 215.5 1231.7 233.8C1248.7 251.5 1257.4 274.7 1257.3 302.8C1257.2 331.1 1248.8 356.5 1231.4 375C1214.8 392.7 1194 401.7 1169.3 401.7C1145 401.7 1124.7 392.8 1107.3 374.8C1090 356.2 1081.6 330.9 1081.6 302.5C1081.7 274.4 1090.4 251.2 1107.5 233.5C1124.7 215.1 1145 206.2 1169.4 206.2H1169.6V206.2Z" fill="#262D3D"/>
<path fill-rule="evenodd" clip-rule="evenodd" d="M1367.7 203.5L1367.4 376.9C1367.3 414.3 1377.6 441 1397.8 456.2C1410.4 465.7 1426.4 470.5 1445.4 470.5C1460 470.5 1482.9 464.6 1482.9 464.6L1476.4 401.4C1476.4 401.4 1459.7 406.8 1451.6 401C1443.9 395.5 1440.1 383.7 1440.1 366L1440.4 203.5L1507.8 203.6L1507.9 143.3L1440.5 143.2L1440.7 56.6L1368 56.5L1367.8 143.1L1306.8 143L1367.7 203.5Z" fill="#262D3D"/>
<path fill-rule="evenodd" clip-rule="evenodd" d="M771 51.8999H412.5L412.4 123.7H555.7L555.1 458.9V465.5L630.9 465.6L630.6 123.8L771 123.7V51.8999Z" fill="#262D3D"/>
<path fill-rule="evenodd" clip-rule="evenodd" d="M384.9 235.3L277 127.1C276 126.1 150.5 0.399902 150.5 0.399902L96 54.6999L175.7 134.6L0.800049 308.9L236 544.5L289.8 490.9L209.4 410.3L384.9 235.3ZM160.6 350.7C159 351.2 157.4 351.2 155.8 350.7C154.2 350.2 152.9 349.5 150 346.6L118.3 314.8C115.5 312 114.7 310.6 114.2 309C113.7 307.4 113.7 305.8 114.2 304.2C114.7 302.6 115.4 301.3 118.3 298.4L218.2 198.7C221 195.9 222.4 195.1 224 194.7C225.6 194.2 227.2 194.2 228.8 194.7C230.4 195.2 231.7 195.9 234.6 198.8L266.3 230.6C269.1 233.4 269.9 234.8 270.3 236.4C270.8 238 270.8 239.6 270.3 241.2C269.8 242.8 269.1 244.1 266.2 247L166.3 346.7C163.6 349.5 162.2 350.2 160.6 350.7Z" fill="#204ECF"/>
<path fill-rule="evenodd" clip-rule="evenodd" d="M939.2 185.9C909.5 155.2 869.1 138.3 827.7 139.5C785.8 139.5 748.9 154.2 718 183.3C686.8 212.6 670.9 253.3 670.8 304.2C670.7 355.1 686.5 395.8 717.6 425.2C748.5 454.4 785.5 469.3 827.4 469.4C829 469.5 830.6 469.5 832.2 469.5C871.4 469.5 910.2 452.7 938.8 423.5C959.7 402 984.7 364 984.8 304.8C984.9 245.6 960.1 207.5 939.2 185.9ZM916.3 304.7C916.2 334.2 907.5 358.6 890.3 377.2C873.2 395.7 851.9 405.1 827 405.1C802.6 405 781.5 395.6 764.4 376.9C747.7 358.7 739.2 334.2 739.2 304.3C739.2 274.4 747.8 250 764.6 231.8C781.7 213.3 802.8 203.9 827.3 203.9C852.1 203.9 873.4 213.4 890.5 232.1C907.7 250.7 916.4 275.1 916.3 304.7Z" fill="#262D3D"/>
<path fill-rule="evenodd" clip-rule="evenodd" d="M1590.5 254.7C1590.5 236.2 1600.2 195.5 1653.8 195.5C1672.8 195.5 1683.6 201.9 1692.7 209.5C1701.5 216.8 1705.9 234.8 1705.9 249.7V256.7L1617.4 270.5C1547.3 281.2 1507.1 318.9 1506.9 374.1C1506.8 402.7 1517.2 427.2 1537 445.2C1556.5 462.9 1583.2 472.3 1614.7 472.4C1654.4 472.4 1684.2 458.1 1705.5 428.6C1705.6 441.1 1705.6 453.7 1705.6 465.4H1779.4L1779.9 253.4C1780 218.8 1768.7 185.3 1746.4 166.9C1724.4 148.8 1695.6 139.5 1653.9 139.4H1653.3C1621.5 139.4 1587.8 147.8 1565.1 167.5C1538.4 190.6 1525.3 227.2 1525.3 255.5L1590.5 254.7ZM1624 408.8C1597.8 408.7 1580.8 393.8 1580.9 370.9C1581 347.1 1597.6 333.2 1633.1 327.2L1705.8 314.9V315.6C1705.6 370.5 1672.1 408.8 1624.3 408.8H1624V408.8Z" fill="#262D3D"/>
<path fill-rule="evenodd" clip-rule="evenodd" d="M1814.7 56.7998L1814 463.2V465L1879.3 465.2L1880 58.6998V56.8998L1814.7 56.7998Z" fill="#262D3D"/>
<path fill-rule="evenodd" clip-rule="evenodd" d="M1917.6 440.3C1917.6 433.3 1920 427.3 1925 422.3C1930 417.3 1936 414.8 1942.9 414.8C1949.9 414.8 1956 417.3 1960.9 422.3C1965.9 427.3 1968.4 433.3 1968.4 440.3C1968.4 447.4 1965.9 453.3 1960.9 458.2C1955.9 463.2 1949.9 465.6 1942.9 465.6C1935.9 465.6 1929.9 463.2 1925 458.2C1920.1 453.3 1917.6 447.4 1917.6 440.3ZM1921.8 440.3C1921.8 446.2 1923.8 451.3 1927.9 455.5C1932 459.6 1937 461.7 1943 461.7C1948.9 461.7 1953.9 459.6 1958 455.5C1962.1 451.3 1964.2 446.3 1964.2 440.3C1964.2 434.3 1962.1 429.3 1958 425.2C1953.9 421 1948.9 418.9 1943 418.9C1937.1 418.9 1932.1 421 1928 425.2C1923.9 429.3 1921.8 434.3 1921.8 440.3ZM1949 454.2L1942.2 442.1H1937.6V454.2H1933.4V426.4H1944.7C1950.3 426.4 1953.6 429.7 1953.6 434.3C1953.6 438.2 1950.7 441.1 1946.8 441.9L1953.7 454.2H1949ZM1937.6 430.1V438.6H1944.1C1947.7 438.6 1949.5 437.2 1949.5 434.4C1949.5 431.5 1947.7 430.1 1944.1 430.1H1937.6Z" fill="#262D3D"/>
</g>
<defs>
<clipPath id="clip0_1982_215">
<rect width="1969" height="559" fill="white"/>
</clipPath>
</defs>
</svg>
