<svg fill="none" height="500" viewBox="0 0 469 500" width="469" xmlns="http://www.w3.org/2000/svg" xmlns:xlink="http://www.w3.org/1999/xlink"><clipPath id="a"><path d="m0 0h469v500h-469z"/></clipPath><g clip-path="url(#a)" fill="#fff"><path d="m124.787 386.481-74.5235-87.522h-32.0623v136.915h31.1958v-87.521l74.523 87.521h32.063v-136.915h-31.196zm295.494-87.522-20.797 87.522-21.664-87.522h-29.463l-21.663 86.655-19.931-86.655h-32.063l35.529 136.915h32.062l20.798-86.655 21.663 86.655h31.196v-.866l35.529-136.049z"/><path d="m14.7344 478.335c0-12.132 9.532-21.664 21.6638-21.664 7.7989 0 12.1317 1.733 16.4644 6.066l-4.3327 5.199c-3.4662-2.599-6.9324-4.333-12.1317-4.333-7.799 0-13.8648 6.933-13.8648 14.732 0 8.665 6.0658 15.597 14.7313 15.597 4.3328 0 7.799-.866 10.3986-3.465v-7.8h-11.2651v-6.065h18.1976v18.197c-4.3328 3.466-10.3987 6.933-17.3311 6.933-12.9983-1.734-22.5303-11.265-22.5303-23.397z"/><path d="m59.7891 478.335c0-12.132 9.5318-21.664 22.5305-21.664 12.9981 0 22.5304 9.532 22.5304 21.664s-9.5323 21.663-22.5304 21.663c-13.865 0-22.5305-9.531-22.5305-21.663zm36.3949 0c0-8.666-6.0656-15.598-14.7312-15.598-8.6657 0-14.7313 6.932-14.7313 14.731 0 8.665 6.0656 14.732 14.7313 14.732 8.6656.866 14.7312-6.067 14.7312-13.865z"/><path d="m103.125 456.671h8.666l12.132 32.929 12.998-32.929h8.665l-18.198 43.327h-6.065z"/><path d="m149.914 456.671h32.063v6.932h-24.264v11.265h21.664v6.066h-21.664v12.132h24.264v6.066h-32.063z"/><path d="m188.915 456.671h19.064c5.2 0 9.532 1.733 12.132 4.332 2.6 2.6 3.467 5.2 3.467 9.533 0 6.932-4.334 11.265-10.399 12.998l11.265 16.464h-8.666l-10.398-14.731h-9.532v14.731h-7.799v-43.327zm19.064 20.797c5.2 0 8.666-2.6 8.666-6.932 0-4.333-3.466-6.933-8.666-6.933h-11.265v13.865z"/><path d="m230.506 456.671h6.932l22.53 29.462v-29.462h7.799v42.461h-6.066l-24.263-30.329v30.329h-6.932z"/><path d="m274.695 456.671h8.666l12.998 19.931 12.131-19.931h8.666v42.461h-7.799v-30.329l-12.998 19.93h-.867l-12.998-19.93v30.329h-7.799z"/><path d="m324.098 456.671h31.195v6.932h-23.397v11.265h20.798v6.066h-20.798v12.132h24.264v6.066h-32.062z"/><path d="m363.086 456.671h6.932l22.53 29.462v-29.462h7.799v42.461h-6.065l-23.397-30.329v30.329h-7.799z"/><path d="m419.406 463.603h-12.998v-6.932h33.796v6.932h-12.999v35.529h-7.799z"/><path d="m163.781 416.81 18.198-21.663c12.132 10.398 25.996 17.331 41.594 17.331 12.132 0 19.931-5.2 19.931-12.998 0-7.8-5.2-12.132-27.73-17.332-27.73-6.932-45.927-14.731-45.927-42.461 0-25.13 19.931-41.594 48.527-41.594 19.93 0 37.262 6.066 51.993 17.331l-15.598 23.397c-12.132-8.666-24.263-13.865-36.395-13.865s-18.198 5.199-18.198 12.132c0 9.532 6.066 12.132 30.33 18.197 28.596 6.933 44.193 17.332 44.193 41.595 0 27.73-20.796 43.327-51.126 43.327-21.664-.866-42.461-8.665-59.792-23.397z"/><path d="m91.857 38.1287c-2.5993 0-4.3325 1.733-5.1993 5.1992 0 0-.8663 5.1993-1.7332 13.8649-.8662 7.799-1.7331 19.9309-1.7331 34.6622 0 32.929 4.3331 79.722 25.1296 116.117 15.599 27.73 38.129 43.328 63.259 43.328-9.532-7.799-21.664-19.931-27.73-38.994-6.065-18.198-8.665-39.862-8.665-64.125 0-32.929 5.199-62.3923 6.932-70.191.867-4.3325 3.466-8.6657 6.933-10.3988-25.13-16.4643-46.794-25.9964-51.1267-27.7295-2.6-.8665-3.4663-1.733-4.3331-1.733 0 .8665-.8663 0-1.7332 0z"/><path d="m307.628 77.124c-.867 0-1.734 0-1.734.8669 0 0-.866.8663-2.599 1.7331-1.733.8663-3.466 2.5994-6.066 5.1994-3.466 3.4662-11.265 10.3987-20.797 20.7966-14.731 15.598-32.929 40.728-42.461 70.191-5.2 17.331-7.799 32.062-7.799 43.327 0 8.666 1.733 16.465 4.332 22.531 2.6 6.066 6.933 10.399 12.999 12.998 2.599.867 5.199 1.733 9.532 1.733 17.331 0 45.927-14.731 56.326-46.793 5.199-17.331 7.799-38.129 7.799-60.659 0-28.596-4.333-53.7258-6.066-63.2583-.866-3.4663-.867-5.1994-.867-5.1994 0-1.7332-.866-3.4663-2.599-3.4663z"/><path d="m155.114 77.124c-1.733 0-2.599 1.7331-2.599 3.4663 0 0-.867 1.7331-.867 5.1994-.867 2.6-1.733 7.7993-2.6 14.7313-1.733 11.266-3.466 28.596-3.466 48.527 0 23.397 2.599 44.194 7.799 60.659 10.399 32.062 39.861 46.793 58.059 46.793 3.466 0 6.932-.866 9.532-1.733 1.733-.866 2.599-1.733 4.333-2.599-1.734-1.733-2.6-3.466-3.467-6.066-3.466-6.932-5.199-15.598-5.199-26.864 0-12.998 2.6-29.462 8.666-46.793.866-1.733.866-3.466 1.733-5.199 0-.867.866-.867.866-1.733-19.064-46.794-62.391-82.3227-67.591-86.6559-1.733 0-2.6-.8662-2.6-.8662-.866-.8669-1.733-.8669-2.599-.8669z"/><path d="m231.365 0c-.866 0-1.733.86655-3.466 2.59966 0 0-.866 1.7331-2.599 3.4662-2.6 3.4662-4.333 6.93244-6.067 10.39864-4.332 8.6655-12.131 21.6638-19.063 38.1283-5.2 11.2653-9.533 23.3966-13.865 35.5285 13.865 13.8647 32.928 36.3947 45.927 62.3917 9.532-20.797 24.263-41.594 44.194-61.5249-12.998-39.8616-32.063-72.7905-38.995-84.92224-1.733-2.59965-2.599-3.4662-2.599-3.4662-1.734-2.59966-3.467-2.59966-3.467-2.59966z"/><path d="m370.885 38.1287c-.867 0-1.733 0-2.6.8665 0 0-1.733.8665-3.466 1.7331-2.599.8665-6.066 2.5996-9.532 4.3327l-1.733.8666c-12.132 6.0659-25.13 12.9982-36.395 19.9305-1.733.8669-2.6 1.7331-4.333 2.6 3.466 1.7331 6.066 5.1994 6.932 10.3987v.8663c1.733 7.7987 6.933 36.3949 6.933 70.1909 0 24.263-2.6 45.06-8.666 64.125-6.065 19.063-17.33 31.195-26.863 38.994 24.264-.866 46.794-16.464 62.392-43.327 20.797-36.395 25.13-83.189 25.13-116.1179 0-11.2656-.866-23.3969-1.733-34.6623-.866-8.6655-1.733-12.9982-1.733-13.8648 0-5.1993-1.733-6.9323-4.333-6.9323z"/><path d="m302.423 10.4004h-.866c-.867 0-1.733 0-2.6.8666 0 0-5.2 3.4661-13.865 9.532-4.333 3.4662-12.131 8.6655-20.797 16.4645 6.066 13.8648 12.132 26.8634 17.331 40.7278 10.398-8.6657 22.53-16.4643 35.528-24.2633-3.465-19.0642-7.798-32.929-9.532-38.1283-.866-3.4662-2.599-5.1993-5.199-5.1993z"/><path d="m160.313 10.4004c-2.6 0-4.333 1.7331-5.199 4.3327-1.733 5.1994-6.066 19.0642-9.532 38.1283 12.998 8.6655 24.263 16.4642 34.662 25.1299 4.332-12.9982 10.399-26.863 17.331-40.7278-6.932-6.0659-13.865-11.2652-20.797-16.4645-8.666-6.0659-13.865-9.532-13.865-9.532-.867-.8666-1.733-.8666-2.6-.8666z"/><path d="m39.8643 99.6521c-6.9324 0-11.2652 0-11.2652 0-2.5996 0-5.1993 1.7329-6.9324 4.3329-.8665 1.733-1.7331 3.466-1.7331 5.2.8666 5.199 3.4662 22.53 25.13 50.26 11.2652-5.2 21.6641-10.399 32.0622-13.865-2.5994-13.865-3.4663-28.597-3.4663-44.195-12.998-.866-23.3966-1.7329-29.4625-1.7329-1.733 0-2.5996 0-4.3327 0z"/><path d="m422.881 99.6521c-.866 0-2.599 0-3.466 0-6.066 0-16.464.8669-29.462 1.7329 0 14.732-1.734 29.463-3.467 44.195 10.399 4.332 21.664 8.665 32.063 13.865 21.664-26.864 25.13-45.061 25.13-50.26 0-1.734-.867-4.334-1.733-5.2-1.733-2.6-4.333-4.3329-6.933-4.3329-.867 0-5.199 0-12.132 0z"/><path d="m383.01 155.112c-4.333 22.53-11.266 41.594-20.798 57.192-9.532 16.465-21.663 29.463-35.528 38.128 102.253-5.199 130.849-38.128 133.449-42.461.866-1.733 1.733-3.466 1.733-5.199 0-2.6-1.733-6.066-3.466-7.799 0 0-.867-.867-3.466-2.6-1.734-.866-4.334-2.599-6.933-4.332-.867-.867-1.733-.867-2.6-1.734-6.932-4.332-19.064-12.131-33.795-19.064-8.666-4.332-19.064-8.665-28.596-12.131z"/><path d="m79.7225 155.112c-34.6619 12.998-62.3915 31.195-72.79006 38.128-1.73313 1.733-3.46623 2.599-3.46623 2.599-1.73311 1.733-3.46621 4.333-3.46621 7.8 0 1.733.86655 3.466 1.7331 5.199 0 0 0 .866.86656.866v.867c.86655.866 2.59965 2.6 5.19928 4.333 4.33276 3.466 12.13176 9.532 24.26346 14.731 25.9965 11.265 61.5251 19.064 103.1196 21.664-13.865-8.666-25.996-21.664-35.5289-38.128-8.665-16.465-15.5975-35.529-19.9306-58.059z"/><path d="m370.889 258.23c-5.199 0-12.998.867-24.263 2.6-1.733 0-3.466.867-5.199.867-5.2.866-11.265.866-19.931.866-5.199 0-10.399 0-15.598 0h-.867c-5.199 0-11.265 0-17.331 0-12.132 0-28.596.867-43.327 4.333-.867 0-.867.866-.867 1.733 0 .866.867.866 1.733.866h.867c6.065-.866 11.265-.866 16.464-.866 18.198 0 31.196 3.466 43.328 6.066 11.265 2.6 22.53 6.065 37.262 6.065 16.464 0 28.596-3.465 34.662-9.531 1.733-1.734 2.599-4.333 2.599-6.066-1.733-5.199-2.599-6.933-9.532-6.933z"/><path d="m91.857 258.23c-6.9325 0-8.6656 1.734-8.6656 6.066 0 2.6.8669 4.333 2.6 6.066 5.1994 6.066 18.1976 9.532 34.6616 9.532 14.732 0 25.997-2.599 37.262-6.065 12.132-3.467 25.13-6.067 43.328-6.067 5.199 0 10.398 0 16.464.867h.867c.866 0 1.733 0 1.733-.867 0-.866-.867-.866-.867-1.733-13.865-4.332-30.329-4.332-43.327-4.332-6.066 0-12.132 0-17.332 0h-.866c-5.199 0-10.399 0-15.598 0-8.666 0-14.731 0-19.931-.867-1.733 0-3.466-.866-5.199-.866-12.131-.867-19.9306-1.734-25.13-1.734z"/></g></svg>