<?xml version="1.0" encoding="UTF-8"?>
<svg width="56px" height="56px" viewBox="0 0 56 56" version="1.1" xmlns="http://www.w3.org/2000/svg" xmlns:xlink="http://www.w3.org/1999/xlink">
    <!-- Generator: Sketch 52.6 (67491) - http://www.bohemiancoding.com/sketch -->
    <title>logo_linkedin</title>
    <desc>Created with Sketch.</desc>
    <g id="Page-1" stroke="none" stroke-width="1" fill="none" fill-rule="evenodd">
        <g id="logo_linkedin" fill="#FFFFFF" fill-rule="nonzero">
            <path d="M49.7778,0 C51.428,0 53.0107,0.655553 54.1776,1.82245 C55.3444,2.98934 56,4.57199 56,6.22222 L56,49.7778 C56,51.428 55.3444,53.0107 54.1776,54.1776 C53.0107,55.3444 51.428,56 49.7778,56 L6.22222,56 C4.57199,56 2.98934,55.3444 1.82245,54.1776 C0.655553,53.0107 0,51.428 0,49.7778 L0,6.22222 C0,4.57199 0.655553,2.98934 1.82245,1.82245 C2.98934,0.655553 4.57199,0 6.22222,0 L49.7778,0 Z M48.2222,48.2222 L48.2222,31.7333 C48.2222,29.0434 47.1537,26.4637 45.2516,24.5617 C43.3496,22.6597 40.7699,21.5911 38.08,21.5911 C35.4356,21.5911 32.3556,23.2089 30.8622,25.6356 L30.8622,22.1822 L22.1822,22.1822 L22.1822,48.2222 L30.8622,48.2222 L30.8622,32.8844 C30.8622,30.4889 32.7911,28.5289 35.1867,28.5289 C36.3418,28.5289 37.4497,28.9878 38.2665,29.8046 C39.0833,30.6214 39.5422,31.7293 39.5422,32.8844 L39.5422,48.2222 L48.2222,48.2222 Z M12.0711,17.2978 C13.4573,17.2978 14.7867,16.7471 15.7669,15.7669 C16.7471,14.7867 17.2978,13.4573 17.2978,12.0711 C17.2978,9.17778 14.9644,6.81333 12.0711,6.81333 C10.6767,6.81333 9.33932,7.36728 8.3533,8.3533 C7.36728,9.33932 6.81333,10.6767 6.81333,12.0711 C6.81333,14.9644 9.17778,17.2978 12.0711,17.2978 Z M16.3956,48.2222 L16.3956,22.1822 L7.77778,22.1822 L7.77778,48.2222 L16.3956,48.2222 Z" id="Shape"></path>
        </g>
    </g>
</svg>