<svg fill="none" height="167" viewBox="0 0 500 167" width="500" xmlns="http://www.w3.org/2000/svg" xmlns:xlink="http://www.w3.org/1999/xlink"><clipPath id="a"><path d="m0 0h500v166.667h-500z"/></clipPath><g clip-path="url(#a)" fill="#000"><path d="m158.637 83.2086c-.006-.8157.151-1.6242.461-2.3788.309-.7546.766-1.4402 1.342-2.0171.577-.5767 1.263-1.0331 2.017-1.3427.755-.3096 1.563-.466 2.379-.4604-.072-3.2469-.533-6.4735-1.373-9.6106-1.547.2708-3.14.0062-4.517-.75-1.376-.7565-2.454-1.9594-3.055-3.4105-.263-1.5464.005-3.1364.76-4.5114.756-1.3748 1.954-2.4536 3.401-3.0606-1.373-3.4532-2.081-6.199-3.454-8.9448-1.404.7156-3.02.8991-4.549.5168-1.529-.3822-2.869-1.3047-3.772-2.597-.706-1.4065-.885-3.0196-.503-4.5465.381-1.5271 1.298-2.8662 2.584-3.7746-1.895-2.6596-3.966-5.1891-6.199-7.5719-1.144 1.0234-2.626 1.5892-4.161 1.5892s-3.016-.5658-4.16-1.5892c-1.015-1.1483-1.575-2.6279-1.575-4.1604s.56-3.0121 1.575-4.1604c-2.746-2.0802-4.826-4.1604-7.572-6.199-.376.7176-.899 1.3476-1.536 1.8486-.636.501-1.372.8615-2.158 1.058s-1.604.2244-2.402.082c-.797-.1424-1.556-.452-2.225-.9084-.718-.3758-1.348-.8992-1.849-1.5359-.501-.6366-.861-1.372-1.058-2.1579-.196-.7859-.224-1.6045-.082-2.402.143-.79747.453-1.55579.909-2.22508-2.858-1.44896-5.855-2.60587-8.945-3.45317-.199.7855-.558 1.52161-1.054 2.16261-.495.64098-1.118 1.17312-1.828 1.56333s-1.493.63015-2.3.7049-1.62-.01729-2.39-.2704c-.782-.20454-1.5147-.56639-2.1524-1.06344-.6377-.49706-1.1675-1.11889-1.5569-1.82752-.3893-.70864-.6302-1.4892-.7077-2.29404-.0775-.80481.0098-1.61701.2565-2.38698-3.0467-.68635-6.1552-1.062705-9.2777-1.12331 0 1.65512-.6575 3.24246-1.8279 4.41279-1.1702 1.17036-2.7575 1.82786-4.4127 1.82786s-3.2425-.6575-4.4127-1.82786c-1.1705-1.17033-1.828-2.75767-1.828-4.41279-3.247.0704633-6.4737.531425-9.6106 1.37294.4173 1.55508.2173 3.21125-.5581 4.62233-.7752 1.41111-2.0661 2.46796-3.6023 2.94965-.7244.24579-1.4938.3301-2.254.247-.7604-.08311-1.4933-.33159-2.1475-.72804-.6541-.39646-1.2137-.93125-1.6391-1.56688-.4257-.6356-.7069-1.35665-.8242-2.1125-3.4531 1.37294-6.199 2.08021-8.9448 3.45315.7069 1.40627.8856 3.01945.504 4.54645-.3819 1.5269-1.2988 2.8662-2.5842 3.7744-1.4046.7156-3.0204.8993-4.5498.5169-1.5292-.3823-2.8685-1.3047-3.771-2.5971-2.5638 1.9452-4.9959 4.0577-7.2809 6.3238 1.015 1.1483 1.5752 2.6279 1.5752 4.1604s-.5602 3.0123-1.5752 4.1604c-1.1441 1.0234-2.6254 1.5892-4.1604 1.5892s-3.0162-.5658-4.1604-1.5892c-2.0802 2.7461-4.1604 4.8263-6.199 7.5721.7177.3758 1.3477.8992 1.8486 1.5358.501.6367.8616 1.3721 1.058 2.158.1965.7858.2244 1.6045.082 2.4018-.1424.7975-.452 1.5559-.9084 2.2252-.3758.7177-.8992 1.3477-1.5358 1.8486-.6366.501-1.3721.8616-2.158 1.0581s-1.6045.2244-2.40195.0819c-.79748-.1423-1.5558-.4519-2.22509-.9084-1.35618 2.7596-2.44291 5.6438-3.24514 8.6121.78227.2046 1.51462.5665 2.15235 1.0634.63773.497 1.16744 1.1189 1.55681 1.8277.38936.7085.63019 1.4891.70777 2.2939.07759.8048-.00968 1.6171-.2565 2.3869-.15427.7369-.45835 1.434-.89337 2.0483-.43502.6144-.99169 1.1327-1.63544 1.5227-.64375.3903-1.36083.644-2.10671.7453-.74589.1014-1.50464.0483-2.22918-.1559-.81684 3.1304-1.304864 6.3375-1.45615 9.5692 1.65512 0 3.24246.6573 4.41279 1.8277 1.17036 1.1704 1.82786 2.7577 1.82786 4.4129 0 1.655-.6575 3.2423-1.82786 4.4127-1.17033 1.1704-2.75767 1.8279-4.41279 1.8279.078671 3.219.539548 6.4171 1.37294 9.5273 1.46164-.352 3.00318-.1123 4.28893.6669 1.28573.779 2.21153 2.035 2.57578 3.494.41722 1.555.21727 3.211-.55807 4.622-.77531 1.411-2.06604 2.468-3.60237 2.95h.08321c1.37295 3.453 2.08023 6.199 3.45316 8.944 1.4045-.715 3.02042-.899 4.54972-.516 1.5292.382 2.8686 1.304 3.7711 2.597.7069 1.406.8857 3.019.504 4.546-.3818 1.527-1.2987 2.866-2.5842 3.774 1.8948 2.66 3.9658 5.19 6.199 7.573 1.1443-1.024 2.6253-1.59 4.1605-1.59 1.535 0 3.0163.566 4.1605 1.59 1.0148 1.148 1.575 2.627 1.575 4.16 0 1.532-.5602 3.012-1.575 4.16 2.7458 2.081 4.826 4.161 7.5718 6.199.3759-.717.8992-1.347 1.5359-1.848.6366-.501 1.3721-.862 2.1579-1.058.786-.197 1.6046-.225 2.4021-.082.7975.142 1.5558.452 2.225.908 1.3214.878 2.2671 2.218 2.6518 3.758.3848 1.539.1811 3.166-.5716 4.563 2.8579 1.449 5.8548 2.606 8.945 3.453.1541-.737.4583-1.434.8933-2.048s.9917-1.133 1.6354-1.523c.6438-.39 1.3609-.644 2.1067-.745.746-.101 1.5048-.048 2.2292.156.7823.204 1.5148.566 2.1525 1.063s1.1673 1.119 1.5566 1.828c.3894.708.6302 1.489.7079 2.294.0775.805-.0097 1.617-.2566 2.387 3.1466.793 6.3679 1.253 9.6106 1.373 0-1.656.6575-3.243 1.8279-4.413s2.7577-1.828 4.4127-1.828c1.6552 0 3.2425.658 4.4129 1.828 1.1703 1.17 1.8278 2.757 1.8278 4.413 3.2429-.12 6.4641-.58 9.6106-1.373-.2631-1.547.0048-3.137.7602-4.511.7554-1.375 1.9542-2.454 3.4002-3.061 1.555-.417 3.211-.218 4.622.558 1.412.775 2.468 2.066 2.95 3.602 3.453-1.373 6.199-2.08 8.945-3.453-.407-.678-.677-1.428-.793-2.21-.117-.782-.079-1.579.112-2.346s.532-1.488 1.002-2.124c.47-.635 1.061-1.171 1.738-1.578.678-.407 1.429-.677 2.21-.794.782-.117 1.579-.078 2.346.113s1.489.531 2.124 1.002c.635.47 1.172 1.061 1.579 1.738 2.458-2.05 4.779-4.26 6.948-6.615-1.104-1.104-1.724-2.6-1.724-4.161 0-1.56.62-3.056 1.724-4.16 1.103-1.103 2.6-1.723 4.16-1.723 1.561 0 3.057.62 4.161 1.723 2.08-2.746 4.16-4.826 6.198-7.572-1.252-.875-2.127-2.193-2.446-3.688-.318-1.495-.058-3.055.729-4.365s2.042-2.272 3.512-2.693c1.469-.42 3.044-.267 4.405.428 1.448-2.858 2.604-5.855 3.453-8.945-1.55-.458-2.855-1.513-3.628-2.933-.772-1.42-.949-3.088-.491-4.639.458-1.55 1.513-2.855 2.933-3.6272 1.42-.7725 3.089-.9492 4.639-.4912.707-3.4532.707-6.1992 1.373-9.6107-1.626.0448-3.204-.5556-4.389-1.6704s-1.881-2.6531-1.935-4.2789zm-81.7108-16.6417h-13.0637v-15.8096c-.079-.5229-.3275-1.0052-.7073-1.3731 0-.7071-.7073-.7071-1.3729-1.3729-.2715-.2663-.5996-.468-.9596-.5905-.36-.1223-.7431-.1623-1.1206-.1168-.3775-.0455-.7604-.0055-1.1206.1168-.36.1225-.688.3242-.9596.5905l-1.3729 1.3729c-.079.5229-.3275 1.0052-.7073 1.3731v64.7777c-.0932.97.1573 1.942.7073 2.746.4297.481.9654.855 1.5647 1.093.5992.239 1.2459.334 1.8884.28 1.1952.103 2.3948-.143 3.4531-.707.4183-.328.7585-.744.996-1.219s.3663-.996.3769-1.527v-17.8902h-5.45v-11.6491h17.8481v28.8733c.1913 2.254-.0791 4.523-.7943 6.669-.7154 2.146-1.8607 4.124-3.3661 5.812-1.6885 1.506-3.666 2.651-5.8121 3.366-2.1458.716-4.4152.986-6.6691.795-2.3456.223-4.7119-.031-6.9569-.746s-4.3223-1.876-6.1069-3.415c-1.5362-1.786-2.6966-3.863-3.4114-6.108-.715-2.244-.9696-4.61-.749-6.955v-62.4067c-.1546-2.3942.1952-4.7938 1.0265-7.0442.8314-2.2504 2.1258-4.3011 3.7996-6.0196 1.6791-1.7285 3.7241-3.0592 5.9847-3.8944 2.2605-.8352 4.6794-1.1535 7.079-.9318 2.3998-.2217 4.8185.0966 7.0792.9318 2.2604.8352 4.3054 2.1659 5.9846 3.8944 3.1162 3.54 4.897 8.0581 5.0341 12.7725v14.3119zm30.9118 64.6531-2.787-23.049h-8.321l-2.746 23.382h-13.7294l13.1469-96.4807h15.8095l13.064 96.2727zm-6.864-35.0725c1.086 0 2.147-.3221 3.051-.9256.903-.6033 1.607-1.4611 2.022-2.4646.416-1.0035.525-2.1077.313-3.1729-.212-1.0654-.735-2.044-1.503-2.8119-.768-.7681-1.747-1.2912-2.812-1.5031s-2.1696-.1031-3.1731.3125c-1.0034.4158-1.8611 1.1196-2.4646 2.0227-.6033.9031-.9254 1.965-.9254 3.051-.0167.7282.1116 1.4523.3777 2.1304.266.678.6641 1.2963 1.1712 1.819.5073.5227 1.1134.9394 1.7832 1.2256.6697.2863 1.39.4363 2.118.4417z"/><path d="m207.397 9.60971c2.579.05877 5.135.52209 7.571 1.37299 2.077.7293 3.967 1.9085 5.533 3.4531 1.584 1.4136 2.565 3.3781 2.746 5.4918.61 2.2343.848 4.5532.708 6.8647l-12.481 2.0802c-.037-1.6996-.51-3.3612-1.373-4.826-.321-.6369-.816-1.17-1.427-1.538-.61-.3681-1.313-.556-2.026-.5422-.378-.0457-.761-.0057-1.121.1168-.36.1223-.688.3242-.959.5904l-1.373 1.373c-.079.5227-.328 1.005-.708 1.3729v35.0723c-.092.97.158 1.9416.708 2.7458.327.4183.743.7585 1.218.996s.997.3663 1.528.3771c1.373 0 2.08 0 2.746-.7073.418-.3273.758-.7433.995-1.2183.238-.4748.367-.9967.378-1.5277v-10.2763h-4.161v-10.9833h17.183v20.8021c.19 2.254-.079 4.5231-.795 6.6692-.715 2.146-1.861 4.1235-3.365 5.812-1.69 1.5055-3.667 2.6507-5.812 3.3661-2.146.7152-4.417.9856-6.67.7944-2.346.2231-4.712-.0305-6.957-.7455s-4.322-1.8766-6.107-3.415c-1.505-1.6885-2.65-3.666-3.366-5.812-.715-2.1461-.985-4.4152-.794-6.6692v-33.2002c-.191-2.254.079-4.5233.794-6.6693.716-2.146 1.861-4.1236 3.366-5.812 1.795-1.8783 3.982-3.337 6.406-4.272 2.424-.93494 5.024-1.32305 7.615-1.13659z"/><path d="m230.072 76.3451v-66.026h30.204v12.3981h-17.181v13.7294h15.102v12.3981h-15.102v15.1023h17.181v12.3981z"/><path d="m289.108 41.2726v-30.9535h13.065v66.026h-10.983l-7.573-19.2627-4.784-12.3981h-.708v31.6608h-13.064v-66.026h11.691l7.573 19.2629z"/><path d="m308.332 76.3451v-66.026h30.246v12.3981h-17.181v13.7294h15.102v12.3981h-15.102v15.1023h17.181v12.3981z"/><path d="m359.838 10.3157c2.544-.1409 5.096.0974 7.571.7072 2.207.8819 4.29 2.0424 6.2 3.4532 1.702 1.8367 3.104 3.9284 4.161 6.199.843 2.9094 1.304 5.9164 1.373 8.945.175 3.7735-.538 7.5356-2.082 10.9835-1.233 2.7084-3.137 5.0571-5.533 6.8231l9.61 28.8734h-13.062l-7.573-25.4619h-2.704v25.4619h-13.063v-65.9844zm-2.745 12.4813v15.8095h4.866c.709 0 1.373-.7072 2.081-1.3729.419-.3271.759-.7433.996-1.2181.238-.475.367-.9969.377-1.5277.571-1.3081.815-2.7367.707-4.1604.058-.9988-.107-1.9979-.479-2.9259-.375-.9279-.95-1.7614-1.684-2.4412-.604-.6767-1.35-1.2136-2.183-1.5727-.834-.3594-1.736-.5325-2.644-.5075z"/><path d="m405.849 63.2813h-10.275l-2.081 13.0638h-13.729l12.481-66.026h15.477l13.065 66.026h-13.732zm-6.865-22.716-1.372 10.3179h6.2l-1.373-10.3179-1.373-13.0635h-.709z"/><path d="m424.408 76.3451v-66.026h13.021v53.6279h17.183v12.3981z"/><path d="m211.515 142.327h-9.61l-2.205 13.105h-13.729l12.481-66.0258h15.809l13.065 66.0258h-13.729zm-6.198-22.674-1.457 10.317h6.199l-1.373-10.317-1.372-13.064h-.708z"/><path d="m263.69 136.169c.11 2.792-.127 5.588-.708 8.321-.35 2.273-1.298 4.412-2.746 6.199-1.369 1.909-3.283 3.359-5.492 4.16-2.679.915-5.489 1.379-8.321 1.373-2.581-.059-5.135-.522-7.573-1.373-2.06-.735-3.935-1.913-5.491-3.453-1.311-1.698-2.209-3.678-2.621-5.783-.608-2.234-.848-4.553-.706-6.865l13.062-2.745c.054 1.895.523 3.755 1.373 5.45.244.694.723 1.282 1.352 1.661.631.38 1.375.528 2.102.419.377.045.761.005 1.121-.117.361-.122.688-.324.958-.59l1.373-1.373c0-.708.709-1.373.709-2.746v-5.991c0-.707-.709-1.373-.709-2.081-.706-.707-1.373-1.372-2.079-1.372-.708-.708-2.081-.708-2.746-1.373-2.75-.929-5.314-2.338-7.573-4.161-1.935-1.244-3.581-2.89-4.825-4.826-1.258-1.302-1.995-3.018-2.081-4.826 0-2.08-.706-3.453-.706-6.199-.14-2.545.098-5.097.706-7.572.623-2.1837 1.548-4.2701 2.746-6.1991 1.702-1.5496 3.54-2.9421 5.492-4.1604 5.389-1.8704 11.252-1.8704 16.641 0 2.082 1.3731 4.161 2.0802 4.827 4.1604 1.305 1.6861 2.203 3.6511 2.621 5.7415.534 1.7796.771 3.6346.707 5.4916l-13.063 2.829v-2.746c.046-.377.006-.76-.117-1.12s-.325-.688-.591-.96c-.027-.354-.182-.687-.434-.939-.252-.251-.583-.405-.939-.434-.596-.458-1.327-.707-2.079-.707s-1.484.249-2.082.707l-1.373 1.373c0 .707-.706 1.373-.706 2.08v4.161c0 .707.706 1.373.706 2.08l2.082 2.08c1.225.977 2.643 1.686 4.16 2.08 2.602 1.24 5.129 2.63 7.571 4.161 1.721 1.008 3.154 2.44 4.16 4.16.807 1.786 1.502 3.62 2.082 5.492-.602 2.123-.869 4.327-.79 6.532z"/><path d="m302.174 136.171c.113 2.792-.125 5.588-.706 8.321-.35 2.273-1.298 4.412-2.746 6.199-1.371 1.909-3.285 3.359-5.492 4.16-2.679.915-5.491 1.379-8.32 1.373-2.582-.058-5.136-.522-7.573-1.373-2.061-.734-3.936-1.913-5.492-3.453-1.325-1.694-2.238-3.674-2.663-5.783-.608-2.234-.847-4.553-.708-6.864l13.065-2.746c.054 1.895.523 3.755 1.373 5.45.243.694.72 1.282 1.352 1.662.631.379 1.373.527 2.102.418.377.046.76.006 1.119-.117.36-.122.689-.324.96-.59l1.373-1.373c0-.707.708-1.373.708-2.746v-5.991c0-.707-.708-1.373-.708-2.08-.706-.708-1.373-1.373-2.079-1.373-.709-.707-2.082-.707-2.748-1.373-2.748-.929-5.313-2.338-7.571-4.16-1.935-1.245-3.581-2.891-4.827-4.827-1.256-1.302-1.996-3.018-2.079-4.826 0-2.08-.709-3.453-.709-6.199-.156-2.513.052-5.036.625-7.489.623-2.1833 1.548-4.2697 2.746-6.1985 1.702-1.5498 3.54-2.9423 5.492-4.1604 5.389-1.8706 11.252-1.8706 16.642 0 2.081 1.3729 4.16 2.0802 4.827 4.1604 1.323 1.6538 2.248 3.5896 2.704 5.6582.575 1.7303.871 3.5423.873 5.3673l-13.229 2.953v-2.745c.043-.378.004-.761-.119-1.121-.121-.36-.323-.688-.59-.96-.029-.354-.181-.687-.433-.939-.252-.251-.586-.405-.94-.433-.596-.459-1.327-.708-2.079-.708-.754 0-1.485.249-2.081.708l-1.373 1.372c0 .708-.706 1.373-.706 2.081v4.16c0 .707.706 1.373.706 2.08l2.081 2.08c1.225.978 2.642 1.686 4.161 2.081 2.6 1.24 5.129 2.629 7.57 4.16 1.721 1.008 3.153 2.441 4.161 4.161.806 1.785 1.502 3.62 2.081 5.491-.587 2.125-.842 4.329-.75 6.532z"/><path d="m307.666 155.391v-65.9848h30.204v12.3568h-17.183v13.771h15.144v12.356h-15.144v15.144h17.183v12.357z"/><path d="m361.207 142.369-2.746-8.28-2.746-9.61h-.664v30.912h-13.065v-65.9848h12.357l6.864 17.8898 4.827 13.064h.667l4.825-13.064 6.158-17.2239h12.356v66.0259h-13.022v-30.954h-.707l-3.412 10.318-2.746 7.572h-8.946z"/><path d="m421.661 121.024c1.24.535 2.4 1.235 3.454 2.081 1.079.869 1.815 2.092 2.079 3.453.767 1.265 1.236 2.687 1.373 4.16 0 1.373.709 2.746.709 4.161.477 5.682-1.284 11.326-4.911 15.726-1.814 1.733-3.977 3.059-6.346 3.891-2.366.832-4.883 1.151-7.383.935h-14.396v-66.0257h15.102c2.396-.2875 4.823-.0038 7.088.8277 2.262.8317 4.298 2.1875 5.935 3.9567 3.05 3.9943 4.529 8.9673 4.161 13.9793.108 1.424-.136 2.852-.707 4.16-.02 1.28-.51 2.509-1.373 3.453-.52 1.035-1.225 1.966-2.081 2.746-.539 1.226-1.521 2.206-2.746 2.746zm-5.617-12.855c.046-1.921-.429-3.819-1.373-5.492-1.418-.964-3.112-1.445-4.825-1.373h-1.372v13.064h1.372c4.132.555 6.198-1.512 6.198-6.199zm.709 26.127c.15-1.931-.332-3.859-1.373-5.492-.709-1.372-2.081-1.372-4.161-1.372h-2.081v15.809h2.081c1.373 0 2.08 0 2.746-.707l2.079-2.08c.55-.805.8-1.776.709-2.746z"/><path d="m436.053 155.391v-65.9848h13.064v53.6278h17.182v12.357z"/><path d="m480.697 113.454 2.079-10.984 2.746-13.0638h13.729l-13.062 39.1918v26.793h-13.023v-26.793l-13.062-39.1918h13.729l3.452 13.0638z"/></g></svg>