<?xml version="1.0" encoding="UTF-8"?>
<svg width="479px" height="120px" viewBox="0 0 479 120" version="1.1" xmlns="http://www.w3.org/2000/svg" xmlns:xlink="http://www.w3.org/1999/xlink">
    <!-- Generator: Sketch 52.6 (67491) - http://www.bohemiancoding.com/sketch -->
    <title>logo_harvard</title>
    <desc>Created with Sketch.</desc>
    <g id="Page-1" stroke="none" stroke-width="1" fill="none" fill-rule="evenodd">
        <g id="logo_harvard" transform="translate(1.000000, 1.000000)">
            <path d="M192.537,81.8796 C192.537,80.8779 191.877,80.1356 190.535,79.8468 L190.535,79.1987 C191.278,79.1987 193.76,79.2989 194.455,79.2989 C195.061,79.2989 197.46,79.1987 198.208,79.1987 L198.208,79.8468 C196.961,80.0884 196.302,80.819 196.302,81.8796 L196.302,94.594 C196.302,98.619 198.529,100.899 203.191,100.899 C207.206,100.899 210.336,99.108 210.336,94.895 L210.336,81.8325 C210.336,80.8897 209.736,80.1414 208.233,79.8527 L208.233,79.2046 C208.78,79.2046 210.835,79.3048 211.53,79.3048 C212.129,79.3048 214.279,79.2046 214.832,79.2046 L214.832,79.8527 C213.377,80.1945 212.735,80.8426 212.735,81.8325 L212.735,94.194 C212.735,99.744 209.481,102.932 202.461,102.932 C195.922,102.932 192.537,99.986 192.537,94.771 L192.537,81.8796 Z" id="Path" fill="#FFFFFF"></path>
            <path d="M220.575,101.935 C222.095,101.653 222.695,100.893 222.695,99.956 L222.695,82.3799 C222.695,80.8892 221.893,80.2175 220.533,79.8522 L220.533,79.2041 C221.305,79.263 222.6,79.2925 223.259,79.2925 C223.859,79.2925 224.791,79.2807 225.421,79.2041 L240.785,97.128 L240.785,81.8378 C240.785,80.8951 240.179,80.1468 238.683,79.8522 L238.683,79.2041 C239.235,79.2041 241.213,79.3043 241.914,79.3043 C242.525,79.3043 244.646,79.2041 245.204,79.2041 L245.204,79.8522 C243.737,80.194 243.03,80.848 243.03,81.8378 L243.03,102.937 L242.104,102.937 C241.522,102.802 240.423,102.183 238.742,100.356 L224.993,84.4715 L224.993,99.962 C224.993,100.904 225.54,101.653 227.042,101.941 L227.042,102.589 C226.49,102.589 224.512,102.483 223.812,102.483 C223.206,102.483 221.133,102.589 220.575,102.589 L220.575,101.935 Z" id="Path" fill="#FFFFFF"></path>
            <path d="M341.821,97.193 L342.468,97.193 C342.813,98.506 343.567,99.703 344.63,100.392 C345.735,101.164 347.469,101.535 348.865,101.535 C351.959,101.535 353.913,100.015 353.913,97.611 C353.913,95.124 351.401,93.8282 348.396,92.3376 C346.157,91.2299 341.762,89.3916 341.762,85.1788 C341.762,81.2547 344.779,78.8096 349.607,78.8096 C352.79,78.8096 354.287,79.5814 356.437,79.4813 L356.395,84.242 L355.742,84.242 C354.881,81.4374 352.315,80.4593 349.5,80.4593 C346.353,80.4593 345.177,82.2446 345.177,84.0593 C345.177,86.6577 347.742,87.9716 350.646,89.2561 C353.913,90.6996 357.459,92.5202 357.459,96.586 C357.459,100.433 354.43,103.214 348.889,103.214 C345.592,103.214 343.615,102.277 341.881,102.071 L341.821,97.193 Z" id="Path" fill="#FFFFFF"></path>
            <path d="M411.439,91.949 L411.439,99.903 C411.439,100.693 412.045,101.683 413.411,101.93 L413.411,102.578 C412.65,102.578 410.156,102.472 409.437,102.472 C408.832,102.472 406.444,102.578 405.577,102.578 L405.577,101.93 C406.949,101.683 407.608,100.687 407.608,99.903 L407.608,92.2966 L411.439,91.949 Z M407.858,92.9094 L401.604,82.9519 C400.535,81.202 399.721,80.2829 398.527,79.8468 L398.527,79.1987 C399.383,79.1987 401.699,79.2989 402.358,79.2989 C402.952,79.2989 405.452,79.1987 406.355,79.1987 L406.355,79.8468 C405.553,79.9883 405.179,80.383 405.179,80.984 C405.179,81.5143 405.541,82.1919 405.904,82.7811 C406.26,83.3644 410.518,90.3699 410.518,90.3699 L414.961,82.7869 C415.412,82.0269 415.727,81.2727 415.727,80.7778 C415.727,80.3241 415.406,79.9529 414.646,79.8527 L414.646,79.2046 C415.4,79.2046 416.98,79.3048 417.485,79.3048 C417.989,79.3048 419.807,79.2046 420.549,79.2046 L420.549,79.8056 C418.839,80.5009 417.776,81.9856 416.736,83.712 L411.047,93.1392 L407.858,92.9094 Z" id="Shape" fill="#FFFFFF" fill-rule="nonzero"></path>
            <path d="M291.605,79.1986 L306.275,79.1986 C306.726,79.1986 307.522,79.1456 307.979,78.9512 L308.633,78.9512 L308.532,83.6824 L307.884,83.6824 C307.326,82.1918 306.744,81.0016 303.905,81.0016 L297.539,81.0016 L297.539,89.2445 L302.45,89.2445 C303.169,89.2445 304.036,89.1856 304.41,89.0972 C305.515,88.8556 306.002,88.2487 306.221,87.3178 L306.875,87.3178 C306.827,88.0307 306.827,89.6569 306.827,90.1401 C306.827,90.6232 306.875,92.3378 306.875,93.1096 L306.221,93.1096 C305.907,92.1787 305.479,91.4717 304.41,91.2124 C304.036,91.1122 303.151,91.0357 302.45,91.0357 L297.539,91.0357 L297.539,100.704 L304.469,100.704 C307.492,100.704 308.371,99.455 309.126,97.682 L309.773,97.835 L309.126,102.69 C306.875,102.49 305.527,102.49 302.973,102.49 L295.65,102.49 C294.943,102.49 292.354,102.59 291.605,102.59 L291.605,101.942 C292.924,101.694 293.696,101.046 293.696,99.785 L293.696,81.909 C293.696,80.8013 293.096,80.106 291.611,79.8644 L291.611,79.1986 L291.605,79.1986 Z" id="Path" fill="#FFFFFF"></path>
            <path d="M254.136,82.0324 C254.136,80.8304 253.417,80.1705 252.004,79.87 L252.004,79.2278 C252.794,79.2278 255.336,79.328 256.078,79.328 C256.702,79.328 259.315,79.2278 260.111,79.2278 L260.111,79.87 C258.703,80.1705 257.967,80.7715 257.967,82.0324 L257.967,99.785 C257.967,100.987 258.691,101.635 260.111,101.936 L260.111,102.584 C259.315,102.584 256.809,102.483 256.078,102.483 C255.449,102.483 252.788,102.584 251.998,102.584 L251.998,101.936 C253.441,101.67 254.136,101.04 254.136,99.785 L254.136,82.0324 Z" id="Path" fill="#FFFFFF"></path>
            <path d="M365.423,82.0324 C365.423,80.8304 364.693,80.1705 363.285,79.87 L363.285,79.2278 C364.069,79.2278 366.623,79.328 367.359,79.328 C367.989,79.328 370.602,79.2278 371.398,79.2278 L371.398,79.87 C369.99,80.1705 369.26,80.7715 369.26,82.0324 L369.26,99.785 C369.26,100.987 369.984,101.635 371.398,101.936 L371.398,102.584 C370.608,102.584 368.102,102.483 367.359,102.483 C366.736,102.483 364.075,102.584 363.285,102.584 L363.285,101.936 C364.728,101.67 365.423,101.04 365.423,99.785 L365.423,82.0324 Z" id="Path" fill="#FFFFFF"></path>
            <path d="M385.817,79.299 C377.776,79.299 376.487,79.1517 374.842,79.0515 L374.854,83.8712 L375.507,83.8712 C376.107,81.7383 377.306,81.2374 378.857,81.2374 L383.899,81.2374 L383.899,99.785 C383.899,101.04 383.204,101.665 381.761,101.936 L381.761,102.584 C382.557,102.584 385.235,102.484 385.853,102.484 C386.589,102.484 389.107,102.584 389.891,102.584 L389.891,101.936 C388.472,101.641 387.747,100.987 387.747,99.785 L387.747,81.2374 L392.754,81.2374 C394.363,81.2374 395.516,81.7795 396.115,83.8712 L396.763,83.8712 L396.775,79.0515 C395.147,79.1517 393.859,79.299 385.817,79.299 Z" id="Path" fill="#FFFFFF"></path>
            <path d="M321.645,90.2518 C322.393,90.352 323.498,90.3991 324.59,90.3991 C329.003,90.3991 330.393,87.8833 330.393,85.6502 C330.393,82.498 328.273,80.5418 324.406,80.5418 C323.605,80.5418 322.446,80.642 321.645,80.7893 L321.645,90.2518 Z M321.645,99.785 C321.645,100.987 322.411,101.635 323.83,101.936 L323.83,102.584 C323.046,102.584 320.469,102.484 319.738,102.484 C319.109,102.484 316.597,102.584 315.807,102.584 L315.807,101.936 C317.125,101.688 317.897,101.04 317.897,99.785 L317.897,81.8499 C317.897,80.7481 317.291,80.0528 315.813,79.8053 L315.813,79.1631 C316.597,79.1631 319.085,79.2633 319.792,79.2633 C320.944,79.2633 324.216,79.0688 325.505,79.0688 C331.141,79.0688 334.283,81.3785 334.283,85.3438 C334.283,88.4607 331.949,90.57 328.35,91.4302 C328.35,91.4302 329.169,91.9016 329.989,92.8502 C330.981,94.011 333.665,97.835 334.782,99.172 C335.892,100.51 337.318,102.006 338.844,102.077 L338.844,102.601 C338.114,102.761 336.938,102.896 336.047,102.896 C334.134,102.896 332.602,102.224 331.117,100.445 C329.835,98.895 327.655,95.678 326.372,94.052 C325.553,93.0152 324.555,92.208 322.737,91.9134 C322.387,91.8545 322.054,91.8014 321.657,91.7602 L321.657,99.785 L321.645,99.785 Z" id="Shape" fill="#FFFFFF" fill-rule="nonzero"></path>
            <path d="M265.766,82.103 C265.249,80.9718 264.465,80.1469 263.117,79.8523 L263.117,79.1924 C263.955,79.1924 266.853,79.2984 267.488,79.2984 C268.076,79.2984 270.606,79.1924 271.467,79.1924 L271.467,79.8346 C270.701,79.9819 269.834,80.4002 269.834,81.1721 C269.834,81.7259 270.173,82.4801 270.82,83.9001 L276.896,97.611 L282.645,83.8765 C283.096,82.7688 283.429,81.9086 283.429,81.2546 C283.429,80.5299 282.758,80.029 281.801,79.8346 L281.801,79.1924 C282.567,79.1924 284.438,79.2984 285.02,79.2984 C285.555,79.2984 287.752,79.1924 288.59,79.1924 L288.59,79.8523 C287.152,80.2353 286.279,81.0189 285.478,82.8749 L277.02,102.66 L275.108,102.66 L265.766,82.103 Z" id="Path" fill="#FFFFFF"></path>
            <path d="M287.45,19.7014 C286.47,17.5626 284.974,16.0012 282.432,15.4415 L282.432,14.1982 C284.011,14.1982 289.262,14.3868 290.467,14.3868 C291.578,14.3868 296.662,14.1982 298.283,14.1982 L298.283,15.412 C296.846,15.6889 295.195,16.4843 295.195,17.9573 C295.195,18.9943 295.842,20.4261 297.053,23.1128 L308.575,49.0906 L319.473,23.0657 C320.323,20.9564 320.958,19.3478 320.958,18.1046 C320.958,16.72 319.669,15.7832 317.864,15.412 L317.864,14.1982 C319.307,14.1982 322.811,14.3868 323.927,14.3868 C324.943,14.3868 329.106,14.1982 330.686,14.1982 L330.686,15.3766 C327.972,16.1072 326.309,17.6568 324.795,21.1685 L308.771,58.6768 L305.142,58.6768 L287.45,19.7014 Z" id="Path" fill="#FFFFFF"></path>
            <path d="M132.346,57.2448 C134.436,56.7735 135.909,55.8249 135.909,53.474 L135.909,19.0883 C135.909,16.8317 134.543,15.8949 132.346,15.3293 L132.346,14.1096 C133.444,14.1096 138.178,14.2923 139.33,14.2923 C140.654,14.2923 145.619,14.1096 146.706,14.1096 L146.706,15.3293 C144.616,15.8006 143.066,16.7433 143.066,19.0883 L143.066,33.453 L168.888,33.453 L168.888,19.0883 C168.888,16.7374 167.511,15.8006 165.331,15.3293 L165.331,14.1096 C166.424,14.1096 171.294,14.2923 172.618,14.2923 C173.758,14.2923 178.605,14.1096 179.686,14.1096 L179.686,15.3293 C177.595,15.8006 176.045,16.7433 176.045,19.0883 L176.045,53.474 C176.045,55.7306 177.5,56.6792 179.686,57.2448 L179.686,58.3702 C178.605,58.3702 173.764,58.2759 172.618,58.2759 C171.294,58.2759 166.424,58.3702 165.331,58.3702 L165.331,57.2448 C167.41,56.7735 168.888,55.8249 168.888,53.474 L168.888,37.2239 L143.066,37.2239 L143.066,53.474 C143.066,55.8249 144.521,56.6792 146.706,57.2448 L146.706,58.3702 C145.613,58.3702 140.654,58.2759 139.33,58.2759 C138.178,58.2759 133.444,58.3702 132.346,58.3702 L132.346,57.2448 Z" id="Path" fill="#FFFFFF"></path>
            <path d="M442.339,54.9766 C443.955,55.2653 446.948,55.4479 449.306,55.4479 C462.651,55.4479 469.593,47.482 469.593,36.3697 C469.593,24.8508 462.265,16.7435 449.787,16.7435 C447.239,16.7435 444.05,16.932 442.339,17.2089 L442.339,54.9766 Z M431.031,57.245 C433.71,56.7736 435.189,55.7131 435.189,53.2856 L435.189,19.0885 C435.189,16.7317 433.734,15.8008 431.144,15.3294 L431.144,14.1098 C432.635,14.1098 437.493,14.2924 438.835,14.2924 C441.009,14.2924 447.061,13.821 451.776,13.821 C467.663,13.821 477.302,22.6237 477.302,36.0044 C477.302,49.0139 467.265,58.6473 450.891,58.6473 C446.17,58.6473 440.569,58.2761 438.378,58.2761 C437.048,58.2761 432.516,58.4646 431.031,58.4646 L431.031,57.245 Z" id="Shape" fill="#FFFFFF" fill-rule="nonzero"></path>
            <path d="M251.226,35.1261 C252.64,35.3088 254.73,35.403 256.803,35.403 C265.159,35.403 267.784,30.6305 267.784,26.4178 C267.784,20.4315 263.77,16.7431 256.447,16.7431 C254.938,16.7431 252.741,16.9317 251.226,17.2086 L251.226,35.1261 Z M251.226,53.1615 C251.226,55.4417 252.681,56.679 255.36,57.2446 L255.36,58.4643 C253.869,58.4643 249.011,58.2757 247.609,58.2757 C246.428,58.2757 241.665,58.4643 240.174,58.4643 L240.174,57.2446 C242.662,56.7733 244.123,55.5419 244.123,53.1615 L244.123,19.206 C244.123,17.1143 242.983,15.7945 240.18,15.3232 L240.18,14.1035 C241.67,14.1035 246.38,14.2862 247.705,14.2862 C249.89,14.2862 256.084,13.9268 258.525,13.9268 C269.21,13.9268 275.155,18.3104 275.155,25.805 C275.155,31.7147 270.718,35.6918 263.906,37.3356 C263.906,37.3356 265.45,38.2253 267.006,40.0283 C268.889,42.226 274.092,49.6145 276.2,52.1422 C278.302,54.6757 280.999,57.5039 283.885,57.6335 L283.885,58.6293 C282.501,58.9239 280.292,59.1772 278.599,59.1772 C274.959,59.1772 272.066,57.9104 269.251,54.5284 C266.828,51.5942 262.582,45.3546 260.153,42.279 C258.603,40.317 256.726,38.7909 253.293,38.2253 C252.616,38.1134 251.981,38.025 251.232,37.9366 L251.232,53.1615 L251.226,53.1615 Z" id="Shape" fill="#FFFFFF" fill-rule="nonzero"></path>
            <path d="M392.023,35.1261 C393.454,35.3088 395.533,35.403 397.606,35.403 C405.962,35.403 408.581,30.6305 408.581,26.4178 C408.581,20.4315 404.56,16.7431 397.255,16.7431 C395.735,16.7431 393.549,16.9317 392.023,17.2086 L392.023,35.1261 Z M392.023,53.1615 C392.023,55.4417 393.484,56.679 396.163,57.2446 L396.163,58.4643 C394.672,58.4643 389.82,58.2757 388.424,58.2757 C387.224,58.2757 382.473,58.4643 380.977,58.4643 L380.977,57.2446 C383.459,56.7733 384.926,55.5419 384.926,53.1615 L384.926,19.206 C384.926,17.1143 383.78,15.7945 380.983,15.3232 L380.983,14.1035 C382.479,14.1035 387.171,14.2862 388.507,14.2862 C390.699,14.2862 396.887,13.9268 399.316,13.9268 C410.018,13.9268 415.946,18.3104 415.946,25.805 C415.946,31.7147 411.521,35.6918 404.703,37.3356 C404.703,37.3356 406.253,38.2253 407.797,40.0283 C409.704,42.226 414.9,49.6145 416.997,52.1422 C419.105,54.6757 421.807,57.5039 424.676,57.6335 L424.676,58.6293 C423.31,58.9239 421.089,59.1772 419.414,59.1772 C415.761,59.1772 412.857,57.9104 410.054,54.5284 C407.631,51.5942 403.396,45.3546 400.949,42.279 C399.399,40.317 397.529,38.7909 394.102,38.2253 C393.413,38.1134 392.783,38.025 392.029,37.9366 L392.029,53.1615 L392.023,53.1615 Z" id="Shape" fill="#FFFFFF" fill-rule="nonzero"></path>
            <path d="M214.952,40.6648 L207.843,24.2262 L201.221,40.6648 L214.952,40.6648 Z M186.48,57.2331 C189.307,56.5791 190.858,54.7644 191.891,52.331 L206.192,18.1928 C206.798,16.7787 207.511,13.8799 207.511,13.8799 L211.513,13.8799 C211.513,13.8799 212.232,16.7905 212.826,18.2046 L227.935,52.4252 C229.01,54.782 230.18,56.4848 233.185,57.2331 L233.179,58.3703 C231.54,58.3703 226.456,58.276 225.298,58.276 C224.146,58.276 219.288,58.3703 217.654,58.3703 L217.66,57.2331 C219.858,56.6969 220.553,55.5892 220.553,54.511 C220.553,53.5978 220.173,52.5667 219.709,51.5002 L216.461,44.147 L199.808,44.147 L196.832,51.5415 C196.5,52.3781 196.102,53.5624 196.102,54.3637 C196.102,55.5951 196.749,56.5791 199.249,57.2331 L199.243,58.3703 C197.765,58.3703 193.863,58.276 192.948,58.276 L186.48,58.3703 L186.48,57.2331 Z" id="Shape" fill="#FFFFFF" fill-rule="nonzero"></path>
            <path d="M356.634,40.6648 L349.519,24.2262 L342.903,40.6648 L356.634,40.6648 Z M328.162,57.2331 C330.989,56.5791 332.545,54.7644 333.567,52.331 L347.874,18.1928 C348.479,16.7787 349.198,13.8799 349.198,13.8799 L353.201,13.8799 C353.201,13.8799 353.908,16.7905 354.502,18.2046 L369.622,52.4252 C370.691,54.782 371.867,56.4848 374.861,57.2331 L374.855,58.3703 C373.221,58.3703 368.132,58.276 366.968,58.276 C365.827,58.276 360.969,58.3703 359.336,58.3703 L359.336,57.2331 C361.551,56.6969 362.234,55.5892 362.234,54.511 C362.234,53.5978 361.86,52.5667 361.403,51.5002 L358.142,44.147 L341.489,44.147 L338.508,51.5415 C338.175,52.3781 337.783,53.5624 337.783,54.3637 C337.783,55.5951 338.431,56.5791 340.931,57.2331 L340.931,58.3703 C339.446,58.3703 335.55,58.276 334.63,58.276 L328.162,58.3703 L328.162,57.2331 Z" id="Shape" fill="#FFFFFF" fill-rule="nonzero"></path>
            <path d="M0,0 L99.7105,0 L99.7105,37.36697 C99.7105,54.48907 93.2845,90.79547 50.2262,117.82207 C50.2262,117.82207 3.5693,98.49007 0,37.36697 L0,0 Z" id="Path" fill="#FFFFFF"></path>
            <path d="M0,0 L99.8116,0 L99.8116,37.39641 C99.8116,54.52441 93.3796,90.85441 50.2797,117.89241 C50.2797,117.89241 3.5753,98.54941 0,37.39641 L0,0 Z" id="Path" stroke="#FFFFFF" stroke-width="0.23"></path>
            <path d="M75.8209711,47.9116 C75.8209711,47.9116 74.9301711,50.7221 70.9806711,47.835 L57.4041711,47.511 C57.4041711,47.511 55.6283711,48.0766 55.3848711,46.2324 C55.3848711,46.2324 55.7114711,42.544 55.5451711,42.2259 C55.5451711,42.2259 55.6283711,41.183 53.8406711,41.183 C53.8406711,41.183 51.0968711,41.5012 51.0196711,39.0913 C51.0196711,39.0913 50.5386711,36.5283 54.3336711,36.6108 C54.3336711,36.6108 55.5451711,37.1706 55.6283711,35.6445 C55.6283711,35.6445 55.4679711,25.2216 55.5451711,24.4262 C55.5451711,24.4262 55.8718711,23.4717 54.0069711,23.3067 C54.0069711,23.3067 51.3403711,23.8664 51.0196711,22.1047 C51.0196711,22.1047 50.8593711,19.4592 52.6410711,19.2943 C52.6410711,19.2943 54.8206711,19.4592 55.2244711,18.8936 C55.2244711,18.8936 55.7114711,19.2118 55.6283711,17.2969 L55.7114711,14.0033 C55.7114711,14.0033 55.9431711,13.1254 57.3209711,13.2078 C57.3209711,13.2078 59.8272711,13.3669 60.1538711,13.1195 C60.1538711,13.1195 60.7121711,12.4006 60.8784711,12.0766 C60.8784711,12.0766 62.1731711,12 62.4106711,12.3182 C62.4106711,12.3182 64.3527711,13.6026 71.7052711,13.1195 C71.7052711,13.1195 72.8396711,13.1195 73.0712711,13.4435 C73.0712711,13.4435 74.4490711,14.4864 75.2567711,13.3669 C75.2567711,13.3669 76.4683711,13.1195 80.1030711,13.2078 C80.1030711,13.2078 84.0702711,14.2448 86.8081711,12 L87.6990711,12.1591 C87.6990711,12.1591 88.8270711,13.9974 89.6350711,13.4435 C89.6350711,13.4435 92.0580711,13.2078 92.4620711,13.6851 C92.4620711,13.6851 93.2700711,14.8812 92.8660711,18.0157 C92.8660711,18.0157 92.3850711,19.3709 94.7250711,19.3709 C94.7250711,19.3709 97.3910711,18.8877 97.0650711,21.3741 C97.0650711,21.3741 97.7890711,24.1787 93.3530711,23.784 C93.3530711,23.784 92.7830711,24.5853 92.8600711,25.145 C92.8600711,25.145 92.7830711,34.2776 92.7000711,35.3264 C92.7000711,35.3264 92.6220711,36.7699 94.5590711,36.6874 C94.5590711,36.6874 97.1480711,36.5224 97.2310711,38.8498 C97.2310711,38.8498 97.5520711,41.8959 93.8280711,41.3303 C93.8280711,41.3303 92.7000711,41.4953 92.5270711,42.2141 L92.3730711,46.2206 C92.3730711,46.2206 92.4500711,48.2239 90.1930711,47.7408 C89.8730711,47.7408 77.5908711,47.9882 76.5396711,47.6701 C76.5514711,47.676 75.9813711,47.5994 75.8209711,47.9116 Z" id="Path" fill="#FFFFFF"></path>
            <path d="M49.9536664,61.339593 C49.9536664,61.339593 50.5178664,61.103893 50.6781664,60.709193 C50.6781664,60.709193 52.3767664,60.544193 52.6142664,60.308493 L57.9475664,60.709193 C57.9475664,60.709193 63.1976664,61.103893 65.4603664,59.495393 C65.4603664,59.495393 66.2740664,59.495393 66.8382664,59.742893 C66.8382664,59.742893 67.9607664,59.990293 68.2873664,60.461693 L71.3578664,60.379193 C71.3578664,60.379193 73.1335664,60.944793 72.9732664,62.070193 L72.9732664,63.507893 C72.9732664,63.507893 72.6465664,66.394893 73.4543664,66.559893 L75.8061664,66.559893 C75.8061664,66.559893 77.7482664,67.437793 77.5047664,68.563193 C77.5047664,68.563193 77.5878664,70.159893 75.8952664,70.483993 C75.8952664,70.483993 74.1907664,70.961193 73.6324664,70.884593 C73.6324664,70.884593 73.0623664,71.603493 72.9791664,72.481393 L72.7416664,82.980893 C72.7416664,82.980893 72.5753664,84.100393 74.2738664,83.941293 C74.2738664,83.941293 76.7742664,83.699693 77.5047664,85.066693 C77.5047664,85.066693 78.1520664,87.388093 76.8573664,87.788793 L75.8892664,88.265993 L73.7868664,88.601893 C73.7868664,88.601893 72.9019664,88.672593 72.8188664,90.198593 L72.8188664,92.997293 C72.8188664,92.997293 72.9019664,94.929593 71.3637664,94.929593 L69.1009664,95.088593 C69.1009664,95.088593 68.5367664,95.560593 67.4083664,95.242593 C67.4083664,95.242593 53.6714664,95.489593 53.1844664,95.324593 L51.5690664,95.648593 C51.5690664,95.648593 49.7932664,97.251593 48.3381664,96.043593 L47.2097664,95.159593 C47.2097664,95.159593 46.4020664,95.318593 46.0813664,95.236593 C45.7547664,95.159593 30.8893664,95.401593 30.8893664,95.401593 C30.8893664,95.401593 27.7357664,95.725593 27.4981664,94.676593 C27.4981664,94.676593 27.0943664,90.593293 27.2546664,90.104293 C27.2546664,90.104293 27.2546664,88.908193 26.5301664,88.831593 C26.5301664,88.831593 23.3765664,88.672593 23.2992664,88.342593 C23.2992664,88.342593 21.6007664,87.146493 22.0877664,85.944593 C22.0877664,85.944593 22.6578664,84.336093 24.3504664,84.176993 C24.3504664,84.176993 26.9339664,84.583493 26.9339664,83.858793 C26.9339664,83.858793 27.1002664,83.375693 27.1002664,82.580193 C27.1002664,82.580193 27.2606664,73.035193 27.1774664,72.398893 C27.1774664,72.398893 27.4209664,71.196893 26.3697664,71.196893 C26.3697664,71.196893 25.2413664,71.515093 24.5167664,71.037793 C24.5167664,71.037793 22.5747664,71.120293 22.1708664,69.594293 C22.1708664,69.594293 21.8442664,68.633893 22.3252664,67.826693 C22.3252664,67.826693 23.2161664,66.064993 25.7996664,66.630593 C25.7996664,66.630593 27.2546664,67.031293 27.4150664,65.994293 L27.3378664,62.140893 C27.3378664,62.140893 27.0111664,61.103893 29.0304664,60.544193 C29.0304664,60.544193 31.6139664,61.262993 32.4216664,59.984393 C32.4216664,59.984393 33.3124664,58.216793 34.0310664,59.418793 C34.0310664,59.418793 35.5752664,60.862393 39.7741664,60.709193 C39.7741664,60.709193 47.0494664,60.143493 47.2097664,60.455793 C47.2097664,60.455793 48.9855664,60.709193 49.4725664,61.262993 L49.9536664,61.339593 Z" id="Path" fill="#FFFFFF"></path>
            <path d="M27.8216138,47.9057 C27.8216138,47.9057 26.9308138,50.7162 22.9695138,47.8232 L9.39881385,47.4992 C9.39881385,47.4992 7.62311385,48.0648 7.37961385,46.2206 C7.37961385,46.2206 7.70621385,42.5381 7.53401385,42.2141 C7.53401385,42.2141 7.62301385,41.1712 5.84131385,41.1712 C5.84131385,41.1712 3.09751385,41.5011 3.02031385,39.0913 C3.02031385,39.0913 2.53331385,36.5165 6.32831385,36.6049 C6.32831385,36.6049 7.53401385,37.1646 7.62311385,35.6386 C7.62311385,35.6386 7.46271385,25.2216 7.53401385,24.4144 C7.53401385,24.4144 7.86651385,23.4599 6.00761385,23.3008 C6.00761385,23.3008 3.34101385,23.8605 3.02031385,22.0929 C3.02031385,22.0929 2.85401385,19.4533 4.62981385,19.2883 C4.62981385,19.2883 6.80941385,19.4533 7.21921385,18.8995 C7.21921385,18.8995 7.70621385,19.2117 7.62311385,17.2851 L7.70621385,14.0032 C7.70621385,14.0032 7.94971385,13.1194 9.31571385,13.2019 C9.31571385,13.2019 11.8279138,13.361 12.1545138,13.1194 C12.1545138,13.1194 12.7187138,12.4006 12.8731138,12.0765 C12.8731138,12.0765 14.1738138,12 14.4173138,12.3122 C14.4173138,12.3122 16.3534138,13.6026 23.7118138,13.1194 C23.7118138,13.1194 24.8343138,13.1194 25.0778138,13.4435 C25.0778138,13.4435 26.4497138,14.4864 27.2574138,13.361 C27.2574138,13.361 28.4690138,13.1194 32.1096138,13.2019 C32.1096138,13.2019 36.0591138,14.2448 38.8148138,12 L39.6997138,12.1649 C39.6997138,12.1649 40.8281138,14.0032 41.6477138,13.4435 C41.6477138,13.4435 44.0708138,13.2019 44.4747138,13.6851 C44.4747138,13.6851 45.2824138,14.887 44.8726138,18.0157 C44.8726138,18.0157 44.3915138,19.3767 46.7315138,19.3767 C46.7315138,19.3767 49.3981138,18.8995 49.0774138,21.3741 C49.0774138,21.3741 49.8079138,24.1787 45.3596138,23.7839 C45.3596138,23.7839 44.7894138,24.5852 44.8666138,25.145 C44.8666138,25.145 44.7894138,34.2776 44.7063138,35.3263 C44.7063138,35.3263 44.6291138,36.7581 46.5652138,36.6874 C46.5652138,36.6874 49.1487138,36.5165 49.2318138,38.8497 C49.2318138,38.8497 49.5525138,41.8959 45.8406138,41.3303 C45.8406138,41.3303 44.7063138,41.4952 44.5400138,42.2141 L44.3796138,46.2206 C44.3796138,46.2206 44.4628138,48.2239 42.1941138,47.7466 C41.8734138,47.7466 29.5974138,47.9823 28.5462138,47.67 C28.5462138,47.67 27.9820138,47.5934 27.8216138,47.9057 Z" id="Path" fill="#FFFFFF"></path>
            <path d="M75.8209711,47.9116 C75.8209711,47.9116 74.9301711,50.7221 70.9806711,47.835 L57.4041711,47.511 C57.4041711,47.511 55.6283711,48.0766 55.3848711,46.2324 C55.3848711,46.2324 55.7114711,42.544 55.5451711,42.2259 C55.5451711,42.2259 55.6283711,41.183 53.8406711,41.183 C53.8406711,41.183 51.0968711,41.5012 51.0196711,39.0913 C51.0196711,39.0913 50.5386711,36.5283 54.3336711,36.6108 C54.3336711,36.6108 55.5451711,37.1706 55.6283711,35.6445 C55.6283711,35.6445 55.4679711,25.2216 55.5451711,24.4262 C55.5451711,24.4262 55.8718711,23.4717 54.0069711,23.3067 C54.0069711,23.3067 51.3403711,23.8664 51.0196711,22.1047 C51.0196711,22.1047 50.8593711,19.4592 52.6410711,19.2943 C52.6410711,19.2943 54.8206711,19.4592 55.2244711,18.8936 C55.2244711,18.8936 55.7114711,19.2118 55.6283711,17.2969 L55.7114711,14.0033 C55.7114711,14.0033 55.9431711,13.1254 57.3209711,13.2078 C57.3209711,13.2078 59.8272711,13.3669 60.1538711,13.1195 C60.1538711,13.1195 60.7121711,12.4006 60.8784711,12.0766 C60.8784711,12.0766 62.1731711,12 62.4106711,12.3182 C62.4106711,12.3182 64.3527711,13.6026 71.7052711,13.1195 C71.7052711,13.1195 72.8396711,13.1195 73.0712711,13.4435 C73.0712711,13.4435 74.4490711,14.4864 75.2567711,13.3669 C75.2567711,13.3669 76.4683711,13.1195 80.1030711,13.2078 C80.1030711,13.2078 84.0702711,14.2448 86.8081711,12 L87.6990711,12.1591 C87.6990711,12.1591 88.8270711,13.9974 89.6350711,13.4435 C89.6350711,13.4435 92.0580711,13.2078 92.4620711,13.6851 C92.4620711,13.6851 93.2700711,14.8812 92.8660711,18.0157 C92.8660711,18.0157 92.3850711,19.3709 94.7250711,19.3709 C94.7250711,19.3709 97.3910711,18.8877 97.0650711,21.3741 C97.0650711,21.3741 97.7890711,24.1787 93.3530711,23.784 C93.3530711,23.784 92.7830711,24.5853 92.8600711,25.145 C92.8600711,25.145 92.7830711,34.2776 92.7000711,35.3264 C92.7000711,35.3264 92.6220711,36.7699 94.5590711,36.6874 C94.5590711,36.6874 97.1480711,36.5224 97.2310711,38.8498 C97.2310711,38.8498 97.5520711,41.8959 93.8280711,41.3303 C93.8280711,41.3303 92.7000711,41.4953 92.5270711,42.2141 L92.3730711,46.2206 C92.3730711,46.2206 92.4500711,48.2239 90.1930711,47.7408 C89.8730711,47.7408 77.5908711,47.9882 76.5396711,47.6701 C76.5514711,47.676 75.9813711,47.5994 75.8209711,47.9116 Z" id="Path" fill="#000000"></path>
            <path d="M75.8209711,47.9235 C75.8209711,47.9235 74.9301711,50.734 70.9807711,47.8469 L57.4041711,47.5228 C57.4041711,47.5228 55.6283711,48.0885 55.3848711,46.2443 C55.3848711,46.2443 55.7114711,42.5559 55.5451711,42.2377 C55.5451711,42.2377 55.6283711,41.1948 53.8466711,41.1948 C53.8466711,41.1948 51.1028711,41.5189 51.0196711,39.1091 C51.0196711,39.1091 50.5386711,36.5461 54.3336711,36.6285 C54.3336711,36.6285 55.5451711,37.1883 55.6283711,35.6623 C55.6283711,35.6623 55.4679711,25.2393 55.5451711,24.438 C55.5451711,24.438 55.8718711,23.4776 54.0129711,23.3185 C54.0129711,23.3185 51.3463711,23.8783 51.0196711,22.1166 C51.0196711,22.1166 50.8652711,19.4711 52.6410711,19.3061 C52.6410711,19.3061 54.8206711,19.4652 55.2244711,18.9054 C55.2244711,18.9054 55.7174711,19.2236 55.6283711,17.3028 L55.7174711,14.0092 C55.7174711,14.0092 55.9490711,13.1313 57.3328711,13.2138 C57.3328711,13.2138 59.8391711,13.3729 60.1598711,13.1254 C60.1598711,13.1254 60.7180711,12.4125 60.8843711,12.0825 C60.8843711,12.0825 62.1790711,12 62.4166711,12.3241 C62.4166711,12.3241 64.3527711,13.6085 71.7111711,13.1195 C71.7111711,13.1195 72.8455711,13.1195 73.0771711,13.4436 C73.0771711,13.4436 74.4550711,14.4865 75.2627711,13.367 C75.2627711,13.367 76.4742711,13.1195 80.1089711,13.2079 C80.1089711,13.2079 84.0762711,14.2449 86.8141711,12 L87.7049711,12.1591 C87.7049711,12.1591 88.8330711,14.0033 89.6410711,13.4436 C89.6410711,13.4436 92.0640711,13.2079 92.4680711,13.6851 C92.4680711,13.6851 93.2760711,14.8871 92.8720711,18.0158 C92.8720711,18.0158 92.3910711,19.3768 94.7310711,19.3768 C94.7310711,19.3768 97.3970711,18.8937 97.0710711,21.3742 C97.0710711,21.3742 97.7950711,24.1847 93.3590711,23.784 C93.3590711,23.784 92.7950711,24.5853 92.8720711,25.1509 C92.8720711,25.1509 92.7950711,34.2835 92.7120711,35.3323 C92.7120711,35.3323 92.6280711,36.7758 94.5700711,36.6992 C94.5700711,36.6992 97.1600711,36.5343 97.2430711,38.8557 C97.2430711,38.8557 97.5580711,41.9019 93.8400711,41.3362 C93.8400711,41.3362 92.7120711,41.5012 92.5390711,42.22 L92.3850711,46.2266 C92.3850711,46.2266 92.4620711,48.2299 90.2050711,47.7467 C89.8850711,47.7467 77.6027711,47.9942 76.5455711,47.6701 C76.5514711,47.6819 75.9813711,47.6053 75.8209711,47.9235 Z" id="Path" stroke="#000000" stroke-width="0.01"></path>
            <path d="M60.853,15.0061603 C60.853,15.0061603 61.0134,16.6087603 61.0134,17.0153603 C61.0134,17.4159603 60.7758,40.1767603 60.7758,40.1767603 C60.7758,40.1767603 61.0134,41.9384603 59.487,42.8222603 C59.487,42.8222603 59.0772,42.9812603 59,41.8559603 L59.1604,17.8166603 C59.1544,17.8225603 59.3148,14.8470603 60.853,15.0061603 Z" id="Path" fill="#FFFFFF"></path>
            <path d="M60.8708,15.0061602 C60.8708,15.0061602 61.0252,16.6087602 61.0252,17.0153602 C61.0252,17.4159602 60.7877,40.1826602 60.7877,40.1826602 C60.7877,40.1826602 61.0252,41.9443602 59.493,42.8281602 C59.493,42.8281602 59.0832,42.9871602 59,41.8677602 L59.1604,17.8225602 C59.1723,17.8225602 59.3326,14.8470602 60.8708,15.0061602 Z" id="Path" stroke="#000000" stroke-width="0.012"></path>
            <path d="M57.8778684,43.7274111 C57.8778684,43.7274111 58.0381684,21.1258111 57.9609684,20.7251111 C57.8778684,20.3304111 58.0381684,21.0551111 58.0381684,21.0551111 C58.0381684,21.0551111 57.7946684,17.1192111 58.8458684,15.5166111 C58.8458684,15.5166111 58.5192684,14.1615111 56.6603684,15.8407111 L56.5771684,19.1225111 C56.5771684,19.1225111 56.5771684,20.9667111 54.8845684,20.8901111 C54.8845684,20.8901111 52.9424684,20.8076111 52.0575684,21.6914111 C52.0575684,21.6914111 51.5705684,23.4590111 53.4294684,23.1408111 C53.4294684,23.1408111 56.3396684,23.1408111 56.4999684,24.3369111 L56.3396684,36.4450111 C56.3396684,36.4450111 56.9869684,38.4600111 54.7241684,38.4600111 C54.7241684,38.4600111 51.9684684,38.2891111 52.0575684,39.9743111 C52.0575684,39.9743111 52.6277684,41.4178111 54.9676684,40.9405111 C54.9676684,40.9405111 56.6603684,41.2528111 56.5831684,42.8672111 L56.5831684,45.9134111 C56.5831684,45.9134111 56.4227684,47.1212111 58.0381684,47.1978111 L70.6407684,47.1978111 C70.6407684,47.1978111 71.2821684,47.2744111 71.2821684,46.4731111 C71.2821684,46.4731111 71.2049684,45.8309111 70.2368684,45.8309111 L59.7367684,45.6718111 C59.7367684,45.6541111 58.0381684,46.2139111 57.8778684,43.7274111 Z" id="Path" fill="#FFFFFF"></path>
            <path d="M60.0400766,43.0658402 C60.0400766,43.0658402 59.7134766,44.1852402 60.9249766,43.9555402 L69.2455766,43.9555402 L71.5023766,44.4445402 C71.5023766,44.4445402 73.8423766,43.8789402 71.5023766,42.6003402 C71.5023766,42.6003402 64.0726766,42.6710402 63.4253766,42.5178402 C63.4253766,42.5178402 61.8871766,42.1172402 61.5604766,42.0406402 C61.5663766,42.0288402 60.7646766,41.7106402 60.0400766,43.0658402 Z" id="Path" fill="#FFFFFF"></path>
            <path d="M60.0400766,43.0707293 C60.0400766,43.0707293 59.7134766,44.1960293 60.9249766,43.9604293 L69.2514766,43.9604293 L71.5082766,44.4494293 C71.5082766,44.4494293 73.8541766,43.8779293 71.5082766,42.5993293 C71.5082766,42.5993293 64.0785766,42.6700293 63.4312766,42.5168293 C63.4312766,42.5168293 61.8930766,42.1162293 61.5663766,42.0337293 C61.5663766,42.0337293 60.7646766,41.7096293 60.0400766,43.0707293 Z" id="Path" stroke="#000000" stroke-width="0.012"></path>
            <path d="M74.4579221,44.0342564 C74.4579221,44.0342564 72.9256221,44.0342564 73.0028221,46.0433564 C73.0028221,46.0433564 73.1631221,47.5576564 74.7786221,47.5576564 C74.7786221,47.5576564 76.2277221,47.3219564 76.0733221,45.7193564 C76.0733221,45.7193564 75.1824221,43.7160564 74.4579221,44.0342564 Z" id="Path" fill="#FFFFFF"></path>
            <path d="M75.0174638,43.1502333 C75.0174638,43.1502333 75.7420638,42.3489333 76.2290638,42.3489333 C76.2290638,42.3489333 84.3060638,43.0677333 85.6720638,42.1073333 C85.6720638,42.1073333 86.8895638,41.8658333 87.2162638,42.1073333 C87.2162638,42.1073333 88.4279638,43.0677333 88.4279638,43.6275333 C88.4279638,43.6275333 88.3509638,44.3522333 86.8954638,43.9397333 C86.8954638,43.9397333 77.7672638,44.0281333 77.2802638,44.0281333 C77.2742638,44.0340333 74.7679638,44.5937333 75.0174638,43.1502333 Z" id="Path" fill="#FFFFFF"></path>
            <path d="M75.0174125,43.1502333 C75.0174125,43.1502333 75.7420125,42.3489333 76.2290125,42.3489333 C76.2290125,42.3489333 84.3120125,43.0677333 85.6780125,42.1073333 C85.6780125,42.1073333 86.8955125,41.8658333 87.2221125,42.1073333 C87.2221125,42.1073333 88.4338125,43.0677333 88.4338125,43.6334333 C88.4338125,43.6334333 88.3568125,44.3581333 86.9014125,43.9456333 C86.9014125,43.9456333 77.7672125,44.0340333 77.2802125,44.0340333 C77.2802125,44.0340333 74.7680125,44.5937333 75.0174125,43.1502333 Z" id="Path" stroke="#000000" stroke-width="0.012"></path>
            <path d="M76,46.4461748 C76,46.4461748 76,45.7980748 77.1343,45.7980748 L88.4424,45.7214748 C88.4424,45.7214748 89.4934,46.2811748 89.4934,44.3662748 C89.4934,44.3662748 89.9094,35.6284748 89.9444,26.0068748 C89.9564,23.1433748 90.0874,20.1384748 89.9864,17.3574748 C89.9864,17.3574748 89.7374,16.1554748 89.4104,15.9079748 C89.4104,15.9079748 89.4104,14.6294748 90.7884,15.1066748 C90.7884,15.1066748 91.9994,15.1891748 91.6794,17.0392748 L91.7624,19.8320748 C91.7624,19.8320748 91.5184,21.0398748 93.6924,20.7158748 C93.6924,20.7158748 95.8724,21.0398748 95.9554,21.8353748 C95.9554,21.8353748 96.6024,23.4438748 94.0194,23.2788748 L92.1544,23.2788748 C92.1544,23.2788748 91.3464,23.7561748 91.5894,24.7223748 L91.3464,36.3472748 C91.3464,36.3472748 91.1864,38.3505748 93.1224,38.2739748 C93.1224,38.2739748 95.1354,38.1914748 95.5454,38.8336748 C95.5454,38.8336748 96.9294,40.8369748 93.9294,40.6778748 C93.9294,40.6778748 92.0714,40.5953748 91.6674,40.9194748 C91.6674,40.9194748 91.3404,41.3201748 91.1024,45.0909748 C91.1024,45.0909748 91.2694,47.3358748 89.5704,47.0883748 C89.5704,47.0883748 78.3399,47.2474748 77.2887,47.0117748 C77.2947,47.0058748 76.1663,47.3358748 76,46.4461748 Z" id="Path" fill="#FFFFFF"></path>
            <path d="M61.2438895,14.71318 L61.0003895,40.44938 C61.0003895,40.44938 60.9231895,41.64548 62.9424895,41.88698 C62.9424895,41.88698 65.2823895,42.12858 65.8465895,41.88698 C65.8465895,41.88698 67.3907895,41.80458 71.3401895,41.96948 C71.3401895,41.96948 72.3141895,42.94168 72.3973895,41.72798 C72.3973895,41.72798 73.0387895,20.89388 72.7239895,16.55738 C72.7239895,16.55738 72.6348895,14.71318 71.2689895,14.63658 C71.2689895,14.63658 65.1279895,15.12558 64.5637895,14.63658 L62.1406895,14.00028 C62.1287895,13.99438 61.1607895,14.07688 61.2438895,14.71318 Z" id="Path" fill="#FFFFFF"></path>
            <path d="M74.6474,15.8773333 C74.6474,15.8773333 74.4039,27.9794333 74.487,28.3801333 L74.3267,38.5555333 L74,42.0848333 C74,42.0848333 74.487,42.8037333 74.8909,42.3264333 C74.8909,42.3264333 77.4743,41.6783333 79.0897,41.9258333 C79.0897,41.9258333 84.2686,42.4030333 85.3138,41.5958333 C85.3138,41.5958333 86.1215,41.9965333 86.3591,40.7120333 C86.3591,40.7120333 86.6798,18.2753333 86.5313,17.8747333 C86.5313,17.8747333 86.8461,14.6576333 86.6798,14.3454333 C86.6798,14.3454333 86.6085,13.6265333 85.2307,14.2629333 C85.2307,14.2629333 85.391,14.9051333 77.7178,14.6576333 C77.7178,14.6694333 74.8136,14.5928333 74.6474,15.8773333 Z" id="Path" fill="#FFFFFF"></path>
            <path d="M87.0772,15.5349944 L87,40.8587944 C87,40.8587944 87.6473,43.1094944 88.6924,42.8737944 C88.6924,42.8737944 88.8534,42.3847944 88.9304,41.5834944 L89.2564,17.4557944 C89.2504,17.4616944 88.4434,13.6200944 87.0772,15.5349944 Z" id="Path" fill="#FFFFFF"></path>
            <path d="M87.0772,15.5355591 L87,40.8652591 C87,40.8652591 87.6473,43.1159591 88.6983,42.8802591 C88.6983,42.8802591 88.8593,42.3912591 88.9363,41.5899591 L89.2623,17.4563591 C89.2563,17.4563591 88.4493,13.6206591 87.0772,15.5355591 Z" id="Path" stroke="#000000" stroke-width="0.012"></path>
            <path d="M77.35966,22.7188 C77.11616,22.0766 78.73156,22 78.73156,22 L79.53926,22.159 C80.10346,22.0824 80.67356,22.324 80.67356,22.324 C81.23776,23.2019 80.26976,23.6792 80.26976,23.6792 L79.94906,24.7221 C79.86586,25.6059 79.94906,33.2183 79.94906,33.2183 C80.10936,33.6131 80.75676,34.3319 80.75676,34.3319 C80.75676,35.0566 79.86586,34.8975 79.86586,34.8975 L77.52596,34.98 C76.79546,34.8975 77.03896,34.0962 77.03896,34.0962 C77.84666,33.6956 78.09016,32.252 78.09016,32.252 L78.09016,24.3214 L77.35966,22.7188 Z" id="Path" fill="#000000"></path>
            <path d="M66.764946,23.7421662 C66.842146,25.5097662 66.842146,27.9137662 66.842146,27.9137662 C68.380346,29.1156662 69.265246,27.4305662 69.265246,27.4305662 C71.284546,25.5097662 69.265246,23.7421662 68.944546,23.2649662 C68.617846,22.7817662 67.002446,23.1824662 67.002446,23.1824662 L66.764946,23.7421662 Z M66.687746,30.0819662 L66.527346,32.5683662 L67.245946,33.7703662 C67.738946,34.4125662 66.925246,34.8957662 66.925246,34.8957662 L64.341746,34.6541662 C63.860746,34.4066662 64.341746,33.6112662 64.341746,33.6112662 C64.989146,33.2164662 65.072346,32.1677662 65.072346,32.1677662 L64.989146,27.5189662 L65.072346,24.1546662 C65.072346,23.7539662 64.424946,23.0351662 64.424946,23.0351662 C63.860746,22.9526662 64.021046,22.2338662 64.021046,22.2338662 C64.181446,21.8331662 65.547446,22.0688662 65.547446,22.0688662 L68.944546,22.0688662 C72.175346,23.1117662 71.694346,25.4390662 71.694346,25.4390662 C71.937846,27.7605662 69.431546,28.7268662 69.431546,28.7268662 L69.265246,30.0112662 L71.611146,33.6937662 C72.015046,34.0178662 71.937846,34.3418662 71.937846,34.3418662 C71.611146,35.2256662 70.316446,34.3418662 70.316446,34.3418662 L67.412246,29.8521662 C67.168746,29.5163662 66.687746,30.0819662 66.687746,30.0819662 Z" id="Shape" fill="#000000" fill-rule="nonzero"></path>
            <path d="M49.9536664,61.339593 C49.9536664,61.339593 50.5178664,61.103893 50.6781664,60.709193 C50.6781664,60.709193 52.3767664,60.544193 52.6142664,60.308493 L57.9475664,60.709193 C57.9475664,60.709193 63.1976664,61.103893 65.4603664,59.495393 C65.4603664,59.495393 66.2740664,59.495393 66.8382664,59.742893 C66.8382664,59.742893 67.9607664,59.990293 68.2873664,60.461693 L71.3578664,60.379193 C71.3578664,60.379193 73.1335664,60.944793 72.9732664,62.070193 L72.9732664,63.507893 C72.9732664,63.507893 72.6465664,66.394893 73.4543664,66.559893 L75.8061664,66.559893 C75.8061664,66.559893 77.7482664,67.437793 77.5047664,68.563193 C77.5047664,68.563193 77.5878664,70.159893 75.8952664,70.483993 C75.8952664,70.483993 74.1907664,70.961193 73.6324664,70.884593 C73.6324664,70.884593 73.0623664,71.603493 72.9791664,72.481393 L72.7416664,82.980893 C72.7416664,82.980893 72.5753664,84.100393 74.2738664,83.941293 C74.2738664,83.941293 76.7742664,83.699693 77.5047664,85.066693 C77.5047664,85.066693 78.1520664,87.388093 76.8573664,87.788793 L75.8892664,88.265993 L73.7868664,88.601893 C73.7868664,88.601893 72.9019664,88.672593 72.8188664,90.198593 L72.8188664,92.997293 C72.8188664,92.997293 72.9019664,94.929593 71.3637664,94.929593 L69.1009664,95.088593 C69.1009664,95.088593 68.5367664,95.560593 67.4083664,95.242593 C67.4083664,95.242593 53.6714664,95.489593 53.1844664,95.324593 L51.5690664,95.648593 C51.5690664,95.648593 49.7932664,97.251593 48.3381664,96.043593 L47.2097664,95.159593 C47.2097664,95.159593 46.4020664,95.318593 46.0813664,95.236593 C45.7547664,95.159593 30.8893664,95.401593 30.8893664,95.401593 C30.8893664,95.401593 27.7357664,95.725593 27.4981664,94.676593 C27.4981664,94.676593 27.0943664,90.593293 27.2546664,90.104293 C27.2546664,90.104293 27.2546664,88.908193 26.5301664,88.831593 C26.5301664,88.831593 23.3765664,88.672593 23.2992664,88.342593 C23.2992664,88.342593 21.6007664,87.146493 22.0877664,85.944593 C22.0877664,85.944593 22.6578664,84.336093 24.3504664,84.176993 C24.3504664,84.176993 26.9339664,84.583493 26.9339664,83.858793 C26.9339664,83.858793 27.1002664,83.375693 27.1002664,82.580193 C27.1002664,82.580193 27.2606664,73.035193 27.1774664,72.398893 C27.1774664,72.398893 27.4209664,71.196893 26.3697664,71.196893 C26.3697664,71.196893 25.2413664,71.515093 24.5167664,71.037793 C24.5167664,71.037793 22.5747664,71.120293 22.1708664,69.594293 C22.1708664,69.594293 21.8442664,68.633893 22.3252664,67.826693 C22.3252664,67.826693 23.2161664,66.064993 25.7996664,66.630593 C25.7996664,66.630593 27.2546664,67.031293 27.4150664,65.994293 L27.3378664,62.140893 C27.3378664,62.140893 27.0111664,61.103893 29.0304664,60.544193 C29.0304664,60.544193 31.6139664,61.262993 32.4216664,59.984393 C32.4216664,59.984393 33.3124664,58.216793 34.0310664,59.418793 C34.0310664,59.418793 35.5752664,60.862393 39.7741664,60.709193 C39.7741664,60.709193 47.0494664,60.143493 47.2097664,60.455793 C47.2097664,60.455793 48.9855664,60.709193 49.4725664,61.262993 L49.9536664,61.339593 Z" id="Path" fill="#000000"></path>
            <path d="M49.9833621,61.3538497 C49.9833621,61.3538497 50.5416621,61.1181497 50.7079621,60.7174497 C50.7079621,60.7174497 52.4064621,60.5525497 52.6440621,60.3168497 L57.9772621,60.7174497 C57.9772621,60.7174497 63.2273621,61.1181497 65.4901621,59.5096497 C65.4901621,59.5096497 66.3037621,59.5096497 66.8679621,59.7571497 C66.8679621,59.7571497 67.9964621,59.9986497 68.3111621,60.4700497 L71.3875621,60.3934497 C71.3875621,60.3934497 73.1633621,60.9590497 72.9970621,62.0844497 L72.9970621,63.5279497 C72.9970621,63.5279497 72.6763621,66.4150497 73.4840621,66.5741497 L75.8299621,66.5741497 C75.8299621,66.5741497 77.7660621,67.4579497 77.5285621,68.5774497 C77.5285621,68.5774497 77.6116621,70.1741497 75.9131621,70.4981497 C75.9131621,70.4981497 74.2086621,70.9754497 73.6503621,70.8988497 C73.6503621,70.8988497 73.0802621,71.6176497 72.9970621,72.5014497 L72.7594621,83.0068497 C72.7594621,83.0068497 72.5991621,84.1204497 74.2917621,83.9672497 C74.2917621,83.9672497 76.7920621,83.7315497 77.5285621,85.0926497 C77.5285621,85.0926497 78.1758621,87.4140497 76.8811621,87.8206497 L75.9131621,88.2978497 L73.8047621,88.6219497 C73.8047621,88.6219497 72.9198621,88.6985497 72.8426621,90.2186497 L72.8426621,93.0291497 C72.8426621,93.0291497 72.9198621,94.9498497 71.3875621,94.9498497 L69.1248621,95.1088497 C69.1248621,95.1088497 68.5606621,95.5858497 67.4262621,95.2678497 C67.4262621,95.2678497 53.6893621,95.5098497 53.2023621,95.3448497 L51.5809621,95.6688497 C51.5809621,95.6688497 49.8111621,97.2718497 48.3560621,96.0638497 L47.2217621,95.1798497 C47.2217621,95.1798497 46.4140621,95.3388497 46.0933621,95.2678497 C45.7666621,95.1798497 30.9012621,95.4268497 30.9012621,95.4268497 C30.9012621,95.4268497 27.7476621,95.7508497 27.5041621,94.7028497 C27.5041621,94.7028497 27.1003621,90.6134497 27.2606621,90.1302497 C27.2606621,90.1302497 27.2606621,88.9342497 26.5301621,88.8517497 C26.5301621,88.8517497 23.3824621,88.6926497 23.2993621,88.3685497 C23.2993621,88.3685497 21.6007621,87.1666497 22.0877621,85.9646497 C22.0877621,85.9646497 22.6579621,84.3561497 24.3505621,84.1970497 C24.3505621,84.1970497 26.9340621,84.6095497 26.9340621,83.8788497 C26.9340621,83.8788497 27.1003621,83.4016497 27.1003621,82.6062497 C27.1003621,82.6062497 27.2606621,73.0612497 27.1834621,72.4189497 C27.1834621,72.4189497 27.4269621,71.2111497 26.3698621,71.2111497 C26.3698621,71.2111497 25.2414621,71.5292497 24.5109621,71.0520497 C24.5109621,71.0520497 22.5747621,71.1286497 22.1709621,69.6085497 C22.1709621,69.6085497 21.8442621,68.6481497 22.3312621,67.8409497 C22.3312621,67.8409497 23.2162621,66.0792497 25.8056621,66.6389497 C25.8056621,66.6389497 27.2606621,67.0454497 27.4210621,66.0026497 L27.3378621,62.1492497 C27.3378621,62.1492497 27.0112621,61.1122497 29.0364621,60.5466497 C29.0364621,60.5466497 31.6199621,61.2713497 32.4276621,59.9868497 C32.4276621,59.9868497 33.3125621,58.2192497 34.0370621,59.4153497 C34.0370621,59.4153497 35.5812621,60.8589497 39.7741621,60.7057497 C39.7741621,60.7057497 47.0494621,60.1400497 47.2098621,60.4582497 C47.2098621,60.4582497 48.9915621,60.7057497 49.4726621,61.2654497 L49.9833621,61.3538497 Z" id="Path" stroke="#000000" stroke-width="0.01"></path>
            <path d="M52.0510655,93.2228904 C52.0510655,93.2228904 53.0250655,92.7337904 53.6724655,92.9046904 C54.3197655,93.0637904 63.7687655,92.8280904 63.7687655,92.8280904 C63.7687655,92.8280904 67.8904655,93.1462904 68.5377655,92.5806904 L69.4999655,92.2624904 C69.4999655,92.2624904 69.9037655,91.7851904 69.9037655,91.1488904 C69.9037655,90.5007904 69.9869655,88.3383904 69.9869655,88.3383904 L70.2363655,87.5429904 C70.2363655,87.5429904 70.1531655,86.7416904 70.2363655,65.3360904 C70.2363655,65.3360904 70.5511655,63.6627904 69.4999655,62.6139904 C69.4999655,62.6139904 69.4999655,61.9776904 69.8206655,62.0542904 C70.1472655,62.1425904 69.9869655,62.1425904 69.9869655,62.1425904 C69.9869655,62.1425904 71.4419655,61.7360904 71.6795655,62.2957904 C71.6795655,62.2957904 72.3328655,64.2106904 71.7626655,65.3419904 C71.7626655,65.3419904 71.6023655,67.6692904 72.8198655,67.6692904 C72.8198655,67.6692904 73.2949655,68.1524904 74.2689655,67.9108904 C74.2689655,67.9108904 76.3713655,68.1524904 76.3713655,68.7887904 C76.3713655,68.7887904 76.3713655,70.2381904 74.9162655,69.9966904 L72.9742655,70.1498904 C72.9742655,70.1498904 71.6795655,70.3972904 71.8458655,71.9115904 C72.0121655,73.4375904 71.7626655,84.3377904 71.7626655,84.3377904 C71.7626655,84.3377904 71.7626655,85.6280904 73.7878655,85.5455904 C73.7878655,85.5455904 76.2881655,85.4630904 76.2881655,86.1819904 C76.2881655,86.1819904 76.9355655,87.7845904 75.1597655,87.8670904 C75.1597655,87.8670904 71.7626655,87.7845904 72.0121655,88.7449904 C72.0121655,88.7449904 71.7686655,90.9956904 71.6023655,91.3904904 C71.6023655,91.3904904 71.9348655,93.2346904 71.5191655,93.5586904 C71.5191655,93.5586904 71.2816655,94.5954904 69.1019655,94.4364904 C69.1019655,94.4364904 55.2106655,94.3604904 53.0250655,94.5194904 C53.0250655,94.5014904 51.7303655,94.3424904 52.0510655,93.2228904 Z" id="Path" fill="#FFFFFF"></path>
            <path d="M49.3596885,92 C49.3596885,92 50.7315885,92.2356 50.7315885,93.5201 C50.7315885,94.7984 50.8147885,95.5234 50.0010885,95.6824 C49.1933885,95.8414 48.3084885,95.6054 48.0708885,94.5684 C47.8214885,93.526 48.2252885,92.2356 49.3596885,92 Z" id="Path" fill="#FFFFFF"></path>
            <path d="M51.0166609,91.5452448 C51.0166609,91.5452448 52.4716609,90.5789448 53.0358609,90.7439448 C53.0358609,90.7439448 60.3884609,91.2211448 62.6511609,90.8263448 C64.9139609,90.4257448 63.5360609,90.7439448 63.5360609,90.7439448 C63.5360609,90.7439448 65.4781609,90.7439448 66.0364609,90.0191448 C66.0364609,90.0191448 66.6065609,89.8660448 66.9272609,90.4257448 L68.1328609,91.7160448 C68.1328609,91.7160448 68.2219609,92.5114448 66.8441609,92.4290448 C66.8441609,92.4290448 53.6713609,92.4290448 53.2734609,92.5114448 C53.2793609,92.5056448 50.7731609,92.9003448 51.0166609,91.5452448 Z" id="Path" fill="#FFFFFF"></path>
            <path d="M51.0159216,91.551069 C51.0159216,91.551069 52.4709216,90.584769 53.0351216,90.749769 C53.0351216,90.749769 60.3876216,91.227069 62.6563216,90.838169 C64.9191216,90.431669 63.5412216,90.749769 63.5412216,90.749769 C63.5412216,90.749769 65.4833216,90.749769 66.0475216,90.019169 C66.0475216,90.019169 66.6117216,89.865969 66.9384216,90.425769 L68.1440216,91.716069 C68.1440216,91.716069 68.2331216,92.511469 66.8552216,92.428969 C66.8552216,92.428969 53.6825216,92.428969 53.2786216,92.511469 C53.2786216,92.511469 50.7783216,92.906269 51.0159216,91.551069 Z" id="Path" stroke="#000000" stroke-width="0.012"></path>
            <path d="M31.5382,63 C31.5382,63 32.1024,63 32.0252,63.9604 L31.8589,88.1647 C31.8589,88.1647 32.1083,89.7732 30.7304,90.8102 C30.7304,90.8102 30,91.6881 30,90.333 L30.3325,65.6455 C30.3266,65.6455 30.4038,63.8013 31.5382,63 Z" id="Path" fill="#FFFFFF"></path>
            <path d="M31.5441,63 C31.5441,63 32.1083,63 32.0371,63.9604 L31.8648,88.1706 C31.8648,88.1706 32.1143,89.7791 30.7364,90.8161 C30.7364,90.8161 30,91.694 30,90.3388 L30.3326,65.6455 C30.3266,65.6455 30.4098,63.8013 31.5441,63 Z" id="Path" stroke="#000000" stroke-width="0.012"></path>
            <path d="M30.3662849,62.6481 C30.3662849,62.6481 29.3982849,64.4157 29.4754849,64.8164 L29.3922849,70.1781 C29.3922849,70.1781 29.3091849,73.6249 29.3922849,74.0256 C29.4754849,74.4262 29.3091849,84.5251 29.3091849,84.5251 C29.3091849,84.5251 29.2259849,86.4459 29.3091849,87.0881 L29.3091849,91.4128 C29.3091849,91.4128 29.1487849,93.3395 30.5978849,92.8505 C30.5978849,92.8505 44.8218849,92.5323 45.7126849,92.7797 C45.7126849,92.7797 47.0014849,93.0154 46.5204849,93.6577 C46.5204849,93.6577 46.5204849,94.2232 45.6236849,94.0582 C45.6236849,94.0582 38.9184849,94.6942 32.8606849,94.4592 C32.8606849,94.4592 28.8221849,94.6942 28.5726849,94.2232 C28.5726849,94.2232 27.9312849,94.1412 27.9312849,91.8135 C27.9312849,91.8135 27.9312849,89.657 27.7768849,89.2563 C27.7768849,89.2563 27.9312849,88.1192 25.9179849,87.8894 C25.9179849,87.8894 23.0909849,88.3725 23.0078849,86.6874 C23.0078849,86.6874 23.4116849,85.4855 26.1614849,85.6446 C26.1614849,85.6446 28.1807849,85.9686 27.7768849,84.3601 L28.0144849,72.5054 C28.0144849,72.5054 28.2638849,70.4138 26.8860849,70.3254 C26.8860849,70.3254 25.5972849,70.2606 25.1874849,70.4079 C25.1874849,70.4079 22.8474849,70.4079 23.0078849,69.0527 C23.0078849,69.0527 23.8155849,67.6033 26.1614849,67.9274 C26.1614849,67.9274 27.9372849,68.2455 28.0203849,66.2481 C28.0203849,66.2481 27.9372849,62.1591 28.9052849,62 C28.9112849,62.0118 30.9304849,62.0884 30.3662849,62.6481 Z" id="Path" fill="#FFFFFF"></path>
            <path d="M32.5121913,89 C32.5121913,89 33.6464913,90.196 35.5053913,90.1253 L46.4866913,90.2785 C46.4866913,90.2785 47.7041913,90.3669 47.6269913,90.9973 C47.6269913,90.9973 47.4546913,91.9577 46.0055913,91.6396 L32.7556913,91.4805 L31.3005913,91.5689 C31.3005913,91.5689 30.3325913,91.4039 31.8707913,89.5597 L32.5121913,89 Z" id="Path" fill="#FFFFFF"></path>
            <path d="M32.5121913,89 C32.5121913,89 33.6464913,90.202 35.5113913,90.1254 L46.4925913,90.2844 C46.4925913,90.2844 47.7100913,90.3669 47.6387913,91.0033 C47.6387913,91.0033 47.4665913,91.9637 46.0233913,91.6514 L32.7615913,91.4923 L31.3005913,91.5748 C31.3005913,91.5748 30.3325913,91.4098 31.8707913,89.5656 L32.5121913,89 Z" id="Path" stroke="#000000" stroke-width="0.012"></path>
            <path d="M67,87.8839298 C67,87.8839298 67.968,89.7281298 68.455,89.9815298 C68.455,89.9815298 69.3459,91.0126298 69.1024,89.1743298 L69.2627,66.0894298 C69.2627,66.0894298 69.0192,65.2881298 69.2627,64.0096298 L68.2947,62.2479298 C68.2947,62.2479298 67.2435,61.4466298 67.2435,62.7251298 L67.0831,87.3360298 L67,87.8839298 Z" id="Path" fill="#FFFFFF"></path>
            <path d="M67,87.8947586 C67,87.8947586 67.9739,89.7389586 68.4609,89.9922586 C68.4609,89.9922586 69.3518,91.0292586 69.1083,89.1792586 L69.2687,66.0884586 C69.2687,66.0884586 69.0252,65.2871586 69.2687,64.0145586 L68.3006,62.2469586 C68.3006,62.2469586 67.2434,61.4455586 67.2434,62.7300586 L67.0831,87.3408586 L67,87.8947586 Z" id="Path" stroke="#000000" stroke-width="0.012"></path>
            <path d="M48.7562,77.2737 C48.7562,77.2737 48.8394,79.1886 48.5899,81.0328 C48.4593,82.0521 48.9166,86.7303 48.5068,89.1343 C48.5068,89.1343 48.4355,89.9356 46.731,89.2226 C46.731,89.2226 36.3912,89.4583 36.0705,89.1343 C36.0705,89.1343 33.2435,89.2226 33,87.7732 C33,87.7732 33.4039,76.7906 33.1604,76.384 C33.1604,76.384 33,70.3742 33.1604,69.8144 C33.1604,69.8144 33.4039,64.2819 33.2435,63.6455 C33.2435,63.6455 33.3267,62.3611 33.0832,61.7189 C33.0832,61.7189 33.0832,60.9175 34.461,61.3948 C34.461,61.3948 34.9361,62.2786 37.6087,61.8838 C37.6087,61.8838 39.5507,62.202 41.4097,61.9604 C41.4097,61.9604 45.5254,61.6423 46.5825,61.9604 C46.5825,61.9604 48.198,61.6423 48.679,63.4099 L48.5959,68.3768 L49.0769,69.9794 L49.6471,69.5788 L49.8846,68.3768 L49.9678,63.0858 C49.9678,63.0858 50.2885,62.1195 51.5891,61.9604 C51.5891,61.9604 53.6084,61.713 53.935,61.8838 C54.2558,62.037 58.615,62.2786 59.8325,62.037 C61.044,61.7955 61.2816,62.8383 64.9222,61 C64.9222,61 65.8903,61.0825 65.8903,61.713 C65.8903,61.713 65.5577,68.5359 65.8903,69.8085 C65.8903,69.8085 65.8903,82.3113 65.6408,83.1951 L65.8071,87.2017 C65.8071,87.2017 65.9675,88.9634 63.1465,89.1284 C63.1465,89.1284 64.9222,89.3699 53.7688,89.0518 C53.7688,89.0518 51.993,88.9693 50.0569,89.8472 C50.0569,89.8472 49.653,89.7706 49.653,88.7277 C49.653,88.7277 49.9737,84.9627 49.653,81.2685 L49.4986,77.1794 L48.7562,77.2737 Z" id="Path" fill="#FFFFFF"></path>
            <path d="M41.2442,72.0579 C41.2442,72.0579 41.4877,77.9852 41.2442,78.7865 L41.167,80.071 C41.167,80.071 41.4877,80.9489 41.9747,81.273 C41.9747,81.273 42.3785,82.3924 41.4105,82.3158 C41.4105,82.3158 39.3912,82.1568 38.9101,82.2275 C38.9101,82.2275 37.7758,82.2275 38.9101,80.7957 C38.9101,80.7957 39.314,80.2242 39.2309,78.7865 C39.2309,78.7865 39.2309,72.0579 39.3972,71.6573 C39.3972,71.6573 39.5575,70.7676 38.9933,70.526 L38.0193,70.6085 L36.8137,71.728 C36.8137,71.728 36.5642,72.9358 36,71.6514 L36,71.0032 L36.7305,69.0825 L37.2175,69 C37.2175,69 37.9421,69.4831 38.5835,69.6481 L42.3845,69.6481 L43.7564,69 C43.7564,69 44.3206,69.0825 44.1662,69.8013 C44.1662,69.8013 44.4037,71.6514 43.3525,71.887 C43.3525,71.887 42.7052,71.6514 42.3845,70.7676 C42.3785,70.7735 41.3273,70.2196 41.2442,72.0579 Z" id="Path" fill="#000000"></path>
            <path d="M59.2076232,69.3954222 C59.2076232,69.3954222 56.1430232,69.1538222 56.0658232,72.4415222 C56.0658232,72.4415222 55.7332232,74.6923222 59.1304232,76.1358222 C59.1304232,76.1358222 61.6366232,77.3319222 61.4703232,78.8521222 C61.4703232,78.8521222 61.1496232,81.5800222 58.4830232,80.2190222 C58.4830232,80.2190222 57.1942232,79.5768222 57.2774232,78.8521222 C57.2774232,78.8521222 56.8676232,77.9683222 56.3806232,78.1332222 C56.3806232,78.1332222 55.8104232,78.2923222 56.0658232,80.9378222 C56.0658232,80.9378222 56.0658232,81.9807222 57.2774232,80.9378222 L57.9129232,81.1028222 C57.9129232,81.1028222 60.0984232,82.8645222 61.9514232,80.6962222 C61.9514232,80.6962222 63.9766232,78.8520222 62.5156232,76.6131222 C62.5156232,76.6131222 61.4644232,75.0164222 59.6114232,74.2091222 C59.6114232,74.2091222 57.8356232,73.4019222 57.4318232,72.0409222 C57.4318232,72.0409222 57.9960232,69.6311222 60.1756232,70.9155222 C60.1756232,70.9155222 60.9833232,71.8759222 61.4703232,72.0409222 C61.4703232,72.0409222 62.1177232,72.0409222 61.9514232,70.5915222 L61.8029232,69.3954222 C61.8029232,69.3954222 61.6426232,68.5057222 60.5023232,69.3954222 C60.5023232,69.3954222 59.4511232,69.7901222 59.2076232,69.3954222 Z" id="Path" fill="#000000"></path>
            <path d="M47.967088,73.3864115 C47.883888,73.7870115 47.313788,76.0319115 47.313788,76.0319115 L47.800788,76.8391115 C47.800788,76.8391115 49.095488,76.9098115 49.576488,76.9098115 C50.057588,76.9098115 50.140688,76.5150115 50.140688,76.1085115 C50.140688,75.7137115 49.249888,73.3098115 49.249888,73.3098115 L48.840088,72.8267115 L47.967088,73.3864115 Z M49.255788,68.0954115 C49.819988,68.5019115 49.903188,69.3032115 49.903188,69.3032115 C51.518588,73.5514115 52.896388,79.7262115 52.896388,79.7262115 C53.300288,80.5216115 54.024888,81.1638115 54.024888,81.1638115 C55.396788,81.6411115 54.024888,82.0417115 54.024888,82.0417115 C53.460588,82.2833115 51.601688,81.9710115 51.601688,81.9710115 C50.627688,81.8001115 51.025688,81.4879115 51.025688,81.4879115 C51.435388,81.0872115 51.108788,79.4787115 51.108788,79.4787115 C51.025688,78.8424115 50.301088,77.7995115 50.301088,77.7995115 C49.980388,77.6404115 49.410188,78.3592115 49.410188,78.3592115 C49.410188,78.3592115 48.525288,78.6833115 48.436188,78.3592115 C48.353088,78.0352115 47.788888,77.7288115 47.788888,77.7288115 C46.820788,77.7288115 46.416988,80.1209115 46.416988,80.1209115 C46.981188,82.1242115 46.416988,81.8002115 46.416988,81.8002115 C45.935888,82.4483115 44.397688,81.9710115 44.397688,81.9710115 C43.673088,81.8001115 44.160188,81.2404115 44.160188,81.2404115 C45.045088,81.0872115 45.282588,80.1209115 45.282588,80.1209115 C45.686488,79.5612115 48.269888,69.1442115 48.269888,69.1442115 C48.531288,68.6551115 48.691588,67.6947115 49.255788,68.0954115 Z" id="Shape" fill="#000000" fill-rule="nonzero"></path>
            <path d="M27.8216138,47.9057 C27.8216138,47.9057 26.9308138,50.7162 22.9695138,47.8232 L9.39881385,47.4992 C9.39881385,47.4992 7.62311385,48.0648 7.37961385,46.2206 C7.37961385,46.2206 7.70621385,42.5381 7.53401385,42.2141 C7.53401385,42.2141 7.62301385,41.1712 5.84131385,41.1712 C5.84131385,41.1712 3.09751385,41.5011 3.02031385,39.0913 C3.02031385,39.0913 2.53331385,36.5165 6.32831385,36.6049 C6.32831385,36.6049 7.53401385,37.1646 7.62311385,35.6386 C7.62311385,35.6386 7.46271385,25.2216 7.53401385,24.4144 C7.53401385,24.4144 7.86651385,23.4599 6.00761385,23.3008 C6.00761385,23.3008 3.34101385,23.8605 3.02031385,22.0929 C3.02031385,22.0929 2.85401385,19.4533 4.62981385,19.2883 C4.62981385,19.2883 6.80941385,19.4533 7.21921385,18.8995 C7.21921385,18.8995 7.70621385,19.2117 7.62311385,17.2851 L7.70621385,14.0032 C7.70621385,14.0032 7.94971385,13.1194 9.31571385,13.2019 C9.31571385,13.2019 11.8279138,13.361 12.1545138,13.1194 C12.1545138,13.1194 12.7187138,12.4006 12.8731138,12.0765 C12.8731138,12.0765 14.1738138,12 14.4173138,12.3122 C14.4173138,12.3122 16.3534138,13.6026 23.7118138,13.1194 C23.7118138,13.1194 24.8343138,13.1194 25.0778138,13.4435 C25.0778138,13.4435 26.4497138,14.4864 27.2574138,13.361 C27.2574138,13.361 28.4690138,13.1194 32.1096138,13.2019 C32.1096138,13.2019 36.0591138,14.2448 38.8148138,12 L39.6997138,12.1649 C39.6997138,12.1649 40.8281138,14.0032 41.6477138,13.4435 C41.6477138,13.4435 44.0708138,13.2019 44.4747138,13.6851 C44.4747138,13.6851 45.2824138,14.887 44.8726138,18.0157 C44.8726138,18.0157 44.3915138,19.3767 46.7315138,19.3767 C46.7315138,19.3767 49.3981138,18.8995 49.0774138,21.3741 C49.0774138,21.3741 49.8079138,24.1787 45.3596138,23.7839 C45.3596138,23.7839 44.7894138,24.5852 44.8666138,25.145 C44.8666138,25.145 44.7894138,34.2776 44.7063138,35.3263 C44.7063138,35.3263 44.6291138,36.7581 46.5652138,36.6874 C46.5652138,36.6874 49.1487138,36.5165 49.2318138,38.8497 C49.2318138,38.8497 49.5525138,41.8959 45.8406138,41.3303 C45.8406138,41.3303 44.7063138,41.4952 44.5400138,42.2141 L44.3796138,46.2206 C44.3796138,46.2206 44.4628138,48.2239 42.1941138,47.7466 C41.8734138,47.7466 29.5974138,47.9823 28.5462138,47.67 C28.5462138,47.67 27.9820138,47.5934 27.8216138,47.9057 Z" id="Path" fill="#000000"></path>
            <path d="M27.8275628,47.9058 C27.8275628,47.9058 26.9367628,50.7162 22.9753628,47.8233 L9.39886283,47.4992 C9.39886283,47.4992 7.62306283,48.0648 7.37956283,46.2148 C7.37956283,46.2148 7.70616283,42.5323 7.53986283,42.2082 C7.53986283,42.2082 7.62306283,41.1653 5.84136283,41.1653 C5.84136283,41.1653 3.09756283,41.4953 3.02026283,39.0855 C3.02026283,39.0855 2.53326283,36.5107 6.33426283,36.599 C6.33426283,36.599 7.53986283,37.1588 7.62306283,35.6386 C7.62306283,35.6386 7.46266283,25.2157 7.53986283,24.4085 C7.53986283,24.4085 7.87246283,23.454 6.00766283,23.2949 C6.00766283,23.2949 3.34106283,23.8547 3.02026283,22.0871 C3.02026283,22.0871 2.85406283,19.4475 4.63576283,19.2884 C4.63576283,19.2884 6.81536283,19.4475 7.22516283,18.8936 C7.22516283,18.8936 7.71216283,19.2059 7.62896283,17.2851 L7.71216283,13.9974 C7.71216283,13.9974 7.95566283,13.1136 9.32156283,13.202 C9.32156283,13.202 11.8337628,13.3552 12.1545628,13.1195 C12.1545628,13.1195 12.7187628,12.4065 12.8731628,12.0766 C12.8731628,12.0766 14.1737628,12 14.4172628,12.3123 C14.4172628,12.3123 16.3474628,13.6026 23.7118628,13.1136 C23.7118628,13.1136 24.8343628,13.1136 25.0778628,13.4376 C25.0778628,13.4376 26.4497628,14.4805 27.2574628,13.3552 C27.2574628,13.3552 28.4689628,13.1136 32.1096628,13.202 C32.1096628,13.202 36.0649628,14.239 38.8147628,12 L39.7056628,12.165 C39.7056628,12.165 40.8340628,14.0033 41.6476628,13.4435 C41.6476628,13.4435 44.0707628,13.202 44.4805628,13.6851 C44.4805628,13.6851 45.2882628,14.8871 44.8784628,18.0157 C44.8784628,18.0157 44.3974628,19.3827 46.7374628,19.3827 C46.7374628,19.3827 49.4040628,18.8995 49.0833628,21.38 C49.0833628,21.38 49.8138628,24.1905 45.3714628,23.7899 C45.3714628,23.7899 44.8012628,24.5912 44.8784628,25.1568 C44.8784628,25.1568 44.7953628,34.2894 44.7181628,35.3382 C44.7181628,35.3382 44.6349628,36.7758 46.5770628,36.7051 C46.5770628,36.7051 49.1605628,36.5342 49.2436628,38.8675 C49.2436628,38.8675 49.5643628,41.9077 45.8524628,41.3421 C45.8524628,41.3421 44.7240628,41.513 44.5577628,42.2259 L44.3974628,46.2324 C44.3974628,46.2324 44.4865628,48.2416 42.2118628,47.7644 C41.8911628,47.7644 29.6152628,48 28.5580628,47.6819 C28.5521628,47.6642 27.9879628,47.5876 27.8275628,47.9058 Z" id="Path" stroke="#000000" stroke-width="0.01"></path>
            <path d="M12.8708,15.0061719 C12.8708,15.0061719 13.0311,16.6087719 13.0311,17.0094719 C13.0311,17.4100719 12.7817,40.1767719 12.7817,40.1767719 C12.7817,40.1767719 13.0311,41.9443719 11.487,42.8222719 C11.487,42.8222719 11.0831,42.9872719 11,41.8677719 L11.1663,17.8225719 C11.1781,17.8166719 11.3385,14.8470719 12.8708,15.0061719 Z" id="Path" fill="#FFFFFF"></path>
            <path d="M12.8648,15.0061721 C12.8648,15.0061721 13.0252,16.6087721 13.0252,17.0094721 C13.0252,17.4100721 12.7817,40.1767721 12.7817,40.1767721 C12.7817,40.1767721 13.0252,41.9443721 11.487,42.8281721 C11.487,42.8281721 11.0831,42.9872721 11,41.8677721 L11.1603,17.8166721 C11.1603,17.8166721 11.3207,14.8470721 12.8648,15.0061721 Z" id="Path" stroke="#000000" stroke-width="0.012"></path>
            <path d="M9.8764744,43.737353 C9.8764744,43.737353 10.0367744,21.135653 9.9595744,20.729153 C9.8764744,20.334353 10.0367744,21.053153 10.0367744,21.053153 C10.0367744,21.053153 9.7992744,17.129153 10.8504744,15.520653 C10.8504744,15.520653 10.5237744,14.159553 8.6648744,15.838753 L8.5936744,19.132453 C8.5936744,19.132453 8.5936744,20.976653 6.8891744,20.894153 C6.8891744,20.894153 4.9470744,20.811653 4.0561744,21.695453 C4.0561744,21.695453 3.5751744,23.457153 5.4281744,23.138953 C5.4281744,23.138953 8.3382744,23.138953 8.4985744,24.335053 L8.3441744,36.443053 C8.3441744,36.443053 8.9915744,38.446353 6.7287744,38.446353 C6.7287744,38.446353 3.9849744,38.293153 4.0621744,39.978253 C4.0621744,39.978253 4.6263744,41.421753 6.9781744,40.938653 C6.9781744,40.938653 8.6708744,41.262753 8.5995744,42.853553 L8.5995744,45.905553 C8.5995744,45.905553 8.4273744,47.107553 10.0427744,47.184153 L22.6512744,47.184153 C22.6512744,47.184153 23.2986744,47.266653 23.2986744,46.459453 C23.2986744,46.459453 23.2154744,45.828953 22.2533744,45.828953 L11.7531744,45.664053 C11.7412744,45.664053 10.0367744,46.223753 9.8764744,43.737353 Z" id="Path" fill="#FFFFFF"></path>
            <path d="M12.0386744,43.0770633 C12.0386744,43.0770633 11.7179744,44.2024633 12.9235744,43.9549633 L21.2440744,43.9549633 L23.5068744,44.4322633 C23.5068744,44.4322633 25.8587744,43.8724633 23.5068744,42.5880633 C23.5068744,42.5880633 16.0712744,42.6764633 15.4238744,42.5114633 C15.4238744,42.5114633 13.8915744,42.1107633 13.5649744,42.0282633 C13.5708744,42.0341633 12.7631744,41.7160633 12.0386744,43.0770633 Z" id="Path" fill="#FFFFFF"></path>
            <path d="M12.0386744,43.0725806 C12.0386744,43.0725806 11.7179744,44.2038806 12.9235744,43.9504806 L21.2500744,43.9504806 L23.5128744,44.4335806 C23.5128744,44.4335806 25.8646744,43.8738806 23.5128744,42.5893806 C23.5128744,42.5893806 16.0771744,42.6777806 15.4298744,42.5069806 C15.4298744,42.5069806 13.8975744,42.1062806 13.5709744,42.0296806 C13.5768744,42.0355806 12.7632744,41.7114806 12.0386744,43.0725806 Z" id="Path" stroke="#000000" stroke-width="0.012"></path>
            <path d="M25.4583498,45.0365958 C25.4583498,45.0365958 23.9201498,45.0365958 24.0032498,47.0280958 C24.0032498,47.0280958 24.1636498,48.5599958 25.7790498,48.5599958 C25.7790498,48.5599958 27.2340498,48.3125958 27.0796498,46.7157958 C27.0737498,46.7157958 26.1828498,44.7066958 25.4583498,45.0365958 Z" id="Path" fill="#FFFFFF"></path>
            <path d="M27.0166597,44.1442778 C27.0166597,44.1442778 27.7412597,43.3429778 28.2282597,43.3429778 C28.2282597,43.3429778 36.3052597,44.0676778 37.6771597,43.1073778 C37.6771597,43.1073778 38.8946597,42.8657778 39.2094597,43.1073778 C39.2094597,43.1073778 40.4210597,44.0676778 40.4210597,44.6274778 C40.4210597,44.6274778 40.3437597,45.3580778 38.8946597,44.9573778 C38.8946597,44.9573778 29.7545597,45.0339778 29.2794597,45.0339778 C29.2794597,45.0280778 26.7731597,45.5878778 27.0166597,44.1442778 Z" id="Path" fill="#FFFFFF"></path>
            <path d="M27.0166591,44.1442778 C27.0166591,44.1442778 27.7412591,43.3429778 28.2282591,43.3429778 C28.2282591,43.3429778 36.3052591,44.0676778 37.6831591,43.1073778 C37.6831591,43.1073778 38.9006591,42.8657778 39.2213591,43.1073778 C39.2213591,43.1073778 40.4328591,44.0676778 40.4328591,44.6274778 C40.4328591,44.6274778 40.3556591,45.3580778 38.9065591,44.9514778 C38.9065591,44.9514778 29.7664591,45.0280778 29.2853591,45.0280778 C29.2794591,45.0280778 26.7731591,45.5878778 27.0166591,44.1442778 Z" id="Path" stroke="#000000" stroke-width="0.012"></path>
            <path d="M28,46.4387477 C28,46.4387477 28,45.8024477 29.1225,45.8024477 L40.4423,45.7199477 C40.4423,45.7199477 41.4875,46.2737477 41.4875,44.3588477 C41.4875,44.3588477 41.9033,35.6210477 41.9389,25.9994477 C41.9567,23.1359477 42.0814,20.1310477 41.9686,17.3500477 C41.9686,17.3500477 41.7251,16.1480477 41.4044,15.9064477 C41.4044,15.9064477 41.4044,14.6220477 42.7822,15.1110477 C42.7822,15.1110477 43.9879,15.1876477 43.6672,17.0259477 L43.7444,19.8305477 C43.7444,19.8305477 43.5009,21.0325477 45.6864,20.7143477 C45.6864,20.7143477 47.866,21.0325477 47.9433,21.8338477 C47.9433,21.8338477 48.5965,23.4423477 46.0131,23.2773477 L44.1542,23.2773477 C44.1542,23.2773477 43.3465,23.7546477 43.584,24.7208477 L43.3405,36.3398477 C43.3405,36.3398477 43.1742,38.3431477 45.1163,38.2724477 C45.1163,38.2724477 47.1355,38.1899477 47.5335,38.8263477 C47.5335,38.8263477 48.9113,40.8295477 45.918,40.6704477 C45.918,40.6704477 44.0591,40.5880477 43.6553,40.9061477 C43.6553,40.9061477 43.3346,41.3127477 43.0911,45.0777477 C43.0911,45.0777477 43.2514,47.3225477 41.5529,47.0809477 C41.5529,47.0809477 30.3222,47.2400477 29.2769,46.9984477 C29.2947,46.9984477 28.1604,47.3225477 28,46.4387477 Z" id="Path" fill="#FFFFFF"></path>
            <path d="M13.2379822,14.7247 L13.0004822,40.455 C13.0004822,40.455 12.9172822,41.6511 14.9365822,41.8927 C14.9365822,41.8927 17.2824822,42.1342 17.8466822,41.8927 C17.8466822,41.8927 19.3789822,41.8161 23.3402822,41.9752 C23.3402822,41.9752 24.3082822,42.9297 24.3914822,41.7336 C24.3914822,41.7336 25.0387822,20.8877 24.7180822,16.563 C24.7180822,16.563 24.6408822,14.7188 23.2630822,14.6422 C23.2630822,14.6422 17.1280822,15.1195 16.5638822,14.6422 L14.1406822,14 C14.1288822,14 13.1548822,14.0766 13.2379822,14.7247 Z" id="Path" fill="#FFFFFF"></path>
            <path d="M39.0772,15.5400903 L39,40.8696903 C39,40.8696903 39.6474,43.1204903 40.7045,42.8788903 C40.7045,42.8788903 40.8649,42.3957903 40.9421,41.5885903 L41.2687,17.4608903 C41.2687,17.4608903 40.4551,13.6133903 39.0772,15.5400903 Z" id="Path" fill="#FFFFFF"></path>
            <path d="M39.0772,15.5400903 L39,40.8696903 C39,40.8696903 39.6474,43.1204903 40.7045,42.8788903 C40.7045,42.8788903 40.8649,42.3957903 40.9421,41.5885903 L41.2687,17.4608903 C41.2687,17.4608903 40.4551,13.6133903 39.0772,15.5400903 Z" id="Path" stroke="#000000" stroke-width="0.012"></path>
            <path d="M39.0772,15.5400903 L39,40.8696903 C39,40.8696903 39.6474,43.1204903 40.7045,42.8788903 C40.7045,42.8788903 40.8649,42.3957903 40.9421,41.5885903 L41.2687,17.4608903 C41.2687,17.4608903 40.4551,13.6133903 39.0772,15.5400903 Z" id="Path" stroke="#000000" stroke-width="0.012"></path>
            <path d="M26.6474,15.860878 C26.6474,15.860878 26.4039,27.963078 26.4811,28.369578 L26.3267,38.550978 L26,42.068478 C26,42.068478 26.4811,42.799078 26.885,42.315978 C26.885,42.315978 29.4744,41.679578 31.0898,41.915278 C31.0898,41.915278 36.2627,42.398378 37.3079,41.597078 C37.3079,41.597078 38.1156,41.997778 38.3591,40.713278 C38.3591,40.713278 38.6799,18.276678 38.5195,17.870078 C38.5195,17.870078 38.8461,14.664878 38.6799,14.352578 C38.6799,14.352578 38.5967,13.621978 37.2307,14.264178 C37.2307,14.264178 37.3851,14.912278 29.7179,14.670778 C29.7179,14.664878 26.8078,14.576478 26.6474,15.860878 Z" id="Path" fill="#FFFFFF"></path>
            <path d="M23.5510007,23.6363 L22.8205007,25.1682 C22.8205007,25.1682 21.0506007,32.9397 20.0826007,34.5365 C20.0826007,34.5365 19.9222007,36.145 18.5444007,34.8605 C18.5444007,34.8605 15.3908007,25.0032 15.2304007,24.6792 L14.1792007,23.9603 C14.1792007,23.9603 13.5437007,23.0765 14.6662007,23 L17.6535007,23.0765 C17.6535007,23.0765 18.6216007,23.8779 17.3328007,24.7675 C17.3328007,24.7675 17.4932007,26.0461 19.1917007,30.9306 C19.1917007,30.9306 19.6728007,32.7748 20.2429007,31.4137 L21.8584007,25.7221 L21.3714007,24.0369 C21.3714007,24.0369 20.8844007,23.2356 21.6149007,23.159 C21.6149007,23.159 23.3134007,23 23.5510007,23.6363 Z" id="Path" fill="#000000"></path>
            <path d="M28.9592588,24.0376621 L28.8701588,32.5338621 L28.6326588,33.1761621 C28.6326588,33.1761621 27.8248588,34.2130621 28.3831588,34.2955621 C28.3831588,34.2955621 27.6645588,34.7787621 33.5501588,34.8553621 C33.5501588,34.8553621 35.8188588,35.2559621 35.2486588,32.3689621 C35.2486588,32.3689621 35.0051588,31.3260621 34.1974588,32.8520621 C34.1974588,32.8520621 33.9539588,34.1306621 31.0557588,33.7299621 C31.0557588,33.7299621 30.4083588,33.1702621 30.4083588,32.5279621 L30.4083588,28.9986621 C30.4083588,28.9986621 30.3192588,28.1148621 31.6971588,28.2032621 C31.6971588,28.2032621 33.2293588,29.1577621 33.4728588,28.7571621 C33.4728588,28.7571621 34.0371588,27.4785621 33.4728588,26.6772621 C33.4728588,26.6772621 32.7424588,26.6006621 32.6651588,26.9247621 C32.6651588,26.9247621 32.1781588,27.8792621 30.8062588,27.3194621 C30.8062588,27.3194621 30.1589588,26.0409621 30.5627588,24.9980621 C30.5627588,24.9980621 30.4024588,22.9947621 31.7743588,23.1538621 C31.7743588,23.1538621 33.3897588,23.4720621 33.5441588,23.9551621 C33.5441588,23.9551621 33.9480588,24.9214621 34.3578588,23.7960621 L33.9480588,22.4291621 C33.9480588,22.4291621 33.7104588,21.8693621 33.3066588,22.0284621 C33.3066588,22.0284621 30.5568588,22.4291621 30.2301588,22.1050621 L28.0505588,22.3525621 C28.0505588,22.3525621 27.7298588,23.1538621 28.7038588,23.5544621 C28.7157588,23.5485621 28.9592588,23.7135621 28.9592588,24.0376621 Z" id="Path" fill="#000000"></path>
        </g>
    </g>
</svg>