<?xml version="1.0" encoding="UTF-8"?>
<svg width="131px" height="103px" viewBox="0 0 131 103" version="1.1" xmlns="http://www.w3.org/2000/svg" xmlns:xlink="http://www.w3.org/1999/xlink">
    <!-- Generator: Sketch 52.6 (67491) - http://www.bohemiancoding.com/sketch -->
    <title>logo_harvardlibrary</title>
    <desc>Created with Sketch.</desc>
    <defs>
        <polygon id="path-1" points="131.29 0.6992 0 0.6992 0 35 131.29 35"></polygon>
        <polygon id="path-3" points="0.655 0.227539 18.107 0.227539 18.107 17.2693 0.655 17.2693"></polygon>
    </defs>
    <g id="Page-1" stroke="none" stroke-width="1" fill="none" fill-rule="evenodd">
        <g id="logo_harvardlibrary">
            <g id="Clipped" transform="translate(0.000000, 75.000000)">
                <mask id="mask-2" fill="white">
                    <use xlink:href="#path-1"></use>
                </mask>
                <g id="Path"></g>
                <g id="Group" mask="url(#mask-2)">
                    <g transform="translate(44.000000, -24.000000)">
                        <path d="M3.5112,3.707 L38.5965,3.707 L38.5965,16.9517 C38.5965,23.0176 36.3339,35.888 21.185,45.4643 C21.185,45.4643 4.767,38.6151 3.5112,16.9517 L3.5112,3.707 Z" id="Path" stroke="#979797" stroke-width="1" fill="#B0263D" fill-rule="evenodd"></path>
                        <path d="M0.5542,0.75 L41.5535,0.75 L41.5535,16.9517 C41.5535,28.0288 36.0767,39.5488 22.765,47.9637 L21.4654,48.7852 L20.0465,48.1933 C19.3401,47.8986 18.2176,47.323 16.8171,46.4262 C14.5322,44.9632 12.2566,43.0999 10.1343,40.794 C4.6409,34.825 1.1305,26.9788 0.5592,17.1228 L0.5542,16.9517 L0.5542,0.75 Z" id="Path" stroke="#FFFFFF" stroke-width="5" fill="none"></path>
                        <path d="M3.7561,3.9521 L3.7561,16.9516 C4.9336,37.2506 19.7036,44.5178 21.1647,45.1863 C36.6726,35.3253 38.3504,22.1622 38.3504,16.9516 L38.3504,3.9521 L3.7561,3.9521 Z M21.2084,45.7398 L21.0903,45.6908 C20.9249,45.6219 4.5157,38.5329 3.2651,16.9661 L3.2651,3.4609 L38.8416,3.4609 L38.8416,16.9516 C38.8416,22.2558 37.1341,35.6723 21.3163,45.672 L21.2084,45.7398 Z" id="Shape" stroke="none" fill="#000000" fill-rule="evenodd"></path>
                        <path d="M30.3901,21.2739 C30.3901,21.2739 30.0773,22.2687 28.6844,21.2458 L23.9085,21.1315 C23.9085,21.1315 23.2831,21.3306 23.1979,20.6769 C23.1979,20.6769 23.3115,19.3694 23.2548,19.2554 C23.2548,19.2554 23.2831,18.8859 22.6582,18.8859 C22.6582,18.8859 21.6915,18.9993 21.6629,18.147 C21.6629,18.147 21.4922,17.2365 22.8282,17.2657 C22.8282,17.2657 23.2548,17.4643 23.2831,16.9241 C23.2831,16.9241 23.2265,13.2285 23.2548,12.9445 C23.2548,12.9445 23.3686,12.6034 22.7147,12.5463 C22.7147,12.5463 21.7767,12.7457 21.6629,12.1201 C21.6629,12.1201 21.6063,11.1815 22.2316,11.1248 C22.2316,11.1248 22.9989,11.1815 23.1415,10.9832 C23.1415,10.9832 23.3115,11.0965 23.2831,10.4147 L23.3115,9.2489 C23.3115,9.2489 23.3969,8.9361 23.8804,8.9642 C23.8804,8.9642 24.7617,9.0213 24.8748,8.9361 C24.8748,8.9361 25.0741,8.6798 25.1309,8.5664 C25.1309,8.5664 25.5859,8.5381 25.6713,8.6516 C25.6713,8.6516 26.3534,9.1063 28.9406,8.9361 C28.9406,8.9361 29.3386,8.9361 29.4234,9.0499 C29.4234,9.0499 29.9073,9.4191 30.1911,9.0213 C30.1911,9.0213 30.6177,8.9361 31.8968,8.9642 C31.8968,8.9642 33.2901,9.3339 34.2566,8.5381 L34.5692,8.5948 C34.5692,8.5948 34.967,9.2489 35.2512,9.0499 C35.2512,9.0499 36.1044,8.9642 36.2465,9.1345 C36.2465,9.1345 36.531,9.561 36.3889,10.6701 C36.3889,10.6701 36.218,11.1534 37.0428,11.1534 C37.0428,11.1534 37.9803,10.9832 37.8668,11.8642 C37.8668,11.8642 38.1224,12.8591 36.5593,12.7165 C36.5593,12.7165 36.3603,13.0012 36.3889,13.2004 C36.3889,13.2004 36.3603,16.4411 36.3317,16.8106 C36.3317,16.8106 36.3034,17.3222 36.9859,17.2941 C36.9859,17.2941 37.8951,17.2365 37.9239,18.0613 C37.9239,18.0613 38.0372,19.1416 36.7296,18.9426 C36.7296,18.9426 36.3317,18.9993 36.2746,19.2554 L36.218,20.6769 C36.218,20.6769 36.2465,21.3875 35.4502,21.217 C35.3367,21.217 31.0159,21.3025 30.6465,21.1887 C30.6465,21.1887 30.4472,21.1603 30.3901,21.2739 Z M21.1594,26.0944 C21.1594,26.0944 21.358,26.0091 21.4151,25.8666 C21.4151,25.8666 22.0115,25.8099 22.0969,25.7251 L23.974,25.8666 C23.974,25.8666 25.8211,26.0091 26.6172,25.4402 C26.6172,25.4402 26.9016,25.4402 27.1006,25.5259 C27.1006,25.5259 27.4982,25.6113 27.6122,25.7811 L28.6923,25.7528 C28.6923,25.7528 29.3179,25.9513 29.2608,26.3507 L29.2608,26.8616 C29.2608,26.8616 29.1472,27.8846 29.4319,27.9424 L30.2556,27.9424 C30.2556,27.9424 30.9384,28.2552 30.8531,28.6534 C30.8531,28.6534 30.8812,29.2215 30.2844,29.3348 C30.2844,29.3348 29.6874,29.5053 29.4886,29.4774 C29.4886,29.4774 29.2896,29.7335 29.2608,30.0461 L29.1762,33.7693 C29.1762,33.7693 29.1194,34.1676 29.7157,34.1114 C29.7157,34.1114 30.5968,34.0259 30.8531,34.509 C30.8531,34.509 31.0803,35.3336 30.6256,35.4762 L30.2844,35.6464 L29.5455,35.7602 C29.5455,35.7602 29.2327,35.7887 29.2039,36.3282 L29.2039,37.3233 C29.2039,37.3233 29.2327,38.0058 28.6923,38.0058 L27.8967,38.0629 C27.8967,38.0629 27.6975,38.2327 27.2997,38.1191 C27.2997,38.1191 22.4671,38.2048 22.2962,38.1479 L21.7275,38.2617 C21.7275,38.2617 21.1021,38.8299 20.5903,38.4031 L20.1927,38.0901 C20.1927,38.0901 19.908,38.1479 19.7947,38.1191 C19.6809,38.0901 14.4503,38.1767 14.4503,38.1767 C14.4503,38.1767 13.3414,38.2905 13.2564,37.9199 C13.2564,37.9199 13.1136,36.4708 13.1708,36.2996 C13.1708,36.2996 13.1708,35.8735 12.9153,35.8456 C12.9153,35.8456 11.8067,35.7887 11.7777,35.674 C11.7777,35.674 11.1806,35.2488 11.3513,34.8215 C11.3513,34.8215 11.5505,34.253 12.1478,34.1962 C12.1478,34.1962 13.0572,34.339 13.0572,34.0826 C13.0572,34.0826 13.1136,33.9117 13.1136,33.6284 C13.1136,33.6284 13.1708,30.2451 13.1424,30.0182 C13.1424,30.0182 13.2279,29.5919 12.8577,29.5919 C12.8577,29.5919 12.4606,29.7041 12.204,29.534 C12.204,29.534 11.5222,29.5628 11.3803,29.022 C11.3803,29.022 11.2661,28.6809 11.4367,28.3966 C11.4367,28.3966 11.7495,27.771 12.6589,27.9709 C12.6589,27.9709 13.1708,28.1126 13.2279,27.7431 L13.1989,26.3786 C13.1989,26.3786 13.0855,26.0091 13.7964,25.8099 C13.7964,25.8099 14.706,26.0658 14.9902,25.6113 C14.9902,25.6113 15.3035,24.9859 15.5587,25.4125 C15.5587,25.4125 16.0989,25.9239 17.577,25.8666 C17.577,25.8666 20.1356,25.6675 20.1927,25.7811 C20.1927,25.7811 20.8176,25.8666 20.9885,26.0658 L21.1594,26.0944 Z M13.392,21.343 C13.392,21.343 13.0794,22.338 11.6863,21.3142 L6.9102,21.2004 C6.9102,21.2004 6.2852,21.3996 6.2,20.7459 C6.2,20.7459 6.3133,19.4385 6.2564,19.3247 C6.2564,19.3247 6.2852,18.9546 5.6599,18.9546 C5.6599,18.9546 4.6931,19.069 4.6648,18.2156 C4.6648,18.2156 4.4941,17.3058 5.8301,17.3341 C5.8301,17.3341 6.2564,17.5336 6.2852,16.9936 C6.2852,16.9936 6.2283,13.2974 6.2564,13.0136 C6.2564,13.0136 6.3705,12.6727 5.7163,12.6156 C5.7163,12.6156 4.7786,12.8143 4.6648,12.189 C4.6648,12.189 4.6077,11.251 5.2333,11.1941 C5.2333,11.1941 6.0008,11.251 6.1427,11.0518 C6.1427,11.0518 6.3133,11.1658 6.2852,10.4828 L6.3133,9.3175 C6.3133,9.3175 6.399,9.0047 6.8821,9.0333 C6.8821,9.0333 7.7631,9.0897 7.8771,9.0047 C7.8771,9.0047 8.0759,8.7495 8.133,8.6355 C8.133,8.6355 8.5877,8.6072 8.6732,8.7205 C8.6732,8.7205 9.355,9.1754 11.9422,9.0047 C11.9422,9.0047 12.3404,9.0047 12.4254,9.119 C12.4254,9.119 12.9092,9.4882 13.1934,9.0897 C13.1934,9.0897 13.6193,9.0047 14.8986,9.0333 C14.8986,9.0333 16.2917,9.4025 17.2587,8.6072 L17.5713,8.6643 C17.5713,8.6643 17.9686,9.3175 18.2531,9.119 C18.2531,9.119 19.1063,9.0333 19.2482,9.2042 C19.2482,9.2042 19.5326,9.6308 19.3903,10.7392 C19.3903,10.7392 19.2196,11.2227 20.0447,11.2227 C20.0447,11.2227 20.9819,11.0518 20.8686,11.9331 C20.8686,11.9331 21.1243,12.9284 19.5605,12.7862 C19.5605,12.7862 19.3619,13.0703 19.3903,13.269 C19.3903,13.269 19.3619,16.5099 19.3334,16.8794 C19.3334,16.8794 19.3053,17.391 19.9876,17.3629 C19.9876,17.3629 20.8969,17.3058 20.9257,18.1308 C20.9257,18.1308 21.0388,19.2109 19.7316,19.0117 C19.7316,19.0117 19.3334,19.069 19.2765,19.3247 L19.2196,20.7459 C19.2196,20.7459 19.2482,21.4567 18.4523,21.2861 C18.3388,21.2861 14.0176,21.3711 13.6483,21.2577 C13.6483,21.2577 13.4489,21.2287 13.392,21.343 Z" id="Shape" stroke="none" fill="#FFFFFF" fill-rule="evenodd"></path>
                        <path d="M30.9665,12.336 C30.881,12.1084 31.4497,12.0801 31.4497,12.0801 L31.7335,12.1365 C31.9325,12.1084 32.1318,12.1934 32.1318,12.1934 C32.331,12.506 31.9897,12.6771 31.9897,12.6771 L31.8761,13.0466 C31.848,13.3596 31.8761,16.0595 31.8761,16.0595 C31.9325,16.202 32.1601,16.4579 32.1601,16.4579 C32.1601,16.7134 31.848,16.6567 31.848,16.6567 L31.0234,16.6851 C30.7672,16.6567 30.8522,16.3729 30.8522,16.3729 C31.1367,16.2304 31.2224,15.7186 31.2224,15.7186 L31.2224,12.9042 L30.9665,12.336 Z M27.1567,12.734 C27.1853,13.3596 27.1853,14.2116 27.1853,14.2116 C27.7257,14.6382 28.038,14.0414 28.038,14.0414 C28.7488,13.3596 28.038,12.734 27.9244,12.5631 C27.8109,12.3928 27.2422,12.5347 27.2422,12.5347 L27.1567,12.734 Z M27.1282,14.9793 L27.0719,15.8611 L27.3279,16.2874 C27.4985,16.515 27.2136,16.6853 27.2136,16.6853 L26.304,16.5998 C26.1338,16.515 26.304,16.2303 26.304,16.2303 C26.5316,16.0889 26.5601,15.7185 26.5601,15.7185 L26.5316,14.07 L26.5601,12.8759 C26.5601,12.734 26.3328,12.4774 26.3328,12.4774 C26.1338,12.4495 26.19,12.1934 26.19,12.1934 C26.2471,12.0512 26.7304,12.1365 26.7304,12.1365 L27.9244,12.1365 C29.0616,12.5059 28.8905,13.3306 28.8905,13.3306 C28.976,14.1552 28.0951,14.4963 28.0951,14.4963 L28.038,14.951 L28.8624,16.2587 C29.0045,16.3729 28.976,16.486 28.976,16.486 C28.8624,16.799 28.4077,16.486 28.4077,16.486 L27.3838,14.8941 C27.2991,14.7803 27.1282,14.9793 27.1282,14.9793 Z M21.1596,26.0948 C21.1596,26.0948 21.3582,26.0096 21.4153,25.867 C21.4153,25.867 22.0117,25.8103 22.0971,25.7255 L23.9742,25.867 C23.9742,25.867 25.8213,26.0096 26.6174,25.4406 C26.6174,25.4406 26.9018,25.4406 27.1008,25.5263 C27.1008,25.5263 27.4984,25.6118 27.6124,25.7815 L28.6925,25.7532 C28.6925,25.7532 29.3181,25.9518 29.261,26.3512 L29.261,26.8621 C29.261,26.8621 29.1474,27.885 29.4321,27.9428 L30.2558,27.9428 C30.2558,27.9428 30.9386,28.2556 30.8533,28.6539 C30.8533,28.6539 30.8814,29.2219 30.2846,29.3352 C30.2846,29.3352 29.6876,29.5057 29.4888,29.4778 C29.4888,29.4778 29.2898,29.7339 29.261,30.0465 L29.1764,33.7698 C29.1764,33.7698 29.1195,34.168 29.7159,34.1118 C29.7159,34.1118 30.597,34.0264 30.8533,34.5094 C30.8533,34.5094 31.0805,35.334 30.6258,35.4766 L30.2846,35.6468 L29.5457,35.7606 C29.5457,35.7606 29.2329,35.7892 29.2041,36.3286 L29.2041,37.3237 C29.2041,37.3237 29.2329,38.0062 28.6925,38.0062 L27.8969,38.0633 C27.8969,38.0633 27.6977,38.2331 27.2999,38.1195 C27.2999,38.1195 22.4673,38.2052 22.2964,38.1483 L21.7277,38.2621 C21.7277,38.2621 21.1023,38.8304 20.5905,38.4036 L20.1929,38.0905 C20.1929,38.0905 19.9082,38.1483 19.7949,38.1195 C19.6811,38.0905 14.4505,38.1771 14.4505,38.1771 C14.4505,38.1771 13.3416,38.2909 13.2566,37.9203 C13.2566,37.9203 13.1138,36.4712 13.171,36.3001 C13.171,36.3001 13.1709,35.8739 12.9155,35.8461 C12.9155,35.8461 11.8069,35.7892 11.7778,35.6745 C11.7778,35.6745 11.1808,35.2492 11.3515,34.822 C11.3515,34.822 11.5507,34.2535 12.148,34.1966 C12.148,34.1966 13.0574,34.3394 13.0574,34.083 C13.0574,34.083 13.1138,33.9121 13.1138,33.6288 C13.1138,33.6288 13.1709,30.2455 13.1426,30.0186 C13.1426,30.0186 13.2281,29.5923 12.8579,29.5923 C12.8579,29.5923 12.4608,29.7045 12.2042,29.5345 C12.2042,29.5345 11.5224,29.5633 11.3805,29.0224 C11.3805,29.0224 11.2663,28.6813 11.4369,28.3971 C11.4369,28.3971 11.7497,27.7715 12.6591,27.9714 C12.6591,27.9714 13.171,28.113 13.2281,27.7436 L13.1991,26.379 C13.1991,26.379 13.0857,26.0096 13.7966,25.8103 C13.7966,25.8103 14.7062,26.0662 14.9904,25.6118 C14.9904,25.6118 15.3037,24.9864 15.5589,25.413 C15.5589,25.413 16.099,25.9243 17.5772,25.867 C17.5772,25.867 20.1358,25.668 20.1929,25.7815 C20.1929,25.7815 20.8178,25.867 20.9887,26.0662 L21.1596,26.0948 Z" id="Shape" stroke="none" fill="#000000" fill-rule="evenodd"></path>
                        <path d="M21.1597,26.0944 C21.1597,26.0944 21.3582,26.0092 21.4153,25.8666 C21.4153,25.8666 22.0117,25.81 22.0971,25.7252 L23.9742,25.8666 C23.9742,25.8666 25.8213,26.0092 26.6174,25.4403 C26.6174,25.4403 26.9018,25.4403 27.1009,25.5259 C27.1009,25.5259 27.4984,25.6114 27.6124,25.7812 L28.6925,25.7528 C28.6925,25.7528 29.3181,25.9514 29.261,26.3508 L29.261,26.8617 C29.261,26.8617 29.1474,27.8847 29.4321,27.9425 L30.2559,27.9425 C30.2559,27.9425 30.9386,28.2553 30.8533,28.6535 C30.8533,28.6535 30.8815,29.2216 30.2846,29.3349 C30.2846,29.3349 29.6876,29.5053 29.4888,29.4775 C29.4888,29.4775 29.2898,29.7336 29.261,30.0462 L29.1765,33.7694 C29.1765,33.7694 29.1196,34.1677 29.7159,34.1115 C29.7159,34.1115 30.597,34.026 30.8533,34.5091 C30.8533,34.5091 31.0805,35.3337 30.6258,35.4762 L30.2846,35.6465 L29.5457,35.7603 C29.5457,35.7603 29.2329,35.7888 29.2041,36.3283 L29.2041,37.3234 C29.2041,37.3234 29.2329,38.0059 28.6925,38.0059 L27.8969,38.063 C27.8969,38.063 27.6977,38.2328 27.2999,38.1192 C27.2999,38.1192 22.4673,38.2049 22.2964,38.148 L21.7277,38.2618 C21.7277,38.2618 21.1023,38.83 20.5905,38.4032 L20.1929,38.0902 C20.1929,38.0902 19.9082,38.148 19.7949,38.1192 C19.6811,38.0902 14.4505,38.1768 14.4505,38.1768 C14.4505,38.1768 13.3416,38.2906 13.2566,37.92 C13.2566,37.92 13.1138,36.4709 13.171,36.2997 C13.171,36.2997 13.171,35.8736 12.9155,35.8457 C12.9155,35.8457 11.8069,35.7888 11.7778,35.6741 C11.7778,35.6741 11.1808,35.2489 11.3515,34.8216 C11.3515,34.8216 11.5507,34.2531 12.148,34.1962 C12.148,34.1962 13.0574,34.339 13.0574,34.0827 C13.0574,34.0827 13.1138,33.9118 13.1138,33.6284 C13.1138,33.6284 13.171,30.2452 13.1426,30.0183 C13.1426,30.0183 13.2281,29.5919 12.8579,29.5919 C12.8579,29.5919 12.4608,29.7041 12.2042,29.5341 C12.2042,29.5341 11.5224,29.5629 11.3805,29.0221 C11.3805,29.0221 11.2663,28.6809 11.4369,28.3967 C11.4369,28.3967 11.7497,27.7711 12.6591,27.971 C12.6591,27.971 13.171,28.1127 13.2281,27.7432 L13.1991,26.3787 C13.1991,26.3787 13.0857,26.0092 13.7966,25.81 C13.7966,25.81 14.7062,26.0659 14.9904,25.6114 C14.9904,25.6114 15.3037,24.986 15.5589,25.4126 C15.5589,25.4126 16.0991,25.924 17.5772,25.8666 C17.5772,25.8666 20.1358,25.6676 20.1929,25.7812 C20.1929,25.7812 20.8178,25.8666 20.9887,26.0659 L21.1597,26.0944 Z" id="Path" stroke="#000000" stroke-width="1.084" fill="none"></path>
                        <path d="M21.8987,37.2667 C21.8987,37.2667 22.2396,37.0956 22.4674,37.1529 C22.6945,37.2096 26.0213,37.1244 26.0213,37.1244 C26.0213,37.1244 27.4706,37.2384 27.6977,37.0398 L28.0389,36.9249 C28.0389,36.9249 28.1805,36.7556 28.1805,36.5278 C28.1805,36.2997 28.2098,35.5331 28.2098,35.5331 L28.2943,35.2489 C28.2943,35.2489 28.266,34.9635 28.2943,27.3736 C28.2943,27.3736 28.4083,26.7761 28.0389,26.4073 C28.0389,26.4073 28.0389,26.1795 28.1527,26.2085 C28.266,26.2371 28.2098,26.237 28.2098,26.237 C28.2098,26.237 28.7211,26.0945 28.8066,26.293 C28.8066,26.293 29.0339,26.9751 28.8349,27.3736 C28.8349,27.3736 28.778,28.1977 29.2042,28.1977 C29.2042,28.1977 29.3749,28.3689 29.716,28.2832 C29.716,28.2832 30.4552,28.3689 30.4552,28.596 C30.4552,28.596 30.4551,29.1078 29.9433,29.0221 L29.2611,29.079 C29.2611,29.079 28.8066,29.1647 28.8635,29.7042 C28.9204,30.245 28.8349,34.1115 28.8349,34.1115 C28.8349,34.1115 28.8349,34.5669 29.5458,34.5381 C29.5458,34.5381 30.427,34.5091 30.427,34.7654 C30.427,34.7654 30.6542,35.3337 30.0288,35.3627 C30.0288,35.3627 28.8349,35.3337 28.9204,35.6741 C28.9204,35.6741 28.8349,36.4709 28.778,36.6123 C28.778,36.6123 28.8918,37.2667 28.7492,37.38 C28.7492,37.38 28.6647,37.7504 27.897,37.6928 C27.897,37.6928 23.0075,37.665 22.2396,37.7216 C22.2396,37.7216 21.7847,37.665 21.8987,37.2667 Z M21.0178,36.7262 C21.0178,36.7262 21.5008,36.8119 21.5008,37.2668 C21.5008,37.7217 21.5292,37.9778 21.2447,38.0343 C20.9604,38.0903 20.6479,38.0059 20.5624,37.636 C20.477,37.2668 20.6195,36.8119 21.0178,36.7262 Z" id="Shape" stroke="none" fill="#FFFFFF" fill-rule="evenodd"></path>
                        <path d="M21.5864,36.4987 C21.5864,36.4987 22.0975,36.1582 22.2968,36.2144 C22.2968,36.2144 24.8837,36.3849 25.6796,36.2434 C26.4761,36.1004 25.9921,36.2144 25.9921,36.2144 C25.9921,36.2144 26.6749,36.2144 26.8734,35.9587 C26.8734,35.9587 27.0724,35.9018 27.1862,36.1004 L27.6128,36.5562 C27.6128,36.5562 27.6412,36.8402 27.1579,36.8117 C27.1579,36.8117 22.5239,36.8117 22.3822,36.8402 C22.3822,36.8402 21.5009,36.9817 21.5864,36.4987 Z" id="Path" stroke="none" fill="#FFFFFF" fill-rule="evenodd"></path>
                        <path d="M21.5864,36.4987 C21.5864,36.4987 22.0975,36.1582 22.2968,36.2144 C22.2968,36.2144 24.8837,36.3849 25.6796,36.2434 C26.4761,36.1004 25.9921,36.2144 25.9921,36.2144 C25.9921,36.2144 26.6749,36.2144 26.8734,35.9587 C26.8734,35.9587 27.0724,35.9018 27.1862,36.1004 L27.6128,36.5562 C27.6128,36.5562 27.6412,36.8402 27.1579,36.8117 C27.1579,36.8117 22.5239,36.8117 22.3822,36.8402 C22.3822,36.8402 21.5009,36.9817 21.5864,36.4987 Z" id="Path" stroke="#000000" stroke-width="0.542" fill="none"></path>
                        <path d="M14.8483,26.4072 C14.8483,26.4072 15.0473,26.4072 15.019,26.7486 L14.9628,35.3336 C14.9628,35.3336 15.0473,35.9021 14.564,36.2721 C14.564,36.2721 14.3086,36.5842 14.3086,36.1007 L14.4217,27.3456 C14.4217,27.3456 14.4507,26.6912 14.8483,26.4072 Z" id="Path" stroke="none" fill="#FFFFFF" fill-rule="evenodd"></path>
                        <path d="M14.8483,26.4072 C14.8483,26.4072 15.0473,26.4072 15.019,26.7486 L14.9628,35.3336 C14.9628,35.3336 15.0473,35.9021 14.564,36.2721 C14.564,36.2721 14.3086,36.5842 14.3086,36.1007 L14.4217,27.3456 C14.4217,27.3456 14.4507,26.6912 14.8483,26.4072 Z" id="Path" stroke="#000000" stroke-width="0.542" fill="none"></path>
                        <path d="M14.3938,26.4635 C14.3938,26.4635 14.0522,27.0893 14.0814,27.2319 L14.0522,29.1364 C14.0522,29.1364 14.0241,30.359 14.0522,30.5012 C14.0814,30.6426 14.0241,34.2255 14.0241,34.2255 C14.0241,34.2255 13.996,34.9076 14.0241,35.1352 L14.0241,36.6704 C14.0241,36.6704 13.967,37.3527 14.4788,37.1811 C14.4788,37.1811 19.4822,37.0684 19.795,37.1532 C19.795,37.1532 20.2495,37.2386 20.0786,37.4662 C20.0786,37.4662 20.0786,37.6652 19.7669,37.6086 C19.7669,37.6086 17.4071,37.8357 15.2753,37.7507 C15.2753,37.7507 13.8536,37.8357 13.7682,37.6652 C13.7682,37.6652 13.5401,37.6362 13.5401,36.8121 C13.5401,36.8121 13.5401,36.045 13.4839,35.9024 C13.4839,35.9024 13.5401,35.5046 12.8302,35.419 C12.8302,35.419 11.8349,35.5896 11.807,34.9926 C11.807,34.9926 11.9489,34.5671 12.9157,34.6233 C12.9157,34.6233 13.6258,34.7371 13.4839,34.168 L13.5696,29.9617 C13.5696,29.9617 13.6548,29.2218 13.1711,29.1926 C13.1711,29.1926 12.7162,29.165 12.5739,29.2218 C12.5739,29.2218 11.7499,29.2218 11.807,28.7386 C11.807,28.7386 12.0908,28.2268 12.9157,28.3406 C12.9157,28.3406 13.5401,28.4546 13.5696,27.7435 C13.5696,27.7435 13.5401,26.2933 13.8822,26.2373 C13.8822,26.2373 14.5923,26.265 14.3938,26.4635 Z" id="Path" stroke="none" fill="#FFFFFF" fill-rule="evenodd"></path>
                        <path d="M15.2469,35.874 C15.2469,35.874 15.6447,36.3004 16.2981,36.2725 L20.1642,36.3289 C20.1642,36.3289 20.5905,36.3577 20.5624,36.5849 C20.5624,36.5849 20.5058,36.9255 19.994,36.8124 L15.3319,36.7562 L14.8203,36.7846 C14.8203,36.7846 14.4789,36.7267 15.0191,36.0733 L15.2469,35.874 Z" id="Path" stroke="none" fill="#FFFFFF" fill-rule="evenodd"></path>
                        <path d="M15.2469,35.874 C15.2469,35.874 15.6447,36.3004 16.2981,36.2725 L20.1642,36.3289 C20.1642,36.3289 20.5905,36.3577 20.5624,36.5849 C20.5624,36.5849 20.5058,36.9255 19.994,36.8124 L15.3319,36.7562 L14.8203,36.7846 C14.8203,36.7846 14.4789,36.7267 15.0191,36.0733 L15.2469,35.874 Z" id="Path" stroke="#000000" stroke-width="0.542" fill="none"></path>
                        <path d="M27.186,35.5051 C27.186,35.5051 27.5272,36.1593 27.6979,36.2445 C27.6979,36.2445 28.0104,36.6133 27.9254,35.9598 L27.9823,27.7721 C27.9823,27.7721 27.8971,27.4879 27.9823,27.0339 L27.641,26.408 C27.641,26.408 27.2715,26.124 27.2715,26.578 L27.2144,35.3057 L27.186,35.5051 Z" id="Path" stroke="none" fill="#FFFFFF" fill-rule="evenodd"></path>
                        <path d="M27.186,35.5051 C27.186,35.5051 27.5272,36.1593 27.6979,36.2445 C27.6979,36.2445 28.0104,36.6133 27.9254,35.9598 L27.9823,27.7721 C27.9823,27.7721 27.8971,27.4879 27.9823,27.0339 L27.641,26.408 C27.641,26.408 27.2715,26.124 27.2715,26.578 L27.2144,35.3057 L27.186,35.5051 Z" id="Path" stroke="#000000" stroke-width="0.542" fill="none"></path>
                        <path d="M20.8749,31.6071 C20.8749,31.6071 20.903,32.2901 20.8178,32.9433 C20.7716,33.2992 20.9318,34.9621 20.7893,35.8136 C20.7893,35.8136 20.7612,36.0988 20.1639,35.8424 C20.1639,35.8424 16.5256,35.9286 16.4118,35.8136 C16.4118,35.8136 15.4165,35.8424 15.3315,35.3311 C15.3315,35.3311 15.4737,31.4367 15.388,31.2939 C15.388,31.2939 15.3315,29.1621 15.388,28.963 C15.388,28.963 15.4737,27.0024 15.4165,26.7743 C15.4165,26.7743 15.4451,26.319 15.3596,26.0916 C15.3596,26.0916 15.3596,25.8071 15.8434,25.9785 C15.8434,25.9785 16.0136,26.2911 16.9515,26.1487 C16.9515,26.1487 17.6338,26.2625 18.288,26.1773 C18.288,26.1773 19.7373,26.0637 20.1077,26.1773 C20.1077,26.1773 20.6757,26.0637 20.8466,26.6891 L20.8178,28.4512 L20.9885,29.0206 L21.1877,28.8776 L21.2727,28.4512 L21.3013,26.5756 C21.3013,26.5756 21.4151,26.234 21.87,26.1773 C21.87,26.1773 22.5799,26.0916 22.6942,26.1487 C22.808,26.2056 24.3432,26.2911 24.7696,26.2056 C25.1959,26.12 25.2811,26.4903 26.5602,25.8359 C26.5602,25.8359 26.9018,25.8645 26.9018,26.0916 C26.9018,26.0916 26.7878,28.5088 26.9018,28.963 C26.9018,28.963 26.9018,33.3971 26.8164,33.7108 L26.873,35.1321 C26.873,35.1321 26.9304,35.7577 25.9353,35.8136 C25.9353,35.8136 26.5602,35.9 22.6373,35.7862 C22.6373,35.7862 22.0117,35.7577 21.3296,36.07 C21.3296,36.07 21.1877,36.0412 21.1877,35.6727 C21.1877,35.6727 21.3013,34.3362 21.1877,33.0283 L21.1304,31.5795 L20.8749,31.6071 Z" id="Path" stroke="none" fill="#FFFFFF" fill-rule="evenodd"></path>
                        <path d="M18.3161,29.5921 C18.3161,29.5921 18.4011,31.6951 18.3161,31.9791 L18.2878,32.4345 C18.2878,32.4345 18.4011,32.7464 18.5723,32.8606 C18.5723,32.8606 18.7146,33.258 18.3733,33.2301 C18.3733,33.2301 17.6624,33.1732 17.4922,33.202 C17.4922,33.202 17.0939,33.202 17.4922,32.6902 C17.4922,32.6902 17.6339,32.4911 17.6058,31.9791 C17.6058,31.9791 17.6058,29.5921 17.6624,29.4495 C17.6624,29.4495 17.7193,29.1362 17.5205,29.051 L17.1789,29.0791 L16.7528,29.4776 C16.7528,29.4776 16.6674,29.9037 16.4683,29.4495 L16.4683,29.2217 L16.7245,28.5392 L16.8952,28.5106 C16.8952,28.5106 17.1511,28.6811 17.3782,28.7384 L18.7146,28.7384 L19.1977,28.5106 C19.1977,28.5106 19.3962,28.5392 19.34,28.7951 C19.34,28.7951 19.4248,29.4495 19.0553,29.5343 C19.0553,29.5343 18.8282,29.4495 18.7146,29.1362 C18.7146,29.1362 18.3447,28.9377 18.3161,29.5921 Z M24.599,28.8237 C24.599,28.8237 23.5189,28.7385 23.4899,29.9038 C23.4899,29.9038 23.3763,30.7003 24.5704,31.2123 C24.5704,31.2123 25.4519,31.6387 25.395,32.1782 C25.395,32.1782 25.2812,33.1454 24.3431,32.6612 C24.3431,32.6612 23.8881,32.4345 23.9162,32.1782 C23.9162,32.1782 23.7746,31.8656 23.6037,31.9225 C23.6037,31.9225 23.4049,31.9792 23.4899,32.9178 C23.4899,32.9178 23.4899,33.287 23.9162,32.9178 L24.1441,32.9738 C24.1441,32.9738 24.9118,33.5994 25.5653,32.8317 C25.5653,32.8317 26.2761,32.1782 25.7645,31.3823 C25.7645,31.3823 25.395,30.813 24.7415,30.5289 C24.7415,30.5289 24.1155,30.2452 23.9738,29.7624 C23.9738,29.7624 24.1728,28.9087 24.9401,29.3643 C24.9401,29.3643 25.2243,29.7043 25.395,29.7624 C25.395,29.7624 25.6228,29.7623 25.5653,29.2503 L25.5088,28.8237 C25.5088,28.8237 25.4519,28.5105 25.0541,28.8237 C25.0541,28.8237 24.6842,28.9661 24.599,28.8237 Z M20.6757,30.1027 C20.6473,30.2453 20.4485,31.0411 20.4485,31.0411 L20.6192,31.3251 C20.6192,31.3251 21.0741,31.3537 21.2444,31.3537 C21.4151,31.3537 21.4432,31.2125 21.4432,31.0699 C21.4432,30.9285 21.1304,30.0748 21.1304,30.0748 L20.9885,29.9037 L20.6757,30.1027 Z M21.1304,28.2268 C21.3296,28.3692 21.3582,28.6536 21.3582,28.6536 C21.9269,30.1596 22.4101,32.3497 22.4101,32.3497 C22.5527,32.6335 22.8079,32.8606 22.8079,32.8606 C23.291,33.0315 22.8079,33.1732 22.8079,33.1732 C22.6089,33.2579 21.9554,33.1455 21.9554,33.1455 C21.6138,33.0882 21.7562,32.9737 21.7562,32.9737 C21.8983,32.8316 21.7843,32.2635 21.7843,32.2635 C21.7562,32.0357 21.5005,31.666 21.5005,31.666 C21.3867,31.6098 21.1877,31.8655 21.1877,31.8655 C21.1877,31.8655 20.8749,31.9791 20.8466,31.8655 C20.8176,31.7517 20.6192,31.6386 20.6192,31.6386 C20.2783,31.6386 20.1357,32.4911 20.1357,32.4911 C20.3348,33.2019 20.1357,33.0882 20.1357,33.0882 C19.9653,33.3162 19.4247,33.1455 19.4247,33.1455 C19.1695,33.0882 19.3399,32.8885 19.3399,32.8885 C19.6527,32.8316 19.7373,32.4911 19.7373,32.4911 C19.8798,32.2919 20.7892,28.5963 20.7892,28.5963 C20.8749,28.426 20.9318,28.0842 21.1304,28.2268 Z M13.392,21.3432 C13.392,21.3432 13.0794,22.3383 11.6863,21.3144 L6.9102,21.2007 C6.9102,21.2007 6.2852,21.3999 6.2,20.7462 C6.2,20.7462 6.3133,19.4388 6.2564,19.325 C6.2564,19.325 6.2852,18.9548 5.6599,18.9548 C5.6599,18.9548 4.6931,19.0693 4.6648,18.2159 C4.6648,18.2159 4.4941,17.306 5.8301,17.3344 C5.8301,17.3344 6.2564,17.5338 6.2852,16.9939 C6.2852,16.9939 6.2283,13.2976 6.2564,13.0139 C6.2564,13.0139 6.3705,12.6729 5.7163,12.6158 C5.7163,12.6158 4.7786,12.8146 4.6648,12.1892 C4.6648,12.1892 4.6077,11.2513 5.2333,11.1944 C5.2333,11.1944 6.0008,11.2513 6.1427,11.052 C6.1427,11.052 6.3133,11.1661 6.2852,10.4831 L6.3133,9.3178 C6.3133,9.3178 6.399,9.005 6.8821,9.0336 C6.8821,9.0336 7.7631,9.09 7.8771,9.005 C7.8771,9.005 8.0759,8.7498 8.133,8.6358 C8.133,8.6358 8.5877,8.6074 8.6732,8.7208 C8.6732,8.7208 9.355,9.1757 11.9422,9.005 C11.9422,9.005 12.3404,9.005 12.4254,9.1192 C12.4254,9.1192 12.9092,9.4885 13.1934,9.09 C13.1934,9.09 13.6193,9.005 14.8986,9.0336 C14.8986,9.0336 16.2917,9.4028 17.2587,8.6074 L17.5713,8.6645 C17.5713,8.6645 17.9686,9.3178 18.2531,9.1192 C18.2531,9.1192 19.1063,9.0336 19.2482,9.2045 C19.2482,9.2045 19.5326,9.6311 19.3903,10.7395 C19.3903,10.7395 19.2196,11.2229 20.0447,11.2229 C20.0447,11.2229 20.9819,11.052 20.8686,11.9333 C20.8686,11.9333 21.1243,12.9286 19.5605,12.7865 C19.5605,12.7865 19.3619,13.0705 19.3903,13.2693 C19.3903,13.2693 19.3619,16.5102 19.3334,16.8797 C19.3334,16.8797 19.3053,17.3913 19.9875,17.3632 C19.9875,17.3632 20.8969,17.306 20.9257,18.1311 C20.9257,18.1311 21.0388,19.2112 19.7316,19.0119 C19.7316,19.0119 19.3334,19.0693 19.2765,19.325 L19.2196,20.7462 C19.2196,20.7462 19.2482,21.457 18.4523,21.2863 C18.3388,21.2863 14.0176,21.3713 13.6483,21.258 C13.6483,21.258 13.4489,21.229 13.392,21.3432 Z" id="Shape" stroke="none" fill="#000000" fill-rule="evenodd"></path>
                    </g>
                </g>
            </g>
            <path d="M58.5011,2.46294 C58.1316,1.64966 57.5636,1.05601 56.6073,0.843854 L56.6073,0.369664 C57.2048,0.369664 59.1833,0.441518 59.6387,0.441518 C60.0574,0.441518 61.9752,0.369664 62.5865,0.369664 L62.5865,0.83184 C62.0446,0.937468 61.4224,1.2403 61.4224,1.79881 C61.4224,2.1923 61.6679,2.73744 62.1226,3.76039 L66.4673,13.6356 L70.5775,3.74317 C70.8987,2.94212 71.1374,2.32921 71.1374,1.85502 C71.1374,1.33074 70.6516,0.972148 69.9691,0.83184 L69.9691,0.369664 C70.5152,0.369664 71.8355,0.441518 72.2562,0.441518 C72.6393,0.441518 74.2103,0.369664 74.8053,0.369664 L74.8053,0.817333 C73.781,1.09342 73.1554,1.68275 72.584,3.01828 L66.5385,17.2784 L65.1728,17.2784 L58.5011,2.46294 Z M0,16.7349 C0.789032,16.5547 1.34301,16.1976 1.34301,15.3032 L1.34301,2.23059 C1.34301,1.37038 0.827565,1.01519 0,0.800084 L0,0.334961 C0.413669,0.334961 2.19913,0.406135 2.63343,0.406135 C3.13391,0.406135 5.00551,0.334961 5.4176,0.334961 L5.4176,0.800084 C4.6272,0.978925 4.04331,1.33661 4.04331,2.23059 L4.04331,7.6917 L13.783,7.6917 L13.783,2.23059 C13.783,1.33661 13.2642,0.978925 12.4414,0.800084 L12.4414,0.334961 C12.8525,0.334961 14.6906,0.406135 15.1897,0.406135 C15.6211,0.406135 17.4473,0.334961 17.8551,0.334961 L17.8551,0.800084 C17.0663,0.978925 16.4815,1.33661 16.4815,2.23059 L16.4815,15.3032 C16.4815,16.1623 17.03,16.5202 17.8551,16.7349 L17.8551,17.1648 C17.4473,17.1648 15.6211,17.1288 15.1897,17.1288 C14.6906,17.1288 12.8525,17.1648 12.4414,17.1648 L12.4414,16.7349 C13.2259,16.5547 13.783,16.1976 13.783,15.3032 L13.783,9.12492 L4.04331,9.12492 L4.04331,15.3032 C4.04331,16.1976 4.59003,16.5202 5.4176,16.7349 L5.4176,17.1648 C5.00551,17.1648 3.13391,17.1288 2.63343,17.1288 C2.19913,17.1288 0.413669,17.1648 0,17.1648 L0,16.7349 Z" id="Shape" fill="#FFFFFF"></path>
            <g id="Clipped" transform="translate(112.000000, 0.000000)">
                <mask id="mask-4" fill="white">
                    <use xlink:href="#path-3"></use>
                </mask>
                <g id="Path"></g>
                <path d="M4.919,15.8747 C5.529,15.9855 6.657,16.0551 7.546,16.0551 C12.578,16.0551 15.198,13.0259 15.198,8.80149 C15.198,4.42135 12.434,1.33844 7.729,1.33844 C6.77,1.33844 5.565,1.41029 4.919,1.51547 L4.919,15.8747 Z M0.655,16.7356 C1.665,16.5554 2.221,16.1557 2.221,15.2325 L2.221,2.23151 C2.221,1.33504 1.672,0.979851 0.696,0.801009 L0.696,0.335886 C1.257,0.335886 3.089,0.406834 3.596,0.406834 C4.414,0.406834 6.7,0.227539 8.477,0.227539 C14.469,0.227539 18.107,3.57248 18.107,8.66163 C18.107,13.6057 14.322,17.2696 8.144,17.2696 C6.363,17.2696 4.252,17.1295 3.424,17.1295 C2.921,17.1295 1.214,17.2011 0.655,17.2011 L0.655,16.7356 Z" id="Shape" fill="#FFFFFF" mask="url(#mask-4)"></path>
            </g>
            <path d="M44.8369,8.32716 C45.372,8.3972 46.1606,8.43302 46.9424,8.43302 C50.0933,8.43302 51.0829,6.62058 51.0829,5.01713 C51.0829,2.74297 49.5681,1.33808 46.8078,1.33808 C46.2386,1.33808 45.4101,1.4097 44.8369,1.5151 L44.8369,8.32716 Z M44.8369,15.1841 C44.8369,16.0486 45.387,16.5205 46.3995,16.7352 L46.3995,17.2008 C45.8367,17.2008 44.0023,17.1291 43.4764,17.1291 C43.0292,17.1291 41.2326,17.2008 40.6696,17.2008 L40.6696,16.7352 C41.6078,16.555 42.1622,16.0903 42.1622,15.1841 L42.1622,2.2749 C42.1622,1.48088 41.7302,0.979261 40.6714,0.80042 L40.6714,0.335524 C41.234,0.335524 43.0113,0.406471 43.5106,0.406471 C44.3339,0.406471 46.6718,0.26911 47.592,0.26911 C51.619,0.26911 53.8621,1.93421 53.8621,4.78593 C53.8621,7.03198 52.1902,8.54522 49.6225,9.16856 C49.6225,9.16856 50.2028,9.50833 50.7887,10.1908 C51.5016,11.027 53.4639,13.8359 54.2574,14.7983 C55.0501,15.7607 56.0665,16.8374 57.1563,16.8873 L57.1563,17.2647 C56.6356,17.378 55.7999,17.4748 55.1632,17.4748 C53.7891,17.4748 52.6966,16.9938 51.6374,15.7079 C50.721,14.5932 49.1218,12.2209 48.2038,11.0501 C47.6181,10.3042 46.9132,9.72072 45.6162,9.50833 C45.3607,9.46549 45.1207,9.43036 44.8369,9.39862 L44.8369,15.1841 Z M97.944,8.32716 C98.4823,8.3972 99.2675,8.43302 100.048,8.43302 C103.2,8.43302 104.189,6.62058 104.189,5.01713 C104.189,2.74297 102.672,1.33808 99.9171,1.33808 C99.3448,1.33808 98.5168,1.4097 97.944,1.5151 L97.944,8.32716 Z M97.944,15.1841 C97.944,16.0486 98.4943,16.5205 99.5055,16.7352 L99.5055,17.2008 C98.9434,17.2008 97.1126,17.1291 96.584,17.1291 C96.1331,17.1291 94.3395,17.2008 93.7765,17.2008 L93.7765,16.7352 C94.7117,16.555 95.2661,16.0903 95.2661,15.1841 L95.2661,2.2749 C95.2661,1.48088 94.8336,0.979261 93.7783,0.80042 L93.7783,0.335524 C94.3438,0.335524 96.1141,0.406471 96.6166,0.406471 C97.4408,0.406471 99.7775,0.26911 100.694,0.26911 C104.729,0.26911 106.967,1.93421 106.967,4.78593 C106.967,7.03198 105.297,8.54522 102.727,9.16856 C102.727,9.16856 103.311,9.50833 103.893,10.1908 C104.61,11.027 106.572,13.8359 107.364,14.7983 C108.159,15.7607 109.176,16.8374 110.259,16.8873 L110.259,17.2647 C109.744,17.378 108.905,17.4748 108.273,17.4748 C106.896,17.4748 105.802,16.9938 104.743,15.7079 C103.829,14.5932 102.231,12.2209 101.31,11.0501 C100.725,10.3042 100.018,9.72072 98.7246,9.50833 C98.4662,9.46549 98.2282,9.43036 97.944,9.39862 L97.944,15.1841 Z M31.1557,10.4329 L28.4737,4.18344 L25.9754,10.4329 L31.1557,10.4329 Z M20.4186,16.7343 C21.484,16.4834 22.0697,15.795 22.4582,14.8704 L27.8517,1.89296 C28.0809,1.35417 28.3472,0.250977 28.3472,0.250977 L29.8578,0.250977 C29.8578,0.250977 30.1284,1.35689 30.3523,1.89523 L36.0526,14.9062 C36.4579,15.802 36.8992,16.4478 38.0321,16.7343 L38.0294,17.1654 C37.4115,17.1654 35.4936,17.1291 35.0575,17.1291 C34.6216,17.1291 32.792,17.1654 32.1734,17.1654 L32.1761,16.7343 C33.0064,16.5294 33.2675,16.1057 33.2675,15.6986 C33.2675,15.3514 33.125,14.9604 32.9511,14.5528 L31.7262,11.758 L25.4436,11.758 L24.3227,14.5689 C24.1956,14.8874 24.0469,15.3376 24.0469,15.6404 C24.0469,16.1089 24.2919,16.4834 25.2337,16.7343 L25.231,17.1654 C24.673,17.1654 23.2026,17.1291 22.856,17.1291 L20.4166,17.1654 L20.4186,16.7343 Z M84.5953,10.4329 L81.9104,4.18344 L79.413,10.4329 L84.5953,10.4329 Z M73.8556,16.7343 C74.9198,16.4834 75.5082,15.795 75.8942,14.8704 L81.2907,1.89296 C81.5183,1.35417 81.788,0.250977 81.788,0.250977 L83.2981,0.250977 C83.2981,0.250977 83.564,1.35689 83.7893,1.89523 L89.4916,14.9062 C89.8939,15.802 90.3364,16.4478 91.4668,16.7343 L91.4647,17.1654 C90.8507,17.1654 88.9304,17.1291 88.4915,17.1291 C88.0597,17.1291 86.2294,17.1654 85.6106,17.1654 L85.6128,16.7343 C86.4468,16.5294 86.7031,16.1057 86.7031,15.6986 C86.7031,15.3514 86.5628,14.9604 86.3903,14.5528 L85.1622,11.758 L78.8794,11.758 L77.7586,14.5689 C77.6319,14.8874 77.4836,15.3376 77.4836,15.6404 C77.4836,16.1089 77.7273,16.4834 78.6707,16.7343 L78.6691,17.1654 C78.1101,17.1654 76.6395,17.1291 76.2922,17.1291 L73.8533,17.1654 L73.8556,16.7343 Z M19.582,41.3737 C20.3257,41.2361 20.6287,40.6572 20.6287,40.2165 L20.6287,30.2155 C20.6287,29.6921 20.3257,29.2791 19.499,29.1139 L19.499,28.7557 C19.8023,28.7557 21.3176,28.8108 21.7034,28.8108 C22.0339,28.8108 23.5768,28.7557 23.8796,28.7557 L23.8796,29.1139 C23.0811,29.3065 22.7225,29.6647 22.7225,30.2155 L22.7225,40.5747 L26.7175,40.5747 C28.0673,40.5747 28.7287,40.1064 29.2795,39.0041 L29.6377,39.0871 L29.2795,41.7869 C28.0397,41.6767 27.296,41.6767 25.8908,41.6767 L21.7034,41.6767 C21.3176,41.6767 19.9952,41.7318 19.582,41.7318 L19.582,41.3737 Z M32.9713,41.3737 C33.798,41.2084 34.1285,40.795 34.1285,40.2716 L34.1285,30.2155 C34.1285,29.6921 33.798,29.2791 32.9713,29.1139 L32.9713,28.7557 C33.2746,28.7557 34.845,28.8108 35.2308,28.8108 C35.5613,28.8108 37.104,28.7557 37.407,28.7557 L37.407,29.1139 C36.6082,29.3065 36.2222,29.6647 36.2222,30.2155 L36.2222,40.2716 C36.2222,40.8229 36.6082,41.1808 37.407,41.3737 L37.407,41.7318 C37.104,41.7318 35.5613,41.6767 35.2308,41.6767 C34.845,41.6767 33.2746,41.7318 32.9713,41.7318 L32.9713,41.3737 Z M44.7352,40.6847 C45.176,40.7674 45.8375,40.7949 46.2781,40.7949 C48.2617,40.7949 49.4741,39.8032 49.4741,38.0952 C49.4741,36.4145 48.0137,35.3952 46.3332,35.3952 L44.7352,35.3952 L44.7352,40.6847 Z M45.8098,34.4035 C47.6281,34.4035 48.7855,33.8525 48.7855,32.0618 C48.7855,30.5739 47.7385,29.527 45.9476,29.527 C45.5067,29.527 45.1486,29.582 44.7352,29.6645 L44.7352,34.4035 L45.8098,34.4035 Z M41.5942,41.3738 C42.3384,41.236 42.6414,40.657 42.6414,40.2164 L42.6414,30.2156 C42.6414,29.8024 42.3107,29.2516 41.5942,29.1137 L41.5942,28.7556 C42.0079,28.7556 43.3301,28.8107 43.7158,28.8107 C44.3494,28.8107 45.975,28.6731 46.6913,28.6731 C49.1985,28.6731 51.0721,29.7473 51.0721,31.9791 C51.0721,33.439 50.0524,34.4035 48.7855,34.8441 C50.5211,35.3675 51.7607,36.6625 51.7607,38.1501 C51.7607,40.9329 49.2261,41.7868 46.7187,41.7868 C46.0027,41.7868 44.3494,41.6766 43.7158,41.6766 C43.3301,41.6766 42.0079,41.7319 41.5942,41.7319 L41.5942,41.3738 Z M57.8495,35.0369 C58.2629,35.092 58.9792,35.1197 59.5851,35.1197 C62.0374,35.1197 62.8085,33.7145 62.8085,32.4749 C62.8085,30.7116 61.5963,29.5268 59.4475,29.5268 C59.0066,29.5268 58.2906,29.5822 57.8495,29.6647 L57.8495,35.0369 Z M54.7088,41.3737 C55.3976,41.2361 55.7557,40.6848 55.7557,40.2439 L55.7557,30.2155 C55.7557,29.8025 55.4527,29.2514 54.7088,29.1139 L54.7088,28.7557 C55.1222,28.7557 56.4444,28.8108 56.8302,28.8108 C57.4637,28.8108 59.3097,28.673 60.0262,28.673 C62.5608,28.673 65.0952,29.7474 65.0952,32.5025 C65.0952,34.1554 63.773,35.3951 61.8169,35.8912 L65.1502,39.7482 C65.6464,40.3267 66.335,41.0432 66.9686,41.3737 L66.9686,41.6767 C65.0677,41.9521 64.1862,41.8143 63.0565,40.5196 L59.2546,36.1116 C58.7312,36.1116 58.2629,36.0841 57.8495,36.0288 L57.8495,40.2439 C57.8495,40.6572 58.2076,41.2084 58.9515,41.3737 L58.9515,41.7318 C58.5386,41.7318 57.1609,41.6767 56.7751,41.6767 C56.4444,41.6767 55.1222,41.7318 54.7088,41.7318 L54.7088,41.3737 Z M77.4099,36.8828 L75.2334,31.7309 L72.9192,36.8828 L77.4099,36.8828 Z M68.7043,41.3738 C69.448,41.1809 69.751,40.6296 70.0815,39.941 L74.5722,30.1605 C74.7651,29.7473 75.0408,28.6455 75.0408,28.6455 L76.3908,28.6455 C76.3908,28.6455 76.6939,29.7473 76.8589,30.1605 L80.9641,39.9684 C81.2673,40.6571 81.5702,41.1532 82.424,41.3738 L82.424,41.7043 C81.956,41.7043 80.6334,41.6766 80.3029,41.6766 C79.9724,41.6766 78.7323,41.7043 78.2642,41.7043 L78.2642,41.3738 C78.8975,41.1809 78.9803,40.7949 78.9254,40.5195 C78.8975,40.3819 78.7323,39.941 78.6774,39.8032 L77.8508,37.9575 L72.4511,37.9575 L71.6244,39.8032 C71.5691,39.941 71.4041,40.3819 71.3764,40.5195 C71.3214,40.7949 71.5417,41.1809 72.1757,41.3738 L72.1757,41.7043 C71.762,41.7043 70.8531,41.6766 70.5777,41.6766 L68.7043,41.6766 L68.7043,41.3738 Z M87.7964,35.0369 C88.2098,35.092 88.9261,35.1197 89.5322,35.1197 C91.9845,35.1197 92.7556,33.7145 92.7556,32.4749 C92.7556,30.7116 91.5432,29.5268 89.3944,29.5268 C88.9535,29.5268 88.2375,29.5822 87.7964,29.6647 L87.7964,35.0369 Z M84.6556,41.3737 C85.3447,41.2361 85.7029,40.6848 85.7029,40.2439 L85.7029,30.2155 C85.7029,29.8025 85.3998,29.2514 84.6556,29.1139 L84.6556,28.7557 C85.0691,28.7557 86.3915,28.8108 86.7773,28.8108 C87.4108,28.8108 89.2566,28.673 89.9733,28.673 C92.5077,28.673 95.0423,29.7474 95.0423,32.5025 C95.0423,34.1554 93.7201,35.3951 91.764,35.8912 L95.0973,39.7482 C95.5933,40.3267 96.2821,41.0432 96.9155,41.3737 L96.9155,41.6767 C95.0146,41.9521 94.1331,41.8143 93.0036,40.5196 L89.2015,36.1116 C88.6783,36.1116 88.2098,36.0841 87.7964,36.0288 L87.7964,40.2439 C87.7964,40.6572 88.1545,41.2084 88.8984,41.3737 L88.8984,41.7318 C88.4854,41.7318 87.1077,41.6767 86.7222,41.6767 C86.3915,41.6767 85.0691,41.7318 84.6556,41.7318 L84.6556,41.3737 Z M101.93,41.3737 C102.673,41.2361 103.032,40.6846 103.032,40.244 L103.032,35.7811 L99.3949,30.7117 C98.9268,30.0502 98.2933,29.3616 97.6867,29.1139 L97.6867,28.7557 C98.1555,28.7557 99.3675,28.8108 99.7258,28.8108 C100.056,28.8108 101.296,28.7557 101.792,28.7557 L101.792,29.1139 C101.489,29.1687 101.351,29.5269 101.351,29.637 C101.351,29.7748 101.379,30.0502 101.572,30.3261 L104.519,34.4861 L107.467,30.3812 C107.743,29.9952 107.798,29.7474 107.798,29.5545 C107.798,29.4718 107.66,29.1687 107.247,29.1139 L107.247,28.7557 C107.66,28.7557 108.652,28.8108 108.928,28.8108 C109.203,28.8108 110.195,28.7557 110.608,28.7557 L110.608,29.1139 C109.726,29.4994 109.038,30.2155 108.404,31.0975 L105.126,35.6707 L105.126,40.244 C105.126,40.6846 105.456,41.2361 106.2,41.3737 L106.2,41.7318 C105.787,41.7318 104.409,41.6767 104.023,41.6767 C103.693,41.6767 102.398,41.7318 101.93,41.7318 L101.93,41.3737 Z" id="Shape" fill="#FFFFFF"></path>
            <path d="M47.5112,54.707 L82.5965,54.707 L82.5965,67.9517 C82.5965,74.0176 80.3339,86.888 65.185,96.4643 C65.185,96.4643 48.767,89.6151 47.5112,67.9517 L47.5112,54.707 Z" id="Path" stroke="#979797" fill="#FFFFFF"></path>
            <path d="M44.5542,51.75 L85.5535,51.75 L85.5535,67.9517 C85.5535,79.0288 80.0767,90.5488 66.765,98.9637 L65.4654,99.7852 L64.0465,99.1933 C63.3401,98.8986 62.2176,98.323 60.8171,97.4262 C58.5322,95.9632 56.2566,94.0999 54.1343,91.794 C48.6409,85.825 45.1305,77.9788 44.5592,68.1228 L44.5542,67.9517 L44.5542,51.75 Z" id="Path" stroke="#FFFFFF" stroke-width="5"></path>
            <path d="M47.7561,54.9521 L47.7561,67.9516 C48.9336,88.2506 63.7036,95.5178 65.1647,96.1863 C80.6726,86.3253 82.3504,73.1622 82.3504,67.9516 L82.3504,54.9521 L47.7561,54.9521 Z M65.2084,96.7398 L65.0903,96.6908 C64.9249,96.6219 48.5157,89.5329 47.2651,67.9661 L47.2651,54.4609 L82.8416,54.4609 L82.8416,67.9516 C82.8416,73.2558 81.1341,86.6723 65.3163,96.672 L65.2084,96.7398 Z" id="Shape" fill="#000000"></path>
            <path d="M74.3901,72.2739 C74.3901,72.2739 74.0773,73.2687 72.6844,72.2458 L67.9085,72.1315 C67.9085,72.1315 67.2831,72.3306 67.1979,71.6769 C67.1979,71.6769 67.3115,70.3694 67.2548,70.2554 C67.2548,70.2554 67.2831,69.8859 66.6582,69.8859 C66.6582,69.8859 65.6915,69.9993 65.6629,69.147 C65.6629,69.147 65.4922,68.2365 66.8282,68.2657 C66.8282,68.2657 67.2548,68.4643 67.2831,67.9241 C67.2831,67.9241 67.2265,64.2285 67.2548,63.9445 C67.2548,63.9445 67.3686,63.6034 66.7147,63.5463 C66.7147,63.5463 65.7767,63.7457 65.6629,63.1201 C65.6629,63.1201 65.6063,62.1815 66.2316,62.1248 C66.2316,62.1248 66.9989,62.1815 67.1415,61.9832 C67.1415,61.9832 67.3115,62.0965 67.2831,61.4147 L67.3115,60.2489 C67.3115,60.2489 67.3969,59.9361 67.8804,59.9642 C67.8804,59.9642 68.7617,60.0213 68.8748,59.9361 C68.8748,59.9361 69.0741,59.6798 69.1309,59.5664 C69.1309,59.5664 69.5859,59.5381 69.6713,59.6516 C69.6713,59.6516 70.3534,60.1063 72.9406,59.9361 C72.9406,59.9361 73.3386,59.9361 73.4234,60.0499 C73.4234,60.0499 73.9073,60.4191 74.1911,60.0213 C74.1911,60.0213 74.6177,59.9361 75.8968,59.9642 C75.8968,59.9642 77.2901,60.3339 78.2566,59.5381 L78.5692,59.5948 C78.5692,59.5948 78.967,60.2489 79.2512,60.0499 C79.2512,60.0499 80.1044,59.9642 80.2465,60.1345 C80.2465,60.1345 80.531,60.561 80.3889,61.6701 C80.3889,61.6701 80.218,62.1534 81.0428,62.1534 C81.0428,62.1534 81.9803,61.9832 81.8668,62.8642 C81.8668,62.8642 82.1224,63.8591 80.5593,63.7165 C80.5593,63.7165 80.3603,64.0012 80.3889,64.2004 C80.3889,64.2004 80.3603,67.4411 80.3317,67.8106 C80.3317,67.8106 80.3034,68.3222 80.9859,68.2941 C80.9859,68.2941 81.8951,68.2365 81.9239,69.0613 C81.9239,69.0613 82.0372,70.1416 80.7296,69.9426 C80.7296,69.9426 80.3317,69.9993 80.2746,70.2554 L80.218,71.6769 C80.218,71.6769 80.2465,72.3875 79.4502,72.217 C79.3367,72.217 75.0159,72.3025 74.6465,72.1887 C74.6465,72.1887 74.4472,72.1603 74.3901,72.2739 Z M65.1594,77.0944 C65.1594,77.0944 65.358,77.0091 65.4151,76.8666 C65.4151,76.8666 66.0115,76.8099 66.0969,76.7251 L67.974,76.8666 C67.974,76.8666 69.8211,77.0091 70.6172,76.4402 C70.6172,76.4402 70.9016,76.4402 71.1006,76.5259 C71.1006,76.5259 71.4982,76.6113 71.6122,76.7811 L72.6923,76.7528 C72.6923,76.7528 73.3179,76.9513 73.2608,77.3507 L73.2608,77.8616 C73.2608,77.8616 73.1472,78.8846 73.4319,78.9424 L74.2556,78.9424 C74.2556,78.9424 74.9384,79.2552 74.8531,79.6534 C74.8531,79.6534 74.8812,80.2215 74.2844,80.3348 C74.2844,80.3348 73.6874,80.5053 73.4886,80.4774 C73.4886,80.4774 73.2896,80.7335 73.2608,81.0461 L73.1762,84.7693 C73.1762,84.7693 73.1194,85.1676 73.7157,85.1114 C73.7157,85.1114 74.5968,85.0259 74.8531,85.509 C74.8531,85.509 75.0803,86.3336 74.6256,86.4762 L74.2844,86.6464 L73.5455,86.7602 C73.5455,86.7602 73.2327,86.7887 73.2039,87.3282 L73.2039,88.3233 C73.2039,88.3233 73.2327,89.0058 72.6923,89.0058 L71.8967,89.0629 C71.8967,89.0629 71.6975,89.2327 71.2997,89.1191 C71.2997,89.1191 66.4671,89.2048 66.2962,89.1479 L65.7275,89.2617 C65.7275,89.2617 65.1021,89.8299 64.5903,89.4031 L64.1927,89.0901 C64.1927,89.0901 63.908,89.1479 63.7947,89.1191 C63.6809,89.0901 58.4503,89.1767 58.4503,89.1767 C58.4503,89.1767 57.3414,89.2905 57.2564,88.9199 C57.2564,88.9199 57.1136,87.4708 57.1708,87.2996 C57.1708,87.2996 57.1708,86.8735 56.9153,86.8456 C56.9153,86.8456 55.8067,86.7887 55.7777,86.674 C55.7777,86.674 55.1806,86.2488 55.3513,85.8215 C55.3513,85.8215 55.5505,85.253 56.1478,85.1962 C56.1478,85.1962 57.0572,85.339 57.0572,85.0826 C57.0572,85.0826 57.1136,84.9117 57.1136,84.6284 C57.1136,84.6284 57.1708,81.2451 57.1424,81.0182 C57.1424,81.0182 57.2279,80.5919 56.8577,80.5919 C56.8577,80.5919 56.4606,80.7041 56.204,80.534 C56.204,80.534 55.5222,80.5628 55.3803,80.022 C55.3803,80.022 55.2661,79.6809 55.4367,79.3966 C55.4367,79.3966 55.7495,78.771 56.6589,78.9709 C56.6589,78.9709 57.1708,79.1126 57.2279,78.7431 L57.1989,77.3786 C57.1989,77.3786 57.0855,77.0091 57.7964,76.8099 C57.7964,76.8099 58.706,77.0658 58.9902,76.6113 C58.9902,76.6113 59.3035,75.9859 59.5587,76.4125 C59.5587,76.4125 60.0989,76.9239 61.577,76.8666 C61.577,76.8666 64.1356,76.6675 64.1927,76.7811 C64.1927,76.7811 64.8176,76.8666 64.9885,77.0658 L65.1594,77.0944 Z M57.392,72.343 C57.392,72.343 57.0794,73.338 55.6863,72.3142 L50.9102,72.2004 C50.9102,72.2004 50.2852,72.3996 50.2,71.7459 C50.2,71.7459 50.3133,70.4385 50.2564,70.3247 C50.2564,70.3247 50.2852,69.9546 49.6599,69.9546 C49.6599,69.9546 48.6931,70.069 48.6648,69.2156 C48.6648,69.2156 48.4941,68.3058 49.8301,68.3341 C49.8301,68.3341 50.2564,68.5336 50.2852,67.9936 C50.2852,67.9936 50.2283,64.2974 50.2564,64.0136 C50.2564,64.0136 50.3705,63.6727 49.7163,63.6156 C49.7163,63.6156 48.7786,63.8143 48.6648,63.189 C48.6648,63.189 48.6077,62.251 49.2333,62.1941 C49.2333,62.1941 50.0008,62.251 50.1427,62.0518 C50.1427,62.0518 50.3133,62.1658 50.2852,61.4828 L50.3133,60.3175 C50.3133,60.3175 50.399,60.0047 50.8821,60.0333 C50.8821,60.0333 51.7631,60.0897 51.8771,60.0047 C51.8771,60.0047 52.0759,59.7495 52.133,59.6355 C52.133,59.6355 52.5877,59.6072 52.6732,59.7205 C52.6732,59.7205 53.355,60.1754 55.9422,60.0047 C55.9422,60.0047 56.3404,60.0047 56.4254,60.119 C56.4254,60.119 56.9092,60.4882 57.1934,60.0897 C57.1934,60.0897 57.6193,60.0047 58.8986,60.0333 C58.8986,60.0333 60.2917,60.4025 61.2587,59.6072 L61.5713,59.6643 C61.5713,59.6643 61.9686,60.3175 62.2531,60.119 C62.2531,60.119 63.1063,60.0333 63.2482,60.2042 C63.2482,60.2042 63.5326,60.6308 63.3903,61.7392 C63.3903,61.7392 63.2196,62.2227 64.0447,62.2227 C64.0447,62.2227 64.9819,62.0518 64.8686,62.9331 C64.8686,62.9331 65.1243,63.9284 63.5605,63.7862 C63.5605,63.7862 63.3619,64.0703 63.3903,64.269 C63.3903,64.269 63.3619,67.5099 63.3334,67.8794 C63.3334,67.8794 63.3053,68.391 63.9876,68.3629 C63.9876,68.3629 64.8969,68.3058 64.9257,69.1308 C64.9257,69.1308 65.0388,70.2109 63.7316,70.0117 C63.7316,70.0117 63.3334,70.069 63.2765,70.3247 L63.2196,71.7459 C63.2196,71.7459 63.2482,72.4567 62.4523,72.2861 C62.3388,72.2861 58.0176,72.3711 57.6483,72.2577 C57.6483,72.2577 57.4489,72.2287 57.392,72.343 Z" id="Shape" fill="#FFFFFF"></path>
            <path d="M74.3905,72.2739 C74.3905,72.2739 74.0777,73.2687 72.6848,72.2458 L67.9089,72.1315 C67.9089,72.1315 67.2835,72.3306 67.1983,71.6768 C67.1983,71.6768 67.3119,70.3694 67.2552,70.2554 C67.2552,70.2554 67.2835,69.8859 66.6586,69.8859 C66.6586,69.8859 65.6919,69.9993 65.6633,69.147 C65.6633,69.147 65.4926,68.2365 66.8286,68.2657 C66.8286,68.2657 67.2552,68.4643 67.2835,67.9241 C67.2835,67.9241 67.2269,64.2285 67.2552,63.9445 C67.2552,63.9445 67.369,63.6034 66.7151,63.5463 C66.7151,63.5463 65.7771,63.7457 65.6633,63.1201 C65.6633,63.1201 65.6067,62.1815 66.232,62.1248 C66.232,62.1248 66.9993,62.1815 67.1419,61.9832 C67.1419,61.9832 67.3119,62.0965 67.2835,61.4147 L67.3119,60.2489 C67.3119,60.2489 67.3973,59.9361 67.8808,59.9642 C67.8808,59.9642 68.7621,60.0213 68.8752,59.9361 C68.8752,59.9361 69.0745,59.6798 69.1313,59.5664 C69.1313,59.5664 69.5863,59.5381 69.6717,59.6516 C69.6717,59.6516 70.3538,60.1063 72.941,59.9361 C72.941,59.9361 73.339,59.9361 73.4238,60.0499 C73.4238,60.0499 73.9077,60.4191 74.1915,60.0213 C74.1915,60.0213 74.6181,59.9361 75.8972,59.9642 C75.8972,59.9642 77.2905,60.3339 78.257,59.5381 L78.5696,59.5948 C78.5696,59.5948 78.9674,60.2489 79.2516,60.0499 C79.2516,60.0499 80.1048,59.9642 80.247,60.1345 C80.247,60.1345 80.5314,60.561 80.3893,61.6701 C80.3893,61.6701 80.2184,62.1534 81.0432,62.1534 C81.0432,62.1534 81.9807,61.9832 81.8672,62.8642 C81.8672,62.8642 82.1229,63.8591 80.5598,63.7165 C80.5598,63.7165 80.3607,64.0012 80.3893,64.2004 C80.3893,64.2004 80.3607,67.4411 80.3322,67.8106 C80.3322,67.8106 80.3038,68.3222 80.9863,68.2941 C80.9863,68.2941 81.8955,68.2365 81.9243,69.0613 C81.9243,69.0613 82.0376,70.1416 80.73,69.9426 C80.73,69.9426 80.3322,69.9993 80.2751,70.2554 L80.2184,71.6768 C80.2184,71.6768 80.2469,72.3875 79.4507,72.217 C79.3371,72.217 75.0163,72.3024 74.6469,72.1887 C74.6469,72.1887 74.4476,72.1603 74.3905,72.2739 Z" id="Path" fill="#000000"></path>
            <path d="M74.3905,72.2739 C74.3905,72.2739 74.0777,73.2687 72.6848,72.2458 L67.9089,72.1315 C67.9089,72.1315 67.2835,72.3306 67.1983,71.6768 C67.1983,71.6768 67.3119,70.3694 67.2552,70.2554 C67.2552,70.2554 67.2835,69.8859 66.6586,69.8859 C66.6586,69.8859 65.6919,69.9993 65.6633,69.147 C65.6633,69.147 65.4926,68.2365 66.8286,68.2657 C66.8286,68.2657 67.2552,68.4643 67.2835,67.9241 C67.2835,67.9241 67.2269,64.2285 67.2552,63.9445 C67.2552,63.9445 67.369,63.6034 66.7151,63.5463 C66.7151,63.5463 65.7771,63.7457 65.6633,63.1201 C65.6633,63.1201 65.6067,62.1815 66.232,62.1248 C66.232,62.1248 66.9993,62.1815 67.1419,61.9832 C67.1419,61.9832 67.3119,62.0965 67.2835,61.4147 L67.3119,60.2489 C67.3119,60.2489 67.3973,59.9361 67.8808,59.9642 C67.8808,59.9642 68.7621,60.0213 68.8752,59.9361 C68.8752,59.9361 69.0745,59.6798 69.1313,59.5664 C69.1313,59.5664 69.5863,59.5381 69.6717,59.6516 C69.6717,59.6516 70.3538,60.1063 72.941,59.9361 C72.941,59.9361 73.339,59.9361 73.4238,60.0499 C73.4238,60.0499 73.9077,60.4191 74.1915,60.0213 C74.1915,60.0213 74.6181,59.9361 75.8972,59.9642 C75.8972,59.9642 77.2905,60.3339 78.257,59.5381 L78.5696,59.5948 C78.5696,59.5948 78.9674,60.2489 79.2516,60.0499 C79.2516,60.0499 80.1048,59.9642 80.247,60.1345 C80.247,60.1345 80.5314,60.561 80.3893,61.6701 C80.3893,61.6701 80.2184,62.1534 81.0432,62.1534 C81.0432,62.1534 81.9807,61.9832 81.8672,62.8642 C81.8672,62.8642 82.1229,63.8591 80.5598,63.7165 C80.5598,63.7165 80.3607,64.0012 80.3893,64.2004 C80.3893,64.2004 80.3607,67.4411 80.3322,67.8106 C80.3322,67.8106 80.3038,68.3222 80.9863,68.2941 C80.9863,68.2941 81.8955,68.2365 81.9243,69.0613 C81.9243,69.0613 82.0376,70.1416 80.73,69.9426 C80.73,69.9426 80.3322,69.9993 80.2751,70.2554 L80.2184,71.6768 C80.2184,71.6768 80.2469,72.3875 79.4507,72.217 C79.3371,72.217 75.0163,72.3024 74.6469,72.1887 C74.6469,72.1887 74.4476,72.1603 74.3905,72.2739 Z" id="Path" stroke="#000000" stroke-width="1.084"></path>
            <path d="M69.0173,60.5617 C69.0173,60.5617 69.0742,61.1309 69.0742,61.2728 C69.0742,61.4154 68.9889,69.4889 68.9889,69.4889 C68.9889,69.4889 69.0741,70.1142 68.534,70.4264 C68.534,70.4264 68.3919,70.4837 68.3638,70.0855 L68.4204,61.5575 C68.4204,61.5575 68.4776,60.5055 69.0173,60.5617 Z" id="Path" fill="#FFFFFF"></path>
            <path d="M69.0173,60.5617 C69.0173,60.5617 69.0742,61.1309 69.0742,61.2728 C69.0742,61.4154 68.9889,69.4889 68.9889,69.4889 C68.9889,69.4889 69.0741,70.1142 68.534,70.4264 C68.534,70.4264 68.3919,70.4837 68.3638,70.0855 L68.4204,61.5575 C68.4204,61.5575 68.4776,60.5055 69.0173,60.5617 Z" id="Path" stroke="#000000" stroke-width="0.542"></path>
            <path d="M68.0796,70.5113 C68.0796,70.5113 68.1361,62.4947 68.1084,62.3528 C68.0796,62.2105 68.1361,62.4662 68.1361,62.4662 C68.1361,62.4662 68.0515,61.0731 68.4208,60.505 C68.4208,60.505 68.307,60.0218 67.653,60.6186 L67.6249,61.7841 C67.6249,61.7841 67.6249,62.4383 67.0277,62.4093 C67.0277,62.4093 66.3456,62.3814 66.0328,62.694 C66.0328,62.694 65.8619,63.3193 66.5161,63.2058 C66.5161,63.2058 67.5397,63.2058 67.5966,63.6321 L67.5397,67.9243 C67.5397,67.9243 67.7668,68.6354 66.971,68.6354 C66.971,68.6354 66.0047,68.5787 66.0328,69.1751 C66.0328,69.1751 66.2321,69.6869 67.0565,69.5167 C67.0565,69.5167 67.653,69.63 67.6249,70.1987 L67.6249,71.279 C67.6249,71.279 67.5678,71.7056 68.1361,71.7344 L72.5711,71.7344 C72.5711,71.7344 72.7986,71.7625 72.7986,71.478 C72.7986,71.478 72.7703,71.2507 72.4289,71.2507 L68.7333,71.1938 C68.7333,71.1938 68.1361,71.3923 68.0796,70.5113 Z" id="Path" fill="#FFFFFF"></path>
            <path d="M68.8473,70.5679 C68.8473,70.5679 68.7333,70.9657 69.1599,70.8802 L72.0878,70.8802 L72.8843,71.0511 C72.8843,71.0511 73.7085,70.8523 72.8843,70.3976 C72.8843,70.3976 70.2688,70.4253 70.0414,70.3691 C70.0414,70.3691 69.501,70.2267 69.387,70.1982 C69.387,70.1982 69.103,70.0844 68.8473,70.5679 Z" id="Path" fill="#FFFFFF"></path>
            <path d="M68.8473,70.5679 C68.8473,70.5679 68.7333,70.9657 69.1599,70.8802 L72.0878,70.8802 L72.8843,71.0511 C72.8843,71.0511 73.7085,70.8523 72.8843,70.3976 C72.8843,70.3976 70.2688,70.4253 70.0414,70.3691 C70.0414,70.3691 69.501,70.2267 69.387,70.1982 C69.387,70.1982 69.103,70.0844 68.8473,70.5679 Z" id="Path" stroke="#000000" stroke-width="0.542"></path>
            <path d="M73.7082,70.966 C73.7082,70.966 73.1678,70.966 73.1964,71.6771 C73.1964,71.6771 73.2533,72.2172 73.822,72.2172 C73.822,72.2172 74.3338,72.1318 74.2767,71.5635 C74.2767,71.5635 73.9641,70.8527 73.7082,70.966 Z M74.106,70.6818 C74.106,70.6818 74.3619,70.398 74.5321,70.398 C74.5321,70.398 77.3757,70.6532 77.8589,70.3123 C77.8589,70.3123 78.2851,70.2271 78.3984,70.3123 C78.3984,70.3123 78.825,70.6532 78.825,70.8527 C78.825,70.8527 78.7969,71.1086 78.2851,70.966 C78.2851,70.966 75.073,70.995 74.9023,70.995 C74.9023,70.995 74.0203,71.1936 74.106,70.6818 Z" id="Shape" fill="#FFFFFF"></path>
            <path d="M74.106,70.6818 C74.106,70.6818 74.3619,70.398 74.5321,70.398 C74.5321,70.398 77.3757,70.6532 77.8589,70.3123 C77.8589,70.3123 78.285,70.2271 78.3984,70.3123 C78.3984,70.3123 78.825,70.6532 78.825,70.8527 C78.825,70.8527 78.7969,71.1086 78.285,70.966 C78.285,70.966 75.0729,70.995 74.9022,70.995 C74.9022,70.995 74.0203,71.1936 74.106,70.6818 Z" id="Path" stroke="#000000" stroke-width="0.542"></path>
            <path d="M74.5614,71.5353 C74.5614,71.5353 74.5614,71.3075 74.9592,71.3075 L78.9392,71.2794 C78.9392,71.2794 79.3083,71.4784 79.3083,70.7964 C79.3083,70.7964 79.4544,67.6974 79.4678,64.2842 C79.4719,63.2717 79.5175,62.205 79.4792,61.2158 C79.4792,61.2158 79.3937,60.7894 79.2799,60.7044 C79.2799,60.7044 79.2799,60.2497 79.7634,60.42 C79.7634,60.42 80.19,60.4485 80.0767,61.1018 L80.1048,62.0971 C80.1048,62.0971 80.0198,62.5241 80.7868,62.4097 C80.7868,62.4097 81.5545,62.5241 81.5829,62.8079 C81.5829,62.8079 81.8104,63.3762 80.9006,63.32 L80.2469,63.32 C80.2469,63.32 79.9624,63.4902 80.0479,63.8318 L79.9624,67.9533 C79.9624,67.9533 79.9055,68.6639 80.5878,68.6358 C80.5878,68.6358 81.2989,68.6077 81.441,68.8348 C81.441,68.8348 81.9242,69.5452 80.8725,69.489 C80.8725,69.489 80.2183,69.4604 80.0767,69.5742 C80.0767,69.5742 79.9624,69.7161 79.8774,71.0521 C79.8774,71.0521 79.9341,71.8484 79.337,71.7629 C79.337,71.7629 75.3855,71.8193 75.0163,71.7348 C75.0163,71.7348 74.618,71.8483 74.5614,71.5353 Z M69.4445,60.304 L69.3591,69.4296 C69.3591,69.4296 69.33,69.8556 70.0413,69.941 C70.0413,69.941 70.8655,70.0265 71.0643,69.941 C71.0643,69.941 71.6042,69.9124 72.9975,69.9693 C72.9975,69.9693 73.3391,70.3107 73.3674,69.8841 C73.3674,69.8841 73.5946,62.4931 73.4815,60.9577 C73.4815,60.9577 73.4529,60.304 72.9694,60.2757 C72.9694,60.2757 70.8086,60.4468 70.61,60.2757 L69.7571,60.0479 C69.7571,60.0479 69.4155,60.0764 69.4445,60.304 Z" id="Shape" fill="#FFFFFF"></path>
            <path d="M73.9358,60.7586 C73.9358,60.7586 73.8504,65.051 73.8787,65.1929 L73.8223,68.8037 L73.7085,70.0544 C73.7085,70.0544 73.8787,70.3106 74.0206,70.1399 C74.0206,70.1399 74.9307,69.9121 75.4992,69.9978 C75.4992,69.9978 77.3186,70.1685 77.6883,69.8838 C77.6883,69.8838 77.9726,70.0261 78.0578,69.5712 C78.0578,69.5712 78.1716,61.6111 78.1149,61.4692 C78.1149,61.4692 78.228,60.332 78.1716,60.218 C78.1716,60.218 78.1433,59.9627 77.6598,60.1898 C77.6598,60.1898 77.7169,60.417 75.0164,60.332 C75.0164,60.332 73.9925,60.3036 73.9358,60.7586 Z M78.4559,60.647 L78.4271,69.6303 C78.4271,69.6303 78.6547,70.4261 79.0244,70.3414 C79.0244,70.3414 79.0813,70.1707 79.1092,69.8864 L79.2237,61.3295 C79.2237,61.3295 78.9394,59.9647 78.4559,60.647 Z" id="Shape" fill="#FFFFFF"></path>
            <path d="M78.4555,60.6471 L78.4268,69.6304 C78.4268,69.6304 78.6543,70.4262 79.024,70.3414 C79.024,70.3414 79.0809,70.1708 79.1088,69.8865 L79.2233,61.3296 C79.2233,61.3296 78.939,59.9648 78.4555,60.6471 Z" id="Path" stroke="#000000" stroke-width="0.542"></path>
            <path d="M74.9665,63.336 C74.881,63.1084 75.4497,63.0801 75.4497,63.0801 L75.7335,63.1365 C75.9325,63.1084 76.1318,63.1934 76.1318,63.1934 C76.331,63.506 75.9897,63.6771 75.9897,63.6771 L75.8761,64.0466 C75.848,64.3596 75.8761,67.0595 75.8761,67.0595 C75.9325,67.202 76.1601,67.4579 76.1601,67.4579 C76.1601,67.7134 75.848,67.6567 75.848,67.6567 L75.0234,67.6851 C74.7672,67.6567 74.8522,67.3729 74.8522,67.3729 C75.1367,67.2304 75.2224,66.7186 75.2224,66.7186 L75.2224,63.9042 L74.9665,63.336 Z M71.1567,63.734 C71.1853,64.3596 71.1853,65.2116 71.1853,65.2116 C71.7257,65.6382 72.038,65.0414 72.038,65.0414 C72.7488,64.3596 72.038,63.734 71.9244,63.5631 C71.8109,63.3928 71.2422,63.5347 71.2422,63.5347 L71.1567,63.734 Z M71.1282,65.9793 L71.0719,66.8611 L71.3279,67.2874 C71.4985,67.515 71.2136,67.6853 71.2136,67.6853 L70.304,67.5998 C70.1338,67.515 70.304,67.2303 70.304,67.2303 C70.5316,67.0889 70.5601,66.7185 70.5601,66.7185 L70.5316,65.07 L70.5601,63.8759 C70.5601,63.734 70.3328,63.4774 70.3328,63.4774 C70.1338,63.4495 70.19,63.1934 70.19,63.1934 C70.2471,63.0512 70.7304,63.1365 70.7304,63.1365 L71.9244,63.1365 C73.0616,63.5059 72.8905,64.3306 72.8905,64.3306 C72.976,65.1552 72.0951,65.4963 72.0951,65.4963 L72.038,65.951 L72.8624,67.2587 C73.0045,67.3729 72.976,67.486 72.976,67.486 C72.8624,67.799 72.4077,67.486 72.4077,67.486 L71.3838,65.8941 C71.2991,65.7803 71.1282,65.9793 71.1282,65.9793 Z M65.1596,77.0948 C65.1596,77.0948 65.3582,77.0096 65.4153,76.867 C65.4153,76.867 66.0117,76.8103 66.0971,76.7255 L67.9742,76.867 C67.9742,76.867 69.8213,77.0096 70.6174,76.4406 C70.6174,76.4406 70.9018,76.4406 71.1008,76.5263 C71.1008,76.5263 71.4984,76.6118 71.6124,76.7815 L72.6925,76.7532 C72.6925,76.7532 73.3181,76.9518 73.261,77.3512 L73.261,77.8621 C73.261,77.8621 73.1474,78.885 73.4321,78.9428 L74.2558,78.9428 C74.2558,78.9428 74.9386,79.2556 74.8533,79.6539 C74.8533,79.6539 74.8814,80.2219 74.2846,80.3352 C74.2846,80.3352 73.6876,80.5057 73.4888,80.4778 C73.4888,80.4778 73.2898,80.7339 73.261,81.0465 L73.1764,84.7698 C73.1764,84.7698 73.1195,85.168 73.7159,85.1118 C73.7159,85.1118 74.597,85.0264 74.8533,85.5094 C74.8533,85.5094 75.0805,86.334 74.6258,86.4766 L74.2846,86.6468 L73.5457,86.7606 C73.5457,86.7606 73.2329,86.7892 73.2041,87.3286 L73.2041,88.3237 C73.2041,88.3237 73.2329,89.0062 72.6925,89.0062 L71.8969,89.0633 C71.8969,89.0633 71.6977,89.2331 71.2999,89.1195 C71.2999,89.1195 66.4673,89.2052 66.2964,89.1483 L65.7277,89.2621 C65.7277,89.2621 65.1023,89.8304 64.5905,89.4036 L64.1929,89.0905 C64.1929,89.0905 63.9082,89.1483 63.7949,89.1195 C63.6811,89.0905 58.4505,89.1771 58.4505,89.1771 C58.4505,89.1771 57.3416,89.2909 57.2566,88.9203 C57.2566,88.9203 57.1138,87.4712 57.171,87.3001 C57.171,87.3001 57.1709,86.8739 56.9155,86.8461 C56.9155,86.8461 55.8069,86.7892 55.7778,86.6745 C55.7778,86.6745 55.1808,86.2492 55.3515,85.822 C55.3515,85.822 55.5507,85.2535 56.148,85.1966 C56.148,85.1966 57.0574,85.3394 57.0574,85.083 C57.0574,85.083 57.1138,84.9121 57.1138,84.6288 C57.1138,84.6288 57.1709,81.2455 57.1426,81.0186 C57.1426,81.0186 57.2281,80.5923 56.8579,80.5923 C56.8579,80.5923 56.4608,80.7045 56.2042,80.5345 C56.2042,80.5345 55.5224,80.5633 55.3805,80.0224 C55.3805,80.0224 55.2663,79.6813 55.4369,79.3971 C55.4369,79.3971 55.7497,78.7715 56.6591,78.9714 C56.6591,78.9714 57.171,79.113 57.2281,78.7436 L57.1991,77.379 C57.1991,77.379 57.0857,77.0096 57.7966,76.8103 C57.7966,76.8103 58.7062,77.0662 58.9904,76.6118 C58.9904,76.6118 59.3037,75.9864 59.5589,76.413 C59.5589,76.413 60.099,76.9243 61.5772,76.867 C61.5772,76.867 64.1358,76.668 64.1929,76.7815 C64.1929,76.7815 64.8178,76.867 64.9887,77.0662 L65.1596,77.0948 Z" id="Shape" fill="#000000"></path>
            <path d="M65.1597,77.0944 C65.1597,77.0944 65.3582,77.0092 65.4153,76.8666 C65.4153,76.8666 66.0117,76.81 66.0971,76.7252 L67.9742,76.8666 C67.9742,76.8666 69.8213,77.0092 70.6174,76.4403 C70.6174,76.4403 70.9018,76.4403 71.1009,76.5259 C71.1009,76.5259 71.4984,76.6114 71.6124,76.7812 L72.6925,76.7528 C72.6925,76.7528 73.3181,76.9514 73.261,77.3508 L73.261,77.8617 C73.261,77.8617 73.1474,78.8847 73.4321,78.9425 L74.2559,78.9425 C74.2559,78.9425 74.9386,79.2553 74.8533,79.6535 C74.8533,79.6535 74.8815,80.2216 74.2846,80.3349 C74.2846,80.3349 73.6876,80.5053 73.4888,80.4775 C73.4888,80.4775 73.2898,80.7336 73.261,81.0462 L73.1765,84.7694 C73.1765,84.7694 73.1196,85.1677 73.7159,85.1115 C73.7159,85.1115 74.597,85.026 74.8533,85.5091 C74.8533,85.5091 75.0805,86.3337 74.6258,86.4762 L74.2846,86.6465 L73.5457,86.7603 C73.5457,86.7603 73.2329,86.7888 73.2041,87.3283 L73.2041,88.3234 C73.2041,88.3234 73.2329,89.0059 72.6925,89.0059 L71.8969,89.063 C71.8969,89.063 71.6977,89.2328 71.2999,89.1192 C71.2999,89.1192 66.4673,89.2049 66.2964,89.148 L65.7277,89.2618 C65.7277,89.2618 65.1023,89.83 64.5905,89.4032 L64.1929,89.0902 C64.1929,89.0902 63.9082,89.148 63.7949,89.1192 C63.6811,89.0902 58.4505,89.1768 58.4505,89.1768 C58.4505,89.1768 57.3416,89.2906 57.2566,88.92 C57.2566,88.92 57.1138,87.4709 57.171,87.2997 C57.171,87.2997 57.171,86.8736 56.9155,86.8457 C56.9155,86.8457 55.8069,86.7888 55.7778,86.6741 C55.7778,86.6741 55.1808,86.2489 55.3515,85.8216 C55.3515,85.8216 55.5507,85.2531 56.148,85.1962 C56.148,85.1962 57.0574,85.339 57.0574,85.0827 C57.0574,85.0827 57.1138,84.9118 57.1138,84.6284 C57.1138,84.6284 57.171,81.2452 57.1426,81.0183 C57.1426,81.0183 57.2281,80.5919 56.8579,80.5919 C56.8579,80.5919 56.4608,80.7041 56.2042,80.5341 C56.2042,80.5341 55.5224,80.5629 55.3805,80.0221 C55.3805,80.0221 55.2663,79.6809 55.4369,79.3967 C55.4369,79.3967 55.7497,78.7711 56.6591,78.971 C56.6591,78.971 57.171,79.1127 57.2281,78.7432 L57.1991,77.3787 C57.1991,77.3787 57.0857,77.0092 57.7966,76.81 C57.7966,76.81 58.7062,77.0659 58.9904,76.6114 C58.9904,76.6114 59.3037,75.986 59.5589,76.4126 C59.5589,76.4126 60.0991,76.924 61.5772,76.8666 C61.5772,76.8666 64.1358,76.6676 64.1929,76.7812 C64.1929,76.7812 64.8178,76.8666 64.9887,77.0659 L65.1597,77.0944 Z" id="Path" stroke="#000000" stroke-width="1.084"></path>
            <path d="M65.8987,88.2667 C65.8987,88.2667 66.2396,88.0956 66.4674,88.1529 C66.6945,88.2096 70.0213,88.1244 70.0213,88.1244 C70.0213,88.1244 71.4706,88.2384 71.6977,88.0398 L72.0389,87.9249 C72.0389,87.9249 72.1805,87.7556 72.1805,87.5278 C72.1805,87.2997 72.2098,86.5331 72.2098,86.5331 L72.2943,86.2489 C72.2943,86.2489 72.266,85.9635 72.2943,78.3736 C72.2943,78.3736 72.4083,77.7761 72.0389,77.4073 C72.0389,77.4073 72.0389,77.1795 72.1527,77.2085 C72.266,77.2371 72.2098,77.237 72.2098,77.237 C72.2098,77.237 72.7211,77.0945 72.8066,77.293 C72.8066,77.293 73.0339,77.9751 72.8349,78.3736 C72.8349,78.3736 72.778,79.1977 73.2042,79.1977 C73.2042,79.1977 73.3749,79.3689 73.716,79.2832 C73.716,79.2832 74.4552,79.3689 74.4552,79.596 C74.4552,79.596 74.4551,80.1078 73.9433,80.0221 L73.2611,80.079 C73.2611,80.079 72.8066,80.1647 72.8635,80.7042 C72.9204,81.245 72.8349,85.1115 72.8349,85.1115 C72.8349,85.1115 72.8349,85.5669 73.5458,85.5381 C73.5458,85.5381 74.427,85.5091 74.427,85.7654 C74.427,85.7654 74.6542,86.3337 74.0288,86.3627 C74.0288,86.3627 72.8349,86.3337 72.9204,86.6741 C72.9204,86.6741 72.8349,87.4709 72.778,87.6123 C72.778,87.6123 72.8918,88.2667 72.7492,88.38 C72.7492,88.38 72.6647,88.7504 71.897,88.6928 C71.897,88.6928 67.0075,88.665 66.2396,88.7216 C66.2396,88.7216 65.7847,88.665 65.8987,88.2667 Z M65.0178,87.7262 C65.0178,87.7262 65.5008,87.8119 65.5008,88.2668 C65.5008,88.7217 65.5292,88.9778 65.2447,89.0343 C64.9604,89.0903 64.6479,89.0059 64.5624,88.636 C64.477,88.2668 64.6195,87.8119 65.0178,87.7262 Z" id="Shape" fill="#FFFFFF"></path>
            <path d="M65.5864,87.4987 C65.5864,87.4987 66.0975,87.1582 66.2968,87.2144 C66.2968,87.2144 68.8837,87.3849 69.6796,87.2434 C70.4761,87.1004 69.9921,87.2144 69.9921,87.2144 C69.9921,87.2144 70.6749,87.2144 70.8734,86.9587 C70.8734,86.9587 71.0724,86.9018 71.1862,87.1004 L71.6128,87.5562 C71.6128,87.5562 71.6412,87.8402 71.1579,87.8117 C71.1579,87.8117 66.5239,87.8117 66.3822,87.8402 C66.3822,87.8402 65.5009,87.9817 65.5864,87.4987 Z" id="Path" fill="#FFFFFF"></path>
            <path d="M65.5864,87.4987 C65.5864,87.4987 66.0975,87.1582 66.2968,87.2144 C66.2968,87.2144 68.8837,87.3849 69.6796,87.2434 C70.4761,87.1004 69.9921,87.2144 69.9921,87.2144 C69.9921,87.2144 70.6749,87.2144 70.8734,86.9587 C70.8734,86.9587 71.0724,86.9018 71.1862,87.1004 L71.6128,87.5562 C71.6128,87.5562 71.6412,87.8402 71.1579,87.8117 C71.1579,87.8117 66.5239,87.8117 66.3822,87.8402 C66.3822,87.8402 65.5009,87.9817 65.5864,87.4987 Z" id="Path" stroke="#000000" stroke-width="0.542"></path>
            <path d="M58.8483,77.4072 C58.8483,77.4072 59.0473,77.4072 59.019,77.7486 L58.9628,86.3336 C58.9628,86.3336 59.0473,86.9021 58.564,87.2721 C58.564,87.2721 58.3086,87.5842 58.3086,87.1007 L58.4217,78.3456 C58.4217,78.3456 58.4507,77.6912 58.8483,77.4072 Z" id="Path" fill="#FFFFFF"></path>
            <path d="M58.8483,77.4072 C58.8483,77.4072 59.0473,77.4072 59.019,77.7486 L58.9628,86.3336 C58.9628,86.3336 59.0473,86.9021 58.564,87.2721 C58.564,87.2721 58.3086,87.5842 58.3086,87.1007 L58.4217,78.3456 C58.4217,78.3456 58.4507,77.6912 58.8483,77.4072 Z" id="Path" stroke="#000000" stroke-width="0.542"></path>
            <path d="M58.3938,77.4635 C58.3938,77.4635 58.0522,78.0893 58.0814,78.2319 L58.0522,80.1364 C58.0522,80.1364 58.0241,81.359 58.0522,81.5012 C58.0814,81.6426 58.0241,85.2255 58.0241,85.2255 C58.0241,85.2255 57.996,85.9076 58.0241,86.1352 L58.0241,87.6704 C58.0241,87.6704 57.967,88.3527 58.4788,88.1811 C58.4788,88.1811 63.4822,88.0684 63.795,88.1532 C63.795,88.1532 64.2495,88.2386 64.0786,88.4662 C64.0786,88.4662 64.0786,88.6652 63.7669,88.6086 C63.7669,88.6086 61.4071,88.8357 59.2753,88.7507 C59.2753,88.7507 57.8536,88.8357 57.7682,88.6652 C57.7682,88.6652 57.5401,88.6362 57.5401,87.8121 C57.5401,87.8121 57.5401,87.045 57.4839,86.9024 C57.4839,86.9024 57.5401,86.5046 56.8302,86.419 C56.8302,86.419 55.8349,86.5896 55.807,85.9926 C55.807,85.9926 55.9489,85.5671 56.9157,85.6233 C56.9157,85.6233 57.6258,85.7371 57.4839,85.168 L57.5696,80.9617 C57.5696,80.9617 57.6548,80.2218 57.1711,80.1926 C57.1711,80.1926 56.7162,80.165 56.5739,80.2218 C56.5739,80.2218 55.7499,80.2218 55.807,79.7386 C55.807,79.7386 56.0908,79.2268 56.9157,79.3406 C56.9157,79.3406 57.5401,79.4546 57.5696,78.7435 C57.5696,78.7435 57.5401,77.2933 57.8822,77.2373 C57.8822,77.2373 58.5923,77.265 58.3938,77.4635 Z" id="Path" fill="#FFFFFF"></path>
            <path d="M59.2469,86.874 C59.2469,86.874 59.6447,87.3004 60.2981,87.2725 L64.1642,87.3289 C64.1642,87.3289 64.5905,87.3577 64.5624,87.5849 C64.5624,87.5849 64.5058,87.9255 63.994,87.8124 L59.3319,87.7562 L58.8203,87.7846 C58.8203,87.7846 58.4789,87.7267 59.0191,87.0733 L59.2469,86.874 Z" id="Path" fill="#FFFFFF"></path>
            <path d="M59.2469,86.874 C59.2469,86.874 59.6447,87.3004 60.2981,87.2725 L64.1642,87.3289 C64.1642,87.3289 64.5905,87.3577 64.5624,87.5849 C64.5624,87.5849 64.5058,87.9255 63.994,87.8124 L59.3319,87.7562 L58.8203,87.7846 C58.8203,87.7846 58.4789,87.7267 59.0191,87.0733 L59.2469,86.874 Z" id="Path" stroke="#000000" stroke-width="0.542"></path>
            <path d="M71.186,86.5051 C71.186,86.5051 71.5272,87.1593 71.6979,87.2445 C71.6979,87.2445 72.0104,87.6133 71.9254,86.9598 L71.9823,78.7721 C71.9823,78.7721 71.8971,78.4879 71.9823,78.0339 L71.641,77.408 C71.641,77.408 71.2715,77.124 71.2715,77.578 L71.2144,86.3057 L71.186,86.5051 Z" id="Path" fill="#FFFFFF"></path>
            <path d="M71.186,86.5051 C71.186,86.5051 71.5272,87.1593 71.6979,87.2445 C71.6979,87.2445 72.0104,87.6133 71.9254,86.9598 L71.9823,78.7721 C71.9823,78.7721 71.8971,78.4879 71.9823,78.0339 L71.641,77.408 C71.641,77.408 71.2715,77.124 71.2715,77.578 L71.2144,86.3057 L71.186,86.5051 Z" id="Path" stroke="#000000" stroke-width="0.542"></path>
            <path d="M64.8749,82.6071 C64.8749,82.6071 64.903,83.2901 64.8178,83.9433 C64.7716,84.2992 64.9318,85.9621 64.7893,86.8136 C64.7893,86.8136 64.7612,87.0988 64.1639,86.8424 C64.1639,86.8424 60.5256,86.9286 60.4118,86.8136 C60.4118,86.8136 59.4165,86.8424 59.3315,86.3311 C59.3315,86.3311 59.4737,82.4367 59.388,82.2939 C59.388,82.2939 59.3315,80.1621 59.388,79.963 C59.388,79.963 59.4737,78.0024 59.4165,77.7743 C59.4165,77.7743 59.4451,77.319 59.3596,77.0916 C59.3596,77.0916 59.3596,76.8071 59.8434,76.9785 C59.8434,76.9785 60.0136,77.2911 60.9515,77.1487 C60.9515,77.1487 61.6338,77.2625 62.288,77.1773 C62.288,77.1773 63.7373,77.0637 64.1077,77.1773 C64.1077,77.1773 64.6757,77.0637 64.8466,77.6891 L64.8178,79.4512 L64.9885,80.0206 L65.1877,79.8776 L65.2727,79.4512 L65.3013,77.5756 C65.3013,77.5756 65.4151,77.234 65.87,77.1773 C65.87,77.1773 66.5799,77.0916 66.6942,77.1487 C66.808,77.2056 68.3432,77.2911 68.7696,77.2056 C69.1959,77.12 69.2811,77.4903 70.5602,76.8359 C70.5602,76.8359 70.9018,76.8645 70.9018,77.0916 C70.9018,77.0916 70.7878,79.5088 70.9018,79.963 C70.9018,79.963 70.9018,84.3971 70.8164,84.7108 L70.873,86.1321 C70.873,86.1321 70.9304,86.7577 69.9353,86.8136 C69.9353,86.8136 70.5602,86.9 66.6373,86.7862 C66.6373,86.7862 66.0117,86.7577 65.3296,87.07 C65.3296,87.07 65.1877,87.0412 65.1877,86.6727 C65.1877,86.6727 65.3013,85.3362 65.1877,84.0283 L65.1304,82.5795 L64.8749,82.6071 Z" id="Path" fill="#FFFFFF"></path>
            <path d="M62.3161,80.5921 C62.3161,80.5921 62.4011,82.6951 62.3161,82.9791 L62.2878,83.4345 C62.2878,83.4345 62.4011,83.7464 62.5723,83.8606 C62.5723,83.8606 62.7146,84.258 62.3733,84.2301 C62.3733,84.2301 61.6624,84.1732 61.4922,84.202 C61.4922,84.202 61.0939,84.202 61.4922,83.6902 C61.4922,83.6902 61.6339,83.4911 61.6058,82.9791 C61.6058,82.9791 61.6058,80.5921 61.6624,80.4495 C61.6624,80.4495 61.7193,80.1362 61.5205,80.051 L61.1789,80.0791 L60.7528,80.4776 C60.7528,80.4776 60.6674,80.9037 60.4683,80.4495 L60.4683,80.2217 L60.7245,79.5392 L60.8952,79.5106 C60.8952,79.5106 61.1511,79.6811 61.3782,79.7384 L62.7146,79.7384 L63.1977,79.5106 C63.1977,79.5106 63.3962,79.5392 63.34,79.7951 C63.34,79.7951 63.4248,80.4495 63.0553,80.5343 C63.0553,80.5343 62.8282,80.4495 62.7146,80.1362 C62.7146,80.1362 62.3447,79.9377 62.3161,80.5921 Z M68.599,79.8237 C68.599,79.8237 67.5189,79.7385 67.4899,80.9038 C67.4899,80.9038 67.3763,81.7003 68.5704,82.2123 C68.5704,82.2123 69.4519,82.6387 69.395,83.1782 C69.395,83.1782 69.2812,84.1454 68.3431,83.6612 C68.3431,83.6612 67.8881,83.4345 67.9162,83.1782 C67.9162,83.1782 67.7746,82.8656 67.6037,82.9225 C67.6037,82.9225 67.4049,82.9792 67.4899,83.9178 C67.4899,83.9178 67.4899,84.287 67.9162,83.9178 L68.1441,83.9738 C68.1441,83.9738 68.9118,84.5994 69.5653,83.8317 C69.5653,83.8317 70.2761,83.1782 69.7645,82.3823 C69.7645,82.3823 69.395,81.813 68.7415,81.5289 C68.7415,81.5289 68.1155,81.2452 67.9738,80.7624 C67.9738,80.7624 68.1728,79.9087 68.9401,80.3643 C68.9401,80.3643 69.2243,80.7043 69.395,80.7624 C69.395,80.7624 69.6228,80.7623 69.5653,80.2503 L69.5088,79.8237 C69.5088,79.8237 69.4519,79.5105 69.0541,79.8237 C69.0541,79.8237 68.6842,79.9661 68.599,79.8237 Z M64.6757,81.1027 C64.6473,81.2453 64.4485,82.0411 64.4485,82.0411 L64.6192,82.3251 C64.6192,82.3251 65.0741,82.3537 65.2444,82.3537 C65.4151,82.3537 65.4432,82.2125 65.4432,82.0699 C65.4432,81.9285 65.1304,81.0748 65.1304,81.0748 L64.9885,80.9037 L64.6757,81.1027 Z M65.1304,79.2268 C65.3296,79.3692 65.3582,79.6536 65.3582,79.6536 C65.9269,81.1596 66.4101,83.3497 66.4101,83.3497 C66.5527,83.6335 66.8079,83.8606 66.8079,83.8606 C67.291,84.0315 66.8079,84.1732 66.8079,84.1732 C66.6089,84.2579 65.9554,84.1455 65.9554,84.1455 C65.6138,84.0882 65.7562,83.9737 65.7562,83.9737 C65.8983,83.8316 65.7843,83.2635 65.7843,83.2635 C65.7562,83.0357 65.5005,82.666 65.5005,82.666 C65.3867,82.6098 65.1877,82.8655 65.1877,82.8655 C65.1877,82.8655 64.8749,82.9791 64.8466,82.8655 C64.8176,82.7517 64.6192,82.6386 64.6192,82.6386 C64.2783,82.6386 64.1357,83.4911 64.1357,83.4911 C64.3348,84.2019 64.1357,84.0882 64.1357,84.0882 C63.9653,84.3162 63.4247,84.1455 63.4247,84.1455 C63.1695,84.0882 63.3399,83.8885 63.3399,83.8885 C63.6527,83.8316 63.7373,83.4911 63.7373,83.4911 C63.8798,83.2919 64.7892,79.5963 64.7892,79.5963 C64.8749,79.426 64.9318,79.0842 65.1304,79.2268 Z M57.392,72.3432 C57.392,72.3432 57.0794,73.3383 55.6863,72.3144 L50.9102,72.2007 C50.9102,72.2007 50.2852,72.3999 50.2,71.7462 C50.2,71.7462 50.3133,70.4388 50.2564,70.325 C50.2564,70.325 50.2852,69.9548 49.6599,69.9548 C49.6599,69.9548 48.6931,70.0693 48.6648,69.2159 C48.6648,69.2159 48.4941,68.306 49.8301,68.3344 C49.8301,68.3344 50.2564,68.5338 50.2852,67.9939 C50.2852,67.9939 50.2283,64.2976 50.2564,64.0139 C50.2564,64.0139 50.3705,63.6729 49.7163,63.6158 C49.7163,63.6158 48.7786,63.8146 48.6648,63.1892 C48.6648,63.1892 48.6077,62.2513 49.2333,62.1944 C49.2333,62.1944 50.0008,62.2513 50.1427,62.052 C50.1427,62.052 50.3133,62.1661 50.2852,61.4831 L50.3133,60.3178 C50.3133,60.3178 50.399,60.005 50.8821,60.0336 C50.8821,60.0336 51.7631,60.09 51.8771,60.005 C51.8771,60.005 52.0759,59.7498 52.133,59.6358 C52.133,59.6358 52.5877,59.6074 52.6732,59.7208 C52.6732,59.7208 53.355,60.1757 55.9422,60.005 C55.9422,60.005 56.3404,60.005 56.4254,60.1192 C56.4254,60.1192 56.9092,60.4885 57.1934,60.09 C57.1934,60.09 57.6193,60.005 58.8986,60.0336 C58.8986,60.0336 60.2917,60.4028 61.2587,59.6074 L61.5713,59.6645 C61.5713,59.6645 61.9686,60.3178 62.2531,60.1192 C62.2531,60.1192 63.1063,60.0336 63.2482,60.2045 C63.2482,60.2045 63.5326,60.6311 63.3903,61.7395 C63.3903,61.7395 63.2196,62.2229 64.0447,62.2229 C64.0447,62.2229 64.9819,62.052 64.8686,62.9333 C64.8686,62.9333 65.1243,63.9286 63.5605,63.7865 C63.5605,63.7865 63.3619,64.0705 63.3903,64.2693 C63.3903,64.2693 63.3619,67.5102 63.3334,67.8797 C63.3334,67.8797 63.3053,68.3913 63.9875,68.3632 C63.9875,68.3632 64.8969,68.306 64.9257,69.1311 C64.9257,69.1311 65.0388,70.2112 63.7316,70.0119 C63.7316,70.0119 63.3334,70.0693 63.2765,70.325 L63.2196,71.7462 C63.2196,71.7462 63.2482,72.457 62.4523,72.2863 C62.3388,72.2863 58.0176,72.3713 57.6483,72.258 C57.6483,72.258 57.4489,72.229 57.392,72.3432 Z" id="Shape" fill="#000000"></path>
            <path d="M57.392,72.3432 C57.392,72.3432 57.0794,73.3383 55.6863,72.3144 L50.9102,72.2007 C50.9102,72.2007 50.2852,72.3999 50.2,71.7462 C50.2,71.7462 50.3133,70.4388 50.2564,70.325 C50.2564,70.325 50.2852,69.9548 49.6599,69.9548 C49.6599,69.9548 48.6931,70.0693 48.6648,69.2159 C48.6648,69.2159 48.4941,68.306 49.8301,68.3344 C49.8301,68.3344 50.2564,68.5338 50.2852,67.9939 C50.2852,67.9939 50.2283,64.2976 50.2564,64.0139 C50.2564,64.0139 50.3705,63.6729 49.7163,63.6158 C49.7163,63.6158 48.7786,63.8146 48.6648,63.1892 C48.6648,63.1892 48.6077,62.2513 49.2333,62.1944 C49.2333,62.1944 50.0008,62.2513 50.1427,62.052 C50.1427,62.052 50.3133,62.1661 50.2852,61.4831 L50.3133,60.3178 C50.3133,60.3178 50.399,60.005 50.8821,60.0336 C50.8821,60.0336 51.7631,60.09 51.8771,60.005 C51.8771,60.005 52.0759,59.7498 52.133,59.6358 C52.133,59.6358 52.5877,59.6074 52.6732,59.7208 C52.6732,59.7208 53.355,60.1757 55.9422,60.005 C55.9422,60.005 56.3404,60.005 56.4254,60.1192 C56.4254,60.1192 56.9092,60.4885 57.1934,60.09 C57.1934,60.09 57.6193,60.005 58.8986,60.0336 C58.8986,60.0336 60.2917,60.4028 61.2587,59.6074 L61.5713,59.6645 C61.5713,59.6645 61.9686,60.3178 62.2531,60.1192 C62.2531,60.1192 63.1063,60.0336 63.2482,60.2045 C63.2482,60.2045 63.5326,60.6311 63.3903,61.7395 C63.3903,61.7395 63.2196,62.2229 64.0447,62.2229 C64.0447,62.2229 64.9819,62.052 64.8686,62.9333 C64.8686,62.9333 65.1243,63.9286 63.5605,63.7865 C63.5605,63.7865 63.3619,64.0705 63.3903,64.2693 C63.3903,64.2693 63.3619,67.5102 63.3334,67.8797 C63.3334,67.8797 63.3053,68.3913 63.9875,68.3632 C63.9875,68.3632 64.8969,68.306 64.9257,69.1311 C64.9257,69.1311 65.0388,70.2112 63.7316,70.012 C63.7316,70.012 63.3334,70.0693 63.2765,70.325 L63.2196,71.7462 C63.2196,71.7462 63.2482,72.457 62.4523,72.2863 C62.3388,72.2863 58.0176,72.3713 57.6483,72.258 C57.6483,72.258 57.4489,72.229 57.392,72.3432 Z" id="Path" stroke="#000000" stroke-width="1.084"></path>
            <path d="M52.0192,60.6312 C52.0192,60.6312 52.0763,61.1996 52.0763,61.3418 C52.0763,61.4832 51.9909,69.5576 51.9909,69.5576 C51.9909,69.5576 52.0763,70.1825 51.5359,70.4958 C51.5359,70.4958 51.3943,70.5524 51.3657,70.1542 L51.4226,61.6258 C51.4226,61.6258 51.4797,60.574 52.0192,60.6312 Z" id="Path" fill="#FFFFFF"></path>
            <path d="M52.0192,60.6312 C52.0192,60.6312 52.0763,61.1996 52.0763,61.3418 C52.0763,61.4832 51.9909,69.5576 51.9909,69.5576 C51.9909,69.5576 52.0763,70.1825 51.5359,70.4958 C51.5359,70.4958 51.3943,70.5524 51.3657,70.1542 L51.4226,61.6258 C51.4226,61.6258 51.4797,60.574 52.0192,60.6312 Z" id="Path" stroke="#000000" stroke-width="0.542"></path>
            <path d="M51.0815,70.5812 C51.0815,70.5812 51.1382,62.5643 51.1106,62.422 C51.0815,62.2803 51.1382,62.536 51.1382,62.536 C51.1382,62.536 51.0532,61.1427 51.4227,60.5747 C51.4227,60.5747 51.3089,60.0907 50.6552,60.6882 L50.6273,61.854 C50.6273,61.854 50.6273,62.5075 50.0298,62.4796 C50.0298,62.4796 49.3473,62.4506 49.0347,62.7636 C49.0347,62.7636 48.8641,63.389 49.5178,63.2754 C49.5178,63.2754 50.5416,63.2754 50.5985,63.7018 L50.5416,67.9944 C50.5416,67.9944 50.7687,68.7048 49.9729,68.7048 C49.9729,68.7048 49.0064,68.6477 49.0347,69.2449 C49.0347,69.2449 49.2338,69.7568 50.0584,69.5859 C50.0584,69.5859 50.6552,69.6999 50.6273,70.2686 L50.6273,71.3484 C50.6273,71.3484 50.5697,71.7748 51.1382,71.8033 L55.5727,71.8033 C55.5727,71.8033 55.8008,71.8324 55.8008,71.5477 C55.8008,71.5477 55.772,71.3205 55.4311,71.3205 L51.7355,71.2637 C51.7355,71.2637 51.1382,71.4631 51.0815,70.5812 Z" id="Path" fill="#FFFFFF"></path>
            <path d="M51.8487,70.637 C51.8487,70.637 51.7351,71.0353 52.1613,70.9501 L55.0898,70.9501 L55.8856,71.1201 C55.8856,71.1201 56.71,70.921 55.8856,70.4661 C55.8856,70.4661 53.2699,70.4951 53.0428,70.4382 C53.0428,70.4382 52.5022,70.2959 52.3891,70.2676 C52.3891,70.2676 52.1044,70.1536 51.8487,70.637 Z" id="Path" fill="#FFFFFF"></path>
            <path d="M51.8487,70.637 C51.8487,70.637 51.7351,71.0353 52.1613,70.9501 L55.0898,70.9501 L55.8856,71.1201 C55.8856,71.1201 56.71,70.921 55.8856,70.4661 C55.8856,70.4661 53.2699,70.4951 53.0428,70.4382 C53.0428,70.4382 52.5022,70.2959 52.3891,70.2676 C52.3891,70.2676 52.1044,70.1536 51.8487,70.637 Z" id="Path" stroke="#000000" stroke-width="0.542"></path>
            <path d="M56.7104,71.0359 C56.7104,71.0359 56.17,71.0359 56.1983,71.7465 C56.1983,71.7465 56.2557,72.2867 56.8239,72.2867 C56.8239,72.2867 57.336,72.201 57.2789,71.6327 C57.2789,71.6327 56.9658,70.9217 56.7104,71.0359 Z M57.1081,70.7514 C57.1081,70.7514 57.364,70.4668 57.5346,70.4668 C57.5346,70.4668 60.3777,70.7233 60.8605,70.3815 C60.8605,70.3815 61.2871,70.2965 61.4009,70.3815 C61.4009,70.3815 61.8271,70.7233 61.8271,70.9217 C61.8271,70.9217 61.7989,71.1783 61.2871,71.0359 C61.2871,71.0359 58.0746,71.0643 57.9041,71.0643 C57.9041,71.0643 57.0231,71.2633 57.1081,70.7514 Z" id="Shape" fill="#FFFFFF"></path>
            <path d="M57.1078,70.7515 C57.1078,70.7515 57.3637,70.4668 57.5344,70.4668 C57.5344,70.4668 60.3775,70.7233 60.8603,70.3815 C60.8603,70.3815 61.2869,70.2965 61.4007,70.3815 C61.4007,70.3815 61.8268,70.7233 61.8268,70.9217 C61.8268,70.9217 61.7987,71.1783 61.2869,71.0359 C61.2869,71.0359 58.0743,71.0643 57.9039,71.0643 C57.9039,71.0643 57.0228,71.2633 57.1078,70.7515 Z" id="Path" stroke="#000000" stroke-width="0.542"></path>
            <path d="M57.563,71.6044 C57.563,71.6044 57.563,71.3773 57.9608,71.3773 L61.9406,71.3483 C61.9406,71.3483 62.3099,71.5475 62.3099,70.8655 C62.3099,70.8655 62.4561,67.7665 62.4694,64.3535 C62.4735,63.3408 62.5193,62.2741 62.4808,61.2854 C62.4808,61.2854 62.3953,60.8588 62.2818,60.7735 C62.2818,60.7735 62.2818,60.3184 62.765,60.4891 C62.765,60.4891 63.1914,60.5176 63.078,61.1711 L63.1066,62.1664 C63.1066,62.1664 63.0212,62.5923 63.7889,62.4795 C63.7889,62.4795 64.5561,62.5923 64.5845,62.8768 C64.5845,62.8768 64.8123,63.4457 63.9024,63.3889 L63.2485,63.3889 C63.2485,63.3889 62.9643,63.5593 63.049,63.9007 L62.9643,68.0224 C62.9643,68.0224 62.9074,68.733 63.5892,68.7047 C63.5892,68.7047 64.3007,68.6766 64.4424,68.9037 C64.4424,68.9037 64.9258,69.6152 63.8739,69.5581 C63.8739,69.5581 63.2199,69.5297 63.078,69.6429 C63.078,69.6429 62.9643,69.7852 62.8788,71.121 C62.8788,71.121 62.9359,71.9175 62.3389,71.8322 C62.3389,71.8322 58.3869,71.8887 58.0177,71.8032 C58.0177,71.8032 57.6197,71.9175 57.563,71.6044 Z M52.446,60.3729 L52.361,69.4985 C52.361,69.4985 52.3322,69.9249 53.0428,70.0101 C53.0428,70.0101 53.8674,70.0956 54.0662,70.0101 C54.0662,70.0101 54.6059,69.9818 55.999,70.0389 C55.999,70.0389 56.3408,70.3796 56.3692,69.9537 C56.3692,69.9537 56.5965,62.5618 56.4825,61.0268 C56.4825,61.0268 56.4542,60.3729 55.9707,60.3445 C55.9707,60.3445 53.8103,60.5148 53.6115,60.3445 L52.7581,60.1172 C52.7581,60.1172 52.417,60.1457 52.446,60.3729 Z" id="Shape" fill="#FFFFFF"></path>
            <path d="M61.4578,60.7153 L61.4292,69.6991 C61.4292,69.6991 61.6563,70.4951 62.0263,70.4099 C62.0263,70.4099 62.0829,70.2392 62.1115,69.9545 L62.2255,61.3982 C62.2255,61.3982 61.9408,60.0332 61.4578,60.7153 Z" id="Path" fill="#FFFFFF"></path>
            <path d="M61.4578,60.7153 L61.4292,69.6991 C61.4292,69.6991 61.6563,70.4951 62.0263,70.4099 C62.0263,70.4099 62.0829,70.2392 62.1115,69.9545 L62.2255,61.3982 C62.2255,61.3982 61.9408,60.0332 61.4578,60.7153 Z" id="Path" stroke="#000000" stroke-width="0.542"></path>
            <path d="M56.9383,60.7915 C56.9383,60.7915 56.8531,65.0844 56.8816,65.2263 L56.825,68.8367 L56.7109,70.0876 C56.7109,70.0876 56.8816,70.344 57.0237,70.1731 C57.0237,70.1731 57.934,69.946 58.5021,70.0314 C58.5021,70.0314 60.3218,70.2017 60.6908,69.917 C60.6908,69.917 60.9755,70.0593 61.0602,69.6051 C61.0602,69.6051 61.1743,61.6447 61.1176,61.5026 C61.1176,61.5026 61.2314,60.3652 61.1743,60.2516 C61.1743,60.2516 61.1457,59.9957 60.6627,60.223 C60.6627,60.223 60.7196,60.4506 58.019,60.3652 C58.019,60.3652 56.9952,60.3368 56.9383,60.7915 Z" id="Path" fill="#FFFFFF"></path>
            <path d="M56.0613,63.4218 L55.8059,63.9621 C55.8059,63.9621 55.1803,66.7191 54.8391,67.2881 C54.8391,67.2881 54.7822,67.8565 54.2992,67.4012 C54.2992,67.4012 53.1906,63.9048 53.1335,63.7908 L52.764,63.5353 C52.764,63.5353 52.5364,63.2228 52.9344,63.194 L53.9864,63.2228 C53.9864,63.2228 54.3275,63.5065 53.8726,63.82 C53.8726,63.82 53.9297,64.2747 54.5263,66.0085 C54.5263,66.0085 54.6972,66.6627 54.8956,66.1787 L55.4645,64.1609 L55.2941,63.5637 C55.2941,63.5637 55.1232,63.2794 55.3795,63.2509 C55.3795,63.2509 55.9763,63.194 56.0613,63.4218 Z M57.7099,63.8764 L57.6818,66.8898 L57.5972,67.1173 C57.5972,67.1173 57.3123,67.4866 57.5116,67.5156 C57.5116,67.5156 57.2554,67.6858 59.3308,67.7141 C59.3308,67.7141 60.1266,67.8567 59.9278,66.8329 C59.9278,66.8329 59.8426,66.4634 59.5579,67.0038 C59.5579,67.0038 59.4727,67.4585 58.4493,67.3166 C58.4493,67.3166 58.2219,67.1173 58.2219,66.8898 L58.2219,65.6388 C58.2219,65.6388 58.1938,65.326 58.6769,65.3545 C58.6769,65.3545 59.217,65.6961 59.3025,65.5538 C59.3025,65.5538 59.5013,65.0988 59.3025,64.8146 C59.3025,64.8146 59.0468,64.7865 59.0178,64.8996 C59.0178,64.8996 58.8475,65.2412 58.3643,65.042 C58.3643,65.042 58.1365,64.587 58.2793,64.2176 C58.2793,64.2176 58.2219,63.5065 58.7056,63.5636 C58.7056,63.5636 59.2741,63.6776 59.3308,63.8483 C59.3308,63.8483 59.4727,64.1892 59.6153,63.7907 L59.4727,63.3077 C59.4727,63.3077 59.3877,63.1089 59.2456,63.1654 C59.2456,63.1654 58.2793,63.3077 58.1653,63.1939 L57.3975,63.2794 C57.3975,63.2794 57.284,63.5636 57.6249,63.7057 C57.6249,63.7057 57.7099,63.7626 57.7099,63.8764 Z" id="Shape" fill="#000000"></path>
        </g>
    </g>
</svg>