<svg fill="none" height="40" viewBox="0 0 78 40" width="78" xmlns="http://www.w3.org/2000/svg"><path d="m4.29449 20.9816v-1.9632c0-2.4949 0-4.9898 0-7.4847 0-2.49485-.02045-4.98973-.06135-7.48462l-4.23314-.42945v-3.61963h18.2822c3.3947 0 6.4213.470347 9.0797 1.41104 2.6585.9407 4.8876 2.26994 6.6872 3.98773 1.8405 1.71779 3.2311 3.80368 4.1718 6.25763.9816 2.454 1.4724 5.1739 1.4724 8.1596 0 3.1492-.5113 5.9713-1.5338 8.4662s-2.5153 4.6217-4.4785 6.3804c-1.9223 1.7178-4.274 3.047-7.0552 3.9877-2.7812.8998-5.91 1.3497-9.3865 1.3497h-17.2393v-3.6196l4.23314-.4295c.0409-2.454.06135-4.9284.06135-7.4233s0-5.0102 0-7.546zm12.14721-.0614v7.6688c0 2.4948.0409 5.0306.1227 7.6073h.8589c3.0266 0 5.4397-1.3906 7.2393-4.1718 1.8405-2.8221 2.7607-6.8507 2.7607-12.0858 0-5.2761-.9202-9.2843-2.7607-12.02459-1.7996-2.74029-4.2332-4.11043-7.3006-4.11043h-.7976c-.0818 2.49489-.1227 5.01023-.1227 7.54602v7.6687z" fill="#000"/><path d="m4.29449 20.9816v-1.9632c0-2.4949 0-4.9898 0-7.4847 0-2.49485-.02045-4.98973-.06135-7.48462l-4.23314-.42945v-3.61963h18.2822c3.3947 0 6.4213.470347 9.0797 1.41104 2.6585.9407 4.8876 2.26994 6.6872 3.98773 1.8405 1.71779 3.2311 3.80368 4.1718 6.25763.9816 2.454 1.4724 5.1739 1.4724 8.1596 0 3.1492-.5113 5.9713-1.5338 8.4662s-2.5153 4.6217-4.4785 6.3804c-1.9223 1.7178-4.274 3.047-7.0552 3.9877-2.7812.8998-5.91 1.3497-9.3865 1.3497h-17.2393v-3.6196l4.23314-.4295c.0409-2.454.06135-4.9284.06135-7.4233s0-5.0102 0-7.546zm12.14721-.0614v7.6688c0 2.4948.0409 5.0306.1227 7.6073h.8589c3.0266 0 5.4397-1.3906 7.2393-4.1718 1.8405-2.8221 2.7607-6.8507 2.7607-12.0858 0-5.2761-.9202-9.2843-2.7607-12.02459-1.7996-2.74029-4.2332-4.11043-7.3006-4.11043h-.7976c-.0818 2.49489-.1227 5.01023-.1227 7.54602v7.6687z" fill="#496397" fill-opacity=".2"/><path d="m40.2328 20.9816v-1.9632c0-2.4949 0-4.9898 0-7.4847 0-2.49485-.0205-4.98973-.0614-7.48462l-4.2331-.42945v-3.61963h20.184v3.61963l-4.2331.42945c-.0409 2.45399-.0613 4.92842-.0613 7.42332v7.546 1.1656l12.7607-15.82817-3.8037-.7362v-3.61963h14.2331v3.61963l-5.7055.7362-7.362 8.65027 12.0246 23.0062 3.3742.3681v3.6196h-18.5276v-3.6196l2.0859-.2454-6.6871-13.9878-2.3926 2.8221v5.5215c0 1.8405.0204 3.681.0613 5.5215l3.3129.3681v3.6196h-19.2638v-3.6196l4.2331-.4295c.0409-2.454.0614-4.9284.0614-7.4233s0-5.0102 0-7.546z" fill="#000"/><path d="m40.2328 20.9816v-1.9632c0-2.4949 0-4.9898 0-7.4847 0-2.49485-.0205-4.98973-.0614-7.48462l-4.2331-.42945v-3.61963h20.184v3.61963l-4.2331.42945c-.0409 2.45399-.0613 4.92842-.0613 7.42332v7.546 1.1656l12.7607-15.82817-3.8037-.7362v-3.61963h14.2331v3.61963l-5.7055.7362-7.362 8.65027 12.0246 23.0062 3.3742.3681v3.6196h-18.5276v-3.6196l2.0859-.2454-6.6871-13.9878-2.3926 2.8221v5.5215c0 1.8405.0204 3.681.0613 5.5215l3.3129.3681v3.6196h-19.2638v-3.6196l4.2331-.4295c.0409-2.454.0614-4.9284.0614-7.4233s0-5.0102 0-7.546z" fill="#496397" fill-opacity=".2"/><path d="m31.3611 26.1361c1.7887 1.574 3.9463 2.3539 6.3909 2.3539 2.4444 0 4.6022-.7798 6.3909-2.3539 1.8419-1.6209 2.7591-3.75 2.7591-6.2561 0-2.5004-.913-4.6256-2.7466-6.245-1.7837-1.6357-3.9454-2.455-6.4034-2.455-2.4581 0-4.6197.8193-6.4034 2.455-1.8335 1.6194-2.7465 3.7446-2.7465 6.245 0 2.5061.9171 4.6352 2.759 6.2561z" fill="#fde100" stroke="#f6f7f8" stroke-width="3"/></svg>