<svg height="142" viewBox="0 0 74 142" width="74" xmlns="http://www.w3.org/2000/svg"><g fill="#fff" fill-rule="evenodd"><path d="m23.4909 123.802c-1.599-1.756-3.3254-2.636-5.1793-2.641-1.0438-.046-2.0841.15-3.041.573s-1.805 1.061-2.4789 1.865c-1.3533 1.611-2.0323 3.935-2.0369 6.97 0 3.111.6952 5.46 2.0856 7.048.6779.772 1.5166 1.384 2.4564 1.792.9397.408 1.9573.602 2.9801.568 1.8492 0 3.7401-.819 5.6519-2.466l.1113.162c-.142.559-.2282 1.132-.2572 1.709-.7095.504-1.4963.887-2.329 1.135-1.0672.369-2.1876.559-3.3161.56-3.1284 0-5.5894-.962-7.383-2.886-1.79365-1.924-2.68813-4.465-2.68349-7.622 0-3.269.95011-5.837 2.85029-7.705.9931-.944 2.1634-1.678 3.442-2.159 1.2787-.481 2.6399-.7 4.0036-.644 2.0351.025 4.0409.491 5.8814 1.366-.2724.75-.4635 1.528-.57 2.319z"/><path d="m27.6621 120.341c.4585.088.9238.134 1.3904.14.4418.002.8824-.045 1.314-.14-.153 2.83-.2295 4.946-.2295 6.347v2.333c1.8168.056 3.7425.084 5.7771.084 1.9049 0 3.8028 0 5.6798-.084v-2.368c.0319-2.104-.0423-4.209-.2224-6.305.4597.078.9243.125 1.3904.14.4392-.002.8772-.049 1.3069-.14-.1529 3.685-.2224 6.06-.2224 7.111v6.221c0 1.457.0695 3.832.2224 7.132-.446-.078-.8965-.127-1.3486-.148-.4492-.005-.8974.044-1.3348.148.1483-2.476.2224-4.879.2224-7.209v-3.153c-1.8214-.061-3.7471-.091-5.7771-.091-1.9002 0-3.7935.03-5.6798.091v3.202c0 1.702.0765 4.084.2294 7.16-.4484-.078-.9011-.127-1.3556-.148-.4492-.005-.8974.044-1.3348.148.153-2.084.2294-4.461.2294-7.132v-7.076c-.0139-2.134-.0996-4.222-.2572-6.263z"/><path d="m47.7812 139.355c.2499-.879.4289-1.776.5353-2.683h.3199c.9269 2.106 2.3567 3.159 4.2893 3.159.5234.016 1.0439-.084 1.5245-.293.4806-.21.9095-.523 1.2563-.919.7179-.842 1.0994-1.923 1.0706-3.033.0028-.713-.1923-1.411-.5631-2.018-.6436-.845-1.5042-1.497-2.4888-1.884l-2.4262-1.128c-.9609-.407-1.7741-1.102-2.3289-1.99-.5548-.889-.8243-1.929-.7717-2.977-.0405-.76.0855-1.519.3691-2.223.2836-.705.7177-1.338 1.2715-1.855 1.1959-1.021 2.7305-1.549 4.2964-1.478.7121-.041 1.425.062 2.0971.303s1.2898.614 1.8168 1.098c-.4022.787-.6545 1.642-.7438 2.522h-.3267c-.5771-1.891-1.6407-2.844-3.191-2.844-.4541-.009-.9052.075-1.3259.247s-.8022.429-1.1212.755c-.3361.337-.5992.741-.7727 1.186s-.2536.921-.2354 1.399c0 1.756 1.0127 3.092 3.0381 4.007l2.2177.96c2.2107 1.018 3.3161 2.618 3.3161 4.799.0316.872-.1157 1.742-.4326 2.554-.317.813-.7969 1.551-1.4097 2.168-.6281.616-1.3742 1.098-2.1929 1.415-.8188.317-1.6929.462-2.5692.427-1.6609.03-3.2728-.567-4.5189-1.674z"/><path d="m29.4907 58.9102s.0073.0073 0 0z"/><path d="m46.7728 6.32715c-1.5619 3.23658-3.1237 6.47555-4.6856 9.71675l-2.3845 5.2402-2.1969 5.7165c-.431 1.1139-1.2027 3.8881.2364 3.9161 1.8214.0351 2.7808-3.5448 3.33-5.2261.9455-3.0825 1.7241-6.214 2.6487-9.3104.7369-2.466 1.4808-4.9039 2.1829-7.39793.2503-.89671.5701-1.77242.869-2.65512z"/><path d="m4.10889 30.376 9.68411 3.3343 5.214 1.6532 5.6381 1.4009c1.0984.2732 3.8097.6655 3.6776-.7705-.1668-1.8003-3.6498-2.3046-5.2974-2.5918-3.0172-.5184-6.0691-.8686-9.0932-1.401-2.4054-.3923-4.81083-.7985-7.22317-1.1628-.87595-.0841-1.738-.2802-2.60004-.4623z"/><path d="m12.5068 0 6.7435 13.3948 3.7263 7.1038 4.2754 7.3769c.8412 1.4432 3.0798 4.7569 3.914 3.5029 1.0359-1.6043-1.8492-5.8708-3.184-7.9304-2.4471-3.7621-5.0333-7.4261-7.4943-11.2091-1.9604-2.98442-3.9209-5.98284-5.9092-8.94623-.723-1.07187-1.3904-2.18578-2.0717-3.29267z"/><path d="m73.9208 16.0088-13.7233 6.6411-7.2787 3.6638-7.5777 4.2032c-1.4808.8266-4.8664 3.0474-3.629 3.895 1.5921 1.0718 5.9857-1.7864 8.1061-3.1104 3.8722-2.4168 7.6472-4.9808 11.5056-7.4117 3.0797-1.9475 6.1594-3.888 9.2114-5.8495 1.1053-.6935 2.2524-1.359 3.3856-2.0315z"/><path d="m54.8652 70.9395c-1.8816-3.8393-3.7703-7.6808-5.6658-11.5247 0 0-6.7644-12.3304-6.813-12.4075-.0487-.077-.2503-.5674-.4519-.3783-.2016.1892-.0417.7006-.1043.9388-.1436.361-.306.7142-.4866 1.0579-.1559.3819-.2303.7927-.2183 1.2055.0119.4128.11.8184.2878 1.1905 2.1621 3.1737 4.3867 6.3053 6.5279 9.507 1.7033 2.5361 3.4065 5.0863 5.1376 7.6084.6256.9038 1.2027 1.8566 1.7866 2.8024z"/><path d="m0 57.2764 11.735-5.604 6.2012-3.1103 6.4375-3.6215c.4635-.2616.9015-.5418 1.314-.8407.2254-.1513.416-.3498.5587-.5818.1428-.2321.2343-.4923.2685-.7631.0188-.1902.0847-.3726.1915-.5305.1069-.1578.2514-.2862.4203-.3732.2364-.1471.4658-.2521.2016-.4553-1.4877-1.1208-5.1931 1.401-6.952 2.5218-3.2744 2.1015-6.4445 4.3571-9.7328 6.4796-2.59309 1.6883-5.19313 3.3835-7.77233 5.0997-.93157.6234-1.911793 1.1979-2.87117 1.7793z"/><path d="m66.072 45.3623-9.6841-3.3345-5.214-1.6533-5.6381-1.401c-1.0984-.2803-3.8097-.6655-3.6776.7635.1668 1.8074 3.6498 2.3118 5.2974 2.592 3.0172.5254 6.0621.8757 9.0932 1.4011 2.4054.3993 4.8178.7986 7.2231 1.1629.876.098 1.7311.2591 2.6001.4693z"/><path d="m58.0007 97.5724.431-.0631v-.5604l-4.4284-.4834-3.2744.8197.0695.3572.5353.0701-.0417.7006-7.251-1.5903-1.4529-29.7523 1.0428-.7006c-.0015-.6918.0497-1.3827.1529-2.0666.2016-.8407.5909-.6445 1.1958-.8827.3128-.1191.3615-.2522.0904-.4834-.4033-.3432-.9455-.2662-1.3904-.4554-.445-.1891-.7231-.7495-1.0707-1.2189-.8064-1.233-1.6128-2.4799-2.4471-3.6989-.3058-.4554-.5214-1.6043.3407-1.6043-.3963-.1821-.2711-.9317-.3268-1.345-.0556-.4133-.7299.4273-.7577.4624-.153-1.2317-.2297-2.4717-.2295-3.713 0-.9317-.3128-2.2557.0487-3.1244.1656-.2646.3164-.5382.4519-.8197.1549-.7271.2571-1.4646.3059-2.2067.0764-.5745.2364-1.1419.2711-1.7304.0348-.5884.1182-1.0508-.4241-1.4011-.5771-.3757-1.1234-.7974-1.6337-1.2609-.1599-.1401-1.2722-.8757-1.2722-1.0509l.0973-1.1559.3615-.9597c.0822-.283.0986-.5812.048-.8715-.0506-.2904-.167-.5651-.34-.8028-.2085-.3293-.3962-.7006-.577-1.0369-.3893-.7706-.7438-1.5762-1.1192-2.3608-.3303-.6329-.616-1.2883-.8551-1.9615l.1599-.1822 1.4738-7.8812.3059-.5254-.3337.2172c.0752-.2519.1081-.5148.0973-.7776-.2711.2662-.3198 1.0368-.3615.7706-.0695-.5675-.292-.1401 0 .2171.0904.1051.0348.2873 0 .4344-.1043.7005-.3615 1.4011-.5353 2.1016-.0765.2803-.1391.5044-.1877.7006h-.2225c-.5561.049-.3337-.3503-.6326-.6515-.2989-.3013-.5562.4483-.6048.7005-.0695.4624-.4032.8897-.3824 1.3661.0209.4764.3059.8126.3685 1.24.0665.549.0665 1.1042 0 1.6533-.1043 0-.1877.105-.3129.3853-.1251.2802.0348.7005 0 .9317-.1057.3169-.248.6203-.424.9037-.3894.7426-.7509 1.4992-1.1402 2.2488s-.869 1.268-.9176 2.1016c-.0765 1.282.5214 2.6691.1668 3.9161-.1946.6655-1.4808 1.1979-2.0439 1.5762-.2016.1331-.4519.2312-.5353.4484-.0556.477-.0556.9591 0 1.4361v1.9545c-.0418.3253-.0229.6555.0556.9738.0904.2102.3129.3363.4102.5604.0581.2572.0815.5212.0695.7847.0765.7005.4936 1.2399.5006 1.9755 0 .5745 0 1.1419.0417 1.7164 0 .8967 0 1.7864.0625 2.6761 0 .6095.2434 1.7093 0 2.2768-.0973.2522-.1738.1471-.2363.4483-.0593.5325-.0802 1.0687-.0626 1.6043-.5068.0377-1.0106.1079-1.5086.2101-.4588.0841-.8898.2943-1.3556.3433s-.6952-.2452-1.0706-.6095c-.2807-.264-.5995-.4837-.9455-.6515-.1662-.099-.3562-.1499-.5492-.1471-.3476 0-.2642.0911-.4588.4063.135.1185.2584.2499.3684.3923.0695.1191 0 .3853.1112.4834.2295.2802.8204.2452.9525.6165s-.3129.5884-.5214.7496c-.0802.731-.0802 1.4687 0 2.1997.1738.5464.9176 1.1629 1.2791 1.6043.1224.4824.1693.9811.1391 1.4781 0 .3713-1.1679 21.9763-1.6407 29.7944l-7.7098 1.8074-.1738-.7706.4658-.2172.0348-.5044-3.3161-.4413-3.85837.2102v.4133l.51447.1261-.91074 5.9755 4.90814 1.219 1.5225-.63 15.8575 6.108-.146.428 5.8814 2.171 5.1723-2.227-.1808-.736 11.1927-4.231 1.3904.336 4.3937-1.779zm-23.5951-70.055c0-.1891 0-.3853 0-.5744 0-.1892 0-.4414 0-.7006.1029.0013.2053.013.3059.035l.3476.0421c-.0348 0-.0765.3643-.0835.4133l-.1042.5324c-.0974.4344-.2086.8617-.292 1.303-.0695.3083-.1182.6235-.1738.9318-.0343-.6674-.0343-1.3362 0-2.0036zm.0347 9.5485c-.0173-.2599-.0033-.521.0417-.7776.0348-.2172.1182-.4203.3755-.3923.6465.0841.8898.7566.9176 1.331.0128.3111.0011.6226-.0347.9318-.0174.3056-.0174.612 0 .9177v.4554c0 .1541.0903.3993 0 .4693-.1701.0852-.3536.1397-.5423.1611-.2522.0791-.5102.1376-.7717.1752 0-.2312-.1321-.4484-.146-.7006-.0473-.2728-.0636-.5501-.0486-.8266.1154-.582.1852-1.1723.2085-1.7654zm-.3615-8.0493s.0765.07.0835.0841c.0482.1547.0786.3146.0903.4763.0331.152.0517.3068.0556.4624 0 .049-.0417.0631-.0556.056-.0139-.007-.0695-.1331-.0764-.1751-.0212-.1252-.049-.2491-.0835-.3713-.0486-.1821-.132-.3923-.0139-.5534zm-2.2455 7.7271c.0144-.0794.0491-.1536.1007-.2152.0517-.0616.1184-.1086.1936-.1362.0752-.0277.1562-.035.2351-.0213.0789.0138.1528.048.2145.0994.285.1682.3615.7847.438 1.0649.0744.428.1139.8615.1182 1.296 0 .2382.2155 1.0788.2711 1.324 0 .0631.1321.2662.0556.3363-.4561.1502-.9203.2741-1.3904.3713.0392-.8726.002-1.747-.1112-2.6131-.127-.4911-.1693-1.0006-.1252-1.5061zm-.3615 8.6097 3.337-1.0578c0 .3573.0347 10.5082 0 11.3139l-3.3648 1.0718c.0278.1261.0556-11.3139.0556-11.3489zm-3.761 18.8518c0-.0911 0-.1891 0-.2802.2395-.0754.4832-.1362.73-.1821l1.7658-.4344 2.1273-.5184c.6048-.1401 1.2027-.3083 1.8075-.4414.2642-.056 1.3904-.4763 1.3904.1051v.5745c-.0897.3923-.0704.8019.0556 1.1839.1947.5044.4102.9808.6326 1.4712.0786.2684.1184.5468.1182.8266.0174.2449.0174.4907 0 .7356 0 .3012 0 .6025-.0417.9037v1.324 1.6533c0 .5535 0 1.212-.0347 1.8145-.0348.6024 0 1.324-.0348 1.9895-.0348.6656 0 1.4572 0 2.1857v2.2698c0 .7566 0 1.5342-.0417 2.2978s0 1.5482-.0348 2.3188c-.0347.7706 0 1.5413 0 2.3119l-.0417 2.1997v2.1016c0 .7006 0 1.289-.0347 1.9336-.0348.6445 0 1.1419 0 1.7093v1.4011 1.1769.8127.3783.084c.0556 0-8.5927-2.1016-9.42-2.3048-.2711-.014 1.0636-31.4477 1.0845-31.6228zm-5.3044 35.5459c-.0837-.2092-.1511-.4247-.2016-.6445 0 0-4.2268-.0701-3.8723-.1121h-.2572c.3754.0701 5.9718-1.317 5.9648-1.268h.1252c0 .0771-.0973 1.1279-.1252 1.268-.0278.1401 9.7328 3.3625 9.5729 3.4675 0 0-.3128 1.569-.3337 1.682-.0208.112 0 0 0 0s-10.8381-4.3509-10.8451-4.4139zm19.2849 1.9969c-.0487 0-3.2118.427-3.33.567s.146 5.983-.2503 6.887c-.1947.434-.5423 1.057-1.1054.805-.2085-.098-3.768-1.17-4.3241-1.401h.0486c.1878-.245 1.0081-.259 1.0985-.259h.2294.0556c.8134.112 1.599.119 2.3359.21h.1112c.1599 0 .869 0 .73-.364-.0487-.112-.1878-.168-.2712-.238-.0834-.071-.2711-.253-.424-.358-.7995-.546.3545-1.527.5839-2.066.0598-.136.1064-.276.1391-.421.0556-.147 0-2.389 0-2.746-.3546-.035-4.3033-.546-4.2964-.497.007.049-.0347-.245.0556-.308.0904-.064 0 0 0 0s4.3103-.365 4.6648-.372h.4102c.1321 0 3.2535.196 3.33.238.2364-.014.3546.267.2364.302z" fill-rule="nonzero"/><path d="m34.4678 65.7953c-.3684-.2662-1.008.0701-1.3904.1892-.8558.2582-1.7264.464-2.607.6164-.0973 0-1.4738.1822-1.4807.3293-.007.1471 0 .4834 0 .7005l-.0626 1.6743c0 .9108-.0626 1.8144-.0973 2.7251l-.1252 3.3276c-.0417 1.198-.0904 2.3959-.1321 3.6008-.0417 1.205-.0904 2.4729-.139 3.7059-.0487 1.2329-.0904 2.4029-.1321 3.6008-.0417 1.0578-.0834 2.1016-.1182 3.1735 0 .7916-.0626 1.5832-.0904 2.3748l-.0417 1.1489c0 .1821-.1321.7005.0904.7706.1255.0556.2595.0888.3963.0981.1321 0 .1043-.1542.1112-.2732 0-.2592 0-.5114 0-.7706l.0417-1.0298c.0348-.7636.0626-1.5342.0904-2.2978.0347-1.0158.0765-2.0316.1182-3.0404l.1251-3.3836c.0487-1.1769.0904-2.3609.1391-3.5448.0486-1.1839.0903-2.3118.132-3.4676.0418-1.1559.0835-2.1017.1182-3.1735l.1043-2.613c0-.6375.0487-1.268.0695-1.8985 0-.2732 0-.5394.0348-.8126v-.0771l2.1343-.4624c.6952-.1541 2.2385-.9317 2.593.0771.1048.578.1606 1.1639.1669 1.7514.0487.3642.0904.7005.1321 1.0928 0-.6165.0348-1.233.0626-1.8564.0278-.6235.2502-1.7024-.1252-2.1787z"/></g></svg>