<?xml version="1.0" encoding="utf-8"?>
<!-- Generator: Adobe Illustrator 23.1.0, SVG Export Plug-In . SVG Version: 6.00 Build 0)  -->
<svg version="1.1" id="Layer_1" xmlns="http://www.w3.org/2000/svg" xmlns:xlink="http://www.w3.org/1999/xlink" x="0px" y="0px"
	 viewBox="0 0 841.89 220.25" style="enable-background:new 0 0 841.89 220.25;" xml:space="preserve">
<style type="text/css">
	.st0{fill:#1D1D1B;}
	.st1{fill:#A62131;}
	.st2{fill:none;stroke:#000000;stroke-width:0.23;}
	.st3{fill:#FFFFFF;}
	.st4{fill:none;stroke:#000000;stroke-width:0.01;}
	.st5{fill:none;stroke:#000000;stroke-width:0.012;}
</style>
<g>
	<path class="st0" d="M344.4,149.15c0-1.7-1.11-2.96-3.37-3.45v-1.1c1.25,0,5.43,0.17,6.6,0.17c1.02,0,5.06-0.17,6.32-0.17v1.1
		c-2.1,0.41-3.21,1.65-3.21,3.45v21.58c0,6.83,3.75,10.7,11.6,10.7c6.76,0,12.03-3.04,12.03-10.19v-22.17c0-1.6-1.01-2.87-3.54-3.36
		v-1.1c0.92,0,4.38,0.17,5.55,0.17c1.01,0,4.63-0.17,5.56-0.17v1.1c-2.45,0.58-3.53,1.68-3.53,3.36v20.98
		c0,9.42-5.48,14.83-17.3,14.83c-11.01,0-16.71-5-16.71-13.85V149.15z"/>
	<path class="st0" d="M391.61,183.19c2.56-0.48,3.57-1.77,3.57-3.36v-29.83c0-2.53-1.35-3.67-3.64-4.29v-1.1
		c1.3,0.1,3.48,0.15,4.59,0.15c1.01,0,2.58-0.02,3.64-0.15l25.87,30.42v-25.95c0-1.6-1.02-2.87-3.54-3.37v-1.1
		c0.93,0,4.26,0.17,5.44,0.17c1.03,0,4.6-0.17,5.54-0.17v1.1c-2.47,0.58-3.66,1.69-3.66,3.37v35.81h-1.56
		c-0.98-0.23-2.83-1.28-5.66-4.38l-23.15-26.96v26.29c0,1.6,0.92,2.87,3.45,3.36v1.1c-0.93,0-4.26-0.18-5.44-0.18
		c-1.02,0-4.51,0.18-5.45,0.18V183.19z"/>
	<path class="st0" d="M595.76,175.14h1.09c0.58,2.23,1.85,4.26,3.64,5.43c1.86,1.31,4.78,1.94,7.13,1.94c5.21,0,8.5-2.58,8.5-6.66
		c0-4.22-4.23-6.42-9.29-8.95c-3.77-1.88-11.17-5-11.17-12.15c0-6.66,5.08-10.81,13.21-10.81c5.36,0,7.88,1.31,11.5,1.14l-0.07,8.08
		h-1.1c-1.45-4.76-5.77-6.42-10.51-6.42c-5.3,0-7.28,3.03-7.28,6.11c0,4.41,4.32,6.64,9.21,8.82c5.5,2.45,11.47,5.54,11.47,12.44
		c0,6.53-5.1,11.25-14.43,11.25c-5.55,0-8.88-1.59-11.8-1.94L595.76,175.14z"/>
	<path class="st0" d="M712.98,166.24v13.5c0,1.34,1.02,3.02,3.32,3.44v1.1c-1.28,0-5.48-0.18-6.69-0.18c-1.02,0-5.04,0.18-6.5,0.18
		v-1.1c2.31-0.42,3.42-2.11,3.42-3.44v-12.91 M706.95,167.87l-10.53-16.9c-1.8-2.97-3.17-4.53-5.18-5.27v-1.1
		c1.44,0,5.34,0.17,6.45,0.17c1,0,5.21-0.17,6.73-0.17v1.1c-1.35,0.24-1.98,0.91-1.98,1.93c0,0.9,0.61,2.05,1.22,3.05
		c0.6,0.99,7.77,12.88,7.77,12.88l7.48-12.87c0.76-1.29,1.29-2.57,1.29-3.41c0-0.77-0.54-1.4-1.82-1.57v-1.1
		c1.27,0,3.93,0.17,4.78,0.17s3.91-0.17,5.16-0.17v1.02c-2.88,1.18-4.67,3.7-6.42,6.63l-9.58,16"/>
	<path class="st0" d="M511.21,144.6h24.7c0.76,0,2.1-0.09,2.87-0.42h1.1l-0.17,8.03h-1.09c-0.94-2.53-1.92-4.55-6.7-4.55h-10.72
		v13.99h8.27c1.21,0,2.67-0.1,3.3-0.25c1.86-0.41,2.68-1.44,3.05-3.02h1.1c-0.08,1.21-0.08,3.97-0.08,4.79
		c0,0.82,0.08,3.73,0.08,5.04h-1.1c-0.53-1.58-1.25-2.78-3.05-3.22c-0.63-0.17-2.12-0.3-3.3-0.3h-8.27v16.41h11.67
		c5.09,0,6.57-2.12,7.84-5.13l1.09,0.26l-1.09,8.24c-3.79-0.34-6.06-0.34-10.36-0.34h-12.33c-1.19,0-5.55,0.17-6.81,0.17v-1.1
		c2.22-0.42,3.52-1.52,3.52-3.66v-30.34c0-1.88-1.01-3.06-3.51-3.47V144.6z"/>
	<path class="st0" d="M448.12,149.41c0-2.04-1.21-3.16-3.59-3.67v-1.09c1.33,0,5.61,0.17,6.86,0.17c1.05,0,5.45-0.17,6.79-0.17v1.09
		c-2.37,0.51-3.61,1.53-3.61,3.67v30.13c0,2.04,1.22,3.14,3.61,3.65v1.1c-1.34,0-5.56-0.17-6.79-0.17c-1.06,0-5.54,0.17-6.87,0.17
		v-1.1c2.43-0.45,3.6-1.52,3.6-3.65V149.41z"/>
	<path class="st0" d="M635.5,149.41c0-2.04-1.23-3.16-3.6-3.67v-1.09c1.32,0,5.62,0.17,6.86,0.17c1.06,0,5.46-0.17,6.8-0.17v1.09
		c-2.37,0.51-3.6,1.53-3.6,3.67v30.13c0,2.04,1.22,3.14,3.6,3.65v1.1c-1.33,0-5.55-0.17-6.8-0.17c-1.05,0-5.53,0.17-6.86,0.17v-1.1
		c2.43-0.45,3.6-1.52,3.6-3.65V149.41z"/>
	<path class="st0" d="M669.84,144.77c-13.54,0-15.71-0.25-18.48-0.42l0.02,8.18h1.1c1.01-3.62,3.03-4.47,5.64-4.47h8.49v31.48
		c0,2.13-1.17,3.19-3.6,3.65v1.1c1.34,0,5.85-0.17,6.89-0.17c1.24,0,5.48,0.17,6.8,0.17v-1.1c-2.39-0.5-3.61-1.61-3.61-3.65v-31.48
		h8.43c2.71,0,4.65,0.92,5.66,4.47h1.09l0.02-8.18C685.55,144.52,683.38,144.77,669.84,144.77"/>
	<path class="st0" d="M561.79,163.36c1.26,0.17,3.12,0.25,4.96,0.25c7.43,0,9.77-4.27,9.77-8.06c0-5.35-3.57-8.67-10.08-8.67
		c-1.35,0-3.3,0.17-4.65,0.42V163.36z M561.79,179.54c0,2.04,1.29,3.14,3.68,3.65v1.1c-1.32,0-5.66-0.17-6.89-0.17
		c-1.06,0-5.29,0.17-6.62,0.17v-1.1c2.22-0.42,3.52-1.52,3.52-3.65V149.1c0-1.87-1.02-3.05-3.51-3.47v-1.09
		c1.32,0,5.51,0.17,6.7,0.17c1.94,0,7.45-0.33,9.62-0.33c9.49,0,14.78,3.92,14.78,10.65c0,5.29-3.93,8.87-9.99,10.33
		c0,0,1.38,0.8,2.76,2.41c1.67,1.97,6.19,8.46,8.07,10.73c1.87,2.27,4.27,4.81,6.84,4.93v0.89c-1.23,0.27-3.21,0.5-4.71,0.5
		c-3.22,0-5.8-1.14-8.3-4.16c-2.16-2.63-5.83-8.09-7.99-10.85c-1.38-1.76-3.06-3.13-6.12-3.63c-0.59-0.1-1.15-0.19-1.82-0.26V179.54
		z"/>
	<path class="st0" d="M467.7,149.53c-0.87-1.92-2.19-3.32-4.46-3.82v-1.12c1.41,0,6.29,0.18,7.36,0.18c0.99,0,5.25-0.18,6.7-0.18
		v1.09c-1.29,0.25-2.75,0.96-2.75,2.27c0,0.94,0.57,2.22,1.66,4.63l10.23,23.27l9.68-23.31c0.76-1.88,1.32-3.34,1.32-4.45
		c0-1.23-1.13-2.08-2.74-2.41v-1.09c1.29,0,4.44,0.18,5.42,0.18c0.9,0,4.6-0.18,6.01-0.18v1.12c-2.42,0.65-3.89,1.98-5.24,5.13
		l-14.24,33.58h-3.22L467.7,149.53z"/>
	<path class="st0" d="M504.21,43.62c-1.65-3.63-4.17-6.28-8.45-7.23v-2.11c2.66,0,11.5,0.32,13.53,0.32
		c1.87,0,10.43-0.32,13.16-0.32v2.06c-2.42,0.47-5.2,1.82-5.2,4.32c0,1.76,1.09,4.19,3.13,8.75l19.4,44.09l18.35-44.17
		c1.43-3.58,2.5-6.31,2.5-8.42c0-2.35-2.17-3.94-5.21-4.57v-2.06c2.43,0,8.33,0.32,10.21,0.32c1.71,0,8.72-0.32,11.38-0.32v2
		c-4.57,1.24-7.37,3.87-9.92,9.83l-26.98,63.66H534L504.21,43.62z"/>
	<path class="st0" d="M243.05,107.34c3.52-0.8,6-2.41,6-6.4V42.58c0-3.83-2.3-5.42-6-6.38v-2.07c1.85,0,9.82,0.31,11.76,0.31
		c2.23,0,10.59-0.31,12.42-0.31v2.07c-3.52,0.8-6.13,2.4-6.13,6.38v24.38h43.48V42.58c0-3.99-2.32-5.58-5.99-6.38v-2.07
		c1.84,0,10.04,0.31,12.27,0.31c1.92,0,10.08-0.31,11.9-0.31v2.07c-3.52,0.8-6.13,2.4-6.13,6.38v58.36c0,3.83,2.45,5.44,6.13,6.4
		v1.91c-1.82,0-9.97-0.16-11.9-0.16c-2.23,0-10.43,0.16-12.27,0.16v-1.91c3.5-0.8,5.99-2.41,5.99-6.4V73.36H261.1v27.58
		c0,3.99,2.45,5.44,6.13,6.4v1.91c-1.84,0-10.19-0.16-12.42-0.16c-1.94,0-9.91,0.16-11.76,0.16V107.34z"/>
	<path class="st0" d="M765.01,103.49c2.72,0.49,7.76,0.8,11.73,0.8c22.47,0,34.16-13.52,34.16-32.38
		c0-19.55-12.34-33.31-33.35-33.31c-4.29,0-9.66,0.32-12.54,0.79V103.49z M745.97,107.34c4.51-0.8,7-2.6,7-6.72V42.58
		c0-4-2.45-5.58-6.81-6.38v-2.07c2.51,0,10.69,0.31,12.95,0.31c3.66,0,13.85-0.8,21.79-0.8c26.75,0,42.98,14.94,42.98,37.65
		c0,22.08-16.9,38.43-44.47,38.43c-7.95,0-17.38-0.63-21.07-0.63c-2.24,0-9.87,0.32-12.37,0.32V107.34z"/>
	<path class="st0" d="M443.22,69.8c2.38,0.31,5.9,0.47,9.39,0.47c14.07,0,18.49-8.1,18.49-15.25c0-10.16-6.76-16.42-19.09-16.42
		c-2.54,0-6.24,0.32-8.79,0.79V69.8z M443.22,100.41c0,3.87,2.45,5.97,6.96,6.93v2.07c-2.51,0-10.69-0.32-13.05-0.32
		c-1.99,0-10.01,0.32-12.52,0.32v-2.07c4.19-0.8,6.65-2.89,6.65-6.93V42.78c0-3.55-1.92-5.79-6.64-6.59v-2.07
		c2.51,0,10.44,0.31,12.67,0.31c3.68,0,14.11-0.61,18.22-0.61c17.99,0,28,7.44,28,20.16c0,10.03-7.47,16.78-18.94,19.57
		c0,0,2.6,1.51,5.22,4.57c3.17,3.73,11.93,16.27,15.48,20.56c3.54,4.3,8.08,9.1,12.94,9.32v1.69c-2.33,0.5-6.05,0.93-8.9,0.93
		c-6.13,0-11-2.15-15.74-7.89c-4.08-4.98-11.23-15.57-15.32-20.79c-2.61-3.33-5.77-5.92-11.55-6.88c-1.14-0.19-2.21-0.34-3.47-0.49
		V100.41z"/>
	<path class="st0" d="M680.29,69.8c2.41,0.31,5.91,0.47,9.4,0.47c14.07,0,18.48-8.1,18.48-15.25c0-10.16-6.77-16.42-19.07-16.42
		c-2.56,0-6.24,0.32-8.81,0.79V69.8z M680.29,100.41c0,3.87,2.46,5.97,6.97,6.93v2.07c-2.51,0-10.68-0.32-13.03-0.32
		c-2.02,0-10.02,0.32-12.54,0.32v-2.07c4.18-0.8,6.65-2.89,6.65-6.93V42.78c0-3.55-1.93-5.79-6.64-6.59v-2.07
		c2.52,0,10.42,0.31,12.67,0.31c3.69,0,14.11-0.61,18.2-0.61c18.02,0,28,7.44,28,20.16c0,10.03-7.45,16.78-18.93,19.57
		c0,0,2.61,1.51,5.21,4.57c3.21,3.73,11.96,16.27,15.49,20.56c3.55,4.3,8.1,9.1,12.93,9.32v1.69c-2.3,0.5-6.04,0.93-8.86,0.93
		c-6.15,0-11.04-2.15-15.76-7.89c-4.08-4.98-11.21-15.57-15.33-20.79c-2.61-3.33-5.76-5.92-11.53-6.88
		c-1.16-0.19-2.22-0.34-3.49-0.49V100.41z"/>
	<path class="st0" d="M382.14,79.2l-11.97-27.9l-11.15,27.9H382.14z M334.2,107.32c4.76-1.11,7.37-4.19,9.11-8.32l24.08-57.94
		c1.02-2.4,2.22-7.32,2.22-7.32h6.74c0,0,1.21,4.94,2.21,7.34L404,99.16c1.81,4,3.78,6.89,8.84,8.16l-0.01,1.93
		c-2.76,0-11.32-0.16-13.27-0.16c-1.94,0-10.12,0.16-12.87,0.16l0.01-1.93c3.7-0.91,4.87-2.79,4.87-4.62c0-1.55-0.64-3.3-1.42-5.11
		l-5.47-12.48h-28.04l-5.01,12.55c-0.56,1.42-1.23,3.43-1.23,4.79c0,2.09,1.09,3.76,5.3,4.87l-0.01,1.93
		c-2.49,0-9.06-0.16-10.6-0.16l-10.89,0.16L334.2,107.32z"/>
	<path class="st0" d="M620.7,79.2l-11.98-27.9l-11.14,27.9H620.7z M572.76,107.32c4.76-1.11,7.38-4.19,9.1-8.32l24.09-57.94
		c1.02-2.4,2.23-7.32,2.23-7.32h6.74c0,0,1.19,4.94,2.19,7.34l25.46,58.08c1.8,4,3.78,6.89,8.82,8.16l-0.01,1.93
		c-2.75,0-11.32-0.16-13.28-0.16c-1.92,0-10.1,0.16-12.85,0.16v-1.93c3.73-0.91,4.88-2.79,4.88-4.62c0-1.55-0.63-3.3-1.4-5.11
		l-5.49-12.48h-28.04l-5.02,12.55c-0.56,1.42-1.22,3.43-1.22,4.79c0,2.09,1.09,3.76,5.3,4.87v1.93c-2.5,0-9.06-0.16-10.61-0.16
		l-10.89,0.16L572.76,107.32z"/>
	<path class="st1" d="M20.74,10.7h167.89v63.42c0,29.06-10.82,90.68-83.32,136.55c0,0-78.56-32.81-84.57-136.55V10.7z"/>
	<path class="st2" d="M20.39,10.53h168.06v63.47c0,29.07-10.83,90.73-83.4,136.62c0,0-78.64-32.83-84.66-136.62V10.53z"/>
	<path class="st3" d="M147.81,92.19c0,0-1.5,4.77-8.15-0.13l-22.86-0.55c0,0-2.99,0.96-3.4-2.17c0,0,0.55-6.26,0.27-6.8
		c0,0,0.14-1.77-2.87-1.77c0,0-4.62,0.54-4.75-3.55c0,0-0.81-4.35,5.58-4.21c0,0,2.04,0.95,2.18-1.64c0,0-0.27-17.69-0.14-19.04
		c0,0,0.55-1.62-2.59-1.9c0,0-4.49,0.95-5.03-2.04c0,0-0.27-4.49,2.73-4.77c0,0,3.67,0.28,4.35-0.68c0,0,0.82,0.54,0.68-2.71
		l0.14-5.59c0,0,0.39-1.49,2.71-1.35c0,0,4.22,0.27,4.77-0.15c0,0,0.94-1.22,1.22-1.77c0,0,2.18-0.13,2.58,0.41
		c0,0,3.27,2.18,15.65,1.36c0,0,1.91,0,2.3,0.55c0,0,2.32,1.77,3.68-0.13c0,0,2.04-0.42,8.16-0.27c0,0,6.68,1.76,11.29-2.05
		l1.5,0.27c0,0,1.9,3.12,3.26,2.18c0,0,4.08-0.4,4.76,0.41c0,0,1.36,2.03,0.68,7.35c0,0-0.81,2.3,3.13,2.3c0,0,4.49-0.82,3.94,3.4
		c0,0,1.22,4.76-6.25,4.09c0,0-0.96,1.36-0.83,2.31c0,0-0.13,15.5-0.27,17.28c0,0-0.13,2.45,3.13,2.31c0,0,4.36-0.28,4.5,3.67
		c0,0,0.54,5.17-5.73,4.21c0,0-1.9,0.28-2.19,1.5l-0.26,6.8c0,0,0.13,3.4-3.67,2.58c-0.54,0-21.22,0.42-22.99-0.12
		C149.04,91.79,148.08,91.66,147.81,92.19"/>
	<path class="st3" d="M103.87,114.93c0,0,0.95-0.4,1.22-1.07c0,0,2.86-0.28,3.26-0.68l8.98,0.68c0,0,8.84,0.67,12.65-2.06
		c0,0,1.37,0,2.32,0.42c0,0,1.89,0.42,2.44,1.22l5.17-0.14c0,0,2.99,0.96,2.72,2.87v2.44c0,0-0.55,4.9,0.81,5.18h3.96
		c0,0,3.27,1.49,2.86,3.4c0,0,0.14,2.71-2.71,3.26c0,0-2.87,0.81-3.81,0.68c0,0-0.96,1.22-1.1,2.71l-0.4,17.82
		c0,0-0.28,1.9,2.58,1.63c0,0,4.21-0.41,5.44,1.91c0,0,1.09,3.94-1.09,4.62l-1.63,0.81L144,161.2c0,0-1.49,0.12-1.63,2.71v4.75
		c0,0,0.14,3.28-2.45,3.28l-3.81,0.27c0,0-0.95,0.8-2.85,0.26c0,0-23.13,0.42-23.95,0.14l-2.72,0.55c0,0-2.99,2.72-5.44,0.67
		l-1.9-1.5c0,0-1.36,0.27-1.9,0.13c-0.55-0.13-25.58,0.28-25.58,0.28s-5.31,0.55-5.71-1.23c0,0-0.68-6.93-0.41-7.76
		c0,0,0-2.03-1.22-2.16c0,0-5.31-0.27-5.44-0.83c0,0-2.86-2.03-2.04-4.07c0,0,0.96-2.73,3.81-3c0,0,4.35,0.69,4.35-0.54
		c0,0,0.28-0.82,0.28-2.17c0,0,0.27-16.2,0.13-17.28c0,0,0.41-2.04-1.36-2.04c0,0-1.9,0.54-3.12-0.27c0,0-3.27,0.14-3.95-2.45
		c0,0-0.55-1.63,0.26-3c0,0,1.5-2.99,5.85-2.03c0,0,2.45,0.68,2.72-1.08l-0.13-6.54c0,0-0.55-1.76,2.85-2.71
		c0,0,4.35,1.22,5.71-0.95c0,0,1.5-3,2.71-0.96c0,0,2.6,2.45,9.67,2.19c0,0,12.25-0.96,12.52-0.43c0,0,2.99,0.43,3.81,1.37
		L103.87,114.93z"/>
	<path class="st3" d="M66.89,92.19c0,0-1.5,4.77-8.17-0.14l-22.85-0.55c0,0-2.99,0.96-3.4-2.17c0,0,0.55-6.25,0.26-6.8
		c0,0,0.15-1.77-2.85-1.77c0,0-4.62,0.56-4.75-3.53c0,0-0.82-4.37,5.57-4.22c0,0,2.03,0.95,2.18-1.64c0,0-0.27-17.68-0.15-19.05
		c0,0,0.56-1.62-2.57-1.89c0,0-4.49,0.95-5.03-2.05c0,0-0.28-4.48,2.71-4.76c0,0,3.67,0.28,4.36-0.66c0,0,0.82,0.53,0.68-2.74
		l0.14-5.57c0,0,0.41-1.5,2.71-1.36c0,0,4.23,0.27,4.78-0.14c0,0,0.95-1.22,1.21-1.77c0,0,2.19-0.13,2.6,0.4
		c0,0,3.26,2.19,15.65,1.37c0,0,1.89,0,2.3,0.55c0,0,2.31,1.77,3.67-0.14c0,0,2.04-0.41,8.17-0.27c0,0,6.65,1.77,11.29-2.04
		l1.49,0.28c0,0,1.9,3.12,3.28,2.17c0,0,4.08-0.41,4.76,0.41c0,0,1.36,2.04,0.67,7.35c0,0-0.81,2.31,3.13,2.31
		c0,0,4.49-0.81,3.95,3.39c0,0,1.23,4.76-6.26,4.09c0,0-0.96,1.36-0.83,2.31c0,0-0.13,15.5-0.27,17.28c0,0-0.13,2.43,3.13,2.31
		c0,0,4.35-0.29,4.49,3.67c0,0,0.54,5.17-5.71,4.21c0,0-1.91,0.28-2.19,1.5l-0.27,6.8c0,0,0.14,3.4-3.68,2.59
		c-0.54,0-21.21,0.4-22.98-0.13C68.11,91.79,67.16,91.66,66.89,92.19"/>
	<path d="M147.81,92.19c0,0-1.5,4.77-8.15-0.13l-22.86-0.55c0,0-2.99,0.96-3.4-2.17c0,0,0.55-6.26,0.27-6.8c0,0,0.14-1.77-2.87-1.77
		c0,0-4.62,0.54-4.75-3.55c0,0-0.81-4.35,5.58-4.21c0,0,2.04,0.95,2.18-1.64c0,0-0.27-17.69-0.14-19.04c0,0,0.55-1.62-2.59-1.9
		c0,0-4.49,0.95-5.03-2.04c0,0-0.27-4.49,2.73-4.77c0,0,3.67,0.28,4.35-0.68c0,0,0.82,0.54,0.68-2.71l0.14-5.59
		c0,0,0.39-1.49,2.71-1.35c0,0,4.22,0.27,4.77-0.15c0,0,0.94-1.22,1.22-1.77c0,0,2.18-0.13,2.58,0.41c0,0,3.27,2.18,15.65,1.36
		c0,0,1.91,0,2.3,0.55c0,0,2.32,1.77,3.68-0.13c0,0,2.04-0.42,8.16-0.27c0,0,6.68,1.76,11.29-2.05l1.5,0.27c0,0,1.9,3.12,3.26,2.18
		c0,0,4.08-0.4,4.76,0.41c0,0,1.36,2.03,0.68,7.35c0,0-0.81,2.3,3.13,2.3c0,0,4.49-0.82,3.94,3.4c0,0,1.22,4.76-6.25,4.09
		c0,0-0.96,1.36-0.83,2.31c0,0-0.13,15.5-0.27,17.28c0,0-0.13,2.45,3.13,2.31c0,0,4.36-0.28,4.5,3.67c0,0,0.54,5.17-5.73,4.21
		c0,0-1.9,0.28-2.19,1.5l-0.26,6.8c0,0,0.13,3.4-3.67,2.58c-0.54,0-21.22,0.42-22.99-0.12C149.04,91.79,148.08,91.66,147.81,92.19"
		/>
	<path class="st4" d="M147.81,92.2c0,0-1.5,4.77-8.15-0.13l-22.86-0.55c0,0-2.99,0.96-3.4-2.17c0,0,0.55-6.26,0.27-6.8
		c0,0,0.14-1.77-2.86-1.77c0,0-4.62,0.55-4.76-3.54c0,0-0.81-4.35,5.58-4.21c0,0,2.04,0.95,2.18-1.64c0,0-0.27-17.69-0.14-19.05
		c0,0,0.55-1.63-2.58-1.9c0,0-4.49,0.95-5.04-2.04c0,0-0.26-4.49,2.73-4.77c0,0,3.67,0.27,4.35-0.68c0,0,0.83,0.54,0.68-2.72
		l0.15-5.59c0,0,0.39-1.49,2.72-1.35c0,0,4.22,0.27,4.76-0.15c0,0,0.94-1.21,1.22-1.77c0,0,2.18-0.14,2.58,0.41
		c0,0,3.26,2.18,15.65,1.35c0,0,1.91,0,2.3,0.55c0,0,2.32,1.77,3.68-0.13c0,0,2.04-0.42,8.16-0.27c0,0,6.68,1.76,11.29-2.05
		l1.5,0.27c0,0,1.9,3.13,3.26,2.18c0,0,4.08-0.4,4.76,0.41c0,0,1.36,2.04,0.68,7.35c0,0-0.81,2.31,3.13,2.31
		c0,0,4.49-0.82,3.94,3.39c0,0,1.22,4.77-6.25,4.09c0,0-0.95,1.36-0.82,2.32c0,0-0.13,15.5-0.27,17.28c0,0-0.14,2.45,3.13,2.32
		c0,0,4.36-0.28,4.5,3.66c0,0,0.53,5.17-5.73,4.21c0,0-1.9,0.28-2.19,1.5l-0.26,6.8c0,0,0.13,3.4-3.67,2.58
		c-0.54,0-21.22,0.42-23-0.13C149.04,91.79,148.08,91.66,147.81,92.2z"/>
	<path class="st3" d="M122.11,36.14c0,0,0.27,2.72,0.27,3.41c0,0.68-0.4,39.31-0.4,39.31s0.4,2.99-2.17,4.49
		c0,0-0.69,0.27-0.82-1.64l0.27-40.8C119.25,40.92,119.52,35.87,122.11,36.14"/>
	<path class="st5" d="M122.11,36.14c0,0,0.26,2.72,0.26,3.41c0,0.68-0.4,39.32-0.4,39.32s0.4,2.99-2.18,4.49
		c0,0-0.69,0.27-0.83-1.63l0.27-40.81C119.25,40.92,119.52,35.87,122.11,36.14z"/>
	<path class="st3" d="M117.62,83.76c0,0,0.27-38.36,0.14-39.04c-0.14-0.67,0.13,0.56,0.13,0.56s-0.41-6.68,1.36-9.4
		c0,0-0.55-2.3-3.68,0.55l-0.14,5.57c0,0,0,3.13-2.85,3c0,0-3.27-0.14-4.76,1.36c0,0-0.82,3,2.31,2.46c0,0,4.9,0,5.17,2.03
		l-0.27,20.55c0,0,1.09,3.42-2.72,3.42c0,0-4.64-0.29-4.49,2.57c0,0,0.96,2.45,4.9,1.64c0,0,2.85,0.53,2.72,3.27v5.17
		c0,0-0.27,2.05,2.45,2.18h21.22c0,0,1.08,0.13,1.08-1.23c0,0-0.13-1.09-1.76-1.09l-17.68-0.27
		C120.75,87.03,117.89,87.98,117.62,83.76"/>
	<path class="st3" d="M121.7,83.7c0,0-0.55,1.9,1.49,1.51h14.01l3.8,0.83c0,0,3.94-0.96,0-3.13c0,0-12.51,0.12-13.6-0.14
		c0,0-2.59-0.68-3.14-0.81C124.27,81.94,122.92,81.4,121.7,83.7"/>
	<path class="st5" d="M121.7,83.7c0,0-0.55,1.91,1.49,1.51h14.02l3.8,0.83c0,0,3.95-0.97,0-3.14c0,0-12.51,0.12-13.6-0.14
		c0,0-2.59-0.68-3.14-0.82C124.27,81.94,122.92,81.39,121.7,83.7z"/>
	<path class="st3" d="M144.96,85.61c0,0-2.58,0-2.45,3.41c0,0,0.27,2.57,2.99,2.57c0,0,2.44-0.4,2.18-3.12
		C147.68,88.47,146.18,85.07,144.96,85.61"/>
	<path class="st3" d="M146.87,84.25c0,0,1.22-1.36,2.04-1.36c0,0,13.6,1.22,15.9-0.41c0,0,2.05-0.41,2.6,0c0,0,2.04,1.63,2.04,2.58
		c0,0-0.13,1.23-2.58,0.53c0,0-15.37,0.15-16.19,0.15C150.67,85.75,146.45,86.7,146.87,84.25"/>
	<path class="st5" d="M146.86,84.25c0,0,1.22-1.36,2.04-1.36c0,0,13.61,1.22,15.91-0.41c0,0,2.05-0.41,2.6,0
		c0,0,2.04,1.63,2.04,2.59c0,0-0.13,1.23-2.58,0.53c0,0-15.38,0.15-16.2,0.15C150.67,85.75,146.44,86.7,146.86,84.25z"/>
	<path class="st3" d="M148.63,88.66c0,0,0-1.1,1.91-1.1l19.04-0.13c0,0,1.77,0.95,1.77-2.3c0,0,0.7-14.83,0.76-31.16
		c0.02-4.86,0.24-9.96,0.07-14.68c0,0-0.42-2.04-0.97-2.46c0,0,0-2.17,2.32-1.36c0,0,2.04,0.14,1.5,3.28l0.14,4.74
		c0,0-0.41,2.05,3.25,1.5c0,0,3.67,0.55,3.81,1.9c0,0,1.09,2.73-3.26,2.45h-3.14c0,0-1.36,0.81-0.95,2.45l-0.41,19.73
		c0,0-0.27,3.4,2.99,3.27c0,0,3.39-0.14,4.08,0.95c0,0,2.33,3.4-2.72,3.13c0,0-3.13-0.14-3.81,0.41c0,0-0.55,0.68-0.95,7.08
		c0,0,0.28,3.81-2.58,3.39c0,0-18.91,0.27-20.68-0.13C150.81,89.61,148.91,90.17,148.63,88.66"/>
	<path class="st3" d="M124.15,34.91l-0.41,43.68c0,0-0.13,2.03,3.27,2.44c0,0,3.94,0.41,4.89,0c0,0,2.6-0.14,9.25,0.14
		c0,0,1.64,1.65,1.78-0.41c0,0,1.08-35.36,0.55-42.72c0,0-0.15-3.13-2.45-3.26c0,0-10.34,0.83-11.29,0l-4.08-1.08
		C125.64,33.69,124.01,33.83,124.15,34.91"/>
	<path class="st3" d="M145.64,37.09c0,0-0.41,20.54-0.27,21.22l-0.27,17.27l-0.55,5.99c0,0,0.82,1.22,1.5,0.41
		c0,0,4.35-1.1,7.07-0.68c0,0,8.72,0.81,10.48-0.56c0,0,1.36,0.68,1.76-1.5c0,0,0.54-38.08,0.29-38.76c0,0,0.53-5.46,0.25-5.99
		c0,0-0.12-1.22-2.44-0.14c0,0,0.27,1.09-12.65,0.67C150.81,35.04,145.92,34.91,145.64,37.09"/>
	<path class="st3" d="M167.28,36.55l-0.13,42.98c0,0,1.09,3.82,2.85,3.42c0,0,0.27-0.83,0.4-2.19l0.55-40.95
		C170.94,39.82,169.58,33.3,167.28,36.55"/>
	<path class="st5" d="M167.27,36.55l-0.13,42.99c0,0,1.09,3.82,2.86,3.42c0,0,0.27-0.83,0.4-2.19l0.55-40.96
		C170.94,39.81,169.58,33.3,167.27,36.55z"/>
	<path d="M150.57,49.42c-0.41-1.09,2.31-1.22,2.31-1.22l1.36,0.27c0.95-0.13,1.91,0.28,1.91,0.28c0.95,1.49-0.68,2.3-0.68,2.3
		l-0.54,1.77c-0.14,1.5,0,14.42,0,14.42c0.27,0.67,1.36,1.89,1.36,1.89c0,1.23-1.5,0.96-1.5,0.96l-3.94,0.14
		c-1.23-0.14-0.82-1.5-0.82-1.5c1.36-0.68,1.77-3.13,1.77-3.13V52.14L150.57,49.42z"/>
	<path d="M132.34,51.32c0.13,3,0.13,7.08,0.13,7.08c2.59,2.04,4.08-0.82,4.08-0.82c3.4-3.26,0-6.26-0.54-7.07
		c-0.55-0.82-3.27-0.14-3.27-0.14L132.34,51.32z M132.21,62.08l-0.27,4.22l1.21,2.04c0.83,1.09-0.54,1.91-0.54,1.91l-4.35-0.41
		c-0.81-0.42,0-1.77,0-1.77c1.09-0.67,1.23-2.45,1.23-2.45l-0.14-7.89l0.14-5.71c0-0.68-1.09-1.9-1.09-1.9
		c-0.95-0.14-0.68-1.36-0.68-1.36c0.27-0.68,2.57-0.28,2.57-0.28h5.72c5.44,1.77,4.63,5.72,4.63,5.72c0.41,3.94-3.81,5.58-3.81,5.58
		l-0.28,2.18l3.95,6.25c0.68,0.55,0.55,1.1,0.55,1.1c-0.55,1.5-2.73,0-2.73,0l-4.89-7.62C133.02,61.12,132.21,62.08,132.21,62.08"/>
	<path d="M103.87,114.93c0,0,0.95-0.4,1.22-1.07c0,0,2.86-0.28,3.26-0.68l8.98,0.68c0,0,8.84,0.67,12.65-2.06c0,0,1.37,0,2.32,0.42
		c0,0,1.89,0.42,2.44,1.22l5.17-0.14c0,0,2.99,0.96,2.72,2.87v2.44c0,0-0.55,4.9,0.81,5.18h3.96c0,0,3.27,1.49,2.86,3.4
		c0,0,0.14,2.71-2.71,3.26c0,0-2.87,0.81-3.81,0.68c0,0-0.96,1.22-1.1,2.71l-0.4,17.82c0,0-0.28,1.9,2.58,1.63
		c0,0,4.21-0.41,5.44,1.91c0,0,1.09,3.94-1.09,4.62l-1.63,0.81L144,161.2c0,0-1.49,0.12-1.63,2.71v4.75c0,0,0.14,3.28-2.45,3.28
		l-3.81,0.27c0,0-0.95,0.8-2.85,0.26c0,0-23.13,0.42-23.95,0.14l-2.72,0.55c0,0-2.99,2.72-5.44,0.67l-1.9-1.5
		c0,0-1.36,0.27-1.9,0.13c-0.55-0.13-25.58,0.28-25.58,0.28s-5.31,0.55-5.71-1.23c0,0-0.68-6.93-0.41-7.76c0,0,0-2.03-1.22-2.16
		c0,0-5.31-0.27-5.44-0.83c0,0-2.86-2.03-2.04-4.07c0,0,0.96-2.73,3.81-3c0,0,4.35,0.69,4.35-0.54c0,0,0.28-0.82,0.28-2.17
		c0,0,0.27-16.2,0.13-17.28c0,0,0.41-2.04-1.36-2.04c0,0-1.9,0.54-3.12-0.27c0,0-3.27,0.14-3.95-2.45c0,0-0.55-1.63,0.26-3
		c0,0,1.5-2.99,5.85-2.03c0,0,2.45,0.68,2.72-1.08l-0.13-6.54c0,0-0.55-1.76,2.85-2.71c0,0,4.35,1.22,5.71-0.95c0,0,1.5-3,2.71-0.96
		c0,0,2.6,2.45,9.67,2.19c0,0,12.25-0.96,12.52-0.43c0,0,2.99,0.43,3.81,1.37L103.87,114.93z"/>
	<path class="st4" d="M103.87,114.76c0,0,0.94-0.4,1.22-1.08c0,0,2.86-0.28,3.26-0.68l8.98,0.68c0,0,8.84,0.68,12.65-2.05
		c0,0,1.37,0,2.32,0.42c0,0,1.9,0.41,2.43,1.21l5.18-0.13c0,0,2.99,0.96,2.71,2.87v2.45c0,0-0.54,4.9,0.82,5.17h3.95
		c0,0,3.26,1.5,2.86,3.4c0,0,0.14,2.71-2.72,3.26c0,0-2.87,0.81-3.81,0.68c0,0-0.96,1.22-1.1,2.72l-0.4,17.83
		c0,0-0.27,1.89,2.58,1.63c0,0,4.21-0.4,5.45,1.91c0,0,1.09,3.94-1.09,4.63l-1.63,0.81l-3.55,0.55c0,0-1.49,0.13-1.62,2.71v4.77
		c0,0,0.13,3.26-2.45,3.26l-3.81,0.27c0,0-0.95,0.81-2.86,0.27c0,0-23.13,0.41-23.95,0.13l-2.73,0.55c0,0-2.98,2.72-5.43,0.67
		l-1.91-1.5c0,0-1.36,0.27-1.9,0.15c-0.55-0.15-25.58,0.27-25.58,0.27s-5.31,0.55-5.72-1.23c0,0-0.68-6.94-0.41-7.76
		c0,0,0-2.03-1.23-2.17c0,0-5.3-0.27-5.44-0.82c0,0-2.86-2.04-2.04-4.08c0,0,0.96-2.73,3.81-3c0,0,4.35,0.7,4.35-0.54
		c0,0,0.28-0.81,0.28-2.16c0,0,0.27-16.2,0.14-17.29c0,0,0.41-2.05-1.37-2.05c0,0-1.9,0.54-3.13-0.27c0,0-3.26,0.13-3.94-2.45
		c0,0-0.55-1.63,0.27-3c0,0,1.49-2.99,5.85-2.04c0,0,2.45,0.69,2.72-1.08l-0.14-6.54c0,0-0.55-1.76,2.86-2.72
		c0,0,4.35,1.23,5.71-0.95c0,0,1.49-3,2.71-0.97c0,0,2.6,2.45,9.66,2.19c0,0,12.25-0.96,12.52-0.42c0,0,3,0.42,3.81,1.37
		L103.87,114.76z"/>
	<path class="st3" d="M107.41,168.4c0,0,1.64-0.83,2.73-0.54c1.09,0.27,17-0.13,17-0.13s6.94,0.54,8.03-0.42l1.62-0.54
		c0,0,0.68-0.81,0.68-1.89c0-1.1,0.14-4.77,0.14-4.77l0.42-1.35c0,0-0.14-1.36,0-37.69c0,0,0.53-2.84-1.24-4.62
		c0,0,0-1.08,0.54-0.95c0.55,0.15,0.28,0.15,0.28,0.15s2.45-0.69,2.85,0.26c0,0,1.1,3.25,0.14,5.17c0,0-0.27,3.95,1.78,3.95
		c0,0,0.8,0.82,2.44,0.41c0,0,3.54,0.41,3.54,1.49c0,0,0,2.46-2.45,2.05l-3.27,0.26c0,0-2.18,0.42-1.9,2.99
		c0.28,2.59-0.14,21.09-0.14,21.09s0,2.19,3.41,2.05c0,0,4.21-0.14,4.21,1.08c0,0,1.09,2.72-1.9,2.86c0,0-5.72-0.14-5.3,1.49
		c0,0-0.41,3.82-0.69,4.49c0,0,0.56,3.13-0.14,3.68c0,0-0.4,1.76-4.07,1.49c0,0-23.39-0.13-27.07,0.14
		C109.05,170.57,106.87,170.3,107.41,168.4"/>
	<path class="st3" d="M103.2,165.81c0,0,2.31,0.4,2.31,2.58c0,2.17,0.14,3.4-1.23,3.67c-1.36,0.27-2.85-0.13-3.25-1.89
		C100.61,168.4,101.29,166.21,103.2,165.81"/>
	<path class="st3" d="M105.92,164.73c0,0,2.45-1.64,3.4-1.36c0,0,12.38,0.81,16.19,0.14c3.81-0.68,1.49-0.14,1.49-0.14
		s3.27,0,4.21-1.23c0,0,0.96-0.26,1.5,0.69l2.03,2.19c0,0,0.15,1.35-2.17,1.21c0,0-22.18,0-22.85,0.14
		C109.73,166.36,105.51,167.03,105.92,164.73"/>
	<path class="st5" d="M105.91,164.73c0,0,2.45-1.64,3.4-1.36c0,0,12.38,0.81,16.2,0.15c3.81-0.69,1.49-0.15,1.49-0.15
		s3.27,0,4.22-1.24c0,0,0.95-0.26,1.5,0.69l2.03,2.19c0,0,0.15,1.35-2.17,1.21c0,0-22.18,0-22.86,0.14
		C109.72,166.36,105.51,167.03,105.91,164.73z"/>
	<path class="st3" d="M73.68,116.43c0,0,0.95,0,0.82,1.63l-0.28,41.08c0,0,0.42,2.73-1.9,4.49c0,0-1.23,1.49-1.23-0.81l0.56-41.9
		C71.64,120.92,71.77,117.79,73.68,116.43"/>
	<path class="st5" d="M73.68,116.43c0,0,0.95,0,0.83,1.63l-0.29,41.09c0,0,0.42,2.73-1.9,4.49c0,0-1.24,1.49-1.24-0.81l0.56-41.91
		C71.63,120.92,71.77,117.79,73.68,116.43z"/>
	<path class="st3" d="M71.5,116.7c0,0-1.63,3-1.5,3.68l-0.14,9.1c0,0-0.14,5.85,0,6.53c0.14,0.68-0.14,17.82-0.14,17.82
		s-0.14,3.26,0,4.35v7.34c0,0-0.27,3.27,2.17,2.44c0,0,23.95-0.54,25.45-0.12c0,0,2.17,0.4,1.36,1.49c0,0,0,0.96-1.51,0.68
		c0,0-11.29,1.08-21.49,0.68c0,0-6.8,0.4-7.22-0.4c0,0-1.08-0.14-1.08-4.09c0,0,0-3.66-0.26-4.34c0,0,0.26-1.93-3.13-2.32
		c0,0-4.76,0.82-4.9-2.04c0,0,0.68-2.04,5.31-1.77c0,0,3.4,0.55,2.72-2.18l0.4-20.12c0,0,0.42-3.55-1.9-3.7c0,0-2.17-0.11-2.86,0.14
		c0,0-3.94,0-3.67-2.3c0,0,1.36-2.46,5.31-1.91c0,0,2.99,0.54,3.13-2.85c0,0-0.14-6.94,1.49-7.21
		C69.05,115.62,72.45,115.75,71.5,116.7"/>
	<path class="st3" d="M75.58,161.73c0,0,1.91,2.03,5.04,1.91l18.49,0.26c0,0,2.05,0.15,1.92,1.22c0,0-0.29,1.63-2.73,1.09
		l-22.31-0.27l-2.45,0.15c0,0-1.63-0.28,0.96-3.41L75.58,161.73z"/>
	<path class="st5" d="M75.57,161.72c0,0,1.91,2.04,5.05,1.91l18.49,0.27c0,0,2.05,0.14,1.93,1.22c0,0-0.29,1.63-2.72,1.1
		l-22.33-0.27l-2.46,0.14c0,0-1.63-0.28,0.96-3.41L75.57,161.72z"/>
	<path class="st3" d="M132.72,159.95c0,0,1.63,3.13,2.45,3.56c0,0,1.5,1.75,1.09-1.37l0.27-39.18c0,0-0.41-1.36,0-3.53l-1.63-2.99
		c0,0-1.77-1.36-1.77,0.81l-0.27,41.77L132.72,159.95z"/>
	<path class="st5" d="M132.71,159.95c0,0,1.64,3.13,2.46,3.56c0,0,1.5,1.76,1.09-1.38l0.27-39.19c0,0-0.41-1.36,0-3.52l-1.63-3
		c0,0-1.78-1.36-1.78,0.82l-0.27,41.77L132.71,159.95z"/>
	<path class="st3" d="M102.52,141.32c0,0,0.14,3.25-0.28,6.38c-0.22,1.73,0.55,9.67-0.14,13.75c0,0-0.12,1.36-2.99,0.15
		c0,0-17.41,0.4-17.95-0.15c0,0-4.76,0.15-5.17-2.31c0,0,0.68-18.64,0.27-19.33c0,0-0.27-10.2,0-11.15c0,0,0.41-9.39,0.14-10.47
		c0,0,0.14-2.18-0.27-3.27c0,0,0-1.36,2.32-0.55c0,0,0.8,1.5,5.3,0.83c0,0,3.27,0.54,6.4,0.13c0,0,6.93-0.54,8.71,0
		c0,0,2.72-0.54,3.53,2.46l-0.14,8.43l0.81,2.72l0.96-0.68l0.4-2.04l0.14-8.98c0,0,0.54-1.64,2.73-1.91c0,0,3.4-0.42,3.95-0.13
		c0.54,0.26,7.88,0.67,9.93,0.26c2.04-0.41,2.44,1.36,8.57-1.76c0,0,1.63,0.14,1.63,1.21c0,0-0.56,11.58,0,13.74
		c0,0,0,21.22-0.42,22.72l0.28,6.8c0,0,0.27,2.99-4.48,3.27c0,0,2.99,0.41-15.79-0.13c0,0-2.99-0.14-6.25,1.35
		c0,0-0.68-0.13-0.68-1.9c0,0,0.54-6.39,0-12.66l-0.26-6.94L102.52,141.32z"/>
	<path d="M90.27,131.67c0,0,0.41,10.06,0,11.42l-0.13,2.18c0,0,0.54,1.49,1.36,2.04c0,0,0.68,1.9-0.95,1.77c0,0-3.4-0.27-4.21-0.15
		c0,0-1.91,0,0-2.43c0,0,0.68-0.97,0.54-3.41c0,0,0-11.42,0.28-12.1c0,0,0.27-1.51-0.68-1.92l-1.64,0.14l-2.03,1.9
		c0,0-0.42,2.05-1.37-0.13v-1.1l1.23-3.26l0.82-0.14c0,0,1.22,0.82,2.3,1.1h6.4l2.31-1.1c0,0,0.95,0.14,0.69,1.36
		c0,0,0.4,3.14-1.37,3.54c0,0-1.09-0.4-1.63-1.9C92.18,129.49,90.41,128.55,90.27,131.67"/>
	<path d="M120.33,128c0,0-5.16-0.41-5.29,5.17c0,0-0.56,3.82,5.16,6.27c0,0,4.22,2.03,3.94,4.61c0,0-0.54,4.63-5.03,2.32
		c0,0-2.17-1.09-2.03-2.32c0,0-0.69-1.5-1.51-1.22c0,0-0.96,0.27-0.53,4.76c0,0,0,1.77,2.04,0l1.07,0.28c0,0,3.68,2.99,6.8-0.69
		c0,0,3.41-3.13,0.95-6.93c0,0-1.77-2.71-4.89-4.08c0,0-2.99-1.37-3.67-3.68c0,0,0.95-4.09,4.62-1.91c0,0,1.36,1.63,2.18,1.91
		c0,0,1.09,0,0.81-2.46L124.7,128c0,0-0.27-1.51-2.19,0C122.51,128,120.74,128.67,120.33,128"/>
	<path d="M101.57,134.11c-0.14,0.68-1.1,4.49-1.1,4.49l0.82,1.37c0,0,2.18,0.12,2.99,0.12c0.81,0,0.95-0.67,0.95-1.36
		c0-0.67-1.5-4.75-1.5-4.75l-0.69-0.82L101.57,134.11z M103.74,125.13c0.95,0.69,1.09,2.05,1.09,2.05
		c2.72,7.21,5.04,17.69,5.04,17.69c0.68,1.35,1.9,2.44,1.9,2.44c2.31,0.81,0,1.49,0,1.49c-0.95,0.41-4.08-0.12-4.08-0.12
		c-1.64-0.29-0.97-0.82-0.97-0.82c0.69-0.68,0.14-3.41,0.14-3.41c-0.14-1.08-1.36-2.85-1.36-2.85c-0.54-0.27-1.5,0.95-1.5,0.95
		s-1.49,0.55-1.64,0c-0.14-0.55-1.09-1.07-1.09-1.07c-1.63,0-2.31,4.06-2.31,4.06c0.95,3.4,0,2.85,0,2.85
		c-0.81,1.1-3.4,0.29-3.4,0.29c-1.22-0.29-0.4-1.24-0.4-1.24c1.49-0.26,1.89-1.9,1.89-1.9c0.68-0.95,5.03-18.63,5.03-18.63
		C102.52,126.08,102.79,124.45,103.74,125.13"/>
	<path d="M66.89,92.19c0,0-1.5,4.77-8.17-0.14l-22.85-0.55c0,0-2.99,0.96-3.4-2.17c0,0,0.55-6.25,0.26-6.8c0,0,0.15-1.77-2.85-1.77
		c0,0-4.62,0.56-4.75-3.53c0,0-0.82-4.37,5.57-4.22c0,0,2.03,0.95,2.18-1.64c0,0-0.27-17.68-0.15-19.05c0,0,0.56-1.62-2.57-1.89
		c0,0-4.49,0.95-5.03-2.05c0,0-0.28-4.48,2.71-4.76c0,0,3.67,0.28,4.36-0.66c0,0,0.82,0.53,0.68-2.74l0.14-5.57
		c0,0,0.41-1.5,2.71-1.36c0,0,4.23,0.27,4.78-0.14c0,0,0.95-1.22,1.21-1.77c0,0,2.19-0.13,2.6,0.4c0,0,3.26,2.19,15.65,1.37
		c0,0,1.89,0,2.3,0.55c0,0,2.31,1.77,3.67-0.14c0,0,2.04-0.41,8.17-0.27c0,0,6.65,1.77,11.29-2.04l1.49,0.28c0,0,1.9,3.12,3.28,2.17
		c0,0,4.08-0.41,4.76,0.41c0,0,1.36,2.04,0.67,7.35c0,0-0.81,2.31,3.13,2.31c0,0,4.49-0.81,3.95,3.39c0,0,1.23,4.76-6.26,4.09
		c0,0-0.96,1.36-0.83,2.31c0,0-0.13,15.5-0.27,17.28c0,0-0.13,2.43,3.13,2.31c0,0,4.35-0.29,4.49,3.67c0,0,0.54,5.17-5.71,4.21
		c0,0-1.91,0.28-2.19,1.5l-0.27,6.8c0,0,0.14,3.4-3.68,2.59c-0.54,0-21.21,0.4-22.98-0.13C68.11,91.79,67.16,91.66,66.89,92.19"/>
	<path class="st4" d="M66.89,92.2c0,0-1.5,4.77-8.17-0.14l-22.86-0.55c0,0-2.99,0.96-3.4-2.18c0,0,0.55-6.25,0.27-6.8
		c0,0,0.14-1.77-2.86-1.77c0,0-4.62,0.56-4.75-3.53c0,0-0.82-4.37,5.58-4.22c0,0,2.03,0.95,2.17-1.63c0,0-0.27-17.69-0.14-19.06
		c0,0,0.56-1.62-2.58-1.89c0,0-4.49,0.95-5.03-2.05c0,0-0.28-4.48,2.72-4.75c0,0,3.67,0.27,4.36-0.67c0,0,0.82,0.53,0.68-2.73
		l0.14-5.58c0,0,0.41-1.5,2.71-1.35c0,0,4.23,0.26,4.77-0.14c0,0,0.95-1.21,1.21-1.77c0,0,2.19-0.13,2.6,0.4
		c0,0,3.25,2.19,15.65,1.36c0,0,1.89,0,2.3,0.55c0,0,2.31,1.77,3.67-0.14c0,0,2.04-0.41,8.17-0.26c0,0,6.66,1.76,11.29-2.04
		l1.5,0.28c0,0,1.9,3.12,3.27,2.17c0,0,4.08-0.41,4.77,0.41c0,0,1.36,2.04,0.67,7.35c0,0-0.81,2.32,3.13,2.32
		c0,0,4.49-0.82,3.95,3.39c0,0,1.23,4.77-6.25,4.09c0,0-0.96,1.36-0.83,2.32c0,0-0.14,15.5-0.27,17.28c0,0-0.14,2.44,3.13,2.32
		c0,0,4.35-0.29,4.49,3.67c0,0,0.54,5.16-5.71,4.2c0,0-1.9,0.29-2.18,1.5l-0.27,6.8c0,0,0.15,3.41-3.68,2.6
		c-0.54,0-21.21,0.4-22.99-0.14C68.11,91.79,67.16,91.66,66.89,92.2z"/>
	<path class="st3" d="M41.17,36.15c0,0,0.27,2.72,0.27,3.4c0,0.68-0.42,39.32-0.42,39.32s0.42,3-2.18,4.49c0,0-0.68,0.28-0.82-1.62
		l0.28-40.81C38.32,40.92,38.59,35.88,41.17,36.15"/>
	<path class="st5" d="M41.18,36.15c0,0,0.27,2.72,0.27,3.4s-0.41,39.32-0.41,39.32s0.41,3-2.18,4.5c0,0-0.68,0.27-0.82-1.63
		l0.27-40.82C38.31,40.92,38.58,35.88,41.18,36.15z"/>
	<path class="st3" d="M36.68,83.76c0,0,0.27-38.36,0.14-39.05c-0.14-0.67,0.13,0.55,0.13,0.55s-0.4-6.66,1.37-9.39
		c0,0-0.55-2.31-3.68,0.54L34.52,42c0,0,0,3.13-2.87,2.99c0,0-3.27-0.14-4.77,1.36c0,0-0.81,2.99,2.31,2.45c0,0,4.9,0,5.17,2.03
		L34.1,71.38c0,0,1.09,3.4-2.72,3.4c0,0-4.62-0.26-4.49,2.6c0,0,0.95,2.45,4.91,1.63c0,0,2.85,0.55,2.73,3.25v5.18
		c0,0-0.29,2.04,2.43,2.17h21.23c0,0,1.09,0.14,1.09-1.23c0,0-0.14-1.07-1.76-1.07l-17.68-0.28C39.82,87.03,36.95,87.98,36.68,83.76
		"/>
	<path class="st3" d="M40.36,84.04c0,0-0.54,1.91,1.49,1.49h14.01l3.81,0.81c0,0,3.96-0.95,0-3.13c0,0-12.52,0.15-13.61-0.13
		c0,0-2.58-0.68-3.13-0.82C42.94,82.27,41.58,81.73,40.36,84.04"/>
	<path class="st5" d="M40.35,84.03c0,0-0.54,1.92,1.49,1.49h14.02l3.81,0.82c0,0,3.96-0.95,0-3.13c0,0-12.52,0.15-13.61-0.14
		c0,0-2.58-0.68-3.13-0.81C42.94,82.27,41.57,81.72,40.35,84.03z"/>
	<path class="st3" d="M63.62,85.95c0,0-2.59,0-2.45,3.38c0,0,0.27,2.6,2.99,2.6c0,0,2.45-0.42,2.19-3.13
		C66.34,88.8,64.84,85.39,63.62,85.95"/>
	<path class="st3" d="M65.52,84.58c0,0,1.22-1.36,2.04-1.36c0,0,13.6,1.23,15.91-0.4c0,0,2.05-0.41,2.58,0c0,0,2.04,1.63,2.04,2.58
		c0,0-0.13,1.24-2.57,0.56c0,0-15.39,0.13-16.19,0.13C69.33,86.08,65.11,87.03,65.52,84.58"/>
	<path class="st5" d="M65.52,84.58c0,0,1.22-1.36,2.04-1.36c0,0,13.6,1.23,15.92-0.4c0,0,2.05-0.41,2.59,0c0,0,2.04,1.63,2.04,2.58
		c0,0-0.13,1.24-2.57,0.55c0,0-15.39,0.13-16.2,0.13C69.33,86.08,65.11,87.03,65.52,84.58z"/>
	<path class="st3" d="M67.7,88.66c0,0,0-1.08,1.89-1.08l19.06-0.14c0,0,1.76,0.94,1.76-2.31c0,0,0.7-14.83,0.76-31.16
		c0.03-4.86,0.24-9.96,0.05-14.68c0,0-0.41-2.04-0.95-2.45c0,0,0-2.18,2.32-1.35c0,0,2.03,0.13,1.49,3.25l0.13,4.76
		c0,0-0.41,2.04,3.27,1.5c0,0,3.67,0.54,3.8,1.9c0,0,1.1,2.73-3.25,2.45h-3.13c0,0-1.36,0.81-0.96,2.45l-0.41,19.72
		c0,0-0.28,3.4,2.99,3.28c0,0,3.4-0.14,4.07,0.94c0,0,2.32,3.4-2.72,3.13c0,0-3.13-0.14-3.81,0.4c0,0-0.54,0.69-0.95,7.08
		c0,0,0.27,3.81-2.59,3.4c0,0-18.91,0.27-20.67-0.14C69.88,89.61,67.97,90.16,67.7,88.66"/>
	<path class="st3" d="M43.21,34.92l-0.4,43.67c0,0-0.14,2.03,3.26,2.44c0,0,3.95,0.41,4.9,0c0,0,2.58-0.13,9.25,0.14
		c0,0,1.63,1.62,1.77-0.41c0,0,1.09-35.38,0.55-42.72c0,0-0.13-3.13-2.45-3.26c0,0-10.33,0.81-11.28,0l-4.08-1.09
		C44.71,33.69,43.07,33.82,43.21,34.92"/>
	<path class="st3" d="M86.33,36.55L86.2,79.54c0,0,1.09,3.82,2.87,3.41c0,0,0.27-0.82,0.4-2.19l0.55-40.95
		C90.02,39.81,88.65,33.28,86.33,36.55"/>
	<path class="st5" d="M86.33,36.55L86.2,79.54c0,0,1.09,3.82,2.87,3.41c0,0,0.27-0.82,0.4-2.19l0.55-40.95
		C90.02,39.81,88.65,33.28,86.33,36.55"/>
	<path class="st5" d="M86.33,36.55L86.2,79.54c0,0,1.09,3.82,2.87,3.41c0,0,0.27-0.82,0.4-2.19l0.55-40.95
		C90.02,39.81,88.65,33.28,86.33,36.55z"/>
	<path class="st3" d="M64.71,36.92c0,0-0.41,20.54-0.28,21.23l-0.26,17.28l-0.55,5.97c0,0,0.81,1.24,1.49,0.42
		c0,0,4.36-1.08,7.08-0.68c0,0,8.71,0.82,10.47-0.54c0,0,1.36,0.68,1.77-1.5c0,0,0.54-38.08,0.27-38.77c0,0,0.55-5.44,0.27-5.97
		c0,0-0.14-1.24-2.44-0.15c0,0,0.26,1.1-12.65,0.69C69.88,34.89,64.98,34.74,64.71,36.92"/>
	<path d="M60.51,49.5l-1.23,2.6c0,0-2.98,13.19-4.61,15.9c0,0-0.27,2.73-2.59,0.55c0,0-5.31-16.73-5.58-17.28l-1.77-1.22
		c0,0-1.07-1.5,0.82-1.63l5.03,0.13c0,0,1.63,1.36-0.54,2.87c0,0,0.27,2.17,3.13,10.46c0,0,0.81,3.13,1.77,0.82l2.72-9.66
		l-0.82-2.86c0,0-0.82-1.36,0.41-1.49C57.25,48.69,60.11,48.42,60.51,49.5"/>
	<path d="M68.41,51.68L68.26,66.1l-0.4,1.09c0,0-1.36,1.76-0.42,1.9c0,0-1.21,0.82,8.7,0.95c0,0,3.82,0.68,2.86-4.22
		c0,0-0.41-1.77-1.77,0.82c0,0-0.41,2.17-5.29,1.49c0,0-1.09-0.95-1.09-2.04v-5.99c0,0-0.15-1.5,2.17-1.35c0,0,2.58,1.62,2.99,0.94
		c0,0,0.95-2.17,0-3.53c0,0-1.23-0.13-1.36,0.42c0,0-0.82,1.62-3.13,0.67c0,0-1.09-2.17-0.41-3.94c0,0-0.27-3.4,2.04-3.13
		c0,0,2.72,0.54,2.98,1.36c0,0,0.68,1.64,1.37-0.27l-0.69-2.32c0,0-0.4-0.95-1.08-0.68c0,0-4.63,0.68-5.18,0.13l-3.67,0.42
		c0,0-0.54,1.36,1.1,2.04C68,50.85,68.41,51.13,68.41,51.68"/>
</g>
<g>
</g>
<g>
</g>
<g>
</g>
<g>
</g>
<g>
</g>
<g>
</g>
</svg>
