<svg width="132" height="110" viewBox="0 0 132 110" fill="none" xmlns="http://www.w3.org/2000/svg">
<g clip-path="url(#clip0)">
<mask id="mask0" mask-type="alpha" maskUnits="userSpaceOnUse" x="0" y="75" width="132" height="36">
<path d="M131.29 75.6992H0V110H131.29V75.6992Z" fill="white"/>
</mask>
<g mask="url(#mask0)">
<g filter="url(#filter0_d)">
<path d="M47.5112 54.707H82.5965V67.9517C82.5965 74.0176 80.3339 86.888 65.185 96.4643C65.185 96.4643 48.767 89.6151 47.5112 67.9517V54.707Z" fill="#B0263D" stroke="#979797"/>
<path fill-rule="evenodd" clip-rule="evenodd" d="M44.5542 51.75H85.5535V67.9517C85.5535 79.0288 80.0767 90.5488 66.765 98.9637L65.4654 99.7852L64.0465 99.1933C63.3401 98.8986 62.2176 98.323 60.8171 97.4262C58.5322 95.9632 56.2566 94.0999 54.1343 91.794C48.6409 85.825 45.1305 77.9788 44.5592 68.1228L44.5542 67.9517V51.75Z" stroke="white" stroke-width="5"/>
<path fill-rule="evenodd" clip-rule="evenodd" d="M47.7561 54.9521V67.9516C48.9336 88.2506 63.7036 95.5178 65.1647 96.1863C80.6726 86.3253 82.3504 73.1622 82.3504 67.9516V54.9521H47.7561ZM65.2084 96.7398L65.0903 96.6908C64.9249 96.6219 48.5157 89.5329 47.2651 67.9661V54.4609H82.8416V67.9516C82.8416 73.2558 81.1341 86.6723 65.3163 96.672L65.2084 96.7398Z" fill="black"/>
<path fill-rule="evenodd" clip-rule="evenodd" d="M74.3901 72.2739C74.3901 72.2739 74.0773 73.2687 72.6844 72.2458L67.9085 72.1315C67.9085 72.1315 67.2831 72.3306 67.1979 71.6769C67.1979 71.6769 67.3115 70.3694 67.2548 70.2554C67.2548 70.2554 67.2831 69.8859 66.6582 69.8859C66.6582 69.8859 65.6915 69.9993 65.6629 69.147C65.6629 69.147 65.4922 68.2365 66.8282 68.2657C66.8282 68.2657 67.2548 68.4643 67.2831 67.9241C67.2831 67.9241 67.2265 64.2285 67.2548 63.9445C67.2548 63.9445 67.3686 63.6034 66.7147 63.5463C66.7147 63.5463 65.7767 63.7457 65.6629 63.1201C65.6629 63.1201 65.6063 62.1815 66.2316 62.1248C66.2316 62.1248 66.9989 62.1815 67.1415 61.9832C67.1415 61.9832 67.3115 62.0965 67.2831 61.4147L67.3115 60.2489C67.3115 60.2489 67.3969 59.9361 67.8804 59.9642C67.8804 59.9642 68.7617 60.0213 68.8748 59.9361C68.8748 59.9361 69.0741 59.6798 69.1309 59.5664C69.1309 59.5664 69.5859 59.5381 69.6713 59.6516C69.6713 59.6516 70.3534 60.1063 72.9406 59.9361C72.9406 59.9361 73.3386 59.9361 73.4234 60.0499C73.4234 60.0499 73.9073 60.4191 74.1911 60.0213C74.1911 60.0213 74.6177 59.9361 75.8968 59.9642C75.8968 59.9642 77.2901 60.3339 78.2566 59.5381L78.5692 59.5948C78.5692 59.5948 78.967 60.2489 79.2512 60.0499C79.2512 60.0499 80.1044 59.9642 80.2465 60.1345C80.2465 60.1345 80.531 60.561 80.3889 61.6701C80.3889 61.6701 80.218 62.1534 81.0428 62.1534C81.0428 62.1534 81.9803 61.9832 81.8668 62.8642C81.8668 62.8642 82.1224 63.8591 80.5593 63.7165C80.5593 63.7165 80.3603 64.0012 80.3889 64.2004C80.3889 64.2004 80.3603 67.4411 80.3317 67.8106C80.3317 67.8106 80.3034 68.3222 80.9859 68.2941C80.9859 68.2941 81.8951 68.2365 81.9239 69.0613C81.9239 69.0613 82.0372 70.1416 80.7296 69.9426C80.7296 69.9426 80.3317 69.9993 80.2746 70.2554L80.218 71.6769C80.218 71.6769 80.2465 72.3875 79.4502 72.217C79.3367 72.217 75.0159 72.3025 74.6465 72.1887C74.6465 72.1887 74.4472 72.1603 74.3901 72.2739ZM65.1594 77.0944C65.1594 77.0944 65.358 77.0091 65.4151 76.8666C65.4151 76.8666 66.0115 76.8099 66.0969 76.7251L67.974 76.8666C67.974 76.8666 69.8211 77.0091 70.6172 76.4402C70.6172 76.4402 70.9016 76.4402 71.1006 76.5259C71.1006 76.5259 71.4982 76.6113 71.6122 76.7811L72.6923 76.7528C72.6923 76.7528 73.3179 76.9513 73.2608 77.3507V77.8616C73.2608 77.8616 73.1472 78.8846 73.4319 78.9424H74.2556C74.2556 78.9424 74.9384 79.2552 74.8531 79.6534C74.8531 79.6534 74.8812 80.2215 74.2844 80.3348C74.2844 80.3348 73.6874 80.5053 73.4886 80.4774C73.4886 80.4774 73.2896 80.7335 73.2608 81.0461L73.1762 84.7693C73.1762 84.7693 73.1194 85.1676 73.7157 85.1114C73.7157 85.1114 74.5968 85.0259 74.8531 85.509C74.8531 85.509 75.0803 86.3336 74.6256 86.4762L74.2844 86.6464L73.5455 86.7602C73.5455 86.7602 73.2327 86.7887 73.2039 87.3282V88.3233C73.2039 88.3233 73.2327 89.0058 72.6923 89.0058L71.8967 89.0629C71.8967 89.0629 71.6975 89.2327 71.2997 89.1191C71.2997 89.1191 66.4671 89.2048 66.2962 89.1479L65.7275 89.2617C65.7275 89.2617 65.1021 89.8299 64.5903 89.4031L64.1927 89.0901C64.1927 89.0901 63.908 89.1479 63.7947 89.1191C63.6809 89.0901 58.4503 89.1767 58.4503 89.1767C58.4503 89.1767 57.3414 89.2905 57.2564 88.9199C57.2564 88.9199 57.1136 87.4708 57.1708 87.2996C57.1708 87.2996 57.1708 86.8735 56.9153 86.8456C56.9153 86.8456 55.8067 86.7887 55.7777 86.674C55.7777 86.674 55.1806 86.2488 55.3513 85.8215C55.3513 85.8215 55.5505 85.253 56.1478 85.1962C56.1478 85.1962 57.0572 85.339 57.0572 85.0826C57.0572 85.0826 57.1136 84.9117 57.1136 84.6284C57.1136 84.6284 57.1708 81.2451 57.1424 81.0182C57.1424 81.0182 57.2279 80.5919 56.8577 80.5919C56.8577 80.5919 56.4606 80.7041 56.204 80.534C56.204 80.534 55.5222 80.5628 55.3803 80.022C55.3803 80.022 55.2661 79.6809 55.4367 79.3966C55.4367 79.3966 55.7495 78.771 56.6589 78.9709C56.6589 78.9709 57.1708 79.1126 57.2279 78.7431L57.1989 77.3786C57.1989 77.3786 57.0855 77.0091 57.7964 76.8099C57.7964 76.8099 58.706 77.0658 58.9902 76.6113C58.9902 76.6113 59.3035 75.9859 59.5587 76.4125C59.5587 76.4125 60.0989 76.9239 61.577 76.8666C61.577 76.8666 64.1356 76.6675 64.1927 76.7811C64.1927 76.7811 64.8176 76.8666 64.9885 77.0658L65.1594 77.0944ZM57.392 72.343C57.392 72.343 57.0794 73.338 55.6863 72.3142L50.9102 72.2004C50.9102 72.2004 50.2852 72.3996 50.2 71.7459C50.2 71.7459 50.3133 70.4385 50.2564 70.3247C50.2564 70.3247 50.2852 69.9546 49.6599 69.9546C49.6599 69.9546 48.6931 70.069 48.6648 69.2156C48.6648 69.2156 48.4941 68.3058 49.8301 68.3341C49.8301 68.3341 50.2564 68.5336 50.2852 67.9936C50.2852 67.9936 50.2283 64.2974 50.2564 64.0136C50.2564 64.0136 50.3705 63.6727 49.7163 63.6156C49.7163 63.6156 48.7786 63.8143 48.6648 63.189C48.6648 63.189 48.6077 62.251 49.2333 62.1941C49.2333 62.1941 50.0008 62.251 50.1427 62.0518C50.1427 62.0518 50.3133 62.1658 50.2852 61.4828L50.3133 60.3175C50.3133 60.3175 50.399 60.0047 50.8821 60.0333C50.8821 60.0333 51.7631 60.0897 51.8771 60.0047C51.8771 60.0047 52.0759 59.7495 52.133 59.6355C52.133 59.6355 52.5877 59.6072 52.6732 59.7205C52.6732 59.7205 53.355 60.1754 55.9422 60.0047C55.9422 60.0047 56.3404 60.0047 56.4254 60.119C56.4254 60.119 56.9092 60.4882 57.1934 60.0897C57.1934 60.0897 57.6193 60.0047 58.8986 60.0333C58.8986 60.0333 60.2917 60.4025 61.2587 59.6072L61.5713 59.6643C61.5713 59.6643 61.9686 60.3175 62.2531 60.119C62.2531 60.119 63.1063 60.0333 63.2482 60.2042C63.2482 60.2042 63.5326 60.6308 63.3903 61.7392C63.3903 61.7392 63.2196 62.2227 64.0447 62.2227C64.0447 62.2227 64.9819 62.0518 64.8686 62.9331C64.8686 62.9331 65.1243 63.9284 63.5605 63.7862C63.5605 63.7862 63.3619 64.0703 63.3903 64.269C63.3903 64.269 63.3619 67.5099 63.3334 67.8794C63.3334 67.8794 63.3053 68.391 63.9876 68.3629C63.9876 68.3629 64.8969 68.3058 64.9257 69.1308C64.9257 69.1308 65.0388 70.2109 63.7316 70.0117C63.7316 70.0117 63.3334 70.069 63.2765 70.3247L63.2196 71.7459C63.2196 71.7459 63.2482 72.4567 62.4523 72.2861C62.3388 72.2861 58.0176 72.3711 57.6483 72.2577C57.6483 72.2577 57.4489 72.2287 57.392 72.343Z" fill="white"/>
<path fill-rule="evenodd" clip-rule="evenodd" d="M74.9665 63.336C74.881 63.1084 75.4497 63.0801 75.4497 63.0801L75.7335 63.1365C75.9325 63.1084 76.1318 63.1934 76.1318 63.1934C76.331 63.506 75.9897 63.6771 75.9897 63.6771L75.8761 64.0466C75.848 64.3596 75.8761 67.0595 75.8761 67.0595C75.9325 67.202 76.1601 67.4579 76.1601 67.4579C76.1601 67.7134 75.848 67.6567 75.848 67.6567L75.0234 67.6851C74.7672 67.6567 74.8522 67.3729 74.8522 67.3729C75.1367 67.2304 75.2224 66.7186 75.2224 66.7186V63.9042L74.9665 63.336ZM71.1567 63.734C71.1853 64.3596 71.1853 65.2116 71.1853 65.2116C71.7257 65.6382 72.038 65.0414 72.038 65.0414C72.7488 64.3596 72.038 63.734 71.9244 63.5631C71.8109 63.3928 71.2422 63.5347 71.2422 63.5347L71.1567 63.734ZM71.1282 65.9793L71.0719 66.8611L71.3279 67.2874C71.4985 67.515 71.2136 67.6853 71.2136 67.6853L70.304 67.5998C70.1338 67.515 70.304 67.2303 70.304 67.2303C70.5316 67.0889 70.5601 66.7185 70.5601 66.7185L70.5316 65.07L70.5601 63.8759C70.5601 63.734 70.3328 63.4774 70.3328 63.4774C70.1338 63.4495 70.19 63.1934 70.19 63.1934C70.2471 63.0512 70.7304 63.1365 70.7304 63.1365H71.9244C73.0616 63.5059 72.8905 64.3306 72.8905 64.3306C72.976 65.1552 72.0951 65.4963 72.0951 65.4963L72.038 65.951L72.8624 67.2587C73.0045 67.3729 72.976 67.486 72.976 67.486C72.8624 67.799 72.4077 67.486 72.4077 67.486L71.3838 65.8941C71.2991 65.7803 71.1282 65.9793 71.1282 65.9793ZM65.1596 77.0948C65.1596 77.0948 65.3582 77.0096 65.4153 76.867C65.4153 76.867 66.0117 76.8103 66.0971 76.7255L67.9742 76.867C67.9742 76.867 69.8213 77.0096 70.6174 76.4406C70.6174 76.4406 70.9018 76.4406 71.1008 76.5263C71.1008 76.5263 71.4984 76.6118 71.6124 76.7815L72.6925 76.7532C72.6925 76.7532 73.3181 76.9518 73.261 77.3512V77.8621C73.261 77.8621 73.1474 78.885 73.4321 78.9428H74.2558C74.2558 78.9428 74.9386 79.2556 74.8533 79.6539C74.8533 79.6539 74.8814 80.2219 74.2846 80.3352C74.2846 80.3352 73.6876 80.5057 73.4888 80.4778C73.4888 80.4778 73.2898 80.7339 73.261 81.0465L73.1764 84.7698C73.1764 84.7698 73.1195 85.168 73.7159 85.1118C73.7159 85.1118 74.597 85.0264 74.8533 85.5094C74.8533 85.5094 75.0805 86.334 74.6258 86.4766L74.2846 86.6468L73.5457 86.7606C73.5457 86.7606 73.2329 86.7892 73.2041 87.3286V88.3237C73.2041 88.3237 73.2329 89.0062 72.6925 89.0062L71.8969 89.0633C71.8969 89.0633 71.6977 89.2331 71.2999 89.1195C71.2999 89.1195 66.4673 89.2052 66.2964 89.1483L65.7277 89.2621C65.7277 89.2621 65.1023 89.8304 64.5905 89.4036L64.1929 89.0905C64.1929 89.0905 63.9082 89.1483 63.7949 89.1195C63.6811 89.0905 58.4505 89.1771 58.4505 89.1771C58.4505 89.1771 57.3416 89.2909 57.2566 88.9203C57.2566 88.9203 57.1138 87.4712 57.171 87.3001C57.171 87.3001 57.1709 86.8739 56.9155 86.8461C56.9155 86.8461 55.8069 86.7892 55.7778 86.6745C55.7778 86.6745 55.1808 86.2492 55.3515 85.822C55.3515 85.822 55.5507 85.2535 56.148 85.1966C56.148 85.1966 57.0574 85.3394 57.0574 85.083C57.0574 85.083 57.1138 84.9121 57.1138 84.6288C57.1138 84.6288 57.1709 81.2455 57.1426 81.0186C57.1426 81.0186 57.2281 80.5923 56.8579 80.5923C56.8579 80.5923 56.4608 80.7045 56.2042 80.5345C56.2042 80.5345 55.5224 80.5633 55.3805 80.0224C55.3805 80.0224 55.2663 79.6813 55.4369 79.3971C55.4369 79.3971 55.7497 78.7715 56.6591 78.9714C56.6591 78.9714 57.171 79.113 57.2281 78.7436L57.1991 77.379C57.1991 77.379 57.0857 77.0096 57.7966 76.8103C57.7966 76.8103 58.7062 77.0662 58.9904 76.6118C58.9904 76.6118 59.3037 75.9864 59.5589 76.413C59.5589 76.413 60.099 76.9243 61.5772 76.867C61.5772 76.867 64.1358 76.668 64.1929 76.7815C64.1929 76.7815 64.8178 76.867 64.9887 77.0662L65.1596 77.0948Z" fill="black"/>
<path fill-rule="evenodd" clip-rule="evenodd" d="M65.1597 77.0944C65.1597 77.0944 65.3582 77.0092 65.4153 76.8666C65.4153 76.8666 66.0117 76.81 66.0971 76.7252L67.9742 76.8666C67.9742 76.8666 69.8213 77.0092 70.6174 76.4403C70.6174 76.4403 70.9018 76.4403 71.1009 76.5259C71.1009 76.5259 71.4984 76.6114 71.6124 76.7812L72.6925 76.7528C72.6925 76.7528 73.3181 76.9514 73.261 77.3508V77.8617C73.261 77.8617 73.1474 78.8847 73.4321 78.9425H74.2559C74.2559 78.9425 74.9386 79.2553 74.8533 79.6535C74.8533 79.6535 74.8815 80.2216 74.2846 80.3349C74.2846 80.3349 73.6876 80.5053 73.4888 80.4775C73.4888 80.4775 73.2898 80.7336 73.261 81.0462L73.1765 84.7694C73.1765 84.7694 73.1196 85.1677 73.7159 85.1115C73.7159 85.1115 74.597 85.026 74.8533 85.5091C74.8533 85.5091 75.0805 86.3337 74.6258 86.4762L74.2846 86.6465L73.5457 86.7603C73.5457 86.7603 73.2329 86.7888 73.2041 87.3283V88.3234C73.2041 88.3234 73.2329 89.0059 72.6925 89.0059L71.8969 89.063C71.8969 89.063 71.6977 89.2328 71.2999 89.1192C71.2999 89.1192 66.4673 89.2049 66.2964 89.148L65.7277 89.2618C65.7277 89.2618 65.1023 89.83 64.5905 89.4032L64.1929 89.0902C64.1929 89.0902 63.9082 89.148 63.7949 89.1192C63.6811 89.0902 58.4505 89.1768 58.4505 89.1768C58.4505 89.1768 57.3416 89.2906 57.2566 88.92C57.2566 88.92 57.1138 87.4709 57.171 87.2997C57.171 87.2997 57.171 86.8736 56.9155 86.8457C56.9155 86.8457 55.8069 86.7888 55.7778 86.6741C55.7778 86.6741 55.1808 86.2489 55.3515 85.8216C55.3515 85.8216 55.5507 85.2531 56.148 85.1962C56.148 85.1962 57.0574 85.339 57.0574 85.0827C57.0574 85.0827 57.1138 84.9118 57.1138 84.6284C57.1138 84.6284 57.171 81.2452 57.1426 81.0183C57.1426 81.0183 57.2281 80.5919 56.8579 80.5919C56.8579 80.5919 56.4608 80.7041 56.2042 80.5341C56.2042 80.5341 55.5224 80.5629 55.3805 80.0221C55.3805 80.0221 55.2663 79.6809 55.4369 79.3967C55.4369 79.3967 55.7497 78.7711 56.6591 78.971C56.6591 78.971 57.171 79.1127 57.2281 78.7432L57.1991 77.3787C57.1991 77.3787 57.0857 77.0092 57.7966 76.81C57.7966 76.81 58.7062 77.0659 58.9904 76.6114C58.9904 76.6114 59.3037 75.986 59.5589 76.4126C59.5589 76.4126 60.0991 76.924 61.5772 76.8666C61.5772 76.8666 64.1358 76.6676 64.1929 76.7812C64.1929 76.7812 64.8178 76.8666 64.9887 77.0659L65.1597 77.0944Z" stroke="black" stroke-width="1.084"/>
<path fill-rule="evenodd" clip-rule="evenodd" d="M65.8987 88.2667C65.8987 88.2667 66.2396 88.0956 66.4674 88.1529C66.6945 88.2096 70.0213 88.1244 70.0213 88.1244C70.0213 88.1244 71.4706 88.2384 71.6977 88.0398L72.0389 87.9249C72.0389 87.9249 72.1805 87.7556 72.1805 87.5278C72.1805 87.2997 72.2098 86.5331 72.2098 86.5331L72.2943 86.2489C72.2943 86.2489 72.266 85.9635 72.2943 78.3736C72.2943 78.3736 72.4083 77.7761 72.0389 77.4073C72.0389 77.4073 72.0389 77.1795 72.1527 77.2085C72.266 77.2371 72.2098 77.237 72.2098 77.237C72.2098 77.237 72.7211 77.0945 72.8066 77.293C72.8066 77.293 73.0339 77.9751 72.8349 78.3736C72.8349 78.3736 72.778 79.1977 73.2042 79.1977C73.2042 79.1977 73.3749 79.3689 73.716 79.2832C73.716 79.2832 74.4552 79.3689 74.4552 79.596C74.4552 79.596 74.4551 80.1078 73.9433 80.0221L73.2611 80.079C73.2611 80.079 72.8066 80.1647 72.8635 80.7042C72.9204 81.245 72.8349 85.1115 72.8349 85.1115C72.8349 85.1115 72.8349 85.5669 73.5458 85.5381C73.5458 85.5381 74.427 85.5091 74.427 85.7654C74.427 85.7654 74.6542 86.3337 74.0288 86.3627C74.0288 86.3627 72.8349 86.3337 72.9204 86.6741C72.9204 86.6741 72.8349 87.4709 72.778 87.6123C72.778 87.6123 72.8918 88.2667 72.7492 88.38C72.7492 88.38 72.6647 88.7504 71.897 88.6928C71.897 88.6928 67.0075 88.665 66.2396 88.7216C66.2396 88.7216 65.7847 88.665 65.8987 88.2667ZM65.0178 87.7262C65.0178 87.7262 65.5008 87.8119 65.5008 88.2668C65.5008 88.7217 65.5292 88.9778 65.2447 89.0343C64.9604 89.0903 64.6479 89.0059 64.5624 88.636C64.477 88.2668 64.6195 87.8119 65.0178 87.7262Z" fill="white"/>
<path fill-rule="evenodd" clip-rule="evenodd" d="M65.5864 87.4987C65.5864 87.4987 66.0975 87.1582 66.2968 87.2144C66.2968 87.2144 68.8837 87.3849 69.6796 87.2434C70.4761 87.1004 69.9921 87.2144 69.9921 87.2144C69.9921 87.2144 70.6749 87.2144 70.8734 86.9587C70.8734 86.9587 71.0724 86.9018 71.1862 87.1004L71.6128 87.5562C71.6128 87.5562 71.6412 87.8402 71.1579 87.8117C71.1579 87.8117 66.5239 87.8117 66.3822 87.8402C66.3822 87.8402 65.5009 87.9817 65.5864 87.4987Z" fill="white"/>
<path fill-rule="evenodd" clip-rule="evenodd" d="M65.5864 87.4987C65.5864 87.4987 66.0975 87.1582 66.2968 87.2144C66.2968 87.2144 68.8837 87.3849 69.6796 87.2434C70.4761 87.1004 69.9921 87.2144 69.9921 87.2144C69.9921 87.2144 70.6749 87.2144 70.8734 86.9587C70.8734 86.9587 71.0724 86.9018 71.1862 87.1004L71.6128 87.5562C71.6128 87.5562 71.6412 87.8402 71.1579 87.8117C71.1579 87.8117 66.5239 87.8117 66.3822 87.8402C66.3822 87.8402 65.5009 87.9817 65.5864 87.4987Z" stroke="black" stroke-width="0.542"/>
<path fill-rule="evenodd" clip-rule="evenodd" d="M58.8483 77.4072C58.8483 77.4072 59.0473 77.4072 59.019 77.7486L58.9628 86.3336C58.9628 86.3336 59.0473 86.9021 58.564 87.2721C58.564 87.2721 58.3086 87.5842 58.3086 87.1007L58.4217 78.3456C58.4217 78.3456 58.4507 77.6912 58.8483 77.4072Z" fill="white"/>
<path fill-rule="evenodd" clip-rule="evenodd" d="M58.8483 77.4072C58.8483 77.4072 59.0473 77.4072 59.019 77.7486L58.9628 86.3336C58.9628 86.3336 59.0473 86.9021 58.564 87.2721C58.564 87.2721 58.3086 87.5842 58.3086 87.1007L58.4217 78.3456C58.4217 78.3456 58.4507 77.6912 58.8483 77.4072Z" stroke="black" stroke-width="0.542"/>
<path fill-rule="evenodd" clip-rule="evenodd" d="M58.3938 77.4635C58.3938 77.4635 58.0522 78.0893 58.0814 78.2319L58.0522 80.1364C58.0522 80.1364 58.0241 81.359 58.0522 81.5012C58.0814 81.6426 58.0241 85.2255 58.0241 85.2255C58.0241 85.2255 57.996 85.9076 58.0241 86.1352V87.6704C58.0241 87.6704 57.967 88.3527 58.4788 88.1811C58.4788 88.1811 63.4822 88.0684 63.795 88.1532C63.795 88.1532 64.2495 88.2386 64.0786 88.4662C64.0786 88.4662 64.0786 88.6652 63.7669 88.6086C63.7669 88.6086 61.4071 88.8357 59.2753 88.7507C59.2753 88.7507 57.8536 88.8357 57.7682 88.6652C57.7682 88.6652 57.5401 88.6362 57.5401 87.8121C57.5401 87.8121 57.5401 87.045 57.4839 86.9024C57.4839 86.9024 57.5401 86.5046 56.8302 86.419C56.8302 86.419 55.8349 86.5896 55.807 85.9926C55.807 85.9926 55.9489 85.5671 56.9157 85.6233C56.9157 85.6233 57.6258 85.7371 57.4839 85.168L57.5696 80.9617C57.5696 80.9617 57.6548 80.2218 57.1711 80.1926C57.1711 80.1926 56.7162 80.165 56.5739 80.2218C56.5739 80.2218 55.7499 80.2218 55.807 79.7386C55.807 79.7386 56.0908 79.2268 56.9157 79.3406C56.9157 79.3406 57.5401 79.4546 57.5696 78.7435C57.5696 78.7435 57.5401 77.2933 57.8822 77.2373C57.8822 77.2373 58.5923 77.265 58.3938 77.4635Z" fill="white"/>
<path fill-rule="evenodd" clip-rule="evenodd" d="M59.2469 86.874C59.2469 86.874 59.6447 87.3004 60.2981 87.2725L64.1642 87.3289C64.1642 87.3289 64.5905 87.3577 64.5624 87.5849C64.5624 87.5849 64.5058 87.9255 63.994 87.8124L59.3319 87.7562L58.8203 87.7846C58.8203 87.7846 58.4789 87.7267 59.0191 87.0733L59.2469 86.874Z" fill="white"/>
<path fill-rule="evenodd" clip-rule="evenodd" d="M59.2469 86.874C59.2469 86.874 59.6447 87.3004 60.2981 87.2725L64.1642 87.3289C64.1642 87.3289 64.5905 87.3577 64.5624 87.5849C64.5624 87.5849 64.5058 87.9255 63.994 87.8124L59.3319 87.7562L58.8203 87.7846C58.8203 87.7846 58.4789 87.7267 59.0191 87.0733L59.2469 86.874Z" stroke="black" stroke-width="0.542"/>
<path fill-rule="evenodd" clip-rule="evenodd" d="M71.186 86.5051C71.186 86.5051 71.5272 87.1593 71.6979 87.2445C71.6979 87.2445 72.0104 87.6133 71.9254 86.9598L71.9823 78.7721C71.9823 78.7721 71.8971 78.4879 71.9823 78.0339L71.641 77.408C71.641 77.408 71.2715 77.124 71.2715 77.578L71.2144 86.3057L71.186 86.5051Z" fill="white"/>
<path fill-rule="evenodd" clip-rule="evenodd" d="M71.186 86.5051C71.186 86.5051 71.5272 87.1593 71.6979 87.2445C71.6979 87.2445 72.0104 87.6133 71.9254 86.9598L71.9823 78.7721C71.9823 78.7721 71.8971 78.4879 71.9823 78.0339L71.641 77.408C71.641 77.408 71.2715 77.124 71.2715 77.578L71.2144 86.3057L71.186 86.5051Z" stroke="black" stroke-width="0.542"/>
<path fill-rule="evenodd" clip-rule="evenodd" d="M64.8749 82.6071C64.8749 82.6071 64.903 83.2901 64.8178 83.9433C64.7716 84.2992 64.9318 85.9621 64.7893 86.8136C64.7893 86.8136 64.7612 87.0988 64.1639 86.8424C64.1639 86.8424 60.5256 86.9286 60.4118 86.8136C60.4118 86.8136 59.4165 86.8424 59.3315 86.3311C59.3315 86.3311 59.4737 82.4367 59.388 82.2939C59.388 82.2939 59.3315 80.1621 59.388 79.963C59.388 79.963 59.4737 78.0024 59.4165 77.7743C59.4165 77.7743 59.4451 77.319 59.3596 77.0916C59.3596 77.0916 59.3596 76.8071 59.8434 76.9785C59.8434 76.9785 60.0136 77.2911 60.9515 77.1487C60.9515 77.1487 61.6338 77.2625 62.288 77.1773C62.288 77.1773 63.7373 77.0637 64.1077 77.1773C64.1077 77.1773 64.6757 77.0637 64.8466 77.6891L64.8178 79.4512L64.9885 80.0206L65.1877 79.8776L65.2727 79.4512L65.3013 77.5756C65.3013 77.5756 65.4151 77.234 65.87 77.1773C65.87 77.1773 66.5799 77.0916 66.6942 77.1487C66.808 77.2056 68.3432 77.2911 68.7696 77.2056C69.1959 77.12 69.2811 77.4903 70.5602 76.8359C70.5602 76.8359 70.9018 76.8645 70.9018 77.0916C70.9018 77.0916 70.7878 79.5088 70.9018 79.963C70.9018 79.963 70.9018 84.3971 70.8164 84.7108L70.873 86.1321C70.873 86.1321 70.9304 86.7577 69.9353 86.8136C69.9353 86.8136 70.5602 86.9 66.6373 86.7862C66.6373 86.7862 66.0117 86.7577 65.3296 87.07C65.3296 87.07 65.1877 87.0412 65.1877 86.6727C65.1877 86.6727 65.3013 85.3362 65.1877 84.0283L65.1304 82.5795L64.8749 82.6071Z" fill="white"/>
<path fill-rule="evenodd" clip-rule="evenodd" d="M62.3161 80.5921C62.3161 80.5921 62.4011 82.6951 62.3161 82.9791L62.2878 83.4345C62.2878 83.4345 62.4011 83.7464 62.5723 83.8606C62.5723 83.8606 62.7146 84.258 62.3733 84.2301C62.3733 84.2301 61.6624 84.1732 61.4922 84.202C61.4922 84.202 61.0939 84.202 61.4922 83.6902C61.4922 83.6902 61.6339 83.4911 61.6058 82.9791C61.6058 82.9791 61.6058 80.5921 61.6624 80.4495C61.6624 80.4495 61.7193 80.1362 61.5205 80.051L61.1789 80.0791L60.7528 80.4776C60.7528 80.4776 60.6674 80.9037 60.4683 80.4495V80.2217L60.7245 79.5392L60.8952 79.5106C60.8952 79.5106 61.1511 79.6811 61.3782 79.7384H62.7146L63.1977 79.5106C63.1977 79.5106 63.3962 79.5392 63.34 79.7951C63.34 79.7951 63.4248 80.4495 63.0553 80.5343C63.0553 80.5343 62.8282 80.4495 62.7146 80.1362C62.7146 80.1362 62.3447 79.9377 62.3161 80.5921ZM68.599 79.8237C68.599 79.8237 67.5189 79.7385 67.4899 80.9038C67.4899 80.9038 67.3763 81.7003 68.5704 82.2123C68.5704 82.2123 69.4519 82.6387 69.395 83.1782C69.395 83.1782 69.2812 84.1454 68.3431 83.6612C68.3431 83.6612 67.8881 83.4345 67.9162 83.1782C67.9162 83.1782 67.7746 82.8656 67.6037 82.9225C67.6037 82.9225 67.4049 82.9792 67.4899 83.9178C67.4899 83.9178 67.4899 84.287 67.9162 83.9178L68.1441 83.9738C68.1441 83.9738 68.9118 84.5994 69.5653 83.8317C69.5653 83.8317 70.2761 83.1782 69.7645 82.3823C69.7645 82.3823 69.395 81.813 68.7415 81.5289C68.7415 81.5289 68.1155 81.2452 67.9738 80.7624C67.9738 80.7624 68.1728 79.9087 68.9401 80.3643C68.9401 80.3643 69.2243 80.7043 69.395 80.7624C69.395 80.7624 69.6228 80.7623 69.5653 80.2503L69.5088 79.8237C69.5088 79.8237 69.4519 79.5105 69.0541 79.8237C69.0541 79.8237 68.6842 79.9661 68.599 79.8237ZM64.6757 81.1027C64.6473 81.2453 64.4485 82.0411 64.4485 82.0411L64.6192 82.3251C64.6192 82.3251 65.0741 82.3537 65.2444 82.3537C65.4151 82.3537 65.4432 82.2125 65.4432 82.0699C65.4432 81.9285 65.1304 81.0748 65.1304 81.0748L64.9885 80.9037L64.6757 81.1027ZM65.1304 79.2268C65.3296 79.3692 65.3582 79.6536 65.3582 79.6536C65.9269 81.1596 66.4101 83.3497 66.4101 83.3497C66.5527 83.6335 66.8079 83.8606 66.8079 83.8606C67.291 84.0315 66.8079 84.1732 66.8079 84.1732C66.6089 84.2579 65.9554 84.1455 65.9554 84.1455C65.6138 84.0882 65.7562 83.9737 65.7562 83.9737C65.8983 83.8316 65.7843 83.2635 65.7843 83.2635C65.7562 83.0357 65.5005 82.666 65.5005 82.666C65.3867 82.6098 65.1877 82.8655 65.1877 82.8655C65.1877 82.8655 64.8749 82.9791 64.8466 82.8655C64.8176 82.7517 64.6192 82.6386 64.6192 82.6386C64.2783 82.6386 64.1357 83.4911 64.1357 83.4911C64.3348 84.2019 64.1357 84.0882 64.1357 84.0882C63.9653 84.3162 63.4247 84.1455 63.4247 84.1455C63.1695 84.0882 63.3399 83.8885 63.3399 83.8885C63.6527 83.8316 63.7373 83.4911 63.7373 83.4911C63.8798 83.2919 64.7892 79.5963 64.7892 79.5963C64.8749 79.426 64.9318 79.0842 65.1304 79.2268ZM57.392 72.3432C57.392 72.3432 57.0794 73.3383 55.6863 72.3144L50.9102 72.2007C50.9102 72.2007 50.2852 72.3999 50.2 71.7462C50.2 71.7462 50.3133 70.4388 50.2564 70.325C50.2564 70.325 50.2852 69.9548 49.6599 69.9548C49.6599 69.9548 48.6931 70.0693 48.6648 69.2159C48.6648 69.2159 48.4941 68.306 49.8301 68.3344C49.8301 68.3344 50.2564 68.5338 50.2852 67.9939C50.2852 67.9939 50.2283 64.2976 50.2564 64.0139C50.2564 64.0139 50.3705 63.6729 49.7163 63.6158C49.7163 63.6158 48.7786 63.8146 48.6648 63.1892C48.6648 63.1892 48.6077 62.2513 49.2333 62.1944C49.2333 62.1944 50.0008 62.2513 50.1427 62.052C50.1427 62.052 50.3133 62.1661 50.2852 61.4831L50.3133 60.3178C50.3133 60.3178 50.399 60.005 50.8821 60.0336C50.8821 60.0336 51.7631 60.09 51.8771 60.005C51.8771 60.005 52.0759 59.7498 52.133 59.6358C52.133 59.6358 52.5877 59.6074 52.6732 59.7208C52.6732 59.7208 53.355 60.1757 55.9422 60.005C55.9422 60.005 56.3404 60.005 56.4254 60.1192C56.4254 60.1192 56.9092 60.4885 57.1934 60.09C57.1934 60.09 57.6193 60.005 58.8986 60.0336C58.8986 60.0336 60.2917 60.4028 61.2587 59.6074L61.5713 59.6645C61.5713 59.6645 61.9686 60.3178 62.2531 60.1192C62.2531 60.1192 63.1063 60.0336 63.2482 60.2045C63.2482 60.2045 63.5326 60.6311 63.3903 61.7395C63.3903 61.7395 63.2196 62.2229 64.0447 62.2229C64.0447 62.2229 64.9819 62.052 64.8686 62.9333C64.8686 62.9333 65.1243 63.9286 63.5605 63.7865C63.5605 63.7865 63.3619 64.0705 63.3903 64.2693C63.3903 64.2693 63.3619 67.5102 63.3334 67.8797C63.3334 67.8797 63.3053 68.3913 63.9875 68.3632C63.9875 68.3632 64.8969 68.306 64.9257 69.1311C64.9257 69.1311 65.0388 70.2112 63.7316 70.0119C63.7316 70.0119 63.3334 70.0693 63.2765 70.325L63.2196 71.7462C63.2196 71.7462 63.2482 72.457 62.4523 72.2863C62.3388 72.2863 58.0176 72.3713 57.6483 72.258C57.6483 72.258 57.4489 72.229 57.392 72.3432Z" fill="black"/>
</g>
</g>
<path fill-rule="evenodd" clip-rule="evenodd" d="M58.5011 2.46294C58.1316 1.64966 57.5636 1.05601 56.6073 0.843854V0.369664C57.2048 0.369664 59.1833 0.441518 59.6387 0.441518C60.0574 0.441518 61.9752 0.369664 62.5865 0.369664V0.83184C62.0446 0.937468 61.4224 1.2403 61.4224 1.79881C61.4224 2.1923 61.6679 2.73744 62.1226 3.76039L66.4673 13.6356L70.5775 3.74317C70.8987 2.94212 71.1374 2.32921 71.1374 1.85502C71.1374 1.33074 70.6516 0.972148 69.9691 0.83184V0.369664C70.5152 0.369664 71.8355 0.441518 72.2562 0.441518C72.6393 0.441518 74.2103 0.369664 74.8053 0.369664V0.817333C73.781 1.09342 73.1554 1.68275 72.584 3.01828L66.5385 17.2784H65.1728L58.5011 2.46294ZM0 16.7349C0.789032 16.5547 1.34301 16.1976 1.34301 15.3032V2.23059C1.34301 1.37038 0.827565 1.01519 0 0.800084V0.334961C0.413669 0.334961 2.19913 0.406135 2.63343 0.406135C3.13391 0.406135 5.00551 0.334961 5.4176 0.334961V0.800084C4.6272 0.978925 4.04331 1.33661 4.04331 2.23059V7.6917H13.783V2.23059C13.783 1.33661 13.2642 0.978925 12.4414 0.800084V0.334961C12.8525 0.334961 14.6906 0.406135 15.1897 0.406135C15.6211 0.406135 17.4473 0.334961 17.8551 0.334961V0.800084C17.0663 0.978925 16.4815 1.33661 16.4815 2.23059V15.3032C16.4815 16.1623 17.03 16.5202 17.8551 16.7349V17.1648C17.4473 17.1648 15.6211 17.1288 15.1897 17.1288C14.6906 17.1288 12.8525 17.1648 12.4414 17.1648V16.7349C13.2259 16.5547 13.783 16.1976 13.783 15.3032V9.12492H4.04331V15.3032C4.04331 16.1976 4.59003 16.5202 5.4176 16.7349V17.1648C5.00551 17.1648 3.13391 17.1288 2.63343 17.1288C2.19913 17.1288 0.413669 17.1648 0 17.1648V16.7349Z" fill="black"/>
<mask id="mask1" mask-type="alpha" maskUnits="userSpaceOnUse" x="112" y="0" width="19" height="18">
<path d="M112.655 0.227539H130.107V17.2693H112.655V0.227539Z" fill="white"/>
</mask>
<g mask="url(#mask1)">
<path fill-rule="evenodd" clip-rule="evenodd" d="M116.919 15.8747C117.529 15.9855 118.657 16.0551 119.546 16.0551C124.578 16.0551 127.198 13.0259 127.198 8.80149C127.198 4.42135 124.434 1.33844 119.729 1.33844C118.77 1.33844 117.565 1.41029 116.919 1.51547V15.8747ZM112.655 16.7356C113.665 16.5554 114.221 16.1557 114.221 15.2325V2.23151C114.221 1.33504 113.672 0.979851 112.696 0.801009V0.335886C113.257 0.335886 115.089 0.406834 115.596 0.406834C116.414 0.406834 118.7 0.227539 120.477 0.227539C126.469 0.227539 130.107 3.57248 130.107 8.66163C130.107 13.6057 126.322 17.2696 120.144 17.2696C118.363 17.2696 116.252 17.1295 115.424 17.1295C114.921 17.1295 113.214 17.2011 112.655 17.2011V16.7356Z" fill="black"/>
</g>
<path fill-rule="evenodd" clip-rule="evenodd" d="M44.8369 8.32716C45.372 8.3972 46.1606 8.43302 46.9424 8.43302C50.0933 8.43302 51.0829 6.62058 51.0829 5.01713C51.0829 2.74297 49.5681 1.33808 46.8078 1.33808C46.2386 1.33808 45.4101 1.4097 44.8369 1.5151V8.32716ZM44.8369 15.1841C44.8369 16.0486 45.387 16.5205 46.3995 16.7352V17.2008C45.8367 17.2008 44.0023 17.1291 43.4764 17.1291C43.0292 17.1291 41.2326 17.2008 40.6696 17.2008V16.7352C41.6078 16.555 42.1622 16.0903 42.1622 15.1841V2.2749C42.1622 1.48088 41.7302 0.979261 40.6714 0.80042V0.335524C41.234 0.335524 43.0113 0.406471 43.5106 0.406471C44.3339 0.406471 46.6718 0.26911 47.592 0.26911C51.619 0.26911 53.8621 1.93421 53.8621 4.78593C53.8621 7.03198 52.1902 8.54522 49.6225 9.16856C49.6225 9.16856 50.2028 9.50833 50.7887 10.1908C51.5016 11.027 53.4639 13.8359 54.2574 14.7983C55.0501 15.7607 56.0665 16.8374 57.1563 16.8873V17.2647C56.6356 17.378 55.7999 17.4748 55.1632 17.4748C53.7891 17.4748 52.6966 16.9938 51.6374 15.7079C50.721 14.5932 49.1218 12.2209 48.2038 11.0501C47.6181 10.3042 46.9132 9.72072 45.6162 9.50833C45.3607 9.46549 45.1207 9.43036 44.8369 9.39862V15.1841ZM97.944 8.32716C98.4823 8.3972 99.2675 8.43302 100.048 8.43302C103.2 8.43302 104.189 6.62058 104.189 5.01713C104.189 2.74297 102.672 1.33808 99.9171 1.33808C99.3448 1.33808 98.5168 1.4097 97.944 1.5151V8.32716ZM97.944 15.1841C97.944 16.0486 98.4943 16.5205 99.5055 16.7352V17.2008C98.9434 17.2008 97.1126 17.1291 96.584 17.1291C96.1331 17.1291 94.3395 17.2008 93.7765 17.2008V16.7352C94.7117 16.555 95.2661 16.0903 95.2661 15.1841V2.2749C95.2661 1.48088 94.8336 0.979261 93.7783 0.80042V0.335524C94.3438 0.335524 96.1141 0.406471 96.6166 0.406471C97.4408 0.406471 99.7775 0.26911 100.694 0.26911C104.729 0.26911 106.967 1.93421 106.967 4.78593C106.967 7.03198 105.297 8.54522 102.727 9.16856C102.727 9.16856 103.311 9.50833 103.893 10.1908C104.61 11.027 106.572 13.8359 107.364 14.7983C108.159 15.7607 109.176 16.8374 110.259 16.8873V17.2647C109.744 17.378 108.905 17.4748 108.273 17.4748C106.896 17.4748 105.802 16.9938 104.743 15.7079C103.829 14.5932 102.231 12.2209 101.31 11.0501C100.725 10.3042 100.018 9.72072 98.7246 9.50833C98.4662 9.46549 98.2282 9.43036 97.944 9.39862V15.1841ZM31.1557 10.4329L28.4737 4.18344L25.9754 10.4329H31.1557ZM20.4186 16.7343C21.484 16.4834 22.0697 15.795 22.4582 14.8704L27.8517 1.89296C28.0809 1.35417 28.3472 0.250977 28.3472 0.250977H29.8578C29.8578 0.250977 30.1284 1.35689 30.3523 1.89523L36.0526 14.9062C36.4579 15.802 36.8992 16.4478 38.0321 16.7343L38.0294 17.1654C37.4115 17.1654 35.4936 17.1291 35.0575 17.1291C34.6216 17.1291 32.792 17.1654 32.1734 17.1654L32.1761 16.7343C33.0064 16.5294 33.2675 16.1057 33.2675 15.6986C33.2675 15.3514 33.125 14.9604 32.9511 14.5528L31.7262 11.758H25.4436L24.3227 14.5689C24.1956 14.8874 24.0469 15.3376 24.0469 15.6404C24.0469 16.1089 24.2919 16.4834 25.2337 16.7343L25.231 17.1654C24.673 17.1654 23.2026 17.1291 22.856 17.1291L20.4166 17.1654L20.4186 16.7343ZM84.5953 10.4329L81.9104 4.18344L79.413 10.4329H84.5953ZM73.8556 16.7343C74.9198 16.4834 75.5082 15.795 75.8942 14.8704L81.2907 1.89296C81.5183 1.35417 81.788 0.250977 81.788 0.250977H83.2981C83.2981 0.250977 83.564 1.35689 83.7893 1.89523L89.4916 14.9062C89.8939 15.802 90.3364 16.4478 91.4668 16.7343L91.4647 17.1654C90.8507 17.1654 88.9304 17.1291 88.4915 17.1291C88.0597 17.1291 86.2294 17.1654 85.6106 17.1654L85.6128 16.7343C86.4468 16.5294 86.7031 16.1057 86.7031 15.6986C86.7031 15.3514 86.5628 14.9604 86.3903 14.5528L85.1622 11.758H78.8794L77.7586 14.5689C77.6319 14.8874 77.4836 15.3376 77.4836 15.6404C77.4836 16.1089 77.7273 16.4834 78.6707 16.7343L78.6691 17.1654C78.1101 17.1654 76.6395 17.1291 76.2922 17.1291L73.8533 17.1654L73.8556 16.7343ZM19.582 41.3737C20.3257 41.2361 20.6287 40.6572 20.6287 40.2165V30.2155C20.6287 29.6921 20.3257 29.2791 19.499 29.1139V28.7557C19.8023 28.7557 21.3176 28.8108 21.7034 28.8108C22.0339 28.8108 23.5768 28.7557 23.8796 28.7557V29.1139C23.0811 29.3065 22.7225 29.6647 22.7225 30.2155V40.5747H26.7175C28.0673 40.5747 28.7287 40.1064 29.2795 39.0041L29.6377 39.0871L29.2795 41.7869C28.0397 41.6767 27.296 41.6767 25.8908 41.6767H21.7034C21.3176 41.6767 19.9952 41.7318 19.582 41.7318V41.3737ZM32.9713 41.3737C33.798 41.2084 34.1285 40.795 34.1285 40.2716V30.2155C34.1285 29.6921 33.798 29.2791 32.9713 29.1139V28.7557C33.2746 28.7557 34.845 28.8108 35.2308 28.8108C35.5613 28.8108 37.104 28.7557 37.407 28.7557V29.1139C36.6082 29.3065 36.2222 29.6647 36.2222 30.2155V40.2716C36.2222 40.8229 36.6082 41.1808 37.407 41.3737V41.7318C37.104 41.7318 35.5613 41.6767 35.2308 41.6767C34.845 41.6767 33.2746 41.7318 32.9713 41.7318V41.3737ZM44.7352 40.6847C45.176 40.7674 45.8375 40.7949 46.2781 40.7949C48.2617 40.7949 49.4741 39.8032 49.4741 38.0952C49.4741 36.4145 48.0137 35.3952 46.3332 35.3952H44.7352V40.6847ZM45.8098 34.4035C47.6281 34.4035 48.7855 33.8525 48.7855 32.0618C48.7855 30.5739 47.7385 29.527 45.9476 29.527C45.5067 29.527 45.1486 29.582 44.7352 29.6645V34.4035H45.8098ZM41.5942 41.3738C42.3384 41.236 42.6414 40.657 42.6414 40.2164V30.2156C42.6414 29.8024 42.3107 29.2516 41.5942 29.1137V28.7556C42.0079 28.7556 43.3301 28.8107 43.7158 28.8107C44.3494 28.8107 45.975 28.6731 46.6913 28.6731C49.1985 28.6731 51.0721 29.7473 51.0721 31.9791C51.0721 33.439 50.0524 34.4035 48.7855 34.8441C50.5211 35.3675 51.7607 36.6625 51.7607 38.1501C51.7607 40.9329 49.2261 41.7868 46.7187 41.7868C46.0027 41.7868 44.3494 41.6766 43.7158 41.6766C43.3301 41.6766 42.0079 41.7319 41.5942 41.7319V41.3738ZM57.8495 35.0369C58.2629 35.092 58.9792 35.1197 59.5851 35.1197C62.0374 35.1197 62.8085 33.7145 62.8085 32.4749C62.8085 30.7116 61.5963 29.5268 59.4475 29.5268C59.0066 29.5268 58.2906 29.5822 57.8495 29.6647V35.0369ZM54.7088 41.3737C55.3976 41.2361 55.7557 40.6848 55.7557 40.2439V30.2155C55.7557 29.8025 55.4527 29.2514 54.7088 29.1139V28.7557C55.1222 28.7557 56.4444 28.8108 56.8302 28.8108C57.4637 28.8108 59.3097 28.673 60.0262 28.673C62.5608 28.673 65.0952 29.7474 65.0952 32.5025C65.0952 34.1554 63.773 35.3951 61.8169 35.8912L65.1502 39.7482C65.6464 40.3267 66.335 41.0432 66.9686 41.3737V41.6767C65.0677 41.9521 64.1862 41.8143 63.0565 40.5196L59.2546 36.1116C58.7312 36.1116 58.2629 36.0841 57.8495 36.0288V40.2439C57.8495 40.6572 58.2076 41.2084 58.9515 41.3737V41.7318C58.5386 41.7318 57.1609 41.6767 56.7751 41.6767C56.4444 41.6767 55.1222 41.7318 54.7088 41.7318V41.3737ZM77.4099 36.8828L75.2334 31.7309L72.9192 36.8828H77.4099ZM68.7043 41.3738C69.448 41.1809 69.751 40.6296 70.0815 39.941L74.5722 30.1605C74.7651 29.7473 75.0408 28.6455 75.0408 28.6455H76.3908C76.3908 28.6455 76.6939 29.7473 76.8589 30.1605L80.9641 39.9684C81.2673 40.6571 81.5702 41.1532 82.424 41.3738V41.7043C81.956 41.7043 80.6334 41.6766 80.3029 41.6766C79.9724 41.6766 78.7323 41.7043 78.2642 41.7043V41.3738C78.8975 41.1809 78.9803 40.7949 78.9254 40.5195C78.8975 40.3819 78.7323 39.941 78.6774 39.8032L77.8508 37.9575H72.4511L71.6244 39.8032C71.5691 39.941 71.4041 40.3819 71.3764 40.5195C71.3214 40.7949 71.5417 41.1809 72.1757 41.3738V41.7043C71.762 41.7043 70.8531 41.6766 70.5777 41.6766H68.7043V41.3738ZM87.7964 35.0369C88.2098 35.092 88.9261 35.1197 89.5322 35.1197C91.9845 35.1197 92.7556 33.7145 92.7556 32.4749C92.7556 30.7116 91.5432 29.5268 89.3944 29.5268C88.9535 29.5268 88.2375 29.5822 87.7964 29.6647V35.0369ZM84.6556 41.3737C85.3447 41.2361 85.7029 40.6848 85.7029 40.2439V30.2155C85.7029 29.8025 85.3998 29.2514 84.6556 29.1139V28.7557C85.0691 28.7557 86.3915 28.8108 86.7773 28.8108C87.4108 28.8108 89.2566 28.673 89.9733 28.673C92.5077 28.673 95.0423 29.7474 95.0423 32.5025C95.0423 34.1554 93.7201 35.3951 91.764 35.8912L95.0973 39.7482C95.5933 40.3267 96.2821 41.0432 96.9155 41.3737V41.6767C95.0146 41.9521 94.1331 41.8143 93.0036 40.5196L89.2015 36.1116C88.6783 36.1116 88.2098 36.0841 87.7964 36.0288V40.2439C87.7964 40.6572 88.1545 41.2084 88.8984 41.3737V41.7318C88.4854 41.7318 87.1077 41.6767 86.7222 41.6767C86.3915 41.6767 85.0691 41.7318 84.6556 41.7318V41.3737ZM101.93 41.3737C102.673 41.2361 103.032 40.6846 103.032 40.244V35.7811L99.3949 30.7117C98.9268 30.0502 98.2933 29.3616 97.6867 29.1139V28.7557C98.1555 28.7557 99.3675 28.8108 99.7258 28.8108C100.056 28.8108 101.296 28.7557 101.792 28.7557V29.1139C101.489 29.1687 101.351 29.5269 101.351 29.637C101.351 29.7748 101.379 30.0502 101.572 30.3261L104.519 34.4861L107.467 30.3812C107.743 29.9952 107.798 29.7474 107.798 29.5545C107.798 29.4718 107.66 29.1687 107.247 29.1139V28.7557C107.66 28.7557 108.652 28.8108 108.928 28.8108C109.203 28.8108 110.195 28.7557 110.608 28.7557V29.1139C109.726 29.4994 109.038 30.2155 108.404 31.0975L105.126 35.6707V40.244C105.126 40.6846 105.456 41.2361 106.2 41.3737V41.7318C105.787 41.7318 104.409 41.6767 104.023 41.6767C103.693 41.6767 102.398 41.7318 101.93 41.7318V41.3737Z" fill="black"/>
<path d="M47.5112 54.707H82.5965V67.9517C82.5965 74.0176 80.3339 86.888 65.185 96.4643C65.185 96.4643 48.767 89.6151 47.5112 67.9517V54.707Z" fill="black" stroke="#979797"/>
<path fill-rule="evenodd" clip-rule="evenodd" d="M44.5542 51.75H85.5535V67.9517C85.5535 79.0288 80.0767 90.5488 66.765 98.9637L65.4654 99.7852L64.0465 99.1933C63.3401 98.8986 62.2176 98.323 60.8171 97.4262C58.5322 95.9632 56.2566 94.0999 54.1343 91.794C48.6409 85.825 45.1305 77.9788 44.5592 68.1228L44.5542 67.9517V51.75Z" stroke="white" stroke-width="5"/>
<path fill-rule="evenodd" clip-rule="evenodd" d="M47.7561 54.9521V67.9516C48.9336 88.2506 63.7036 95.5178 65.1647 96.1863C80.6726 86.3253 82.3504 73.1622 82.3504 67.9516V54.9521H47.7561ZM65.2084 96.7398L65.0903 96.6908C64.9249 96.6219 48.5157 89.5329 47.2651 67.9661V54.4609H82.8416V67.9516C82.8416 73.2558 81.1341 86.6723 65.3163 96.672L65.2084 96.7398Z" fill="black"/>
<path fill-rule="evenodd" clip-rule="evenodd" d="M74.3901 72.2739C74.3901 72.2739 74.0773 73.2687 72.6844 72.2458L67.9085 72.1315C67.9085 72.1315 67.2831 72.3306 67.1979 71.6769C67.1979 71.6769 67.3115 70.3694 67.2548 70.2554C67.2548 70.2554 67.2831 69.8859 66.6582 69.8859C66.6582 69.8859 65.6915 69.9993 65.6629 69.147C65.6629 69.147 65.4922 68.2365 66.8282 68.2657C66.8282 68.2657 67.2548 68.4643 67.2831 67.9241C67.2831 67.9241 67.2265 64.2285 67.2548 63.9445C67.2548 63.9445 67.3686 63.6034 66.7147 63.5463C66.7147 63.5463 65.7767 63.7457 65.6629 63.1201C65.6629 63.1201 65.6063 62.1815 66.2316 62.1248C66.2316 62.1248 66.9989 62.1815 67.1415 61.9832C67.1415 61.9832 67.3115 62.0965 67.2831 61.4147L67.3115 60.2489C67.3115 60.2489 67.3969 59.9361 67.8804 59.9642C67.8804 59.9642 68.7617 60.0213 68.8748 59.9361C68.8748 59.9361 69.0741 59.6798 69.1309 59.5664C69.1309 59.5664 69.5859 59.5381 69.6713 59.6516C69.6713 59.6516 70.3534 60.1063 72.9406 59.9361C72.9406 59.9361 73.3386 59.9361 73.4234 60.0499C73.4234 60.0499 73.9073 60.4191 74.1911 60.0213C74.1911 60.0213 74.6177 59.9361 75.8968 59.9642C75.8968 59.9642 77.2901 60.3339 78.2566 59.5381L78.5692 59.5948C78.5692 59.5948 78.967 60.2489 79.2512 60.0499C79.2512 60.0499 80.1044 59.9642 80.2465 60.1345C80.2465 60.1345 80.531 60.561 80.3889 61.6701C80.3889 61.6701 80.218 62.1534 81.0428 62.1534C81.0428 62.1534 81.9803 61.9832 81.8668 62.8642C81.8668 62.8642 82.1224 63.8591 80.5593 63.7165C80.5593 63.7165 80.3603 64.0012 80.3889 64.2004C80.3889 64.2004 80.3603 67.4411 80.3317 67.8106C80.3317 67.8106 80.3034 68.3222 80.9859 68.2941C80.9859 68.2941 81.8951 68.2365 81.9239 69.0613C81.9239 69.0613 82.0372 70.1416 80.7296 69.9426C80.7296 69.9426 80.3317 69.9993 80.2746 70.2554L80.218 71.6769C80.218 71.6769 80.2465 72.3875 79.4502 72.217C79.3367 72.217 75.0159 72.3025 74.6465 72.1887C74.6465 72.1887 74.4472 72.1603 74.3901 72.2739ZM65.1594 77.0944C65.1594 77.0944 65.358 77.0091 65.4151 76.8666C65.4151 76.8666 66.0115 76.8099 66.0969 76.7251L67.974 76.8666C67.974 76.8666 69.8211 77.0091 70.6172 76.4402C70.6172 76.4402 70.9016 76.4402 71.1006 76.5259C71.1006 76.5259 71.4982 76.6113 71.6122 76.7811L72.6923 76.7528C72.6923 76.7528 73.3179 76.9513 73.2608 77.3507V77.8616C73.2608 77.8616 73.1472 78.8846 73.4319 78.9424H74.2556C74.2556 78.9424 74.9384 79.2552 74.8531 79.6534C74.8531 79.6534 74.8812 80.2215 74.2844 80.3348C74.2844 80.3348 73.6874 80.5053 73.4886 80.4774C73.4886 80.4774 73.2896 80.7335 73.2608 81.0461L73.1762 84.7693C73.1762 84.7693 73.1194 85.1676 73.7157 85.1114C73.7157 85.1114 74.5968 85.0259 74.8531 85.509C74.8531 85.509 75.0803 86.3336 74.6256 86.4762L74.2844 86.6464L73.5455 86.7602C73.5455 86.7602 73.2327 86.7887 73.2039 87.3282V88.3233C73.2039 88.3233 73.2327 89.0058 72.6923 89.0058L71.8967 89.0629C71.8967 89.0629 71.6975 89.2327 71.2997 89.1191C71.2997 89.1191 66.4671 89.2048 66.2962 89.1479L65.7275 89.2617C65.7275 89.2617 65.1021 89.8299 64.5903 89.4031L64.1927 89.0901C64.1927 89.0901 63.908 89.1479 63.7947 89.1191C63.6809 89.0901 58.4503 89.1767 58.4503 89.1767C58.4503 89.1767 57.3414 89.2905 57.2564 88.9199C57.2564 88.9199 57.1136 87.4708 57.1708 87.2996C57.1708 87.2996 57.1708 86.8735 56.9153 86.8456C56.9153 86.8456 55.8067 86.7887 55.7777 86.674C55.7777 86.674 55.1806 86.2488 55.3513 85.8215C55.3513 85.8215 55.5505 85.253 56.1478 85.1962C56.1478 85.1962 57.0572 85.339 57.0572 85.0826C57.0572 85.0826 57.1136 84.9117 57.1136 84.6284C57.1136 84.6284 57.1708 81.2451 57.1424 81.0182C57.1424 81.0182 57.2279 80.5919 56.8577 80.5919C56.8577 80.5919 56.4606 80.7041 56.204 80.534C56.204 80.534 55.5222 80.5628 55.3803 80.022C55.3803 80.022 55.2661 79.6809 55.4367 79.3966C55.4367 79.3966 55.7495 78.771 56.6589 78.9709C56.6589 78.9709 57.1708 79.1126 57.2279 78.7431L57.1989 77.3786C57.1989 77.3786 57.0855 77.0091 57.7964 76.8099C57.7964 76.8099 58.706 77.0658 58.9902 76.6113C58.9902 76.6113 59.3035 75.9859 59.5587 76.4125C59.5587 76.4125 60.0989 76.9239 61.577 76.8666C61.577 76.8666 64.1356 76.6675 64.1927 76.7811C64.1927 76.7811 64.8176 76.8666 64.9885 77.0658L65.1594 77.0944ZM57.392 72.343C57.392 72.343 57.0794 73.338 55.6863 72.3142L50.9102 72.2004C50.9102 72.2004 50.2852 72.3996 50.2 71.7459C50.2 71.7459 50.3133 70.4385 50.2564 70.3247C50.2564 70.3247 50.2852 69.9546 49.6599 69.9546C49.6599 69.9546 48.6931 70.069 48.6648 69.2156C48.6648 69.2156 48.4941 68.3058 49.8301 68.3341C49.8301 68.3341 50.2564 68.5336 50.2852 67.9936C50.2852 67.9936 50.2283 64.2974 50.2564 64.0136C50.2564 64.0136 50.3705 63.6727 49.7163 63.6156C49.7163 63.6156 48.7786 63.8143 48.6648 63.189C48.6648 63.189 48.6077 62.251 49.2333 62.1941C49.2333 62.1941 50.0008 62.251 50.1427 62.0518C50.1427 62.0518 50.3133 62.1658 50.2852 61.4828L50.3133 60.3175C50.3133 60.3175 50.399 60.0047 50.8821 60.0333C50.8821 60.0333 51.7631 60.0897 51.8771 60.0047C51.8771 60.0047 52.0759 59.7495 52.133 59.6355C52.133 59.6355 52.5877 59.6072 52.6732 59.7205C52.6732 59.7205 53.355 60.1754 55.9422 60.0047C55.9422 60.0047 56.3404 60.0047 56.4254 60.119C56.4254 60.119 56.9092 60.4882 57.1934 60.0897C57.1934 60.0897 57.6193 60.0047 58.8986 60.0333C58.8986 60.0333 60.2917 60.4025 61.2587 59.6072L61.5713 59.6643C61.5713 59.6643 61.9686 60.3175 62.2531 60.119C62.2531 60.119 63.1063 60.0333 63.2482 60.2042C63.2482 60.2042 63.5326 60.6308 63.3903 61.7392C63.3903 61.7392 63.2196 62.2227 64.0447 62.2227C64.0447 62.2227 64.9819 62.0518 64.8686 62.9331C64.8686 62.9331 65.1243 63.9284 63.5605 63.7862C63.5605 63.7862 63.3619 64.0703 63.3903 64.269C63.3903 64.269 63.3619 67.5099 63.3334 67.8794C63.3334 67.8794 63.3053 68.391 63.9876 68.3629C63.9876 68.3629 64.8969 68.3058 64.9257 69.1308C64.9257 69.1308 65.0388 70.2109 63.7316 70.0117C63.7316 70.0117 63.3334 70.069 63.2765 70.3247L63.2196 71.7459C63.2196 71.7459 63.2482 72.4567 62.4523 72.2861C62.3388 72.2861 58.0176 72.3711 57.6483 72.2577C57.6483 72.2577 57.4489 72.2287 57.392 72.343Z" fill="white"/>
<path fill-rule="evenodd" clip-rule="evenodd" d="M74.3905 72.2739C74.3905 72.2739 74.0777 73.2687 72.6848 72.2458L67.9089 72.1315C67.9089 72.1315 67.2835 72.3306 67.1983 71.6768C67.1983 71.6768 67.3119 70.3694 67.2552 70.2554C67.2552 70.2554 67.2835 69.8859 66.6586 69.8859C66.6586 69.8859 65.6919 69.9993 65.6633 69.147C65.6633 69.147 65.4926 68.2365 66.8286 68.2657C66.8286 68.2657 67.2552 68.4643 67.2835 67.9241C67.2835 67.9241 67.2269 64.2285 67.2552 63.9445C67.2552 63.9445 67.369 63.6034 66.7151 63.5463C66.7151 63.5463 65.7771 63.7457 65.6633 63.1201C65.6633 63.1201 65.6067 62.1815 66.232 62.1248C66.232 62.1248 66.9993 62.1815 67.1419 61.9832C67.1419 61.9832 67.3119 62.0965 67.2835 61.4147L67.3119 60.2489C67.3119 60.2489 67.3973 59.9361 67.8808 59.9642C67.8808 59.9642 68.7621 60.0213 68.8752 59.9361C68.8752 59.9361 69.0745 59.6798 69.1313 59.5664C69.1313 59.5664 69.5863 59.5381 69.6717 59.6516C69.6717 59.6516 70.3538 60.1063 72.941 59.9361C72.941 59.9361 73.339 59.9361 73.4238 60.0499C73.4238 60.0499 73.9077 60.4191 74.1915 60.0213C74.1915 60.0213 74.6181 59.9361 75.8972 59.9642C75.8972 59.9642 77.2905 60.3339 78.257 59.5381L78.5696 59.5948C78.5696 59.5948 78.9674 60.2489 79.2516 60.0499C79.2516 60.0499 80.1048 59.9642 80.247 60.1345C80.247 60.1345 80.5314 60.561 80.3893 61.6701C80.3893 61.6701 80.2184 62.1534 81.0432 62.1534C81.0432 62.1534 81.9807 61.9832 81.8672 62.8642C81.8672 62.8642 82.1229 63.8591 80.5598 63.7165C80.5598 63.7165 80.3607 64.0012 80.3893 64.2004C80.3893 64.2004 80.3607 67.4411 80.3322 67.8106C80.3322 67.8106 80.3038 68.3222 80.9863 68.2941C80.9863 68.2941 81.8955 68.2365 81.9243 69.0613C81.9243 69.0613 82.0376 70.1416 80.73 69.9426C80.73 69.9426 80.3322 69.9993 80.2751 70.2554L80.2184 71.6768C80.2184 71.6768 80.2469 72.3875 79.4507 72.217C79.3371 72.217 75.0163 72.3024 74.6469 72.1887C74.6469 72.1887 74.4476 72.1603 74.3905 72.2739Z" fill="black"/>
<path fill-rule="evenodd" clip-rule="evenodd" d="M74.3905 72.2739C74.3905 72.2739 74.0777 73.2687 72.6848 72.2458L67.9089 72.1315C67.9089 72.1315 67.2835 72.3306 67.1983 71.6768C67.1983 71.6768 67.3119 70.3694 67.2552 70.2554C67.2552 70.2554 67.2835 69.8859 66.6586 69.8859C66.6586 69.8859 65.6919 69.9993 65.6633 69.147C65.6633 69.147 65.4926 68.2365 66.8286 68.2657C66.8286 68.2657 67.2552 68.4643 67.2835 67.9241C67.2835 67.9241 67.2269 64.2285 67.2552 63.9445C67.2552 63.9445 67.369 63.6034 66.7151 63.5463C66.7151 63.5463 65.7771 63.7457 65.6633 63.1201C65.6633 63.1201 65.6067 62.1815 66.232 62.1248C66.232 62.1248 66.9993 62.1815 67.1419 61.9832C67.1419 61.9832 67.3119 62.0965 67.2835 61.4147L67.3119 60.2489C67.3119 60.2489 67.3973 59.9361 67.8808 59.9642C67.8808 59.9642 68.7621 60.0213 68.8752 59.9361C68.8752 59.9361 69.0745 59.6798 69.1313 59.5664C69.1313 59.5664 69.5863 59.5381 69.6717 59.6516C69.6717 59.6516 70.3538 60.1063 72.941 59.9361C72.941 59.9361 73.339 59.9361 73.4238 60.0499C73.4238 60.0499 73.9077 60.4191 74.1915 60.0213C74.1915 60.0213 74.6181 59.9361 75.8972 59.9642C75.8972 59.9642 77.2905 60.3339 78.257 59.5381L78.5696 59.5948C78.5696 59.5948 78.9674 60.2489 79.2516 60.0499C79.2516 60.0499 80.1048 59.9642 80.247 60.1345C80.247 60.1345 80.5314 60.561 80.3893 61.6701C80.3893 61.6701 80.2184 62.1534 81.0432 62.1534C81.0432 62.1534 81.9807 61.9832 81.8672 62.8642C81.8672 62.8642 82.1229 63.8591 80.5598 63.7165C80.5598 63.7165 80.3607 64.0012 80.3893 64.2004C80.3893 64.2004 80.3607 67.4411 80.3322 67.8106C80.3322 67.8106 80.3038 68.3222 80.9863 68.2941C80.9863 68.2941 81.8955 68.2365 81.9243 69.0613C81.9243 69.0613 82.0376 70.1416 80.73 69.9426C80.73 69.9426 80.3322 69.9993 80.2751 70.2554L80.2184 71.6768C80.2184 71.6768 80.2469 72.3875 79.4507 72.217C79.3371 72.217 75.0163 72.3024 74.6469 72.1887C74.6469 72.1887 74.4476 72.1603 74.3905 72.2739Z" stroke="black" stroke-width="1.084"/>
<path fill-rule="evenodd" clip-rule="evenodd" d="M69.0173 60.5617C69.0173 60.5617 69.0742 61.1309 69.0742 61.2728C69.0742 61.4154 68.9889 69.4889 68.9889 69.4889C68.9889 69.4889 69.0741 70.1142 68.534 70.4264C68.534 70.4264 68.3919 70.4837 68.3638 70.0855L68.4204 61.5575C68.4204 61.5575 68.4776 60.5055 69.0173 60.5617Z" fill="white"/>
<path fill-rule="evenodd" clip-rule="evenodd" d="M69.0173 60.5617C69.0173 60.5617 69.0742 61.1309 69.0742 61.2728C69.0742 61.4154 68.9889 69.4889 68.9889 69.4889C68.9889 69.4889 69.0741 70.1142 68.534 70.4264C68.534 70.4264 68.3919 70.4837 68.3638 70.0855L68.4204 61.5575C68.4204 61.5575 68.4776 60.5055 69.0173 60.5617Z" stroke="black" stroke-width="0.542"/>
<path fill-rule="evenodd" clip-rule="evenodd" d="M68.0796 70.5113C68.0796 70.5113 68.1361 62.4947 68.1084 62.3528C68.0796 62.2105 68.1361 62.4662 68.1361 62.4662C68.1361 62.4662 68.0515 61.0731 68.4208 60.505C68.4208 60.505 68.307 60.0218 67.653 60.6186L67.6249 61.7841C67.6249 61.7841 67.6249 62.4383 67.0277 62.4093C67.0277 62.4093 66.3456 62.3814 66.0328 62.694C66.0328 62.694 65.8619 63.3193 66.5161 63.2058C66.5161 63.2058 67.5397 63.2058 67.5966 63.6321L67.5397 67.9243C67.5397 67.9243 67.7668 68.6354 66.971 68.6354C66.971 68.6354 66.0047 68.5787 66.0328 69.1751C66.0328 69.1751 66.2321 69.6869 67.0565 69.5167C67.0565 69.5167 67.653 69.63 67.6249 70.1987V71.279C67.6249 71.279 67.5678 71.7056 68.1361 71.7344H72.5711C72.5711 71.7344 72.7986 71.7625 72.7986 71.478C72.7986 71.478 72.7703 71.2507 72.4289 71.2507L68.7333 71.1938C68.7333 71.1938 68.1361 71.3923 68.0796 70.5113Z" fill="white"/>
<path fill-rule="evenodd" clip-rule="evenodd" d="M68.8473 70.5679C68.8473 70.5679 68.7333 70.9657 69.1599 70.8802H72.0878L72.8843 71.0511C72.8843 71.0511 73.7085 70.8523 72.8843 70.3976C72.8843 70.3976 70.2688 70.4253 70.0414 70.3691C70.0414 70.3691 69.501 70.2267 69.387 70.1982C69.387 70.1982 69.103 70.0844 68.8473 70.5679Z" fill="white"/>
<path fill-rule="evenodd" clip-rule="evenodd" d="M68.8473 70.5679C68.8473 70.5679 68.7333 70.9657 69.1599 70.8802H72.0878L72.8843 71.0511C72.8843 71.0511 73.7085 70.8523 72.8843 70.3976C72.8843 70.3976 70.2688 70.4253 70.0414 70.3691C70.0414 70.3691 69.501 70.2267 69.387 70.1982C69.387 70.1982 69.103 70.0844 68.8473 70.5679Z" stroke="black" stroke-width="0.542"/>
<path fill-rule="evenodd" clip-rule="evenodd" d="M73.7082 70.966C73.7082 70.966 73.1678 70.966 73.1964 71.6771C73.1964 71.6771 73.2533 72.2172 73.822 72.2172C73.822 72.2172 74.3338 72.1318 74.2767 71.5635C74.2767 71.5635 73.9641 70.8527 73.7082 70.966ZM74.106 70.6818C74.106 70.6818 74.3619 70.398 74.5321 70.398C74.5321 70.398 77.3757 70.6532 77.8589 70.3123C77.8589 70.3123 78.2851 70.2271 78.3984 70.3123C78.3984 70.3123 78.825 70.6532 78.825 70.8527C78.825 70.8527 78.7969 71.1086 78.2851 70.966C78.2851 70.966 75.073 70.995 74.9023 70.995C74.9023 70.995 74.0203 71.1936 74.106 70.6818Z" fill="white"/>
<path fill-rule="evenodd" clip-rule="evenodd" d="M74.106 70.6818C74.106 70.6818 74.3619 70.398 74.5321 70.398C74.5321 70.398 77.3757 70.6532 77.8589 70.3123C77.8589 70.3123 78.285 70.2271 78.3984 70.3123C78.3984 70.3123 78.825 70.6532 78.825 70.8527C78.825 70.8527 78.7969 71.1086 78.285 70.966C78.285 70.966 75.0729 70.995 74.9022 70.995C74.9022 70.995 74.0203 71.1936 74.106 70.6818Z" stroke="black" stroke-width="0.542"/>
<path fill-rule="evenodd" clip-rule="evenodd" d="M74.5614 71.5353C74.5614 71.5353 74.5614 71.3075 74.9592 71.3075L78.9392 71.2794C78.9392 71.2794 79.3083 71.4784 79.3083 70.7964C79.3083 70.7964 79.4544 67.6974 79.4678 64.2842C79.4719 63.2717 79.5175 62.205 79.4792 61.2158C79.4792 61.2158 79.3937 60.7894 79.2799 60.7044C79.2799 60.7044 79.2799 60.2497 79.7634 60.42C79.7634 60.42 80.19 60.4485 80.0767 61.1018L80.1048 62.0971C80.1048 62.0971 80.0198 62.5241 80.7868 62.4097C80.7868 62.4097 81.5545 62.5241 81.5829 62.8079C81.5829 62.8079 81.8104 63.3762 80.9006 63.32H80.2469C80.2469 63.32 79.9624 63.4902 80.0479 63.8318L79.9624 67.9533C79.9624 67.9533 79.9055 68.6639 80.5878 68.6358C80.5878 68.6358 81.2989 68.6077 81.441 68.8348C81.441 68.8348 81.9242 69.5452 80.8725 69.489C80.8725 69.489 80.2183 69.4604 80.0767 69.5742C80.0767 69.5742 79.9624 69.7161 79.8774 71.0521C79.8774 71.0521 79.9341 71.8484 79.337 71.7629C79.337 71.7629 75.3855 71.8193 75.0163 71.7348C75.0163 71.7348 74.618 71.8483 74.5614 71.5353ZM69.4445 60.304L69.3591 69.4296C69.3591 69.4296 69.33 69.8556 70.0413 69.941C70.0413 69.941 70.8655 70.0265 71.0643 69.941C71.0643 69.941 71.6042 69.9124 72.9975 69.9693C72.9975 69.9693 73.3391 70.3107 73.3674 69.8841C73.3674 69.8841 73.5946 62.4931 73.4815 60.9577C73.4815 60.9577 73.4529 60.304 72.9694 60.2757C72.9694 60.2757 70.8086 60.4468 70.61 60.2757L69.7571 60.0479C69.7571 60.0479 69.4155 60.0764 69.4445 60.304Z" fill="white"/>
<path fill-rule="evenodd" clip-rule="evenodd" d="M73.9358 60.7586C73.9358 60.7586 73.8504 65.051 73.8787 65.1929L73.8223 68.8037L73.7085 70.0544C73.7085 70.0544 73.8787 70.3106 74.0206 70.1399C74.0206 70.1399 74.9307 69.9121 75.4992 69.9978C75.4992 69.9978 77.3186 70.1685 77.6883 69.8838C77.6883 69.8838 77.9726 70.0261 78.0578 69.5712C78.0578 69.5712 78.1716 61.6111 78.1149 61.4692C78.1149 61.4692 78.228 60.332 78.1716 60.218C78.1716 60.218 78.1433 59.9627 77.6598 60.1898C77.6598 60.1898 77.7169 60.417 75.0164 60.332C75.0164 60.332 73.9925 60.3036 73.9358 60.7586ZM78.4559 60.647L78.4271 69.6303C78.4271 69.6303 78.6547 70.4261 79.0244 70.3414C79.0244 70.3414 79.0813 70.1707 79.1092 69.8864L79.2237 61.3295C79.2237 61.3295 78.9394 59.9647 78.4559 60.647Z" fill="white"/>
<path fill-rule="evenodd" clip-rule="evenodd" d="M78.4555 60.6471L78.4268 69.6304C78.4268 69.6304 78.6543 70.4262 79.024 70.3414C79.024 70.3414 79.0809 70.1708 79.1088 69.8865L79.2233 61.3296C79.2233 61.3296 78.939 59.9648 78.4555 60.6471Z" stroke="black" stroke-width="0.542"/>
<path fill-rule="evenodd" clip-rule="evenodd" d="M74.9665 63.336C74.881 63.1084 75.4497 63.0801 75.4497 63.0801L75.7335 63.1365C75.9325 63.1084 76.1318 63.1934 76.1318 63.1934C76.331 63.506 75.9897 63.6771 75.9897 63.6771L75.8761 64.0466C75.848 64.3596 75.8761 67.0595 75.8761 67.0595C75.9325 67.202 76.1601 67.4579 76.1601 67.4579C76.1601 67.7134 75.848 67.6567 75.848 67.6567L75.0234 67.6851C74.7672 67.6567 74.8522 67.3729 74.8522 67.3729C75.1367 67.2304 75.2224 66.7186 75.2224 66.7186V63.9042L74.9665 63.336ZM71.1567 63.734C71.1853 64.3596 71.1853 65.2116 71.1853 65.2116C71.7257 65.6382 72.038 65.0414 72.038 65.0414C72.7488 64.3596 72.038 63.734 71.9244 63.5631C71.8109 63.3928 71.2422 63.5347 71.2422 63.5347L71.1567 63.734ZM71.1282 65.9793L71.0719 66.8611L71.3279 67.2874C71.4985 67.515 71.2136 67.6853 71.2136 67.6853L70.304 67.5998C70.1338 67.515 70.304 67.2303 70.304 67.2303C70.5316 67.0889 70.5601 66.7185 70.5601 66.7185L70.5316 65.07L70.5601 63.8759C70.5601 63.734 70.3328 63.4774 70.3328 63.4774C70.1338 63.4495 70.19 63.1934 70.19 63.1934C70.2471 63.0512 70.7304 63.1365 70.7304 63.1365H71.9244C73.0616 63.5059 72.8905 64.3306 72.8905 64.3306C72.976 65.1552 72.0951 65.4963 72.0951 65.4963L72.038 65.951L72.8624 67.2587C73.0045 67.3729 72.976 67.486 72.976 67.486C72.8624 67.799 72.4077 67.486 72.4077 67.486L71.3838 65.8941C71.2991 65.7803 71.1282 65.9793 71.1282 65.9793ZM65.1596 77.0948C65.1596 77.0948 65.3582 77.0096 65.4153 76.867C65.4153 76.867 66.0117 76.8103 66.0971 76.7255L67.9742 76.867C67.9742 76.867 69.8213 77.0096 70.6174 76.4406C70.6174 76.4406 70.9018 76.4406 71.1008 76.5263C71.1008 76.5263 71.4984 76.6118 71.6124 76.7815L72.6925 76.7532C72.6925 76.7532 73.3181 76.9518 73.261 77.3512V77.8621C73.261 77.8621 73.1474 78.885 73.4321 78.9428H74.2558C74.2558 78.9428 74.9386 79.2556 74.8533 79.6539C74.8533 79.6539 74.8814 80.2219 74.2846 80.3352C74.2846 80.3352 73.6876 80.5057 73.4888 80.4778C73.4888 80.4778 73.2898 80.7339 73.261 81.0465L73.1764 84.7698C73.1764 84.7698 73.1195 85.168 73.7159 85.1118C73.7159 85.1118 74.597 85.0264 74.8533 85.5094C74.8533 85.5094 75.0805 86.334 74.6258 86.4766L74.2846 86.6468L73.5457 86.7606C73.5457 86.7606 73.2329 86.7892 73.2041 87.3286V88.3237C73.2041 88.3237 73.2329 89.0062 72.6925 89.0062L71.8969 89.0633C71.8969 89.0633 71.6977 89.2331 71.2999 89.1195C71.2999 89.1195 66.4673 89.2052 66.2964 89.1483L65.7277 89.2621C65.7277 89.2621 65.1023 89.8304 64.5905 89.4036L64.1929 89.0905C64.1929 89.0905 63.9082 89.1483 63.7949 89.1195C63.6811 89.0905 58.4505 89.1771 58.4505 89.1771C58.4505 89.1771 57.3416 89.2909 57.2566 88.9203C57.2566 88.9203 57.1138 87.4712 57.171 87.3001C57.171 87.3001 57.1709 86.8739 56.9155 86.8461C56.9155 86.8461 55.8069 86.7892 55.7778 86.6745C55.7778 86.6745 55.1808 86.2492 55.3515 85.822C55.3515 85.822 55.5507 85.2535 56.148 85.1966C56.148 85.1966 57.0574 85.3394 57.0574 85.083C57.0574 85.083 57.1138 84.9121 57.1138 84.6288C57.1138 84.6288 57.1709 81.2455 57.1426 81.0186C57.1426 81.0186 57.2281 80.5923 56.8579 80.5923C56.8579 80.5923 56.4608 80.7045 56.2042 80.5345C56.2042 80.5345 55.5224 80.5633 55.3805 80.0224C55.3805 80.0224 55.2663 79.6813 55.4369 79.3971C55.4369 79.3971 55.7497 78.7715 56.6591 78.9714C56.6591 78.9714 57.171 79.113 57.2281 78.7436L57.1991 77.379C57.1991 77.379 57.0857 77.0096 57.7966 76.8103C57.7966 76.8103 58.7062 77.0662 58.9904 76.6118C58.9904 76.6118 59.3037 75.9864 59.5589 76.413C59.5589 76.413 60.099 76.9243 61.5772 76.867C61.5772 76.867 64.1358 76.668 64.1929 76.7815C64.1929 76.7815 64.8178 76.867 64.9887 77.0662L65.1596 77.0948Z" fill="black"/>
<path fill-rule="evenodd" clip-rule="evenodd" d="M65.1597 77.0944C65.1597 77.0944 65.3582 77.0092 65.4153 76.8666C65.4153 76.8666 66.0117 76.81 66.0971 76.7252L67.9742 76.8666C67.9742 76.8666 69.8213 77.0092 70.6174 76.4403C70.6174 76.4403 70.9018 76.4403 71.1009 76.5259C71.1009 76.5259 71.4984 76.6114 71.6124 76.7812L72.6925 76.7528C72.6925 76.7528 73.3181 76.9514 73.261 77.3508V77.8617C73.261 77.8617 73.1474 78.8847 73.4321 78.9425H74.2559C74.2559 78.9425 74.9386 79.2553 74.8533 79.6535C74.8533 79.6535 74.8815 80.2216 74.2846 80.3349C74.2846 80.3349 73.6876 80.5053 73.4888 80.4775C73.4888 80.4775 73.2898 80.7336 73.261 81.0462L73.1765 84.7694C73.1765 84.7694 73.1196 85.1677 73.7159 85.1115C73.7159 85.1115 74.597 85.026 74.8533 85.5091C74.8533 85.5091 75.0805 86.3337 74.6258 86.4762L74.2846 86.6465L73.5457 86.7603C73.5457 86.7603 73.2329 86.7888 73.2041 87.3283V88.3234C73.2041 88.3234 73.2329 89.0059 72.6925 89.0059L71.8969 89.063C71.8969 89.063 71.6977 89.2328 71.2999 89.1192C71.2999 89.1192 66.4673 89.2049 66.2964 89.148L65.7277 89.2618C65.7277 89.2618 65.1023 89.83 64.5905 89.4032L64.1929 89.0902C64.1929 89.0902 63.9082 89.148 63.7949 89.1192C63.6811 89.0902 58.4505 89.1768 58.4505 89.1768C58.4505 89.1768 57.3416 89.2906 57.2566 88.92C57.2566 88.92 57.1138 87.4709 57.171 87.2997C57.171 87.2997 57.171 86.8736 56.9155 86.8457C56.9155 86.8457 55.8069 86.7888 55.7778 86.6741C55.7778 86.6741 55.1808 86.2489 55.3515 85.8216C55.3515 85.8216 55.5507 85.2531 56.148 85.1962C56.148 85.1962 57.0574 85.339 57.0574 85.0827C57.0574 85.0827 57.1138 84.9118 57.1138 84.6284C57.1138 84.6284 57.171 81.2452 57.1426 81.0183C57.1426 81.0183 57.2281 80.5919 56.8579 80.5919C56.8579 80.5919 56.4608 80.7041 56.2042 80.5341C56.2042 80.5341 55.5224 80.5629 55.3805 80.0221C55.3805 80.0221 55.2663 79.6809 55.4369 79.3967C55.4369 79.3967 55.7497 78.7711 56.6591 78.971C56.6591 78.971 57.171 79.1127 57.2281 78.7432L57.1991 77.3787C57.1991 77.3787 57.0857 77.0092 57.7966 76.81C57.7966 76.81 58.7062 77.0659 58.9904 76.6114C58.9904 76.6114 59.3037 75.986 59.5589 76.4126C59.5589 76.4126 60.0991 76.924 61.5772 76.8666C61.5772 76.8666 64.1358 76.6676 64.1929 76.7812C64.1929 76.7812 64.8178 76.8666 64.9887 77.0659L65.1597 77.0944Z" stroke="black" stroke-width="1.084"/>
<path fill-rule="evenodd" clip-rule="evenodd" d="M65.8987 88.2667C65.8987 88.2667 66.2396 88.0956 66.4674 88.1529C66.6945 88.2096 70.0213 88.1244 70.0213 88.1244C70.0213 88.1244 71.4706 88.2384 71.6977 88.0398L72.0389 87.9249C72.0389 87.9249 72.1805 87.7556 72.1805 87.5278C72.1805 87.2997 72.2098 86.5331 72.2098 86.5331L72.2943 86.2489C72.2943 86.2489 72.266 85.9635 72.2943 78.3736C72.2943 78.3736 72.4083 77.7761 72.0389 77.4073C72.0389 77.4073 72.0389 77.1795 72.1527 77.2085C72.266 77.2371 72.2098 77.237 72.2098 77.237C72.2098 77.237 72.7211 77.0945 72.8066 77.293C72.8066 77.293 73.0339 77.9751 72.8349 78.3736C72.8349 78.3736 72.778 79.1977 73.2042 79.1977C73.2042 79.1977 73.3749 79.3689 73.716 79.2832C73.716 79.2832 74.4552 79.3689 74.4552 79.596C74.4552 79.596 74.4551 80.1078 73.9433 80.0221L73.2611 80.079C73.2611 80.079 72.8066 80.1647 72.8635 80.7042C72.9204 81.245 72.8349 85.1115 72.8349 85.1115C72.8349 85.1115 72.8349 85.5669 73.5458 85.5381C73.5458 85.5381 74.427 85.5091 74.427 85.7654C74.427 85.7654 74.6542 86.3337 74.0288 86.3627C74.0288 86.3627 72.8349 86.3337 72.9204 86.6741C72.9204 86.6741 72.8349 87.4709 72.778 87.6123C72.778 87.6123 72.8918 88.2667 72.7492 88.38C72.7492 88.38 72.6647 88.7504 71.897 88.6928C71.897 88.6928 67.0075 88.665 66.2396 88.7216C66.2396 88.7216 65.7847 88.665 65.8987 88.2667ZM65.0178 87.7262C65.0178 87.7262 65.5008 87.8119 65.5008 88.2668C65.5008 88.7217 65.5292 88.9778 65.2447 89.0343C64.9604 89.0903 64.6479 89.0059 64.5624 88.636C64.477 88.2668 64.6195 87.8119 65.0178 87.7262Z" fill="white"/>
<path fill-rule="evenodd" clip-rule="evenodd" d="M65.5864 87.4987C65.5864 87.4987 66.0975 87.1582 66.2968 87.2144C66.2968 87.2144 68.8837 87.3849 69.6796 87.2434C70.4761 87.1004 69.9921 87.2144 69.9921 87.2144C69.9921 87.2144 70.6749 87.2144 70.8734 86.9587C70.8734 86.9587 71.0724 86.9018 71.1862 87.1004L71.6128 87.5562C71.6128 87.5562 71.6412 87.8402 71.1579 87.8117C71.1579 87.8117 66.5239 87.8117 66.3822 87.8402C66.3822 87.8402 65.5009 87.9817 65.5864 87.4987Z" fill="white"/>
<path fill-rule="evenodd" clip-rule="evenodd" d="M65.5864 87.4987C65.5864 87.4987 66.0975 87.1582 66.2968 87.2144C66.2968 87.2144 68.8837 87.3849 69.6796 87.2434C70.4761 87.1004 69.9921 87.2144 69.9921 87.2144C69.9921 87.2144 70.6749 87.2144 70.8734 86.9587C70.8734 86.9587 71.0724 86.9018 71.1862 87.1004L71.6128 87.5562C71.6128 87.5562 71.6412 87.8402 71.1579 87.8117C71.1579 87.8117 66.5239 87.8117 66.3822 87.8402C66.3822 87.8402 65.5009 87.9817 65.5864 87.4987Z" stroke="black" stroke-width="0.542"/>
<path fill-rule="evenodd" clip-rule="evenodd" d="M58.8483 77.4072C58.8483 77.4072 59.0473 77.4072 59.019 77.7486L58.9628 86.3336C58.9628 86.3336 59.0473 86.9021 58.564 87.2721C58.564 87.2721 58.3086 87.5842 58.3086 87.1007L58.4217 78.3456C58.4217 78.3456 58.4507 77.6912 58.8483 77.4072Z" fill="white"/>
<path fill-rule="evenodd" clip-rule="evenodd" d="M58.8483 77.4072C58.8483 77.4072 59.0473 77.4072 59.019 77.7486L58.9628 86.3336C58.9628 86.3336 59.0473 86.9021 58.564 87.2721C58.564 87.2721 58.3086 87.5842 58.3086 87.1007L58.4217 78.3456C58.4217 78.3456 58.4507 77.6912 58.8483 77.4072Z" stroke="black" stroke-width="0.542"/>
<path fill-rule="evenodd" clip-rule="evenodd" d="M58.3938 77.4635C58.3938 77.4635 58.0522 78.0893 58.0814 78.2319L58.0522 80.1364C58.0522 80.1364 58.0241 81.359 58.0522 81.5012C58.0814 81.6426 58.0241 85.2255 58.0241 85.2255C58.0241 85.2255 57.996 85.9076 58.0241 86.1352V87.6704C58.0241 87.6704 57.967 88.3527 58.4788 88.1811C58.4788 88.1811 63.4822 88.0684 63.795 88.1532C63.795 88.1532 64.2495 88.2386 64.0786 88.4662C64.0786 88.4662 64.0786 88.6652 63.7669 88.6086C63.7669 88.6086 61.4071 88.8357 59.2753 88.7507C59.2753 88.7507 57.8536 88.8357 57.7682 88.6652C57.7682 88.6652 57.5401 88.6362 57.5401 87.8121C57.5401 87.8121 57.5401 87.045 57.4839 86.9024C57.4839 86.9024 57.5401 86.5046 56.8302 86.419C56.8302 86.419 55.8349 86.5896 55.807 85.9926C55.807 85.9926 55.9489 85.5671 56.9157 85.6233C56.9157 85.6233 57.6258 85.7371 57.4839 85.168L57.5696 80.9617C57.5696 80.9617 57.6548 80.2218 57.1711 80.1926C57.1711 80.1926 56.7162 80.165 56.5739 80.2218C56.5739 80.2218 55.7499 80.2218 55.807 79.7386C55.807 79.7386 56.0908 79.2268 56.9157 79.3406C56.9157 79.3406 57.5401 79.4546 57.5696 78.7435C57.5696 78.7435 57.5401 77.2933 57.8822 77.2373C57.8822 77.2373 58.5923 77.265 58.3938 77.4635Z" fill="white"/>
<path fill-rule="evenodd" clip-rule="evenodd" d="M59.2469 86.874C59.2469 86.874 59.6447 87.3004 60.2981 87.2725L64.1642 87.3289C64.1642 87.3289 64.5905 87.3577 64.5624 87.5849C64.5624 87.5849 64.5058 87.9255 63.994 87.8124L59.3319 87.7562L58.8203 87.7846C58.8203 87.7846 58.4789 87.7267 59.0191 87.0733L59.2469 86.874Z" fill="white"/>
<path fill-rule="evenodd" clip-rule="evenodd" d="M59.2469 86.874C59.2469 86.874 59.6447 87.3004 60.2981 87.2725L64.1642 87.3289C64.1642 87.3289 64.5905 87.3577 64.5624 87.5849C64.5624 87.5849 64.5058 87.9255 63.994 87.8124L59.3319 87.7562L58.8203 87.7846C58.8203 87.7846 58.4789 87.7267 59.0191 87.0733L59.2469 86.874Z" stroke="black" stroke-width="0.542"/>
<path fill-rule="evenodd" clip-rule="evenodd" d="M71.186 86.5051C71.186 86.5051 71.5272 87.1593 71.6979 87.2445C71.6979 87.2445 72.0104 87.6133 71.9254 86.9598L71.9823 78.7721C71.9823 78.7721 71.8971 78.4879 71.9823 78.0339L71.641 77.408C71.641 77.408 71.2715 77.124 71.2715 77.578L71.2144 86.3057L71.186 86.5051Z" fill="white"/>
<path fill-rule="evenodd" clip-rule="evenodd" d="M71.186 86.5051C71.186 86.5051 71.5272 87.1593 71.6979 87.2445C71.6979 87.2445 72.0104 87.6133 71.9254 86.9598L71.9823 78.7721C71.9823 78.7721 71.8971 78.4879 71.9823 78.0339L71.641 77.408C71.641 77.408 71.2715 77.124 71.2715 77.578L71.2144 86.3057L71.186 86.5051Z" stroke="black" stroke-width="0.542"/>
<path fill-rule="evenodd" clip-rule="evenodd" d="M64.8749 82.6071C64.8749 82.6071 64.903 83.2901 64.8178 83.9433C64.7716 84.2992 64.9318 85.9621 64.7893 86.8136C64.7893 86.8136 64.7612 87.0988 64.1639 86.8424C64.1639 86.8424 60.5256 86.9286 60.4118 86.8136C60.4118 86.8136 59.4165 86.8424 59.3315 86.3311C59.3315 86.3311 59.4737 82.4367 59.388 82.2939C59.388 82.2939 59.3315 80.1621 59.388 79.963C59.388 79.963 59.4737 78.0024 59.4165 77.7743C59.4165 77.7743 59.4451 77.319 59.3596 77.0916C59.3596 77.0916 59.3596 76.8071 59.8434 76.9785C59.8434 76.9785 60.0136 77.2911 60.9515 77.1487C60.9515 77.1487 61.6338 77.2625 62.288 77.1773C62.288 77.1773 63.7373 77.0637 64.1077 77.1773C64.1077 77.1773 64.6757 77.0637 64.8466 77.6891L64.8178 79.4512L64.9885 80.0206L65.1877 79.8776L65.2727 79.4512L65.3013 77.5756C65.3013 77.5756 65.4151 77.234 65.87 77.1773C65.87 77.1773 66.5799 77.0916 66.6942 77.1487C66.808 77.2056 68.3432 77.2911 68.7696 77.2056C69.1959 77.12 69.2811 77.4903 70.5602 76.8359C70.5602 76.8359 70.9018 76.8645 70.9018 77.0916C70.9018 77.0916 70.7878 79.5088 70.9018 79.963C70.9018 79.963 70.9018 84.3971 70.8164 84.7108L70.873 86.1321C70.873 86.1321 70.9304 86.7577 69.9353 86.8136C69.9353 86.8136 70.5602 86.9 66.6373 86.7862C66.6373 86.7862 66.0117 86.7577 65.3296 87.07C65.3296 87.07 65.1877 87.0412 65.1877 86.6727C65.1877 86.6727 65.3013 85.3362 65.1877 84.0283L65.1304 82.5795L64.8749 82.6071Z" fill="white"/>
<path fill-rule="evenodd" clip-rule="evenodd" d="M62.3161 80.5921C62.3161 80.5921 62.4011 82.6951 62.3161 82.9791L62.2878 83.4345C62.2878 83.4345 62.4011 83.7464 62.5723 83.8606C62.5723 83.8606 62.7146 84.258 62.3733 84.2301C62.3733 84.2301 61.6624 84.1732 61.4922 84.202C61.4922 84.202 61.0939 84.202 61.4922 83.6902C61.4922 83.6902 61.6339 83.4911 61.6058 82.9791C61.6058 82.9791 61.6058 80.5921 61.6624 80.4495C61.6624 80.4495 61.7193 80.1362 61.5205 80.051L61.1789 80.0791L60.7528 80.4776C60.7528 80.4776 60.6674 80.9037 60.4683 80.4495V80.2217L60.7245 79.5392L60.8952 79.5106C60.8952 79.5106 61.1511 79.6811 61.3782 79.7384H62.7146L63.1977 79.5106C63.1977 79.5106 63.3962 79.5392 63.34 79.7951C63.34 79.7951 63.4248 80.4495 63.0553 80.5343C63.0553 80.5343 62.8282 80.4495 62.7146 80.1362C62.7146 80.1362 62.3447 79.9377 62.3161 80.5921ZM68.599 79.8237C68.599 79.8237 67.5189 79.7385 67.4899 80.9038C67.4899 80.9038 67.3763 81.7003 68.5704 82.2123C68.5704 82.2123 69.4519 82.6387 69.395 83.1782C69.395 83.1782 69.2812 84.1454 68.3431 83.6612C68.3431 83.6612 67.8881 83.4345 67.9162 83.1782C67.9162 83.1782 67.7746 82.8656 67.6037 82.9225C67.6037 82.9225 67.4049 82.9792 67.4899 83.9178C67.4899 83.9178 67.4899 84.287 67.9162 83.9178L68.1441 83.9738C68.1441 83.9738 68.9118 84.5994 69.5653 83.8317C69.5653 83.8317 70.2761 83.1782 69.7645 82.3823C69.7645 82.3823 69.395 81.813 68.7415 81.5289C68.7415 81.5289 68.1155 81.2452 67.9738 80.7624C67.9738 80.7624 68.1728 79.9087 68.9401 80.3643C68.9401 80.3643 69.2243 80.7043 69.395 80.7624C69.395 80.7624 69.6228 80.7623 69.5653 80.2503L69.5088 79.8237C69.5088 79.8237 69.4519 79.5105 69.0541 79.8237C69.0541 79.8237 68.6842 79.9661 68.599 79.8237ZM64.6757 81.1027C64.6473 81.2453 64.4485 82.0411 64.4485 82.0411L64.6192 82.3251C64.6192 82.3251 65.0741 82.3537 65.2444 82.3537C65.4151 82.3537 65.4432 82.2125 65.4432 82.0699C65.4432 81.9285 65.1304 81.0748 65.1304 81.0748L64.9885 80.9037L64.6757 81.1027ZM65.1304 79.2268C65.3296 79.3692 65.3582 79.6536 65.3582 79.6536C65.9269 81.1596 66.4101 83.3497 66.4101 83.3497C66.5527 83.6335 66.8079 83.8606 66.8079 83.8606C67.291 84.0315 66.8079 84.1732 66.8079 84.1732C66.6089 84.2579 65.9554 84.1455 65.9554 84.1455C65.6138 84.0882 65.7562 83.9737 65.7562 83.9737C65.8983 83.8316 65.7843 83.2635 65.7843 83.2635C65.7562 83.0357 65.5005 82.666 65.5005 82.666C65.3867 82.6098 65.1877 82.8655 65.1877 82.8655C65.1877 82.8655 64.8749 82.9791 64.8466 82.8655C64.8176 82.7517 64.6192 82.6386 64.6192 82.6386C64.2783 82.6386 64.1357 83.4911 64.1357 83.4911C64.3348 84.2019 64.1357 84.0882 64.1357 84.0882C63.9653 84.3162 63.4247 84.1455 63.4247 84.1455C63.1695 84.0882 63.3399 83.8885 63.3399 83.8885C63.6527 83.8316 63.7373 83.4911 63.7373 83.4911C63.8798 83.2919 64.7892 79.5963 64.7892 79.5963C64.8749 79.426 64.9318 79.0842 65.1304 79.2268ZM57.392 72.3432C57.392 72.3432 57.0794 73.3383 55.6863 72.3144L50.9102 72.2007C50.9102 72.2007 50.2852 72.3999 50.2 71.7462C50.2 71.7462 50.3133 70.4388 50.2564 70.325C50.2564 70.325 50.2852 69.9548 49.6599 69.9548C49.6599 69.9548 48.6931 70.0693 48.6648 69.2159C48.6648 69.2159 48.4941 68.306 49.8301 68.3344C49.8301 68.3344 50.2564 68.5338 50.2852 67.9939C50.2852 67.9939 50.2283 64.2976 50.2564 64.0139C50.2564 64.0139 50.3705 63.6729 49.7163 63.6158C49.7163 63.6158 48.7786 63.8146 48.6648 63.1892C48.6648 63.1892 48.6077 62.2513 49.2333 62.1944C49.2333 62.1944 50.0008 62.2513 50.1427 62.052C50.1427 62.052 50.3133 62.1661 50.2852 61.4831L50.3133 60.3178C50.3133 60.3178 50.399 60.005 50.8821 60.0336C50.8821 60.0336 51.7631 60.09 51.8771 60.005C51.8771 60.005 52.0759 59.7498 52.133 59.6358C52.133 59.6358 52.5877 59.6074 52.6732 59.7208C52.6732 59.7208 53.355 60.1757 55.9422 60.005C55.9422 60.005 56.3404 60.005 56.4254 60.1192C56.4254 60.1192 56.9092 60.4885 57.1934 60.09C57.1934 60.09 57.6193 60.005 58.8986 60.0336C58.8986 60.0336 60.2917 60.4028 61.2587 59.6074L61.5713 59.6645C61.5713 59.6645 61.9686 60.3178 62.2531 60.1192C62.2531 60.1192 63.1063 60.0336 63.2482 60.2045C63.2482 60.2045 63.5326 60.6311 63.3903 61.7395C63.3903 61.7395 63.2196 62.2229 64.0447 62.2229C64.0447 62.2229 64.9819 62.052 64.8686 62.9333C64.8686 62.9333 65.1243 63.9286 63.5605 63.7865C63.5605 63.7865 63.3619 64.0705 63.3903 64.2693C63.3903 64.2693 63.3619 67.5102 63.3334 67.8797C63.3334 67.8797 63.3053 68.3913 63.9875 68.3632C63.9875 68.3632 64.8969 68.306 64.9257 69.1311C64.9257 69.1311 65.0388 70.2112 63.7316 70.0119C63.7316 70.0119 63.3334 70.0693 63.2765 70.325L63.2196 71.7462C63.2196 71.7462 63.2482 72.457 62.4523 72.2863C62.3388 72.2863 58.0176 72.3713 57.6483 72.258C57.6483 72.258 57.4489 72.229 57.392 72.3432Z" fill="black"/>
<path fill-rule="evenodd" clip-rule="evenodd" d="M57.392 72.3432C57.392 72.3432 57.0794 73.3383 55.6863 72.3144L50.9102 72.2007C50.9102 72.2007 50.2852 72.3999 50.2 71.7462C50.2 71.7462 50.3133 70.4388 50.2564 70.325C50.2564 70.325 50.2852 69.9548 49.6599 69.9548C49.6599 69.9548 48.6931 70.0693 48.6648 69.2159C48.6648 69.2159 48.4941 68.306 49.8301 68.3344C49.8301 68.3344 50.2564 68.5338 50.2852 67.9939C50.2852 67.9939 50.2283 64.2976 50.2564 64.0139C50.2564 64.0139 50.3705 63.6729 49.7163 63.6158C49.7163 63.6158 48.7786 63.8146 48.6648 63.1892C48.6648 63.1892 48.6077 62.2513 49.2333 62.1944C49.2333 62.1944 50.0008 62.2513 50.1427 62.052C50.1427 62.052 50.3133 62.1661 50.2852 61.4831L50.3133 60.3178C50.3133 60.3178 50.399 60.005 50.8821 60.0336C50.8821 60.0336 51.7631 60.09 51.8771 60.005C51.8771 60.005 52.0759 59.7498 52.133 59.6358C52.133 59.6358 52.5877 59.6074 52.6732 59.7208C52.6732 59.7208 53.355 60.1757 55.9422 60.005C55.9422 60.005 56.3404 60.005 56.4254 60.1192C56.4254 60.1192 56.9092 60.4885 57.1934 60.09C57.1934 60.09 57.6193 60.005 58.8986 60.0336C58.8986 60.0336 60.2917 60.4028 61.2587 59.6074L61.5713 59.6645C61.5713 59.6645 61.9686 60.3178 62.2531 60.1192C62.2531 60.1192 63.1063 60.0336 63.2482 60.2045C63.2482 60.2045 63.5326 60.6311 63.3903 61.7395C63.3903 61.7395 63.2196 62.2229 64.0447 62.2229C64.0447 62.2229 64.9819 62.052 64.8686 62.9333C64.8686 62.9333 65.1243 63.9286 63.5605 63.7865C63.5605 63.7865 63.3619 64.0705 63.3903 64.2693C63.3903 64.2693 63.3619 67.5102 63.3334 67.8797C63.3334 67.8797 63.3053 68.3913 63.9875 68.3632C63.9875 68.3632 64.8969 68.306 64.9257 69.1311C64.9257 69.1311 65.0388 70.2112 63.7316 70.012C63.7316 70.012 63.3334 70.0693 63.2765 70.325L63.2196 71.7462C63.2196 71.7462 63.2482 72.457 62.4523 72.2863C62.3388 72.2863 58.0176 72.3713 57.6483 72.258C57.6483 72.258 57.4489 72.229 57.392 72.3432Z" stroke="black" stroke-width="1.084"/>
<path fill-rule="evenodd" clip-rule="evenodd" d="M52.0192 60.6312C52.0192 60.6312 52.0763 61.1996 52.0763 61.3418C52.0763 61.4832 51.9909 69.5576 51.9909 69.5576C51.9909 69.5576 52.0763 70.1825 51.5359 70.4958C51.5359 70.4958 51.3943 70.5524 51.3657 70.1542L51.4226 61.6258C51.4226 61.6258 51.4797 60.574 52.0192 60.6312Z" fill="white"/>
<path fill-rule="evenodd" clip-rule="evenodd" d="M52.0192 60.6312C52.0192 60.6312 52.0763 61.1996 52.0763 61.3418C52.0763 61.4832 51.9909 69.5576 51.9909 69.5576C51.9909 69.5576 52.0763 70.1825 51.5359 70.4958C51.5359 70.4958 51.3943 70.5524 51.3657 70.1542L51.4226 61.6258C51.4226 61.6258 51.4797 60.574 52.0192 60.6312Z" stroke="black" stroke-width="0.542"/>
<path fill-rule="evenodd" clip-rule="evenodd" d="M51.0815 70.5812C51.0815 70.5812 51.1382 62.5643 51.1106 62.422C51.0815 62.2803 51.1382 62.536 51.1382 62.536C51.1382 62.536 51.0532 61.1427 51.4227 60.5747C51.4227 60.5747 51.3089 60.0907 50.6552 60.6882L50.6273 61.854C50.6273 61.854 50.6273 62.5075 50.0298 62.4796C50.0298 62.4796 49.3473 62.4506 49.0347 62.7636C49.0347 62.7636 48.8641 63.389 49.5178 63.2754C49.5178 63.2754 50.5416 63.2754 50.5985 63.7018L50.5416 67.9944C50.5416 67.9944 50.7687 68.7048 49.9729 68.7048C49.9729 68.7048 49.0064 68.6477 49.0347 69.2449C49.0347 69.2449 49.2338 69.7568 50.0584 69.5859C50.0584 69.5859 50.6552 69.6999 50.6273 70.2686V71.3484C50.6273 71.3484 50.5697 71.7748 51.1382 71.8033H55.5727C55.5727 71.8033 55.8008 71.8324 55.8008 71.5477C55.8008 71.5477 55.772 71.3205 55.4311 71.3205L51.7355 71.2637C51.7355 71.2637 51.1382 71.4631 51.0815 70.5812Z" fill="white"/>
<path fill-rule="evenodd" clip-rule="evenodd" d="M51.8487 70.637C51.8487 70.637 51.7351 71.0353 52.1613 70.9501H55.0898L55.8856 71.1201C55.8856 71.1201 56.71 70.921 55.8856 70.4661C55.8856 70.4661 53.2699 70.4951 53.0428 70.4382C53.0428 70.4382 52.5022 70.2959 52.3891 70.2676C52.3891 70.2676 52.1044 70.1536 51.8487 70.637Z" fill="white"/>
<path fill-rule="evenodd" clip-rule="evenodd" d="M51.8487 70.637C51.8487 70.637 51.7351 71.0353 52.1613 70.9501H55.0898L55.8856 71.1201C55.8856 71.1201 56.71 70.921 55.8856 70.4661C55.8856 70.4661 53.2699 70.4951 53.0428 70.4382C53.0428 70.4382 52.5022 70.2959 52.3891 70.2676C52.3891 70.2676 52.1044 70.1536 51.8487 70.637Z" stroke="black" stroke-width="0.542"/>
<path fill-rule="evenodd" clip-rule="evenodd" d="M56.7104 71.0359C56.7104 71.0359 56.17 71.0359 56.1983 71.7465C56.1983 71.7465 56.2557 72.2867 56.8239 72.2867C56.8239 72.2867 57.336 72.201 57.2789 71.6327C57.2789 71.6327 56.9658 70.9217 56.7104 71.0359ZM57.1081 70.7514C57.1081 70.7514 57.364 70.4668 57.5346 70.4668C57.5346 70.4668 60.3777 70.7233 60.8605 70.3815C60.8605 70.3815 61.2871 70.2965 61.4009 70.3815C61.4009 70.3815 61.8271 70.7233 61.8271 70.9217C61.8271 70.9217 61.7989 71.1783 61.2871 71.0359C61.2871 71.0359 58.0746 71.0643 57.9041 71.0643C57.9041 71.0643 57.0231 71.2633 57.1081 70.7514Z" fill="white"/>
<path fill-rule="evenodd" clip-rule="evenodd" d="M57.1078 70.7515C57.1078 70.7515 57.3637 70.4668 57.5344 70.4668C57.5344 70.4668 60.3775 70.7233 60.8603 70.3815C60.8603 70.3815 61.2869 70.2965 61.4007 70.3815C61.4007 70.3815 61.8268 70.7233 61.8268 70.9217C61.8268 70.9217 61.7987 71.1783 61.2869 71.0359C61.2869 71.0359 58.0743 71.0643 57.9039 71.0643C57.9039 71.0643 57.0228 71.2633 57.1078 70.7515Z" stroke="black" stroke-width="0.542"/>
<path fill-rule="evenodd" clip-rule="evenodd" d="M57.563 71.6044C57.563 71.6044 57.563 71.3773 57.9608 71.3773L61.9406 71.3483C61.9406 71.3483 62.3099 71.5475 62.3099 70.8655C62.3099 70.8655 62.4561 67.7665 62.4694 64.3535C62.4735 63.3408 62.5193 62.2741 62.4808 61.2854C62.4808 61.2854 62.3953 60.8588 62.2818 60.7735C62.2818 60.7735 62.2818 60.3184 62.765 60.4891C62.765 60.4891 63.1914 60.5176 63.078 61.1711L63.1066 62.1664C63.1066 62.1664 63.0212 62.5923 63.7889 62.4795C63.7889 62.4795 64.5561 62.5923 64.5845 62.8768C64.5845 62.8768 64.8123 63.4457 63.9024 63.3889H63.2485C63.2485 63.3889 62.9643 63.5593 63.049 63.9007L62.9643 68.0224C62.9643 68.0224 62.9074 68.733 63.5892 68.7047C63.5892 68.7047 64.3007 68.6766 64.4424 68.9037C64.4424 68.9037 64.9258 69.6152 63.8739 69.5581C63.8739 69.5581 63.2199 69.5297 63.078 69.6429C63.078 69.6429 62.9643 69.7852 62.8788 71.121C62.8788 71.121 62.9359 71.9175 62.3389 71.8322C62.3389 71.8322 58.3869 71.8887 58.0177 71.8032C58.0177 71.8032 57.6197 71.9175 57.563 71.6044ZM52.446 60.3729L52.361 69.4985C52.361 69.4985 52.3322 69.9249 53.0428 70.0101C53.0428 70.0101 53.8674 70.0956 54.0662 70.0101C54.0662 70.0101 54.6059 69.9818 55.999 70.0389C55.999 70.0389 56.3408 70.3796 56.3692 69.9537C56.3692 69.9537 56.5965 62.5618 56.4825 61.0268C56.4825 61.0268 56.4542 60.3729 55.9707 60.3445C55.9707 60.3445 53.8103 60.5148 53.6115 60.3445L52.7581 60.1172C52.7581 60.1172 52.417 60.1457 52.446 60.3729Z" fill="white"/>
<path fill-rule="evenodd" clip-rule="evenodd" d="M61.4578 60.7153L61.4292 69.6991C61.4292 69.6991 61.6563 70.4951 62.0263 70.4099C62.0263 70.4099 62.0829 70.2392 62.1115 69.9545L62.2255 61.3982C62.2255 61.3982 61.9408 60.0332 61.4578 60.7153Z" fill="white"/>
<path fill-rule="evenodd" clip-rule="evenodd" d="M61.4578 60.7153L61.4292 69.6991C61.4292 69.6991 61.6563 70.4951 62.0263 70.4099C62.0263 70.4099 62.0829 70.2392 62.1115 69.9545L62.2255 61.3982C62.2255 61.3982 61.9408 60.0332 61.4578 60.7153Z" stroke="black" stroke-width="0.542"/>
<path fill-rule="evenodd" clip-rule="evenodd" d="M56.9383 60.7915C56.9383 60.7915 56.8531 65.0844 56.8816 65.2263L56.825 68.8367L56.7109 70.0876C56.7109 70.0876 56.8816 70.344 57.0237 70.1731C57.0237 70.1731 57.934 69.946 58.5021 70.0314C58.5021 70.0314 60.3218 70.2017 60.6908 69.917C60.6908 69.917 60.9755 70.0593 61.0602 69.6051C61.0602 69.6051 61.1743 61.6447 61.1176 61.5026C61.1176 61.5026 61.2314 60.3652 61.1743 60.2516C61.1743 60.2516 61.1457 59.9957 60.6627 60.223C60.6627 60.223 60.7196 60.4506 58.019 60.3652C58.019 60.3652 56.9952 60.3368 56.9383 60.7915Z" fill="white"/>
<path fill-rule="evenodd" clip-rule="evenodd" d="M56.0613 63.4218L55.8059 63.9621C55.8059 63.9621 55.1803 66.7191 54.8391 67.2881C54.8391 67.2881 54.7822 67.8565 54.2992 67.4012C54.2992 67.4012 53.1906 63.9048 53.1335 63.7908L52.764 63.5353C52.764 63.5353 52.5364 63.2228 52.9344 63.194L53.9864 63.2228C53.9864 63.2228 54.3275 63.5065 53.8726 63.82C53.8726 63.82 53.9297 64.2747 54.5263 66.0085C54.5263 66.0085 54.6972 66.6627 54.8956 66.1787L55.4645 64.1609L55.2941 63.5637C55.2941 63.5637 55.1232 63.2794 55.3795 63.2509C55.3795 63.2509 55.9763 63.194 56.0613 63.4218ZM57.7099 63.8764L57.6818 66.8898L57.5972 67.1173C57.5972 67.1173 57.3123 67.4866 57.5116 67.5156C57.5116 67.5156 57.2554 67.6858 59.3308 67.7141C59.3308 67.7141 60.1266 67.8567 59.9278 66.8329C59.9278 66.8329 59.8426 66.4634 59.5579 67.0038C59.5579 67.0038 59.4727 67.4585 58.4493 67.3166C58.4493 67.3166 58.2219 67.1173 58.2219 66.8898V65.6388C58.2219 65.6388 58.1938 65.326 58.6769 65.3545C58.6769 65.3545 59.217 65.6961 59.3025 65.5538C59.3025 65.5538 59.5013 65.0988 59.3025 64.8146C59.3025 64.8146 59.0468 64.7865 59.0178 64.8996C59.0178 64.8996 58.8475 65.2412 58.3643 65.042C58.3643 65.042 58.1365 64.587 58.2793 64.2176C58.2793 64.2176 58.2219 63.5065 58.7056 63.5636C58.7056 63.5636 59.2741 63.6776 59.3308 63.8483C59.3308 63.8483 59.4727 64.1892 59.6153 63.7907L59.4727 63.3077C59.4727 63.3077 59.3877 63.1089 59.2456 63.1654C59.2456 63.1654 58.2793 63.3077 58.1653 63.1939L57.3975 63.2794C57.3975 63.2794 57.284 63.5636 57.6249 63.7057C57.6249 63.7057 57.7099 63.7626 57.7099 63.8764Z" fill="black"/>
</g>
<defs>
<filter id="filter0_d" x="-5" y="0.227539" width="140.107" height="112.365" filterUnits="userSpaceOnUse" color-interpolation-filters="sRGB">
<feFlood flood-opacity="0" result="BackgroundImageFix"/>
<feColorMatrix in="SourceAlpha" type="matrix" values="0 0 0 0 0 0 0 0 0 0 0 0 0 0 0 0 0 0 127 0"/>
<feOffset dy="5"/>
<feGaussianBlur stdDeviation="2.5"/>
<feColorMatrix type="matrix" values="0 0 0 0 0 0 0 0 0 0 0 0 0 0 0 0 0 0 0.167403 0"/>
<feBlend mode="normal" in2="BackgroundImageFix" result="effect1_dropShadow"/>
<feBlend mode="normal" in="SourceGraphic" in2="effect1_dropShadow" result="shape"/>
</filter>
<clipPath id="clip0">
<rect width="131.29" height="110" fill="white"/>
</clipPath>
</defs>
</svg>
