<svg width="94" height="111" viewBox="0 0 94 111" fill="none" xmlns="http://www.w3.org/2000/svg">
<path d="M46.5954 105.117C49.3458 102.35 55.556 97.5619 61.5004 95.7528C68.3314 93.7315 85.9868 90.5378 90.0687 72.3422C93.3516 58.083 87.2303 42.0144 86.5206 34.778C85.8997 28.5005 87.7622 14.0281 88.1173 11.8998C88.4724 8.92075 85.7215 7.85618 83.9465 8.4951C80.9308 9.66519 74.454 11.793 67.0017 11.8998C59.017 12.0067 49.1681 6.15404 46.5954 2.2168C44.1111 6.15404 34.2631 12.0067 26.2779 11.8998C18.8252 11.7934 12.3489 9.66519 9.33221 8.4951C7.46969 7.85618 4.71881 8.9203 5.16277 11.8998C5.42853 14.0281 7.38037 28.5005 6.75953 34.778C6.04981 42.0144 -0.0719066 58.083 3.21049 72.3422C7.29193 90.5378 24.9474 93.7315 31.6904 95.7528C37.6348 97.5619 43.8454 102.35 46.5954 105.117Z" fill="black"/>
<path d="M46.5952 101.392C50.0558 97.7745 57.4187 93.9441 62.2988 92.6671C75.7839 89.0491 83.8579 82.9836 86.7857 73.7249C91.044 60.5299 85.1889 45.6331 83.9459 35.8427C83.1482 29.1388 84.7445 16.0506 85.0996 14.454C85.6316 11.2612 85.2765 10.8355 82.6154 11.7937C79.9547 12.7514 72.4126 14.6672 65.5816 14.454C59.0168 14.2416 51.2979 10.1979 46.5952 6.36621C41.8929 10.1979 34.2629 14.2416 27.6976 14.454C20.8662 14.6672 13.2361 12.7514 10.5741 11.7937C8.00145 10.8355 7.55748 11.2612 8.17832 14.454C8.44453 16.051 10.1306 29.1388 9.24313 35.8427C8.08944 45.6331 2.14548 60.5299 6.4038 73.7249C9.42133 82.9836 17.406 89.0491 30.9805 92.6671C35.8601 93.9441 43.1355 97.7745 46.5952 101.392Z" stroke="white" stroke-width="2.4198" stroke-linecap="round"/>
<path d="M48.9913 15.8371C49.0793 16.7952 49.257 17.753 49.1682 18.923C48.9024 18.1786 48.1922 17.3273 47.3056 17.3273C46.2408 17.3273 45.3538 18.0717 44.9098 18.923C44.7325 20.4132 44.7325 21.7966 44.9987 23.2855C45.6196 23.0731 46.1524 22.4346 46.7737 22.1154C48.2816 21.1572 50.7649 21.9021 51.3871 19.7739L51.4746 19.667C51.7404 20.1991 51.3871 20.9449 51.2089 21.5829C49.7014 24.1363 46.0631 22.0085 44.9098 24.7757C44.9987 26.5847 44.6441 28.6061 45.1765 30.3087C45.4422 30.6288 45.8858 30.5219 46.2404 30.4155C48.6362 29.6711 49.9668 27.3296 50.5876 25.2013H50.6769C50.5876 26.4783 50.5876 27.9685 50.3218 29.2454C47.6598 30.9476 44.9983 32.5433 42.3367 33.9271C43.5784 31.4801 42.6918 28.1809 42.9576 25.3086C42.7798 23.6065 42.7798 22.1163 42.7798 20.4137C42.7798 20.0936 42.4247 19.7748 42.159 19.5624C41.8928 19.456 41.5377 19.456 41.2715 19.3491C41.4488 19.0303 41.8923 18.7115 42.3363 18.4978C44.3766 17.2209 46.5057 16.2632 48.5464 15.0931C48.9913 14.9858 48.8131 15.6252 48.9913 15.8371Z" fill="white"/>
<path d="M78.8904 20.5195C79.5113 22.4341 78.8904 24.5623 78.7122 26.4777C78.1807 30.947 78.0025 35.7355 79.3331 39.7792C79.4224 40.098 78.978 40.098 78.8016 39.9925C77.8252 39.4599 77.3812 38.289 76.939 37.2253C75.8738 35.3094 75.2529 33.0748 74.0104 31.1603L73.9224 31.3727L74.0104 40.3117C74.0993 40.6305 74.4543 40.8438 74.7201 40.9493C74.0104 41.695 73.034 42.1207 72.1474 42.5463C72.1474 42.1207 72.4132 41.695 72.4132 41.1625C72.4132 36.4809 72.4132 31.6914 72.2367 27.1166C72.0585 26.4777 71.2608 26.3708 70.7275 26.1585C71.4373 25.5196 72.3243 24.9871 73.2122 24.5614C73.5673 24.4559 73.8331 24.7747 73.9219 25.0939C74.8979 27.0098 75.6076 29.1376 76.6715 31.0534C76.7604 31.0534 76.7604 30.9466 76.8493 30.9466C76.8493 27.8606 77.3812 24.8815 77.115 21.7956C77.0261 21.1567 75.8733 20.9443 76.228 20.1985C76.6711 19.8797 77.115 19.4541 77.7359 19.6665C78.2696 19.6669 78.5354 20.1994 78.8904 20.5195Z" fill="white"/>
<path d="M39.2317 20.5205C39.0543 20.9462 38.8766 21.4773 38.7881 21.903L38.8766 34.0344C38.9655 34.3532 38.8766 34.6733 39.2317 34.9925L39.7641 35.3113C38.9659 36.0571 37.7233 36.5878 36.7474 37.1203C36.7474 37.0135 36.659 36.8015 36.8367 36.8015L37.0141 35.8434L36.9252 29.5651C36.4817 29.0326 36.0381 29.6719 35.5942 29.7783C34.8849 30.4159 33.9081 30.7352 33.2877 31.3741C33.2877 33.3955 33.1099 35.6301 33.465 37.546C33.5539 37.9716 33.9081 38.1849 34.2632 38.2904H34.6183C33.465 39.2481 32.134 39.9939 30.8035 40.5251C31.0697 39.9939 31.247 39.2481 31.3359 38.6105L31.0701 26.7979C31.0701 26.2668 30.4488 26.0535 30.1826 25.7347C31.1585 24.8834 32.4011 24.2445 33.5543 23.8188C32.7553 25.309 33.377 27.5437 33.2881 29.3527C33.2881 29.5651 33.377 29.5651 33.4655 29.6715C34.6187 29.3527 35.5946 28.3945 36.7479 27.862L36.9256 27.4368L36.8372 23.2863C36.7479 22.9675 36.4821 22.6487 36.127 22.5419H35.8613C35.8613 22.1167 36.3048 22.2231 36.4821 21.903C37.3687 21.5837 38.1673 20.7324 39.2317 20.5205Z" fill="white"/>
<path d="M28.2304 25.2016C28.585 27.1174 28.3188 29.1388 29.2063 30.7345C27.7864 29.9901 28.0526 28.2875 26.722 27.4367C26.367 27.2234 26.1012 27.649 25.9239 27.8619C25.7466 32.7573 26.1012 37.2266 26.1896 41.9078C26.367 42.2279 26.6327 42.4403 26.8994 42.5467H27.4313C26.1012 43.5044 24.5036 44.1424 23.0846 44.9937C24.504 43.5049 23.7938 41.1634 23.8827 39.3544L23.7054 29.5645C23.6161 29.3521 23.7054 29.032 23.4396 28.82C22.2855 29.1388 22.1971 30.629 21.754 31.5872C21.4874 32.9696 21.3989 34.5663 20.2457 35.524H20.0684C21.1327 33.6081 20.2457 30.9478 20.8665 28.82C23.2623 27.5431 25.5692 25.9465 28.053 24.7764L28.2304 25.2016Z" fill="white"/>
<path d="M67.0016 29.8831C65.8479 30.2032 65.4928 31.4801 65.3159 32.4378C64.7826 35.8426 64.4276 39.9931 65.4928 43.2914C65.7586 43.8235 66.1136 44.8885 67.0016 44.7816C68.0655 44.4628 68.1544 43.2914 68.5094 42.3337C69.2192 38.8221 69.308 34.6729 68.5983 31.0549C68.2437 30.522 67.7997 29.778 67.0016 29.8831ZM70.0173 29.9899C71.7918 34.2473 71.5265 39.5679 69.6622 43.7171C69.0414 44.7816 68.2432 45.9517 67.0016 46.165C66.0243 46.3774 65.0488 45.9517 64.34 45.3141C62.4762 42.3337 62.1211 38.1841 62.7419 34.5661C63.2748 32.1182 64.1618 28.8198 67.2673 28.2873C68.5094 28.1809 69.3965 29.0322 70.0173 29.9899Z" fill="white"/>
<path d="M61.8556 31.2676C61.7667 31.9065 61.3237 32.5445 61.3237 33.1834V40.313C61.3237 42.8665 61.3237 45.4204 61.5005 47.7614C61.6783 48.0802 61.9445 48.2939 62.2103 48.4003L62.1214 48.6127C61.0566 49.3585 59.9927 49.9961 58.8385 50.5286C59.3718 49.5704 59.5487 48.2939 59.4594 46.9101L59.2829 37.3335L59.1047 34.0343C59.0172 33.7155 58.6621 33.5018 58.395 33.2898C59.2834 32.5441 60.3477 32.2253 61.3237 31.4808C61.5005 31.4808 61.6787 31.2676 61.8556 31.2676Z" fill="white"/>
<path d="M57.3314 34.353C57.6865 36.162 57.5079 38.0779 57.6865 39.7805C56.7982 38.8223 57.2421 37.227 55.9116 36.5877C55.4676 36.3753 55.2018 36.8009 54.9356 37.1202L54.8468 37.5458V46.4844L54.9356 51.2729C55.1125 51.6986 55.4676 52.0187 55.9116 52.2307C54.9356 53.0819 53.8708 53.7209 52.718 54.0401L52.9838 52.5499V44.7818L52.8056 38.3967C52.6292 38.0779 52.2741 38.0779 52.0079 38.2898C50.8537 39.4612 51.1195 41.2702 50.3222 42.5472H50.2329C50.4098 41.1634 50.2329 39.5681 50.2329 38.2898L50.4098 37.8642C52.5398 36.6941 54.7574 35.3107 56.887 34.1406C57.0639 34.1406 57.3314 34.2475 57.3314 34.353Z" fill="white"/>
<path d="M44.0228 41.9086C43.4904 42.8668 43.4904 44.0378 43.2238 45.1014L42.6922 47.975L41.1839 56.2747C40.4742 58.2961 40.8288 61.0628 39.3209 62.6598C39.3209 61.2752 38.877 60.1046 38.6108 58.7213L36.3932 50.2092C36.1265 49.1447 35.8608 47.7613 34.5298 47.4421V47.3352C35.7715 46.5908 36.9251 45.6331 38.2557 45.2074C37.7233 45.845 37.9006 46.9096 37.9899 47.6544C38.345 50.1024 39.0543 52.3375 39.5867 54.6785C39.676 54.6785 39.764 54.784 39.8533 54.784C40.4742 52.7627 40.5626 50.528 41.0066 48.5057C41.1839 47.1233 41.8048 45.5267 41.095 44.2497C41.0066 44.0373 40.74 43.8241 40.5626 43.8241C41.4501 43.0796 42.6034 42.4407 43.7566 41.9082H44.0228" fill="white"/>
<path d="M77.2939 48.2935C77.6477 48.9311 77.6477 49.9957 77.2939 50.7406C76.2287 54.1466 74.7199 57.3395 73.5671 60.7442C73.4782 62.4468 73.4782 64.4677 73.6547 66.1712C73.6547 66.4904 74.0991 66.7024 74.2768 67.0225C73.212 67.8738 71.8815 68.405 70.7273 69.2563C70.9055 68.5114 71.3482 67.8738 71.4371 67.0225C71.4371 64.9998 71.4371 62.8724 71.1713 60.9561C70.1954 58.8279 69.1306 56.7001 67.9778 54.5723L67.2681 54.0402C68.4209 53.2958 69.4857 52.4445 70.7273 52.0189C70.5505 52.7633 70.1065 53.9334 70.6398 54.7847C71.3482 56.0616 71.7033 57.3399 72.413 58.5082C72.7685 58.6151 72.7685 58.0839 73.0338 57.9775C73.8329 55.3172 75.2528 52.9757 75.5185 50.2098C75.5185 49.2517 75.0745 48.294 74.1879 47.9752C74.0991 47.7619 74.2768 47.5496 74.2768 47.4427C74.9857 47.0171 75.8736 47.1239 76.5833 47.4427C76.9388 47.5491 77.0268 47.9748 77.2939 48.2935Z" fill="white"/>
<path d="M32.3113 52.2302C32.3113 56.0606 32.3113 59.8923 32.4886 63.7223C32.6664 64.0415 32.577 64.3612 33.021 64.4671C33.4645 64.6804 33.7307 64.3616 34.0854 64.1479C35.5052 62.6595 34.7066 60.2111 36.3927 58.8273H36.7469C36.2154 60.1042 36.1261 61.4876 36.2154 62.8714C36.1261 63.297 36.2154 63.8291 36.1261 64.2548C34.352 65.4248 32.4002 66.4894 30.5368 67.5526L30.4479 67.4458L30.5368 65.5317L30.4479 55.8482L30.3599 51.6981C30.0932 51.0606 29.4724 50.74 28.8516 50.74C30.271 49.8887 31.5131 48.8255 32.9326 48.293C32.2228 49.358 32.4006 50.9537 32.3113 52.2302Z" fill="white"/>
<path d="M65.404 55.1035C65.404 55.7411 65.049 56.38 65.049 57.1249V62.7643L65.2272 71.0644C65.316 71.4909 65.6711 71.7029 66.0249 71.9157C65.049 72.6615 64.1624 73.1935 63.0976 73.6178C63.3633 72.6615 63.1864 71.8102 63.1864 70.8525L63.0976 63.1904C63.01 63.084 62.9207 63.1904 62.8318 63.2972C62.1221 65.3199 61.5901 67.3409 60.7911 69.3623C60.436 69.2559 60.1702 68.8311 59.9934 68.4046C59.3725 67.4464 59.0174 66.3827 58.3077 65.425C58.1295 65.425 57.9526 65.5319 57.9526 65.6374C58.1291 69.0435 57.8633 72.0226 58.1291 75.4273C58.3948 75.6406 58.7499 75.8543 58.9281 76.1735C58.0411 76.918 56.887 77.45 55.8222 77.9825C55.9999 77.2367 56.443 76.4923 56.443 75.5346L56.3554 68.5114L56.1772 62.5532C56.0004 61.9143 55.3795 61.5955 54.8467 61.3818C55.6453 60.8506 56.4434 60.1049 57.4194 59.9998C58.3953 61.5955 59.2832 63.2977 60.2591 64.8934C60.6142 65.1067 60.6142 64.5742 60.7911 64.4678C61.4119 61.8075 62.211 59.2536 63.01 56.5933C63.718 55.848 64.517 55.5292 65.404 55.1035Z" fill="white"/>
<path d="M19.1805 57.0188C18.0273 58.5077 18.2046 61.0625 18.737 62.7651C18.0273 62.7651 17.6722 62.1262 17.2287 61.7018C16.9629 61.7018 16.519 61.8074 16.3412 61.5954C16.6078 61.1685 16.7852 60.6377 16.7852 60.2121C16.7852 59.4659 16.519 58.8283 15.8092 58.5081C14.9218 57.9774 13.6796 58.0838 12.7926 58.7214C12.0824 59.4659 11.55 60.3172 11.9935 61.2753C13.2361 64.2557 17.0509 65.2134 18.5592 68.193C19.4467 70.4276 19.1801 73.3012 17.7611 75.2157C16.519 76.7059 14.6556 77.5572 12.5264 77.2375C11.1958 76.9183 9.95371 75.8551 9.59907 74.5772C9.15555 73.1948 9.68751 72.0233 10.6634 71.2794C11.3731 70.7468 12.4384 70.7468 13.0592 71.2794C13.4143 71.4922 13.5916 71.8114 13.5916 72.2371C13.4143 72.5559 13.0592 72.1302 12.7935 72.3435C12.4384 72.5559 11.9944 72.8746 11.906 73.1948C11.906 73.8324 11.8175 74.1525 12.0833 74.5772C12.7042 75.323 13.5028 75.5349 14.4791 75.4281C15.6324 75.1106 16.874 73.8324 17.0518 72.4503C17.5842 67.4472 11.1074 66.7028 10.0426 62.4467C9.51019 60.424 10.2199 58.5082 11.8175 57.4449C13.4143 56.3817 15.455 56.4872 17.1407 57.2325C17.6726 56.8056 18.4708 56.3812 19.181 56.5936V57.0188" fill="white"/>
<path d="M24.8591 58.0825L24.5041 58.1889C24.2383 60.1034 23.7059 62.5518 23.7059 64.3608C24.4156 64.0407 25.2142 63.8287 25.6577 63.1894L24.8591 58.0825ZM25.6573 51.5918C25.2138 52.0174 25.2138 52.7619 25.2138 53.2944C26.5448 57.7628 27.6091 62.3385 28.9397 66.8078C29.029 67.3403 29.6499 67.6591 29.5614 68.1916C28.4966 68.8301 27.4318 69.575 26.1897 70.0006C27.0772 68.6173 26.5448 67.1279 26.1013 65.7432C25.8346 64.8919 25.6573 65.1057 25.2138 65.3189C24.6814 65.5313 23.9717 65.9565 23.7055 66.0634C23.1731 66.2757 23.1731 67.0211 23.0846 67.4454C22.9073 68.2967 22.0198 70.6395 23.3504 71.2775C23.6161 71.2775 23.7055 71.384 23.8828 71.2775C22.7295 72.449 21.0435 73.193 19.7129 73.9378C19.8902 73.3003 20.2453 72.766 20.4226 72.2353C21.6643 66.2757 22.5518 60.1039 23.705 54.1452C24.149 53.1875 24.5041 51.9106 25.6573 51.5918Z" fill="white"/>
<path d="M50.0564 65.851C49.612 65.851 49.0791 66.1712 48.9911 66.5959C48.8134 68.6186 48.9023 70.9584 48.9911 73.0879C49.0791 73.4067 49.4342 73.4067 49.7013 73.4067C50.499 73.4067 51.2087 72.8747 51.5638 72.2366C52.1842 70.4276 52.7175 67.9806 51.6527 66.2771C51.2087 65.9579 50.6772 65.851 50.0564 65.851ZM54.2254 66.3831C55.1124 68.2976 54.4911 70.746 53.4263 72.2362C52.9837 73.1939 51.4745 73.4063 51.7407 74.6832C52.3629 77.2371 53.0713 79.8974 55.3795 81.494C55.9115 81.8128 56.6212 81.8128 57.242 81.7064C57.242 82.3449 56.5323 82.6641 56.0003 82.7705C53.0717 82.8774 51.5643 79.7914 50.499 77.6632C50.0564 76.5991 49.7013 75.5341 49.4342 74.5764L49.1685 74.364L48.9916 74.5764C48.9027 76.7055 49.0796 78.9388 48.9916 81.0684C49.1685 81.3872 49.7017 81.3872 49.7017 81.706C48.8134 82.4517 47.8379 82.9838 46.774 83.4081C47.2171 81.494 46.6842 79.4722 46.862 77.4499C46.774 74.2576 46.774 70.746 46.6847 67.4463C46.5073 67.1289 46.2411 66.8087 45.8865 66.8087H45.355C45.8865 66.0643 46.8624 65.6373 47.6615 65.213C49.0805 64.3617 51.2096 63.8297 52.7188 64.786C53.3388 65.213 53.8707 65.851 54.2254 66.3831Z" fill="white"/>
<path d="M40.0306 73.5129L39.7639 74.3638C39.4088 76.5989 38.8764 78.7267 38.788 80.9613C39.7639 80.8549 40.5625 80.2169 41.4496 79.6844C41.538 79.3656 41.538 79.1523 41.4496 78.9386C40.9172 77.1309 40.7398 75.2151 40.0306 73.5129ZM42.9579 75.7476L44.732 83.4079C44.732 83.8349 45.2644 84.0468 45.4417 84.2592C44.5542 85.005 43.5787 85.4306 42.6917 85.7507C43.1352 84.366 42.425 82.8772 42.07 81.5989C41.9815 81.1746 41.4491 81.3865 41.1829 81.4938C40.1181 82.0259 39.0533 82.557 38.1663 83.3028C37.989 84.7926 37.4566 86.2819 37.6339 87.7721C37.8112 88.1978 38.1663 88.3042 38.5214 88.3042L38.4325 88.5166C37.1908 89.3679 35.8598 90.2191 34.5288 90.7512C34.6172 90.2191 35.1496 89.9004 35.327 89.3679C36.3029 86.8144 36.5686 84.0473 37.1015 81.2819C37.8112 77.4497 38.6987 73.6184 39.32 69.7894C39.763 68.618 40.0297 67.4466 41.0941 66.5957C41.3611 69.7889 42.4255 72.6616 42.9579 75.7476Z" fill="white"/>
<path d="M53.6934 105.225C54.1365 105.225 54.5805 105.225 54.5805 104.586C54.5805 104.16 54.1365 104.053 53.7819 104.053H52.9841V105.225H53.6934V105.225ZM52.9837 107.246H52.4504V103.628H53.8707C54.6693 103.628 55.1124 103.947 55.1124 104.691C55.1124 105.33 54.7573 105.649 54.2254 105.649L55.2013 107.246H54.5805L53.6045 105.649H52.9837V107.246ZM53.6934 108.097C55.1124 108.097 56.2661 106.927 56.2661 105.437C56.2661 103.947 55.1124 102.777 53.6934 102.777C52.2735 102.777 51.1194 103.947 51.1194 105.437C51.1199 106.927 52.274 108.097 53.6934 108.097ZM50.499 105.437C50.499 103.628 51.9193 102.244 53.6939 102.244C55.3795 102.244 56.8874 103.628 56.8874 105.437C56.8874 107.246 55.3795 108.629 53.6939 108.629C51.9189 108.629 50.499 107.246 50.499 105.437Z" fill="#EF3E42"/>
<path d="M47.3054 45.3131L47.0383 45.4187C46.6836 47.2277 46.2406 49.676 46.2406 51.485C46.8614 51.1649 47.6604 50.953 48.1924 50.3136L47.3054 45.3131ZM49.3456 46.802C49.9665 49.1435 50.4096 51.6974 51.1193 54.0385C51.2082 54.3573 51.7401 54.5705 51.7401 54.7829C50.7642 55.5287 49.7007 56.1663 48.6355 56.5919C48.8124 55.8475 48.9906 54.8898 48.9012 54.0385L48.4573 52.4427C48.3693 52.1226 48.0142 52.2295 47.7484 52.3359C47.1267 52.9735 45.9739 53.0803 45.53 53.9316C45.53 55.2081 44.9091 56.2731 45.1758 57.5501C45.3531 57.9757 45.885 57.9757 46.4174 57.9757C44.998 58.8266 43.7559 59.7847 42.2476 60.4228H42.3369C43.9336 56.5919 44.111 52.2295 45.0869 48.2927C45.885 44.9935 45.885 41.3763 47.5711 38.3959L47.7489 38.2891C47.66 41.269 48.9021 43.9293 49.3456 46.802Z" fill="white"/>
</svg>
