<svg width="277" height="80" viewBox="0 0 277 80" fill="none" xmlns="http://www.w3.org/2000/svg">
<path d="M242.313 51.4945V28.5471H247.946V51.4613L242.313 51.4945ZM248.029 25.9178H242.205V20.9256H248.029V25.9178ZM228.227 42.4337V41.4685L221.487 42.0593C220.589 42.1425 220.223 42.6417 220.223 43.5403V45.5289C220.223 46.8768 221.629 47.584 223.684 47.584C226.305 47.4803 228.346 45.2715 228.243 42.65V42.4337H228.227ZM228.227 35.7774C228.393 34.0791 227.175 32.558 225.481 32.3495C225.205 32.3078 224.925 32.3078 224.649 32.3495C222.402 32.3495 220.78 33.4727 220.78 35.5777H215.164C215.339 30.5855 219.399 27.9896 224.874 27.9896C230.348 27.9896 233.801 30.7852 233.801 35.869V47.1014H237.67V51.4613H228.759V47.9168H228.576C227.322 50.5622 224.584 52.1771 221.662 51.9938C217.849 52.192 214.596 49.2662 214.39 45.454V44.9298C214.39 41.2439 217.077 38.1903 221.878 37.791L228.218 37.2335L228.227 35.7774ZM208.358 51.4945H201.876V44.9298H208.358V51.4945ZM181.541 37.4831H190.536V36.6095C190.536 34.1281 188.524 32.1165 186.043 32.1165C183.561 32.1165 181.55 34.1281 181.55 36.6095L181.541 37.4831ZM186.034 28.0478C192.233 28.0478 196.277 32.7072 196.277 38.9974V41.8346H181.541V43.3573C181.519 44.4827 181.945 45.5709 182.725 46.3824C183.505 47.1938 184.576 47.662 185.702 47.6838H186.076C188.306 47.8811 190.275 46.2359 190.477 44.0062H196.094C195.37 49.0816 191.551 52.0354 186.026 52.0354C179.511 52.0354 175.651 47.2012 175.651 39.9376C175.651 32.6739 179.811 28.0146 186.026 28.0146L186.034 28.0478ZM162.246 45.2044L167.43 28.5637H173.354L165.267 51.4446H159.101L151.064 28.5304H157.08L162.072 45.1711L162.246 45.2044ZM140.564 51.4945V28.5471H146.18V51.4613L140.564 51.4945ZM146.263 25.9178H140.439V20.9256H146.263V25.9178ZM129.456 47.0348H135.164V51.3864H123.84V32.832H119.23V28.5471H123.773V20.909H129.389V28.5471H135.089V32.832H129.389L129.456 47.0348ZM108.447 42.3505V41.4685L101.708 42.0593C100.809 42.1425 100.443 42.6417 100.443 43.5403V45.5289C100.443 46.8768 101.824 47.584 103.771 47.584C105.029 47.5599 106.226 47.0371 107.098 46.1304C107.97 45.2238 108.447 44.0078 108.422 42.7499V42.4337L108.447 42.3505ZM108.447 35.6942C108.618 33.9779 107.381 32.4416 105.668 32.2413C105.392 32.208 105.113 32.208 104.836 32.2413C102.59 32.2413 100.967 33.3645 100.967 35.4779H95.351C95.5174 30.4857 99.5611 27.8898 105.061 27.8898C110.561 27.8898 114.03 30.727 114.03 35.8523V47.0848H117.882V51.4446H108.996V47.9168H108.822C107.565 50.556 104.833 52.1689 101.916 51.9938C98.1029 52.2017 94.8418 49.2831 94.6271 45.4706V44.9298C94.6271 41.2439 97.3229 38.1903 102.115 37.791L108.456 37.2335L108.447 35.6942ZM75.116 37.4415H84.1186V36.6095C83.9738 34.2296 82.0015 32.3737 79.6173 32.3737C77.233 32.3737 75.2607 34.2296 75.116 36.6095V37.4415ZM79.6089 28.0062C85.8076 28.0062 89.8513 32.674 89.8513 38.9641V41.8014H75.116V43.3157C75.0832 45.6554 76.937 47.587 79.2761 47.6505H79.6173C80.691 47.7475 81.7593 47.4135 82.5865 46.7221C83.4137 46.0306 83.932 45.0386 84.027 43.9646H89.6433C88.9111 49.0484 85.092 52.0021 79.5673 52.0021C73.0525 52.0021 69.2002 47.1596 69.2002 39.9376C69.2002 32.7155 73.3604 28.0478 79.5673 28.0478L79.6089 28.0062ZM53.2501 28.5554H66.1134V32.9485H58.9246V51.4613H53.3084L53.2501 28.5554ZM38.2735 28.0146C43.0411 28.0146 47.4259 30.5107 47.8502 36.2766H42.2506C42.3161 34.1811 40.6766 32.4263 38.5814 32.3495C38.3932 32.3328 38.2038 32.3328 38.0156 32.3495C35.7664 32.2604 33.8707 34.0109 33.7805 36.26C33.7805 36.4514 33.7805 36.6511 33.7805 36.8424V43.1825C33.6787 44.2683 34.0125 45.35 34.7085 46.1896C35.4045 47.0291 36.4056 47.5577 37.4914 47.6589H38.0489C40.545 47.6589 42.0094 46.6188 42.3505 43.5653H47.9834C47.4259 49.3146 43.3739 52.0437 38.3235 52.0437C31.5008 52.0437 27.9563 47.2096 27.9563 40.1955C27.9563 32.5907 32 28.0062 38.2902 28.0062L38.2735 28.0146ZM276.468 0H0V80H276.468V0Z" fill="black"/>
</svg>
