<svg width="500" height="500" viewBox="0 0 500 500" fill="none" xmlns="http://www.w3.org/2000/svg">
<path fill-rule="evenodd" clip-rule="evenodd" d="M498.709 250.301C498.713 299.49 484.13 347.576 456.805 388.477C429.48 429.378 390.64 461.258 345.196 480.084C299.752 498.911 249.746 503.839 201.502 494.245C153.258 484.651 108.942 460.966 74.1583 426.186C39.375 391.405 15.6866 347.091 6.08887 298.847C-3.5089 250.604 1.41502 200.598 20.238 155.152C39.0609 109.707 70.9374 70.8644 111.836 43.536C152.735 16.2076 200.82 1.62109 250.009 1.62109C387.369 1.62109 498.709 112.971 498.709 250.321" fill="black"/>
<path fill-rule="evenodd" clip-rule="evenodd" d="M339.322 230.21H313.242V241.84L339.322 241.82V257.54H313.242V270.45H339.322V292.12H286.152V209.15H339.322V230.21Z" fill="white"/>
<path d="M395.916 202.319C379.096 231.989 346.016 292.119 346.016 292.119H374.366L378.966 283.089H412.826L417.306 292.119H445.856L395.916 202.319ZM385.536 269.379C385.536 269.439 395.916 248.099 395.916 248.099C395.916 248.099 406.096 269.439 406.096 269.379H385.536Z" fill="white"/>
<path fill-rule="evenodd" clip-rule="evenodd" d="M234.183 246.331L252.783 209.151H281.703C281.803 209.151 234.183 298.291 234.183 298.291L186.733 209.151H215.673C215.673 209.151 232.713 243.741 234.183 246.331ZM182.283 292.131H155.173V209.151C155.173 209.151 182.293 209.251 182.293 209.151V292.121L182.283 292.131ZM103.533 241.251V209.141H130.653V298.291L86.6131 259.981V292.121H59.4531V202.861L103.533 241.251Z" fill="white"/>
</svg>
