<svg fill="none" height="499" viewBox="0 0 498 499" width="498" xmlns="http://www.w3.org/2000/svg"><path clip-rule="evenodd" d="m455.805 387.477c27.321-40.895 41.904-88.974 41.904-138.156 0-137.35-111.34-248.699906-248.7-248.699906-49.189 0-97.274 14.586506-138.173 41.914906-40.8986 27.3284-72.7751 66.171-91.598 111.616-18.822978 45.446-23.7469 95.452-14.14913 143.695 9.59773 48.244 33.28613 92.558 68.06943 127.339 34.7837 34.78 79.0997 58.465 127.3437 68.059s98.25 4.666 143.694-14.161c45.444-18.826 84.284-50.706 111.609-91.607zm-143.563-158.267h26.08v-21.06h-53.17v82.97h53.17v-21.67h-26.08v-12.91h26.08v-15.72l-26.08.02zm82.674-27.891c-16.82 29.67-49.9 89.8-49.9 89.8h28.35l4.6-9.03h33.86l4.48 9.03h28.55zm-10.38 67.06c.058-.06 10.38-21.28 10.38-21.28s10.123 21.22 10.18 21.28zm-132.753-60.228-18.6 37.18c-1.47-2.59-18.51-37.18-18.51-37.18h-28.94l47.45 89.14s47.62-89.14 47.52-89.14zm-97.61 82.98h27.11l.01-.01v-82.97c0 .1-27.12 0-27.12 0zm-51.64-82.99v32.11l-44.0799-38.39v89.26h27.16v-32.14l44.0399 38.31v-89.15z" fill="#fff" fill-rule="evenodd"/></svg>