<svg width="261" height="50" viewBox="0 0 261 50" fill="none" xmlns="http://www.w3.org/2000/svg">
<path d="M33.437 5.02203C32.1325 4.28278 28.3492 4.73938 23.8485 6.15265C19.3304 8.96165 15.5793 12.847 12.9308 17.461C10.2823 22.075 8.81906 27.2737 8.6721 32.5918C8.6721 32.8962 7.80239 32.5918 7.65019 32.4613C6.4581 30.2103 5.74075 27.7386 5.54253 25.1992C5.34431 22.6598 5.66946 20.1067 6.49783 17.698C6.82397 17.1327 5.73683 16.4587 5.54115 16.6544C4.37791 17.8839 3.35682 19.2405 2.49717 20.6985C-0.0430631 25.2537 -0.675381 30.6296 0.738598 35.6498C2.15258 40.6701 5.49769 44.9257 10.0419 47.4855C12.2791 48.7422 14.7438 49.5419 17.2927 49.8381C19.8415 50.1344 22.4239 49.9213 24.8897 49.2113C27.3556 48.5013 29.6558 47.3084 31.6568 45.7021C33.6579 44.0957 35.3198 42.1078 36.5462 39.8538C42.5907 28.9825 36.9811 7.02236 33.437 5.06552V5.02203Z" fill="black"/>
<path d="M67.073 10.2825C55.9407 10.2825 47.809 18.6752 47.809 30.2205C47.6802 32.8334 48.0967 35.4444 49.032 37.8876C49.9672 40.3307 51.4007 42.5524 53.2413 44.4114C55.0819 46.2704 57.2892 47.7259 59.7229 48.6854C62.1566 49.6449 64.7634 50.0874 67.3774 49.9846C69.9983 50.0902 72.6119 49.6412 75.0473 48.667C77.4827 47.6928 79.685 46.2155 81.5102 44.3315C82.2525 43.5818 82.687 42.5811 82.7277 41.5267C82.7369 41.0951 82.6579 40.6661 82.4955 40.2661C82.3332 39.866 82.091 39.5033 81.7837 39.2C81.4764 38.8968 81.1104 38.6594 80.7082 38.5025C80.3061 38.3455 79.8761 38.2722 79.4446 38.2871C78.9346 38.3 78.4327 38.4166 77.9692 38.6297C77.5057 38.8427 77.0904 39.1478 76.7485 39.5264C75.5362 40.7851 74.0799 41.7834 72.4686 42.46C70.8573 43.1367 69.1249 43.4776 67.3774 43.4618C64.3951 43.5019 61.5108 42.3971 59.3186 40.3747C57.1263 38.3523 55.7929 35.5664 55.5929 32.5905H80.8579C83.5975 32.5905 84.9238 31.2859 84.9238 28.6333C84.9466 27.7753 84.8957 26.917 84.7716 26.0677C83.4235 16.1748 76.8137 10.2607 67.0947 10.2607L67.073 10.2825ZM67.073 16.4574C73.1175 16.4574 76.9877 20.3494 77.2268 26.633H55.6798C55.9624 23.8194 57.289 21.2138 59.3981 19.3301C61.5071 17.4465 64.2455 16.4215 67.073 16.4574Z" fill="black"/>
<path d="M108.949 10.2823C106.493 10.273 104.08 10.9265 101.963 12.174C99.8474 13.4215 98.107 15.2167 96.9257 17.3704V14.7831C96.9257 10.8694 93.9253 10.6737 93.3165 10.6737C92.7919 10.6591 92.2704 10.7591 91.7884 10.9667C91.3064 11.1743 90.8755 11.4846 90.5257 11.8758C90.1759 12.267 89.9156 12.7298 89.7629 13.2319C89.6103 13.734 89.569 14.2634 89.6419 14.7831V45.2228C89.6022 45.7511 89.6718 46.2819 89.8467 46.7819C90.0215 47.282 90.2977 47.7406 90.6579 48.129C91.0181 48.5174 91.4547 48.8272 91.9402 49.0391C92.4257 49.251 92.9498 49.3604 93.4795 49.3604C94.0093 49.3604 94.5333 49.251 95.0188 49.0391C95.5043 48.8272 95.9409 48.5174 96.3011 48.129C96.6614 47.7406 96.9376 47.282 97.1124 46.7819C97.2872 46.2819 97.3569 45.7511 97.3171 45.2228V28.9593C97.3171 21.8494 101.296 16.8704 107.014 16.8704C112.733 16.8704 115.211 20.5231 115.211 28.0896V45.3315C115.172 45.8598 115.241 46.3906 115.416 46.8906C115.591 47.3907 115.867 47.8493 116.227 48.2377C116.588 48.6261 117.024 48.9359 117.51 49.1478C117.995 49.3597 118.519 49.4691 119.049 49.4691C119.579 49.4691 120.103 49.3597 120.588 49.1478C121.074 48.9359 121.51 48.6261 121.871 48.2377C122.231 47.8493 122.507 47.3907 122.682 46.8906C122.857 46.3906 122.926 45.8598 122.887 45.3315V25.7631C122.887 18.3271 119.212 10.391 108.949 10.391V10.2823Z" fill="black"/>
<path d="M157.588 10.6737C156.696 10.6938 155.835 11.0103 155.142 11.5732C154.45 12.1361 153.964 12.9135 153.761 13.7829L143.281 40.4611L132.867 13.7829C132.651 12.9082 132.153 12.1292 131.449 11.5669C130.745 11.0047 129.875 10.6906 128.975 10.6737C127.975 10.662 127.011 11.0465 126.294 11.7432C125.577 12.4399 125.165 13.3921 125.148 14.3917C125.154 15.1418 125.317 15.8823 125.626 16.5659L137.693 45.3533C138.028 46.5645 138.75 47.6326 139.749 48.3939C140.749 49.1551 141.971 49.5673 143.227 49.5673C144.483 49.5673 145.705 49.1551 146.705 48.3939C147.704 47.6326 148.426 46.5645 148.761 45.3533L160.871 16.4355C161.171 15.7489 161.334 15.0102 161.35 14.2612C161.353 13.7723 161.257 13.2878 161.067 12.8372C160.878 12.3865 160.599 11.979 160.247 11.6395C159.895 11.2999 159.478 11.0354 159.021 10.8619C158.564 10.6884 158.077 10.6095 157.588 10.6302V10.6737Z" fill="black"/>
<path d="M179.895 10.282C175.301 10.1866 170.795 11.5491 167.024 14.174C166.481 14.4823 166.029 14.9277 165.712 15.4657C165.395 16.0037 165.225 16.6154 165.219 17.2397C165.208 17.6392 165.276 18.0369 165.42 18.4096C165.564 18.7823 165.782 19.1224 166.059 19.41C166.337 19.6976 166.669 19.9269 167.036 20.0844C167.403 20.2419 167.798 20.3244 168.198 20.3272C168.988 20.2694 169.743 19.9822 170.372 19.5009C172.9 17.6585 175.941 16.6548 179.069 16.6309C184.744 16.6309 187.984 19.5444 187.984 24.6322V25.4802C175.264 25.4802 162.306 27.0456 162.306 38.2431C162.436 46.2879 169.242 49.9842 176.091 49.9842C178.521 50.0909 180.937 49.5733 183.111 48.481C185.284 47.3886 187.141 45.7578 188.506 43.744V45.6357C188.446 46.1401 188.496 46.6514 188.651 47.1349C188.807 47.6185 189.065 48.0629 189.407 48.4382C189.749 48.8134 190.168 49.1108 190.635 49.31C191.103 49.5092 191.607 49.6057 192.115 49.5928C192.604 49.5792 193.084 49.4625 193.525 49.2505C193.966 49.0385 194.357 48.7359 194.673 48.3625C194.989 47.989 195.223 47.5532 195.359 47.0833C195.495 46.6134 195.531 46.1202 195.463 45.6357V25.0888C195.463 15.8047 189.636 10.282 179.874 10.282H179.895ZM186.418 31.1768H188.027V32.9597C188.144 34.3785 187.956 35.806 187.475 37.1459C186.994 38.4857 186.231 39.7068 185.237 40.7268C184.244 41.7468 183.044 42.542 181.717 43.0587C180.391 43.5755 178.969 43.8017 177.547 43.7223C175.83 43.7223 170.177 43.3092 170.177 38.0692C170.177 31.8943 179.439 31.1768 186.418 31.1768Z" fill="black"/>
<path d="M215.445 17.7188C215.892 17.7789 216.347 17.741 216.778 17.6077C217.209 17.4745 217.606 17.249 217.941 16.9469C218.276 16.6449 218.541 16.2736 218.718 15.8587C218.896 15.4438 218.98 14.9953 218.967 14.5443C218.983 14.09 218.9 13.6377 218.725 13.2184C218.549 12.7991 218.285 12.4227 217.95 12.1149C217.616 11.8072 217.219 11.5755 216.786 11.4356C216.354 11.2958 215.896 11.2511 215.445 11.3047H208.53V4.32526C208.601 3.78526 208.556 3.23635 208.398 2.71519C208.24 2.19404 207.972 1.71266 207.613 1.30323C207.254 0.893796 206.812 0.565744 206.315 0.341C205.819 0.116257 205.281 0 204.736 0C204.192 0 203.653 0.116257 203.157 0.341C202.661 0.565744 202.219 0.893796 201.86 1.30323C201.5 1.71266 201.233 2.19404 201.075 2.71519C200.916 3.23635 200.871 3.78526 200.942 4.32526V37.7655C200.942 45.5059 204.726 49.5935 211.814 49.5935C213.467 49.6302 215.11 49.3268 216.641 48.7021C217.258 48.4529 217.792 48.0316 218.177 47.4881C218.563 46.9447 218.784 46.3019 218.815 45.6364C218.83 45.2287 218.761 44.8223 218.613 44.4423C218.464 44.0624 218.239 43.717 217.952 43.4275C217.664 43.138 217.321 42.9107 216.942 42.7595C216.563 42.6084 216.157 42.5367 215.749 42.5489C215.284 42.5682 214.823 42.6486 214.379 42.7881C213.863 42.9373 213.329 43.0177 212.792 43.0272C209.879 43.0272 208.444 41.1139 208.444 36.9828V17.7188H215.445Z" fill="black"/>
<path d="M240.797 10.2827C238.162 10.1774 235.534 10.6147 233.075 11.5675C230.616 12.5204 228.38 13.9684 226.504 15.8217C224.628 17.675 223.154 19.894 222.171 22.3411C221.189 24.7881 220.72 27.411 220.794 30.0468C220.749 32.6936 221.234 35.3226 222.22 37.7794C223.206 40.2362 224.672 42.4713 226.534 44.3535C230.358 48.0406 235.485 50.065 240.797 49.9848C243.442 50.0559 246.073 49.5899 248.533 48.615C250.992 47.6401 253.229 46.1766 255.107 44.3129C256.985 42.4493 258.465 40.2242 259.459 37.7721C260.452 35.3201 260.938 32.692 260.887 30.0468C260.955 27.405 260.479 24.7775 259.489 22.3273C258.5 19.8771 257.017 17.6564 255.133 15.8032C253.249 13.9499 251.004 12.5036 248.538 11.5539C246.072 10.6043 243.437 10.1716 240.797 10.2827ZM240.797 43.3968C232.839 43.3968 228.686 36.6783 228.686 30.0468C228.686 20.9366 234.97 16.7837 240.797 16.7837C246.624 16.7837 252.908 20.9366 252.908 30.0468C252.908 39.157 246.624 43.462 240.797 43.462V43.3968Z" fill="black"/>
</svg>
