<?xml version="1.0" encoding="UTF-8"?>
<svg width="408px" height="60px" viewBox="0 0 408 60" version="1.1" xmlns="http://www.w3.org/2000/svg" xmlns:xlink="http://www.w3.org/1999/xlink">
    <!-- Generator: Sketch 52.6 (67491) - http://www.bohemiancoding.com/sketch -->
    <title>logo_archimedes</title>
    <desc>Created with Sketch.</desc>
    <g id="Page-1" stroke="none" stroke-width="1" fill="none" fill-rule="evenodd">
        <g id="logo_archimedes" fill="#FFFFFF">
            <polygon id="Path" points="79.2428 8.38086 77.2061 8.38086 77.2061 51.6411 79.2428 51.6411"></polygon>
            <path d="M44.215,0 L1.06082,24.8656 L33.5644,43.5149 L33.5644,35.1556 L15.6365,24.8656 L51.3861,4.17963 L44.215,0 Z M52.5955,6.08911 L20.0919,24.8444 L27.3904,29.024 L33.6068,25.4385 L45.3182,18.7553 L45.3182,60 L52.6167,55.8204 L52.6167,6.08911 L52.5955,6.08911 Z M43.0269,22.5955 L35.7284,26.7751 L35.7284,33.819 L35.7284,55.8204 L43.0269,60 L43.0269,22.5955 Z M0,26.7751 L0,35.1344 L25.099,49.71 L32.3974,45.5304 L16.2518,36.0891 L0,26.7751 Z" id="Shape" fill-rule="nonzero"></path>
            <path d="M124.667,42.433 L114.738,17.5674 L109.837,17.5674 L99.8018,42.433 L106.612,42.433 L107.928,38.8474 L116.541,38.8474 L117.73,42.433 L124.667,42.433 Z M114.865,33.8404 L109.731,33.8404 L112.235,25.3538 L112.362,25.3538 L114.865,33.8404 Z" id="Shape" fill-rule="nonzero"></path>
            <path d="M143.677,42.4333 L136.867,33.9467 C140.813,33.3527 143.083,30.0005 143.083,26.1815 C143.083,23.5507 142.128,21.0471 140.092,19.371 C137.949,17.6949 134.957,17.5889 132.433,17.5889 L124.54,17.5889 L124.54,42.4545 L130.629,42.4545 L130.629,34.4559 L136.358,42.4545 L143.677,42.4545 L143.677,42.4333 Z M136.973,26.5422 C136.973,29.0457 135.169,30.1278 132.793,30.1278 L130.65,30.1278 L130.65,23.19 L132.921,23.19 C135.063,23.19 136.973,24.1447 136.973,26.5422 Z" id="Shape" fill-rule="nonzero"></path>
            <path d="M169.137,33.118 L162.56,33.118 C161.372,35.6215 159.335,37.4249 156.577,37.4249 C152.503,37.4249 149.894,33.8394 149.894,30.0204 C149.894,26.2014 152.524,22.722 156.471,22.722 C159.335,22.722 161.605,24.5041 162.56,27.0289 L169.137,27.0289 C168.903,25.5862 168.309,24.1647 167.461,22.9553 C164.957,19.2425 161.011,17.0996 156.577,17.0996 C149.278,17.0996 143.55,22.722 143.55,29.9992 C143.55,37.2976 149.406,42.8988 156.577,42.8988 C162.687,42.92 167.694,39.0798 169.137,33.118 Z" id="Path"></path>
            <polygon id="Path" points="191.117 42.433 191.117 17.5674 184.795 17.5674 184.795 26.9026 176.669 26.9026 176.669 17.5674 170.325 17.5674 170.325 42.433 176.669 42.433 176.669 32.525 184.795 32.525 184.795 42.433"></polygon>
            <polygon id="Path" points="199.731 17.5674 193.388 17.5674 193.388 42.433 199.731 42.433"></polygon>
            <polygon id="Path" points="228.055 42.433 228.055 17.5674 219.929 17.5674 215.028 33.9464 210.021 17.5674 201.874 17.5674 201.874 42.433 207.73 42.433 207.496 23.9111 207.624 23.7838 212.885 42.433 217.065 42.433 222.433 23.7838 222.433 23.9111 222.327 42.433"></polygon>
            <polygon id="Path" points="244.201 42.433 244.201 36.938 236.436 36.938 236.436 32.631 243.967 32.631 243.967 27.0087 236.436 27.0087 236.436 23.1897 244.201 23.1897 244.201 17.5674 230.325 17.5674 230.325 42.433"></polygon>
            <path d="M267.857,30.0002 C267.857,27.2421 267.263,24.5051 265.587,22.235 C262.829,18.416 259.137,17.5674 254.597,17.5674 L246.471,17.5674 L246.471,42.433 L255.085,42.433 C263.21,42.433 267.857,38.1261 267.857,30.0002 Z M261.534,30.1275 C261.534,34.0737 259.858,36.938 255.445,36.938 L252.814,36.938 L252.814,23.1897 L255.573,23.1897 C259.731,23.1897 261.534,26.0539 261.534,30.1275 Z" id="Shape" fill-rule="nonzero"></path>
            <polygon id="Path" points="282.815 42.433 282.815 36.938 275.156 36.938 275.156 32.631 282.56 32.631 282.56 27.0087 275.156 27.0087 275.156 23.1897 282.815 23.1897 282.815 17.5674 269.066 17.5674 269.066 42.433"></polygon>
            <path d="M301.804,35.2609 C301.804,31.4419 299.3,29.7658 295.948,28.217 C294.866,27.729 291.641,26.4136 291.047,25.4589 C290.814,25.0982 290.814,24.7375 290.814,24.3768 C290.814,23.1887 291.896,22.4674 292.957,22.4674 C294.633,22.4674 295.099,23.5494 295.354,24.8648 L301.57,24.8648 C301.57,22.9553 301.21,21.5126 299.894,19.9638 C298.346,18.0543 295.587,17.0996 293.211,17.0996 C289.032,17.0996 284.491,19.8577 284.491,24.5041 C284.491,28.3231 287.355,30.2326 290.58,31.548 C291.302,31.9087 292.129,32.142 292.851,32.5027 C294.166,33.0968 295.481,33.5848 295.481,35.2609 C295.481,36.5763 294.399,37.6583 293.084,37.6583 C291.174,37.6583 290.453,35.8761 290.453,34.2 L284.109,34.2 L284.109,35.0275 C284.109,40.3952 288.056,42.92 293.084,42.92 C297.985,42.92 301.804,40.5225 301.804,35.2609 Z" id="Path"></path>
            <path d="M310.651,17.334 L303.968,17.334 L303.968,42.6664 L310.651,42.6664 C318.543,42.6664 323.317,36.9379 323.317,29.8729 C323.317,22.9563 318.543,17.334 310.651,17.334 Z M310.651,39.3354 L307.426,39.3354 L307.426,20.8135 L310.651,20.8135 C316.507,20.8135 319.859,24.7597 319.859,29.8941 C319.859,35.0285 316.507,39.3354 310.651,39.3354 Z" id="Shape" fill-rule="nonzero"></path>
            <polygon id="Path" points="328.091 17.334 324.632 17.334 324.632 42.6664 328.091 42.6664"></polygon>
            <path d="M342.453,29.1724 L342.453,32.5245 L349.031,32.5245 L349.031,37.9135 C347.227,39.1016 344.957,39.6957 342.581,39.6957 C336.958,39.6957 333.139,35.2827 333.139,30.021 C333.139,24.7593 336.958,20.3463 342.581,20.3463 C345.572,20.3463 347.842,21.4284 349.625,23.2105 L351.895,20.707 C349.625,18.4369 346.4,16.9941 342.581,16.9941 C334.688,16.9941 329.681,23.0832 329.681,30.021 C329.681,37.0649 334.709,43.0479 342.581,43.0479 C346.654,43.0479 350.113,41.7325 352.383,39.335 L352.383,29.1724 L342.453,29.1724 Z" id="Path"></path>
            <polygon id="Path" points="358.111 17.334 354.759 17.334 354.759 42.6664 358.111 42.6664"></polygon>
            <polygon id="Path" points="375.445 17.334 359.426 17.334 359.426 20.7923 365.876 20.7923 365.876 42.6664 369.228 42.6664 369.228 20.7923 375.445 20.7923"></polygon>
            <path d="M389.894,42.6657 L393.713,42.6657 L382.468,16.9727 L381.98,16.9727 L370.863,42.6657 L374.682,42.6657 L376.825,37.2768 L387.709,37.2768 L389.894,42.6657 Z M378.31,33.9458 L382.256,24.2711 L386.33,33.9458 L378.31,33.9458 Z" id="Shape" fill-rule="nonzero"></path>
            <polygon id="Path" points="398.041 39.3354 398.041 17.334 394.562 17.334 394.562 42.6664 407.355 42.6664 407.355 39.3354"></polygon>
        </g>
    </g>
</svg>