<svg width="98" height="98" viewBox="0 0 98 98" fill="none" xmlns="http://www.w3.org/2000/svg">
<path d="M49.0002 0.279297C75.8347 0.279297 97.7205 22.1652 97.7205 48.999C97.7205 75.8335 75.8347 97.7194 49.0002 97.7194C22.1663 97.7194 0.279785 75.8335 0.279785 48.999C0.279785 22.1652 22.1663 0.279297 49.0002 0.279297ZM49.0002 2.2208C23.2354 2.2208 2.22129 23.2342 2.22129 48.999C2.22129 74.7644 23.2354 95.7779 49.0002 95.7779C74.7656 95.7779 95.7797 74.7644 95.7797 48.999C95.7797 23.2342 74.7656 2.2208 49.0002 2.2208Z" fill="black"/>
<path d="M31.8877 69.7634C28.8373 67.2444 26.3471 64.0668 24.638 60.4513C22.9928 56.9711 22.0723 53.0874 22.0723 48.9989C22.0723 34.1688 34.1688 22.0723 49.0003 22.0723C63.831 22.0723 75.9276 34.1688 75.9276 48.9989C75.9276 53.0874 75.0063 56.9718 73.3618 60.4513C71.6534 64.0668 69.1633 67.2444 66.1121 69.7634L65.4948 69.0168C68.4373 66.5858 70.8394 63.5216 72.4866 60.0381C74.0706 56.6865 74.9575 52.9438 74.9575 48.9982C74.9575 34.7023 63.2975 23.0416 49.001 23.0416C34.7037 23.0416 23.0437 34.7023 23.0437 48.9982C23.0437 52.9431 23.9306 56.6865 25.5146 60.0381C27.1611 63.5209 29.5633 66.5851 32.5058 69.0168L31.8877 69.7634Z" fill="black"/>
<path fill-rule="evenodd" clip-rule="evenodd" d="M49.1631 73.8657L43.6487 65.4514C45.342 64.5797 45.1323 61.8613 43.6816 61.6351C42.0667 61.3821 40.7811 61.3044 39.6481 58.7655H42.275L41.4686 56.5634C38.4628 56.8274 37.8496 55.9921 36.4244 53.6443L40.1788 53.5157L39.4198 51.5997C35.3285 51.7894 34.2491 50.7864 33.2275 48.455L37.9946 48.288L36.9627 46.0082C32.0808 46.1444 31.0475 46.0062 29.2572 42.7048L35.3217 42.6752L34.4664 40.5034C28.9389 40.742 27.5584 40.2009 25.9937 37.4365L38.4182 37.1223C40.229 37.0762 42.2963 38.3103 43.0581 39.9527L44.552 43.1764L46.1243 37.7507C46.9349 34.9553 53.044 35.9687 55.0103 37.829L51.315 39.1655L53.1231 43.5683C54.4335 40.502 56.0388 37.1209 59.4928 37.1209H71.6815C70.7437 39.8138 68.4798 41.1565 63.5586 40.2855L62.6938 42.5652L68.772 42.5467C67.3172 45.9381 65.703 46.3643 61.182 45.8501L60.238 48.1299L65.0766 48.2873C64.1458 50.4364 62.4607 51.7213 58.7255 51.2745L57.939 53.4944L61.7918 53.4765C60.6876 56.177 59.9747 56.78 56.463 56.6218L55.6579 58.8232L58.4333 58.8335C57.2666 61.1841 56.9208 61.4632 54.4307 61.6839C52.9505 61.8152 52.2905 64.185 54.2616 65.5896L49.1631 73.8657Z" fill="black"/>
<path fill-rule="evenodd" clip-rule="evenodd" d="M7.27938 65.262L5.44238 60.3326L6.44613 59.9834L14.8666 61.2676L13.5783 57.8102L14.582 57.4609L16.2636 61.9751L15.2606 62.325L6.84007 61.0428L8.28245 64.9128L7.27938 65.262Z" fill="black"/>
<path fill-rule="evenodd" clip-rule="evenodd" d="M10.4857 71.9838L9.97828 70.9986L13.939 68.9615L12.6829 66.5189L8.72222 68.5552L8.21484 67.5714L16.6814 63.2168L17.1888 64.202L13.6227 66.0349L14.8795 68.4782L18.4455 66.644L18.9515 67.6299L10.4857 71.9838Z" fill="black"/>
<path fill-rule="evenodd" clip-rule="evenodd" d="M14.5015 77.3469L11.4937 73.1463L19.4343 68.2148L22.2957 72.2106L21.4136 72.7585L19.2301 69.7095L16.7675 71.2392L18.7736 74.04L17.8922 74.588L15.8861 71.7864L13.0529 73.5464L15.3835 76.8003L14.5015 77.3469Z" fill="black"/>
<path fill-rule="evenodd" clip-rule="evenodd" d="M21.2491 83.9496L20.2412 83.0992L26.0857 75.9189L27.0942 76.7701L21.2491 83.9496Z" fill="black"/>
<path fill-rule="evenodd" clip-rule="evenodd" d="M25.7756 87.1134L26.9732 84.5676L25.5219 83.5164L23.3611 85.6202L22.3745 84.8577L29.2255 78.0879L30.5998 78.926L26.9505 87.7748L25.7756 87.1134ZM27.526 83.3225L28.9546 80.0418L28.8226 79.9338L26.3524 82.4466L27.526 83.3225Z" fill="black"/>
<path fill-rule="evenodd" clip-rule="evenodd" d="M32.6434 90.433L31.4059 89.8575L32.1278 83.2513L29.4218 88.805L28.187 88.2371L32.4811 79.7334L33.5963 80.2504L33.0779 86.5266L35.8691 81.3442L36.9079 81.776L32.6434 90.433Z" fill="black"/>
<path fill-rule="evenodd" clip-rule="evenodd" d="M39.0367 92.3398L38.2386 92.0793L38.3121 91.3313C38.1258 91.4915 37.8776 91.5939 37.5696 91.64C37.2609 91.6874 36.9522 91.6592 36.6387 91.5575C35.9787 91.343 35.4913 90.8253 35.1764 90.0044C34.8602 89.1835 34.9227 88.054 35.3655 86.6157C35.8502 85.0455 36.4456 83.9516 37.1537 83.3356C37.8604 82.7217 38.9357 82.3787 39.8865 82.6832C40.9102 83.0098 41.5743 84.2686 41.2801 86.0107L40.0577 85.9103C40.2687 85.1644 40.1615 84.0005 39.4327 83.7633C38.8422 83.5715 38.1801 83.753 37.7594 84.2232C37.3379 84.6941 36.9282 85.5803 36.526 86.8852C36.1451 88.122 36.0392 89.0247 36.2077 89.5953C36.3761 90.166 36.6662 90.5173 37.0726 90.65C37.4802 90.7827 37.8501 90.729 38.1836 90.487C38.5156 90.2471 38.7865 89.7906 38.9921 89.1237L39.1626 88.5717L37.7051 88.0966L37.9986 87.1444L40.3966 87.9268L39.0367 92.3398Z" fill="black"/>
<path fill-rule="evenodd" clip-rule="evenodd" d="M51.7026 90.2417C51.6751 91.099 51.4455 91.7707 51.0165 92.256C50.5868 92.7414 49.9241 92.9655 49.0296 92.9318C48.1359 92.8982 47.4889 92.6245 47.0923 92.1082C46.6956 91.5912 46.5093 90.9044 46.5374 90.0471L46.7471 83.5605L47.8898 83.6032L47.6801 90.0897C47.6601 90.6975 47.7791 91.1492 48.0348 91.4448C48.2906 91.7411 48.6336 91.8979 49.0633 91.915C49.4937 91.9302 49.8457 91.7995 50.12 91.5239C50.3936 91.2482 50.5414 90.8075 50.5614 90.199L50.7718 83.7125L51.9137 83.7551L51.7026 90.2417Z" fill="black"/>
<path fill-rule="evenodd" clip-rule="evenodd" d="M58.2026 91.9736L57.1837 92.1276L53.9717 85.9373L54.4626 92.5834L53.2519 92.7566L52.541 83.4376L53.9346 83.3083L56.5835 87.6506L56.0919 82.977L57.1033 82.8037L58.2026 91.9736Z" fill="black"/>
<path fill-rule="evenodd" clip-rule="evenodd" d="M61.6832 90.9974L60.4883 91.3597L58.0044 82.5391L59.1993 82.1768L61.6832 90.9974Z" fill="black"/>
<path fill-rule="evenodd" clip-rule="evenodd" d="M64.9063 79.8193L66.4168 89.5578L65.2384 90.1387L60.0801 81.8729L61.2151 81.3951L64.8005 87.0312L63.8063 80.2978L64.9063 79.8193Z" fill="black"/>
<path fill-rule="evenodd" clip-rule="evenodd" d="M74.4864 85.3398L70.1332 87.6931L65.3936 79.5545L69.5337 77.3174L70.0603 78.2208L66.9012 79.9278L68.3711 82.4516L71.2731 80.8834L71.7997 81.7868L68.8964 83.3557L70.5876 86.259L73.9605 84.4365L74.4864 85.3398Z" fill="black"/>
<path fill-rule="evenodd" clip-rule="evenodd" d="M79.4463 81.8622L78.4886 82.6803L75.115 79.8856L74.2426 80.6756L76.5223 83.7762L75.5653 84.7786L69.9814 76.9397L71.7614 75.6651C72.3306 75.2567 73.0786 74.9652 73.7524 75.0456C75.4911 75.2526 76.2343 76.4241 76.1545 77.786C76.1298 78.2157 76.105 78.6344 75.9366 79.0606L79.4463 81.8622ZM73.4293 76.3402C72.7205 76.147 72.1622 76.6949 71.6521 77.0937L73.5076 79.5439C74.0748 79.1356 74.3388 79.0469 74.7678 78.3071C74.9535 77.4175 74.5561 76.6482 73.4293 76.3402Z" fill="black"/>
<path fill-rule="evenodd" clip-rule="evenodd" d="M82.4578 74.2938C84.4041 75.4632 83.9504 78.7811 81.3922 79.1688C80.704 79.2726 79.8948 79.065 79.547 78.845L79.9842 77.8523C80.4056 77.9465 80.8326 78.0984 81.2368 78.0221C82.8944 77.7065 82.8215 75.9843 81.8549 75.2707C81.518 75.0218 81.0361 74.9902 80.6373 75.0342C79.5188 75.1593 78.8024 75.994 77.558 76.0717C76.1975 76.1576 75.2501 75.3278 75.028 74.0037C74.9105 73.3017 75.0782 72.6211 75.4268 72.0745C76.1466 70.9477 77.6742 70.7951 78.7873 71.4517L78.3541 72.4753C77.7526 72.1557 76.6842 72.157 76.282 72.7861C76.0723 73.1154 75.9995 73.4523 76.0627 73.7953C76.2023 74.5427 76.7131 74.9765 77.4329 74.8898C78.6408 74.7427 79.4576 73.7493 80.6463 73.7878C81.2128 73.807 81.8845 73.9493 82.4578 74.2938Z" fill="black"/>
<path fill-rule="evenodd" clip-rule="evenodd" d="M86.5638 73.0846L85.8626 73.9446L77.8374 68.9128L78.5386 68.0527L86.5638 73.0846Z" fill="black"/>
<path fill-rule="evenodd" clip-rule="evenodd" d="M82.5131 62.9329L81.6248 64.5787L89.2045 69.0358L88.6937 69.9825L81.1147 65.5247L80.2265 67.1706L79.2798 66.6137L81.5664 62.376L82.5131 62.9329Z" fill="black"/>
<path fill-rule="evenodd" clip-rule="evenodd" d="M83.9031 56.6719L88.5259 60.8037L91.6127 62.1251L91.2367 63.166L88.3767 62.0591L81.7925 61.9065L82.1087 60.8519L86.7033 60.9261L83.45 57.9327L83.9031 56.6719Z" fill="black"/>
<path fill-rule="evenodd" clip-rule="evenodd" d="M20.541 79.8037C19.7235 80.6177 18.9597 81.0385 18.2516 81.0619C17.5435 81.0859 16.9027 80.8047 16.3259 80.2169C15.8007 79.6827 15.5408 79.0599 15.547 78.3476C15.5497 77.9867 15.6549 77.6154 15.8605 77.2339L16.9014 77.8698C16.8127 78.0506 16.7659 78.2225 16.7618 78.3868C16.7515 78.7746 16.8711 79.0977 17.1207 79.3527C17.472 79.7102 17.8405 79.8711 18.2262 79.8388C18.6125 79.8065 19.0821 79.5157 19.6369 78.9643L24.2645 74.3828L25.128 75.2621L20.541 79.8037Z" fill="black"/>
<path fill-rule="evenodd" clip-rule="evenodd" d="M36.2868 78.1995L33.0425 76.1865L33.3367 75.6771L34.5412 76.4257L36.471 73.0666L35.2652 72.3179L35.5278 71.8621C35.9843 72.1447 36.3473 72.3056 36.6195 72.3399C36.8897 72.3743 37.118 72.2677 37.3022 72.0127L37.9939 72.4403L35.402 76.9565L36.5797 77.6866L36.2868 78.1995ZM45.9613 76.1487C46.0129 75.8909 45.9235 75.6578 45.6918 75.4468C45.4574 75.2391 45.104 75.1009 44.6289 75.0349C44.193 74.9751 43.8239 75.0033 43.5152 75.1195C43.2051 75.2329 43.0243 75.4213 42.9707 75.6853C42.9315 75.8771 42.9707 76.0469 43.0855 76.1982C43.1989 76.3494 43.3873 76.4973 43.6485 76.6416C43.7647 76.7014 43.9394 76.7901 44.1786 76.9029C44.4158 77.0129 44.633 77.1077 44.8331 77.1792C45.2154 77.0569 45.4855 76.9091 45.6478 76.7489C45.8087 76.5825 45.9139 76.3817 45.9613 76.1487ZM45.5399 79.0548C45.5887 78.8155 45.5543 78.6209 45.4409 78.4607C45.3233 78.3006 45.0758 78.1211 44.6942 77.9197C44.5684 77.8537 44.3986 77.7753 44.1862 77.6873C43.9724 77.5986 43.7317 77.4955 43.4643 77.3793C43.1061 77.4769 42.8167 77.6151 42.5994 77.7973C42.3808 77.9795 42.2454 78.2064 42.1924 78.4704C42.1216 78.8196 42.2268 79.1242 42.5052 79.3985C42.7837 79.6694 43.1687 79.8426 43.6595 79.9079C44.1614 79.9801 44.5829 79.9361 44.9239 79.7849C45.2676 79.6309 45.4725 79.3882 45.5399 79.0548ZM43.5289 80.4827C43.0869 80.4194 42.6922 80.3225 42.3464 80.1871C42.0006 80.0516 41.7174 79.888 41.4939 79.69C41.2753 79.5016 41.1227 79.2933 41.036 79.0609C40.9494 78.8313 40.9309 78.5983 40.9776 78.359C41.0422 78.0476 41.2279 77.7801 41.5393 77.5539C41.8487 77.3277 42.2639 77.1731 42.7857 77.0851L42.7905 77.0631C42.3849 76.8369 42.0975 76.6134 41.9243 76.3872C41.7545 76.1611 41.6981 75.9026 41.7579 75.6104C41.8459 75.1731 42.1732 74.8493 42.7362 74.6321C43.302 74.4121 43.9737 74.3584 44.7506 74.4657C45.5625 74.5784 46.1834 74.8053 46.6144 75.1511C47.0469 75.4908 47.2194 75.8778 47.1335 76.302C47.0812 76.5605 46.9135 76.7997 46.6289 77.0191C46.3422 77.2391 45.9668 77.3903 45.4979 77.4687L45.4945 77.4941C45.9805 77.7237 46.336 77.9685 46.5574 78.2297C46.7808 78.491 46.8544 78.799 46.7822 79.1482C46.6818 79.6419 46.3229 80.0166 45.7021 80.2709C45.082 80.5267 44.3574 80.5996 43.5289 80.4827ZM54.7517 76.9256C54.7517 76.5296 54.6967 76.2051 54.5887 75.9569C54.4787 75.7087 54.3275 75.5162 54.1343 75.3814C53.9645 75.2549 53.7899 75.1669 53.6139 75.1202C53.4372 75.0762 53.244 75.0507 53.0315 75.0507C52.5503 75.0507 52.1667 75.1669 51.882 75.3966C51.594 75.6262 51.4524 75.9562 51.4524 76.3934C51.4524 76.6416 51.4977 76.8396 51.5926 77.0005C51.6868 77.1607 51.8387 77.2996 52.0532 77.413C52.1997 77.4914 52.3695 77.5478 52.5565 77.5766C52.7428 77.6048 52.9456 77.6179 53.1601 77.6179C53.4097 77.6179 53.6826 77.5863 53.97 77.5292C54.2615 77.4694 54.5124 77.391 54.7283 77.2968C54.7331 77.2556 54.74 77.2054 54.7441 77.1394C54.7503 77.0768 54.7517 77.0074 54.7517 76.9256ZM50.2609 76.4257C50.2609 76.1239 50.3345 75.8503 50.4789 75.6049C50.6274 75.3539 50.8267 75.1394 51.0832 74.96C51.3238 74.7868 51.6208 74.6554 51.9735 74.5571C52.3241 74.4595 52.6775 74.4127 53.0398 74.4127C53.442 74.4127 53.807 74.4568 54.1329 74.5475C54.4602 74.6362 54.7427 74.7675 54.9813 74.9373C55.2831 75.1518 55.5162 75.4316 55.6832 75.7774C55.8482 76.1267 55.9328 76.5639 55.9328 77.0954C55.9328 77.5766 55.8517 78.0359 55.688 78.4662C55.5265 78.9007 55.2886 79.2589 54.971 79.5415C54.6348 79.8433 54.2305 80.0764 53.7582 80.2338C53.2852 80.394 52.7029 80.4731 52.0092 80.4731C51.8539 80.4731 51.6868 80.4696 51.5108 80.4579C51.3348 80.4449 51.1698 80.4229 51.0165 80.3913V79.6426H51.0763C51.1746 79.6811 51.3265 79.7182 51.5355 79.7498C51.7418 79.7842 51.9535 79.8 52.168 79.8C52.9353 79.8 53.5389 79.6329 53.9769 79.2968C54.4155 78.9571 54.6637 78.4759 54.7221 77.8502C54.4093 77.9919 54.1116 78.0957 53.8284 78.1617C53.5424 78.2277 53.2344 78.2593 52.9023 78.2593C52.5764 78.2593 52.2829 78.2346 52.0154 78.1871C51.7494 78.1404 51.4805 78.0489 51.2117 77.9142C50.8969 77.754 50.661 77.5526 50.5009 77.3099C50.3407 77.0638 50.2609 76.7716 50.2609 76.4257ZM62.9797 71.4407L62.7659 77.4542L61.8439 78.0366L61.9257 72.3502L58.4126 74.0546L58.1032 73.3787L62.5204 71.0859L62.9797 71.4407Z" fill="black"/>
<path fill-rule="evenodd" clip-rule="evenodd" d="M67.3966 25.4501C66.7476 25.0142 67.2591 24.9585 67.3897 24.3061C67.5017 23.7458 67.2322 23.0424 67.4014 22.6602C67.8586 21.6296 69.1751 22.2305 69.8544 22.8884C69.9754 23.0053 70.0586 23.2934 70.1218 23.5691C70.2786 24.2552 70.4064 25.2108 69.5917 25.5718C68.8891 25.8839 67.961 25.8296 67.3966 25.4501Z" fill="black"/>
<path fill-rule="evenodd" clip-rule="evenodd" d="M59.7497 21.1335C59.7304 21.1149 59.7105 21.0957 59.6913 21.0771C59.7284 21.0001 59.7648 20.9224 59.7985 20.8571C60.0536 20.8613 62.4901 20.3697 62.5073 20.3161C63.2498 20.094 63.9531 19.7956 64.402 19.1377C62.8352 19.0366 61.1206 19.5234 59.6431 19.0573C59.0429 18.6269 58.7322 18.0844 58.3465 17.6967C58.3582 17.6623 58.3644 17.6389 58.3719 17.6163C57.8123 16.8181 57.9966 16.1526 58.9426 16.2096C60.2584 17.1075 62.8813 16.9583 64.4474 16.9831C64.8063 16.9693 65.81 17.0071 66.1593 16.8256C67.24 15.0478 67.7941 13.0526 68.6342 11.2748C69.6263 10.1418 70.1619 11.4459 70.6417 12.3521C70.7029 12.4676 70.793 12.6793 70.8583 12.9921C70.8817 12.9997 71.0625 13.9952 70.3207 14.2943C69.6016 15.045 69.0309 15.969 68.6617 17.0195C69.7102 17.2739 70.6569 16.6469 71.8126 17.0876C71.8765 17.7297 71.6613 18.169 70.9759 18.4103C69.9783 18.4763 68.9264 18.4736 67.8058 18.5265C67.1994 19.4003 66.3462 20.4261 65.3569 20.9383C65.2126 21.0132 64.5402 21.2731 64.3944 21.2951C63.6361 21.4071 62.9094 21.6223 62.1594 21.5405C60.0907 21.315 60.1024 21.2194 59.7497 21.1335Z" fill="black"/>
<path fill-rule="evenodd" clip-rule="evenodd" d="M35.3615 24.4998C34.5083 24.3465 33.5774 23.6088 33.0171 23.1434C33.0329 22.9213 33.0494 22.6992 33.081 22.4854C34.5227 20.6732 35.9727 18.9606 37.1778 16.9332C37.4721 16.047 37.908 15.0879 38.2407 14.201C38.26 14.1825 38.306 14.0904 38.2985 14.0677C38.6642 13.5905 38.8327 13.4462 39.3744 13.9302C39.5332 14.4128 38.744 15.1574 38.6326 15.7025C38.4387 16.6582 37.9272 19.0651 37.5711 19.9809C37.3435 20.5652 36.3707 23.8109 35.7795 24.3369C35.6296 24.3857 35.4948 24.4427 35.3615 24.4998Z" fill="black"/>
<path fill-rule="evenodd" clip-rule="evenodd" d="M44.3043 15.4417C43.1864 15.683 42.6873 15.0567 41.9159 14.5713C41.821 14.284 41.9523 14.0626 41.9221 13.8556C42.1826 13.7195 42.9458 13.3661 43.4401 13.2039C44.0382 12.8925 45.3754 11.3435 46.0478 11.6831C46.4829 13.0059 45.3747 14.746 44.3043 15.4417Z" fill="black"/>
<path fill-rule="evenodd" clip-rule="evenodd" d="M35.2543 15.5416C34.7346 15.279 34.2059 13.5939 34.0312 13.0645C34.0966 12.0236 35.0467 11.7363 36.0092 12.146C36.8679 12.8191 37.3911 13.0542 36.9806 14.2085C36.3963 15.0638 36.0704 15.1965 35.2543 15.5416Z" fill="black"/>
<path fill-rule="evenodd" clip-rule="evenodd" d="M43.2328 12.5721C42.9818 12.0812 43.4081 10.7818 43.1331 10.5667C42.876 10.6767 42.6271 10.8478 42.3507 10.9386C41.6013 10.7901 40.6588 10.1707 40.7605 9.47422C41.1077 8.78672 40.9537 8.97715 41.7127 8.72828C42.3576 8.2099 43.0059 7.7039 43.6666 7.19378C44.847 6.63897 45.595 7.1704 45.9883 8.36596C45.9738 9.2109 45.6108 9.96784 45.2595 10.7207C44.6951 11.2507 44.2028 11.8069 43.7071 12.3521C43.5394 12.4202 43.3861 12.4958 43.2328 12.5721Z" fill="black"/>
<path fill-rule="evenodd" clip-rule="evenodd" d="M35.5244 10.8275C35.2034 10.666 35.2811 10.5134 35.3581 10.2452C35.1917 9.73991 34.7758 9.4051 34.6169 8.92179C34.5475 7.97648 34.289 7.69254 34.9229 7.06348C35.5691 7.16935 37.8633 7.67604 37.6784 8.93416C37.3078 9.78185 36.3027 10.5202 35.5244 10.8275Z" fill="black"/>
<path fill-rule="evenodd" clip-rule="evenodd" d="M19.9207 44.8889C18.9417 45.6224 16.9919 45.1556 16.688 43.8329C16.4735 42.8985 15.2876 40.2668 14.7809 38.8464C14.5258 38.4037 14.2295 38.0627 14.3938 37.5601C14.7225 37.4632 15.1102 37.8131 15.4038 38.0833C15.5516 38.0407 15.7805 37.6735 15.7627 37.4247C15.6891 36.3886 15.6506 35.2549 15.465 34.2305C15.1962 34.0154 14.928 33.7995 14.6757 33.5795C14.5004 34.1047 13.9078 35.8214 13.2897 34.9332C13.4231 34.2333 13.4753 33.0769 13.0608 32.3963C12.5383 31.8635 11.8033 31.5177 11.5586 30.9292C11.6267 30.098 12.891 29.8505 13.65 30.1537C14.2557 30.1805 14.1979 29.0468 14.9555 30.8934C14.9823 31.1973 15.2848 31.376 15.6258 31.5349C15.6767 31.4661 15.7283 31.3974 15.7798 31.3286C15.7324 30.5311 15.6822 29.6628 15.718 28.8144C14.9425 28.0877 14.2921 27.4848 13.815 26.591C13.7813 25.7179 14.7534 25.1734 15.6038 24.8792C15.8644 24.4014 15.852 23.9943 15.8087 23.3921C15.8589 23.1989 15.8589 23.1989 16.0542 22.8916C16.3518 22.9019 16.6028 22.9975 16.9424 23.1831C17.6588 24.0425 16.3312 26.8062 17.6904 26.9678C17.9455 26.5003 17.5502 26.0369 17.3253 25.6657C17.3762 24.9912 18.3827 24.1057 19.1018 23.8225C20.1847 23.6829 20.1413 24.2934 20.1833 25.2257C20.239 25.3528 20.2933 25.4787 20.3545 25.5949C21.7666 26.5443 21.7666 26.5443 23.7266 27.7515C24.3358 28.2761 24.4018 29.1451 24.4636 29.4077C24.5028 29.5741 24.7868 30.8109 24.1495 30.9182C22.5442 29.9185 20.9437 28.7842 19.3844 27.878C19.3672 27.9097 19.3603 27.9475 19.359 27.9743C20.063 28.5793 21.0365 30.2815 21.099 31.2537C20.7512 31.891 20.0698 32.1811 19.436 32.0285C19.317 31.8669 19.3548 31.7225 19.3239 31.5266C18.8323 30.7346 17.4608 30.0141 16.7616 29.5775C16.5203 30.1214 17.1198 31.6751 17.3082 32.3152C17.3487 32.696 17.3893 33.0755 17.4353 33.4461C17.9193 34.0002 18.4157 34.5049 18.9533 35.0604C19.1534 35.3759 19.3638 35.6977 19.5742 36.0194C19.557 36.0517 19.5453 36.0724 19.5336 36.0937C19.7818 36.5735 20.338 37.9795 19.405 38.0228C19.3095 37.9705 19.2242 37.9238 19.1452 37.8667C18.8248 37.14 18.2294 36.3618 17.5997 35.9486C17.4161 36.6897 17.7055 37.4755 17.3714 38.0847C17.1672 38.458 16.7657 38.645 16.4804 38.7639C16.1779 38.8904 15.9861 38.9557 15.9662 39.0685C16.2412 39.3978 16.556 39.7092 16.8187 40.0571C17.8637 41.441 18.7512 42.8064 19.944 44.1326C20.032 44.508 20.0176 44.6104 19.9207 44.8889Z" fill="black"/>
<path fill-rule="evenodd" clip-rule="evenodd" d="M13.0626 38.8872C12.6666 38.9051 12.4507 38.4431 12.1386 38.2314C11.0434 37.9646 10.2218 37.7783 9.82031 36.7195C9.86225 36.6178 9.91381 36.5222 9.96606 36.4267C10.5216 36.1915 11.5673 36.0176 12.2733 35.9619C13.6291 36.2053 13.2379 37.9075 13.0626 38.8872Z" fill="black"/>
<path fill-rule="evenodd" clip-rule="evenodd" d="M10.1071 35.8141C9.88369 35.9956 9.83625 35.9557 9.72831 35.9516C9.575 35.7027 9.51106 35.5164 9.26012 35.4208C8.0625 35.4428 6.78787 34.5965 6.96181 33.3679C7.1715 33.1101 7.40937 33.2538 7.87137 33.3679C8.871 33.1273 10.3498 32.4378 10.4784 34.0541C10.3917 34.6467 10.2357 35.2503 10.1071 35.8141Z" fill="black"/>
<path fill-rule="evenodd" clip-rule="evenodd" d="M78.4852 32.8109C77.9723 31.8519 79.3122 30.7718 79.9214 30.4033C80.8007 30.5903 80.8048 32.0059 80.2177 32.681C79.3906 33.2454 79.295 33.3548 78.4852 32.8109Z" fill="black"/>
<path fill-rule="evenodd" clip-rule="evenodd" d="M76.9575 42.3703C76.9452 42.3284 76.9431 42.2947 76.9335 42.2693C75.9284 41.3961 75.1144 40.4158 74.563 39.2786C74.598 39.1645 74.5981 39.1645 74.7005 39.0456C75.487 39.2477 76.116 40.0191 77.0139 39.8699C77.4787 39.52 77.8692 39.2188 78.1765 38.8283C77.181 37.9628 76.026 38.1291 75.0154 37.6678C74.3402 37.0807 73.7751 35.3874 74.0872 34.6965C74.8964 33.8763 74.7025 34.4132 75.6334 35.2231C76.8585 36.0639 78.4927 36.4901 79.9379 37.0415C80.3105 37.0924 80.3105 37.0924 80.4782 37.1577C81.3727 36.7012 81.649 36.7335 82.4947 37.2911C82.9072 37.4251 82.9072 37.4251 84.1983 37.7304C84.2973 37.672 84.3956 37.6135 84.5036 37.5633C83.1341 36.5005 81.163 36.5183 79.537 36.2117C78.921 35.8686 78.633 35.4252 78.4446 34.9412C78.2006 34.7604 76.7678 33.7718 77.8375 33.868C78.3415 34.0818 78.8743 34.0956 79.4291 34.306C80.9588 34.594 82.5469 35.109 84.1027 35.5153C84.2457 35.351 84.2698 35.2121 84.2829 35.142C84.4919 34.9385 84.6328 34.869 84.848 34.768C84.5998 34.6483 84.5606 34.5816 84.3881 34.6889C83.5424 34.3706 82.7649 34.6566 82.8281 33.6054C82.186 33.9931 81.4655 33.9925 80.9176 33.516C80.657 32.7281 81.5122 31.8365 81.8202 31.3339C81.8312 31.248 82.0939 30.8341 82.3393 30.2944C82.5806 29.5739 82.6755 28.5976 83.4022 28.4443C84.0037 28.5825 84.2402 28.643 84.0567 29.4625C84.1247 29.9376 84.19 30.8451 84.1041 31.2528C83.9659 31.9086 83.7267 32.8471 83.1203 33.3785C83.5569 33.4851 84.265 33.5559 84.4066 33.0059C84.1949 32.3081 84.87 32.141 85.3437 32.2971C85.5575 32.5308 85.5575 32.5308 85.8751 32.7921C85.9782 32.6731 85.9693 32.6649 85.9776 32.5446C85.728 32.0393 85.8895 32.0186 86.2952 31.811C86.0133 31.2129 86.3041 30.5838 86.7984 30.4209C88.3996 31.3641 88.3996 31.3641 89.1909 31.7629C90.084 31.6584 91.8625 30.7186 92.3878 31.7375C92.3472 32.2634 92.0406 32.911 91.5222 33.3414C91.2211 33.448 90.9145 33.4871 90.6532 33.6769C90.735 33.7484 90.81 33.8288 90.8836 33.9093C91.6824 34.1712 92.2441 34.097 91.7725 35.2114C92.0159 36 92.273 36.1113 91.3339 36.6744C90.2119 37.0615 89.0053 37.4719 87.8372 37.8198C87.796 37.848 87.7554 37.8768 87.7238 37.9133C87.8001 38.0281 87.8771 38.1429 87.9459 38.2666C87.6647 38.664 87.257 39.0958 86.8397 39.5021C86.0449 39.6602 85.6393 39.2601 85.0597 38.8208C84.0849 38.5025 83.2317 38.1931 82.2541 37.9525C82.1337 38.0728 81.9949 38.1766 81.8986 38.3973C82.2197 38.6929 82.5421 39.0043 82.8639 39.3165C82.9897 39.8912 82.329 40.5038 81.7398 40.6646C81.3321 40.3587 81.0715 40.1965 80.6515 40.072C80.4473 40.2143 80.2424 40.3573 80.0307 40.51C79.3899 41.2146 78.1222 43.207 76.9575 42.3703ZM87.2391 35.9484C87.2274 35.9058 87.2171 35.881 87.2068 35.8563C87.7644 35.3626 87.9307 35.1708 87.3539 34.7652C87.1937 34.8023 86.8899 34.8752 86.8837 34.6779C86.8768 34.4655 87.8998 34.2296 88.0559 34.1416C88.348 34.3953 88.7764 34.88 88.8114 35.3757C88.4065 35.8405 87.873 35.9381 87.2391 35.9484Z" fill="black"/>
</svg>
