<svg width="240" height="80" viewBox="0 0 240 80" fill="none" xmlns="http://www.w3.org/2000/svg">
<path d="M76.1458 39.9401C76.1431 39.5486 76.2183 39.1605 76.3669 38.7983C76.5155 38.4361 76.7345 38.107 77.0114 37.8301C77.2882 37.5533 77.6173 37.3342 77.9795 37.1856C78.3417 37.037 78.7298 36.9619 79.1213 36.9646C79.0867 35.4061 78.8655 33.8573 78.4623 32.3515C77.7197 32.4815 76.9549 32.3545 76.2942 31.9915C75.6335 31.6284 75.1162 31.051 74.8278 30.3545C74.7014 29.6122 74.83 28.849 75.1926 28.189C75.5552 27.5291 76.1305 27.0113 76.8248 26.7199C76.1657 25.0624 75.8263 23.7444 75.1672 22.4264C74.4931 22.7699 73.7174 22.858 72.9834 22.6745C72.2494 22.491 71.6064 22.0482 71.1732 21.4279C70.8339 20.7528 70.7481 19.9785 70.9314 19.2456C71.1146 18.5126 71.5547 17.8698 72.1717 17.4338C71.2622 16.1572 70.2682 14.943 69.1962 13.7993C68.647 14.2905 67.936 14.5621 67.1992 14.5621C66.4624 14.5621 65.7514 14.2905 65.2022 13.7993C64.715 13.2481 64.4462 12.5379 64.4462 11.8023C64.4462 11.0667 64.715 10.3565 65.2022 9.80529C63.8842 8.80679 62.8857 7.80829 61.5676 6.82976C61.3873 7.17423 61.136 7.47664 60.8305 7.7171C60.5249 7.95756 60.1719 8.13064 59.7946 8.22495C59.4174 8.31925 59.0245 8.33266 58.6417 8.2643C58.2589 8.19593 57.8949 8.04733 57.5736 7.82826C57.2292 7.64788 56.9268 7.39664 56.6863 7.09106C56.4458 6.78548 56.2728 6.43247 56.1784 6.05524C56.0841 5.678 56.0707 5.28508 56.1391 4.90229C56.2075 4.5195 56.3561 4.15551 56.5751 3.83425C55.2033 3.13875 53.7649 2.58343 52.2816 2.17673C52.186 2.55377 52.0139 2.9071 51.7759 3.21478C51.5379 3.52245 51.2392 3.77788 50.8983 3.96518C50.5574 4.15248 50.1817 4.26765 49.7944 4.30353C49.4071 4.33941 49.0165 4.29523 48.647 4.17374C48.2715 4.07556 47.92 3.90187 47.6139 3.66329C47.3078 3.4247 47.0535 3.12622 46.8666 2.78608C46.6797 2.44593 46.5641 2.07126 46.5269 1.68494C46.4897 1.29863 46.5316 0.908774 46.65 0.539191C45.1876 0.209741 43.6955 0.0290904 42.1967 0C42.1967 0.794458 41.8811 1.55638 41.3193 2.11814C40.7576 2.67991 39.9957 2.99551 39.2012 2.99551C38.4067 2.99551 37.6448 2.67991 37.0831 2.11814C36.5213 1.55638 36.2057 0.794458 36.2057 0C34.6471 0.0338224 33.0983 0.255084 31.5926 0.659011C31.7929 1.40545 31.6969 2.20041 31.3247 2.87773C30.9526 3.55506 30.333 4.06235 29.5956 4.29356C29.2479 4.41154 28.8786 4.45201 28.5137 4.41212C28.1487 4.37223 27.7969 4.25296 27.4829 4.06266C27.1689 3.87236 26.9003 3.61566 26.6961 3.31056C26.4918 3.00547 26.3568 2.65937 26.3005 2.29656C24.643 2.95557 23.325 3.29506 22.007 3.95407C22.3463 4.62908 22.4321 5.40343 22.2489 6.13636C22.0656 6.86929 21.6255 7.51214 21.0085 7.94808C20.3343 8.29159 19.5587 8.37972 18.8246 8.19621C18.0906 8.0127 17.4477 7.56993 17.0145 6.94958C15.7839 7.88327 14.6165 8.8973 13.5197 9.98502C14.0069 10.5362 14.2758 11.2464 14.2758 11.982C14.2758 12.7176 14.0069 13.4279 13.5197 13.979C12.9705 14.4702 12.2595 14.7418 11.5227 14.7418C10.7859 14.7418 10.0749 14.4702 9.52571 13.979C8.52721 15.2971 7.52871 16.2956 6.55017 17.6136C6.89465 17.794 7.19706 18.0452 7.43752 18.3508C7.67798 18.6564 7.85106 19.0094 7.94536 19.3866C8.03967 19.7638 8.05308 20.1568 7.98471 20.5395C7.91635 20.9223 7.76774 21.2863 7.54868 21.6076C7.3683 21.9521 7.11706 22.2545 6.81148 22.4949C6.5059 22.7354 6.15289 22.9085 5.77566 23.0028C5.39842 23.0971 5.0055 23.1105 4.62271 23.0421C4.23992 22.9738 3.87593 22.8252 3.55467 22.6061C2.9037 23.9307 2.38207 25.3151 1.997 26.7399C2.37249 26.8381 2.72402 27.0118 3.03013 27.2503C3.33624 27.4889 3.5905 27.7874 3.7774 28.1276C3.96429 28.4677 4.07989 28.8424 4.11713 29.2287C4.15437 29.615 4.11248 30.0049 3.99401 30.3744C3.91996 30.7281 3.774 31.0627 3.56519 31.3576C3.35638 31.6525 3.08918 31.9013 2.78018 32.0885C2.47118 32.2758 2.12698 32.3976 1.76896 32.4462C1.41093 32.4949 1.04673 32.4694 0.698952 32.3714C0.306869 33.874 0.0726175 35.4134 0 36.9646C0.794458 36.9646 1.55638 37.2801 2.11814 37.8419C2.67991 38.4037 2.99551 39.1656 2.99551 39.9601C2.99551 40.7545 2.67991 41.5164 2.11814 42.0782C1.55638 42.64 0.794458 42.9556 0 42.9556C0.0377621 44.5007 0.258983 46.0358 0.659011 47.5287C1.3606 47.3597 2.10054 47.4748 2.7177 47.8488C3.33485 48.2228 3.77923 48.8256 3.95407 49.5257C4.15434 50.2721 4.05836 51.0671 3.6862 51.7444C3.31405 52.4218 2.6945 52.929 1.95706 53.1603H1.997C2.65602 54.8178 2.99551 56.1358 3.65452 57.4538C4.32868 57.1103 5.10432 57.0222 5.83837 57.2057C6.57241 57.3892 7.21533 57.832 7.64853 58.4523C7.98781 59.1273 8.07364 59.9017 7.89041 60.6346C7.70718 61.3675 7.26705 62.0104 6.65002 62.4463C7.55952 63.723 8.5536 64.9372 9.62556 66.0809C10.1748 65.5897 10.8857 65.3181 11.6226 65.3181C12.3594 65.3181 13.0704 65.5897 13.6196 66.0809C14.1067 66.632 14.3756 67.3423 14.3756 68.0779C14.3756 68.8135 14.1067 69.5237 13.6196 70.0749C14.9376 71.0734 15.9361 72.0719 17.2541 73.0504C17.4345 72.7059 17.6857 72.4035 17.9913 72.1631C18.2969 71.9226 18.6499 71.7495 19.0271 71.6552C19.4044 71.5609 19.7973 71.5475 20.1801 71.6159C20.5629 71.6842 20.9269 71.8329 21.2481 72.0519C21.8824 72.4735 22.3363 73.1167 22.521 73.8555C22.7057 74.5943 22.6079 75.3755 22.2466 76.0459C23.6184 76.7414 25.0569 77.2967 26.5402 77.7034C26.6142 77.3498 26.7602 77.0151 26.969 76.7203C27.1778 76.4254 27.445 76.1766 27.754 75.9893C28.063 75.8021 28.4072 75.6803 28.7652 75.6316C29.1233 75.583 29.4875 75.6084 29.8352 75.7064C30.2107 75.8046 30.5623 75.9783 30.8684 76.2169C31.1745 76.4555 31.4287 76.754 31.6156 77.0941C31.8025 77.4342 31.9181 77.8089 31.9554 78.1952C31.9926 78.5816 31.9507 78.9714 31.8322 79.341C33.3426 79.7217 34.8888 79.9426 36.4453 80C36.4453 79.2055 36.7609 78.4436 37.3227 77.8819C37.8845 77.3201 38.6464 77.0045 39.4408 77.0045C40.2353 77.0045 40.9972 77.3201 41.559 77.8819C42.1207 78.4436 42.4363 79.2055 42.4363 80C43.9929 79.9426 45.5391 79.7217 47.0494 79.341C46.9231 78.5987 47.0517 77.8355 47.4143 77.1756C47.7769 76.5156 48.3521 75.9979 49.0464 75.7064C49.7929 75.5062 50.5878 75.6021 51.2652 75.9743C51.9425 76.3465 52.4498 76.966 52.681 77.7034C54.3385 77.0444 55.6565 76.7049 56.9745 76.0459C56.7792 75.7207 56.6497 75.3603 56.5937 74.985C56.5376 74.6098 56.556 74.2273 56.6478 73.8592C56.7396 73.4911 56.903 73.1447 57.1287 72.8397C57.3543 72.5348 57.6379 72.2773 57.9631 72.0819C58.2882 71.8865 58.6487 71.7571 59.0239 71.701C59.3991 71.645 59.7817 71.6634 60.1498 71.7551C60.5179 71.8469 60.8643 72.0103 61.1693 72.236C61.4742 72.4617 61.7317 72.7452 61.9271 73.0704C63.1072 72.0862 64.2212 71.0255 65.2621 69.8952C64.7325 69.3655 64.4349 68.6472 64.4349 67.8981C64.4349 67.1491 64.7325 66.4308 65.2621 65.9011C65.7917 65.3715 66.5101 65.074 67.2591 65.074C68.0081 65.074 68.7265 65.3715 69.2561 65.9011C70.2546 64.5831 71.2531 63.5846 72.2316 62.2666C71.6302 61.8466 71.2105 61.2139 71.0575 60.4964C70.9045 59.7789 71.0296 59.0301 71.4074 58.4012C71.7852 57.7724 72.3876 57.3104 73.093 57.1086C73.7983 56.9068 74.5539 56.9802 75.2072 57.314C75.9022 55.942 76.4575 54.5036 76.8647 53.0205C76.1206 52.8007 75.4942 52.2943 75.1234 51.6126C74.7527 50.931 74.6679 50.1301 74.8877 49.3859C75.1075 48.6418 75.6139 48.0154 76.2955 47.6447C76.9771 47.2739 77.7781 47.1891 78.5222 47.4089C78.8617 45.7514 78.8617 44.4333 79.1812 42.7958C78.4006 42.8173 77.6432 42.5291 77.0745 41.994C76.5057 41.4589 76.1719 40.7205 76.1458 39.9401ZM36.9246 31.9521H30.654V24.3635C30.6161 24.1125 30.4968 23.881 30.3145 23.7044C30.3145 23.365 29.975 23.365 29.6555 23.0454C29.5252 22.9176 29.3677 22.8208 29.1949 22.762C29.0221 22.7033 28.8382 22.6841 28.657 22.7059C28.4758 22.6841 28.292 22.7033 28.1191 22.762C27.9463 22.8208 27.7889 22.9176 27.6585 23.0454L26.9995 23.7044C26.9616 23.9554 26.8423 24.1869 26.66 24.3635V55.4568C26.6153 55.9224 26.7355 56.3888 26.9995 56.7748C27.2058 57.0056 27.4629 57.1853 27.7506 57.2997C28.0382 57.4141 28.3486 57.46 28.657 57.4338C29.2307 57.4835 29.8065 57.3655 30.3145 57.0944C30.5153 56.9373 30.6786 56.7376 30.7926 56.5096C30.9066 56.2816 30.9684 56.0312 30.9735 55.7763V47.1892H28.3575V41.5976H36.9246V55.4568C37.0164 56.5387 36.8866 57.628 36.5433 58.658C36.1999 59.6881 35.6502 60.6374 34.9276 61.4478C34.1171 62.1704 33.1679 62.7201 32.1378 63.0635C31.1078 63.4069 30.0185 63.5366 28.9366 63.4448C27.8107 63.5519 26.6749 63.4302 25.5973 63.087C24.5197 62.7438 23.5226 62.1863 22.666 61.4478C21.9286 60.5906 21.3716 59.5935 21.0285 58.516C20.6853 57.4386 20.5631 56.303 20.669 55.1772V25.2222C20.5948 24.073 20.7627 22.9212 21.1617 21.841C21.5608 20.7608 22.1821 19.7765 22.9855 18.9516C23.7915 18.1219 24.7731 17.4832 25.8582 17.0823C26.9432 16.6814 28.1043 16.5286 29.2561 16.635C30.408 16.5286 31.569 16.6814 32.6541 17.0823C33.7391 17.4832 34.7207 18.1219 35.5267 18.9516C37.0225 20.6508 37.8773 22.8195 37.9431 25.0824V31.9521H36.9246ZM51.7624 62.9855L50.4244 51.9221H46.4304L45.1123 63.1453H38.5222L44.8327 16.8347H52.4214L58.692 63.0454L51.7624 62.9855ZM48.4673 46.1508C48.9887 46.1508 49.4983 45.9962 49.9318 45.7065C50.3653 45.4169 50.7032 45.0052 50.9027 44.5235C51.1022 44.0418 51.1544 43.5118 51.0527 43.0005C50.951 42.4891 50.6999 42.0194 50.3313 41.6508C49.9626 41.2821 49.4929 41.031 48.9816 40.9293C48.4702 40.8276 47.9402 40.8798 47.4585 41.0793C46.9769 41.2789 46.5652 41.6167 46.2755 42.0502C45.9859 42.4837 45.8313 42.9934 45.8313 43.5147C45.8233 43.8642 45.8849 44.2118 46.0126 44.5373C46.1403 44.8627 46.3314 45.1595 46.5748 45.4104C46.8183 45.6613 47.1092 45.8613 47.4307 45.9987C47.7522 46.1361 48.0977 46.2081 48.4473 46.2107L48.4673 46.1508Z" fill="black"/>
<path d="M99.5509 4.61266C100.789 4.64087 102.016 4.86325 103.185 5.27168C104.182 5.62176 105.089 6.18776 105.841 6.92919C106.601 7.60772 107.072 8.55066 107.159 9.56523C107.452 10.6377 107.566 11.7508 107.499 12.8603L101.508 13.8588C101.49 13.043 101.263 12.2454 100.849 11.5423C100.695 11.2366 100.457 10.9807 100.164 10.8041C99.8709 10.6274 99.5337 10.5372 99.1914 10.5438C99.0102 10.5219 98.8264 10.5411 98.6536 10.5999C98.4807 10.6586 98.3233 10.7555 98.1929 10.8833L97.5339 11.5423C97.496 11.7932 97.3767 12.0247 97.1944 12.2013V29.036C97.1498 29.5016 97.2699 29.968 97.5339 30.354C97.691 30.5548 97.8907 30.7181 98.1187 30.8321C98.3466 30.9461 98.5971 31.0079 98.852 31.0131C99.511 31.0131 99.8505 31.0131 100.17 30.6736C100.371 30.5165 100.534 30.3168 100.648 30.0888C100.762 29.8609 100.824 29.6104 100.829 29.3555V24.4229H98.832V19.1509H107.08V29.1359C107.171 30.2178 107.042 31.307 106.698 32.3371C106.355 33.3672 105.805 34.3164 105.083 35.1269C104.272 35.8495 103.323 36.3992 102.293 36.7426C101.263 37.0859 100.173 37.2157 99.0916 37.1239C97.9657 37.231 96.8299 37.1093 95.7523 36.7661C94.6747 36.4229 93.6776 35.8653 92.821 35.1269C92.0984 34.3164 91.5487 33.3672 91.2053 32.3371C90.862 31.307 90.7322 30.2178 90.824 29.1359V13.1998C90.7322 12.1179 90.862 11.0286 91.2053 9.99855C91.5487 8.96848 92.0984 8.01923 92.821 7.20877C93.6824 6.3072 94.7323 5.60701 95.8957 5.15823C97.0591 4.70945 98.3072 4.52316 99.5509 4.61266Z" fill="black"/>
<path d="M110.435 36.6456V4.95312H124.933V10.9042H116.686V17.4943H123.935V23.4454H116.686V30.6945H124.933V36.6456H110.435Z" fill="black"/>
<path d="M138.772 19.8108V4.95312H145.043V36.6456H139.771L136.136 27.3995L133.84 21.4484H133.5V36.6456H127.229V4.95312H132.841L136.476 14.1993L138.772 19.8108Z" fill="black"/>
<path d="M147.999 36.6456V4.95312H162.517V10.9042H154.27V17.4943H161.519V23.4454H154.27V30.6945H162.517V36.6456H147.999Z" fill="black"/>
<path d="M172.722 4.95148C173.943 4.88386 175.168 4.99827 176.356 5.29097C177.415 5.71426 178.415 6.27129 179.332 6.94849C180.149 7.83012 180.822 8.8341 181.329 9.92402C181.734 11.3205 181.955 12.7639 181.988 14.2176C182.072 16.0289 181.73 17.8347 180.989 19.4897C180.397 20.7897 179.483 21.9171 178.333 22.7648L182.946 36.624H176.676L173.041 24.4023H171.743V36.624H165.473V4.95148H172.722ZM171.404 10.9425V18.5311H173.74C174.08 18.5311 174.399 18.1916 174.739 17.8721C174.94 17.7151 175.103 17.5153 175.217 17.2874C175.331 17.0594 175.393 16.8089 175.398 16.5541C175.672 15.9262 175.789 15.2405 175.737 14.5571C175.765 14.0777 175.686 13.5981 175.507 13.1527C175.327 12.7073 175.051 12.3072 174.699 11.9809C174.409 11.6561 174.051 11.3984 173.651 11.226C173.251 11.0535 172.818 10.9704 172.382 10.9824L171.404 10.9425Z" fill="black"/>
<path d="M194.808 30.375H189.876L188.877 36.6456H182.287L188.278 4.95312H195.707L201.978 36.6456H195.387L194.808 30.375ZM191.513 19.4713L190.854 24.4239H193.83L193.171 19.4713L192.512 13.2008H192.172L191.513 19.4713Z" fill="black"/>
<path d="M203.715 36.6456V4.95312H209.965V30.6945H218.213V36.6456H203.715Z" fill="black"/>
<path d="M101.528 68.3169H96.9151L95.8567 74.6075H89.2666L95.2576 42.915H102.846L109.117 74.6075H102.527L101.528 68.3169ZM98.5527 57.4333L97.8537 62.3858H100.829L100.17 57.4333L99.5112 51.1627H99.1717L98.5527 57.4333Z" fill="black"/>
<path d="M126.571 65.3611C126.624 66.7013 126.51 68.0431 126.231 69.3551C126.063 70.4462 125.608 71.473 124.913 72.3306C124.256 73.2468 123.337 73.943 122.277 74.3276C120.991 74.7667 119.642 74.9894 118.283 74.9866C117.044 74.9584 115.818 74.736 114.648 74.3276C113.659 73.9749 112.759 73.4091 112.012 72.6701C111.383 71.8551 110.952 70.9047 110.754 69.8943C110.462 68.8218 110.347 67.7087 110.415 66.5992L116.685 65.2812C116.711 66.1909 116.936 67.0838 117.344 67.8973C117.461 68.2306 117.691 68.5126 117.993 68.6949C118.296 68.8772 118.653 68.9482 119.002 68.8958C119.183 68.9176 119.367 68.8984 119.54 68.8397C119.713 68.7809 119.87 68.6841 120 68.5563L120.659 67.8973C120.659 67.5578 120.999 67.2382 120.999 66.5792V63.7035C120.999 63.3641 120.659 63.0445 120.659 62.705C120.32 62.3656 120 62.046 119.661 62.046C119.321 61.7065 118.662 61.7065 118.343 61.387C117.023 60.9411 115.792 60.265 114.708 59.39C113.779 58.7927 112.989 58.0027 112.392 57.0735C111.788 56.4483 111.434 55.6248 111.393 54.757C111.393 53.7585 111.054 53.0995 111.054 51.7814C110.987 50.5598 111.101 49.335 111.393 48.1469C111.692 47.0987 112.136 46.0972 112.711 45.1713C113.528 44.4275 114.41 43.7591 115.347 43.1743C117.934 42.2765 120.748 42.2765 123.335 43.1743C124.334 43.8334 125.332 44.1728 125.652 45.1713C126.278 45.9806 126.709 46.9238 126.91 47.9272C127.166 48.7816 127.28 49.672 127.249 50.5633L120.979 51.9212V50.6032C121.001 50.422 120.982 50.2381 120.923 50.0653C120.864 49.8925 120.767 49.7351 120.639 49.6047C120.626 49.4345 120.552 49.2747 120.431 49.1539C120.31 49.0332 120.151 48.9594 119.98 48.9457C119.694 48.7255 119.343 48.606 118.982 48.606C118.621 48.606 118.27 48.7255 117.983 48.9457L117.324 49.6047C117.324 49.9442 116.985 50.2637 116.985 50.6032V52.6002C116.985 52.9397 117.324 53.2592 117.324 53.5987L118.323 54.5972C118.911 55.0662 119.592 55.4064 120.32 55.5957C121.569 56.1909 122.782 56.8577 123.954 57.5927C124.78 58.0765 125.468 58.7641 125.951 59.5897C126.338 60.4469 126.672 61.3273 126.95 62.2258C126.661 63.2448 126.533 64.3026 126.571 65.3611Z" fill="black"/>
<path d="M145.043 65.3621C145.097 66.7024 144.983 68.0442 144.704 69.3561C144.536 70.4472 144.081 71.4741 143.386 72.3317C142.728 73.2479 141.809 73.944 140.75 74.3287C139.464 74.7678 138.114 74.9905 136.756 74.9877C135.517 74.9595 134.291 74.7371 133.121 74.3287C132.132 73.976 131.232 73.4101 130.485 72.6712C129.849 71.858 129.411 70.9075 129.207 69.8953C128.915 68.8229 128.8 67.7098 128.867 66.6003L135.138 65.2823C135.164 66.1919 135.389 67.0849 135.797 67.8983C135.914 68.2316 136.143 68.5137 136.446 68.696C136.749 68.8783 137.105 68.9493 137.455 68.8968C137.636 68.9187 137.82 68.8995 137.992 68.8407C138.165 68.782 138.323 68.6851 138.453 68.5574L139.112 67.8983C139.112 67.5588 139.452 67.2393 139.452 66.5803V63.7046C139.452 63.3651 139.112 63.0456 139.112 62.7061C138.773 62.3666 138.453 62.0471 138.114 62.0471C137.774 61.7076 137.115 61.7076 136.795 61.3881C135.476 60.9422 134.245 60.2661 133.161 59.3911C132.232 58.7938 131.442 58.0038 130.844 57.0746C130.241 56.4494 129.886 55.6259 129.846 54.758C129.846 53.7595 129.506 53.1005 129.506 51.7825C129.431 50.5761 129.531 49.3651 129.806 48.1879C130.105 47.1397 130.549 46.1382 131.124 45.2124C131.941 44.4685 132.823 43.8001 133.76 43.2154C136.347 42.3175 139.161 42.3175 141.748 43.2154C142.747 43.8744 143.745 44.2139 144.065 45.2124C144.7 46.0062 145.144 46.9354 145.363 47.9283C145.639 48.7591 145.781 49.6288 145.782 50.5044L139.432 51.9223V50.6043C139.453 50.423 139.434 50.2392 139.375 50.0664C139.317 49.8936 139.22 49.7361 139.092 49.6058C139.078 49.4356 139.005 49.2758 138.884 49.155C138.763 49.0343 138.603 48.9604 138.433 48.9468C138.147 48.7265 137.796 48.6071 137.435 48.6071C137.073 48.6071 136.722 48.7265 136.436 48.9468L135.777 49.6058C135.777 49.9453 135.438 50.2648 135.438 50.6043V52.6013C135.438 52.9408 135.777 53.2603 135.777 53.5998L136.776 54.5983C137.364 55.0673 138.044 55.4075 138.773 55.5968C140.021 56.192 141.235 56.8587 142.407 57.5938C143.233 58.0776 143.92 58.7652 144.404 59.5908C144.791 60.448 145.125 61.3284 145.403 62.2268C145.121 63.2469 144.999 64.3047 145.043 65.3621Z" fill="black"/>
<path d="M147.679 74.5875V42.915H162.177V48.8461H153.929V55.4562H161.198V61.3873H153.929V68.6564H162.177V74.5875H147.679Z" fill="black"/>
<path d="M173.38 68.3369L172.062 64.3629L170.744 59.7498H170.425V74.5875H164.154V42.915H170.085L173.38 51.5022L175.697 57.7728H176.017L178.333 51.5022L181.289 43.2346H187.22V74.927H180.969V60.0693H180.63L178.992 65.0219L177.674 68.6564H173.38V68.3369Z" fill="black"/>
<path d="M202.397 58.0918C202.992 58.3486 203.549 58.6845 204.055 59.0903C204.573 59.5075 204.926 60.0947 205.053 60.7478C205.421 61.3551 205.646 62.0379 205.712 62.7448C205.712 63.4038 206.052 64.0628 206.052 64.7418C206.281 67.4692 205.436 70.1783 203.695 72.2905C202.824 73.1221 201.786 73.7588 200.649 74.1582C199.513 74.5576 198.305 74.7106 197.105 74.607H190.195V42.9146H197.444C198.594 42.7766 199.759 42.9128 200.846 43.3119C201.932 43.7111 202.909 44.3619 203.695 45.2111C205.159 47.1284 205.869 49.5155 205.692 51.9211C205.744 52.6045 205.627 53.2901 205.353 53.9181C205.343 54.5325 205.108 55.1221 204.694 55.5756C204.444 56.0722 204.106 56.5189 203.695 56.8936C203.436 57.482 202.965 57.9522 202.377 58.2116L202.397 58.0918ZM199.701 51.9211C199.723 50.999 199.495 50.0882 199.042 49.285C198.361 48.8222 197.548 48.5912 196.726 48.626H196.067V54.8966H196.726C198.709 55.1629 199.701 54.171 199.701 51.9211ZM200.041 64.4622C200.113 63.5353 199.882 62.6098 199.382 61.8262C199.042 61.1672 198.383 61.1672 197.385 61.1672H196.386V68.7558H197.385C198.044 68.7558 198.383 68.7558 198.703 68.4163L199.701 67.4178C199.965 67.0318 200.085 66.5653 200.041 66.0998V64.4622Z" fill="black"/>
<path d="M209.306 74.5875V42.915H215.577V68.6564H223.824V74.5875H209.306Z" fill="black"/>
<path d="M230.735 54.4577L231.733 49.1856L233.051 42.915H239.641L233.371 61.7268V74.5875H227.12V61.7268L220.85 42.915H227.44L229.097 49.1856L230.735 54.4577Z" fill="black"/>
</svg>
