<?xml version="1.0" encoding="UTF-8"?>
<svg width="74px" height="142px" viewBox="0 0 74 142" version="1.1" xmlns="http://www.w3.org/2000/svg" xmlns:xlink="http://www.w3.org/1999/xlink">
    <!-- Generator: Sketch 52.6 (67491) - http://www.bohemiancoding.com/sketch -->
    <title>logo_chs</title>
    <desc>Created with Sketch.</desc>
    <g id="Page-1" stroke="none" stroke-width="1" fill="none" fill-rule="evenodd">
        <g id="logo_chs" fill="#FFFFFF">
            <path d="M23.4909,123.802 C21.8919,122.046 20.1655,121.166 18.3116,121.161 C17.2678,121.115 16.2275,121.311 15.2706,121.734 C14.3137,122.157 13.4656,122.795 12.7917,123.599 C11.4384,125.21 10.7594,127.534 10.7548,130.569 C10.7548,133.68 11.45,136.029 12.8404,137.617 C13.5183,138.389 14.357,139.001 15.2968,139.409 C16.2365,139.817 17.2541,140.011 18.2769,139.977 C20.1261,139.977 22.017,139.158 23.9288,137.511 L24.0401,137.673 C23.8981,138.232 23.8119,138.805 23.7829,139.382 C23.0734,139.886 22.2866,140.269 21.4539,140.517 C20.3867,140.886 19.2663,141.076 18.1378,141.077 C15.0094,141.077 12.5484,140.115 10.7548,138.191 C8.96115,136.267 8.06667,133.726 8.07131,130.569 C8.07131,127.3 9.02142,124.732 10.9216,122.864 C11.9147,121.92 13.085,121.186 14.3636,120.705 C15.6423,120.224 17.0035,120.005 18.3672,120.061 C20.4023,120.086 22.4081,120.552 24.2486,121.427 C23.9762,122.177 23.7851,122.955 23.6786,123.746 L23.4909,123.802 Z" id="Path"></path>
            <path d="M27.6621,120.341 C28.1206,120.429 28.5859,120.475 29.0525,120.481 C29.4943,120.483 29.9349,120.436 30.3665,120.341 C30.2135,123.171 30.137,125.287 30.137,126.688 L30.137,129.021 C31.9538,129.077 33.8795,129.105 35.9141,129.105 C37.819,129.105 39.7169,129.105 41.5939,129.021 L41.5939,126.653 C41.6258,124.549 41.5516,122.444 41.3715,120.348 C41.8312,120.426 42.2958,120.473 42.7619,120.488 C43.2011,120.486 43.6391,120.439 44.0688,120.348 C43.9159,124.033 43.8464,126.408 43.8464,127.459 L43.8464,133.68 C43.8464,135.137 43.9159,137.512 44.0688,140.812 C43.6228,140.734 43.1723,140.685 42.7202,140.664 C42.271,140.659 41.8228,140.708 41.3854,140.812 C41.5337,138.336 41.6078,135.933 41.6078,133.603 L41.6078,130.45 C39.7864,130.389 37.8607,130.359 35.8307,130.359 C33.9305,130.359 32.0372,130.389 30.1509,130.45 L30.1509,133.652 C30.1509,135.354 30.2274,137.736 30.3803,140.812 C29.9319,140.734 29.4792,140.685 29.0247,140.664 C28.5755,140.659 28.1273,140.708 27.6899,140.812 C27.8429,138.728 27.9193,136.351 27.9193,133.68 L27.9193,126.604 C27.9054,124.47 27.8197,122.382 27.6621,120.341 Z" id="Path"></path>
            <path d="M47.7812,139.355 C48.0311,138.476 48.2101,137.579 48.3165,136.672 L48.6364,136.672 C49.5633,138.778 50.9931,139.831 52.9257,139.831 C53.4491,139.847 53.9696,139.747 54.4502,139.538 C54.9308,139.328 55.3597,139.015 55.7065,138.619 C56.4244,137.777 56.8059,136.696 56.7771,135.586 C56.7799,134.873 56.5848,134.175 56.214,133.568 C55.5704,132.723 54.7098,132.071 53.7252,131.684 L51.299,130.556 C50.3381,130.149 49.5249,129.454 48.9701,128.566 C48.4153,127.677 48.1458,126.637 48.1984,125.589 C48.1579,124.829 48.2839,124.07 48.5675,123.366 C48.8511,122.661 49.2852,122.028 49.839,121.511 C51.0349,120.49 52.5695,119.962 54.1354,120.033 C54.8475,119.992 55.5604,120.095 56.2325,120.336 C56.9046,120.577 57.5223,120.95 58.0493,121.434 C57.6471,122.221 57.3948,123.076 57.3055,123.956 L56.9788,123.956 C56.4017,122.065 55.3381,121.112 53.7878,121.112 C53.3337,121.103 52.8826,121.187 52.4619,121.359 C52.0412,121.531 51.6597,121.788 51.3407,122.114 C51.0046,122.451 50.7415,122.855 50.568,123.3 C50.3945,123.745 50.3144,124.221 50.3326,124.699 C50.3326,126.455 51.3453,127.791 53.3707,128.706 L55.5884,129.666 C57.7991,130.684 58.9045,132.284 58.9045,134.465 C58.9361,135.337 58.7888,136.207 58.4719,137.019 C58.1549,137.832 57.675,138.57 57.0622,139.187 C56.4341,139.803 55.688,140.285 54.8693,140.602 C54.0505,140.919 53.1764,141.064 52.3001,141.029 C50.6392,141.059 49.0273,140.462 47.7812,139.355 Z" id="Path"></path>
            <path d="M29.4907,58.9102 C29.4907,58.9102 29.498,58.9175 29.4907,58.9102 Z" id="Path"></path>
            <path d="M46.7728,6.32715 C45.2109,9.56373 43.6491,12.8027 42.0872,16.0439 L39.7027,21.2841 L37.5058,27.0006 C37.0748,28.1145 36.3031,30.8887 37.7422,30.9167 C39.5636,30.9518 40.523,27.3719 41.0722,25.6906 C42.0177,22.6081 42.7963,19.4766 43.7209,16.3802 C44.4578,13.9142 45.2017,11.4763 45.9038,8.98227 C46.1541,8.08556 46.4739,7.20985 46.7728,6.32715 Z" id="Path"></path>
            <path d="M4.10889,30.376 L13.793,33.7103 L19.007,35.3635 L24.6451,36.7644 C25.7435,37.0376 28.4548,37.4299 28.3227,35.9939 C28.1559,34.1936 24.6729,33.6893 23.0253,33.4021 C20.0081,32.8837 16.9562,32.5335 13.9321,32.0011 C11.5267,31.6088 9.12127,31.2026 6.70893,30.8383 C5.83298,30.7542 4.97093,30.5581 4.10889,30.376 Z" id="Path"></path>
            <path d="M12.5068,0 L19.2503,13.3948 L22.9766,20.4986 L27.252,27.8755 C28.0932,29.3187 30.3318,32.6324 31.166,31.3784 C32.2019,29.7741 29.3168,25.5076 27.982,23.448 C25.5349,19.6859 22.9487,16.0219 20.4877,12.2389 C18.5273,9.25448 16.5668,6.25606 14.5785,3.29267 C13.8555,2.2208 13.1881,1.10689 12.5068,0 Z" id="Path"></path>
            <path d="M73.9208,16.0088 L60.1975,22.6499 L52.9188,26.3137 L45.3411,30.5169 C43.8603,31.3435 40.4747,33.5643 41.7121,34.4119 C43.3042,35.4837 47.6978,32.6255 49.8182,31.3015 C53.6904,28.8847 57.4654,26.3207 61.3238,23.8898 C64.4035,21.9423 67.4832,20.0018 70.5352,18.0403 C71.6405,17.3468 72.7876,16.6813 73.9208,16.0088 Z" id="Path"></path>
            <path d="M54.8652,70.9395 C52.9836,67.1002 51.0949,63.2587 49.1994,59.4148 C49.1994,59.4148 42.435,47.0844 42.3864,47.0073 C42.3377,46.9303 42.1361,46.4399 41.9345,46.629 C41.7329,46.8182 41.8928,47.3296 41.8302,47.5678 C41.6866,47.9288 41.5242,48.282 41.3436,48.6257 C41.1877,49.0076 41.1133,49.4184 41.1253,49.8312 C41.1372,50.244 41.2353,50.6496 41.4131,51.0217 C43.5752,54.1954 45.7998,57.327 47.941,60.5287 C49.6443,63.0648 51.3475,65.615 53.0786,68.1371 C53.7042,69.0409 54.2813,69.9937 54.8652,70.9395 Z" id="Path"></path>
            <path d="M0,57.2764 L11.735,51.6724 L17.9362,48.5621 L24.3737,44.9406 C24.8372,44.679 25.2752,44.3988 25.6877,44.0999 C25.9131,43.9486 26.1037,43.7501 26.2464,43.5181 C26.3892,43.286 26.4807,43.0258 26.5149,42.755 C26.5337,42.5648 26.5996,42.3824 26.7064,42.2245 C26.8133,42.0667 26.9578,41.9383 27.1267,41.8513 C27.3631,41.7042 27.5925,41.5992 27.3283,41.396 C25.8406,40.2752 22.1352,42.797 20.3763,43.9178 C17.1019,46.0193 13.9318,48.2749 10.6435,50.3974 C8.05041,52.0857 5.45037,53.7809 2.87117,55.4971 C1.9396,56.1205 0.959377,56.695 0,57.2764 Z" id="Path"></path>
            <path d="M66.072,45.3623 L56.3879,42.0278 L51.1739,40.3745 L45.5358,38.9735 C44.4374,38.6932 41.7261,38.308 41.8582,39.737 C42.025,41.5444 45.508,42.0488 47.1556,42.329 C50.1728,42.8544 53.2177,43.2047 56.2488,43.7301 C58.6542,44.1294 61.0666,44.5287 63.4719,44.893 C64.3479,44.991 65.203,45.1521 66.072,45.3623 Z" id="Path"></path>
            <path d="M58.0007,97.5724 L58.4317,97.5093 L58.4317,96.9489 L54.0033,96.4655 L50.7289,97.2852 L50.7984,97.6424 L51.3337,97.7125 L51.292,98.4131 L44.041,96.8228 L42.5881,67.0705 L43.6309,66.3699 C43.6294,65.6781 43.6806,64.9872 43.7838,64.3033 C43.9854,63.4626 44.3747,63.6588 44.9796,63.4206 C45.2924,63.3015 45.3411,63.1684 45.07,62.9372 C44.6667,62.594 44.1245,62.671 43.6796,62.4818 C43.2346,62.2927 42.9565,61.7323 42.6089,61.2629 C41.8025,60.0299 40.9961,58.783 40.1618,57.564 C39.856,57.1086 39.6404,55.9597 40.5025,55.9597 C40.1062,55.7776 40.2314,55.028 40.1757,54.6147 C40.1201,54.2014 39.4458,55.042 39.418,55.0771 C39.265,53.8454 39.1883,52.6054 39.1885,51.3641 C39.1885,50.4324 38.8757,49.1084 39.2372,48.2397 C39.4028,47.9751 39.5536,47.7015 39.6891,47.42 C39.844,46.6929 39.9462,45.9554 39.995,45.2133 C40.0714,44.6388 40.2314,44.0714 40.2661,43.4829 C40.3009,42.8945 40.3843,42.4321 39.842,42.0818 C39.2649,41.7061 38.7186,41.2844 38.2083,40.8209 C38.0484,40.6808 36.9361,39.9452 36.9361,39.77 L37.0334,38.6141 L37.3949,37.6544 C37.4771,37.3714 37.4935,37.0732 37.4429,36.7829 C37.3923,36.4925 37.2759,36.2178 37.1029,35.9801 C36.8944,35.6508 36.7067,35.2795 36.5259,34.9432 C36.1366,34.1726 35.7821,33.367 35.4067,32.5824 C35.0764,31.9495 34.7907,31.2941 34.5516,30.6209 L34.7115,30.4387 L36.1853,22.5575 L36.4912,22.0321 L36.1575,22.2493 C36.2327,21.9974 36.2656,21.7345 36.2548,21.4717 C35.9837,21.7379 35.935,22.5085 35.8933,22.2423 C35.8238,21.6748 35.6013,22.1022 35.8933,22.4594 C35.9837,22.5645 35.9281,22.7467 35.8933,22.8938 C35.789,23.5943 35.5318,24.2949 35.358,24.9954 C35.2815,25.2757 35.2189,25.4998 35.1703,25.696 L34.9478,25.696 C34.3917,25.745 34.6141,25.3457 34.3152,25.0445 C34.0163,24.7432 33.759,25.4928 33.7104,25.745 C33.6409,26.2074 33.3072,26.6347 33.328,27.1111 C33.3489,27.5875 33.6339,27.9237 33.6965,28.3511 C33.763,28.9001 33.763,29.4553 33.6965,30.0044 C33.5922,30.0044 33.5088,30.1094 33.3836,30.3897 C33.2585,30.6699 33.4184,31.0902 33.3836,31.3214 C33.2779,31.6383 33.1356,31.9417 32.9596,32.2251 C32.5702,32.9677 32.2087,33.7243 31.8194,34.4739 C31.4301,35.2235 30.9504,35.7419 30.9018,36.5755 C30.8253,37.8575 31.4232,39.2446 31.0686,40.4916 C30.874,41.1571 29.5878,41.6895 29.0247,42.0678 C28.8231,42.2009 28.5728,42.299 28.4894,42.5162 C28.4338,42.9932 28.4338,43.4753 28.4894,43.9523 C28.4894,44.6038 28.4894,45.2553 28.4894,45.9068 C28.4476,46.2321 28.4665,46.5623 28.545,46.8806 C28.6354,47.0908 28.8579,47.2169 28.9552,47.441 C29.0133,47.6982 29.0367,47.9622 29.0247,48.2257 C29.1012,48.9262 29.5183,49.4656 29.5253,50.2012 C29.5253,50.7757 29.5253,51.3431 29.567,51.9176 C29.567,52.8143 29.567,53.704 29.6295,54.5937 C29.6295,55.2032 29.8729,56.303 29.6295,56.8705 C29.5322,57.1227 29.4557,57.0176 29.3932,57.3188 C29.3339,57.8513 29.313,58.3875 29.3306,58.9231 C28.8238,58.9608 28.32,59.031 27.822,59.1332 C27.3632,59.2173 26.9322,59.4275 26.4664,59.4765 C26.0006,59.5255 25.7712,59.2313 25.3958,58.867 C25.1151,58.603 24.7963,58.3833 24.4503,58.2155 C24.2841,58.1165 24.0941,58.0656 23.9011,58.0684 C23.5535,58.0684 23.6369,58.1595 23.4423,58.4747 C23.5773,58.5932 23.7007,58.7246 23.8107,58.867 C23.8802,58.9861 23.8107,59.2523 23.9219,59.3504 C24.1514,59.6306 24.7423,59.5956 24.8744,59.9669 C25.0065,60.3382 24.5615,60.5553 24.353,60.7165 C24.2728,61.4475 24.2728,62.1852 24.353,62.9162 C24.5268,63.4626 25.2706,64.0791 25.6321,64.5205 C25.7545,65.0029 25.8014,65.5016 25.7712,65.9986 C25.7712,66.3699 24.6033,87.9749 24.1305,95.793 L16.4207,97.6004 L16.2469,96.8298 L16.7127,96.6126 L16.7475,96.1082 L13.4314,95.6669 L9.57303,95.8771 L9.57303,96.2904 L10.0875,96.4165 L9.17676,102.392 L14.0849,103.611 L15.6074,102.981 L31.4649,109.089 L31.3189,109.517 L37.2003,111.688 L42.3726,109.461 L42.1918,108.725 L53.3845,104.494 L54.7749,104.83 L59.1686,103.051 L58.0007,97.5724 Z M34.4056,27.5174 C34.4056,27.3283 34.4056,27.1321 34.4056,26.943 C34.4056,26.7538 34.4056,26.5016 34.4056,26.2424 C34.5085,26.2437 34.6109,26.2554 34.7115,26.2774 L35.0591,26.3195 C35.0243,26.3195 34.9826,26.6838 34.9756,26.7328 L34.8714,27.2652 C34.774,27.6996 34.6628,28.1269 34.5794,28.5682 C34.5099,28.8765 34.4612,29.1917 34.4056,29.5 C34.3713,28.8326 34.3713,28.1638 34.4056,27.4964 L34.4056,27.5174 Z M34.4403,37.0659 C34.423,36.806 34.437,36.5449 34.482,36.2883 C34.5168,36.0711 34.6002,35.868 34.8575,35.896 C35.504,35.9801 35.7473,36.6526 35.7751,37.227 C35.7879,37.5381 35.7762,37.8496 35.7404,38.1588 C35.723,38.4644 35.723,38.7708 35.7404,39.0765 C35.7404,39.2306 35.7404,39.3777 35.7404,39.5319 C35.7404,39.686 35.8307,39.9312 35.7404,40.0012 C35.5703,40.0864 35.3868,40.1409 35.1981,40.1623 C34.9459,40.2414 34.6879,40.2999 34.4264,40.3375 C34.4264,40.1063 34.2943,39.8891 34.2804,39.6369 C34.2331,39.3641 34.2168,39.0868 34.2318,38.8103 C34.3472,38.2283 34.417,37.638 34.4403,37.0449 L34.4403,37.0659 Z M34.0788,29.0166 C34.0788,29.0166 34.1553,29.0866 34.1623,29.1007 C34.2105,29.2554 34.2409,29.4153 34.2526,29.577 C34.2857,29.729 34.3043,29.8838 34.3082,30.0394 C34.3082,30.0884 34.2665,30.1025 34.2526,30.0954 C34.2387,30.0884 34.1831,29.9623 34.1762,29.9203 C34.155,29.7951 34.1272,29.6712 34.0927,29.549 C34.0441,29.3669 33.9607,29.1567 34.0788,28.9956 L34.0788,29.0166 Z M31.8333,36.7437 C31.8477,36.6643 31.8824,36.5901 31.934,36.5285 C31.9857,36.4669 32.0524,36.4199 32.1276,36.3923 C32.2028,36.3646 32.2838,36.3573 32.3627,36.371 C32.4416,36.3848 32.5155,36.419 32.5772,36.4704 C32.8622,36.6386 32.9387,37.2551 33.0152,37.5353 C33.0896,37.9633 33.1291,38.3968 33.1334,38.8313 C33.1334,39.0695 33.3489,39.9101 33.4045,40.1553 C33.4045,40.2184 33.5366,40.4215 33.4601,40.4916 C33.004,40.6418 32.5398,40.7657 32.0697,40.8629 C32.1089,39.9903 32.0717,39.1159 31.9585,38.2498 C31.8315,37.7587 31.7892,37.2492 31.8333,36.7437 Z M31.4718,45.3534 L34.8088,44.2956 C34.8088,44.6529 34.8435,54.8038 34.8088,55.6095 L31.444,56.6813 C31.4718,56.8074 31.4996,45.3674 31.4996,45.3324 L31.4718,45.3534 Z M27.7108,64.2052 C27.7108,64.1141 27.7108,64.0161 27.7108,63.925 C27.9503,63.8496 28.194,63.7888 28.4408,63.7429 L30.2066,63.3085 L32.3339,62.7901 C32.9387,62.65 33.5366,62.4818 34.1414,62.3487 C34.4056,62.2927 35.5318,61.8724 35.5318,62.4538 C35.5318,62.65 35.5318,62.8321 35.5318,63.0283 C35.4421,63.4206 35.4614,63.8302 35.5874,64.2122 C35.7821,64.7166 35.9976,65.193 36.22,65.6834 C36.2986,65.9518 36.3384,66.2302 36.3382,66.51 C36.3556,66.7549 36.3556,67.0007 36.3382,67.2456 C36.3382,67.5468 36.3382,67.8481 36.2965,68.1493 C36.2965,68.5906 36.2965,69.032 36.2965,69.4733 C36.2965,70.0198 36.2965,70.5732 36.2965,71.1266 C36.2965,71.6801 36.2965,72.3386 36.2618,72.9411 C36.227,73.5435 36.2618,74.2651 36.227,74.9306 C36.1922,75.5962 36.227,76.3878 36.227,77.1163 C36.227,77.8449 36.227,78.6295 36.227,79.3861 C36.227,80.1427 36.227,80.9203 36.1853,81.6839 C36.1436,82.4475 36.1853,83.2321 36.1505,84.0027 C36.1158,84.7733 36.1505,85.544 36.1505,86.3146 L36.1088,88.5143 C36.1088,89.2148 36.1088,89.9154 36.1088,90.6159 C36.1088,91.3165 36.1088,91.9049 36.0741,92.5495 C36.0393,93.194 36.0741,93.6914 36.0741,94.2588 C36.0741,94.8262 36.0741,95.2186 36.0741,95.6599 C36.0741,96.1012 36.0741,96.4445 36.0741,96.8368 L36.0741,97.6495 C36.0741,97.7756 36.0741,97.9017 36.0741,98.0278 L36.0741,98.1118 C36.1297,98.1118 27.4814,96.0102 26.6541,95.807 C26.383,95.793 27.7177,64.3593 27.7386,64.1842 L27.7108,64.2052 Z M22.4064,99.7511 C22.3227,99.5419 22.2553,99.3264 22.2048,99.1066 C22.2048,99.1066 17.978,99.0365 18.3325,98.9945 L18.0753,98.9945 C18.4507,99.0646 24.0471,97.6775 24.0401,97.7265 L24.1653,97.7265 C24.1653,97.8036 24.068,98.8544 24.0401,98.9945 C24.0123,99.1346 33.7729,102.357 33.613,102.462 C33.613,102.462 33.3002,104.031 33.2793,104.144 C33.2585,104.256 33.2793,104.144 33.2793,104.144 C33.2793,104.144 22.4412,99.7931 22.4342,99.7301 L22.4064,99.7511 Z M41.6913,101.748 C41.6426,101.748 38.4795,102.175 38.3613,102.315 C38.2431,102.455 38.5073,108.298 38.111,109.202 C37.9163,109.636 37.5687,110.259 37.0056,110.007 C36.7971,109.909 33.2376,108.837 32.6815,108.606 L32.7301,108.606 C32.9179,108.361 33.7382,108.347 33.8286,108.347 L34.058,108.347 L34.1136,108.347 C34.927,108.459 35.7126,108.466 36.4495,108.557 L36.5607,108.557 C36.7206,108.557 37.4297,108.557 37.2907,108.193 C37.242,108.081 37.1029,108.025 37.0195,107.955 C36.9361,107.884 36.7484,107.702 36.5955,107.597 C35.796,107.051 36.95,106.07 37.1794,105.531 C37.2392,105.395 37.2858,105.255 37.3185,105.11 C37.3741,104.963 37.3185,102.721 37.3185,102.364 C36.9639,102.329 33.0152,101.818 33.0221,101.867 C33.0291,101.916 32.9874,101.622 33.0777,101.559 C33.1681,101.495 33.0777,101.559 33.0777,101.559 C33.0777,101.559 37.388,101.194 37.7425,101.187 C37.8746,101.187 38.0206,101.187 38.1527,101.187 C38.2848,101.187 41.4062,101.383 41.4827,101.425 C41.7191,101.411 41.8373,101.692 41.7191,101.727 L41.6913,101.748 Z" id="Shape" fill-rule="nonzero"></path>
            <path d="M34.4678,65.7953 C34.0994,65.5291 33.4598,65.8654 33.0774,65.9845 C32.2216,66.2427 31.351,66.4485 30.4704,66.6009 C30.3731,66.6009 28.9966,66.7831 28.9897,66.9302 C28.9827,67.0773 28.9897,67.4136 28.9897,67.6307 L28.9271,69.305 C28.9271,70.2158 28.8645,71.1194 28.8298,72.0301 L28.7046,75.3577 C28.6629,76.5557 28.6142,77.7536 28.5725,78.9585 C28.5308,80.1635 28.4821,81.4314 28.4335,82.6644 C28.3848,83.8973 28.3431,85.0673 28.3014,86.2652 C28.2597,87.323 28.218,88.3668 28.1832,89.4387 C28.1832,90.2303 28.1206,91.0219 28.0928,91.8135 L28.0511,92.9624 C28.0511,93.1445 27.919,93.6629 28.1415,93.733 C28.267,93.7886 28.401,93.8218 28.5378,93.8311 C28.6699,93.8311 28.6421,93.6769 28.649,93.5579 C28.649,93.2987 28.649,93.0465 28.649,92.7873 L28.6907,91.7575 C28.7255,90.9939 28.7533,90.2233 28.7811,89.4597 C28.8158,88.4439 28.8576,87.4281 28.8993,86.4193 L29.0244,83.0357 C29.0731,81.8588 29.1148,80.6748 29.1635,79.4909 C29.2121,78.307 29.2538,77.1791 29.2955,76.0233 C29.3373,74.8674 29.379,73.9216 29.4137,72.8498 L29.518,70.2368 C29.518,69.5993 29.5667,68.9688 29.5875,68.3383 C29.5875,68.0651 29.5875,67.7989 29.6223,67.5257 L29.6223,67.4486 L31.7566,66.9862 C32.4518,66.8321 33.9951,66.0545 34.3496,67.0633 C34.4544,67.6413 34.5102,68.2272 34.5165,68.8147 C34.5652,69.1789 34.6069,69.5152 34.6486,69.9075 C34.6486,69.291 34.6834,68.6745 34.7112,68.0511 C34.739,67.4276 34.9614,66.3487 34.586,65.8724 L34.4678,65.7953 Z" id="Path"></path>
        </g>
    </g>
</svg>