<svg fill="none" height="500" viewBox="0 0 500 500" width="500" xmlns="http://www.w3.org/2000/svg"><path clip-rule="evenodd" d="m498.709 250.301c.004 49.189-14.579 97.275-41.904 138.176s-66.165 72.781-111.609 91.607c-45.444 18.827-95.45 23.755-143.694 14.161s-92.56-33.279-127.3437-68.059c-34.7833-34.781-58.4717-79.095-68.06943-127.339-9.59777-48.243-4.67385-98.249 14.14913-143.695 18.8229-45.445 50.6994-84.2876 91.598-111.616 40.899-27.3284 88.984-41.91491 138.173-41.91491 137.36 0 248.7 111.34991 248.7 248.69991" fill="#000" fill-rule="evenodd"/><g fill="#fff"><path clip-rule="evenodd" d="m339.322 230.21h-26.08v11.63l26.08-.02v15.72h-26.08v12.91h26.08v21.67h-53.17v-82.97h53.17z" fill-rule="evenodd"/><path d="m395.916 202.319c-16.82 29.67-49.9 89.8-49.9 89.8h28.35l4.6-9.03h33.86l4.48 9.03h28.55zm-10.38 67.06c0 .06 10.38-21.28 10.38-21.28s10.18 21.34 10.18 21.28z"/><path clip-rule="evenodd" d="m234.183 246.331 18.6-37.18h28.92c.1 0-47.52 89.14-47.52 89.14l-47.45-89.14h28.94s17.04 34.59 18.51 37.18zm-51.9 45.8h-27.11v-82.98s27.12.1 27.12 0v82.97zm-78.75-50.88v-32.11h27.12v89.15l-44.0399-38.31v32.14h-27.16v-89.26z" fill-rule="evenodd"/></g></svg>