<svg height="96" viewBox="0 0 500 96" width="500" xmlns="http://www.w3.org/2000/svg"><g fill="#fff" fill-rule="evenodd"><path d="m64.0556 9.62074c-2.4991-1.41618-9.7468-.54147-18.3688 2.16596-8.6554 5.3812-15.8414 12.8244-20.9152 21.6635-5.0737 8.8391-7.8768 18.7983-8.1584 28.9862 0 .5831-1.6661 0-1.9577-.25-2.2837-4.3123-3.6579-9.0473-4.0376-13.9121-.3798-4.8647.2431-9.7557 1.83-14.3701.6248-1.0829-1.4578-2.3741-1.8327-1.9992-2.2284 2.3553-4.18451 4.9542-5.83135 7.7473-4.8663469 8.7264-6.07768 19.0251-3.36891 28.6423 2.70878 9.6175 9.11706 17.77 17.82246 22.6738 4.2858 2.4075 9.0074 3.9395 13.8904 4.5069 4.8827.5676 9.8299.1594 14.5536-1.2008 4.724-1.3601 9.1305-3.6454 12.9638-6.7226 3.8335-3.0774 7.0173-6.8856 9.3667-11.2036 11.5795-20.8263.8331-62.8955-5.9563-66.64424z"/><path d="m128.491 19.6983c-21.326 0-36.9042 16.0779-36.9042 38.1954-.2468 5.0055.5511 10.0074 2.3429 14.6879 1.7916 4.6803 4.5377 8.9364 8.0633 12.4977 3.527 3.5613 7.755 6.3496 12.417 8.1877 4.663 1.8382 9.656 2.6859 14.664 2.4889 5.021.2023 10.028-.6578 14.693-2.5241 4.666-1.8663 8.885-4.6964 12.381-8.3056 1.422-1.4362 2.255-3.3532 2.333-5.3731.017-.8269-.134-1.6487-.445-2.415-.311-.7665-.775-1.4613-1.364-2.0423-.588-.5809-1.289-1.0357-2.06-1.3362-.77-.3008-1.594-.4412-2.421-.4127-.977.0247-1.938.2481-2.826.6563-.888.4081-1.684.9926-2.339 1.7179-2.322 2.4113-5.112 4.3237-8.199 5.6199-3.086 1.2963-6.405 1.9494-9.753 1.9191-5.713.0769-11.239-2.0396-15.438-5.9139-4.2-3.8744-6.754-9.2113-7.138-14.9123h48.401c5.248 0 7.789-2.4992 7.789-7.5808.044-1.6437-.054-3.288-.292-4.915-2.582-18.9519-15.245-30.2816-33.863-30.2816zm0 11.8293c11.579 0 18.994 7.4559 19.452 19.4935h-41.278c.541-5.3901 3.083-10.3817 7.123-13.9903 4.04-3.6084 9.286-5.572 14.703-5.5032z" fill-rule="nonzero"/><path d="m208.714 19.6979c-4.705-.0178-9.328 1.2341-13.383 3.624-4.053 2.3898-7.387 5.8289-9.65 9.9548v-4.9565c0-7.4975-5.748-7.8724-6.914-7.8724-1.005-.028-2.004.1636-2.928.5613-.923.3977-1.749.9921-2.419 1.7415s-1.168 1.636-1.461 2.5979c-.292.9619-.371 1.9761-.232 2.9717v58.3136c-.076 1.012.057 2.0289.393 2.9867.334.9581.864 1.8366 1.554 2.5807s1.526 1.3376 2.456 1.7435 1.934.6155 2.949.6155 2.019-.2096 2.949-.6155 1.766-.9994 2.456-1.7435c.691-.7441 1.22-1.6226 1.554-2.5807.335-.9578.469-1.9747.393-2.9867v-31.1562c0-13.6205 7.622-23.1588 18.576-23.1588 10.956 0 15.703 6.9975 15.703 21.4927v33.0305c-.075 1.0121.058 2.0289.393 2.9868.335.958.864 1.8366 1.553 2.5806.692.7441 1.527 1.3376 2.458 1.7435.929.406 1.933.6155 2.949.6155 1.015 0 2.019-.2095 2.948-.6155.931-.4059 1.766-.9994 2.458-1.7435.689-.744 1.218-1.6226 1.553-2.5806.336-.9579.468-1.9747.393-2.9868v-37.4874c0-14.2452-7.04-29.4484-26.701-29.4484z"/><path d="m301.894 20.4474c-1.709.0385-3.359.6449-4.686 1.7232-1.326 1.0784-2.257 2.5676-2.646 4.2332l-20.076 51.1076-19.951-51.1076c-.413-1.6757-1.367-3.1681-2.716-4.2453-1.349-1.077-3.015-1.6787-4.74-1.7111-1.915-.0224-3.762.7142-5.136 2.0489-1.373 1.3347-2.162 3.1588-2.195 5.0737.012 1.437.324 2.8556.916 4.1652l23.117 55.1482c.641 2.3203 2.025 4.3665 3.938 5.825 1.916 1.4582 4.257 2.2478 6.663 2.2478s4.747-.7896 6.663-2.2478c1.914-1.4585 3.297-3.5047 3.939-5.825l23.199-55.398c.575-1.3154.887-2.7305.918-4.1654.005-.9366-.179-1.8647-.543-2.7279-.362-.8634-.896-1.6441-1.57-2.2945-.675-.6505-1.474-1.1573-2.349-1.4896-.876-.3324-1.809-.4836-2.745-.4439z"/><path d="m344.625 19.6975c-8.801-.1828-17.433 2.4274-24.657 7.4559-1.04.5906-1.906 1.4439-2.513 2.4745-.608 1.0307-.933 2.2025-.945 3.3985-.021.7653.109 1.5272.385 2.2412s.694 1.3655 1.224 1.9164c.533.551 1.169.9903 1.872 1.292s1.46.4598 2.226.4651c1.513-.1107 2.96-.6609 4.165-1.5829 4.843-3.5295 10.668-5.4523 16.661-5.4981 10.871 0 17.078 5.5814 17.078 15.3282v1.6245c-24.368 0-49.191 2.9988-49.191 24.45.249 15.4115 13.287 22.4925 26.408 22.4925 4.655.2044 9.283-.7872 13.448-2.8797 4.163-2.0927 7.72-5.2168 10.335-9.0747v3.624c-.115.9662-.019 1.9457.278 2.872.299.9264.793 1.7778 1.448 2.4967.655.7188 1.458 1.2885 2.353 1.6701.896.3817 1.862.5665 2.835.5418.937-.026 1.856-.2496 2.701-.6557.845-.4062 1.594-.9859 2.199-1.7012.606-.7155 1.054-1.5504 1.315-2.4506.26-.9002.329-1.845.199-2.7731v-39.3619c0-17.7857-11.163-28.3655-29.864-28.3655zm12.496 40.0283h3.083v3.4155c.224 2.718-.136 5.4527-1.058 8.0196-.921 2.5666-2.383 4.9059-4.287 6.8599-1.902 1.9541-4.201 3.4774-6.743 4.4673-2.541.99-5.265 1.4233-7.989 1.2712-3.289 0-14.119-.7913-14.119-10.8297 0-11.8293 17.744-13.2038 31.113-13.2038z" fill-rule="nonzero"/><path d="m412.729 33.9441c.856.1151 1.728.0425 2.554-.2129.825-.2551 1.586-.6871 2.227-1.2659.642-.5785 1.15-1.2898 1.489-2.0846.341-.7949.502-1.6541.477-2.5181.031-.8703-.128-1.7367-.464-2.54-.337-.8033-.843-1.5243-1.484-2.114-.64-.5894-1.401-1.0333-2.23-1.3013-.828-.2678-1.705-.3535-2.569-.2508h-13.247v-13.37056c.136-1.03448.05-2.08604-.253-3.08443-.303-.99837-.816-1.92055-1.504-2.7049-.688-.78436-1.534-1.41281-2.487-1.843353-.95-.430542-1.98-.653257-3.024-.653257-1.043 0-2.075.222715-3.025.653257-.951.430543-1.797 1.058993-2.485 1.843353-.69.78435-1.201 1.70653-1.504 2.7049-.304.99839-.391 2.04995-.255 3.08443v64.06176c0 14.8284 7.249 22.659 20.828 22.659 3.167.0703 6.314-.5109 9.247-1.7077 1.182-.4774 2.205-1.2844 2.943-2.3256.739-1.041 1.162-2.2724 1.222-3.5474.029-.781-.104-1.5595-.387-2.2875-.286-.7278-.717-1.3895-1.266-1.9441-.552-.5546-1.209-.99-1.935-1.2797-.726-.2894-1.504-.4268-2.286-.4034-.891.037-1.774.191-2.624.4582-.989.2859-2.012.4399-3.04.4581-5.581 0-8.33-3.6653-8.33-11.5793v-36.9042z"/><path d="m461.297 19.6984c-5.048-.2017-10.082.6361-14.793 2.4613-4.711 1.8255-8.994 4.5995-12.588 8.1499-3.594 3.5503-6.418 7.8013-8.301 12.4892-1.881 4.6878-2.779 9.7125-2.638 14.7619-.086 5.0705.843 10.1069 2.732 14.8134s4.698 8.9883 8.265 12.5941c7.325 7.0634 17.147 10.9415 27.323 10.7879 5.067.1362 10.108-.7565 14.82-2.6241 4.711-1.8677 8.996-4.6713 12.594-8.2416 3.598-3.5701 6.433-7.8328 8.337-12.5303 1.903-4.6973 2.834-9.732 2.736-14.7994.13-5.0609-.782-10.0944-2.678-14.7883-1.895-4.6939-4.736-8.9481-8.345-12.4983-3.609-3.5504-7.91-6.3211-12.634-8.1404-4.724-1.8192-9.772-2.6481-14.83-2.4353zm0 63.437c-15.245 0-23.201-12.8707-23.201-25.5747 0-17.4525 12.039-25.4082 23.201-25.4082 11.163 0 23.202 7.9557 23.202 25.4082s-12.039 25.6996-23.202 25.6996z" fill-rule="nonzero"/></g></svg>