<svg width="424" height="500" viewBox="0 0 424 500" fill="none" xmlns="http://www.w3.org/2000/svg">
<path d="M209.889 473.5C222.278 461.036 250.252 439.468 277.029 431.319C307.799 422.214 387.328 407.828 405.715 325.866C420.503 261.635 392.929 189.254 389.732 156.658C386.936 128.381 395.325 63.1896 396.925 53.6027C398.524 40.1836 386.133 35.3882 378.137 38.2662C364.553 43.5369 335.378 53.1216 301.809 53.6027C265.842 54.0842 221.478 27.7209 209.889 9.9856C198.699 27.7209 154.338 54.0842 118.369 53.6027C84.7982 53.1234 55.6257 43.5369 42.037 38.2662C33.6473 35.3882 21.2559 40.1815 23.2557 53.6027C24.4528 63.1896 33.2449 128.381 30.4483 156.658C27.2514 189.254 -0.323901 261.635 14.4617 325.866C32.8465 407.828 112.376 422.214 142.75 431.319C169.526 439.468 197.502 461.036 209.889 473.5Z" fill="black"/>
<path d="M209.888 456.721C225.477 440.426 258.643 423.171 280.625 417.419C341.369 401.122 377.738 373.8 390.927 332.094C410.108 272.657 383.734 205.554 378.135 161.453C374.541 131.256 381.732 72.2999 383.332 65.108C385.728 50.726 384.128 48.8085 372.141 53.1247C360.156 57.4386 326.183 66.0684 295.413 65.108C265.841 64.1512 231.072 45.9364 209.888 28.6765C188.707 45.9364 154.337 64.1512 124.764 65.108C93.9919 66.0684 59.6221 57.4386 47.6311 53.1247C36.0426 48.8085 34.0427 50.726 36.8393 65.108C38.0384 72.3017 45.6333 131.256 41.6357 161.453C36.4389 205.554 9.66433 272.657 28.8459 332.094C42.4384 373.8 78.4054 401.122 139.552 417.419C161.532 423.171 194.304 440.426 209.888 456.721Z" stroke="white" stroke-width="2.4198" stroke-linecap="round"/>
<path d="M220.682 71.3382C221.078 75.654 221.878 79.9684 221.478 85.2387C220.281 81.8855 217.082 78.0508 213.088 78.0508C208.292 78.0508 204.296 81.404 202.296 85.2387C201.498 91.9513 201.498 98.1828 202.697 104.89C205.494 103.933 207.894 101.057 210.692 99.6188C217.485 95.3026 228.671 98.658 231.473 89.0715L231.868 88.59C233.065 90.9869 231.473 94.3463 230.671 97.2202C223.88 108.722 207.491 99.1373 202.296 111.602C202.697 119.751 201.1 128.856 203.498 136.526C204.695 137.967 206.693 137.486 208.29 137.007C219.082 133.654 225.076 123.106 227.872 113.519H228.274C227.872 119.272 227.872 125.984 226.675 131.736C214.684 139.404 202.695 146.591 190.706 152.825C196.299 141.802 192.305 126.941 193.503 114.003C192.702 106.336 192.702 99.6229 192.702 91.9535C192.702 90.5116 191.102 89.0756 189.905 88.1188C188.706 87.6396 187.107 87.6396 185.908 87.158C186.706 85.722 188.704 84.286 190.704 83.3233C199.895 77.5715 209.485 73.2576 218.677 67.9869C220.682 67.5035 219.879 70.3837 220.682 71.3382Z" fill="white"/>
<path d="M355.362 92.4301C358.159 101.054 355.362 110.641 354.559 119.269C352.165 139.401 351.363 160.971 357.356 179.186C357.759 180.622 355.757 180.622 354.962 180.146C350.564 177.747 348.564 172.473 346.572 167.681C341.774 159.051 338.977 148.986 333.38 140.362L332.984 141.318L333.38 181.584C333.781 183.02 335.38 183.981 336.577 184.456C333.38 187.815 328.982 189.733 324.988 191.65C324.988 189.733 326.186 187.815 326.186 185.417C326.186 164.328 326.186 142.754 325.391 122.147C324.588 119.269 320.995 118.787 318.592 117.831C321.79 114.953 325.785 112.554 329.785 110.637C331.384 110.162 332.582 111.598 332.982 113.036C337.378 121.666 340.575 131.25 345.367 139.88C345.768 139.88 345.768 139.399 346.168 139.399C346.168 125.498 348.564 112.079 347.365 98.1783C346.964 95.3004 341.772 94.3436 343.369 90.9842C345.365 89.5481 347.365 87.631 350.162 88.5878C352.566 88.5896 353.763 90.9882 355.362 92.4301Z" fill="white"/>
<path d="M176.719 92.4348C175.92 94.3524 175.12 96.7447 174.721 98.6623L175.12 153.308C175.52 154.744 175.12 156.186 176.719 157.624L179.118 159.06C175.522 162.419 169.925 164.81 165.529 167.209C165.529 166.728 165.131 165.773 165.931 165.773L166.73 161.457L166.33 133.176C164.332 130.778 162.334 133.657 160.334 134.137C157.139 137.009 152.739 138.447 149.945 141.325C149.945 150.43 149.144 160.496 150.743 169.126C151.144 171.043 152.739 172.004 154.339 172.479H155.938C150.743 176.793 144.748 180.153 138.755 182.546C139.954 180.153 140.752 176.793 141.153 173.921L139.955 120.711C139.955 118.319 137.157 117.358 135.958 115.922C140.354 112.088 145.951 109.21 151.146 107.292C147.546 114.005 150.347 124.071 149.946 132.219C149.946 133.176 150.347 133.176 150.746 133.656C155.94 132.219 160.336 127.903 165.531 125.505L166.332 123.589L165.933 104.893C165.531 103.457 164.334 102.021 162.734 101.54H161.537C161.537 99.6249 163.535 100.104 164.334 98.6623C168.328 97.224 171.925 93.3893 176.719 92.4348Z" fill="white"/>
<path d="M127.164 113.521C128.761 122.15 127.562 131.256 131.56 138.444C125.164 135.09 126.363 127.421 120.369 123.589C118.77 122.628 117.573 124.545 116.774 125.504C115.976 147.555 117.573 167.687 117.971 188.774C118.77 190.216 119.967 191.172 121.168 191.652H123.564C117.573 195.966 110.377 198.839 103.985 202.674C110.378 195.968 107.179 185.421 107.58 177.272L106.781 133.173C106.379 132.216 106.781 130.775 105.584 129.82C100.385 131.256 99.9869 137.968 97.991 142.285C96.7901 148.512 96.3914 155.704 91.1968 160.018H90.3982C95.1923 151.388 91.1968 139.404 93.9932 129.82C104.785 124.068 115.177 116.876 126.365 111.605L127.164 113.521Z" fill="white"/>
<path d="M301.809 134.609C296.612 136.051 295.013 141.802 294.216 146.116C291.814 161.453 290.214 180.149 295.013 195.007C296.21 197.403 297.809 202.201 301.809 201.719C306.601 200.283 307.002 195.007 308.601 190.693C311.798 174.875 312.198 156.184 309.001 139.887C307.404 137.487 305.404 134.135 301.809 134.609ZM315.393 135.09C323.387 154.267 322.191 178.234 313.794 196.924C310.997 201.719 307.402 206.99 301.809 207.951C297.407 208.907 293.013 206.99 289.82 204.118C281.424 190.693 279.825 172.001 282.621 155.703C285.022 144.677 289.017 129.819 303.006 127.421C308.601 126.941 312.597 130.776 315.393 135.09Z" fill="white"/>
<path d="M278.629 140.845C278.228 143.723 276.233 146.597 276.233 149.475V181.59C276.233 193.092 276.233 204.596 277.029 215.141C277.83 216.577 279.029 217.54 280.227 218.019L279.826 218.976C275.03 222.336 270.237 225.208 265.038 227.606C267.441 223.29 268.237 217.54 267.835 211.307L267.04 168.169L266.237 153.308C265.843 151.872 264.244 150.909 263.041 149.954C267.042 146.595 271.837 145.159 276.233 141.805C277.029 141.805 277.832 140.845 278.629 140.845Z" fill="white"/>
<path d="M258.25 154.743C259.849 162.892 259.045 171.522 259.849 179.192C255.848 174.875 257.847 167.689 251.854 164.81C249.854 163.853 248.657 165.77 247.458 167.208L247.058 169.125V209.389L247.458 230.959C248.254 232.877 249.854 234.319 251.854 235.274C247.458 239.108 242.661 241.986 237.468 243.424L238.666 236.711V201.72L237.863 172.958C237.068 171.522 235.469 171.522 234.27 172.477C229.071 177.753 230.268 185.902 226.677 191.654H226.274C227.071 185.421 226.274 178.235 226.274 172.477L227.071 170.56C236.666 165.289 246.655 159.057 256.248 153.787C257.045 153.787 258.25 154.268 258.25 154.743Z" fill="white"/>
<path d="M198.301 188.777C195.903 193.094 195.903 198.368 194.702 203.159L192.307 216.104L185.513 253.49C182.316 262.595 183.914 275.058 177.121 282.251C177.121 276.014 175.122 270.741 173.923 264.51L163.933 226.168C162.732 221.372 161.535 215.141 155.54 213.703V213.222C161.133 209.868 166.329 205.554 172.323 203.637C169.925 206.509 170.723 211.304 171.126 214.659C172.725 225.686 175.92 235.754 178.318 246.3C178.721 246.3 179.117 246.775 179.519 246.775C182.316 237.67 182.714 227.604 184.714 218.494C185.513 212.267 188.31 205.075 185.113 199.323C184.714 198.366 183.514 197.406 182.714 197.406C186.712 194.052 191.907 191.174 197.102 188.776H198.301" fill="white"/>
<path d="M348.171 217.538C349.764 220.41 349.764 225.206 348.171 228.561C343.373 243.903 336.576 258.286 331.383 273.622C330.983 281.292 330.983 290.395 331.778 298.068C331.778 299.506 333.78 300.461 334.58 301.903C329.784 305.738 323.791 308.131 318.591 311.965C319.394 308.61 321.388 305.738 321.789 301.903C321.789 292.792 321.789 283.209 320.591 274.577C316.196 264.99 311.399 255.406 306.206 245.821L303.009 243.424C308.202 240.071 312.999 236.236 318.591 234.319C317.795 237.672 315.795 242.943 318.197 246.778C321.388 252.53 322.988 258.288 326.185 263.55C327.786 264.032 327.786 261.639 328.981 261.16C332.581 249.176 338.977 238.629 340.173 226.17C340.173 221.854 338.173 217.54 334.18 216.104C333.78 215.144 334.58 214.187 334.58 213.706C337.773 211.789 341.773 212.27 344.97 213.706C346.571 214.185 346.968 216.103 348.171 217.538Z" fill="white"/>
<path d="M145.546 235.271C145.546 252.525 145.546 269.785 146.345 287.037C147.146 288.475 146.743 289.915 148.743 290.392C150.741 291.353 151.94 289.917 153.538 288.954C159.933 282.25 156.336 271.221 163.931 264.988H165.527C163.132 270.739 162.73 276.971 163.132 283.204C162.73 285.121 163.132 287.518 162.73 289.436C154.739 294.706 145.947 299.502 137.553 304.291L137.153 303.81L137.553 295.188L137.153 251.568L136.756 232.874C135.555 230.003 132.759 228.558 129.962 228.558C136.356 224.724 141.951 219.935 148.345 217.536C145.148 222.333 145.949 229.521 145.546 235.271Z" fill="white"/>
<path d="M294.613 248.214C294.613 251.086 293.014 253.964 293.014 257.32V282.722L293.816 320.11C294.216 322.031 295.816 322.986 297.409 323.945C293.014 327.304 289.02 329.701 284.223 331.612C285.42 327.304 284.623 323.47 284.623 319.156L284.223 284.642C283.829 284.162 283.427 284.642 283.026 285.123C279.829 294.234 277.433 303.338 273.834 312.443C272.234 311.964 271.037 310.05 270.241 308.129C267.444 303.813 265.844 299.021 262.647 294.707C261.845 294.707 261.048 295.189 261.048 295.664C261.843 311.007 260.645 324.426 261.843 339.763C263.04 340.724 264.639 341.686 265.442 343.124C261.446 346.478 256.248 348.874 251.451 351.273C252.252 347.913 254.248 344.56 254.248 340.246L253.853 308.61L253.05 281.771C252.254 278.893 249.457 277.457 247.057 276.495C250.654 274.102 254.25 270.743 258.646 270.27C263.042 277.457 267.041 285.125 271.437 292.313C273.037 293.274 273.037 290.875 273.834 290.396C276.63 278.412 280.23 266.908 283.829 254.925C287.018 251.568 290.617 250.132 294.613 248.214Z" fill="white"/>
<path d="M86.3986 256.842C81.204 263.548 82.0027 275.056 84.4009 282.726C81.204 282.726 79.6045 279.848 77.6068 277.936C76.4095 277.936 74.4099 278.412 73.609 277.457C74.8099 275.534 75.609 273.143 75.609 271.226C75.609 267.865 74.4099 264.992 71.2126 263.55C67.2153 261.16 61.6198 261.639 57.6243 264.511C54.4252 267.865 52.027 271.699 54.0248 276.015C59.6221 289.44 76.8059 293.754 83.6 307.176C87.5977 317.242 86.3968 330.186 80.005 338.81C74.4099 345.522 66.0162 349.357 56.4252 347.917C50.4315 346.479 44.8365 341.69 43.239 335.933C41.2412 329.706 43.6374 324.429 48.0333 321.078C51.2302 318.679 56.0288 318.679 58.8252 321.078C60.4248 322.037 61.2234 323.475 61.2234 325.392C60.4248 326.828 58.8252 324.911 57.6284 325.872C56.0288 326.828 54.0288 328.264 53.6306 329.706C53.6306 332.578 53.232 334.02 54.4293 335.933C57.2261 339.293 60.8234 340.247 65.2212 339.766C70.4162 338.336 76.009 332.578 76.8099 326.353C79.2081 303.816 50.0333 300.463 45.2369 281.292C42.8387 272.18 46.0356 263.551 53.232 258.761C60.4248 253.972 69.6171 254.447 77.2104 257.804C79.6063 255.881 83.2018 253.969 86.4009 254.926V256.842" fill="white"/>
<path d="M111.978 261.633L110.379 262.112C109.182 270.736 106.783 281.765 106.783 289.914C109.98 288.472 113.577 287.517 115.575 284.637L111.978 261.633ZM115.573 232.396C113.576 234.313 113.576 237.666 113.576 240.065C119.571 260.193 124.365 280.804 130.359 300.936C130.761 303.335 133.558 304.771 133.159 307.169C128.363 310.045 123.567 313.401 117.972 315.318C121.969 309.087 119.571 302.378 117.573 296.141C116.372 292.306 115.573 293.269 113.576 294.229C111.177 295.186 107.981 297.101 106.782 297.583C104.383 298.539 104.383 301.897 103.985 303.808C103.186 307.643 99.1883 318.196 105.182 321.07C106.379 321.07 106.782 321.55 107.58 321.07C102.385 326.347 94.7905 329.698 88.7968 333.053C89.5955 330.181 91.195 327.775 91.9937 325.384C97.5869 298.539 101.585 270.738 106.779 243.897C108.779 239.583 110.379 233.832 115.573 232.396Z" fill="white"/>
<path d="M225.479 296.626C223.477 296.626 221.077 298.068 220.681 299.981C219.88 309.093 220.281 319.632 220.681 329.225C221.077 330.661 222.677 330.661 223.88 330.661C227.473 330.661 230.67 328.264 232.269 325.39C235.064 317.241 237.466 306.219 232.67 298.545C230.67 297.108 228.276 296.626 225.479 296.626ZM244.259 299.023C248.254 307.647 245.455 318.676 240.659 325.388C238.665 329.702 231.867 330.659 233.066 336.411C235.869 347.915 239.06 359.898 249.457 367.09C251.854 368.526 255.05 368.526 257.847 368.047C257.847 370.923 254.65 372.361 252.254 372.84C239.062 373.322 232.272 359.421 227.473 349.834C225.479 345.041 223.88 340.244 222.677 335.93L221.48 334.973L220.683 335.93C220.282 345.52 221.079 355.58 220.683 365.173C221.48 366.609 223.882 366.609 223.882 368.045C219.88 371.404 215.486 373.801 210.694 375.712C212.69 367.09 210.289 357.983 211.09 348.873C210.694 334.494 210.694 318.676 210.291 303.812C209.492 302.382 208.293 300.94 206.696 300.94H204.302C206.696 297.587 211.092 295.663 214.691 293.752C221.083 289.918 230.674 287.521 237.472 291.829C240.265 293.752 242.661 296.626 244.259 299.023Z" fill="white"/>
<path d="M180.318 331.139L179.117 334.972C177.517 345.04 175.119 354.625 174.721 364.691C179.117 364.211 182.714 361.337 186.71 358.939C187.108 357.503 187.108 356.542 186.71 355.579C184.312 347.437 183.513 338.807 180.318 331.139ZM193.504 341.205L201.495 375.711C201.495 377.635 203.894 378.589 204.692 379.546C200.695 382.905 196.3 384.823 192.305 386.264C194.303 380.027 191.104 373.321 189.505 367.563C189.106 365.651 186.708 366.606 185.509 367.089C180.712 369.486 175.916 371.878 171.92 375.238C171.122 381.949 168.723 388.657 169.522 395.37C170.321 397.287 171.92 397.767 173.52 397.767L173.119 398.723C167.526 402.558 161.531 406.392 155.535 408.789C155.933 406.392 158.332 404.957 159.131 402.558C163.527 391.056 164.723 378.591 167.124 366.135C170.321 348.873 174.318 331.614 177.117 314.367C179.113 309.09 180.314 303.814 185.109 299.981C186.311 314.364 191.106 327.305 193.504 341.205Z" fill="white"/>
<path d="M241.862 473.986C243.858 473.986 245.858 473.986 245.858 471.108C245.858 469.189 243.858 468.707 242.261 468.707H238.667V473.986H241.862ZM238.665 483.09H236.263V466.792H242.661C246.258 466.792 248.254 468.229 248.254 471.581C248.254 474.459 246.655 475.896 244.259 475.896L248.655 483.09H245.858L241.462 475.896H238.665V483.09ZM241.862 486.923C248.254 486.923 253.451 481.653 253.451 474.941C253.451 468.229 248.254 462.959 241.862 462.959C235.466 462.959 230.268 468.229 230.268 474.941C230.27 481.653 235.468 486.923 241.862 486.923ZM227.473 474.941C227.473 466.792 233.871 460.558 241.864 460.558C249.457 460.558 256.25 466.792 256.25 474.941C256.25 483.09 249.457 489.319 241.864 489.319C233.869 489.319 227.473 483.09 227.473 474.941Z" fill="black"/>
<path d="M213.087 204.113L211.884 204.589C210.286 212.737 208.291 223.766 208.291 231.914C211.087 230.472 214.687 229.518 217.083 226.638L213.087 204.113ZM222.277 210.82C225.074 221.367 227.07 232.871 230.267 243.417C230.668 244.853 233.064 245.813 233.064 246.77C228.668 250.129 223.877 253.001 219.079 254.918C219.876 251.565 220.678 247.251 220.276 243.417L218.276 236.228C217.88 234.786 216.28 235.268 215.083 235.747C212.282 238.619 207.09 239.1 205.09 242.935C205.09 248.685 202.293 253.482 203.495 259.235C204.293 261.152 206.689 261.152 209.087 261.152C202.694 264.985 197.099 269.3 190.305 272.175H190.707C197.899 254.918 198.698 235.268 203.094 217.535C206.689 202.673 206.689 186.38 214.284 172.954L215.085 172.473C214.685 185.896 220.28 197.88 222.277 210.82Z" fill="white"/>
</svg>
