<svg width="301" height="51" viewBox="0 0 301 51" fill="none" xmlns="http://www.w3.org/2000/svg">
<path d="M118.028 4.55815C118.033 3.65662 118.305 2.77676 118.81 2.02957C119.314 1.28238 120.029 0.701342 120.863 0.359769C121.697 0.0181958 122.614 -0.0686106 123.498 0.110302C124.381 0.289215 125.192 0.72583 125.828 1.36506C126.464 2.00429 126.896 2.8175 127.07 3.70207C127.244 4.58665 127.152 5.50297 126.806 6.33542C126.46 7.16786 125.875 7.87914 125.125 8.3795C124.375 8.87987 123.494 9.1469 122.592 9.14692C121.379 9.14029 120.219 8.65391 119.363 7.79406C118.508 6.93422 118.028 5.77083 118.028 4.55815Z" fill="black"/>
<path d="M190.195 35.0738C190.2 34.1722 190.472 33.2924 190.977 32.5452C191.481 31.798 192.196 31.217 193.03 30.8754C193.864 30.5338 194.781 30.447 195.665 30.6259C196.548 30.8048 197.359 31.2415 197.995 31.8807C198.631 32.5199 199.063 33.3331 199.237 34.2177C199.411 35.1023 199.319 36.0186 198.973 36.851C198.627 37.6835 198.042 38.3948 197.292 38.8951C196.542 39.3955 195.661 39.6625 194.759 39.6625C193.546 39.6559 192.386 39.1695 191.53 38.3097C190.675 37.4498 190.195 36.2865 190.195 35.0738Z" fill="black"/>
<path d="M42.9785 33.1184C42.0356 33.0951 41.1076 32.878 40.2523 32.4805C39.3971 32.083 38.6327 31.5137 38.007 30.808C37.3813 30.1023 36.9076 29.2754 36.6154 28.3787C36.3232 27.4819 36.2187 26.5346 36.3085 25.5958C36.2087 24.6553 36.3079 23.7043 36.5995 22.8046C36.8912 21.9048 37.3687 21.0765 38.0013 20.3734C38.6338 19.6702 39.4072 19.1079 40.2711 18.723C41.135 18.3381 42.0703 18.1392 43.0161 18.1392C43.9619 18.1392 44.8971 18.3381 45.7611 18.723C46.625 19.1079 47.3983 19.6702 48.0309 20.3734C48.6634 21.0765 49.141 21.9048 49.4326 22.8046C49.7243 23.7043 49.8234 24.6553 49.7237 25.5958C49.8217 26.5424 49.7205 27.4989 49.4266 28.4041C49.1328 29.3092 48.6528 30.1428 48.0175 30.8513C47.3822 31.5598 46.6057 32.1275 45.7378 32.518C44.87 32.9084 43.9301 33.1129 42.9785 33.1184ZM42.9785 11.2026C41.0793 11.1329 39.186 11.4544 37.4163 12.147C35.6466 12.8397 34.0381 13.8887 32.6907 15.229C31.3434 16.5693 30.2859 18.1723 29.584 19.9384C28.8821 21.7044 28.5507 23.596 28.6104 25.4955C28.5507 27.395 28.8821 29.2865 29.584 31.0526C30.2859 32.8187 31.3434 34.4217 32.6907 35.762C34.0381 37.1023 35.6466 38.1513 37.4163 38.8439C39.186 39.5366 41.0793 39.858 42.9785 39.7884C44.8829 39.8649 46.7827 39.5487 48.5597 38.8595C50.3367 38.1703 51.9528 37.1227 53.3076 35.7821C54.6623 34.4414 55.7267 32.8363 56.4345 31.0667C57.1423 29.297 57.4784 27.4006 57.4218 25.4955C57.4784 23.5904 57.1423 21.694 56.4345 19.9243C55.7267 18.1546 54.6623 16.5495 53.3076 15.2089C51.9528 13.8682 50.3367 12.8207 48.5597 12.1315C46.7827 11.4423 44.8829 11.1261 42.9785 11.2026Z" fill="black"/>
<path d="M109.177 26.2237C108.881 25.6652 108.51 25.1504 108.073 24.6941L107.823 24.4182L108.098 24.1675C108.521 23.7228 108.906 23.2448 109.252 22.7382L116.599 11.7803H107.672L102.156 20.3561C101.923 20.6086 101.633 20.8018 101.31 20.9195C100.987 21.0373 100.641 21.0762 100.3 21.0331H99.0462V4.8345C99.0462 1.59979 97.0402 1.14844 94.8586 1.14844H91.0723V39.3882H98.971V27.9288H99.7232C100.626 27.9288 101.228 27.9288 101.529 28.5306L105.892 36.7803C106.292 37.6586 106.971 38.3803 107.824 38.8336C108.676 39.2869 109.654 39.4466 110.606 39.2879H116.674L112.161 31.7653L109.177 26.0732" fill="black"/>
<path d="M147.567 11.153C146.073 11.1171 144.588 11.3929 143.206 11.9628C141.825 12.5326 140.577 13.3841 139.543 14.463L139.066 15.0146L138.891 14.3627C138.632 13.5396 138.089 12.8354 137.358 12.3761C136.628 11.9167 135.758 11.7321 134.904 11.8551H131.343V39.4379H139.192V26.6495C139.178 25.5263 139.347 24.4083 139.693 23.3396C140.064 21.936 140.897 20.6981 142.056 19.8248C143.216 18.9516 144.636 18.4938 146.087 18.5252C148.595 18.5252 149.498 19.8291 149.498 23.1641V35.0748C149.408 35.6453 149.454 36.2289 149.632 36.7782C149.811 37.3274 150.117 37.8266 150.525 38.235C150.933 38.6433 151.433 38.9493 151.982 39.1279C152.531 39.3064 153.115 39.3525 153.685 39.2624H157.421V21.7097C157.421 14.7388 154.036 11.0527 147.592 11.0527" fill="black"/>
<path d="M122.693 11.7803H118.982V39.3881H126.805V15.9679C126.894 15.4022 126.848 14.8238 126.672 14.279C126.496 13.7342 126.195 13.2383 125.792 12.8311C125.39 12.4239 124.898 12.1167 124.355 11.9342C123.813 11.7517 123.235 11.699 122.668 11.7803" fill="black"/>
<path d="M73.821 33.1184C72.8781 33.0951 71.9501 32.878 71.0948 32.4805C70.2395 32.083 69.4752 31.5137 68.8495 30.808C68.2238 30.1023 67.7501 29.2754 67.4579 28.3787C67.1656 27.4819 67.0612 26.5346 67.1509 25.5958C67.0197 24.638 67.0951 23.6632 67.372 22.737C67.649 21.8108 68.1211 20.9546 68.7566 20.2261C69.3921 19.4976 70.1762 18.9136 71.0563 18.5135C71.9363 18.1133 72.8918 17.9063 73.8586 17.9063C74.8253 17.9063 75.7808 18.1133 76.6609 18.5135C77.5409 18.9136 78.3251 19.4976 78.9605 20.2261C79.596 20.9546 80.0681 21.8108 80.3451 22.737C80.6221 23.6632 80.6974 24.638 80.5662 25.5958C80.6642 26.5424 80.563 27.4989 80.2691 28.4041C79.9753 29.3092 79.4953 30.1428 78.86 30.8513C78.2247 31.5598 77.4482 32.1275 76.5803 32.518C75.7125 32.9084 74.7726 33.1129 73.821 33.1184ZM73.821 11.2026C71.9197 11.1294 70.0237 11.4483 68.251 12.1393C66.4783 12.8304 64.8668 13.8789 63.5167 15.2196C62.1666 16.5602 61.1069 18.1644 60.4034 19.9322C59.7 21.7001 59.3679 23.5938 59.4278 25.4955C59.3679 27.3972 59.7 29.2909 60.4034 31.0587C61.1069 32.8266 62.1666 34.4308 63.5167 35.7714C64.8668 37.1121 66.4783 38.1606 68.251 38.8516C70.0237 39.5427 71.9197 39.8616 73.821 39.7884C75.7254 39.8649 77.6252 39.5487 79.4022 38.8595C81.1792 38.1703 82.7953 37.1227 84.1501 35.7821C85.5048 34.4414 86.5692 32.8363 87.277 31.0667C87.9848 29.297 88.3209 27.4006 88.2643 25.4955C88.3209 23.5904 87.9848 21.694 87.277 19.9243C86.5692 18.1546 85.5048 16.5495 84.1501 15.2089C82.7953 13.8682 81.1792 12.8207 79.4022 12.1315C77.6252 11.4423 75.7254 11.1261 73.821 11.2026Z" fill="black"/>
<path d="M242.226 33.1184C241.283 33.0951 240.355 32.878 239.5 32.4805C238.644 32.083 237.88 31.5137 237.254 30.808C236.629 30.1023 236.155 29.2754 235.863 28.3787C235.57 27.4819 235.466 26.5346 235.556 25.5958C235.424 24.638 235.5 23.6632 235.777 22.737C236.054 21.8108 236.526 20.9546 237.161 20.2261C237.797 19.4976 238.581 18.9136 239.461 18.5135C240.341 18.1133 241.297 17.9063 242.263 17.9063C243.23 17.9063 244.186 18.1133 245.066 18.5135C245.946 18.9136 246.73 19.4976 247.365 20.2261C248.001 20.9546 248.473 21.8108 248.75 22.737C249.027 23.6632 249.102 24.638 248.971 25.5958C249.069 26.5424 248.968 27.4989 248.674 28.4041C248.38 29.3092 247.9 30.1428 247.265 30.8513C246.629 31.5598 245.853 32.1275 244.985 32.518C244.117 32.9084 243.177 33.1129 242.226 33.1184ZM242.226 11.2026C240.324 11.1294 238.429 11.4483 236.656 12.1393C234.883 12.8304 233.272 13.8789 231.921 15.2196C230.571 16.5602 229.512 18.1644 228.808 19.9322C228.105 21.7001 227.773 23.5938 227.833 25.4955C227.833 29.3194 229.352 32.9868 232.056 35.6907C234.76 38.3947 238.427 39.9137 242.251 39.9137C246.075 39.9137 249.742 38.3947 252.446 35.6907C255.15 32.9868 256.669 29.3194 256.669 25.4955C256.726 23.5904 256.39 21.694 255.682 19.9243C254.974 18.1546 253.91 16.5495 252.555 15.2089C251.2 13.8682 249.584 12.8207 247.807 12.1315C246.03 11.4423 244.13 11.1261 242.226 11.2026Z" fill="black"/>
<path d="M173.971 31.9149C169.684 31.9149 168.154 28.1536 168.154 24.6431C168.154 23.0884 168.555 18.0483 173.57 18.0483C176.078 18.0483 179.388 18.7755 179.388 24.9189C179.388 31.0623 176.454 31.94 173.971 31.94V31.9149ZM183.45 11.7042C182.811 11.6545 182.171 11.7857 181.603 12.0828C181.036 12.38 180.563 12.831 180.24 13.3843L180.015 13.8106L179.638 13.4846C177.623 11.7865 175.051 10.8934 172.417 10.9771C165.07 10.9771 160.13 16.4936 160.13 24.7183C160.13 32.943 165.145 38.6852 172.667 38.6852C174.824 38.7842 176.952 38.1574 178.711 36.9048L179.312 36.4535V37.2308C179.312 40.9169 176.93 42.948 172.617 42.948C170.811 42.926 169.021 42.5952 167.326 41.97C167.01 41.8134 166.662 41.7306 166.309 41.7281C165.955 41.7256 165.606 41.8033 165.288 41.9555C164.969 42.1076 164.689 42.3302 164.469 42.6064C164.248 42.8825 164.094 43.2051 164.017 43.5498L163.39 45.1045L162.512 47.3612L163.064 47.6621C166.037 49.1863 169.326 49.9935 172.667 50.0192C179.363 50.0192 187.161 46.5839 187.161 36.9299V11.7042H183.45Z" fill="black"/>
<path d="M13.7161 32.8178H7.32197V25.0445C7.32197 23.4146 7.94885 22.5369 9.35306 22.3614H13.7161C14.3945 22.3275 15.0723 22.4383 15.7045 22.6864C16.3368 22.9344 16.909 23.3141 17.3833 23.8003C17.8576 24.2864 18.223 24.8679 18.4554 25.5061C18.6878 26.1442 18.7818 26.8246 18.7312 27.5018C18.7936 28.184 18.7081 28.8717 18.4807 29.5179C18.2532 30.1641 17.889 30.7536 17.413 31.2462C16.937 31.7389 16.3603 32.1231 15.7224 32.3727C15.0844 32.6223 14.4001 32.7313 13.7161 32.6924V32.8178ZM7.32197 12.1558V10.1498C7.32197 8.39452 8.07422 7.64226 9.70411 7.44166H12.9639C13.5747 7.37203 14.1934 7.43939 14.7749 7.63884C15.3564 7.8383 15.8861 8.16483 16.3256 8.59471C16.7651 9.02458 17.1033 9.54699 17.3155 10.124C17.5278 10.7009 17.6088 11.3179 17.5527 11.9301C17.6077 12.5402 17.5306 13.155 17.3266 13.7326C17.1227 14.3102 16.7966 14.8371 16.3706 15.2773C15.9447 15.7176 15.4288 16.0608 14.8583 16.2837C14.2877 16.5066 13.6758 16.6039 13.0642 16.569H7.32197V12.1558ZM21.8907 19.6784L20.7372 19.0264L21.7402 18.1739C22.7452 17.2884 23.5459 16.1953 24.087 14.9701C24.6282 13.7449 24.8969 12.4168 24.8746 11.0776C24.8746 4.98429 20.2106 1.17285 13.014 1.17285H3.86159C2.82814 1.21162 1.84958 1.64795 1.13009 2.3908C0.41059 3.13366 0.00573676 4.12566 0 5.15981L0 39.2621H13.1896C21.1886 39.2621 26.3541 34.899 26.3541 28.1287C26.4185 26.4665 26.0361 24.8175 25.2467 23.3533C24.4573 21.8891 23.2897 20.6634 21.8656 19.8037L21.8907 19.6784Z" fill="black"/>
<path d="M291.75 11.2527C290.134 11.2641 288.54 11.6371 287.087 12.3443C285.633 13.0516 284.356 14.0751 283.35 15.34L282.773 16.0672L282.322 15.2648C281.59 13.9402 280.49 12.8561 279.155 12.144C277.82 11.4319 276.307 11.1223 274.799 11.2527C273.433 11.2738 272.085 11.5738 270.839 12.1344C269.593 12.6949 268.475 13.5042 267.552 14.5125L266.8 15.3149L266.524 14.2618C266.267 13.4768 265.742 12.8076 265.04 12.3719C264.338 11.9362 263.505 11.7619 262.688 11.8796H259.378V39.4624H266.9V27.2507C266.906 26.1687 267.04 25.0911 267.302 24.0411C268.029 21.1073 269.985 17.9478 273.295 18.2738C275.326 18.4744 276.329 20.0541 276.329 23.0882V39.3871H283.851V27.2507C283.825 26.1322 283.969 25.0162 284.278 23.9408C284.464 22.4735 285.144 21.1133 286.206 20.0836C287.268 19.0538 288.648 18.4156 290.12 18.2738C292.427 18.2738 293.28 19.5777 293.28 23.1133V35.4002C293.28 38.1835 294.508 39.4122 297.292 39.4122H300.903V21.8596C300.903 14.8385 297.818 11.2778 291.75 11.2778" fill="black"/>
<path d="M223.496 29.834C221.497 31.8656 218.818 33.0887 215.973 33.2693C214.937 33.3416 213.897 33.1931 212.922 32.8339C211.947 32.4747 211.06 31.9127 210.318 31.1852C209.576 30.4577 208.997 29.5812 208.619 28.6135C208.241 27.6458 208.073 26.6089 208.125 25.5712C208.05 24.5515 208.191 23.5274 208.539 22.5659C208.887 21.6043 209.434 20.727 210.144 19.9911C210.853 19.2552 211.711 18.6772 212.659 18.295C213.607 17.9128 214.626 17.7348 215.647 17.7728C217.052 17.7728 218.656 18.2743 218.907 19.1269V19.2774C219.068 19.8645 219.418 20.3821 219.903 20.7495C220.388 21.1168 220.982 21.3134 221.59 21.3084H225.678V17.7227C225.678 12.9835 219.66 11.2533 215.647 11.2533C213.696 11.1356 211.742 11.4223 209.906 12.0954C208.071 12.7684 206.395 13.8134 204.982 15.1647C203.57 16.516 202.451 18.1446 201.698 19.9483C200.944 21.752 200.571 23.6919 200.602 25.6465C200.555 27.5882 200.909 29.5188 201.642 31.3176C202.375 33.1163 203.471 34.7444 204.862 36.1001C206.253 37.4557 207.909 38.5098 209.726 39.1963C211.543 39.8828 213.482 40.187 215.422 40.0898C217.588 40.1035 219.733 39.6644 221.719 38.8008C223.705 37.9372 225.489 36.6681 226.956 35.0747L227.182 34.7989L223.922 29.3827L223.496 29.834Z" fill="black"/>
</svg>
