<svg height="56" viewBox="0 0 56 56" width="56" xmlns="http://www.w3.org/2000/svg"><g fill="#fff" fill-rule="evenodd"><path d="m56 0h-56v56h56z"/><path d="m13.3634 18.7285c.0468-.4618-.1294-.9183-.4742-1.2291l-3.51265-4.2316v-.6321h10.90675l8.4304 18.4889 7.4117-18.4889h10.3975v.6321l-3.0034 2.8796c-.2589.1974-.3873.5217-.3337.8428v21.1578c-.0536.321.0748.6454.3337.8427l2.9331 2.8796v.6321h-14.7531v-.6321l3.0384-2.9498c.2986-.2985.2986-.3863.2986-.8428v-17.1018l-8.448 21.4563h-1.1416l-9.8354-21.4563v14.3803c-.082.6046.1188 1.2133.5445 1.6505l3.9517 4.7934v.6321h-11.20536v-.6321l3.95176-4.7934c.4226-.438.6116-1.0507.5093-1.6505z"/></g></svg>