<svg width="1524" height="500" viewBox="0 0 1524 500" fill="none" xmlns="http://www.w3.org/2000/svg">
<path fill-rule="evenodd" clip-rule="evenodd" d="M655.163 172.64C653.116 166.128 646.232 156.268 632.465 156.268C623.709 156.268 616.081 160.733 612.36 167.617C607.895 175.989 605.849 187.349 605.849 202.977C605.849 225.314 609.57 239.28 617.384 244.861C621.477 247.838 626.697 249.326 632.825 249.326C650.884 249.326 658.511 235.547 658.511 202.605C658.511 189.396 657.407 179.908 655.163 172.64ZM695.186 289.152C695.186 289.152 691.453 291.396 683.639 291.396C673.593 291.396 664.663 285.431 659.825 282.268C653.674 278.175 643.628 272.408 633.581 269.245C614.221 269.245 601.558 263.838 591.697 251.001C581.837 238.349 576.814 221.966 576.814 202.977C576.814 175.059 587.418 152.547 606.035 142.489C613.663 138.396 623.151 136.163 632.825 136.163C667.267 136.163 688.488 161.291 688.488 201.861C688.488 229.966 678.43 251.001 662.988 261.233C666.523 262.535 671.546 265.896 674.523 267.745C679.174 270.547 684.756 273.152 690.535 273.152C696.116 273.152 702.07 272.221 702.07 272.221L695.186 289.152Z" fill="black"/>
<path fill-rule="evenodd" clip-rule="evenodd" d="M770.698 269.803C767.535 267.57 764.93 264.396 763.256 260.489C757.105 266.454 748.174 269.617 738.128 269.617C724.721 269.617 713.186 263.291 710.023 254.164C708.535 249.884 707.977 244.861 707.977 235.187V174.129L732.546 169.477V230.71C732.546 239.28 733.291 243.745 734.581 246.35C735.895 248.954 739.616 250.815 743.337 250.815C749.477 250.815 756.918 246.35 758.779 241.698V174.687L782.605 169.664V242.443C782.605 248.768 784.651 255.28 788.372 259.745L770.698 269.803Z" fill="black"/>
<path fill-rule="evenodd" clip-rule="evenodd" d="M859.256 208.012C859.256 200.931 858.5 197.21 856.279 193.675C853.86 189.954 850.314 188.093 845.29 188.093C835.802 188.093 830.407 195.535 830.407 208.756V209.117H859.256V208.012ZM830.035 227.361V228.105C830.035 242.814 837.29 251.186 850.128 251.186C858.697 251.186 866.697 248.024 874.325 241.698L884 256.582C873.023 265.524 861.488 269.803 848.081 269.803C820.721 269.803 803.046 250.442 803.046 220.477C803.046 203.349 806.581 192 814.953 182.686C822.767 173.954 832.267 169.849 844.918 169.849C855.895 169.849 866.325 173.57 872.465 179.907C881.209 188.838 885.128 201.675 885.128 221.593V227.361H830.035Z" fill="black"/>
<path fill-rule="evenodd" clip-rule="evenodd" d="M953.384 208.012C953.384 200.931 952.639 197.21 950.407 193.675C947.977 189.954 944.465 188.093 939.419 188.093C929.93 188.093 924.546 195.535 924.546 208.756V209.117H953.384V208.012ZM924.163 227.361V228.105C924.163 242.814 931.43 251.186 944.256 251.186C952.814 251.186 960.837 248.024 968.465 241.698L978.139 256.582C967.174 265.524 955.616 269.803 942.209 269.803C914.86 269.803 897.174 250.442 897.174 220.477C897.174 203.349 900.709 192 909.093 182.686C916.907 173.954 926.407 169.849 939.058 169.849C950.046 169.849 960.453 173.57 966.605 179.907C975.349 188.838 979.256 201.675 979.256 221.593V227.361H924.163Z" fill="black"/>
<path fill-rule="evenodd" clip-rule="evenodd" d="M1047.52 267.198V205.21C1047.52 194.419 1045.66 191.257 1039.14 191.257C1034.13 191.257 1027.6 194.605 1021.84 199.815V267.198H996.895V198.14C996.895 189.954 995.791 182.14 993.535 175.803L1015.71 169.477C1017.93 173.384 1019.22 177.477 1019.22 181.396C1022.95 178.791 1026.13 176.559 1030.22 174.315C1035.23 171.71 1041.76 170.222 1047.34 170.222C1057.94 170.222 1067.26 175.803 1070.23 184.001C1071.52 187.536 1072.09 191.629 1072.09 197.582V267.198H1047.52Z" fill="black"/>
<path fill-rule="evenodd" clip-rule="evenodd" d="M1126.4 270.175C1114.67 270.175 1101.83 266.454 1087.88 259.187L1096.8 240.954C1104.43 245.605 1117.65 251.745 1128.44 251.745C1135.52 251.745 1141.09 247.094 1141.09 240.954C1141.09 234.442 1136.45 231.082 1126.4 229.222L1115.22 227.175C1108.91 226.059 1101.09 221.594 1097.73 217.501C1094.37 213.408 1092.33 206.512 1092.33 200.373C1092.33 181.756 1107.05 169.291 1129.19 169.291C1144.45 169.291 1154.51 173.954 1163.26 178.233L1155.06 194.977C1145.57 190.14 1138.69 188.094 1131.62 188.094C1124.35 188.094 1119.51 191.815 1119.51 197.396C1119.51 202.233 1122.67 204.838 1131.42 207.082L1142.95 210.059C1154.7 213.036 1158.6 216.57 1161.94 220.849C1165.48 225.315 1167.16 230.71 1167.16 237.036C1167.16 256.768 1150.79 270.175 1126.4 270.175Z" fill="black"/>
<path fill-rule="evenodd" clip-rule="evenodd" d="M1209.15 269.419C1198.55 269.419 1189.99 264.396 1187.01 256.396C1185.15 251.558 1184.77 248.582 1184.77 235V163.896C1184.77 151.43 1184.4 143.791 1183.46 135.233L1208.98 129.465C1209.91 134.675 1210.27 140.814 1210.27 154.221V228.477C1210.27 244.861 1210.45 247.093 1211.95 249.698C1212.88 251.372 1214.92 252.303 1216.96 252.303C1217.9 252.303 1218.46 252.303 1219.76 251.93L1224.06 266.814C1219.76 268.489 1214.56 269.419 1209.15 269.419Z" fill="black"/>
<path fill-rule="evenodd" clip-rule="evenodd" d="M1279.46 225.5C1262.16 225.5 1256.21 228.663 1256.21 240.024C1256.21 247.466 1260.85 252.489 1267.19 252.489C1271.84 252.489 1276.49 250.07 1280.22 245.977L1280.58 225.5H1279.46ZM1300.67 272.035C1294.91 269.617 1289.71 265.326 1287.28 260.489C1285.42 262.349 1283.37 264.21 1281.51 265.524C1276.86 268.872 1270.15 270.733 1262.35 270.733C1241.13 270.733 1229.59 259.942 1229.59 240.954C1229.59 218.617 1245.03 208.186 1275.38 208.186C1277.24 208.186 1278.9 208.186 1280.94 208.373V204.477C1280.94 193.861 1278.9 190.326 1269.79 190.326C1261.78 190.326 1252.49 194.233 1242.24 201.117L1231.64 183.256C1236.66 180.082 1240.38 178.233 1247.08 175.431C1256.4 171.524 1264.38 169.849 1273.13 169.849C1289.14 169.849 1300.14 175.803 1303.86 186.419C1305.15 190.326 1305.7 193.303 1305.51 203.535L1304.98 235.547C1304.77 245.977 1305.51 250.442 1313.9 256.768L1300.67 272.035Z" fill="black"/>
<path fill-rule="evenodd" clip-rule="evenodd" d="M1381.99 267.198V205.21C1381.99 194.419 1380.12 191.257 1373.6 191.257C1368.56 191.257 1362.07 194.605 1356.3 199.815V267.198H1331.34V198.14C1331.34 189.954 1330.22 182.14 1328 175.803L1350.14 169.477C1352.37 173.384 1353.69 177.477 1353.69 181.396C1357.41 178.791 1360.57 176.559 1364.65 174.315C1369.7 171.71 1376.2 170.222 1381.78 170.222C1392.38 170.222 1401.7 175.803 1404.67 184.001C1405.99 187.536 1406.53 191.629 1406.53 197.582V267.198H1381.99Z" fill="black"/>
<path fill-rule="evenodd" clip-rule="evenodd" d="M1484.29 197.023C1479.64 192.93 1475.19 190.884 1470.71 190.884C1459.55 190.884 1454.7 200.186 1454.7 221.407C1454.7 241.884 1459 248.582 1472.01 248.582C1476.66 248.582 1481.88 245.419 1484.29 242.442V197.023ZM1489.88 267.198C1489.13 265.71 1488.77 264.21 1488.41 261.616C1482.26 267 1474.99 269.616 1466.42 269.616C1442.23 269.616 1426.98 250.814 1426.98 221.221C1426.98 191.442 1443.53 170.965 1467.74 170.965C1474.62 170.965 1480.02 172.64 1484.69 176.372C1484.29 174.314 1483.93 167.803 1483.93 162.221V129.465L1508.69 133.372V232.384C1508.69 255.837 1510.55 263.465 1512.23 267.198H1489.88Z" fill="black"/>
<path fill-rule="evenodd" clip-rule="evenodd" d="M635.628 449.454C619.616 449.454 606.035 443.896 596.349 433.465C585.558 421.733 580.535 405.919 580.535 383.965C580.535 359.57 587.046 342.268 600.267 330.337C609.384 322.163 620.36 318.256 633.581 318.256C647.163 318.256 658.895 322.524 668.57 330.907L661.686 340.396C651.256 333.337 643.814 330.547 633.953 330.547C619.058 330.547 607.337 337.431 602.128 352.117C598.767 361.617 597.093 372.419 597.093 384.5C597.093 401.268 600.267 414.849 606.035 423.233C611.802 431.605 624.825 436.803 636.93 436.803C644.93 436.803 651.814 435.128 657.221 431.791V392.884H631.535L628.546 380.233H671.546V439.779C662.43 445.733 648.651 449.454 635.628 449.454Z" fill="black"/>
<path fill-rule="evenodd" clip-rule="evenodd" d="M755.628 375.757C751.709 367.559 743.523 363.861 735.895 363.861C727.709 363.861 720.07 367.768 716.907 373.896C713.93 379.664 712.442 387.117 712.442 398.082C712.442 411.117 714.674 422.664 718.221 428.431C721.57 434.012 729.012 437.745 737.012 437.745C746.686 437.745 753.953 432.722 757.116 423.768C759.163 418.001 759.907 412.803 759.907 403.675C759.907 390.664 758.605 381.896 755.628 375.757ZM736.639 449.85C711.139 449.85 696.628 431.036 696.628 400.512C696.628 370.361 711.698 351.943 736.081 351.943C751.523 351.943 761.581 359.001 767.907 368.129C773.674 376.512 776.465 387.478 776.465 402.559C776.465 433.466 759.907 449.85 736.639 449.85Z" fill="black"/>
<path fill-rule="evenodd" clip-rule="evenodd" d="M834.314 448.35H819.977L786.663 355.478L801.546 352.303L823.139 416.141C825.744 423.768 827.605 431.966 827.605 431.966H827.977C827.977 431.966 829.477 424.699 832.442 416.35L853.663 354.734H869.116L834.314 448.35Z" fill="black"/>
<path fill-rule="evenodd" clip-rule="evenodd" d="M936.058 371.85C932.907 366.838 926.384 363.652 919.314 363.652C906.093 363.652 898.651 373.35 897.907 392.524H940.349C940.151 382.466 938.849 376.327 936.058 371.85ZM897.907 403.489V405.722C897.907 414.489 899.023 421.187 902.186 426.024C907.395 434.013 915.953 437.373 925.267 437.373C934.198 437.373 941.465 434.582 947.977 428.629L953.546 437.92C945.372 445.373 934.198 449.455 922.291 449.455C896.605 449.455 881.151 430.861 881.151 400.152C881.151 384.501 884.5 374.466 892.326 365.152C899.767 356.408 908.884 352.303 920.046 352.303C930.105 352.303 938.849 355.85 945.186 362.361C953.186 370.559 955.791 379.303 955.791 401.443V403.489H897.907Z" fill="black"/>
<path fill-rule="evenodd" clip-rule="evenodd" d="M1021.27 368.698C1020.34 368.315 1018.65 367.954 1017.16 367.954C1011.59 367.954 1006.01 370.361 1001.72 374.652C997.442 378.919 996.337 381.71 996.337 389.338V447.419H981.802V375.943C981.802 362.361 978.639 356.233 978.639 356.233L993.151 352.303C993.151 352.303 996.698 359.571 996.128 367.384C1002.83 357.884 1012.71 351.943 1022.2 351.943C1024.6 351.943 1027.22 352.873 1027.22 352.873L1021.27 368.698Z" fill="black"/>
<path fill-rule="evenodd" clip-rule="evenodd" d="M1094.56 447.419V384.687C1094.56 374.826 1093.83 372.419 1091.22 369.245C1089.17 366.838 1085.27 365.338 1080.98 365.338C1073.52 365.338 1061.99 371.291 1055.29 378.373V447.419H1041.14V375.942C1041.14 362.721 1037.62 356.407 1037.62 356.407L1051.74 352.5C1051.74 352.5 1055.1 359.384 1055.1 367.024C1064.78 357.349 1074.45 352.687 1084.34 352.687C1094.37 352.687 1103.33 358.07 1107.02 366.268C1108.52 369.628 1109.27 373.349 1109.27 377.059V447.419H1094.56Z" fill="black"/>
<path fill-rule="evenodd" clip-rule="evenodd" d="M1238.95 447.42V378.92C1238.95 369.989 1234.86 365.338 1227.05 365.338C1218.67 365.338 1212.15 370.745 1202.48 379.664V447.42H1187.76V381.536C1187.76 375.943 1187.22 372.222 1185.17 369.629C1182.92 367.024 1179.95 365.908 1175.67 365.908C1168.59 365.908 1161.71 369.431 1152.03 378.187V447.42H1138.07V375.582C1138.07 362.187 1134.73 355.85 1134.73 355.85L1148.88 352.501C1148.88 352.501 1152.22 359.757 1152.22 366.268C1158.37 359.385 1169.73 352.303 1179.2 352.303C1188.33 352.303 1197.45 357.885 1200.8 367.768C1209.74 358.28 1221.08 352.303 1230.57 352.303C1244.36 352.303 1253.85 362.722 1253.85 377.443V447.42H1238.95Z" fill="black"/>
<path fill-rule="evenodd" clip-rule="evenodd" d="M1331.98 371.85C1328.79 366.838 1322.28 363.652 1315.21 363.652C1302 363.652 1294.55 373.35 1293.83 392.524H1336.24C1336.06 382.466 1334.77 376.327 1331.98 371.85ZM1293.83 403.489V405.722C1293.83 414.489 1294.93 421.187 1298.09 426.024C1303.31 434.013 1311.85 437.373 1321.16 437.373C1330.12 437.373 1337.36 434.582 1343.87 428.629L1349.46 437.92C1341.27 445.373 1330.12 449.455 1318.19 449.455C1292.5 449.455 1277.06 430.861 1277.06 400.152C1277.06 384.501 1280.4 374.466 1288.23 365.152C1295.69 356.408 1304.79 352.303 1315.96 352.303C1326 352.303 1334.77 355.85 1341.08 362.361C1349.09 370.559 1351.69 379.303 1351.69 401.443V403.489H1293.83Z" fill="black"/>
<path fill-rule="evenodd" clip-rule="evenodd" d="M1431.13 447.419V384.687C1431.13 374.826 1430.38 372.419 1427.77 369.245C1425.72 366.838 1421.81 365.338 1417.55 365.338C1410.1 365.338 1398.56 371.291 1391.86 378.373V447.419H1377.71V375.942C1377.71 362.721 1374.17 356.407 1374.17 356.407L1388.33 352.5C1388.33 352.5 1391.66 359.384 1391.66 367.024C1401.36 357.349 1411.03 352.687 1420.88 352.687C1430.95 352.687 1439.87 358.07 1443.59 366.268C1445.09 369.628 1445.83 373.349 1445.83 377.059V447.419H1431.13Z" fill="black"/>
<path fill-rule="evenodd" clip-rule="evenodd" d="M1508.33 365.721H1488.98V425.454C1488.98 435.698 1491.77 439.233 1500.87 439.233C1504.99 439.233 1507.4 438.675 1510 437.373L1512.05 446.663C1507.4 449.094 1502.19 450.384 1495.67 450.384C1490.84 450.384 1487.12 449.454 1483.57 447.803C1477.05 444.617 1474.64 438.675 1474.64 429.361V365.721H1462.53V354.733H1474.64C1474.64 345.803 1476.12 331.268 1476.12 331.268L1491.38 327.931C1491.38 327.931 1489.52 342.442 1489.52 354.733H1512.8L1508.33 365.721Z" fill="black"/>
<path fill-rule="evenodd" clip-rule="evenodd" d="M115.326 52.0352C126.174 57.3026 129.651 47.5468 149.907 60.6631C136.465 64.9073 126.174 81.4654 111.07 77.2212C121.919 71.8491 120.791 63.9189 127.07 59.9771C123.046 59.4073 115.209 57.6282 115.326 52.0352ZM154.267 159.814C147.767 157.128 137.814 155.465 132.221 163.303C129.186 158.035 133.686 150.07 136.465 147.721C122.256 147.965 114.209 143.617 112.07 139.338C117.337 136.431 130.651 131.617 141.512 139.535C149.012 145.07 152.814 147.721 161.651 150.663C164.872 147.419 163.674 148.872 164.663 147.965C157.407 142.907 154.151 104.198 139.93 102.756C141.953 97.8143 149.349 98.2794 155.279 99.8375C155.698 91.1515 152.139 76.8608 146.721 68.605C155.035 64.2445 160.698 68.9305 163.546 79.2445C166.593 90.1631 163 117.512 170.151 142.128L174.628 137.989C172.395 123.651 188.174 118.407 191.651 111.244C192.977 120.872 190.988 125.256 188.279 128.698C194 129.372 196.57 134.965 195.686 138.884C181.93 136.861 173.942 150.698 177 161.593C166.849 163.849 159.872 162.128 154.267 159.814ZM221.535 167.768C209.663 168.431 198.035 183.896 202.965 201.431C201.151 202.128 196 202.024 194.326 198.431C193.105 204.14 181.465 210.756 172.965 209.861C177.651 204.814 180.802 193.384 189.965 187.361C199.151 181.291 203.279 177.151 206.535 166.861C202.279 168.884 180.128 174.593 173.849 167.768C188.407 165.64 205.639 157.489 214.139 152.117L210.791 148.512C201.616 153.71 189.43 157.884 183.233 159.861C181.035 141.628 198.395 142.338 199.698 147.279C206.872 138.768 201.826 126.57 196.57 125.256C201.942 110.686 196.57 101.744 191.988 96.3724C190.872 111.803 173.628 114.268 171.628 126.14C170.942 116.721 170.326 91.291 169.593 78.8724C168.256 55.8375 139.151 47.7794 134.674 47.7794C115.651 48.6747 113.872 46.2212 114.314 37.3608C104.686 48.3375 107.942 58.0701 116.093 62.8026C114.977 69.384 104.453 74.5236 97.9651 75.9771C113.419 90.3259 131.314 81.8143 139.93 73.6398C140.57 73.0468 141.174 72.5003 141.779 72.0003C144.872 77.4422 147.105 87.4189 147.105 93.1398C132.663 92.3143 130.093 103.512 130.093 107.558C148.442 99.9422 150.453 135.07 155.279 140.791C150.57 140.454 142.279 129.605 130.093 128.814C115.395 127.861 110.174 135.733 104.233 135.407C105.372 145.838 118 151.651 126.174 152.872C122.023 163.524 125.674 170.71 134.349 173.338C134.349 163.628 146.651 160.605 159.86 168.314C175.663 177.558 183.802 178.396 196.57 174.489C194.43 179.058 188.721 179.535 181.686 186.442C171.814 196.163 171.5 208.814 160.535 213.442C173.407 219.582 192.884 210.954 195.686 206.058C201.058 209.396 207.988 207.396 209.884 204.024C201.151 184.675 215.93 173.14 221.756 173.338C221.756 173.338 224.349 167.605 221.535 167.768Z" fill="black"/>
<path fill-rule="evenodd" clip-rule="evenodd" d="M355.488 62.5466C361.977 57.8722 366.139 55.8373 369.477 53.814C375.081 54.0582 384.709 53.3954 390.535 50.4536C384.477 57.8722 383.802 60.5582 373.953 61.6629C386.721 62.8024 392.081 74.1977 398.384 75.9768C377.081 82.4884 374.953 61.314 355.488 62.5466ZM381.802 126.244C388.174 131.488 386.07 138.884 384.581 140.547C378.977 130.942 361.081 134.302 343.523 154.105C342.291 155.593 340.651 157.302 338.663 159.035C340.046 135.314 320.628 134.919 314.884 137.326C315.546 130.5 319.779 125.791 322.035 125.128C316.325 118.5 315.093 110.14 314.442 104.093C323.942 108.221 338.023 119.302 340.384 138.43L346.546 134.302C344.709 100.849 345.081 100.965 344.849 78.221C344.837 75.0582 344.988 67.6047 355.116 68.4303C355.535 76.8605 356.825 99.3024 356.384 130.5H359.977C363.221 121.756 374.767 111.57 388.174 112.465C397.325 113.081 400.477 112.907 405.756 110.581C401.488 120.977 385.825 125.558 381.802 126.244ZM362.43 114.605C362.43 93.0349 361.674 75.2791 361.395 69.6861C362.221 69.9187 363.093 70.1745 364.011 70.5001C379.511 75.907 383.023 94.5815 415.023 73.4187C397.918 75.4303 397.023 60.8605 389.174 60.5582C401.046 53.814 401.825 38.3838 401.825 38.3838C391.86 46.4303 368.802 46.8838 364.325 49.5815C358.372 53.1512 350.837 57.5349 345.744 60.314C332.453 67.5931 341.721 106.988 340.384 121.442C333.221 99.9419 318.686 103.174 311.07 90.8605C305.349 101.163 311.407 118.407 313.732 123.314C305.453 130.058 307.709 142.477 309.709 145.837C316.779 140.733 327.709 142.012 331.046 150.57C321.767 156.209 306.221 157.221 295.605 146.942L291.802 151.198C299.302 161.093 318.07 164.954 332.023 156.965C331.942 159.233 331.453 161.767 330.546 164.57C323.302 168.372 313.93 170.465 303.232 166.779C304.686 177.628 317.105 185.674 328.965 188.907C324.942 192.058 320.011 193.279 316.43 192.826C318.686 199.105 319.907 207.512 315.209 214.105C309.291 210.174 306.151 206.267 303.907 191.058C301.651 175.837 290.698 160.395 282.198 157.221C281.744 162.616 281.744 160.268 282.651 163.744C305.244 180.302 292.477 210.174 315.988 220.93C324.616 211.081 324.709 207.605 323.384 198.326C331.884 196.07 338.267 188.907 340.5 183.43C332.453 187.244 319.686 180.512 316.105 175.244C330.081 174.814 343.046 164.256 356.291 150.407C368.139 137.988 383.942 139.919 382.698 149.628C390.86 148.419 394.128 137.198 391.418 130.058C403.395 126.244 412.802 117.384 414.163 103.512C398.035 111.57 377.663 98.2791 362.43 114.605Z" fill="black"/>
<path fill-rule="evenodd" clip-rule="evenodd" d="M275.372 188.128C274.244 188.128 273.267 188.675 272.628 189.489C271.43 189.256 270.174 189.082 268.86 188.907L268.907 182.023C270.151 181.489 271 180.256 271 178.837C271 176.93 269.442 175.372 267.535 175.372C265.616 175.372 264.058 176.93 264.058 178.837C264.058 180.163 264.791 181.279 265.872 181.861L265.814 188.535C264.639 188.407 263.442 188.291 262.174 188.175C261.628 186.954 260.419 186.128 259.023 186.128C257.105 186.128 255.558 187.663 255.558 189.582C255.558 191.523 257.105 193.047 259.023 193.047C260.244 193.047 261.326 192.43 261.93 191.442C263.279 191.593 264.558 191.721 265.779 191.861L265.698 201.977C264.581 202.558 263.837 203.698 263.837 205.035C263.837 206.942 265.384 208.512 267.314 208.512C269.221 208.512 270.791 206.942 270.791 205.035C270.791 203.628 269.942 202.43 268.744 201.872L268.837 192.221C269.965 192.372 271.058 192.547 272.105 192.733C272.57 194.093 273.86 195.082 275.372 195.082C277.279 195.082 278.849 193.547 278.849 191.605C278.849 189.698 277.279 188.128 275.372 188.128Z" fill="black"/>
<path fill-rule="evenodd" clip-rule="evenodd" d="M245.372 186.128C243.965 186.128 242.756 186.954 242.209 188.175C240.976 188.291 239.744 188.407 238.593 188.535L238.535 181.861C239.593 181.279 240.337 180.163 240.337 178.837C240.337 176.93 238.79 175.372 236.872 175.372C234.942 175.372 233.395 176.93 233.395 178.837C233.395 180.256 234.256 181.489 235.476 182.023L235.546 188.907C234.232 189.082 232.953 189.256 231.756 189.489C231.116 188.675 230.139 188.128 229.023 188.128C227.116 188.128 225.558 189.698 225.558 191.605C225.558 193.547 227.116 195.082 229.023 195.082C230.546 195.082 231.825 194.093 232.302 192.733C233.337 192.547 234.418 192.372 235.569 192.221L235.651 201.872C234.453 202.43 233.628 203.628 233.628 205.035C233.628 206.942 235.186 208.512 237.093 208.512C239 208.512 240.558 206.942 240.558 205.035C240.558 203.698 239.802 202.558 238.686 201.977L238.616 191.861C239.837 191.721 241.116 191.593 242.453 191.442C243.069 192.43 244.139 193.047 245.372 193.047C247.29 193.047 248.837 191.523 248.837 189.582C248.837 187.663 247.29 186.128 245.372 186.128Z" fill="black"/>
<path fill-rule="evenodd" clip-rule="evenodd" d="M252.186 215.431C247.058 225.291 237.477 224.977 229.151 219.477C225.791 217.257 222.337 215.803 219.186 215.303C220.628 205.605 223.035 187.315 224.744 171.873C235.57 166.989 248.93 165.815 252.186 178.303C255.465 165.815 268.825 166.989 279.639 171.873C281.372 187.315 283.756 205.605 285.209 215.303C282.07 215.803 278.616 217.257 275.244 219.477C266.895 224.977 257.337 225.291 252.186 215.431ZM291.302 215.768C289.197 201.838 284.186 162.78 283.604 149.722L277.651 149.989C277.744 152.233 277.977 155.175 278.279 158.571C271.128 156.489 261.744 155.012 252.186 155.012C242.639 155.012 233.267 156.489 226.128 158.571C226.43 155.175 226.651 152.233 226.744 149.989L220.779 149.722C220.209 162.78 215.186 201.838 213.07 215.768C209.546 217.175 207.209 220.71 207.209 227.082C207.209 227.082 239.651 227.547 252.186 227.547C264.732 227.547 297.186 227.082 297.186 227.082C297.186 220.71 294.837 217.175 291.302 215.768Z" fill="black"/>
<path fill-rule="evenodd" clip-rule="evenodd" d="M237.198 277.895C233.837 276.802 223.349 279.686 222.198 282.605C221.314 284.849 223.291 290 227.244 292.465C229.593 293.919 239.105 291 240.675 288.733C241.989 286.872 240.558 279 237.198 277.895ZM203.186 247.93C198.477 255.302 193.872 258.988 185.058 264C185.058 264 185.058 283.488 185.058 294.233C196.675 304.535 211.907 295.57 217.942 291.988C216.151 289.105 215.489 287.081 214.686 283.605C199.942 285.163 194.326 277.686 191.314 266.698C191.314 266.698 194 264.93 196.675 263.593C201.826 280.372 211.244 278.012 218.617 277.686C223.43 273.314 230.14 271.849 236.082 272.314C234.5 265.593 230.035 257.081 225.558 249.698C229.593 247.128 234.396 244.116 237.651 238.942C217.849 246.012 209.337 243.523 192.547 238.837C195.558 243.116 199.698 246.221 203.186 247.93ZM183.372 231.337C202.058 238.058 223.093 242.302 245.477 231.105C242.57 241.081 238.198 247 232.721 251.279C235.849 259.116 240.779 268.826 242.803 276.663C248.733 280.581 247.605 287.302 246.605 291.802C245.675 295.954 232.047 300.872 227.57 299.523C223.349 298.233 223.326 296.291 221.198 296.488C215.268 297.023 196.803 315.198 179 297.826C179 281.256 179 260.43 179 260.43C185.942 256.616 191.756 253.175 195.117 248.256C191.186 245.663 185.605 238.616 183.372 231.337Z" fill="black"/>
<path fill-rule="evenodd" clip-rule="evenodd" d="M309.046 252.814C306.07 252.105 293.279 251.396 289.023 260.954C286.581 261.035 283.918 260.047 282.418 258.524C280.744 260.686 278.163 262.105 274.593 263.128C277.674 269.454 284.023 268.384 287.849 265.349C287.732 266.198 287.686 267.093 287.686 268.058C287.686 283.605 304.244 287.5 314.442 281.698C312.744 286.756 313.523 293.14 314.221 297.384C314.221 297.384 279.5 297.384 274.139 297.384C274.814 293.14 280.174 288.198 284.651 285.07L281.07 279.477C276.721 281.361 272.628 283.128 267.93 284.361C256.825 287.245 257.477 279.303 268.988 276.105V272.977L261.605 272.849C263.384 265.035 278.605 255.093 285.442 252.698C285.058 244.233 296.279 241.431 305.244 241.21C316.395 240.884 319.023 252.861 319.023 256.547C319.023 261.5 317.732 272.372 311.558 275.779C302.616 280.71 294.988 273.907 294.988 267.733C294.988 261.012 299.639 257.082 307.709 258C315.756 258.861 315.163 254.349 309.046 252.814ZM326.511 256.175C326.511 244.768 318.244 234.372 305.453 234.372C293.709 234.372 279.058 240.093 278.163 250.361C260.93 260.431 252.767 269.512 255.325 278.14C249.512 284.384 253.977 296.035 271.221 288.64C266.639 293.14 264.965 298.733 264.965 303.419C281.291 303.419 318.686 303.419 322.918 303.419C316.884 271.628 326.511 277.221 326.511 256.175Z" fill="black"/>
<path fill-rule="evenodd" clip-rule="evenodd" d="M275.977 363.756V357.419H302.488V364.221C298.674 363.221 294.256 362.675 289.128 362.675C284.023 362.675 279.744 363.07 275.977 363.756ZM289.128 326.012C293.57 331.942 295.895 340.442 296.186 351.942H282.07C282.36 340.442 284.674 331.942 289.128 326.012ZM308 365.989V351.942H301.686C301.337 337.361 297.872 326.837 291.093 319.861L289.128 317.826L287.151 319.861C280.395 326.837 276.918 337.361 276.558 351.942H270.488V365.151C262.686 367.593 257.267 371.71 250.756 376.698L250.535 376.884L253.884 381.244L254.104 381.07C264.256 373.303 270.953 368.163 289.128 368.163C307.918 368.163 315.465 376.035 320.825 384.582L325.465 381.663C321.721 375.663 316.686 369.605 308 365.989Z" fill="black"/>
<path fill-rule="evenodd" clip-rule="evenodd" d="M303.581 391.431C304.86 386.756 303.721 382.373 301.384 379.733C299.023 376.989 294.86 375.256 290.058 375.907L295.349 381.931L286.093 389.733L281.988 384.977C281.988 384.977 283.5 383.663 285.674 381.779C282.453 378.059 277.918 374.861 271.465 376.314C269.139 382.5 271.651 387.396 274.872 391.152C277.081 389.245 278.593 387.931 278.593 387.931L282.651 392.605L271.337 402.128L274.93 406.245L285.953 396.407L289.605 400.582C289.605 400.582 287.291 404.07 290.663 407.989C293.221 405.78 297.593 401.966 300.128 399.745C296.756 395.873 292.988 397.652 292.988 397.652L289.291 393.407L298.302 385.338L303.581 391.431Z" fill="black"/>
<path fill-rule="evenodd" clip-rule="evenodd" d="M237.419 339C233.872 347.419 230.419 356.105 229.372 358.768C227.535 358.524 225.512 358.326 223.43 358.233C225.861 350.861 228.744 340.326 231.151 333.721C232.837 329.163 240.733 331.175 237.419 339ZM233.628 384.012C231.721 384.675 229.244 385.558 226.907 385.803C227.349 387.698 227.802 389.593 228.128 390.942C225 391.605 219.965 391.954 216.593 391.954C213.244 391.954 208.198 391.605 205.082 390.942C205.407 389.593 205.861 387.698 206.314 385.803C203.954 385.558 201.5 384.675 199.593 384.012C200.582 380.617 202.116 377.256 203.372 372.57C207.64 373.547 211.803 373.919 216.593 373.919C221.407 373.919 225.57 373.547 229.826 372.57C231.105 377.256 232.616 380.617 233.628 384.012ZM195.779 339C192.465 331.175 200.372 329.163 202.058 333.721C204.477 340.326 207.349 350.861 209.768 358.233C207.698 358.326 205.675 358.524 203.837 358.768C202.791 356.105 199.349 347.419 195.779 339ZM231.07 363.617C231.326 364.872 231.372 366.57 231.151 367.861C227.57 368.907 221.314 369.442 216.593 369.442C211.907 369.442 205.64 368.907 202.058 367.861C201.837 366.57 201.872 364.872 202.151 363.617C204.5 362.686 213.814 362.268 216.593 362.268C219.384 362.268 228.686 362.686 231.07 363.617ZM216.593 326.698C217.163 322.826 228.186 322.047 226.128 330.617C224.035 339.303 221.419 349.314 219.419 358.082C218.489 358.047 217.547 358.047 216.593 358.047C215.663 358.047 214.733 358.047 213.802 358.082C211.779 349.314 209.175 339.303 207.093 330.617C205.035 322.047 216.035 322.826 216.593 326.698ZM231.303 325.791C229.861 317.558 220.628 316.64 216.547 320.314C212.454 316.64 203.337 317.558 201.907 325.791C187.233 323.593 188.849 337.442 190.686 341.268C192.349 344.663 196.349 353.965 199.07 359.698C198.628 359.814 198.186 359.93 197.803 360.024C197.14 363.268 197.023 367.64 197.582 371.012C198.244 371.221 198.907 371.419 199.558 371.64C198.07 376.117 195.291 383.233 193.779 386.477C195.779 387.698 197.907 388.71 200.942 389.372C200.942 389.372 200.372 391.954 199.593 394.524C203.616 395.872 211.465 396.791 216.593 396.791C221.756 396.791 229.593 395.872 233.628 394.524C232.837 391.954 232.268 389.372 232.268 389.372C235.303 388.71 237.419 387.698 239.442 386.477C237.919 383.233 235.151 376.117 233.64 371.64C234.291 371.419 234.965 371.221 235.628 371.012C236.186 367.64 236.082 363.268 235.407 360.024C235.023 359.93 234.593 359.814 234.151 359.698C236.872 353.965 240.849 344.663 242.512 341.268C244.349 337.442 245.989 323.593 231.303 325.791Z" fill="black"/>
<path fill-rule="evenodd" clip-rule="evenodd" d="M204.407 257.082C208.651 258.199 210.977 257.35 215.047 257.082C216.709 256.978 220.174 258.071 219.291 262.466C218.849 264.664 219.628 265.827 220.279 267.385C216.709 266.943 213.244 268.489 210.442 267.152C206.57 265.292 207.314 259.978 204.407 257.082Z" fill="black"/>
<path fill-rule="evenodd" clip-rule="evenodd" d="M442.012 211.198C440.895 224.629 430.477 244.989 418.407 255.303L426.233 255.187C434.512 247.222 448.395 232.675 450.419 206.059C450.419 206.059 445.035 209.303 442.012 211.198Z" fill="black"/>
<path fill-rule="evenodd" clip-rule="evenodd" d="M396.791 182.558C397.919 180.965 397.558 178.268 401.372 177.268C404.837 176.384 405.081 178.942 406.535 179.291C408.535 179.744 408 179.535 406.86 181.198C405.756 182.861 406.093 185.454 402.628 185.779C398.802 186.163 399.232 184.14 397.302 184.14C395.163 184.14 395.337 183.57 396.791 182.558Z" fill="black"/>
<path fill-rule="evenodd" clip-rule="evenodd" d="M510.616 216.349C507.372 219.907 497.058 224.186 484.744 224.733C487.209 227.314 491.244 229.221 493.942 230.558C490.488 231.337 485.546 231.465 481.174 231.675C483.186 235.151 486.209 239.616 487.325 241.512C483.86 241.512 480.616 241.302 476.581 241.082C478.616 244.872 479.058 246.558 480.86 249.698C478.163 249.698 473.011 249.791 470.209 249.361C471.116 251.942 472.663 255.396 473.476 257.419C471.895 257.419 469.314 257.419 467.744 257.535C455.883 273.989 439.209 291.326 407.86 289.64C408.767 292.349 409.43 295.151 409.663 295.151C414.337 295.384 423.686 294.547 430.581 293.396C435.349 298.686 443.988 311.384 448.5 330.721C451.976 332.861 457.465 342.349 460.139 354.454C454.546 357.698 449.511 359.256 442.244 360.023C439.546 344.616 431.604 344.082 427.814 331.291C422.418 331.977 414.709 327.837 412.569 320.314H405.523C404.151 335.116 407.407 348.721 410.093 360.302C411.337 365.791 412.476 370.791 412.895 375.256C413.79 384.256 410.128 419.035 409.988 433.384C416.604 433.14 421.639 434.803 421.407 440.303C410.988 437.058 392.988 439.058 384.476 453.186C382.465 452.047 381.128 446.209 384.581 444.465C380.546 440.105 377.081 437.058 369.721 439.151C372.849 433.942 380.232 430.558 402.383 436.175C404.628 428.558 406.639 379.989 406.197 369.523C406.244 367.779 405.197 364.547 403.546 360.302H403.523C398.186 346.802 386.442 323.605 383.686 307.896C379.883 307.896 374.29 308.675 372.383 306.779C367.616 302.012 357.174 286.628 355.151 271.628C351.581 265.593 345.604 242.582 363.546 229.675C375.976 220.698 404.581 209.756 404.395 199.314C404.29 193.047 393.663 188.372 390.093 185.779C386.488 183.768 387.814 181.954 390.86 178.942C407.639 162.512 427.569 178.605 415.93 198.547C407.349 213.209 363.883 225.977 373.849 253.512C383.349 254.268 387.965 257.756 391.511 262.465C400.151 259.442 433.616 244.651 436.86 202.128C445.244 196.872 453.872 191.14 462.046 184.442C463.616 195.186 461.825 263.907 399.814 279.686C401.488 285.523 414.802 287.209 422.639 276.663C430.267 278.454 439.442 272.198 439.674 266.268C446.488 266.268 453.756 258.744 452.639 251.709C461.023 248.907 464.953 237.826 461.383 229.442C468.651 226.186 471.116 217.582 467.86 209.175C473.674 205.244 475.476 195.186 470.546 188.814C473.476 183.43 472.779 178.942 470.546 175.372C481.756 164.954 496.069 151.744 505.023 135.651C505.697 146.733 499.86 155.919 493.151 165.965C505.023 158.361 507.732 156.558 515.081 150.744C512.953 163.396 498.418 175.023 493.383 180.744C500.302 177.965 510.849 172.907 518.79 168.64C511.953 182.558 500.093 190.477 493.046 194.826C502.802 193.047 509.709 191.605 516.081 189.361C510.395 195.744 499.756 202.896 487.686 206.477C497.418 206.268 505.116 205.128 513.523 202.675C507.267 209.175 498.093 215.349 487.325 216.675C498.314 216.675 500.302 217.465 510.616 216.349ZM370.744 360.302C369.395 363.919 368.256 367.64 367.36 371.791C366.569 375.465 358.407 374.57 357.29 371.791C356.383 369.523 354.744 365.361 352.802 360.302C348.128 348.058 341.744 330.686 340.163 323.349C336.918 328.593 333.453 331.396 329.744 328.047C343.081 322.093 338.372 286.163 333.221 284.384C339.604 278.675 346.756 300.396 342.616 316.64C346.593 327.907 354.43 350.919 357.569 360.302C358.244 362.314 358.709 363.663 358.86 364.221C359.767 367.105 363.453 366.861 364.325 364.221C364.616 363.233 365.035 361.919 365.558 360.302C368.628 350.291 375 328.872 373.953 315.5C380.232 316.64 382.035 322.43 384.256 329.837C379.081 342.302 374.256 350.861 370.744 360.302ZM456.779 131.256C460.139 136.861 462.709 146.942 462.709 155.465C466.988 151.198 469.779 144.244 471.209 139.209C473.116 143.023 472.895 153.105 472.453 157.593C477.244 153.558 480.29 147.965 483.186 142.244C483.767 146.372 483.86 149.989 483.186 154.023C472.895 164.954 456 179.535 438.209 194.384C447.849 174.489 453.872 157.919 456.779 131.256ZM527.628 193.512C525.86 193.977 521.697 195.186 519.011 195.512C524.151 190.477 527.302 184.326 527.302 179.175C524.837 179.965 520.349 181.651 516.325 182.558C524.383 175.709 528.744 167.768 526.86 157.221C524.383 158.489 520.895 160.489 517.453 161.942C524.488 151.082 524.383 141.57 521.476 135.977C518.349 138.884 514.535 142.337 510.511 144.826C513.069 132.291 512.953 124.233 507.732 118.651C502.349 128.698 497.756 136.186 490.256 145.14C490.814 136.861 489.918 126.57 484.523 121.209C484.523 121.209 482.976 132.733 478.942 136.43C477.953 125.128 474.476 118.954 469.314 112.907C469.314 112.907 468.965 124.675 465.756 131.954C463.046 122.093 458.011 114.489 451.523 107.186C451.976 128.93 445.942 169.884 428.476 197.419C426.453 213.744 424.663 238.268 398.035 252.814C394.221 250.14 387.488 246.675 377.988 247.221C375.523 234.93 391.651 223.744 405.523 214.756C419.569 205.721 425.639 197.977 425.337 185.884C425.011 172.698 416.046 167.268 406.756 166.861C393.663 166.326 383.023 178.175 380.546 183.105C376.756 184.884 365.558 188.372 360.976 189.582C355.895 190.942 350.116 193.047 346.546 196.07C348.663 197.419 354.825 197.861 357.174 197.57C361.604 196.896 375.756 194.302 389.29 192.605C394.221 195.279 402.162 199.768 393.767 205.605C382.256 212.989 377.337 214.884 361.081 223.384C335.453 236.814 343.744 270.605 350.035 273.093C350.035 284.489 360.197 305.116 367.116 312.279C370.267 326.593 366.139 347.965 361.756 356.826C358.197 348.105 352.023 327.919 347.988 316.163C352.128 293.919 345.43 284.175 340.709 280.372C336.023 276.558 328.639 277.57 323.814 285.302C331.221 284.489 333.686 293.954 333.523 303.756C333.337 315.5 330.349 324.942 322.151 325.012C322.802 335.07 333.663 337.907 339.046 333.093C339.895 335.314 344.232 348.547 348.372 360.302C350.802 367.256 353.174 373.733 354.709 377.047C356.442 380.802 368.918 381.349 370.383 377.047C372.337 371.302 373.918 366.965 377.046 360.302C379.418 355.198 382.697 348.686 387.732 339.128C391.093 344.942 395.57 354.07 398.139 360.302C399.36 363.221 400.174 365.5 400.267 366.535C401.267 376.198 400.697 410.175 398.139 430.558C370.151 422.919 362.221 436.616 364.663 446.802C368.697 442.291 373.953 442.872 377.197 445.233C376.418 452.721 378.442 458.093 386.069 460.326C394.128 439.058 422.988 443.779 425.662 445.547C425.79 441.419 429.686 431.105 414.802 428.989C415.36 410.616 417.267 388.128 417.953 383.43C418.639 378.756 419.174 375.814 416.93 368.454C416.267 366.233 415.465 363.523 414.616 360.302C412.686 352.861 410.709 343.116 410.569 332.651C413.128 335.209 419.29 337.244 423.546 336.302C426.79 350.198 431.476 346.186 433.965 351.989C435.221 354.977 435.5 357.802 435.849 360.302C436.174 362.686 436.558 364.837 437.883 366.663C447.802 366.965 456.256 364.547 462.325 360.302C464.174 359 465.79 357.547 467.174 355.896C464.721 341.128 460.581 333.861 452.86 324.93C450.849 312.802 445.197 301.744 437.442 291.965C447.209 288.733 457.093 280.837 462.267 275.326C466.988 274.977 472.349 271.093 472.779 263.465C475.476 263.128 477.825 263.012 479.942 262.547C479.732 260.43 479.174 257.302 478.825 255.396C482.418 255.396 485.895 255.302 489.232 254.965C488.232 252.151 487.011 249.244 486 247.128C489.593 247.128 494.046 246.884 497.628 246.675C495.732 243.116 494.29 239.965 493.151 236.814C497.29 236.361 503.697 235.372 508.93 234.128C507.267 232.337 505.36 230.558 502.442 227.756C516.081 223.744 522.035 214.221 522.709 210.082C520.697 210.082 516.546 210.954 514.104 210.756C521.697 206.268 526.86 200.093 527.628 193.512Z" fill="black"/>
<mask id="mask0" mask-type="alpha" maskUnits="userSpaceOnUse" x="64" y="335" width="388" height="165">
<path d="M64.3469 335.253H451.86V499.302H64.3469V335.253Z" fill="white"/>
</mask>
<g mask="url(#mask0)">
<path fill-rule="evenodd" clip-rule="evenodd" d="M451.86 344.14C451.418 342.581 449.395 340.547 446.953 336.767C444.139 337.442 441.232 337.64 437.523 337.442C439.767 342.349 439.767 345.244 439.767 345.058C443.139 345.733 447.372 345.244 451.86 344.14Z" fill="black"/>
<path fill-rule="evenodd" clip-rule="evenodd" d="M427.232 494.314H77.1508C75.581 483.151 73.4648 476.012 71.5461 469.977H432.837C430.918 476.012 428.79 483.151 427.232 494.314ZM189.965 419.337C193.209 424.163 196.279 427.605 197.744 431.488C199.29 435.442 198.302 437.837 195.348 441.954C188.697 451.302 177.197 459.302 168.128 464.244H133.035C155.069 457.977 184.883 439.093 189.965 419.337ZM168.686 412.872C171.593 407.512 178.523 405.861 183.255 412.209C185.279 414.884 184.372 422.058 176.093 430.988C170.093 425.535 165.639 418.558 168.686 412.872ZM308.604 441.954C305.662 437.837 304.651 435.442 306.197 431.488C307.662 427.605 310.755 424.163 313.988 419.337C319.058 439.093 348.86 457.977 370.907 464.244H335.814C326.744 459.302 315.267 451.302 308.604 441.954ZM320.686 412.209C325.43 405.861 332.36 407.512 335.244 412.872C338.279 418.558 333.837 425.535 327.848 430.988C319.569 422.058 318.686 414.884 320.686 412.209ZM434.174 462.454C430.418 463.558 425.907 464.244 419.069 464.244H410.569C381.465 463.663 351.5 454.988 333.174 436.256C358.534 410.616 328.755 389.593 312.628 411.291C307.593 418.081 303.581 422.884 300.093 429.454C297.267 434.744 299.407 440.105 305.686 448.256C309.151 452.756 317.732 459.686 324.744 464.244H179.197C186.221 459.686 194.779 452.756 198.244 448.256C204.523 440.105 206.674 434.744 203.848 429.454C200.372 422.884 196.348 418.081 191.314 411.291C175.197 389.593 145.43 410.616 170.79 436.256C152.43 454.988 122.5 463.663 93.3601 464.244H85.3252C78.4996 464.244 73.9648 463.558 70.2089 462.454C64.1624 461 62.8136 463.581 66.0694 473.965C68.3136 480.919 70.1043 492.244 70.8717 500H433.511C434.29 492.244 436.081 480.919 438.302 473.965C441.558 463.581 440.209 461 434.174 462.454Z" fill="black"/>
</g>
<path fill-rule="evenodd" clip-rule="evenodd" d="M118.988 485.314C118.918 485.314 118.895 485.268 118.918 485.175L121.523 478.233C121.535 478.198 121.57 478.093 121.639 478.093C121.697 478.093 121.721 478.198 121.732 478.233L124.302 485.221C124.325 485.268 124.302 485.314 124.197 485.314H118.988ZM124.593 486.337C124.697 486.337 124.756 486.384 124.79 486.488L125.767 489.093C125.872 489.349 125.732 489.535 125.581 489.582C125.372 489.582 125.29 489.64 125.29 489.779C125.29 489.907 125.535 489.907 125.907 489.954C127.57 489.977 129.093 489.977 129.837 489.977C130.604 489.977 130.779 489.954 130.779 489.779C130.779 489.605 130.674 489.582 130.511 489.582C130.279 489.582 129.953 489.582 129.651 489.488C129.197 489.395 128.616 489.128 127.814 487.244C126.488 484.093 123.174 475.628 122.674 474.523C122.465 474 122.349 473.826 122.139 473.826C121.953 473.826 121.825 474.047 121.57 474.651L116.36 487.651C115.953 488.709 115.57 489.43 114.593 489.535C114.442 489.581 114.151 489.582 113.965 489.582C113.802 489.582 113.721 489.64 113.721 489.779C113.721 489.954 113.849 489.977 114.104 489.977C115.174 489.977 116.325 489.907 116.546 489.907C117.197 489.907 118.093 489.977 118.756 489.977C118.988 489.977 119.104 489.954 119.104 489.779C119.104 489.64 119.058 489.582 118.802 489.582H118.488C117.849 489.582 117.663 489.302 117.663 488.954C117.663 488.709 117.756 488.175 117.965 487.651L118.383 486.57C118.442 486.384 118.488 486.337 118.57 486.337H124.593Z" fill="black"/>
<path fill-rule="evenodd" clip-rule="evenodd" d="M134.953 483.326C134.953 486.338 135.744 487.884 136.802 488.838C138.314 490.198 140.314 490.256 141.407 490.256C142.755 490.256 144.244 490.035 145.721 488.756C147.465 487.256 147.697 484.826 147.697 482.512V480.291C147.697 477.14 147.697 476.559 147.732 475.884C147.755 475.187 147.918 474.803 148.5 474.71C148.744 474.663 148.86 474.652 149.104 474.652C149.349 474.652 149.465 474.605 149.465 474.477C149.465 474.314 149.325 474.303 149.023 474.303C148.244 474.303 146.918 474.338 146.674 474.338C146.651 474.338 145.337 474.303 144.279 474.303C143.976 474.303 143.848 474.314 143.848 474.477C143.848 474.605 143.965 474.652 144.209 474.652C144.43 474.652 144.79 474.663 144.942 474.71C145.628 474.873 145.79 475.187 145.837 475.884C145.872 476.559 145.872 477.14 145.872 480.291V482.896C145.872 485.035 145.825 486.919 144.674 488.035C143.849 488.849 142.732 489.14 141.825 489.14C141.104 489.14 140.162 489.094 139.232 488.268C138.197 487.466 137.616 486.21 137.616 483.198V480.291C137.616 477.14 137.616 476.559 137.628 475.884C137.686 475.187 137.86 474.803 138.407 474.71C138.662 474.663 138.802 474.652 139.023 474.652C139.232 474.652 139.348 474.605 139.348 474.477C139.348 474.314 139.209 474.303 138.883 474.303C138.151 474.303 136.837 474.338 136.348 474.338C135.721 474.338 134.407 474.303 133.314 474.303C133.011 474.303 132.86 474.314 132.86 474.477C132.86 474.605 132.988 474.652 133.197 474.652C133.511 474.652 133.848 474.663 134.023 474.71C134.709 474.873 134.872 475.187 134.907 475.884C134.953 476.559 134.953 477.14 134.953 480.291V483.326Z" fill="black"/>
<path fill-rule="evenodd" clip-rule="evenodd" d="M159.07 479.977C159.07 478.349 159.07 476.524 159.081 475.838C159.081 475.582 159.151 475.489 159.349 475.384C159.511 475.291 160.279 475.233 160.686 475.233C162.302 475.233 164.663 475.489 166.558 477.338C167.453 478.198 168.558 479.861 168.558 482.512C168.558 484.64 168.139 486.57 166.825 487.652C165.581 488.756 164.174 489.175 162.058 489.175C160.407 489.175 159.605 488.71 159.349 488.373C159.174 488.128 159.128 487.291 159.105 486.733C159.081 486.384 159.07 484.768 159.07 482.594V479.977ZM156.488 483.931C156.488 485.849 156.488 487.501 156.36 488.373C156.279 488.954 156.198 489.431 155.767 489.489C155.581 489.535 155.325 489.582 155.023 489.582C154.779 489.582 154.674 489.64 154.674 489.78C154.674 489.907 154.837 489.977 155.105 489.977C155.93 489.977 157.244 489.908 157.709 489.908C158.767 489.908 160.616 490.152 162.128 490.152C165.965 490.152 168.128 488.663 169.093 487.687C170.244 486.489 171.349 484.547 171.349 481.873C171.349 479.442 170.36 477.71 169.337 476.687C167.081 474.303 163.605 474.303 161.023 474.303C159.767 474.303 158.465 474.338 157.825 474.338C157.244 474.338 155.93 474.303 154.837 474.303C154.523 474.303 154.372 474.314 154.372 474.477C154.372 474.605 154.511 474.652 154.732 474.652C155.023 474.652 155.384 474.663 155.546 474.71C156.221 474.873 156.395 475.187 156.43 475.884C156.488 476.559 156.488 477.14 156.488 480.291V483.931Z" fill="black"/>
<path fill-rule="evenodd" clip-rule="evenodd" d="M179.384 485.314C179.302 485.314 179.279 485.268 179.302 485.175L181.907 478.233C181.93 478.198 181.965 478.093 182.023 478.093C182.081 478.093 182.105 478.198 182.128 478.233L184.698 485.221C184.721 485.268 184.698 485.314 184.593 485.314H179.384ZM184.988 486.337C185.081 486.337 185.14 486.384 185.198 486.488L186.163 489.093C186.256 489.349 186.116 489.535 185.965 489.582C185.756 489.582 185.674 489.64 185.674 489.779C185.674 489.907 185.93 489.907 186.302 489.954C187.965 489.977 189.477 489.977 190.221 489.977C190.988 489.977 191.174 489.954 191.174 489.779C191.174 489.605 191.07 489.582 190.907 489.582C190.651 489.582 190.349 489.582 190.035 489.488C189.593 489.395 189 489.128 188.209 487.244C186.884 484.093 183.57 475.628 183.07 474.523C182.86 474 182.733 473.826 182.546 473.826C182.349 473.826 182.209 474.047 181.965 474.651L176.756 487.651C176.349 488.709 175.953 489.43 175 489.535C174.837 489.581 174.546 489.582 174.349 489.582C174.186 489.582 174.105 489.64 174.105 489.779C174.105 489.954 174.221 489.977 174.488 489.977C175.581 489.977 176.721 489.907 176.942 489.907C177.581 489.907 178.488 489.977 179.151 489.977C179.372 489.977 179.488 489.954 179.488 489.779C179.488 489.64 179.442 489.582 179.186 489.582H178.872C178.233 489.582 178.058 489.302 178.058 488.954C178.058 488.709 178.151 488.175 178.349 487.651L178.779 486.57C178.826 486.384 178.872 486.337 178.965 486.337H184.988Z" fill="black"/>
<path fill-rule="evenodd" clip-rule="evenodd" d="M205.256 476.408C205.884 475.489 206.291 474.908 206.767 474.803C207.07 474.698 207.314 474.652 207.511 474.652C207.732 474.652 207.86 474.605 207.86 474.477C207.86 474.338 207.709 474.303 207.488 474.303C206.721 474.303 205.86 474.338 205.453 474.338C205.058 474.338 204.186 474.303 203.372 474.303C203.081 474.303 202.942 474.338 202.942 474.477C202.942 474.605 203.058 474.652 203.186 474.652C203.349 474.652 203.639 474.652 203.86 474.71C204.046 474.803 204.198 474.954 204.198 475.105C204.198 475.233 204.151 475.582 203.988 475.873C203.663 476.454 201.756 479.361 201.151 480.245C200.36 478.873 199.418 477.338 198.511 475.675C198.395 475.442 198.325 475.187 198.325 475.105C198.325 474.954 198.384 474.803 198.558 474.745C198.732 474.663 199 474.652 199.128 474.652C199.302 474.652 199.442 474.605 199.442 474.477C199.442 474.314 199.302 474.303 199.011 474.303C198.244 474.303 197.104 474.338 196.802 474.338C195.814 474.338 194.151 474.303 193.651 474.303C193.36 474.303 193.232 474.314 193.232 474.431C193.232 474.605 193.314 474.652 193.43 474.652C193.651 474.652 193.977 474.698 194.302 474.803C195.046 475.047 195.523 475.501 196.035 476.361L199.604 482.256L195.651 487.942C194.93 488.919 194.546 489.303 193.942 489.477C193.616 489.582 193.314 489.582 193.174 489.582C193 489.582 192.884 489.64 192.884 489.815C192.884 489.908 192.977 489.977 193.209 489.977H193.546C193.872 489.977 194.907 489.908 195.291 489.908C195.802 489.908 197.116 489.977 197.221 489.977H197.616C197.884 489.977 198.035 489.954 198.035 489.815C198.035 489.64 197.895 489.582 197.779 489.582C197.616 489.582 197.43 489.582 197.291 489.535C197.116 489.489 196.918 489.396 196.907 489.175C196.872 488.954 196.988 488.652 197.198 488.326L200.256 483.373C201.209 484.931 202.395 487.001 203.546 489.001C203.697 489.256 203.604 489.477 203.511 489.477C203.325 489.535 203.221 489.582 203.221 489.733C203.221 489.861 203.372 489.908 203.918 489.954C205.511 489.977 207.151 489.977 207.651 489.977H208.267C208.488 489.977 208.663 489.908 208.663 489.78C208.663 489.64 208.535 489.582 208.407 489.582C208.198 489.582 207.953 489.582 207.604 489.477C207.07 489.291 206.744 489.059 206.407 488.57C205.884 487.942 202.523 482.303 201.86 481.291L205.256 476.408Z" fill="black"/>
<path fill-rule="evenodd" clip-rule="evenodd" d="M233.546 485.314C233.453 485.314 233.453 485.268 233.453 485.175L236.058 478.233C236.081 478.198 236.116 478.093 236.174 478.093C236.244 478.093 236.256 478.198 236.291 478.233L238.93 485.221C238.965 485.268 238.93 485.326 238.825 485.326L233.546 485.314ZM239.163 486.337C239.267 486.337 239.349 486.384 239.36 486.488L240.302 489.093C240.407 489.349 240.267 489.535 240.116 489.582C239.907 489.582 239.825 489.64 239.825 489.779C239.825 489.907 240.093 489.907 240.453 489.954C242.116 489.977 243.628 489.977 244.372 489.977C245.139 489.977 245.325 489.954 245.325 489.779C245.325 489.605 245.221 489.582 245.058 489.582C244.802 489.582 244.5 489.582 244.186 489.488C243.732 489.395 243.139 489.128 242.36 487.244C241.023 484.093 237.709 475.628 237.221 474.523C237.011 474 236.884 473.826 236.686 473.826C236.5 473.826 236.372 474.047 236.116 474.651L230.918 487.651C230.5 488.709 230.104 489.43 229.151 489.535C228.988 489.581 228.686 489.582 228.5 489.582C228.337 489.582 228.244 489.64 228.244 489.779C228.244 489.954 228.384 489.977 228.663 489.977C229.732 489.977 230.872 489.907 231.104 489.907C231.732 489.907 232.628 489.977 233.291 489.977C233.535 489.977 233.663 489.954 233.663 489.779C233.663 489.64 233.581 489.582 233.337 489.582H233.023C232.372 489.582 232.198 489.302 232.198 488.954C232.198 488.709 232.314 488.175 232.5 487.651L232.953 486.57C233 486.384 233.023 486.337 233.139 486.337H239.163Z" fill="black"/>
<path fill-rule="evenodd" clip-rule="evenodd" d="M251.895 483.931C251.895 485.85 251.895 487.501 251.802 488.373C251.744 488.954 251.616 489.431 251.209 489.489C251.011 489.536 250.767 489.582 250.453 489.582C250.209 489.582 250.116 489.64 250.116 489.78C250.116 489.908 250.267 489.978 250.535 489.978C251.36 489.978 252.674 489.908 253.151 489.908C253.721 489.908 255.046 489.978 256.407 489.978C256.628 489.978 256.79 489.908 256.79 489.78C256.79 489.64 256.697 489.582 256.465 489.582C256.151 489.582 255.686 489.536 255.407 489.489C254.779 489.431 254.651 488.954 254.604 488.373C254.5 487.501 254.5 485.85 254.5 483.931V475.443L257.104 475.489C258.965 475.536 259.523 476.106 259.558 476.687L259.581 476.896C259.604 477.222 259.651 477.326 259.802 477.326C259.942 477.326 259.965 477.187 260 476.978C260 476.443 260.069 475.013 260.069 474.606C260.069 474.268 260.046 474.164 259.895 474.164C259.721 474.164 259.232 474.338 257.907 474.338H249.697C249.011 474.338 248.221 474.303 247.616 474.222C247.093 474.175 246.895 473.966 246.732 473.966C246.604 473.966 246.535 474.129 246.476 474.42C246.453 474.571 246.035 476.443 246.035 476.757C246.035 477.013 246.093 477.094 246.221 477.094C246.36 477.094 246.418 477.013 246.453 476.85C246.5 476.699 246.604 476.443 246.802 476.106C247.116 475.675 247.616 475.571 248.825 475.501L251.895 475.443V483.931Z" fill="black"/>
<path fill-rule="evenodd" clip-rule="evenodd" d="M287.988 482.256C287.988 482.163 288.035 482.082 288.139 482.082C288.477 482.082 290.674 482.082 291.209 482.163C291.86 482.221 292.151 482.593 292.256 482.896C292.349 483.105 292.372 483.407 292.372 483.524C292.372 483.686 292.43 483.814 292.57 483.814C292.767 483.814 292.767 483.628 292.767 483.407C292.767 483.314 292.79 482.314 292.86 481.872C292.907 481.291 293.011 480.756 293.011 480.628C293.011 480.524 292.965 480.419 292.895 480.419C292.767 480.419 292.721 480.535 292.616 480.663C292.418 480.919 292.128 481 291.709 481.047C291.418 481.047 291.151 481.047 290.79 481.047L288.139 481.093C288.011 481.093 287.988 481 287.988 480.884V475.71C287.988 475.454 288.058 475.384 288.186 475.384L291.383 475.454C292.151 475.489 292.604 475.791 292.756 476.093C292.872 476.396 292.872 476.733 292.872 476.884C292.895 477.093 292.918 477.221 293.07 477.221C293.221 477.221 293.267 477.082 293.279 476.896C293.325 476.686 293.349 475.442 293.36 475.233C293.442 474.698 293.558 474.431 293.558 474.303C293.558 474.175 293.477 474.128 293.395 474.128C293.314 474.128 293.197 474.175 293.07 474.221C292.872 474.303 292.616 474.303 292.209 474.314C291.744 474.338 287.535 474.338 286.744 474.338C286.151 474.338 284.837 474.303 283.756 474.303C283.453 474.303 283.279 474.314 283.279 474.524C283.279 474.605 283.43 474.652 283.639 474.652C283.918 474.652 284.267 474.663 284.453 474.71C285.139 474.872 285.314 475.186 285.337 475.884C285.395 476.558 285.395 477.14 285.395 480.291V483.931C285.395 485.942 285.395 487.5 285.267 488.372C285.186 488.954 285.104 489.431 284.674 489.489C284.476 489.535 284.256 489.582 283.918 489.582C283.697 489.582 283.616 489.64 283.616 489.779C283.616 489.954 283.756 489.977 284.035 489.977C284.837 489.977 286.151 489.907 286.663 489.907C287.232 489.907 288.546 489.977 289.825 489.977C290.151 489.977 290.29 489.907 290.29 489.779C290.29 489.64 290.209 489.582 289.942 489.582C289.651 489.582 289.197 489.535 288.907 489.489C288.279 489.431 288.151 488.954 288.093 488.372C287.988 487.5 287.988 485.942 287.988 483.931V482.256Z" fill="black"/>
<path fill-rule="evenodd" clip-rule="evenodd" d="M301.267 483.931C301.267 485.989 301.267 487.64 301.174 488.477C301.116 489.094 300.977 489.431 300.558 489.489C300.384 489.535 300.116 489.582 299.826 489.582C299.558 489.582 299.488 489.64 299.488 489.78C299.488 489.908 299.64 489.977 299.895 489.977C300.721 489.977 302.035 489.908 302.523 489.908C303.058 489.908 304.395 489.977 305.744 489.977C305.977 489.977 306.151 489.908 306.151 489.78C306.151 489.64 306.046 489.582 305.802 489.582C305.488 489.582 305.035 489.535 304.756 489.489C304.128 489.431 303.988 489.059 303.93 488.512C303.837 487.64 303.837 485.989 303.837 483.931V480.291C303.837 477.14 303.837 476.559 303.884 475.884C303.93 475.187 304.081 474.803 304.651 474.71C304.907 474.663 305.058 474.652 305.291 474.652C305.477 474.652 305.593 474.605 305.593 474.431C305.593 474.314 305.442 474.303 305.163 474.303C304.395 474.303 303.163 474.338 302.628 474.338C302.035 474.338 300.721 474.303 299.942 474.303C299.605 474.303 299.453 474.314 299.453 474.431C299.453 474.605 299.558 474.652 299.779 474.652C300.023 474.652 300.302 474.663 300.523 474.745C300.977 474.849 301.174 475.187 301.221 475.884C301.267 476.559 301.267 477.14 301.267 480.291V483.931Z" fill="black"/>
<path fill-rule="evenodd" clip-rule="evenodd" d="M316.267 479.977C316.267 478.349 316.267 476.524 316.267 475.838C316.267 475.582 316.349 475.489 316.523 475.384C316.686 475.291 317.465 475.233 317.883 475.233C319.488 475.233 321.872 475.489 323.767 477.338C324.639 478.198 325.755 479.861 325.755 482.512C325.755 484.64 325.337 486.57 324.011 487.652C322.767 488.756 321.36 489.175 319.244 489.175C317.593 489.175 316.79 488.71 316.523 488.373C316.36 488.128 316.314 487.291 316.314 486.733C316.267 486.384 316.267 484.768 316.267 482.594V479.977ZM313.663 483.931C313.663 485.849 313.663 487.501 313.546 488.373C313.476 488.954 313.36 489.431 312.953 489.489C312.767 489.535 312.511 489.582 312.209 489.582C311.965 489.582 311.86 489.64 311.86 489.78C311.86 489.907 312.023 489.977 312.29 489.977C313.128 489.977 314.442 489.908 314.895 489.908C315.942 489.908 317.825 490.152 319.325 490.152C323.151 490.152 325.325 488.663 326.29 487.687C327.43 486.489 328.535 484.547 328.535 481.873C328.535 479.442 327.569 477.71 326.511 476.687C324.255 474.303 320.802 474.303 318.209 474.303C316.965 474.303 315.651 474.338 315.011 474.338C314.442 474.338 313.128 474.303 312.023 474.303C311.709 474.303 311.558 474.314 311.558 474.477C311.558 474.605 311.709 474.652 311.918 474.652C312.209 474.652 312.558 474.663 312.744 474.71C313.418 474.873 313.581 475.187 313.639 475.884C313.662 476.559 313.663 477.14 313.663 480.291V483.931Z" fill="black"/>
<path fill-rule="evenodd" clip-rule="evenodd" d="M335.814 483.931C335.814 485.849 335.814 487.5 335.709 488.372C335.628 488.954 335.523 489.431 335.116 489.489C334.919 489.535 334.686 489.582 334.372 489.582C334.116 489.582 334.035 489.64 334.035 489.779C334.035 489.907 334.186 489.977 334.454 489.977C335.291 489.977 336.593 489.907 337.07 489.907C338.279 489.907 339.663 490.035 342.802 490.035C343.593 490.035 343.791 490.035 343.919 489.477C344.035 489.093 344.198 487.652 344.198 487.198C344.198 487 344.198 486.779 344.035 486.779C343.884 486.779 343.849 486.919 343.802 487.117C343.651 487.942 343.407 488.419 342.872 488.652C342.326 488.872 341.454 488.872 340.919 488.872C338.802 488.872 338.477 488.57 338.442 487.163C338.407 486.57 338.442 484.64 338.442 483.931V482.303C338.442 482.21 338.442 482.117 338.558 482.117C339.058 482.117 341.105 482.163 341.512 482.21C342.279 482.256 342.57 482.559 342.663 482.977C342.721 483.279 342.721 483.512 342.756 483.686C342.756 483.814 342.791 483.896 342.942 483.896C343.128 483.896 343.128 483.686 343.128 483.512C343.128 483.372 343.163 482.512 343.198 482.163C343.256 481.093 343.361 480.721 343.361 480.628C343.361 480.5 343.302 480.419 343.209 480.419C343.128 480.419 343.047 480.57 342.895 480.71C342.709 480.919 342.395 480.954 341.895 481.047C341.407 481.093 339.023 481.093 338.581 481.093C338.442 481.093 338.442 480.954 338.442 480.849V475.582C338.442 475.442 338.477 475.384 338.581 475.384C338.977 475.384 341.163 475.442 341.523 475.454C342.57 475.582 342.756 475.838 342.895 476.21C343.012 476.454 343.047 476.803 343.047 476.977C343.047 477.14 343.081 477.268 343.209 477.268C343.361 477.268 343.407 477.093 343.419 477.012C343.477 476.756 343.5 475.838 343.523 475.663C343.593 474.698 343.709 474.431 343.709 474.303C343.709 474.175 343.663 474.128 343.558 474.128C343.477 474.128 343.337 474.163 343.233 474.175C343.081 474.221 342.756 474.303 342.337 474.314C341.965 474.338 337.826 474.338 337.151 474.338C336.593 474.338 335.291 474.303 334.186 474.303C333.861 474.303 333.733 474.314 333.733 474.477C333.733 474.605 333.837 474.652 334.082 474.652C334.372 474.652 334.709 474.663 334.872 474.71C335.57 474.872 335.733 475.186 335.779 475.884C335.814 476.558 335.814 477.14 335.814 480.291V483.931Z" fill="black"/>
<path fill-rule="evenodd" clip-rule="evenodd" d="M354.523 480.291C354.523 477.14 354.523 476.559 354.547 475.884C354.581 475.187 354.768 474.803 355.302 474.71C355.581 474.663 355.907 474.652 356.128 474.652C356.361 474.652 356.488 474.605 356.488 474.477C356.488 474.314 356.349 474.303 356.058 474.303C355.256 474.303 353.744 474.338 353.244 474.338C352.675 474.338 351.372 474.303 350.395 474.303C350.081 474.303 349.965 474.314 349.965 474.477C349.965 474.605 350.07 474.652 350.291 474.652C350.581 474.652 350.814 474.663 350.977 474.71C351.675 474.873 351.837 475.187 351.884 475.884C351.93 476.559 351.93 477.14 351.93 480.291V483.931C351.93 485.849 351.93 487.501 351.802 488.373C351.744 488.954 351.64 489.431 351.209 489.489C351.023 489.535 350.779 489.582 350.465 489.582C350.209 489.582 350.116 489.64 350.116 489.78C350.116 489.908 350.268 489.977 350.547 489.977C351.372 489.977 352.675 489.908 353.163 489.908C354.826 489.908 356.198 490.035 359.198 490.035C360.279 490.035 360.372 489.954 360.512 489.477C360.663 488.849 360.802 487.338 360.802 487.082C360.802 486.826 360.791 486.733 360.64 486.733C360.488 486.733 360.442 486.826 360.43 487.07C360.372 487.419 360.14 488.001 359.884 488.268C359.372 488.838 358.547 488.849 357.454 488.849C355.837 488.849 355.291 488.71 354.942 488.419C354.523 488.035 354.523 486.617 354.523 483.931V480.291Z" fill="black"/>
<path fill-rule="evenodd" clip-rule="evenodd" d="M367.441 483.931C367.441 485.989 367.441 487.64 367.36 488.477C367.279 489.094 367.151 489.431 366.744 489.489C366.558 489.535 366.314 489.582 366 489.582C365.755 489.582 365.674 489.64 365.674 489.78C365.674 489.908 365.825 489.977 366.081 489.977C366.941 489.977 368.22 489.908 368.697 489.908C369.244 489.908 370.569 489.977 371.953 489.977C372.139 489.977 372.337 489.908 372.337 489.78C372.337 489.64 372.232 489.582 371.976 489.582C371.674 489.582 371.255 489.535 370.93 489.489C370.314 489.431 370.162 489.059 370.104 488.512C370.023 487.64 370.023 485.989 370.023 483.931V480.291C370.023 477.14 370.023 476.559 370.058 475.884C370.104 475.187 370.29 474.803 370.825 474.71C371.104 474.663 371.255 474.652 371.453 474.652C371.674 474.652 371.802 474.605 371.802 474.431C371.802 474.314 371.639 474.303 371.36 474.303C370.569 474.303 369.348 474.338 368.837 474.338C368.22 474.338 366.941 474.303 366.139 474.303C365.79 474.303 365.616 474.314 365.616 474.431C365.616 474.605 365.755 474.652 365.965 474.652C366.22 474.652 366.488 474.663 366.709 474.745C367.151 474.849 367.383 475.187 367.407 475.884C367.441 476.559 367.441 477.14 367.441 480.291V483.931Z" fill="black"/>
<path fill-rule="evenodd" clip-rule="evenodd" d="M381.744 490.257C382.837 490.257 384 490.082 385.023 489.396C386.534 488.466 387 487.013 387 485.803C387 483.815 386.069 482.454 383.581 480.524L383.011 480.071C381.302 478.78 380.814 478.047 380.814 477.082C380.814 475.838 381.744 474.954 383.255 474.954C384.616 474.954 385.209 475.571 385.511 475.966C385.965 476.501 386.069 477.14 386.069 477.338C386.069 477.594 386.139 477.675 386.279 477.675C386.453 477.675 386.511 477.547 386.511 477.082C386.511 475.454 386.593 474.873 386.593 474.606C386.593 474.431 386.488 474.42 386.302 474.338C385.779 474.175 384.895 473.966 383.546 473.966C380.651 473.966 378.744 475.629 378.744 477.943C378.744 479.559 379.523 481.047 381.825 482.803L382.767 483.571C384.5 484.896 384.802 485.85 384.802 486.92C384.802 488.001 383.883 489.245 382.034 489.245C380.755 489.245 379.511 488.71 379.081 487.164C378.953 486.78 378.872 486.385 378.872 486.094C378.872 485.943 378.848 485.745 378.674 485.745C378.511 485.745 378.441 486.001 378.418 486.292C378.395 486.617 378.325 487.885 378.325 489.001C378.325 489.478 378.383 489.582 378.697 489.733C379.604 490.082 380.535 490.257 381.744 490.257Z" fill="black"/>
<path fill-rule="evenodd" clip-rule="evenodd" d="M252.186 128.07C241.349 128.07 229.116 130.64 219.686 134.745C219.837 132.675 220.593 130.838 221.919 129.233C227.384 122.64 241.64 120.303 252.186 120.303C262.756 120.303 277.012 122.64 282.465 129.233C283.802 130.838 284.547 132.663 284.686 134.733C275.279 130.593 263.221 128.07 252.186 128.07ZM270.674 143.373L267.314 135.605C272.384 136.652 277.291 138.105 281.593 139.919L283.558 147.884C280.372 146.559 275.977 144.826 270.674 143.373ZM238.884 142.175L233.081 136.5C237.826 135.314 242.814 134.512 247.663 134.21L251.128 140.838C246.744 140.931 242.64 141.431 238.884 142.175ZM220.093 148.187L218.407 148.896C216.105 149.78 214.512 149.047 213.954 147.919C213.361 146.768 213.698 144.745 216.581 143C216.954 142.791 217.361 142.57 217.756 142.326L223.256 146.884C222.093 147.349 221.012 147.791 220.093 148.187ZM252.186 107.396L260.012 113.07C256.686 112.768 253.884 112.698 252.186 112.698C250.512 112.698 247.709 112.768 244.372 113.07L252.186 107.396ZM243.291 86.7214C240.093 79.7912 239.221 70.733 249.058 75.0935L249.849 86.7214H243.291ZM250.779 61.5935L252.186 62.6284L253.605 61.5935L259.268 57.4656L256.023 68.4423C255.919 68.4772 255.802 68.5121 255.686 68.5586C255.116 67.1865 253.756 66.2679 252.186 66.2679C250.628 66.2679 249.291 67.1865 248.698 68.5586C248.605 68.5121 248.488 68.4772 248.372 68.4423L245.116 57.4656L250.779 61.5935ZM259.186 106.5L253.605 102.466L252.186 101.431L250.779 102.466L245.221 106.5L248.826 94.7912H255.558L259.186 106.5ZM261.093 86.7214H254.535L255.326 75.0935C265.186 70.733 264.279 79.7912 261.093 86.7214ZM228.174 89.4656L232.209 83.8842L233.244 82.4888L232.209 81.0702L228.174 75.5005L236.454 78.047C236.919 81.6167 237.698 84.0237 238.628 86.2446L228.174 89.4656ZM267.965 78.047L276.221 75.5005L272.186 81.0702L271.151 82.4888L272.186 83.8842L276.221 89.4656L265.768 86.2446C266.686 84.0237 267.465 81.6167 267.965 78.047ZM319.454 63.7912C319.616 60.6865 313.861 58.326 312.419 58.1981C310 58.0353 306.919 63.1051 303.779 66.2679C300.988 51.3609 302.442 44.9772 304.012 38.3842C310.291 49.7912 318.791 52.2795 323.256 51.6981C308.163 39.5935 310.756 28.6516 306.151 28.0819C303.523 27.7795 301.651 27.9656 300.326 27.9656C295 27.9656 294.268 38.2795 293.605 42.9888C290.151 36.5819 286.779 31.233 280.954 23.8493C275.372 9.51209 268.535 13.0819 261.605 6.60512C266.965 14.7679 262.616 19.8028 275.151 25.7447C278.384 28.8493 282.198 33.6749 284.756 37.5935C282.651 40.3842 281.233 42.0121 279.279 43.8609C277.721 46.2214 276.942 55.047 272.116 61.7679C279.279 58.6516 282.07 54.3028 284.651 50.0121C307.244 67.0702 288.861 110.64 283.674 120.221C278.686 116.849 272.337 114.966 266.5 113.942L265.919 111.989L260.616 94.7912H263.058C265.907 94.7912 266.547 92.8842 266.093 91.3958L281.709 96.2098L288.605 98.326L284.361 92.4656L277.116 82.4888L284.361 72.5005L288.605 66.6284L281.709 68.7679L267.674 73.0935C266.674 69.9191 264.058 68.3726 261.186 67.9772L265.93 52.0586L267.965 45.233L262.198 49.4074L252.186 56.6633L242.198 49.4074L236.454 45.233L238.465 52.0586L243.198 67.9772C240.337 68.3726 237.721 69.9191 236.709 73.0935L222.686 68.7679L215.779 66.6284L220.035 72.5005L227.268 82.4888L215.779 98.326L222.686 96.2098L238.349 91.3958C237.884 92.8842 238.488 94.7912 241.349 94.7912H243.779L238.488 111.989L237.884 113.942C231.907 115.024 225.372 116.942 220.349 120.489C205.116 90.9423 209.419 61.0586 222.198 51.14C221.965 57.4191 227.465 65.9074 230.035 67.6981C228.349 61.1981 231.279 49.6633 227.907 46.7679C225.558 44.7795 221.965 43.733 218.163 43.8609C220.744 39.5935 224.314 34.2563 230.372 26.2912C239.337 22.047 241.907 11.6167 244.14 6.39581C234.395 9.9307 227.244 15.0121 225.675 23.1865C222.198 27.7446 218.395 33.1284 214.14 39.5005C214.361 31.7563 210.116 29.1051 204.5 28.6633C188.058 32.1051 189.302 43.9772 175.198 52.1516C184.826 55.5121 199.942 34.3842 205.081 36.6865C205.861 49.6633 202.965 59.8609 202.965 66.9423C200.488 64.2446 199.233 62.3493 197.14 61.9772C195.116 61.6633 189.628 62.1167 185.826 66.2679C184.791 72.8028 185.058 85.1516 178.895 99.9423C188.058 91.547 192.419 75.0935 193.872 70.2912C196.233 73.5353 198.802 80.6167 199.384 86.7214C200.465 98.5121 207.721 118.163 213.895 127.617C212.209 130.931 211.686 134.628 212.302 138.721C207.488 142.268 206.942 147.245 208.605 150.605C210.395 154.175 215.081 156.617 220.616 154.431L222.384 153.71C228.186 151.28 239.058 146.803 252.186 146.803C265.337 146.803 276.186 151.28 282.023 153.71L283.756 154.431C289.302 156.617 293.988 154.175 295.779 150.605C297.465 147.245 296.907 142.268 292.093 138.721C292.768 134.303 292.058 130.349 290.047 126.873L290.244 127.035C301.488 111.047 302.233 80.454 311.512 71.733C312.291 82.4888 318.012 91.326 323.605 92.5353C319.105 85.1516 319.105 70.5005 319.454 63.7912Z" fill="black"/>
<path fill-rule="evenodd" clip-rule="evenodd" d="M169.709 338.361C168.686 338.361 167.814 338.012 167.244 336.768C169.232 329.593 169.814 325.791 169.372 324.326C167.686 324.931 166.465 324.849 165.686 324.454C167.639 312.803 166.372 305.57 165.128 301.059C163.779 296.245 157.465 289.535 155.302 288.396C151.802 286.524 148.884 284.489 142.07 283.698C127.965 271.849 124.116 279 114.081 277.791C112.709 276 110.058 273.535 110.058 273.535L105.581 276.663C105.581 276.663 109.837 282.035 110.721 285.628C110.721 285.628 119.907 283.966 126.849 285.721C124.151 294.593 111.814 306.559 99.8719 319.861C87.1045 334.082 87.0464 337.245 87.3371 348.407C87.6743 361.617 69.4301 381.442 55.4533 390.745C54.2557 394.082 52.6626 423.384 54.5347 427.873C55.5115 429.535 59.465 434.14 61.9301 437.826C63.0347 439.489 62.7324 443.5 63.2789 447.372C61.3719 447.593 60.0347 447.372 58.558 446.64C57.6859 442.535 54.3138 437.059 48.1626 433.14C49.651 416.768 51.3022 408.093 45.5812 391.849C45.0812 390.407 52.744 386.14 52.744 386.14C52.744 386.14 55.337 374.128 62.2673 368.326C57.337 355.686 56.6626 338.559 56.6626 338.559C56.6626 338.559 53.6975 342.489 48.7789 345.628C61.7557 304.442 64.3836 316.163 79.6626 286.082C90.244 238.059 62.3719 228.314 66.5231 211.64C76.2557 220.826 81.3022 217.919 89.244 215.675C96.4068 221.698 106.814 235.256 116.535 238.617C132.221 243.977 132.104 258.663 129.651 265.489C136.128 265.489 141.407 267.838 143.849 271.628C154.849 288.628 161.988 283.489 167.814 290.663C170.593 294.082 167.814 303.628 171.174 312.163C173.384 317.745 174.302 324.454 174.302 326.361C173.965 329.163 170.267 334.431 169.709 338.361ZM119.058 331.733C125.058 339.245 116.535 370.349 113.418 375.954C110.616 380.966 115.791 384.256 118.442 384.896C130.872 388.035 143.186 399.919 147.209 408.861L142.849 410.617C133.558 398.012 131.104 402.128 128.744 404.5C126.395 400.361 115.209 387.826 108.046 387.117C101.477 386.535 101.558 382.547 101.988 379.175C102.884 372.477 102.5 362.675 101.767 357.372C100.872 353 97.0696 347.849 94.3254 347.64C95.7208 344.268 93.9301 333.617 103 329.163C109.732 325.838 117.639 329.989 119.058 331.733ZM50.7905 192.942C48.9998 190.861 48.0929 188.407 47.151 187.71C54.3138 183.221 63.1626 186.931 68.5347 181.756C71.9882 183.675 77.058 181.733 79.2789 181.431C86.7324 180.338 95.9998 188.082 102.791 192.942C105.686 195.035 108.151 196.617 109.837 196.745C107.942 202.559 108.488 203.698 113.418 204.814C113.209 206.512 111.744 207.686 106.139 207.093C100.43 206.477 93.7208 206.605 90.5812 206.931C73.651 215.721 68.1394 201.675 68.1975 192.942C68.1975 192.919 68.1975 192.896 68.1975 192.826C68.1161 192.896 68.058 192.919 67.9766 192.942C58.1743 198.431 53.465 196.117 50.7905 192.942ZM174.744 300.396C176.209 287.861 174.198 286.919 170.593 283.966C167.465 281.361 162.302 280.559 157.186 277.012C153.477 274.442 152.477 270.756 147.767 265.826C148.884 252.954 162.779 237.163 167.465 239.512L167.581 233.128C161.546 231.105 150.779 236.942 141.616 258.663C140.604 257.535 139.709 257.082 138.709 256.396C139.395 251.373 137.721 247.21 134.581 243.407C137.767 241.303 147.198 236.896 152.581 233.024C158.616 228.675 159.744 226.861 167.151 228.652C167.151 228.652 168.477 227.082 168.93 225.291C163.546 218.373 155.721 220.361 150.36 226.652C146.128 230.059 136.5 236.512 129.884 238.768C120.86 231.175 106.837 224.466 96.6277 214.221C96.6277 214.221 110.174 214.105 116.442 211.535C118.116 210.512 122.465 203.582 120.686 196.966C118.593 196.21 115.546 194.663 112.558 192.942C108.872 190.861 105.244 188.57 103.604 187.326C97.6626 182.849 95.2789 178.942 85.1045 176.384C85.7673 171.71 86.7673 172.791 91.2557 169.779C96.9882 165.919 100.151 161.268 102.43 156.675C104.232 153.105 102.221 145.721 97.6394 155.105C96.0231 158.407 91.5812 162.838 86.5463 164.175C86.9417 161.256 87.1045 159.605 87.1045 158.035C101.988 147.512 100.535 138.221 99.4301 129.477C98.7673 124.431 93.7208 122.338 93.9301 127.582C94.0812 131.059 97.1743 140.884 86.9998 146.733C86.7673 142.338 85.558 140.384 84.651 138.105C93.7208 126.14 89.8952 114.605 86.1045 109.338C83.6743 105.977 77.6743 104.814 80.3952 110.14C82.6161 114.489 86.2208 126.373 79.4998 131.175C77.151 128.268 74.465 127.163 73.5696 123.21C74.2324 110.245 73.4184 102.291 71.7789 97.6865C70.2091 93.3376 66.0696 90.64 66.4068 97.0353C66.7789 104.233 67.4184 113.361 66.744 113.942C66.0696 114.489 56.4417 105.535 52.5231 102.873C48.5812 100.14 43.9068 101.163 48.4998 106.559C52.5347 111.268 64.837 120.303 63.2789 123.21C62.2905 125.035 53.4766 117.838 48.9301 116.291C44.3487 114.733 42.9301 117.105 46.8022 120.303C53.0812 125.454 57.2324 128.814 67.5231 132.291C77.8254 135.733 82.965 150.035 79.7208 170.349C79.5812 171.245 77.8254 171.128 76.8138 170.791C76.3254 163.059 74.9882 153.721 73.1277 149.628C70.651 144.245 65.8487 144.152 67.6394 151.419C69.0464 157.21 69.8719 163.396 68.8603 171.128C60.3603 169.675 57.1045 167.419 53.5347 165.279C53.1859 161.384 55.2091 154.873 55.5464 149.082C55.8836 143.373 52.5231 139.78 50.6277 146.942C48.8022 153.803 47.6161 157.128 46.4766 162.059C44.0231 161.268 41.4533 160.152 40.2557 158.814C39.6975 158.198 40.2091 150.407 39.6626 144.826C39.0231 138.477 36.6277 138.675 34.7208 144.245C33.8603 146.838 33.151 150.198 32.9417 154.338C29.9184 152.547 27.9068 149.082 27.5812 146.303C28.0115 139.675 29.1277 132.663 29.9184 128.268C30.4766 125.128 28.3487 118.71 25.8952 126.477C24.1045 132.024 23.651 136.652 22.5231 140.547C20.3719 140.407 17.4998 127.826 16.0464 119.768C15.3836 116.082 12.3371 111.931 11.7905 120.082C11.1743 129.035 13.0115 138.105 15.2557 142.128C10.8952 141.71 6.74403 133.873 3.7324 129.268C1.04635 125.175 -0.221089 129.431 0.0347245 131.059C2.61612 147.059 15.3836 152.768 21.1859 153.896C30.1394 166.779 47.2557 172.245 61.7091 178.512C42.8952 178.303 37.9766 185.884 29.3603 180.966C29.7557 188.035 33.2557 191.349 36.651 192.942C39.0812 194.128 41.4533 194.419 42.558 194.64C44.1277 203.245 52.3022 202.791 59.244 203.245C57.4533 220.024 59.465 242.198 74.2324 258.745C73.8022 267.268 73.244 278.454 73.3487 285.861C61.2673 297.024 50.4998 320.535 46.2673 333.535C43.0696 343.233 38.3022 350.791 30.9301 354.361C36.965 360.721 45.9301 357.605 51.058 354C51.4068 359.698 52.744 363.71 53.651 367.105C50.1859 372.256 47.8254 375.814 48.1626 382.082C44.244 383.233 41.558 385.559 39.4301 388.279C38.1045 389.954 39.6626 397.652 41.1045 400.907C45.9533 411.686 42.1859 436.035 41.3371 443.198C43.3603 443.326 47.0347 443.466 47.8254 440.407C48.9998 441.524 51.965 443.652 53.3138 448.361C52.965 450.361 51.8487 457.838 55.6626 458.768C58.7905 459.582 72.3487 459.105 74.1161 456.745C72.7789 455.221 70.4417 451.605 68.9766 448.012C68.9766 444.326 68.651 439.838 67.6394 437.931C66.0696 435.268 62.151 428.989 59.6975 426.547C59.1277 422.059 58.6859 402.268 60.8022 394.628C64.2789 392.186 88.1277 374.477 93.0347 357.605C97.4068 359.047 96.058 370.896 96.058 386.14C96.058 390.268 101.081 392.384 104.058 392.768C110.5 393.547 119.674 399.698 129.977 414.884C131.988 412.779 134.558 410.756 134.558 410.756C135.918 412.547 137.477 416.907 138.372 419.71C139.5 421.803 147.767 423.07 154.151 421.128C156.256 420.431 157.511 420.059 158.872 417.826C150.779 403.686 145.942 394.326 135.57 386.57C130.767 382.954 124.372 381.198 119 377.756C122.581 371.012 132.43 339.477 126.5 327.919C124.5 324.128 116.988 320.314 107.86 322C115.477 312.849 130.988 294.686 133.011 289.105C134.791 291.221 143.965 289.768 150.744 292.419C153.244 293.384 160.186 302.396 160.535 305.535C161.116 311.093 161.43 317.71 157.558 332.954C160.244 332.547 159.86 332.419 162.535 331.291C163 335.431 161.767 338.559 158.186 344.686C159.081 350.198 161.546 358.71 164.104 360.268C167.581 350 180.337 335.431 180 326.814C179.558 315.303 174.163 305.407 174.744 300.396Z" fill="black"/>
<path fill-rule="evenodd" clip-rule="evenodd" d="M86.4416 196.536C89.6857 196.21 91.2555 194.512 94.1625 195.629C93.8136 194.664 92.1625 194.664 91.8137 193.838C91.7788 193.547 91.7439 193.245 91.709 192.943C91.3253 189.896 90.3485 187.408 85.4299 186.675C84.209 189.257 79.8369 191.14 77.3834 192.606C78.1044 192.652 78.6974 192.803 79.2206 192.943C82.3485 194.024 81.9299 196.978 86.4416 196.536Z" fill="black"/>
<path fill-rule="evenodd" clip-rule="evenodd" d="M336.802 224.14H164.407V287.721C165.593 288.407 166.732 289.314 167.814 290.663C170.593 294.082 167.814 303.628 171.174 312.163C171.325 312.547 171.418 312.942 171.558 313.349H249.651V437.826C240.628 434.175 221.756 425.233 204.628 408.628C183.465 388.163 172.267 363.128 171.011 334.338C170.418 335.745 169.872 337.105 169.709 338.361C168.686 338.361 167.814 338.012 167.244 336.768C169.232 329.593 169.814 325.791 169.372 324.326C167.686 324.931 166.465 324.849 165.686 324.454C167.639 312.803 166.372 305.57 165.128 301.059C164.965 300.477 164.721 299.861 164.407 299.21V328.919C164.407 361.861 176.453 390.21 200.221 413.175C221.058 433.384 244.442 442.791 251.128 445.186L252.186 445.547L253.267 445.186C259.942 442.791 283.325 433.384 304.174 413.175C327.942 390.21 339.988 361.861 339.988 328.919V323.605C337.953 326.849 335.837 329.082 333.616 329.419C333.5 360.314 322.128 387.012 299.767 408.628C282.651 425.233 263.756 434.175 254.732 437.826V313.349H333.639V324.849C341.697 314.582 338.023 287.826 333.639 284.721V308.245H170.756V230.477H333.639V284.117C335.86 282.559 338.139 284.14 339.988 287.628V224.14H336.802Z" fill="black"/>
</svg>
