<svg width="112" height="46" viewBox="0 0 112 46" fill="none" xmlns="http://www.w3.org/2000/svg">
<path d="M9.31068 36.8544V27.0789H22.1899C23.5866 27.0789 24.8279 27.5437 25.7594 28.4759C26.6899 29.4064 27.3106 30.6478 27.3106 31.8891C27.3106 33.2859 26.6899 34.5271 25.7594 35.4578C24.8279 36.3887 23.5866 36.8544 22.1899 36.8544H9.31068V36.8544ZM9.31068 19.165V9.69924H20.018C21.4141 9.69924 22.6553 10.3199 23.4313 11.0959C24.3628 11.8719 24.8278 13.1133 24.8278 14.5099C24.8278 15.7512 24.3626 16.9926 23.4313 17.7686C22.6553 18.6991 21.4139 19.165 20.018 19.165H9.31068ZM111.259 23.3546C111.259 22.734 111.104 22.1133 111.104 21.4926C111.104 20.8719 110.95 20.2512 110.95 19.6305H93.4148L90.7769 23.6651L88.1389 27.8543H101.638C100.863 30.6479 99.3121 32.9752 97.1386 34.6826C95.122 36.2344 92.4827 37.3206 89.3799 37.3206C85.6562 37.3206 82.2413 35.6132 79.7588 33.1306C77.2761 30.6479 75.8795 27.079 75.8795 23.1991C75.8795 19.4754 77.2761 16.0611 79.7588 13.5787C82.2413 11.096 85.8113 9.38915 89.5354 9.38915C91.2425 9.38915 92.7934 9.69939 94.19 10.1651C95.5867 10.6305 96.9833 11.4065 98.0694 12.1817L100.398 8.45803L102.725 4.73396C101.018 3.4926 99.0012 2.56137 96.8293 1.78539C94.5006 1.16469 92.1734 0.85464 89.6905 0.85464C86.2772 0.85464 83.1731 1.4753 80.5351 2.56119C77.7417 3.64793 75.4144 5.35447 73.3966 7.37181C68.5863 12.0272 67.3453 16.8374 66.4144 21.3369C65.3269 25.8364 64.8624 29.8725 61.6045 33.1305C60.2078 34.3718 58.6557 35.4577 57.1037 36.0777C55.397 36.8543 53.6899 37.1651 51.8277 37.1651C47.7937 37.1651 44.3796 35.6131 41.7416 33.1305C39.2588 30.4925 37.7069 27.0789 37.7069 23.199C37.7069 19.6304 39.2587 16.0609 41.7416 13.5786C44.3796 11.0959 47.7937 9.389 51.8277 9.389C53.3795 9.389 54.9318 9.69924 56.3284 10.165C57.7251 10.6304 58.9652 11.251 60.2078 12.1816L62.535 8.45788L64.8624 4.57853C63.155 3.33717 61.1384 2.40642 58.9652 1.78524C56.6389 1.16454 54.3106 0.854492 51.8277 0.854492C47.9483 0.854492 44.2243 1.78524 41.1209 3.33721C38.0179 5.04375 35.2242 7.37166 33.2069 10.165C32.4309 7.68198 30.7242 5.66445 28.5516 4.113C26.2247 2.56104 23.4314 1.78528 20.1727 1.78528H0V44.9239H22.1899C24.9832 44.9239 27.6214 44.3038 29.6387 43.0612C31.656 41.9751 33.3624 40.2681 34.4486 38.4066C36.6211 40.5785 39.104 42.4413 42.0521 43.8367C44.8453 45.0793 48.104 45.8545 51.5178 45.8545C55.5523 45.8545 59.122 44.924 62.38 43.2166C65.6381 41.5107 68.2773 39.1818 70.294 36.0778C72.3106 39.028 74.9499 41.5107 78.208 43.2166C81.466 44.924 85.1914 45.8545 89.2248 45.8545C95.4328 45.8545 100.863 43.3718 104.897 39.1818C108.777 35.1484 111.259 29.5618 111.259 23.3546Z" fill="black"/>
</svg>
