<?xml version="1.0" encoding="UTF-8"?>
<svg width="500px" height="167px" viewBox="0 0 500 167" version="1.1" xmlns="http://www.w3.org/2000/svg" xmlns:xlink="http://www.w3.org/1999/xlink">
    <!-- Generator: Sketch 52.6 (67491) - http://www.bohemiancoding.com/sketch -->
    <title>logo_ga</title>
    <desc>Created with Sketch.</desc>
    <g id="Page-1" stroke="none" stroke-width="1" fill="none" fill-rule="evenodd">
        <g id="logo_ga" fill="#FFFFFF">
            <path d="M158.637,83.2086 C158.631,82.3929 158.788,81.5844 159.098,80.8298 C159.407,80.0752 159.864,79.3896 160.44,78.8127 C161.017,78.236 161.703,77.7796 162.457,77.47 C163.212,77.1604 164.02,77.004 164.836,77.0096 C164.764,73.7627 164.303,70.5361 163.463,67.399 C161.916,67.6698 160.323,67.4052 158.946,66.649 C157.57,65.8925 156.492,64.6896 155.891,63.2385 C155.628,61.6921 155.896,60.1021 156.651,58.7271 C157.407,57.3523 158.605,56.2735 160.052,55.6665 C158.679,52.2133 157.971,49.4675 156.598,46.7217 C155.194,47.4373 153.578,47.6208 152.049,47.2385 C150.52,46.8563 149.18,45.9338 148.277,44.6415 C147.571,43.235 147.392,41.6219 147.774,40.095 C148.155,38.5679 149.072,37.2288 150.358,36.3204 C148.463,33.6608 146.392,31.1313 144.159,28.7485 C143.015,29.7719 141.533,30.3377 139.998,30.3377 C138.463,30.3377 136.982,29.7719 135.838,28.7485 C134.823,27.6002 134.263,26.1206 134.263,24.5881 C134.263,23.0556 134.823,21.576 135.838,20.4277 C133.092,18.3475 131.012,16.2673 128.266,14.2287 C127.89,14.9463 127.367,15.5763 126.73,16.0773 C126.094,16.5783 125.358,16.9388 124.572,17.1353 C123.786,17.3318 122.968,17.3597 122.17,17.2173 C121.373,17.0749 120.614,16.7653 119.945,16.3089 C119.227,15.9331 118.597,15.4097 118.096,14.773 C117.595,14.1364 117.235,13.401 117.038,12.6151 C116.842,11.8292 116.814,11.0106 116.956,10.2131 C117.099,9.41563 117.409,8.65731 117.865,7.98802 C115.007,6.53906 112.01,5.38215 108.92,4.53485 C108.721,5.32035 108.362,6.05646 107.866,6.69746 C107.371,7.33844 106.748,7.87058 106.038,8.26079 C105.328,8.651 104.545,8.89094 103.738,8.96569 C102.931,9.04044 102.118,8.9484 101.348,8.69529 C100.566,8.49075 99.8333,8.1289 99.1956,7.63185 C98.5579,7.13479 98.0281,6.51296 97.6387,5.80433 C97.2494,5.09569 97.0085,4.31513 96.931,3.51029 C96.8535,2.70548 96.9408,1.89328 97.1875,1.12331 C94.1408,0.43696 91.0323,0.060605 87.9098,0 C87.9098,1.65512 87.2523,3.24246 86.0819,4.41279 C84.9117,5.58315 83.3244,6.24065 81.6692,6.24065 C80.014,6.24065 78.4267,5.58315 77.2565,4.41279 C76.086,3.24246 75.4285,1.65512 75.4285,0 C72.1815,0.0704633 68.9548,0.531425 65.8179,1.37294 C66.2352,2.92802 66.0352,4.58419 65.2598,5.99527 C64.4846,7.40638 63.1937,8.46323 61.6575,8.94492 C60.9331,9.19071 60.1637,9.27502 59.4035,9.19192 C58.6431,9.10881 57.9102,8.86033 57.256,8.46388 C56.6019,8.06742 56.0423,7.53263 55.6169,6.897 C55.1912,6.2614 54.91,5.54035 54.7927,4.7845 C51.3396,6.15744 48.5937,6.86471 45.8479,8.23765 C46.5548,9.64392 46.7335,11.2571 46.3519,12.7841 C45.97,14.311 45.0531,15.6503 43.7677,16.5585 C42.3631,17.2741 40.7473,17.4578 39.2179,17.0754 C37.6887,16.6931 36.3494,15.7707 35.4469,14.4783 C32.8831,16.4235 30.451,18.536 28.166,20.8021 C29.181,21.9504 29.7412,23.43 29.7412,24.9625 C29.7412,26.495 29.181,27.9748 28.166,29.1229 C27.0219,30.1463 25.5406,30.7121 24.0056,30.7121 C22.4706,30.7121 20.9894,30.1463 19.8452,29.1229 C17.765,31.869 15.6848,33.9492 13.6462,36.695 C14.3639,37.0708 14.9939,37.5942 15.4948,38.2308 C15.9958,38.8675 16.3564,39.6029 16.5528,40.3888 C16.7493,41.1746 16.7772,41.9933 16.6348,42.7906 C16.4924,43.5881 16.1828,44.3465 15.7264,45.0158 C15.3506,45.7335 14.8272,46.3635 14.1906,46.8644 C13.554,47.3654 12.8185,47.726 12.0326,47.9225 C11.2467,48.119 10.4281,48.1469 9.63065,48.0044 C8.83317,47.8621 8.07485,47.5525 7.40556,47.096 C6.04938,49.8556 4.96265,52.7398 4.16042,55.7081 C4.94269,55.9127 5.67504,56.2746 6.31277,56.7715 C6.9505,57.2685 7.48021,57.8904 7.86958,58.5992 C8.25894,59.3077 8.49977,60.0883 8.57735,60.8931 C8.65494,61.6979 8.56767,62.5102 8.32085,63.28 C8.16658,64.0169 7.8625,64.714 7.42748,65.3283 C6.99246,65.9427 6.43579,66.461 5.79204,66.851 C5.14829,67.2413 4.43121,67.495 3.68533,67.5963 C2.93944,67.6977 2.18069,67.6446 1.45615,67.4404 C0.63931,70.5708 0.151286,73.7779 0,77.0096 C1.65512,77.0096 3.24246,77.6669 4.41279,78.8373 C5.58315,80.0077 6.24065,81.595 6.24065,83.2502 C6.24065,84.9052 5.58315,86.4925 4.41279,87.6629 C3.24246,88.8333 1.65512,89.4908 0,89.4908 C0.078671,92.7098 0.539548,95.9079 1.37294,99.0181 C2.83458,98.6661 4.37612,98.9058 5.66187,99.685 C6.9476,100.464 7.8734,101.72 8.23765,103.179 C8.65487,104.734 8.45492,106.39 7.67958,107.801 C6.90427,109.212 5.61354,110.269 4.07721,110.751 L4.16042,110.751 C5.53337,114.204 6.24065,116.95 7.61358,119.695 C9.01808,118.98 10.634,118.796 12.1633,119.179 C13.6925,119.561 15.0319,120.483 15.9344,121.776 C16.6413,123.182 16.8201,124.795 16.4384,126.322 C16.0566,127.849 15.1397,129.188 13.8542,130.096 C15.749,132.756 17.82,135.286 20.0532,137.669 C21.1975,136.645 22.6785,136.079 24.2137,136.079 C25.7487,136.079 27.23,136.645 28.3742,137.669 C29.389,138.817 29.9492,140.296 29.9492,141.829 C29.9492,143.361 29.389,144.841 28.3742,145.989 C31.12,148.07 33.2002,150.15 35.946,152.188 C36.3219,151.471 36.8452,150.841 37.4819,150.34 C38.1185,149.839 38.854,149.478 39.6398,149.282 C40.4258,149.085 41.2444,149.057 42.0419,149.2 C42.8394,149.342 43.5977,149.652 44.2669,150.108 C45.5883,150.986 46.534,152.326 46.9187,153.866 C47.3035,155.405 47.0998,157.032 46.3471,158.429 C49.205,159.878 52.2019,161.035 55.2921,161.882 C55.4462,161.145 55.7504,160.448 56.1854,159.834 C56.6204,159.22 57.1771,158.701 57.8208,158.311 C58.4646,157.921 59.1817,157.667 59.9275,157.566 C60.6735,157.465 61.4323,157.518 62.1567,157.722 C62.939,157.926 63.6715,158.288 64.3092,158.785 C64.9469,159.282 65.4765,159.904 65.8658,160.613 C66.2552,161.321 66.496,162.102 66.5737,162.907 C66.6512,163.712 66.564,164.524 66.3171,165.294 C69.4637,166.087 72.685,166.547 75.9277,166.667 C75.9277,165.011 76.5852,163.424 77.7556,162.254 C78.926,161.084 80.5133,160.426 82.1683,160.426 C83.8235,160.426 85.4108,161.084 86.5812,162.254 C87.7515,163.424 88.409,165.011 88.409,166.667 C91.6519,166.547 94.8731,166.087 98.0196,165.294 C97.7565,163.747 98.0244,162.157 98.7798,160.783 C99.5352,159.408 100.734,158.329 102.18,157.722 C103.735,157.305 105.391,157.504 106.802,158.28 C108.214,159.055 109.27,160.346 109.752,161.882 C113.205,160.509 115.951,159.802 118.697,158.429 C118.29,157.751 118.02,157.001 117.904,156.219 C117.787,155.437 117.825,154.64 118.016,153.873 C118.207,153.106 118.548,152.385 119.018,151.749 C119.488,151.114 120.079,150.578 120.756,150.171 C121.434,149.764 122.185,149.494 122.966,149.377 C123.748,149.26 124.545,149.299 125.312,149.49 C126.079,149.681 126.801,150.021 127.436,150.492 C128.071,150.962 128.608,151.553 129.015,152.23 C131.473,150.18 133.794,147.97 135.963,145.615 C134.859,144.511 134.239,143.015 134.239,141.454 C134.239,139.894 134.859,138.398 135.963,137.294 C137.066,136.191 138.563,135.571 140.123,135.571 C141.684,135.571 143.18,136.191 144.284,137.294 C146.364,134.548 148.444,132.468 150.482,129.722 C149.23,128.847 148.355,127.529 148.036,126.034 C147.718,124.539 147.978,122.979 148.765,121.669 C149.552,120.359 150.807,119.397 152.277,118.976 C153.746,118.556 155.321,118.709 156.682,119.404 C158.13,116.546 159.286,113.549 160.135,110.459 C158.585,110.001 157.28,108.946 156.507,107.526 C155.735,106.106 155.558,104.438 156.016,102.887 C156.474,101.337 157.529,100.032 158.949,99.2598 C160.369,98.4873 162.038,98.3106 163.588,98.7686 C164.295,95.3154 164.295,92.5694 164.961,89.1579 C163.335,89.2027 161.757,88.6023 160.572,87.4875 C159.387,86.3727 158.691,84.8344 158.637,83.2086 Z M76.9262,66.5669 L63.8625,66.5669 L63.8625,50.7573 C63.7835,50.2344 63.535,49.7521 63.1552,49.3842 C63.1552,48.6771 62.4479,48.6771 61.7823,48.0113 C61.5108,47.745 61.1827,47.5433 60.8227,47.4208 C60.4627,47.2985 60.0796,47.2585 59.7021,47.304 C59.3246,47.2585 58.9417,47.2985 58.5815,47.4208 C58.2215,47.5433 57.8935,47.745 57.6219,48.0113 L56.249,49.3842 C56.17,49.9071 55.9215,50.3894 55.5417,50.7573 L55.5417,115.535 C55.4485,116.505 55.699,117.477 56.249,118.281 C56.6787,118.762 57.2144,119.136 57.8137,119.374 C58.4129,119.613 59.0596,119.708 59.7021,119.654 C60.8973,119.757 62.0969,119.511 63.1552,118.947 C63.5735,118.619 63.9137,118.203 64.1512,117.728 C64.3887,117.253 64.5175,116.732 64.5281,116.201 L64.5281,98.3108 L59.0781,98.3108 L59.0781,86.6617 L76.9262,86.6617 L76.9262,115.535 C77.1175,117.789 76.8471,120.058 76.1319,122.204 C75.4165,124.35 74.2712,126.328 72.7658,128.016 C71.0773,129.522 69.0998,130.667 66.9537,131.382 C64.8079,132.098 62.5385,132.368 60.2846,132.177 C57.939,132.4 55.5727,132.146 53.3277,131.431 C51.0827,130.716 49.0054,129.555 47.2208,128.016 C45.6846,126.23 44.5242,124.153 43.8094,121.908 C43.0944,119.664 42.8398,117.298 43.0604,114.953 L43.0604,52.5463 C42.9058,50.1521 43.2556,47.7525 44.0869,45.5021 C44.9183,43.2517 46.2127,41.201 47.8865,39.4825 C49.5656,37.754 51.6106,36.4233 53.8712,35.5881 C56.1317,34.7529 58.5506,34.4346 60.9502,34.6563 C63.35,34.4346 65.7687,34.7529 68.0294,35.5881 C70.2898,36.4233 72.3348,37.754 74.014,39.4825 C77.1302,43.0225 78.911,47.5406 79.0481,52.255 L79.0481,66.5669 L76.9262,66.5669 Z M107.838,131.22 L105.051,108.171 L96.73,108.171 L93.984,131.553 L80.2546,131.553 L93.4015,35.0723 L109.211,35.0723 L122.275,131.345 L107.838,131.22 Z M100.974,96.1475 C102.06,96.1475 103.121,95.8254 104.025,95.2219 C104.928,94.6186 105.632,93.7608 106.047,92.7573 C106.463,91.7538 106.572,90.6496 106.36,89.5844 C106.148,88.519 105.625,87.5404 104.857,86.7725 C104.089,86.0044 103.11,85.4813 102.045,85.2694 C100.98,85.0575 99.8754,85.1663 98.8719,85.5819 C97.8685,85.9977 97.0108,86.7015 96.4073,87.6046 C95.804,88.5077 95.4819,89.5696 95.4819,90.6556 C95.4652,91.3838 95.5935,92.1079 95.8596,92.786 C96.1256,93.464 96.5237,94.0823 97.0308,94.605 C97.5381,95.1277 98.1442,95.5444 98.814,95.8306 C99.4837,96.1169 100.204,96.2669 100.932,96.2723 L100.974,96.1475 Z" id="Shape" fill-rule="nonzero"></path>
            <path d="M207.397,9.60971 C209.976,9.66848 212.532,10.1318 214.968,10.9827 C217.045,11.712 218.935,12.8912 220.501,14.4358 C222.085,15.8494 223.066,17.8139 223.247,19.9276 C223.857,22.1619 224.095,24.4808 223.955,26.7923 L211.474,28.8725 C211.437,27.1729 210.964,25.5113 210.101,24.0465 C209.78,23.4096 209.285,22.8765 208.674,22.5085 C208.064,22.1404 207.361,21.9525 206.648,21.9663 C206.27,21.9206 205.887,21.9606 205.527,22.0831 C205.167,22.2054 204.839,22.4073 204.568,22.6735 L203.195,24.0465 C203.116,24.5692 202.867,25.0515 202.487,25.4194 L202.487,60.4917 C202.395,61.4617 202.645,62.4333 203.195,63.2375 C203.522,63.6558 203.938,63.996 204.413,64.2335 C204.888,64.471 205.41,64.5998 205.941,64.6106 C207.314,64.6106 208.021,64.6106 208.687,63.9033 C209.105,63.576 209.445,63.16 209.682,62.685 C209.92,62.2102 210.049,61.6883 210.06,61.1573 L210.06,50.881 L205.899,50.881 L205.899,39.8977 L223.082,39.8977 L223.082,60.6998 C223.272,62.9538 223.003,65.2229 222.287,67.369 C221.572,69.515 220.426,71.4925 218.922,73.181 C217.232,74.6865 215.255,75.8317 213.11,76.5471 C210.964,77.2623 208.693,77.5327 206.44,77.3415 C204.094,77.5646 201.728,77.311 199.483,76.596 C197.238,75.881 195.161,74.7194 193.376,73.181 C191.871,71.4925 190.726,69.515 190.01,67.369 C189.295,65.2229 189.025,62.9538 189.216,60.6998 L189.216,27.4996 C189.025,25.2456 189.295,22.9763 190.01,20.8303 C190.726,18.6843 191.871,16.7067 193.376,15.0183 C195.171,13.14 197.358,11.6813 199.782,10.7463 C202.206,9.81136 204.806,9.42325 207.397,9.60971 Z" id="Path"></path>
            <polygon id="Path" points="230.072 76.3451 230.072 10.3191 260.276 10.3191 260.276 22.7172 243.095 22.7172 243.095 36.4466 258.197 36.4466 258.197 48.8447 243.095 48.8447 243.095 63.947 260.276 63.947 260.276 76.3451"></polygon>
            <polygon id="Path" points="289.108 41.2726 289.108 10.3191 302.173 10.3191 302.173 76.3451 291.19 76.3451 283.617 57.0824 278.833 44.6843 278.125 44.6843 278.125 76.3451 265.061 76.3451 265.061 10.3191 276.752 10.3191 284.325 29.582"></polygon>
            <polygon id="Path" points="308.332 76.3451 308.332 10.3191 338.578 10.3191 338.578 22.7172 321.397 22.7172 321.397 36.4466 336.499 36.4466 336.499 48.8447 321.397 48.8447 321.397 63.947 338.578 63.947 338.578 76.3451"></polygon>
            <path d="M359.838,10.3157 C362.382,10.1748 364.934,10.4131 367.409,11.0229 C369.616,11.9048 371.699,13.0653 373.609,14.4761 C375.311,16.3128 376.713,18.4045 377.77,20.6751 C378.613,23.5845 379.074,26.5915 379.143,29.6201 C379.318,33.3936 378.605,37.1557 377.061,40.6036 C375.828,43.312 373.924,45.6607 371.528,47.4267 L381.138,76.3001 L368.076,76.3001 L360.503,50.8382 L357.799,50.8382 L357.799,76.3001 L344.736,76.3001 L344.736,10.3157 L359.838,10.3157 Z M357.093,22.797 L357.093,38.6065 L361.959,38.6065 C362.668,38.6065 363.332,37.8993 364.04,37.2336 C364.459,36.9065 364.799,36.4903 365.036,36.0155 C365.274,35.5405 365.403,35.0186 365.413,34.4878 C365.984,33.1797 366.228,31.7511 366.12,30.3274 C366.178,29.3286 366.013,28.3295 365.641,27.4015 C365.266,26.4736 364.691,25.6401 363.957,24.9603 C363.353,24.2836 362.607,23.7467 361.774,23.3876 C360.94,23.0282 360.038,22.8551 359.13,22.8801 L357.093,22.797 Z" id="Shape" fill-rule="nonzero"></path>
            <path d="M405.849,63.2813 L395.574,63.2813 L393.493,76.3451 L379.764,76.3451 L392.245,10.3191 L407.722,10.3191 L420.787,76.3451 L407.055,76.3451 L405.849,63.2813 Z M398.984,40.5653 L397.612,50.8832 L403.812,50.8832 L402.439,40.5653 L401.066,27.5018 L400.357,27.5018 L398.984,40.5653 Z" id="Shape" fill-rule="nonzero"></path>
            <polygon id="Path" points="424.408 76.3451 424.408 10.3191 437.429 10.3191 437.429 63.947 454.612 63.947 454.612 76.3451"></polygon>
            <path d="M211.515,142.327 L201.905,142.327 L199.7,155.432 L185.971,155.432 L198.452,89.4062 L214.261,89.4062 L227.326,155.432 L213.597,155.432 L211.515,142.327 Z M205.317,119.653 L203.86,129.97 L210.059,129.97 L208.686,119.653 L207.314,106.589 L206.606,106.589 L205.317,119.653 Z" id="Shape" fill-rule="nonzero"></path>
            <path d="M263.69,136.169 C263.8,138.961 263.563,141.757 262.982,144.49 C262.632,146.763 261.684,148.902 260.236,150.689 C258.867,152.598 256.953,154.048 254.744,154.849 C252.065,155.764 249.255,156.228 246.423,156.222 C243.842,156.163 241.288,155.7 238.85,154.849 C236.79,154.114 234.915,152.936 233.359,151.396 C232.048,149.698 231.15,147.718 230.738,145.613 C230.13,143.379 229.89,141.06 230.032,138.748 L243.094,136.003 C243.148,137.898 243.617,139.758 244.467,141.453 C244.711,142.147 245.19,142.735 245.819,143.114 C246.45,143.494 247.194,143.642 247.921,143.533 C248.298,143.578 248.682,143.538 249.042,143.416 C249.403,143.294 249.73,143.092 250,142.826 L251.373,141.453 C251.373,140.745 252.082,140.08 252.082,138.707 L252.082,132.716 C252.082,132.009 251.373,131.343 251.373,130.635 C250.667,129.928 250,129.263 249.294,129.263 C248.586,128.555 247.213,128.555 246.548,127.89 C243.798,126.961 241.234,125.552 238.975,123.729 C237.04,122.485 235.394,120.839 234.15,118.903 C232.892,117.601 232.155,115.885 232.069,114.077 C232.069,111.997 231.363,110.624 231.363,107.878 C231.223,105.333 231.461,102.781 232.069,100.306 C232.692,98.1223 233.617,96.0359 234.815,94.1069 C236.517,92.5573 238.355,91.1648 240.307,89.9465 C245.696,88.0761 251.559,88.0761 256.948,89.9465 C259.03,91.3196 261.109,92.0267 261.775,94.1069 C263.08,95.793 263.978,97.758 264.396,99.8484 C264.93,101.628 265.167,103.483 265.103,105.34 L252.04,108.169 L252.04,105.423 C252.086,105.046 252.046,104.663 251.923,104.303 C251.8,103.943 251.598,103.615 251.332,103.343 C251.305,102.989 251.15,102.656 250.898,102.404 C250.646,102.153 250.315,101.999 249.959,101.97 C249.363,101.512 248.632,101.263 247.88,101.263 C247.128,101.263 246.396,101.512 245.798,101.97 L244.425,103.343 C244.425,104.05 243.719,104.716 243.719,105.423 L243.719,109.584 C243.719,110.291 244.425,110.957 244.425,111.664 L246.507,113.744 C247.732,114.721 249.15,115.43 250.667,115.824 C253.269,117.064 255.796,118.454 258.238,119.985 C259.959,120.993 261.392,122.425 262.398,124.145 C263.205,125.931 263.9,127.765 264.48,129.637 C263.878,131.76 263.611,133.964 263.69,136.169 Z" id="Path"></path>
            <path d="M302.174,136.171 C302.287,138.963 302.049,141.759 301.468,144.492 C301.118,146.765 300.17,148.904 298.722,150.691 C297.351,152.6 295.437,154.05 293.23,154.851 C290.551,155.766 287.739,156.23 284.91,156.224 C282.328,156.166 279.774,155.702 277.337,154.851 C275.276,154.117 273.401,152.938 271.845,151.398 C270.52,149.704 269.607,147.724 269.182,145.615 C268.574,143.381 268.335,141.062 268.474,138.751 L281.539,136.005 C281.593,137.9 282.062,139.76 282.912,141.455 C283.155,142.149 283.632,142.737 284.264,143.117 C284.895,143.496 285.637,143.644 286.366,143.535 C286.743,143.581 287.126,143.541 287.485,143.418 C287.845,143.296 288.174,143.094 288.445,142.828 L289.818,141.455 C289.818,140.748 290.526,140.082 290.526,138.709 L290.526,132.718 C290.526,132.011 289.818,131.345 289.818,130.638 C289.112,129.93 288.445,129.265 287.739,129.265 C287.03,128.558 285.657,128.558 284.991,127.892 C282.243,126.963 279.678,125.554 277.42,123.732 C275.485,122.487 273.839,120.841 272.593,118.905 C271.337,117.603 270.597,115.887 270.514,114.079 C270.514,111.999 269.805,110.626 269.805,107.88 C269.649,105.367 269.857,102.844 270.43,100.391 C271.053,98.2077 271.978,96.1213 273.176,94.1925 C274.878,92.6427 276.716,91.2502 278.668,90.0321 C284.057,88.1615 289.92,88.1615 295.31,90.0321 C297.391,91.405 299.47,92.1123 300.137,94.1925 C301.46,95.8463 302.385,97.7821 302.841,99.8507 C303.416,101.581 303.712,103.393 303.714,105.218 L290.485,108.171 L290.485,105.426 C290.528,105.048 290.489,104.665 290.366,104.305 C290.245,103.945 290.043,103.617 289.776,103.345 C289.747,102.991 289.595,102.658 289.343,102.406 C289.091,102.155 288.757,102.001 288.403,101.973 C287.807,101.514 287.076,101.265 286.324,101.265 C285.57,101.265 284.839,101.514 284.243,101.973 L282.87,103.345 C282.87,104.053 282.164,104.718 282.164,105.426 L282.164,109.586 C282.164,110.293 282.87,110.959 282.87,111.666 L284.951,113.746 C286.176,114.724 287.593,115.432 289.112,115.827 C291.712,117.067 294.241,118.456 296.682,119.987 C298.403,120.995 299.835,122.428 300.843,124.148 C301.649,125.933 302.345,127.768 302.924,129.639 C302.337,131.764 302.082,133.968 302.174,136.171 Z" id="Path"></path>
            <polygon id="Path" points="307.666 155.391 307.666 89.4062 337.87 89.4062 337.87 101.763 320.687 101.763 320.687 115.534 335.831 115.534 335.831 127.89 320.687 127.89 320.687 143.034 337.87 143.034 337.87 155.391"></polygon>
            <polygon id="Path" points="361.207 142.369 358.461 134.089 355.715 124.479 355.051 124.479 355.051 155.391 341.986 155.391 341.986 89.4062 354.343 89.4062 361.207 107.296 366.034 120.36 366.701 120.36 371.526 107.296 377.684 90.0721 390.04 90.0721 390.04 156.098 377.018 156.098 377.018 125.144 376.311 125.144 372.899 135.462 370.153 143.034 361.207 143.034"></polygon>
            <path d="M421.661,121.024 C422.901,121.559 424.061,122.259 425.115,123.105 C426.194,123.974 426.93,125.197 427.194,126.558 C427.961,127.823 428.43,129.245 428.567,130.718 C428.567,132.091 429.276,133.464 429.276,134.879 C429.753,140.561 427.992,146.205 424.365,150.605 C422.551,152.338 420.388,153.664 418.019,154.496 C415.653,155.328 413.136,155.647 410.636,155.431 L396.24,155.431 L396.24,89.4053 L411.342,89.4053 C413.738,89.1178 416.165,89.4015 418.43,90.233 C420.692,91.0647 422.728,92.4205 424.365,94.1897 C427.415,98.184 428.894,103.157 428.526,108.169 C428.634,109.593 428.39,111.021 427.819,112.329 C427.799,113.609 427.309,114.838 426.446,115.782 C425.926,116.817 425.221,117.748 424.365,118.528 C423.826,119.754 422.844,120.734 421.619,121.274 L421.661,121.024 Z M416.044,108.169 C416.09,106.248 415.615,104.35 414.671,102.677 C413.253,101.713 411.559,101.232 409.846,101.304 L408.474,101.304 L408.474,114.368 L409.846,114.368 C413.978,114.923 416.044,112.856 416.044,108.169 Z M416.753,134.296 C416.903,132.365 416.421,130.437 415.38,128.804 C414.671,127.432 413.299,127.432 411.219,127.432 L409.138,127.432 L409.138,143.241 L411.219,143.241 C412.592,143.241 413.299,143.241 413.965,142.534 L416.044,140.454 C416.594,139.649 416.844,138.678 416.753,137.708 L416.753,134.296 Z" id="Shape" fill-rule="nonzero"></path>
            <polygon id="Path" points="436.053 155.391 436.053 89.4062 449.117 89.4062 449.117 143.034 466.299 143.034 466.299 155.391"></polygon>
            <polygon id="Path" points="480.697 113.454 482.776 102.47 485.522 89.4062 499.251 89.4062 486.189 128.598 486.189 155.391 473.166 155.391 473.166 128.598 460.104 89.4062 473.833 89.4062 477.285 102.47"></polygon>
        </g>
    </g>
</svg>