<svg height="202" viewBox="0 0 497 202" width="497" xmlns="http://www.w3.org/2000/svg"><path d="m41.5655 161.529v-43.641h57.4966c6.2349 0 11.7769 2.075 15.9349 6.237 4.154 4.154 6.925 9.696 6.925 15.237 0 6.236-2.771 11.777-6.925 15.932-4.158 4.156-9.7 6.235-15.9349 6.235zm0-78.971v-42.2578h47.8006c6.2326 0 11.7739 2.7708 15.2379 6.2351 4.158 3.4643 6.234 9.0062 6.234 15.241 0 5.5416-2.076 11.0835-6.234 14.5478-3.464 4.154-9.0062 6.2339-15.2379 6.2339zm455.1265 18.704c0-2.771-.692-5.5419-.692-8.3129s-.687-5.542-.687-8.3129h-78.283l-11.776 18.0118-11.777 18.702h60.264c-3.46 12.471-10.383 22.861-20.087 30.483-9.002 6.928-20.785 11.777-34.637 11.777-16.623 0-31.868-7.622-42.951-18.706-11.083-11.083-17.318-27.016-17.318-44.337 0-16.6232 6.235-31.8657 17.318-42.9478 11.083-11.0835 27.02-18.7034 43.646-18.7034 7.621 0 14.544 1.385 20.779 3.4641 6.235 2.0777 12.47 5.542 17.319 9.0027l10.395-16.6235 10.389-16.6253c-7.621-5.5418-16.624-9.6991-26.32-13.16331-10.396-2.77098-20.786-4.15513-31.87-4.15513-15.238 0-29.095 2.7708-40.872 7.61854-12.471 4.8515-22.861 12.47-31.869 21.476-21.474 20.783-27.014 42.2571-31.17 62.3441-4.855 20.087-6.929 38.105-21.473 52.65-6.235 5.542-13.164 10.389-20.093 13.157-7.619 3.467-15.24 4.855-23.553 4.855-18.009 0-33.251-6.929-45.028-18.012-11.083-11.777-18.012-27.016-18.012-44.337 0-15.9313 6.928-31.8666 18.012-42.9482 11.777-11.0835 27.019-18.7036 45.028-18.7036 6.927 0 13.857 1.385 20.092 3.4643 6.235 2.0776 11.772 4.8482 17.319 9.0026l10.389-16.6237 10.39-17.3185c-7.622-5.5418-16.625-9.697-26.326-12.47008-10.386-2.77098-20.78-4.15512-31.864-4.15512-17.319 0-33.944 4.15512-47.799 11.0836-13.852 7.6184-26.324 18.0109-35.33 30.4812-3.464-11.0849-11.083-20.0918-20.782-27.0179-10.388-6.9284-22.859-10.3916-37.4063-10.3916h-90.0567v192.583h99.0621c12.4699 0 24.2479-2.768 33.2539-8.315 9.005-4.849 16.623-12.47 21.472-20.78 9.699 9.696 20.783 18.012 33.945 24.242 12.469 5.547 27.017 9.008 42.257 9.008 18.011 0 33.948-4.154 48.492-11.777 14.545-7.615 26.327-18.012 35.331-31.869 9.002 13.17 20.785 24.254 35.33 31.869 14.545 7.623 31.176 11.777 49.182 11.777 27.714 0 51.956-11.084 69.965-29.789 17.322-18.006 28.402-42.947 28.402-70.657z" fill="#fff"/></svg>