<svg height="145" viewBox="0 0 500 145" width="500" xmlns="http://www.w3.org/2000/svg"><path d="m437.388 92.9504v-41.4213h10.168v41.3613zm10.318-46.1674h-10.513v-9.0112h10.513zm-35.744 29.8121v-1.7422l-12.166 1.0664c-1.621.1502-2.282 1.0513-2.282 2.6733v3.5895c0 2.4331 2.538 3.7096 6.248 3.7096 4.731-.1872 8.415-4.1742 8.229-8.9061v-.3905zm0-12.015c.3-3.0655-1.899-5.8112-4.957-6.1875-.498-.0753-1.003-.0753-1.501 0-4.056 0-6.984 2.0274-6.984 5.8271h-10.137c.316-9.0112 7.644-13.697 17.527-13.697 9.881 0 16.113 5.0462 16.113 14.2228v20.2751h6.984v7.8698h-16.085v-6.398h-.33c-2.263 4.7751-7.206 7.6901-12.48 7.3592-6.883.3578-12.755-4.9234-13.126-11.8047v-.9462c0-6.6532 4.85-12.1651 13.516-12.8859l11.444-1.0063zm-35.865 28.3703h-11.7v-11.8497h11.7zm-48.406-25.2914h16.237v-1.5769c0-4.479-3.632-8.1101-8.11-8.1101-4.48 0-8.11 3.6311-8.11 8.1101zm8.11-17.0312c11.19 0 18.49 8.4105 18.49 19.7646v5.1213h-26.6v2.7486c-.039 2.0314.73 3.9956 2.138 5.4604 1.407 1.4647 3.341 2.3098 5.373 2.3491h.675c4.026.3562 7.58-2.6135 7.944-6.6382h10.139c-1.307 9.1613-8.2 14.4931-18.173 14.4931-11.76 0-18.727-8.726-18.727-21.8372 0-13.1113 7.509-21.5216 18.727-21.5216zm-42.938 30.9686 9.357-30.0374h10.693l-14.597 41.3013h-11.13l-14.507-41.3614h10.859l9.011 30.0374zm-39.137 11.354v-41.4213h10.137v41.3613zm10.287-46.1674h-10.513v-9.0112h10.513zm-30.338 38.1174h10.303v7.8548h-20.44v-33.4917h-8.321v-7.7344h8.2v-13.7872h10.137v13.7872h10.289v7.7344h-10.289zm-37.922-8.4555v-1.592l-12.165 1.0664c-1.622.1502-2.283 1.0513-2.283 2.6733v3.5895c0 2.4331 2.493 3.7096 6.007 3.7096 2.271-.0435 4.432-.9872 6.006-2.6238 1.574-1.6365 2.435-3.8314 2.39-6.102v-.5708zm0-12.0149c.308-3.0981-1.924-5.8712-5.017-6.2327-.498-.0601-1.001-.0601-1.501 0-4.055 0-6.984 2.0274-6.984 5.8422h-10.137c.3-9.0112 7.599-13.6969 17.527-13.6969s16.189 5.1213 16.189 14.3727v20.2753h6.953v7.8697h-16.039v-6.3679h-.314c-2.269 4.7639-7.201 7.6753-12.466 7.3592-6.883.3753-12.769-4.8929-13.157-11.7747v-.9762c0-6.6532 4.866-12.1651 13.516-12.8859l11.446-1.0063zm-60.165 3.1539h16.251v-1.5018c-.262-4.2958-3.822-7.6458-8.125-7.6458-4.304 0-7.864 3.35-8.126 7.6458zm8.11-17.0312c11.189 0 18.488 8.4256 18.488 19.7796v5.1215h-26.598v2.7334c-.059 4.2233 3.287 7.7099 7.51 7.8245h.616c1.938.1751 3.866-.4278 5.359-1.6758 1.493-1.2482 2.429-3.0388 2.6-4.9774h10.138c-1.322 9.1765-8.215 14.5081-18.188 14.5081-11.759 0-18.713-8.741-18.713-21.7771 0-13.0363 7.509-21.4617 18.713-21.4617zm-47.5787.9913h23.2187v7.9298h-12.976v33.4166h-10.1375zm-27.0336-.9761c8.6058 0 16.5206 4.5056 17.2865 14.9133h-10.1076c.1182-3.7825-2.8411-6.95-6.6231-7.0886-.3397-.0302-.6816-.0302-1.0213 0-4.0599-.1608-7.4818 2.9989-7.6446 7.0587v1.0512 11.4442c-.1837 1.96.4188 3.9125 1.6751 5.428 1.2563 1.5154 3.0634 2.4695 5.0233 2.6522h1.0063c4.5056 0 7.1489-1.8774 7.7646-7.3892h10.1677c-1.0063 10.3778-8.3204 15.304-17.4366 15.304-12.3153 0-18.7134-8.7258-18.7134-21.3867 0-13.727 7.2991-22.0023 18.6533-22.0023zm429.9543-50.5679h-499.04v144.404h499.04z" fill="#fff"/></svg>