<?xml version="1.0" encoding="UTF-8"?>
<svg width="56px" height="56px" viewBox="0 0 56 56" version="1.1" xmlns="http://www.w3.org/2000/svg" xmlns:xlink="http://www.w3.org/1999/xlink">
    <!-- Generator: Sketch 52.6 (67491) - http://www.bohemiancoding.com/sketch -->
    <title>logo_medium</title>
    <desc>Created with Sketch.</desc>
    <g id="Page-1" stroke="none" stroke-width="1" fill="none" fill-rule="evenodd">
        <g id="logo_medium" fill="#FFFFFF">
            <polygon id="Path" points="56 0 0 0 0 56 56 56"></polygon>
            <path d="M13.3634,18.7285 C13.4102,18.2667 13.234,17.8102 12.8892,17.4994 L9.37655,13.2678 L9.37655,12.6357 L20.2833,12.6357 L28.7137,31.1246 L36.1254,12.6357 L46.5229,12.6357 L46.5229,13.2678 L43.5195,16.1474 C43.2606,16.3448 43.1322,16.6691 43.1858,16.9902 L43.1858,38.148 C43.1322,38.469 43.2606,38.7934 43.5195,38.9907 L46.4526,41.8703 L46.4526,42.5024 L31.6995,42.5024 L31.6995,41.8703 L34.7379,38.9205 C35.0365,38.622 35.0365,38.5342 35.0365,38.0777 L35.0365,20.9759 L26.5885,42.4322 L25.4469,42.4322 L15.6115,20.9759 L15.6115,35.3562 C15.5295,35.9608 15.7303,36.5695 16.156,37.0067 L20.1077,41.8001 L20.1077,42.4322 L8.90234,42.4322 L8.90234,41.8001 L12.8541,37.0067 C13.2767,36.5687 13.4657,35.956 13.3634,35.3562 L13.3634,18.7285 Z" id="Path"></path>
        </g>
    </g>
</svg>