<svg height="103" viewBox="0 0 131 103" width="131" xmlns="http://www.w3.org/2000/svg" xmlns:xlink="http://www.w3.org/1999/xlink"><mask id="a" fill="#fff"><path d="m131.29.6992h-131.29v34.3008h131.29z" fill="#fff" fill-rule="evenodd"/></mask><mask id="b" fill="#fff"><path d="m.655.227539h17.452v17.041761h-17.452z" fill="#fff" fill-rule="evenodd"/></mask><g fill="none" fill-rule="evenodd"><g mask="url(#a)" transform="translate(0 75)"><g transform="translate(44 -24)"><path d="m3.5112 3.707h35.0853v13.2447c0 6.0659-2.2626 18.9363-17.4115 28.5126 0 0-16.418-6.8492-17.6738-28.5126z" fill="#b0263d" fill-rule="evenodd" stroke="#979797"/><path d="m.5542.75h40.9993v16.2017c0 11.0771-5.4768 22.5971-18.7885 31.012l-1.2996.8215-1.4189-.5919c-.7064-.2947-1.8289-.8703-3.2294-1.7671-2.2849-1.463-4.5605-3.3263-6.6828-5.6322-5.4934-5.969-9.0038-13.8152-9.5751-23.6712l-.005-.1711z" fill="none" stroke="#fff" stroke-width="5"/><g fill-rule="evenodd"><path d="m3.7561 3.9521v12.9995c1.1775 20.299 15.9475 27.5662 17.4086 28.2347 15.5079-9.861 17.1857-23.0241 17.1857-28.2347v-12.9995zm17.4523 41.7877-.1181-.049c-.1654-.0689-16.5746-7.1579-17.8252-28.7247v-13.5052h35.5765v13.4907c0 5.3042-1.7075 18.7207-17.5253 28.7204z" fill="#000"/><path d="m30.3901 21.2739s-.3128.9948-1.7057-.0281l-4.7759-.1143s-.6254.1991-.7106-.4546c0 0 .1136-1.3075.0569-1.4215 0 0 .0283-.3695-.5966-.3695 0 0-.9667.1134-.9953-.7389 0 0-.1707-.9105 1.1653-.8813 0 0 .4266.1986.4549-.3416 0 0-.0566-3.6956-.0283-3.9796 0 0 .1138-.3411-.5401-.3982 0 0-.938.1994-1.0518-.4262 0 0-.0566-.9386.5687-.9953 0 0 .7673.0567.9099-.1416 0 0 .17.1133.1416-.5685l.0284-1.1658s.0854-.3128.5689-.2847c0 0 .8813.0571.9944-.0281 0 0 .1993-.2563.2561-.3697 0 0 .455-.0283.5404.0852 0 0 .6821.4547 3.2693.2845 0 0 .398 0 .4828.1138 0 0 .4839.3692.7677-.0286 0 0 .4266-.0852 1.7057-.0571 0 0 1.3933.3697 2.3598-.4261l.3126.0567s.3978.6541.682.4551c0 0 .8532-.0857.9953.0846 0 0 .2845.4265.1424 1.5356 0 0-.1709.4833.6539.4833 0 0 .9375-.1702.824.7108 0 0 .2556.9949-1.3075.8523 0 0-.199.2847-.1704.4839 0 0-.0286 3.2407-.0572 3.6102 0 0-.0283.5116.6542.4835 0 0 .9092-.0576.938.7672 0 0 .1133 1.0803-1.1943.8813 0 0-.3979.0567-.455.3128l-.0566 1.4215s.0285.7106-.7678.5401c-.1135 0-4.4343.0855-4.8037-.0283 0 0-.1993-.0284-.2564.0852zm-9.2307 4.8205s.1986-.0853.2557-.2278c0 0 .5964-.0567.6818-.1415l1.8771.1415s1.8471.1425 2.6432-.4264c0 0 .2844 0 .4834.0857 0 0 .3976.0854.5116.2552l1.0801-.0283s.6256.1985.5685.5979v.5109s-.1136 1.023.1711 1.0808h.8237s.6828.3128.5975.711c0 0 .0281.5681-.5687.6814 0 0-.597.1705-.7958.1426 0 0-.199.2561-.2278.5687l-.0846 3.7232s-.0568.3983.5395.3421c0 0 .8811-.0855 1.1374.3976 0 0 .2272.8246-.2275.9672l-.3412.1702-.7389.1138s-.3128.0285-.3416.568v.9951s.0288.6825-.5116.6825l-.7956.0571s-.1992.1698-.597.0562c0 0-4.8326.0857-5.0035.0288l-.5687.1138s-.6254.5682-1.1372.1414l-.3976-.313s-.2847.0578-.398.029c-.1138-.029-5.3444.0576-5.3444.0576s-1.1089.1138-1.1939-.2568c0 0-.1428-1.4491-.0856-1.6203 0 0 0-.4261-.2555-.454 0 0-1.1086-.0569-1.1376-.1716 0 0-.5971-.4252-.4264-.8525 0 0 .1992-.5685.7965-.6253 0 0 .9094.1428.9094-.1136 0 0 .0564-.1709.0564-.4542 0 0 .0572-3.3833.0288-3.6102 0 0 .0855-.4263-.2847-.4263 0 0-.3971.1122-.6537-.0579 0 0-.6818.0288-.8237-.512 0 0-.1142-.3411.0564-.6254 0 0 .3128-.6256 1.2222-.4257 0 0 .5119.1417.569-.2278l-.029-1.3645s-.1134-.3695.5975-.5687c0 0 .9096.2559 1.1938-.1986 0 0 .3133-.6254.5685-.1988 0 0 .5402.5114 2.0183.4541 0 0 2.5586-.1991 2.6157-.0855 0 0 .6249.0855.7958.2847zm-7.7674-4.7514s-.3126.995-1.7057-.0288l-4.7761-.1138s-.625.1992-.7102-.4545c0 0 .1133-1.3074.0564-1.4212 0 0 .0288-.3701-.5965-.3701 0 0-.9668.1144-.9951-.739 0 0-.1707-.9098 1.1653-.8815 0 0 .4263.1995.4551-.3405 0 0-.0569-3.6962-.0288-3.98 0 0 .1141-.3409-.5401-.398 0 0-.9377.1987-1.0515-.4266 0 0-.0571-.938.5685-.9949 0 0 .7675.0569.9094-.1423 0 0 .1706.114.1425-.569l.0281-1.1653s.0857-.3128.5688-.2842c0 0 .881.0564.995-.0286 0 0 .1988-.2552.2559-.3692 0 0 .4547-.0283.5402.085 0 0 .6818.4549 3.269.2842 0 0 .3982 0 .4832.1143 0 0 .4838.3692.768-.0293 0 0 .4259-.085 1.7052-.0564 0 0 1.3931.3692 2.3601-.4261l.3126.0571s.3973.6532.6818.4547c0 0 .8532-.0857.9951.0852 0 0 .2844.4266.1421 1.535 0 0-.1707.4835.6544.4835 0 0 .9372-.1709.8239.7104 0 0 .2557.9953-1.3081.8531 0 0-.1986.2841-.1702.4828 0 0-.0284 3.2409-.0569 3.6104 0 0-.0281.5116.6542.4835 0 0 .9093-.0571.9381.7679 0 0 .1131 1.0801-1.1941.8809 0 0-.3982.0573-.4551.313l-.0569 1.4212s.0286.7108-.7673.5402c-.1135 0-4.4347.085-4.804-.0284 0 0-.1994-.029-.2563.0853z" fill="#fff"/><path d="m30.9665 12.336c-.0855-.2276.4832-.2559.4832-.2559l.2838.0564c.199-.0281.3983.0569.3983.0569.1992.3126-.1421.4837-.1421.4837l-.1136.3695c-.0281.313 0 3.0129 0 3.0129.0564.1425.284.3984.284.3984 0 .2555-.3121.1988-.3121.1988l-.8246.0284c-.2562-.0284-.1712-.3122-.1712-.3122.2845-.1425.3702-.6543.3702-.6543v-2.8144zm-3.8098.398c.0286.6256.0286 1.4776.0286 1.4776.5404.4266.8527-.1702.8527-.1702.7108-.6818 0-1.3074-.1136-1.4783-.1135-.1703-.6822-.0284-.6822-.0284zm-.0285 2.2453-.0563.8818.256.4263c.1706.2276-.1143.3979-.1143.3979l-.9096-.0855c-.1702-.0848 0-.3695 0-.3695.2276-.1414.2561-.5118.2561-.5118l-.0285-1.6485.0285-1.1941c0-.1419-.2273-.3985-.2273-.3985-.199-.0279-.1428-.284-.1428-.284.0571-.1422.5404-.0569.5404-.0569h1.194c1.1372.3694.9661 1.1941.9661 1.1941.0855.8246-.7954 1.1657-.7954 1.1657l-.0571.4547.8244 1.3077c.1421.1142.1136.2273.1136.2273-.1136.313-.5683 0-.5683 0l-1.0239-1.5919c-.0847-.1138-.2556.0852-.2556.0852zm-5.9686 11.1155s.1986-.0852.2557-.2278c0 0 .5964-.0567.6818-.1415l1.8771.1415s1.8471.1426 2.6432-.4264c0 0 .2844 0 .4834.0857 0 0 .3976.0855.5116.2552l1.0801-.0283s.6256.1986.5685.598v.5109s-.1136 1.0229.1711 1.0807h.8237s.6828.3128.5975.7111c0 0 .0281.568-.5687.6813 0 0-.597.1705-.7958.1426 0 0-.199.2561-.2278.5687l-.0846 3.7233s-.0569.3982.5395.342c0 0 .8811-.0854 1.1374.3976 0 0 .2272.8246-.2275.9672l-.3412.1702-.7389.1138s-.3128.0286-.3416.568v.9951s.0288.6825-.5116.6825l-.7956.0571s-.1992.1698-.597.0562c0 0-4.8326.0857-5.0035.0288l-.5687.1138s-.6254.5683-1.1372.1415l-.3976-.3131s-.2847.0578-.398.029c-.1138-.029-5.3444.0576-5.3444.0576s-1.1089.1138-1.1939-.2568c0 0-.1428-1.4491-.0856-1.6202 0 0-.0001-.4262-.2555-.454 0 0-1.1086-.0569-1.1377-.1716 0 0-.597-.4253-.4263-.8525 0 0 .1992-.5685.7965-.6254 0 0 .9094.1428.9094-.1136 0 0 .0564-.1709.0564-.4542 0 0 .0571-3.3833.0288-3.6102 0 0 .0855-.4263-.2847-.4263 0 0-.3971.1122-.6537-.0578 0 0-.6818.0288-.8237-.5121 0 0-.1142-.3411.0564-.6253 0 0 .3128-.6256 1.2222-.4257 0 0 .5119.1416.569-.2278l-.029-1.3646s-.1134-.3694.5975-.5687c0 0 .9096.2559 1.1938-.1985 0 0 .3133-.6254.5685-.1988 0 0 .5401.5113 2.0183.454 0 0 2.5586-.199 2.6157-.0855 0 0 .6249.0855.7958.2847z" fill="#000"/></g><path d="m21.1597 26.0944s.1985-.0852.2556-.2278c0 0 .5964-.0566.6818-.1414l1.8771.1414s1.8471.1426 2.6432-.4263c0 0 .2844 0 .4835.0856 0 0 .3975.0855.5115.2553l1.0801-.0284s.6256.1986.5685.598v.5109s-.1136 1.023.1711 1.0808h.8238s.6827.3128.5974.711c0 0 .0282.5681-.5687.6814 0 0-.597.1704-.7958.1426 0 0-.199.2561-.2278.5687l-.0845 3.7232s-.0569.3983.5394.3421c0 0 .8811-.0855 1.1374.3976 0 0 .2272.8246-.2275.9671l-.3412.1703-.7389.1138s-.3128.0285-.3416.568v.9951s.0288.6825-.5116.6825l-.7956.0571s-.1992.1698-.597.0562c0 0-4.8326.0857-5.0035.0288l-.5687.1138s-.6254.5682-1.1372.1414l-.3976-.313s-.2847.0578-.398.029c-.1138-.029-5.3444.0576-5.3444.0576s-1.1089.1138-1.1939-.2568c0 0-.1428-1.4491-.0856-1.6203 0 0 0-.4261-.2555-.454 0 0-1.1086-.0569-1.1377-.1716 0 0-.597-.4252-.4263-.8525 0 0 .1992-.5685.7965-.6254 0 0 .9094.1428.9094-.1135 0 0 .0564-.1709.0564-.4543 0 0 .0572-3.3832.0288-3.6101 0 0 .0855-.4264-.2847-.4264 0 0-.3971.1122-.6537-.0578 0 0-.6818.0288-.8237-.512 0 0-.1142-.3412.0564-.6254 0 0 .3128-.6256 1.2222-.4257 0 0 .5119.1417.569-.2278l-.029-1.3645s-.1134-.3695.5975-.5687c0 0 .9096.2559 1.1938-.1986 0 0 .3133-.6254.5685-.1988 0 0 .5402.5114 2.0183.454 0 0 2.5586-.199 2.6157-.0854 0 0 .6249.0854.7958.2847z" fill="none" stroke="#000" stroke-width="1.084"/><path d="m21.8987 37.2667s.3409-.1711.5687-.1138c.2271.0567 3.5539-.0285 3.5539-.0285s1.4493.114 1.6764-.0846l.3412-.1149s.1416-.1693.1416-.3971c0-.2281.0293-.9947.0293-.9947l.0845-.2842s-.0283-.2854 0-7.8753c0 0 .114-.5975-.2554-.9663 0 0 0-.2278.1138-.1988.1133.0286.0571.0285.0571.0285s.5113-.1425.5968.056c0 0 .2273.6821.0283 1.0806 0 0-.0569.8241.3693.8241 0 0 .1707.1712.5118.0855 0 0 .7392.0857.7392.3128 0 0-.0001.5118-.5119.4261l-.6822.0569s-.4545.0857-.3976.6252c.0569.5408-.0286 4.4073-.0286 4.4073s0 .4554.7109.4266c0 0 .8812-.029.8812.2273 0 0 .2272.5683-.3982.5973 0 0-1.1939-.029-1.1084.3114 0 0-.0855.7968-.1424.9382 0 0 .1138.6544-.0288.7677 0 0-.0845.3704-.8522.3128 0 0-4.8895-.0278-5.6574.0288 0 0-.4549-.0566-.3409-.4549zm-.8809-.5405s.483.0857.483.5406.0284.711-.2561.7675c-.2843.056-.5968-.0284-.6823-.3983-.0854-.3692.0571-.8241.4554-.9098z" fill="#fff" fill-rule="evenodd"/><path d="m21.5864 36.4987s.5111-.3405.7104-.2843c0 0 2.5869.1705 3.3828.029.7965-.143.3125-.029.3125-.029s.6828 0 .8813-.2557c0 0 .199-.0569.3128.1417l.4266.4558s.0284.284-.4549.2555c0 0-4.634 0-4.7757.0285 0 0-.8813.1415-.7958-.3415z" fill="#fff" fill-rule="evenodd"/><path d="m21.5864 36.4987s.5111-.3405.7104-.2843c0 0 2.5869.1705 3.3828.029.7965-.143.3125-.029.3125-.029s.6828 0 .8813-.2557c0 0 .199-.0569.3128.1417l.4266.4558s.0284.284-.4549.2555c0 0-4.634 0-4.7757.0285 0 0-.8813.1415-.7958-.3415z" fill="none" stroke="#000" stroke-width=".542"/><path d="m14.8483 26.4072s.199 0 .1707.3414l-.0562 8.585s.0845.5685-.3988.9385c0 0-.2554.3121-.2554-.1714l.1131-8.7551s.029-.6544.4266-.9384z" fill="#fff" fill-rule="evenodd"/><path d="m14.8483 26.4072s.199 0 .1707.3414l-.0562 8.585s.0845.5685-.3988.9385c0 0-.2554.3121-.2554-.1714l.1131-8.7551s.029-.6544.4266-.9384z" fill="none" stroke="#000" stroke-width=".542"/><path d="m14.3938 26.4635s-.3416.6258-.3124.7684l-.0292 1.9045s-.0281 1.2226 0 1.3648c.0292.1414-.0281 3.7243-.0281 3.7243s-.0281.6821 0 .9097v1.5352s-.0571.6823.4547.5107c0 0 5.0034-.1127 5.3162-.0279 0 0 .4545.0854.2836.313 0 0 0 .199-.3117.1424 0 0-2.3598.2271-4.4916.1421 0 0-1.4217.085-1.5071-.0855 0 0-.2281-.029-.2281-.8531 0 0 0-.7671-.0562-.9097 0 0 .0562-.3978-.6537-.4834 0 0-.9953.1706-1.0232-.4264 0 0 .1419-.4255 1.1087-.3693 0 0 .7101.1138.5682-.4553l.0857-4.2063s.0852-.7399-.3985-.7691c0 0-.4549-.0276-.5972.0292 0 0-.824 0-.7669-.4832 0 0 .2838-.5118 1.1087-.398 0 0 .6244.114.6539-.5971 0 0-.0295-1.4502.3126-1.5062 0 0 .7101.0277.5116.2262z" fill="#fff" fill-rule="evenodd"/><path d="m15.2469 35.874s.3978.4264 1.0512.3985l3.8661.0564s.4263.0288.3982.256c0 0-.0566.3406-.5684.2275l-4.6621-.0562-.5116.0284s-.3414-.0579.1988-.7113z" fill="#fff" fill-rule="evenodd"/><path d="m15.2469 35.874s.3978.4264 1.0512.3985l3.8661.0564s.4263.0288.3982.256c0 0-.0566.3406-.5684.2275l-4.6621-.0562-.5116.0284s-.3414-.0579.1988-.7113z" fill="none" stroke="#000" stroke-width=".542"/><path d="m27.186 35.5051s.3412.6542.5119.7394c0 0 .3125.3688.2275-.2847l.0569-8.1877s-.0852-.2842 0-.7382l-.3413-.6259s-.3695-.284-.3695.17l-.0571 8.7277z" fill="#fff" fill-rule="evenodd"/><path d="m27.186 35.5051s.3412.6542.5119.7394c0 0 .3125.3688.2275-.2847l.0569-8.1877s-.0852-.2842 0-.7382l-.3413-.6259s-.3695-.284-.3695.17l-.0571 8.7277z" fill="none" stroke="#000" stroke-width=".542"/><g fill-rule="evenodd"><path d="m20.8749 31.6071s.0281.683-.0571 1.3362c-.0462.3559.114 2.0188-.0285 2.8703 0 0-.0281.2852-.6254.0288 0 0-3.6383.0862-3.7521-.0288 0 0-.9953.0288-1.0803-.4825 0 0 .1422-3.8944.0565-4.0372 0 0-.0565-2.1318 0-2.3309 0 0 .0857-1.9606.0285-2.1887 0 0 .0286-.4553-.0569-.6827 0 0 0-.2845.4838-.1131 0 0 .1702.3126 1.1081.1702 0 0 .6823.1138 1.3365.0286 0 0 1.4493-.1136 1.8197 0 0 0 .568-.1136.7389.5118l-.0288 1.7621.1707.5694.1992-.143.085-.4264.0286-1.8756s.1138-.3416.5687-.3983c0 0 .7099-.0857.8242-.0286.1138.0569 1.649.1424 2.0754.0569.4263-.0856.5115.2847 1.7906-.3697 0 0 .3416.0286.3416.2557 0 0-.114 2.4172 0 2.8714 0 0 0 4.4341-.0854 4.7478l.0566 1.4213s.0574.6256-.9377.6815c0 0 .6249.0864-3.298-.0274 0 0-.6256-.0285-1.3077.2838 0 0-.1419-.0288-.1419-.3973 0 0 .1136-1.3365 0-2.6444l-.0573-1.4488z" fill="#fff"/><path d="m18.3161 29.5921s.085 2.103 0 2.387l-.0283.4554s.1133.3119.2845.4261c0 0 .1423.3974-.199.3695 0 0-.7109-.0569-.8811-.0281 0 0-.3983 0 0-.5118 0 0 .1417-.1991.1136-.7111 0 0 0-2.387.0566-2.5296 0 0 .0569-.3133-.1419-.3985l-.3416.0281-.4261.3985s-.0854.4261-.2845-.0281v-.2278l.2562-.6825.1707-.0286s.2559.1705.483.2278h1.3364l.4831-.2278s.1985.0286.1423.2845c0 0 .0848.6544-.2847.7392 0 0-.2271-.0848-.3407-.3981 0 0-.3699-.1985-.3985.4559zm6.2829-.7684s-1.0801-.0852-1.1091 1.0801c0 0-.1136.7965 1.0805 1.3085 0 0 .8815.4264.8246.9659 0 0-.1138.9672-1.0519.483 0 0-.455-.2267-.4269-.483 0 0-.1416-.3126-.3125-.2557 0 0-.1988.0567-.1138.9953 0 0 0 .3692.4263 0l.2279.056s.7677.6256 1.4212-.1421c0 0 .7108-.6535.1992-1.4494 0 0-.3695-.5693-1.023-.8534 0 0-.626-.2837-.7677-.7665 0 0 .199-.8537.9663-.3981 0 0 .2842.34.4549.3981 0 0 .2278-.0001.1703-.5121l-.0565-.4266s-.0569-.3132-.4547 0c0 0-.3699.1424-.4551 0zm-3.9233 1.279c-.0284.1426-.2272.9384-.2272.9384l.1707.284s.4549.0286.6252.0286c.1707 0 .1988-.1412.1988-.2838 0-.1414-.3128-.9951-.3128-.9951l-.1419-.1711zm.4547-1.8759c.1992.1424.2278.4268.2278.4268.5687 1.506 1.0519 3.6961 1.0519 3.6961.1426.2838.3978.5109.3978.5109.4831.1709 0 .3126 0 .3126-.199.0847-.8525-.0277-.8525-.0277-.3416-.0573-.1992-.1718-.1992-.1718.1421-.1421.0281-.7102.0281-.7102-.0281-.2278-.2838-.5975-.2838-.5975-.1138-.0562-.3128.1995-.3128.1995s-.3128.1136-.3411 0c-.029-.1138-.2274-.2269-.2274-.2269-.3409 0-.4835.8525-.4835.8525.1991.7108 0 .5971 0 .5971-.1704.228-.711.0573-.711.0573-.2552-.0573-.0848-.257-.0848-.257.3128-.0569.3974-.3974.3974-.3974.1425-.1992 1.0519-3.8948 1.0519-3.8948.0857-.1703.1426-.5121.3412-.3695zm-7.7384-6.8836s-.3126.9951-1.7057-.0288l-4.7761-.1137s-.625.1992-.7102-.4545c0 0 .1133-1.3074.0564-1.4212 0 0 .0288-.3702-.5965-.3702 0 0-.9668.1145-.9951-.7389 0 0-.1707-.9099 1.1653-.8815 0 0 .4263.1994.4551-.3405 0 0-.0569-3.6963-.0288-3.98 0 0 .1141-.341-.5401-.3981 0 0-.9377.1988-1.0515-.4266 0 0-.0571-.9379.5685-.9948 0 0 .7675.0569.9094-.1424 0 0 .1706.1141.1425-.5689l.0281-1.1653s.0857-.3128.5688-.2842c0 0 .881.0564.995-.0286 0 0 .1988-.2552.2559-.3692 0 0 .4547-.0284.5402.085 0 0 .6818.4549 3.269.2842 0 0 .3982 0 .4832.1142 0 0 .4838.3693.768-.0292 0 0 .4259-.085 1.7052-.0564 0 0 1.3931.3692 2.3601-.4262l.3126.0571s.3973.6533.6818.4547c0 0 .8532-.0856.9951.0853 0 0 .2844.4266.1421 1.535 0 0-.1707.4834.6544.4834 0 0 .9372-.1709.8239.7104 0 0 .2557.9953-1.3081.8532 0 0-.1986.284-.1702.4828 0 0-.0284 3.2409-.0569 3.6104 0 0-.0281.5116.6541.4835 0 0 .9094-.0572.9382.7679 0 0 .1131 1.0801-1.1941.8808 0 0-.3982.0574-.4551.3131l-.0569 1.4212s.0286.7108-.7673.5401c-.1135 0-4.4347.085-4.804-.0283 0 0-.1994-.029-.2563.0852z" fill="#000"/></g></g></g><g fill="#fff"><path d="m58.5011 2.46294c-.3695-.81328-.9375-1.40693-1.8938-1.619086v-.47419c.5975 0 2.576.071854 3.0314.071854.4187 0 2.3365-.071854 2.9478-.071854v.462176c-.5419.105628-1.1641.40846-1.1641.96697 0 .39349.2455.93863.7002 1.96158l4.3447 9.87521 4.1102-9.89243c.3212-.80105.5599-1.41396.5599-1.88815 0-.52428-.4858-.882872-1.1683-1.02318v-.462176c.5461 0 1.8664.071854 2.2871.071854.3831 0 1.9541-.071854 2.5491-.071854v.447669c-1.0243.276087-1.6499.865417-2.2213 2.200947l-6.0455 14.26012h-1.3657zm-58.5011 14.27196c.789032-.1802 1.34301-.5373 1.34301-1.4317v-13.07261c0-.86021-.515445-1.2154-1.34301-1.430506v-.465123c.413669 0 2.19913.071174 2.63343.071174.50048 0 2.37208-.071174 2.78417-.071174v.465123c-.7904.178841-1.37429.536526-1.37429 1.430506v5.46111h9.73969v-5.46111c0-.89398-.5188-1.251665-1.3416-1.430506v-.465123c.4111 0 2.2492.071174 2.7483.071174.4314 0 2.2576-.071174 2.6654-.071174v.465123c-.7888.178841-1.3736.536526-1.3736 1.430506v13.07261c0 .8591.5485 1.217 1.3736 1.4317v.4299c-.4078 0-2.234-.036-2.6654-.036-.4991 0-2.3372.036-2.7483.036v-.4299c.7845-.1802 1.3416-.5373 1.3416-1.4317v-6.17828h-9.73969v6.17828c0 .8944.54672 1.217 1.37429 1.4317v.4299c-.41209 0-2.28369-.036-2.78417-.036-.4343 0-2.219761.036-2.63343.036z"/><path d="m4.919 15.8747c.61.1108 1.738.1804 2.627.1804 5.032 0 7.652-3.0292 7.652-7.25361 0-4.38014-2.764-7.46305-7.469-7.46305-.959 0-2.164.07185-2.81.17703zm-4.264.8609c1.01-.1802 1.566-.5799 1.566-1.5031v-13.00099c0-.89647-.549-1.251659-1.525-1.430501v-.465123c.561 0 2.393.070948 2.9.070948.818 0 3.104-.179295 4.881-.179295 5.992 0 9.63 3.344941 9.63 8.434091 0 4.94407-3.785 8.60797-9.963 8.60797-1.781 0-3.892-.1401-4.72-.1401-.503 0-2.21.0716-2.769.0716z" mask="url(#b)" transform="translate(112)"/><path d="m44.8369 8.32716c.5351.07004 1.3237.10586 2.1055.10586 3.1509 0 4.1405-1.81244 4.1405-3.41589 0-2.27416-1.5148-3.67905-4.2751-3.67905-.5692 0-1.3977.07162-1.9709.17702zm0 6.85694c0 .8645.5501 1.3364 1.5626 1.5511v.4656c-.5628 0-2.3972-.0717-2.9231-.0717-.4472 0-2.2438.0717-2.8068.0717v-.4656c.9382-.1802 1.4926-.6449 1.4926-1.5511v-12.9092c0-.79402-.432-1.295639-1.4908-1.47448v-.464896c.5626 0 2.3399.070947 2.8392.070947.8233 0 3.1612-.137361 4.0814-.137361 4.027 0 6.2701 1.6651 6.2701 4.51682 0 2.24605-1.6719 3.75929-4.2396 4.38263 0 0 .5803.33977 1.1662 1.02224.7129.8362 2.6752 3.6451 3.4687 4.6075.7927.9624 1.8091 2.0391 2.8989 2.089v.3774c-.5207.1133-1.3564.2101-1.9931.2101-1.3741 0-2.4666-.481-3.5258-1.7669-.9164-1.1147-2.5156-3.487-3.4336-4.6578-.5857-.7459-1.2906-1.32938-2.5876-1.54177-.2555-.04284-.4955-.07797-.7793-.10971zm53.1071-6.85694c.5383.07004 1.3235.10586 2.104.10586 3.152 0 4.141-1.81244 4.141-3.41589 0-2.27416-1.517-3.67905-4.2719-3.67905-.5723 0-1.4003.07162-1.9731.17702zm0 6.85694c0 .8645.5503 1.3364 1.5615 1.5511v.4656c-.5621 0-2.3929-.0717-2.9215-.0717-.4509 0-2.2445.0717-2.8075.0717v-.4656c.9352-.1802 1.4896-.6449 1.4896-1.5511v-12.9092c0-.79402-.4325-1.295639-1.4878-1.47448v-.464896c.5655 0 2.3358.070947 2.8383.070947.8242 0 3.1609-.137361 4.0774-.137361 4.035 0 6.273 1.6651 6.273 4.51682 0 2.24605-1.67 3.75929-4.24 4.38263 0 0 .584.33977 1.166 1.02224.717.8362 2.679 3.6451 3.471 4.6075.795.9624 1.812 2.0391 2.895 2.089v.3774c-.515.1133-1.354.2101-1.986.2101-1.377 0-2.471-.481-3.53-1.7669-.914-1.1147-2.512-3.487-3.433-4.6578-.585-.7459-1.292-1.32938-2.5854-1.54177-.2584-.04284-.4964-.07797-.7806-.10971zm-66.7883-4.7512-2.682-6.24946-2.4983 6.24946zm-10.7371 6.3014c1.0654-.2509 1.6511-.9393 2.0396-1.8639l5.3935-12.97744c.2292-.53879.4955-1.641983.4955-1.641983h1.5106s.2706 1.105913.4945 1.644253l5.7003 13.01097c.4053.8958.8466 1.5416 1.9795 1.8281l-.0027.4311c-.6179 0-2.5358-.0363-2.9719-.0363-.4359 0-2.2655.0363-2.8841.0363l.0027-.4311c.8303-.2049 1.0914-.6286 1.0914-1.0357 0-.3472-.1425-.7382-.3164-1.1458l-1.2249-2.7948h-6.2826l-1.1209 2.8109c-.1271.3185-.2758.7687-.2758 1.0715 0 .4685.245.843 1.1868 1.0939l-.0027.4311c-.558 0-2.0284-.0363-2.375-.0363l-2.4394.0363zm64.1767-6.3014-2.6849-6.24946-2.4974 6.24946zm-10.7397 6.3014c1.0642-.2509 1.6526-.9393 2.0386-1.8639l5.3965-12.97744c.2276-.53879.4973-1.641983.4973-1.641983h1.5101s.2659 1.105913.4912 1.644253l5.7023 13.01097c.4023.8958.8448 1.5416 1.9752 1.8281l-.0021.4311c-.614 0-2.5343-.0363-2.9732-.0363-.4318 0-2.2621.0363-2.8809.0363l.0022-.4311c.834-.2049 1.0903-.6286 1.0903-1.0357 0-.3472-.1403-.7382-.3128-1.1458l-1.2281-2.7948h-6.2828l-1.1208 2.8109c-.1267.3185-.275.7687-.275 1.0715 0 .4685.2437.843 1.1871 1.0939l-.0016.4311c-.559 0-2.0296-.0363-2.3769-.0363l-2.4389.0363zm-54.2736 24.6394c.7437-.1376 1.0467-.7165 1.0467-1.1572v-10.001c0-.5234-.303-.9364-1.1297-1.1016v-.3582c.3033 0 1.8186.0551 2.2044.0551.3305 0 1.8734-.0551 2.1762-.0551v.3582c-.7985.1926-1.1571.5508-1.1571 1.1016v10.3592h3.995c1.3498 0 2.0112-.4683 2.562-1.5706l.3582.083-.3582 2.6998c-1.2398-.1102-1.9835-.1102-3.3887-.1102h-4.1874c-.3858 0-1.7082.0551-2.1214.0551zm13.3893 0c.8267-.1653 1.1572-.5787 1.1572-1.1021v-10.0561c0-.5234-.3305-.9364-1.1572-1.1016v-.3582c.3033 0 1.8737.0551 2.2595.0551.3305 0 1.8732-.0551 2.1762-.0551v.3582c-.7988.1926-1.1848.5508-1.1848 1.1016v10.0561c0 .5513.386.9092 1.1848 1.1021v.3581c-.303 0-1.8457-.0551-2.1762-.0551-.3858 0-1.9562.0551-2.2595.0551zm11.7639-.689c.4408.0827 1.1023.1102 1.5429.1102 1.9836 0 3.196-.9917 3.196-2.6997 0-1.6807-1.4604-2.7-3.1409-2.7h-1.598zm1.0746-6.2812c1.8183 0 2.9757-.551 2.9757-2.3417 0-1.4879-1.047-2.5348-2.8379-2.5348-.4409 0-.799.055-1.2124.1375v4.739zm-4.2156 6.9703c.7442-.1378 1.0472-.7168 1.0472-1.1574v-10.0008c0-.4132-.3307-.964-1.0472-1.1019v-.3581c.4137 0 1.7359.0551 2.1216.0551.6336 0 2.2592-.1376 2.9755-.1376 2.5072 0 4.3808 1.0742 4.3808 3.306 0 1.4599-1.0197 2.4244-2.2866 2.865 1.7356.5234 2.9752 1.8184 2.9752 3.306 0 2.7828-2.5346 3.6367-5.042 3.6367-.716 0-2.3693-.1102-3.0029-.1102-.3857 0-1.7079.0553-2.1216.0553zm16.2553-6.3369c.4134.0551 1.1297.0828 1.7356.0828 2.4523 0 3.2234-1.4052 3.2234-2.6448 0-1.7633-1.2122-2.9481-3.361-2.9481-.4409 0-1.1569.0554-1.598.1379zm-3.1407 6.3368c.6888-.1376 1.0469-.6889 1.0469-1.1298v-10.0284c0-.413-.303-.9641-1.0469-1.1016v-.3582c.4134 0 1.7356.0551 2.1214.0551.6335 0 2.4795-.1378 3.196-.1378 2.5346 0 5.069 1.0744 5.069 3.8295 0 1.6529-1.3222 2.8926-3.2783 3.3887l3.3333 3.857c.4962.5785 1.1848 1.295 1.8184 1.6255v.303c-1.9009.2754-2.7824.1376-3.9121-1.1571l-3.8019-4.408c-.5234 0-.9917-.0275-1.4051-.0828v4.2151c0 .4133.3581.9645 1.102 1.1298v.3581c-.4129 0-1.7906-.0551-2.1764-.0551-.3307 0-1.6529.0551-2.0663.0551zm22.7011-4.4909-2.1765-5.1519-2.3142 5.1519zm-8.7056 4.491c.7437-.1929 1.0467-.7442 1.3772-1.4328l4.4907-9.7805c.1929-.4132.4686-1.515.4686-1.515h1.35s.3031 1.1018.4681 1.515l4.1052 9.8079c.3032.6887.6061 1.1848 1.4599 1.4054v.3305c-.468 0-1.7906-.0277-2.1211-.0277s-1.5706.0277-2.0387.0277v-.3305c.6333-.1929.7161-.5789.6612-.8543-.0279-.1376-.1931-.5785-.248-.7163l-.8266-1.8457h-5.3997l-.8267 1.8457c-.0553.1378-.2203.5787-.248.7163-.055.2754.1653.6614.7993.8543v.3305c-.4137 0-1.3226-.0277-1.598-.0277h-1.8734zm19.0921-6.3369c.4134.0551 1.1297.0828 1.7358.0828 2.4523 0 3.2234-1.4052 3.2234-2.6448 0-1.7633-1.2124-2.9481-3.3612-2.9481-.4409 0-1.1569.0554-1.598.1379zm-3.1408 6.3368c.6891-.1376 1.0473-.6889 1.0473-1.1298v-10.0284c0-.413-.3031-.9641-1.0473-1.1016v-.3582c.4135 0 1.7359.0551 2.1217.0551.6335 0 2.4793-.1378 3.196-.1378 2.5344 0 5.069 1.0744 5.069 3.8295 0 1.6529-1.3222 2.8926-3.2783 3.3887l3.3333 3.857c.496.5785 1.1848 1.295 1.8182 1.6255v.303c-1.9009.2754-2.7824.1376-3.9119-1.1571l-3.8021-4.408c-.5232 0-.9917-.0275-1.4051-.0828v4.2151c0 .4133.3581.9645 1.102 1.1298v.3581c-.413 0-1.7907-.0551-2.1762-.0551-.3307 0-1.6531.0551-2.0666.0551zm17.2744 0c.743-.1376 1.102-.6891 1.102-1.1297v-4.4629l-3.6371-5.0694c-.4681-.6615-1.1016-1.3501-1.7082-1.5978v-.3582c.4688 0 1.6808.0551 2.0391.0551.3302 0 1.5702-.0551 2.0662-.0551v.3582c-.303.0548-.441.413-.441.5231 0 .1378.028.4132.221.6891l2.947 4.16 2.948-4.1049c.276-.386.331-.6338.331-.8267 0-.0827-.138-.3858-.551-.4406v-.3582c.413 0 1.405.0551 1.681.0551.275 0 1.267-.0551 1.68-.0551v.3582c-.882.3855-1.57 1.1016-2.204 1.9836l-3.278 4.5732v4.5733c0 .4406.33.9921 1.074 1.1297v.3581c-.413 0-1.791-.0551-2.177-.0551-.33 0-1.625.0551-2.093.0551z"/><path d="m47.5112 54.707h35.0853v13.2447c0 6.0659-2.2626 18.9363-17.4115 28.5126 0 0-16.418-6.8492-17.6738-28.5126z" stroke="#979797"/></g><path d="m44.5542 51.75h40.9993v16.2017c0 11.0771-5.4768 22.5971-18.7885 31.012l-1.2996.8215-1.4189-.5919c-.7064-.2947-1.8289-.8703-3.2294-1.7671-2.2849-1.463-4.5605-3.3263-6.6828-5.6322-5.4934-5.969-9.0038-13.8152-9.5751-23.6712l-.005-.1711z" stroke="#fff" stroke-width="5"/><path d="m47.7561 54.9521v12.9995c1.1775 20.299 15.9475 27.5662 17.4086 28.2347 15.5079-9.861 17.1857-23.0241 17.1857-28.2347v-12.9995zm17.4523 41.7877-.1181-.049c-.1654-.0689-16.5746-7.1579-17.8252-28.7247v-13.5052h35.5765v13.4907c0 5.3042-1.7075 18.7207-17.5253 28.7204z" fill="#000"/><path d="m74.3901 72.2739s-.3128.9948-1.7057-.0281l-4.7759-.1143s-.6254.1991-.7106-.4546c0 0 .1136-1.3075.0569-1.4215 0 0 .0283-.3695-.5966-.3695 0 0-.9667.1134-.9953-.7389 0 0-.1707-.9105 1.1653-.8813 0 0 .4266.1986.4549-.3416 0 0-.0566-3.6956-.0283-3.9796 0 0 .1138-.3411-.5401-.3982 0 0-.938.1994-1.0518-.4262 0 0-.0566-.9386.5687-.9953 0 0 .7673.0567.9099-.1416 0 0 .17.1133.1416-.5685l.0284-1.1658s.0854-.3128.5689-.2847c0 0 .8813.0571.9944-.0281 0 0 .1993-.2563.2561-.3697 0 0 .455-.0283.5404.0852 0 0 .6821.4547 3.2693.2845 0 0 .398 0 .4828.1138 0 0 .4839.3692.7677-.0286 0 0 .4266-.0852 1.7057-.0571 0 0 1.3933.3697 2.3598-.4261l.3126.0567s.3978.6541.682.4551c0 0 .8532-.0857.9953.0846 0 0 .2845.4265.1424 1.5356 0 0-.1709.4833.6539.4833 0 0 .9375-.1702.824.7108 0 0 .2556.9949-1.3075.8523 0 0-.199.2847-.1704.4839 0 0-.0286 3.2407-.0572 3.6102 0 0-.0283.5116.6542.4835 0 0 .9092-.0576.938.7672 0 0 .1133 1.0803-1.1943.8813 0 0-.3979.0567-.455.3128l-.0566 1.4215s.0285.7106-.7678.5401c-.1135 0-4.4343.0855-4.8037-.0283 0 0-.1993-.0284-.2564.0852zm-9.2307 4.8205s.1986-.0853.2557-.2278c0 0 .5964-.0567.6818-.1415l1.8771.1415s1.8471.1425 2.6432-.4264c0 0 .2844 0 .4834.0857 0 0 .3976.0854.5116.2552l1.0801-.0283s.6256.1985.5685.5979v.5109s-.1136 1.023.1711 1.0808h.8237s.6828.3128.5975.711c0 0 .0281.5681-.5687.6814 0 0-.597.1705-.7958.1426 0 0-.199.2561-.2278.5687l-.0846 3.7232s-.0568.3983.5395.3421c0 0 .8811-.0855 1.1374.3976 0 0 .2272.8246-.2275.9672l-.3412.1702-.7389.1138s-.3128.0285-.3416.568v.9951s.0288.6825-.5116.6825l-.7956.0571s-.1992.1698-.597.0562c0 0-4.8326.0857-5.0035.0288l-.5687.1138s-.6254.5682-1.1372.1414l-.3976-.313s-.2847.0578-.398.029c-.1138-.029-5.3444.0576-5.3444.0576s-1.1089.1138-1.1939-.2568c0 0-.1428-1.4491-.0856-1.6203 0 0 0-.4261-.2555-.454 0 0-1.1086-.0569-1.1376-.1716 0 0-.5971-.4252-.4264-.8525 0 0 .1992-.5685.7965-.6253 0 0 .9094.1428.9094-.1136 0 0 .0564-.1709.0564-.4542 0 0 .0572-3.3833.0288-3.6102 0 0 .0855-.4263-.2847-.4263 0 0-.3971.1122-.6537-.0579 0 0-.6818.0288-.8237-.512 0 0-.1142-.3411.0564-.6254 0 0 .3128-.6256 1.2222-.4257 0 0 .5119.1417.569-.2278l-.029-1.3645s-.1134-.3695.5975-.5687c0 0 .9096.2559 1.1938-.1986 0 0 .3133-.6254.5685-.1988 0 0 .5402.5114 2.0183.4541 0 0 2.5586-.1991 2.6157-.0855 0 0 .6249.0855.7958.2847zm-7.7674-4.7514s-.3126.995-1.7057-.0288l-4.7761-.1138s-.625.1992-.7102-.4545c0 0 .1133-1.3074.0564-1.4212 0 0 .0288-.3701-.5965-.3701 0 0-.9668.1144-.9951-.739 0 0-.1707-.9098 1.1653-.8815 0 0 .4263.1995.4551-.3405 0 0-.0569-3.6962-.0288-3.98 0 0 .1141-.3409-.5401-.398 0 0-.9377.1987-1.0515-.4266 0 0-.0571-.938.5685-.9949 0 0 .7675.0569.9094-.1423 0 0 .1706.114.1425-.569l.0281-1.1653s.0857-.3128.5688-.2842c0 0 .881.0564.995-.0286 0 0 .1988-.2552.2559-.3692 0 0 .4547-.0283.5402.085 0 0 .6818.4549 3.269.2842 0 0 .3982 0 .4832.1143 0 0 .4838.3692.768-.0293 0 0 .4259-.085 1.7052-.0564 0 0 1.3931.3692 2.3601-.4261l.3126.0571s.3973.6532.6818.4547c0 0 .8532-.0857.9951.0852 0 0 .2844.4266.1421 1.535 0 0-.1707.4835.6544.4835 0 0 .9372-.1709.8239.7104 0 0 .2557.9953-1.3081.8531 0 0-.1986.2841-.1702.4828 0 0-.0284 3.2409-.0569 3.6104 0 0-.0281.5116.6542.4835 0 0 .9093-.0571.9381.7679 0 0 .1131 1.0801-1.1941.8809 0 0-.3982.0573-.4551.313l-.0569 1.4212s.0286.7108-.7673.5402c-.1135 0-4.4347.085-4.804-.0284 0 0-.1994-.029-.2563.0853z" fill="#fff"/><path d="m74.3905 72.2739s-.3128.9948-1.7057-.0281l-4.7759-.1143s-.6254.1991-.7106-.4547c0 0 .1136-1.3074.0569-1.4214 0 0 .0283-.3695-.5966-.3695 0 0-.9667.1134-.9953-.7389 0 0-.1707-.9105 1.1653-.8813 0 0 .4266.1986.4549-.3416 0 0-.0566-3.6956-.0283-3.9796 0 0 .1138-.3411-.5401-.3982 0 0-.938.1994-1.0518-.4262 0 0-.0566-.9386.5687-.9953 0 0 .7673.0567.9099-.1416 0 0 .17.1133.1416-.5685l.0284-1.1658s.0854-.3128.5689-.2847c0 0 .8813.0571.9944-.0281 0 0 .1993-.2563.2561-.3697 0 0 .455-.0283.5404.0852 0 0 .6821.4547 3.2693.2845 0 0 .398 0 .4828.1138 0 0 .4839.3692.7677-.0286 0 0 .4266-.0852 1.7057-.0571 0 0 1.3933.3697 2.3598-.4261l.3126.0567s.3978.6541.682.4551c0 0 .8532-.0857.9954.0846 0 0 .2844.4265.1423 1.5356 0 0-.1709.4833.6539.4833 0 0 .9375-.1702.824.7108 0 0 .2557.9949-1.3074.8523 0 0-.1991.2847-.1705.4839 0 0-.0286 3.2407-.0571 3.6102 0 0-.0284.5116.6541.4835 0 0 .9092-.0576.938.7672 0 0 .1133 1.0803-1.1943.8813 0 0-.3978.0567-.4549.3128l-.0567 1.4214s.0285.7107-.7677.5402c-.1136 0-4.4344.0854-4.8038-.0283 0 0-.1993-.0284-.2564.0852z" fill="#000"/><path d="m74.3905 72.2739s-.3128.9948-1.7057-.0281l-4.7759-.1143s-.6254.1991-.7106-.4547c0 0 .1136-1.3074.0569-1.4214 0 0 .0283-.3695-.5966-.3695 0 0-.9667.1134-.9953-.7389 0 0-.1707-.9105 1.1653-.8813 0 0 .4266.1986.4549-.3416 0 0-.0566-3.6956-.0283-3.9796 0 0 .1138-.3411-.5401-.3982 0 0-.938.1994-1.0518-.4262 0 0-.0566-.9386.5687-.9953 0 0 .7673.0567.9099-.1416 0 0 .17.1133.1416-.5685l.0284-1.1658s.0854-.3128.5689-.2847c0 0 .8813.0571.9944-.0281 0 0 .1993-.2563.2561-.3697 0 0 .455-.0283.5404.0852 0 0 .6821.4547 3.2693.2845 0 0 .398 0 .4828.1138 0 0 .4839.3692.7677-.0286 0 0 .4266-.0852 1.7057-.0571 0 0 1.3933.3697 2.3598-.4261l.3126.0567s.3978.6541.682.4551c0 0 .8532-.0857.9954.0846 0 0 .2844.4265.1423 1.5356 0 0-.1709.4833.6539.4833 0 0 .9375-.1702.824.7108 0 0 .2557.9949-1.3074.8523 0 0-.1991.2847-.1705.4839 0 0-.0286 3.2407-.0571 3.6102 0 0-.0284.5116.6541.4835 0 0 .9092-.0576.938.7672 0 0 .1133 1.0803-1.1943.8813 0 0-.3978.0567-.4549.3128l-.0567 1.4214s.0285.7107-.7677.5402c-.1136 0-4.4344.0854-4.8038-.0283 0 0-.1993-.0284-.2564.0852z" stroke="#000" stroke-width="1.084"/><path d="m69.0173 60.5617s.0569.5692.0569.7111c0 .1426-.0853 8.2161-.0853 8.2161s.0852.6253-.4549.9375c0 0-.1421.0573-.1702-.3409l.0566-8.528s.0572-1.052.5969-.9958z" fill="#fff"/><path d="m69.0173 60.5617s.0569.5692.0569.7111c0 .1426-.0853 8.2161-.0853 8.2161s.0852.6253-.4549.9375c0 0-.1421.0573-.1702-.3409l.0566-8.528s.0572-1.052.5969-.9958z" stroke="#000" stroke-width=".542"/><path d="m68.0796 70.5113s.0565-8.0166.0288-8.1585c-.0288-.1423.0277.1134.0277.1134s-.0846-1.3931.2847-1.9612c0 0-.1138-.4832-.7678.1136l-.0281 1.1655s0 .6542-.5972.6252c0 0-.6821-.0279-.9949.2847 0 0-.1709.6253.4833.5118 0 0 1.0236 0 1.0805.4263l-.0569 4.2922s.2271.7111-.5687.7111c0 0-.9663-.0567-.9382.5397 0 0 .1993.5118 1.0237.3416 0 0 .5965.1133.5684.682v1.0803s-.0571.4266.5112.4554h4.435s.2275.0281.2275-.2564c0 0-.0283-.2273-.3697-.2273l-3.6956-.0569s-.5972.1985-.6537-.6825z" fill="#fff"/><path d="m68.8473 70.5679s-.114.3978.3126.3123h2.9279l.7965.1709s.8242-.1988 0-.6535c0 0-2.6155.0277-2.8429-.0285 0 0-.5404-.1424-.6544-.1709 0 0-.284-.1138-.5397.3697z" fill="#fff"/><path d="m68.8473 70.5679s-.114.3978.3126.3123h2.9279l.7965.1709s.8242-.1988 0-.6535c0 0-2.6155.0277-2.8429-.0285 0 0-.5404-.1424-.6544-.1709 0 0-.284-.1138-.5397.3697z" stroke="#000" stroke-width=".542"/><path d="m73.7082 70.966s-.5404 0-.5118.7111c0 0 .0569.5401.6256.5401 0 0 .5118-.0854.4547-.6537 0 0-.3126-.7108-.5685-.5975zm.3978-.2842s.2559-.2838.4261-.2838c0 0 2.8436.2552 3.3268-.0857 0 0 .4262-.0852.5395 0 0 0 .4266.3409.4266.5404 0 0-.0281.2559-.5399.1133 0 0-3.2121.029-3.3828.029 0 0-.882.1986-.7963-.3132z" fill="#fff"/><path d="m74.106 70.6818s.2559-.2838.4261-.2838c0 0 2.8436.2552 3.3268-.0857 0 0 .4261-.0852.5395 0 0 0 .4266.3409.4266.5404 0 0-.0281.2559-.54.1133 0 0-3.2121.029-3.3828.029 0 0-.8819.1986-.7962-.3132z" stroke="#000" stroke-width=".542"/><path d="m74.5614 71.5353s0-.2278.3978-.2278l3.98-.0281s.3691.199.3691-.483c0 0 .1461-3.099.1595-6.5122.0041-1.0125.0497-2.0792.0114-3.0684 0 0-.0855-.4264-.1993-.5114 0 0 0-.4547.4835-.2844 0 0 .4266.0285.3133.6818l.0281.9953s-.085.427.682.3126c0 0 .7677.1144.7961.3982 0 0 .2275.5683-.6823.5121h-.6537s-.2845.1702-.199.5118l-.0855 4.1215s-.0569.7106.6254.6825c0 0 .7111-.0281.8532.199 0 0 .4832.7104-.5685.6542 0 0-.6542-.0286-.7958.0852 0 0-.1143.1419-.1993 1.4779 0 0 .0567.7963-.5404.7108 0 0-3.9515.0564-4.3207-.0281 0 0-.3983.1135-.4549-.1995zm-5.1169-11.2313-.0854 9.1256s-.0291.426.6822.5114c0 0 .8242.0855 1.023 0 0 0 .5399-.0286 1.9332.0283 0 0 .3416.3414.3699-.0852 0 0 .2272-7.391.1141-8.9264 0 0-.0286-.6537-.5121-.682 0 0-2.1608.1711-2.3594 0l-.8529-.2278s-.3416.0285-.3126.2561z" fill="#fff"/><path d="m73.9358 60.7586s-.0854 4.2924-.0571 4.4343l-.0564 3.6108-.1138 1.2507s.1702.2562.3121.0855c0 0 .9101-.2278 1.4786-.1421 0 0 1.8194.1707 2.1891-.114 0 0 .2843.1423.3695-.3126 0 0 .1138-7.9601.0571-8.102 0 0 .1131-1.1372.0567-1.2512 0 0-.0283-.2553-.5118-.0282 0 0 .0571.2272-2.6434.1422 0 0-1.0239-.0284-1.0806.4266zm4.5201-.1116-.0288 8.9833s.2276.7958.5973.7111c0 0 .0569-.1707.0848-.455l.1145-8.5569s-.2843-1.3648-.7678-.6825z" fill="#fff"/><path d="m78.4555 60.6471-.0287 8.9833s.2275.7958.5972.711c0 0 .0569-.1706.0848-.4549l.1145-8.5569s-.2843-1.3648-.7678-.6825z" stroke="#000" stroke-width=".542"/><path d="m74.9665 63.336c-.0855-.2276.4832-.2559.4832-.2559l.2838.0564c.199-.0281.3983.0569.3983.0569.1992.3126-.1421.4837-.1421.4837l-.1136.3695c-.0281.313 0 3.0129 0 3.0129.0564.1425.284.3984.284.3984 0 .2555-.3121.1988-.3121.1988l-.8246.0284c-.2562-.0284-.1712-.3122-.1712-.3122.2845-.1425.3702-.6543.3702-.6543v-2.8144zm-3.8098.398c.0286.6256.0286 1.4776.0286 1.4776.5404.4266.8527-.1702.8527-.1702.7108-.6818 0-1.3074-.1136-1.4783-.1135-.1703-.6822-.0284-.6822-.0284zm-.0285 2.2453-.0563.8818.256.4263c.1706.2276-.1143.3979-.1143.3979l-.9096-.0855c-.1702-.0848 0-.3695 0-.3695.2276-.1414.2561-.5118.2561-.5118l-.0285-1.6485.0285-1.1941c0-.1419-.2273-.3985-.2273-.3985-.199-.0279-.1428-.284-.1428-.284.0571-.1422.5404-.0569.5404-.0569h1.194c1.1372.3694.9661 1.1941.9661 1.1941.0855.8246-.7954 1.1657-.7954 1.1657l-.0571.4547.8244 1.3077c.1421.1142.1136.2273.1136.2273-.1136.313-.5683 0-.5683 0l-1.0239-1.5919c-.0847-.1138-.2556.0852-.2556.0852zm-5.9686 11.1155s.1986-.0852.2557-.2278c0 0 .5964-.0567.6818-.1415l1.8771.1415s1.8471.1426 2.6432-.4264c0 0 .2844 0 .4834.0857 0 0 .3976.0855.5116.2552l1.0801-.0283s.6256.1986.5685.598v.5109s-.1136 1.0229.1711 1.0807h.8237s.6828.3128.5975.7111c0 0 .0281.568-.5687.6813 0 0-.597.1705-.7958.1426 0 0-.199.2561-.2278.5687l-.0846 3.7233s-.0569.3982.5395.342c0 0 .8811-.0854 1.1374.3976 0 0 .2272.8246-.2275.9672l-.3412.1702-.7389.1138s-.3128.0286-.3416.568v.9951s.0288.6825-.5116.6825l-.7956.0571s-.1992.1698-.597.0562c0 0-4.8326.0857-5.0035.0288l-.5687.1138s-.6254.5683-1.1372.1415l-.3976-.3131s-.2847.0578-.398.029c-.1138-.029-5.3444.0576-5.3444.0576s-1.1089.1138-1.1939-.2568c0 0-.1428-1.4491-.0856-1.6202 0 0-.0001-.4262-.2555-.454 0 0-1.1086-.0569-1.1377-.1716 0 0-.597-.4253-.4263-.8525 0 0 .1992-.5685.7965-.6254 0 0 .9094.1428.9094-.1136 0 0 .0564-.1709.0564-.4542 0 0 .0571-3.3833.0288-3.6102 0 0 .0855-.4263-.2847-.4263 0 0-.3971.1122-.6537-.0578 0 0-.6818.0288-.8237-.5121 0 0-.1142-.3411.0564-.6253 0 0 .3128-.6256 1.2222-.4257 0 0 .5119.1416.569-.2278l-.029-1.3646s-.1134-.3694.5975-.5687c0 0 .9096.2559 1.1938-.1985 0 0 .3133-.6254.5685-.1988 0 0 .5401.5113 2.0183.454 0 0 2.5586-.199 2.6157-.0855 0 0 .6249.0855.7958.2847z" fill="#000"/><path d="m65.1597 77.0944s.1985-.0852.2556-.2278c0 0 .5964-.0566.6818-.1414l1.8771.1414s1.8471.1426 2.6432-.4263c0 0 .2844 0 .4835.0856 0 0 .3975.0855.5115.2553l1.0801-.0284s.6256.1986.5685.598v.5109s-.1136 1.023.1711 1.0808h.8238s.6827.3128.5974.711c0 0 .0282.5681-.5687.6814 0 0-.597.1704-.7958.1426 0 0-.199.2561-.2278.5687l-.0845 3.7232s-.0569.3983.5394.3421c0 0 .8811-.0855 1.1374.3976 0 0 .2272.8246-.2275.9671l-.3412.1703-.7389.1138s-.3128.0285-.3416.568v.9951s.0288.6825-.5116.6825l-.7956.0571s-.1992.1698-.597.0562c0 0-4.8326.0857-5.0035.0288l-.5687.1138s-.6254.5682-1.1372.1414l-.3976-.313s-.2847.0578-.398.029c-.1138-.029-5.3444.0576-5.3444.0576s-1.1089.1138-1.1939-.2568c0 0-.1428-1.4491-.0856-1.6203 0 0 0-.4261-.2555-.454 0 0-1.1086-.0569-1.1377-.1716 0 0-.597-.4252-.4263-.8525 0 0 .1992-.5685.7965-.6254 0 0 .9094.1428.9094-.1135 0 0 .0564-.1709.0564-.4543 0 0 .0572-3.3832.0288-3.6101 0 0 .0855-.4264-.2847-.4264 0 0-.3971.1122-.6537-.0578 0 0-.6818.0288-.8237-.512 0 0-.1142-.3412.0564-.6254 0 0 .3128-.6256 1.2222-.4257 0 0 .5119.1417.569-.2278l-.029-1.3645s-.1134-.3695.5975-.5687c0 0 .9096.2559 1.1938-.1986 0 0 .3133-.6254.5685-.1988 0 0 .5402.5114 2.0183.454 0 0 2.5586-.199 2.6157-.0854 0 0 .6249.0854.7958.2847z" stroke="#000" stroke-width="1.084"/><path d="m65.8987 88.2667s.3409-.1711.5687-.1138c.2271.0567 3.5539-.0285 3.5539-.0285s1.4493.114 1.6764-.0846l.3412-.1149s.1416-.1693.1416-.3971c0-.2281.0293-.9947.0293-.9947l.0845-.2842s-.0283-.2854 0-7.8753c0 0 .114-.5975-.2554-.9663 0 0 0-.2278.1138-.1988.1133.0286.0571.0285.0571.0285s.5113-.1425.5968.056c0 0 .2273.6821.0283 1.0806 0 0-.0569.8241.3693.8241 0 0 .1707.1712.5118.0855 0 0 .7392.0857.7392.3128 0 0-.0001.5118-.5119.4261l-.6822.0569s-.4545.0857-.3976.6252c.0569.5408-.0286 4.4073-.0286 4.4073s0 .4554.7109.4266c0 0 .8812-.029.8812.2273 0 0 .2272.5683-.3982.5973 0 0-1.1939-.029-1.1084.3114 0 0-.0855.7968-.1424.9382 0 0 .1138.6544-.0288.7677 0 0-.0845.3704-.8522.3128 0 0-4.8895-.0278-5.6574.0288 0 0-.4549-.0566-.3409-.4549zm-.8809-.5405s.483.0857.483.5406.0284.711-.2561.7675c-.2843.056-.5968-.0284-.6823-.3983-.0854-.3692.0571-.8241.4554-.9098z" fill="#fff"/><path d="m65.5864 87.4987s.5111-.3405.7104-.2843c0 0 2.5869.1705 3.3828.029.7965-.143.3125-.029.3125-.029s.6828 0 .8813-.2557c0 0 .199-.0569.3128.1417l.4266.4558s.0284.284-.4549.2555c0 0-4.634 0-4.7757.0285 0 0-.8813.1415-.7958-.3415z" fill="#fff"/><path d="m65.5864 87.4987s.5111-.3405.7104-.2843c0 0 2.5869.1705 3.3828.029.7965-.143.3125-.029.3125-.029s.6828 0 .8813-.2557c0 0 .199-.0569.3128.1417l.4266.4558s.0284.284-.4549.2555c0 0-4.634 0-4.7757.0285 0 0-.8813.1415-.7958-.3415z" stroke="#000" stroke-width=".542"/><path d="m58.8483 77.4072s.199 0 .1707.3414l-.0562 8.585s.0845.5685-.3988.9385c0 0-.2554.3121-.2554-.1714l.1131-8.7551s.029-.6544.4266-.9384z" fill="#fff"/><path d="m58.8483 77.4072s.199 0 .1707.3414l-.0562 8.585s.0845.5685-.3988.9385c0 0-.2554.3121-.2554-.1714l.1131-8.7551s.029-.6544.4266-.9384z" stroke="#000" stroke-width=".542"/><path d="m58.3938 77.4635s-.3416.6258-.3124.7684l-.0292 1.9045s-.0281 1.2226 0 1.3648c.0292.1414-.0281 3.7243-.0281 3.7243s-.0281.6821 0 .9097v1.5352s-.0571.6823.4547.5107c0 0 5.0034-.1127 5.3162-.0279 0 0 .4545.0854.2836.313 0 0 0 .199-.3117.1424 0 0-2.3598.2271-4.4916.1421 0 0-1.4217.085-1.5071-.0855 0 0-.2281-.029-.2281-.8531 0 0 0-.7671-.0562-.9097 0 0 .0562-.3978-.6537-.4834 0 0-.9953.1706-1.0232-.4264 0 0 .1419-.4255 1.1087-.3693 0 0 .7101.1138.5682-.4553l.0857-4.2063s.0852-.7399-.3985-.7691c0 0-.4549-.0276-.5972.0292 0 0-.824 0-.7669-.4832 0 0 .2838-.5118 1.1087-.398 0 0 .6244.114.6539-.5971 0 0-.0295-1.4502.3126-1.5062 0 0 .7101.0277.5116.2262z" fill="#fff"/><path d="m59.2469 86.874s.3978.4264 1.0512.3985l3.8661.0564s.4263.0288.3982.256c0 0-.0566.3406-.5684.2275l-4.6621-.0562-.5116.0284s-.3414-.0579.1988-.7113z" fill="#fff"/><path d="m59.2469 86.874s.3978.4264 1.0512.3985l3.8661.0564s.4263.0288.3982.256c0 0-.0566.3406-.5684.2275l-4.6621-.0562-.5116.0284s-.3414-.0579.1988-.7113z" stroke="#000" stroke-width=".542"/><path d="m71.186 86.5051s.3412.6542.5119.7394c0 0 .3125.3688.2275-.2847l.0569-8.1877s-.0852-.2842 0-.7382l-.3413-.6259s-.3695-.284-.3695.17l-.0571 8.7277z" fill="#fff"/><path d="m71.186 86.5051s.3412.6542.5119.7394c0 0 .3125.3688.2275-.2847l.0569-8.1877s-.0852-.2842 0-.7382l-.3413-.6259s-.3695-.284-.3695.17l-.0571 8.7277z" stroke="#000" stroke-width=".542"/><path d="m64.8749 82.6071s.0281.683-.0571 1.3362c-.0462.3559.114 2.0188-.0285 2.8703 0 0-.0281.2852-.6254.0288 0 0-3.6383.0862-3.7521-.0288 0 0-.9953.0288-1.0803-.4825 0 0 .1422-3.8944.0565-4.0372 0 0-.0565-2.1318 0-2.3309 0 0 .0857-1.9606.0285-2.1887 0 0 .0286-.4553-.0569-.6827 0 0 0-.2845.4838-.1131 0 0 .1702.3126 1.1081.1702 0 0 .6823.1138 1.3365.0286 0 0 1.4493-.1136 1.8197 0 0 0 .568-.1136.7389.5118l-.0288 1.7621.1707.5694.1992-.143.085-.4264.0286-1.8756s.1138-.3416.5687-.3983c0 0 .7099-.0857.8242-.0286.1138.0569 1.649.1424 2.0754.0569.4263-.0856.5115.2847 1.7906-.3697 0 0 .3416.0286.3416.2557 0 0-.114 2.4172 0 2.8714 0 0 0 4.4341-.0854 4.7478l.0566 1.4213s.0574.6256-.9377.6815c0 0 .6249.0864-3.298-.0274 0 0-.6256-.0285-1.3077.2838 0 0-.1419-.0288-.1419-.3973 0 0 .1136-1.3365 0-2.6444l-.0573-1.4488z" fill="#fff"/><path d="m62.3161 80.5921s.085 2.103 0 2.387l-.0283.4554s.1133.3119.2845.4261c0 0 .1423.3974-.199.3695 0 0-.7109-.0569-.8811-.0281 0 0-.3983 0 0-.5118 0 0 .1417-.1991.1136-.7111 0 0 0-2.387.0566-2.5296 0 0 .0569-.3133-.1419-.3985l-.3416.0281-.4261.3985s-.0854.4261-.2845-.0281v-.2278l.2562-.6825.1707-.0286s.2559.1705.483.2278h1.3364l.4831-.2278s.1985.0286.1423.2845c0 0 .0848.6544-.2847.7392 0 0-.2271-.0848-.3407-.3981 0 0-.3699-.1985-.3985.4559zm6.2829-.7684s-1.0801-.0852-1.1091 1.0801c0 0-.1136.7965 1.0805 1.3085 0 0 .8815.4264.8246.9659 0 0-.1138.9672-1.0519.483 0 0-.455-.2267-.4269-.483 0 0-.1416-.3126-.3125-.2557 0 0-.1988.0567-.1138.9953 0 0 0 .3692.4263 0l.2279.056s.7677.6256 1.4212-.1421c0 0 .7108-.6535.1992-1.4494 0 0-.3695-.5693-1.023-.8534 0 0-.626-.2837-.7677-.7665 0 0 .199-.8537.9663-.3981 0 0 .2842.34.4549.3981 0 0 .2278-.0001.1703-.5121l-.0565-.4266s-.0569-.3132-.4547 0c0 0-.3699.1424-.4551 0zm-3.9233 1.279c-.0284.1426-.2272.9384-.2272.9384l.1707.284s.4549.0286.6252.0286c.1707 0 .1988-.1412.1988-.2838 0-.1414-.3128-.9951-.3128-.9951l-.1419-.1711zm.4547-1.8759c.1992.1424.2278.4268.2278.4268.5687 1.506 1.0519 3.6961 1.0519 3.6961.1426.2838.3978.5109.3978.5109.4831.1709 0 .3126 0 .3126-.199.0847-.8525-.0277-.8525-.0277-.3416-.0573-.1992-.1718-.1992-.1718.1421-.1421.0281-.7102.0281-.7102-.0281-.2278-.2838-.5975-.2838-.5975-.1138-.0562-.3128.1995-.3128.1995s-.3128.1136-.3411 0c-.029-.1138-.2274-.2269-.2274-.2269-.3409 0-.4835.8525-.4835.8525.1991.7108 0 .5971 0 .5971-.1704.228-.711.0573-.711.0573-.2552-.0573-.0848-.257-.0848-.257.3128-.0569.3974-.3974.3974-.3974.1425-.1992 1.0519-3.8948 1.0519-3.8948.0857-.1703.1426-.5121.3412-.3695zm-7.7384-6.8836s-.3126.9951-1.7057-.0288l-4.7761-.1137s-.625.1992-.7102-.4545c0 0 .1133-1.3074.0564-1.4212 0 0 .0288-.3702-.5965-.3702 0 0-.9668.1145-.9951-.7389 0 0-.1707-.9099 1.1653-.8815 0 0 .4263.1994.4551-.3405 0 0-.0569-3.6963-.0288-3.98 0 0 .1141-.341-.5401-.3981 0 0-.9377.1988-1.0515-.4266 0 0-.0571-.9379.5685-.9948 0 0 .7675.0569.9094-.1424 0 0 .1706.1141.1425-.5689l.0281-1.1653s.0857-.3128.5688-.2842c0 0 .881.0564.995-.0286 0 0 .1988-.2552.2559-.3692 0 0 .4547-.0284.5402.085 0 0 .6818.4549 3.269.2842 0 0 .3982 0 .4832.1142 0 0 .4838.3693.768-.0292 0 0 .4259-.085 1.7052-.0564 0 0 1.3931.3692 2.3601-.4262l.3126.0571s.3973.6533.6818.4547c0 0 .8532-.0856.9951.0853 0 0 .2844.4266.1421 1.535 0 0-.1707.4834.6544.4834 0 0 .9372-.1709.8239.7104 0 0 .2557.9953-1.3081.8532 0 0-.1986.284-.1702.4828 0 0-.0284 3.2409-.0569 3.6104 0 0-.0281.5116.6541.4835 0 0 .9094-.0572.9382.7679 0 0 .1131 1.0801-1.1941.8808 0 0-.3982.0574-.4551.3131l-.0569 1.4212s.0286.7108-.7673.5401c-.1135 0-4.4347.085-4.804-.0283 0 0-.1994-.029-.2563.0852z" fill="#000"/><path d="m57.392 72.3432s-.3126.9951-1.7057-.0288l-4.7761-.1137s-.625.1992-.7102-.4545c0 0 .1133-1.3074.0564-1.4212 0 0 .0288-.3702-.5965-.3702 0 0-.9668.1145-.9951-.7389 0 0-.1707-.9099 1.1653-.8815 0 0 .4263.1994.4551-.3405 0 0-.0569-3.6963-.0288-3.98 0 0 .1141-.341-.5401-.3981 0 0-.9377.1988-1.0515-.4266 0 0-.0571-.9379.5685-.9948 0 0 .7675.0569.9094-.1424 0 0 .1706.1141.1425-.5689l.0281-1.1653s.0857-.3128.5688-.2842c0 0 .881.0564.995-.0286 0 0 .1988-.2552.2559-.3692 0 0 .4547-.0284.5402.085 0 0 .6818.4549 3.269.2842 0 0 .3982 0 .4832.1142 0 0 .4838.3693.768-.0292 0 0 .4259-.085 1.7052-.0564 0 0 1.3931.3692 2.3601-.4262l.3126.0571s.3973.6533.6818.4547c0 0 .8532-.0856.9951.0853 0 0 .2844.4266.1421 1.535 0 0-.1707.4834.6544.4834 0 0 .9372-.1709.8239.7104 0 0 .2557.9953-1.3081.8532 0 0-.1986.284-.1702.4828 0 0-.0284 3.2409-.0569 3.6104 0 0-.0281.5116.6541.4835 0 0 .9094-.0572.9382.7679 0 0 .1131 1.0801-1.1941.8809 0 0-.3982.0573-.4551.313l-.0569 1.4212s.0286.7108-.7673.5401c-.1135 0-4.4347.085-4.804-.0283 0 0-.1994-.029-.2563.0852z" stroke="#000" stroke-width="1.084"/><path d="m52.0192 60.6312s.0571.5684.0571.7106c0 .1414-.0854 8.2158-.0854 8.2158s.0854.6249-.455.9382c0 0-.1416.0566-.1702-.3416l.0569-8.5284s.0571-1.0518.5966-.9946z" fill="#fff"/><path d="m52.0192 60.6312s.0571.5684.0571.7106c0 .1414-.0854 8.2158-.0854 8.2158s.0854.6249-.455.9382c0 0-.1416.0566-.1702-.3416l.0569-8.5284s.0571-1.0518.5966-.9946z" stroke="#000" stroke-width=".542"/><path d="m51.0815 70.5812s.0567-8.0169.0291-8.1592c-.0291-.1417.0276.114.0276.114s-.085-1.3933.2845-1.9613c0 0-.1138-.484-.7675.1135l-.0279 1.1658s0 .6535-.5975.6256c0 0-.6825-.029-.9951.284 0 0-.1706.6254.4831.5118 0 0 1.0238 0 1.0807.4264l-.0569 4.2926s.2271.7104-.5687.7104c0 0-.9665-.0571-.9382.5401 0 0 .1991.5119 1.0237.341 0 0 .5968.114.5689.6827v1.0798s-.0576.4264.5109.4549h4.4345s.2281.0291.2281-.2556c0 0-.0288-.2272-.3697-.2272l-3.6956-.0568s-.5973.1994-.654-.6825z" fill="#fff"/><path d="m51.8487 70.637s-.1136.3983.3126.3131h2.9285l.7958.17s.8244-.1991 0-.654c0 0-2.6157.029-2.8428-.0279 0 0-.5406-.1423-.6537-.1706 0 0-.2847-.114-.5404.3694z" fill="#fff"/><path d="m51.8487 70.637s-.1136.3983.3126.3131h2.9285l.7958.17s.8244-.1991 0-.654c0 0-2.6157.029-2.8428-.0279 0 0-.5406-.1423-.6537-.1706 0 0-.2847-.114-.5404.3694z" stroke="#000" stroke-width=".542"/><path d="m56.7104 71.0359s-.5404 0-.5121.7106c0 0 .0574.5402.6256.5402 0 0 .5121-.0857.455-.654 0 0-.3131-.711-.5685-.5968zm.3977-.2845s.2559-.2846.4265-.2846c0 0 2.8431.2565 3.3259-.0853 0 0 .4266-.085.5404 0 0 0 .4262.3418.4262.5402 0 0-.0282.2566-.54.1142 0 0-3.2125.0284-3.383.0284 0 0-.881.199-.796-.3129z" fill="#fff"/><path d="m57.1078 70.7515s.2559-.2847.4266-.2847c0 0 2.8431.2565 3.3259-.0853 0 0 .4266-.085.5404 0 0 0 .4261.3418.4261.5402 0 0-.0281.2566-.5399.1142 0 0-3.2126.0284-3.383.0284 0 0-.8811.199-.7961-.3128z" stroke="#000" stroke-width=".542"/><path d="m57.563 71.6044s0-.2271.3978-.2271l3.9798-.029s.3693.1992.3693-.4828c0 0 .1462-3.099.1595-6.512.0041-1.0127.0499-2.0794.0114-3.0681 0 0-.0855-.4266-.199-.5119 0 0 0-.4551.4832-.2844 0 0 .4264.0285.313.682l.0286.9953s-.0854.4259.6823.3131c0 0 .7672.1128.7956.3973 0 0 .2278.5689-.6821.5121h-.6539s-.2842.1704-.1995.5118l-.0847 4.1217s-.0569.7106.6249.6823c0 0 .7115-.0281.8532.199 0 0 .4834.7115-.5685.6544 0 0-.654-.0284-.7959.0848 0 0-.1137.1423-.1992 1.4781 0 0 .0571.7965-.5399.7112 0 0-3.952.0565-4.3212-.029 0 0-.398.1143-.4547-.1988zm-5.117-11.2315-.085 9.1256s-.0288.4264.6818.5116c0 0 .8246.0855 1.0234 0 0 0 .5397-.0283 1.9328.0288 0 0 .3418.3407.3702-.0852 0 0 .2273-7.3919.1133-8.9269 0 0-.0283-.6539-.5118-.6823 0 0-2.1604.1703-2.3592 0l-.8534-.2273s-.3411.0285-.3121.2557z" fill="#fff"/><path d="m61.4578 60.7153-.0286 8.9838s.2271.796.5971.7108c0 0 .0566-.1707.0852-.4554l.114-8.5563s-.2847-1.365-.7677-.6829z" fill="#fff"/><path d="m61.4578 60.7153-.0286 8.9838s.2271.796.5971.7108c0 0 .0566-.1707.0852-.4554l.114-8.5563s-.2847-1.365-.7677-.6829z" stroke="#000" stroke-width=".542"/><path d="m56.9383 60.7915s-.0852 4.2929-.0567 4.4348l-.0566 3.6104-.1141 1.2509s.1707.2564.3128.0855c0 0 .9103-.2271 1.4784-.1417 0 0 1.8197.1703 2.1887-.1144 0 0 .2847.1423.3694-.3119 0 0 .1141-7.9604.0574-8.1025 0 0 .1138-1.1374.0567-1.251 0 0-.0286-.2559-.5116-.0286 0 0 .0569.2276-2.6437.1422 0 0-1.0238-.0284-1.0807.4263z" fill="#fff"/><path d="m56.0613 63.4218-.2554.5403s-.6256 2.757-.9668 3.326c0 0-.0569.5684-.5399.1131 0 0-1.1086-3.4964-1.1657-3.6104l-.3695-.2555s-.2276-.3125.1704-.3413l1.052.0288s.3411.2837-.1138.5972c0 0 .0571.4547.6537 2.1885 0 0 .1709.6542.3693.1702l.5689-2.0178-.1704-.5972s-.1709-.2843.0854-.3128c0 0 .5968-.0569.6818.1709zm1.6486.4546-.0281 3.0134-.0846.2275s-.2849.3693-.0856.3983c0 0-.2562.1702 1.8192.1985 0 0 .7958.1426.597-.8812 0 0-.0852-.3695-.3699.1709 0 0-.0852.4547-1.1086.3128 0 0-.2274-.1993-.2274-.4268v-1.251s-.0281-.3128.455-.2843c0 0 .5401.3416.6256.1993 0 0 .1988-.455 0-.7392 0 0-.2557-.0281-.2847.085 0 0-.1703.3416-.6535.1424 0 0-.2278-.455-.085-.8244 0 0-.0574-.7111.4263-.654 0 0 .5685.114.6252.2847 0 0 .1419.3409.2845-.0576l-.1426-.483s-.085-.1988-.2271-.1423c0 0-.9663.1423-1.0803.0285l-.7678.0855s-.1135.2842.2274.4263c0 0 .085.0569.085.1707z" fill="#000"/></g></svg>