<svg width="500" height="130" viewBox="0 0 500 130" fill="none" xmlns="http://www.w3.org/2000/svg">
<path d="M204.537 87.8796C204.537 86.8779 203.877 86.1356 202.535 85.8468V85.1987C203.278 85.1987 205.76 85.2989 206.455 85.2989C207.061 85.2989 209.46 85.1987 210.208 85.1987V85.8468C208.961 86.0884 208.302 86.819 208.302 87.8796V100.594C208.302 104.619 210.529 106.899 215.191 106.899C219.206 106.899 222.336 105.108 222.336 100.895V87.8325C222.336 86.8897 221.736 86.1414 220.233 85.8527V85.2046C220.78 85.2046 222.835 85.3048 223.53 85.3048C224.129 85.3048 226.279 85.2046 226.832 85.2046V85.8527C225.377 86.1945 224.735 86.8426 224.735 87.8325V100.194C224.735 105.744 221.481 108.932 214.461 108.932C207.922 108.932 204.537 105.986 204.537 100.771V87.8796V87.8796Z" fill="black"/>
<path d="M232.575 107.935C234.095 107.653 234.695 106.893 234.695 105.956V88.3799C234.695 86.8892 233.893 86.2175 232.533 85.8522V85.2041C233.305 85.263 234.6 85.2925 235.259 85.2925C235.859 85.2925 236.791 85.2807 237.421 85.2041L252.785 103.128V87.8378C252.785 86.8951 252.179 86.1468 250.683 85.8522V85.2041C251.235 85.2041 253.213 85.3043 253.914 85.3043C254.525 85.3043 256.646 85.2041 257.204 85.2041V85.8522C255.737 86.194 255.03 86.848 255.03 87.8378V108.937H254.104C253.522 108.802 252.423 108.183 250.742 106.356L236.993 90.4715V105.962C236.993 106.904 237.54 107.653 239.042 107.941V108.589C238.49 108.589 236.512 108.483 235.812 108.483C235.206 108.483 233.133 108.589 232.575 108.589V107.935V107.935Z" fill="black"/>
<path d="M353.821 103.193H354.468C354.813 104.506 355.567 105.703 356.63 106.392C357.735 107.164 359.469 107.535 360.865 107.535C363.959 107.535 365.913 106.015 365.913 103.611C365.913 101.124 363.401 99.8282 360.396 98.3376C358.157 97.2299 353.762 95.3916 353.762 91.1788C353.762 87.2547 356.779 84.8096 361.607 84.8096C364.79 84.8096 366.287 85.5814 368.437 85.4813L368.395 90.242H367.742C366.881 87.4374 364.315 86.4593 361.5 86.4593C358.353 86.4593 357.177 88.2446 357.177 90.0593C357.177 92.6577 359.742 93.9716 362.646 95.2561C365.913 96.6996 369.459 98.5202 369.459 102.586C369.459 106.433 366.43 109.214 360.889 109.214C357.592 109.214 355.615 108.277 353.881 108.071L353.821 103.193Z" fill="black"/>
<path d="M423.439 97.949V105.903C423.439 106.693 424.045 107.683 425.411 107.93V108.578C424.65 108.578 422.156 108.472 421.437 108.472C420.832 108.472 418.444 108.578 417.577 108.578V107.93C418.949 107.683 419.608 106.687 419.608 105.903V98.2966L423.439 97.949ZM419.858 98.9094L413.604 88.9519C412.535 87.202 411.721 86.2829 410.527 85.8468V85.1987C411.383 85.1987 413.699 85.2989 414.358 85.2989C414.952 85.2989 417.452 85.1987 418.355 85.1987V85.8468C417.553 85.9883 417.179 86.383 417.179 86.984C417.179 87.5143 417.541 88.1919 417.904 88.7811C418.26 89.3644 422.518 96.3699 422.518 96.3699L426.961 88.7869C427.412 88.0269 427.727 87.2727 427.727 86.7778C427.727 86.3241 427.406 85.9529 426.646 85.8527V85.2046C427.4 85.2046 428.98 85.3048 429.485 85.3048C429.989 85.3048 431.807 85.2046 432.549 85.2046V85.8056C430.839 86.5009 429.776 87.9856 428.736 89.712L423.047 99.1392" fill="black"/>
<path d="M303.605 85.1986H318.275C318.726 85.1986 319.522 85.1456 319.979 84.9512H320.633L320.532 89.6824H319.884C319.326 88.1918 318.744 87.0016 315.905 87.0016H309.539V95.2445H314.45C315.169 95.2445 316.036 95.1856 316.41 95.0972C317.515 94.8556 318.002 94.2487 318.221 93.3178H318.875C318.827 94.0307 318.827 95.6569 318.827 96.1401C318.827 96.6232 318.875 98.3378 318.875 99.1096H318.221C317.907 98.1787 317.479 97.4717 316.41 97.2124C316.036 97.1122 315.151 97.0357 314.45 97.0357H309.539V106.704H316.469C319.492 106.704 320.371 105.455 321.126 103.682L321.773 103.835L321.126 108.69C318.875 108.49 317.527 108.49 314.973 108.49H307.65C306.943 108.49 304.354 108.59 303.605 108.59V107.942C304.924 107.694 305.696 107.046 305.696 105.785V87.909C305.696 86.8013 305.096 86.106 303.611 85.8644V85.1986H303.605Z" fill="black"/>
<path d="M266.136 88.0324C266.136 86.8304 265.417 86.1705 264.004 85.87V85.2278C264.794 85.2278 267.336 85.328 268.078 85.328C268.702 85.328 271.315 85.2278 272.111 85.2278V85.87C270.703 86.1705 269.967 86.7715 269.967 88.0324V105.785C269.967 106.987 270.691 107.635 272.111 107.936V108.584C271.315 108.584 268.809 108.483 268.078 108.483C267.449 108.483 264.788 108.584 263.998 108.584V107.936C265.441 107.67 266.136 107.04 266.136 105.785V88.0324V88.0324Z" fill="black"/>
<path d="M377.423 88.0324C377.423 86.8304 376.693 86.1705 375.285 85.87V85.2278C376.069 85.2278 378.623 85.328 379.359 85.328C379.989 85.328 382.602 85.2278 383.398 85.2278V85.87C381.99 86.1705 381.26 86.7715 381.26 88.0324V105.785C381.26 106.987 381.984 107.635 383.398 107.936V108.584C382.608 108.584 380.102 108.483 379.359 108.483C378.736 108.483 376.075 108.584 375.285 108.584V107.936C376.728 107.67 377.423 107.04 377.423 105.785V88.0324Z" fill="black"/>
<path d="M397.817 85.299C389.776 85.299 388.487 85.1517 386.842 85.0515L386.854 89.8712H387.507C388.107 87.7383 389.306 87.2374 390.857 87.2374H395.899V105.785C395.899 107.04 395.204 107.665 393.761 107.936V108.584C394.557 108.584 397.235 108.484 397.853 108.484C398.589 108.484 401.107 108.584 401.891 108.584V107.936C400.472 107.641 399.747 106.987 399.747 105.785V87.2374H404.754C406.363 87.2374 407.516 87.7795 408.115 89.8712H408.763L408.775 85.0515C407.147 85.1517 405.859 85.299 397.817 85.299Z" fill="black"/>
<path d="M333.645 96.2518C334.393 96.352 335.498 96.3991 336.59 96.3991C341.003 96.3991 342.393 93.8833 342.393 91.6502C342.393 88.498 340.273 86.5418 336.406 86.5418C335.605 86.5418 334.446 86.642 333.645 86.7893V96.2518ZM333.645 105.785C333.645 106.987 334.411 107.635 335.83 107.936V108.584C335.046 108.584 332.469 108.484 331.738 108.484C331.109 108.484 328.597 108.584 327.807 108.584V107.936C329.125 107.688 329.897 107.04 329.897 105.785V87.8499C329.897 86.7481 329.291 86.0528 327.813 85.8053V85.1631C328.597 85.1631 331.085 85.2633 331.792 85.2633C332.944 85.2633 336.216 85.0688 337.505 85.0688C343.141 85.0688 346.283 87.3785 346.283 91.3438C346.283 94.4607 343.949 96.57 340.35 97.4302C340.35 97.4302 341.169 97.9016 341.989 98.8502C342.981 100.011 345.665 103.835 346.782 105.172C347.892 106.51 349.318 108.006 350.844 108.077V108.601C350.114 108.761 348.938 108.896 348.047 108.896C346.134 108.896 344.602 108.224 343.117 106.445C341.835 104.895 339.655 101.678 338.372 100.052C337.553 99.0152 336.555 98.208 334.737 97.9134C334.387 97.8545 334.054 97.8014 333.657 97.7602V105.785H333.645Z" fill="black"/>
<path d="M277.766 88.103C277.249 86.9718 276.465 86.1469 275.117 85.8523V85.1924C275.955 85.1924 278.853 85.2984 279.488 85.2984C280.076 85.2984 282.606 85.1924 283.467 85.1924V85.8346C282.701 85.9819 281.834 86.4002 281.834 87.1721C281.834 87.7259 282.173 88.4801 282.82 89.9001L288.896 103.611L294.645 89.8765C295.096 88.7688 295.429 87.9086 295.429 87.2546C295.429 86.5299 294.758 86.029 293.801 85.8346V85.1924C294.567 85.1924 296.438 85.2984 297.02 85.2984C297.555 85.2984 299.752 85.1924 300.59 85.1924V85.8523C299.152 86.2353 298.279 87.0189 297.478 88.8749L289.02 108.66H287.108L277.766 88.103Z" fill="black"/>
<path d="M299.45 25.7014C298.47 23.5626 296.974 22.0012 294.432 21.4415V20.1982C296.011 20.1982 301.262 20.3868 302.467 20.3868C303.578 20.3868 308.662 20.1982 310.283 20.1982V21.412C308.846 21.6889 307.195 22.4843 307.195 23.9573C307.195 24.9943 307.842 26.4261 309.053 29.1128L320.575 55.0906L331.473 29.0657C332.323 26.9564 332.958 25.3478 332.958 24.1046C332.958 22.72 331.669 21.7832 329.864 21.412V20.1982C331.307 20.1982 334.811 20.3868 335.927 20.3868C336.943 20.3868 341.106 20.1982 342.686 20.1982V21.3766C339.972 22.1072 338.309 23.6568 336.795 27.1685L320.771 64.6768H317.142L299.45 25.7014Z" fill="black"/>
<path d="M144.346 63.2448C146.436 62.7735 147.909 61.8249 147.909 59.474V25.0883C147.909 22.8317 146.543 21.8949 144.346 21.3293V20.1096C145.444 20.1096 150.178 20.2923 151.33 20.2923C152.654 20.2923 157.619 20.1096 158.706 20.1096V21.3293C156.616 21.8006 155.066 22.7433 155.066 25.0883V39.453H180.888V25.0883C180.888 22.7374 179.511 21.8006 177.331 21.3293V20.1096C178.424 20.1096 183.294 20.2923 184.618 20.2923C185.758 20.2923 190.605 20.1096 191.686 20.1096V21.3293C189.595 21.8006 188.045 22.7433 188.045 25.0883V59.474C188.045 61.7306 189.5 62.6792 191.686 63.2448V64.3702C190.605 64.3702 185.764 64.2759 184.618 64.2759C183.294 64.2759 178.424 64.3702 177.331 64.3702V63.2448C179.41 62.7735 180.888 61.8249 180.888 59.474V43.2239H155.066V59.474C155.066 61.8249 156.521 62.6792 158.706 63.2448V64.3702C157.613 64.3702 152.654 64.2759 151.33 64.2759C150.178 64.2759 145.444 64.3702 144.346 64.3702V63.2448V63.2448Z" fill="black"/>
<path d="M454.339 60.9766C455.955 61.2653 458.948 61.4479 461.306 61.4479C474.651 61.4479 481.593 53.482 481.593 42.3697C481.593 30.8508 474.265 22.7435 461.787 22.7435C459.239 22.7435 456.05 22.932 454.339 23.2089V60.9766ZM443.031 63.245C445.71 62.7736 447.189 61.7131 447.189 59.2856V25.0885C447.189 22.7317 445.734 21.8008 443.144 21.3294V20.1098C444.635 20.1098 449.493 20.2924 450.835 20.2924C453.009 20.2924 459.061 19.821 463.776 19.821C479.663 19.821 489.302 28.6237 489.302 42.0044C489.302 55.0139 479.265 64.6473 462.891 64.6473C458.17 64.6473 452.569 64.2761 450.378 64.2761C449.048 64.2761 444.516 64.4646 443.031 64.4646V63.245Z" fill="black"/>
<path d="M263.226 41.1261C264.64 41.3088 266.73 41.403 268.803 41.403C277.159 41.403 279.784 36.6305 279.784 32.4178C279.784 26.4315 275.77 22.7431 268.447 22.7431C266.938 22.7431 264.741 22.9317 263.226 23.2086V41.1261ZM263.226 59.1615C263.226 61.4417 264.681 62.679 267.36 63.2446V64.4643C265.869 64.4643 261.011 64.2757 259.609 64.2757C258.428 64.2757 253.665 64.4643 252.174 64.4643V63.2446C254.662 62.7733 256.123 61.5419 256.123 59.1615V25.206C256.123 23.1143 254.983 21.7945 252.18 21.3232V20.1035C253.67 20.1035 258.38 20.2862 259.705 20.2862C261.89 20.2862 268.084 19.9268 270.525 19.9268C281.21 19.9268 287.155 24.3104 287.155 31.805C287.155 37.7147 282.718 41.6918 275.906 43.3356C275.906 43.3356 277.45 44.2253 279.006 46.0283C280.889 48.226 286.092 55.6145 288.2 58.1422C290.302 60.6757 292.999 63.5039 295.885 63.6335V64.6293C294.501 64.9239 292.292 65.1772 290.599 65.1772C286.959 65.1772 284.066 63.9104 281.251 60.5284C278.828 57.5942 274.582 51.3546 272.153 48.279C270.603 46.317 268.726 44.7909 265.293 44.2253C264.616 44.1134 263.981 44.025 263.232 43.9366V59.1615H263.226Z" fill="black"/>
<path d="M404.023 41.1261C405.454 41.3088 407.533 41.403 409.606 41.403C417.962 41.403 420.581 36.6305 420.581 32.4178C420.581 26.4315 416.56 22.7431 409.255 22.7431C407.735 22.7431 405.549 22.9317 404.023 23.2086V41.1261ZM404.023 59.1615C404.023 61.4417 405.484 62.679 408.163 63.2446V64.4643C406.672 64.4643 401.82 64.2757 400.424 64.2757C399.224 64.2757 394.473 64.4643 392.977 64.4643V63.2446C395.459 62.7733 396.926 61.5419 396.926 59.1615V25.206C396.926 23.1143 395.78 21.7945 392.983 21.3232V20.1035C394.479 20.1035 399.171 20.2862 400.507 20.2862C402.699 20.2862 408.887 19.9268 411.316 19.9268C422.018 19.9268 427.946 24.3104 427.946 31.805C427.946 37.7147 423.521 41.6918 416.703 43.3356C416.703 43.3356 418.253 44.2253 419.797 46.0283C421.704 48.226 426.9 55.6145 428.997 58.1422C431.105 60.6757 433.807 63.5039 436.676 63.6335V64.6293C435.31 64.9239 433.089 65.1772 431.414 65.1772C427.761 65.1772 424.857 63.9104 422.054 60.5284C419.631 57.5942 415.396 51.3546 412.949 48.279C411.399 46.317 409.529 44.7909 406.102 44.2253C405.413 44.1134 404.783 44.025 404.029 43.9366V59.1615H404.023Z" fill="black"/>
<path d="M226.952 46.6648L219.843 30.2262L213.221 46.6648H226.952ZM198.48 63.2331C201.307 62.5791 202.858 60.7644 203.891 58.331L218.192 24.1928C218.798 22.7787 219.511 19.8799 219.511 19.8799H223.513C223.513 19.8799 224.232 22.7905 224.826 24.2046L239.935 58.4252C241.01 60.782 242.18 62.4848 245.185 63.2331L245.179 64.3703C243.54 64.3703 238.456 64.276 237.298 64.276C236.146 64.276 231.288 64.3703 229.654 64.3703L229.66 63.2331C231.858 62.6969 232.553 61.5892 232.553 60.511C232.553 59.5978 232.173 58.5667 231.709 57.5002L228.461 50.147H211.808L208.832 57.5415C208.5 58.3781 208.102 59.5624 208.102 60.3637C208.102 61.5951 208.749 62.5791 211.249 63.2331L211.243 64.3703C209.765 64.3703 205.863 64.276 204.948 64.276L198.48 64.3703V63.2331Z" fill="black"/>
<path d="M368.634 46.6648L361.519 30.2262L354.903 46.6648H368.634ZM340.162 63.2331C342.989 62.5791 344.545 60.7644 345.567 58.331L359.874 24.1928C360.479 22.7787 361.198 19.8799 361.198 19.8799H365.201C365.201 19.8799 365.908 22.7905 366.502 24.2046L381.622 58.4252C382.691 60.782 383.867 62.4848 386.861 63.2331L386.855 64.3703C385.221 64.3703 380.132 64.276 378.968 64.276C377.827 64.276 372.969 64.3703 371.336 64.3703V63.2331C373.551 62.6969 374.234 61.5892 374.234 60.511C374.234 59.5978 373.86 58.5667 373.403 57.5002L370.142 50.147H353.489L350.508 57.5415C350.175 58.3781 349.783 59.5624 349.783 60.3637C349.783 61.5951 350.431 62.5791 352.931 63.2331V64.3703C351.446 64.3703 347.55 64.276 346.63 64.276L340.162 64.3703V63.2331Z" fill="black"/>
<path d="M12.3145 6.30493H112.025V43.6719C112.025 60.794 105.599 97.1004 62.5407 124.127C62.5407 124.127 15.8838 104.795 12.3145 43.6719V6.30493V6.30493Z" fill="black"/>
<path d="M12.1074 6.20459H111.919V43.601C111.919 60.729 105.487 97.059 62.3871 124.097C62.3871 124.097 15.6827 104.754 12.1074 43.601V6.20459V6.20459Z" stroke="black" stroke-width="0.23"/>
<path d="M87.7819 54.3186C87.7819 54.3186 86.8911 57.1291 82.9416 54.242L69.3651 53.918C69.3651 53.918 67.5893 54.4836 67.3458 52.6394C67.3458 52.6394 67.6724 48.951 67.5061 48.6329C67.5061 48.6329 67.5893 47.59 65.8016 47.59C65.8016 47.59 63.0578 47.9082 62.9806 45.4983C62.9806 45.4983 62.4996 42.9353 66.2946 43.0178C66.2946 43.0178 67.5061 43.5776 67.5893 42.0515C67.5893 42.0515 67.4289 31.6286 67.5061 30.8332C67.5061 30.8332 67.8328 29.8787 65.9679 29.7137C65.9679 29.7137 63.3013 30.2734 62.9806 28.5117C62.9806 28.5117 62.8203 25.8662 64.602 25.7013C64.602 25.7013 66.7816 25.8662 67.1854 25.3006C67.1854 25.3006 67.6724 25.6188 67.5893 23.7039L67.6724 20.4103C67.6724 20.4103 67.9041 19.5324 69.2819 19.6148C69.2819 19.6148 71.7882 19.7739 72.1148 19.5265C72.1148 19.5265 72.6731 18.8076 72.8394 18.4836C72.8394 18.4836 74.1341 18.407 74.3716 18.7252C74.3716 18.7252 76.3137 20.0096 83.6662 19.5265C83.6662 19.5265 84.8006 19.5265 85.0322 19.8505C85.0322 19.8505 86.41 20.8934 87.2177 19.7739C87.2177 19.7739 88.4293 19.5265 92.064 19.6148C92.064 19.6148 96.0312 20.6518 98.7691 18.407L99.66 18.5661C99.66 18.5661 100.788 20.4044 101.596 19.8505C101.596 19.8505 104.019 19.6148 104.423 20.0921C104.423 20.0921 105.231 21.2882 104.827 24.4227C104.827 24.4227 104.346 25.7779 106.686 25.7779C106.686 25.7779 109.352 25.2947 109.026 27.7811C109.026 27.7811 109.75 30.5857 105.314 30.191C105.314 30.191 104.744 30.9923 104.821 31.552C104.821 31.552 104.744 40.6846 104.661 41.7334C104.661 41.7334 104.583 43.1769 106.52 43.0944C106.52 43.0944 109.109 42.9294 109.192 45.2568C109.192 45.2568 109.513 48.3029 105.789 47.7373C105.789 47.7373 104.661 47.9023 104.488 48.6211L104.334 52.6276C104.334 52.6276 104.411 54.6309 102.154 54.1478C101.834 54.1478 89.5518 54.3952 88.5006 54.0771C88.5124 54.083 87.9423 54.0064 87.7819 54.3186Z" fill="white"/>
<path d="M61.6861 67.717C61.6861 67.717 62.2503 67.4813 62.4106 67.0866C62.4106 67.0866 64.1092 66.9216 64.3467 66.6859L69.68 67.0866C69.68 67.0866 74.9301 67.4813 77.1928 65.8728C77.1928 65.8728 78.0065 65.8728 78.5707 66.1203C78.5707 66.1203 79.6932 66.3677 80.0198 66.8391L83.0903 66.7566C83.0903 66.7566 84.866 67.3222 84.7057 68.4476V69.8853C84.7057 69.8853 84.379 72.7723 85.1868 72.9373H87.5386C87.5386 72.9373 89.4807 73.8152 89.2372 74.9406C89.2372 74.9406 89.3203 76.5373 87.6277 76.8614C87.6277 76.8614 85.9232 77.3386 85.3649 77.262C85.3649 77.262 84.7948 77.9809 84.7116 78.8588L84.4741 89.3583C84.4741 89.3583 84.3078 90.4778 86.0063 90.3187C86.0063 90.3187 88.5067 90.0771 89.2372 91.4441C89.2372 91.4441 89.8845 93.7655 88.5898 94.1662L87.6217 94.6434L85.5193 94.9793C85.5193 94.9793 84.6344 95.05 84.5513 96.576V99.3747C84.5513 99.3747 84.6344 101.307 83.0962 101.307L80.8334 101.466C80.8334 101.466 80.2692 101.938 79.1408 101.62C79.1408 101.62 65.4039 101.867 64.9169 101.702L63.3015 102.026C63.3015 102.026 61.5257 103.629 60.0706 102.421L58.9422 101.537C58.9422 101.537 58.1345 101.696 57.8138 101.614C57.4872 101.537 42.6218 101.779 42.6218 101.779C42.6218 101.779 39.4682 102.103 39.2306 101.054C39.2306 101.054 38.8268 96.9707 38.9871 96.4817C38.9871 96.4817 38.9871 95.2856 38.2626 95.209C38.2626 95.209 35.109 95.05 35.0317 94.72C35.0317 94.72 33.3332 93.5239 33.8202 92.322C33.8202 92.322 34.3903 90.7135 36.0829 90.5544C36.0829 90.5544 38.6664 90.9609 38.6664 90.2362C38.6664 90.2362 38.8327 89.7531 38.8327 88.9576C38.8327 88.9576 38.9931 79.4126 38.9099 78.7763C38.9099 78.7763 39.1534 77.5743 38.1022 77.5743C38.1022 77.5743 36.9738 77.8925 36.2492 77.4152C36.2492 77.4152 34.3072 77.4977 33.9033 75.9717C33.9033 75.9717 33.5767 75.0113 34.0577 74.2041C34.0577 74.2041 34.9486 72.4424 37.5321 73.008C37.5321 73.008 38.9871 73.4087 39.1475 72.3717L39.0703 68.5183C39.0703 68.5183 38.7436 67.4813 40.7629 66.9216C40.7629 66.9216 43.3464 67.6404 44.1541 66.3618C44.1541 66.3618 45.0449 64.5942 45.7635 65.7962C45.7635 65.7962 47.3077 67.2398 51.5066 67.0866C51.5066 67.0866 58.7819 66.5209 58.9422 66.8332C58.9422 66.8332 60.718 67.0866 61.205 67.6404L61.6861 67.717Z" fill="white"/>
<path d="M39.7259 54.3181C39.7259 54.3181 38.8351 57.1286 34.8738 54.2356L21.3031 53.9116C21.3031 53.9116 19.5274 54.4772 19.2839 52.633C19.2839 52.633 19.6105 48.9505 19.4383 48.6265C19.4383 48.6265 19.5273 47.5836 17.7456 47.5836C17.7456 47.5836 15.0018 47.9135 14.9246 45.5037C14.9246 45.5037 14.4376 42.9289 18.2326 43.0173C18.2326 43.0173 19.4383 43.577 19.5274 42.051C19.5274 42.051 19.367 31.634 19.4383 30.8268C19.4383 30.8268 19.7708 29.8723 17.9119 29.7132C17.9119 29.7132 15.2453 30.2729 14.9246 28.5053C14.9246 28.5053 14.7583 25.8657 16.5341 25.7007C16.5341 25.7007 18.7137 25.8657 19.1235 25.3119C19.1235 25.3119 19.6105 25.6241 19.5274 23.6975L19.6105 20.4156C19.6105 20.4156 19.854 19.5318 21.22 19.6143C21.22 19.6143 23.7322 19.7734 24.0588 19.5318C24.0588 19.5318 24.623 18.813 24.7774 18.4889C24.7774 18.4889 26.0781 18.4124 26.3216 18.7246C26.3216 18.7246 28.2577 20.015 35.6161 19.5318C35.6161 19.5318 36.7386 19.5318 36.9821 19.8559C36.9821 19.8559 38.354 20.8988 39.1617 19.7734C39.1617 19.7734 40.3733 19.5318 44.0139 19.6143C44.0139 19.6143 47.9634 20.6572 50.7191 18.4124L51.604 18.5773C51.604 18.5773 52.7324 20.4156 53.552 19.8559C53.552 19.8559 55.9751 19.6143 56.379 20.0975C56.379 20.0975 57.1867 21.2994 56.7769 24.4281C56.7769 24.4281 56.2958 25.7891 58.6358 25.7891C58.6358 25.7891 61.3024 25.3119 60.9817 27.7865C60.9817 27.7865 61.7122 30.5911 57.2639 30.1963C57.2639 30.1963 56.6937 30.9976 56.7709 31.5574C56.7709 31.5574 56.6937 40.69 56.6106 41.7387C56.6106 41.7387 56.5334 43.1705 58.4695 43.0998C58.4695 43.0998 61.053 42.9289 61.1361 45.2621C61.1361 45.2621 61.4568 48.3083 57.7449 47.7427C57.7449 47.7427 56.6106 47.9076 56.4443 48.6265L56.2839 52.633C56.2839 52.633 56.3671 54.6363 54.0984 54.159C53.7777 54.159 41.5017 54.3947 40.4505 54.0824C40.4505 54.0824 39.8863 54.0058 39.7259 54.3181Z" fill="white"/>
<path d="M87.7819 54.3186C87.7819 54.3186 86.8911 57.1291 82.9416 54.242L69.3651 53.918C69.3651 53.918 67.5893 54.4836 67.3458 52.6394C67.3458 52.6394 67.6724 48.951 67.5061 48.6329C67.5061 48.6329 67.5893 47.59 65.8016 47.59C65.8016 47.59 63.0578 47.9082 62.9806 45.4983C62.9806 45.4983 62.4996 42.9353 66.2946 43.0178C66.2946 43.0178 67.5061 43.5776 67.5893 42.0515C67.5893 42.0515 67.4289 31.6286 67.5061 30.8332C67.5061 30.8332 67.8328 29.8787 65.9679 29.7137C65.9679 29.7137 63.3013 30.2734 62.9806 28.5117C62.9806 28.5117 62.8203 25.8662 64.602 25.7013C64.602 25.7013 66.7816 25.8662 67.1854 25.3006C67.1854 25.3006 67.6724 25.6188 67.5893 23.7039L67.6724 20.4103C67.6724 20.4103 67.9041 19.5324 69.2819 19.6148C69.2819 19.6148 71.7882 19.7739 72.1148 19.5265C72.1148 19.5265 72.6731 18.8076 72.8394 18.4836C72.8394 18.4836 74.1341 18.407 74.3716 18.7252C74.3716 18.7252 76.3137 20.0096 83.6662 19.5265C83.6662 19.5265 84.8006 19.5265 85.0322 19.8505C85.0322 19.8505 86.41 20.8934 87.2177 19.7739C87.2177 19.7739 88.4293 19.5265 92.064 19.6148C92.064 19.6148 96.0312 20.6518 98.7691 18.407L99.66 18.5661C99.66 18.5661 100.788 20.4044 101.596 19.8505C101.596 19.8505 104.019 19.6148 104.423 20.0921C104.423 20.0921 105.231 21.2882 104.827 24.4227C104.827 24.4227 104.346 25.7779 106.686 25.7779C106.686 25.7779 109.352 25.2947 109.026 27.7811C109.026 27.7811 109.75 30.5857 105.314 30.191C105.314 30.191 104.744 30.9923 104.821 31.552C104.821 31.552 104.744 40.6846 104.661 41.7334C104.661 41.7334 104.583 43.1769 106.52 43.0944C106.52 43.0944 109.109 42.9294 109.192 45.2568C109.192 45.2568 109.513 48.3029 105.789 47.7373C105.789 47.7373 104.661 47.9023 104.488 48.6211L104.334 52.6276C104.334 52.6276 104.411 54.6309 102.154 54.1478C101.834 54.1478 89.5518 54.3952 88.5006 54.0771C88.5124 54.083 87.9423 54.0064 87.7819 54.3186Z" fill="black"/>
<path d="M87.7819 54.3241C87.7819 54.3241 86.8911 57.1346 82.9417 54.2475L69.3651 53.9234C69.3651 53.9234 67.5893 54.4891 67.3458 52.6449C67.3458 52.6449 67.6724 48.9565 67.5061 48.6383C67.5061 48.6383 67.5893 47.5954 65.8076 47.5954C65.8076 47.5954 63.0638 47.9195 62.9806 45.5097C62.9806 45.5097 62.4996 42.9467 66.2946 43.0291C66.2946 43.0291 67.5061 43.5889 67.5893 42.0629C67.5893 42.0629 67.4289 31.6399 67.5061 30.8386C67.5061 30.8386 67.8328 29.8782 65.9739 29.7191C65.9739 29.7191 63.3073 30.2789 62.9806 28.5172C62.9806 28.5172 62.8262 25.8717 64.602 25.7067C64.602 25.7067 66.7816 25.8658 67.1854 25.306C67.1854 25.306 67.6784 25.6242 67.5893 23.7034L67.6784 20.4098C67.6784 20.4098 67.91 19.5319 69.2938 19.6144C69.2938 19.6144 71.8001 19.7735 72.1208 19.526C72.1208 19.526 72.679 18.8131 72.8453 18.4831C72.8453 18.4831 74.14 18.4006 74.3776 18.7247C74.3776 18.7247 76.3137 20.0091 83.6721 19.5201C83.6721 19.5201 84.8065 19.5201 85.0381 19.8442C85.0381 19.8442 86.416 20.8871 87.2237 19.7676C87.2237 19.7676 88.4352 19.5201 92.0699 19.6085C92.0699 19.6085 96.0372 20.6455 98.7751 18.4006L99.6659 18.5597C99.6659 18.5597 100.794 20.4039 101.602 19.8442C101.602 19.8442 104.025 19.6085 104.429 20.0857C104.429 20.0857 105.237 21.2877 104.833 24.4164C104.833 24.4164 104.352 25.7774 106.692 25.7774C106.692 25.7774 109.358 25.2943 109.032 27.7748C109.032 27.7748 109.756 30.5853 105.32 30.1846C105.32 30.1846 104.756 30.9859 104.833 31.5515C104.833 31.5515 104.756 40.6841 104.673 41.7329C104.673 41.7329 104.589 43.1764 106.531 43.0998C106.531 43.0998 109.121 42.9349 109.204 45.2563C109.204 45.2563 109.519 48.3025 105.801 47.7368C105.801 47.7368 104.673 47.9018 104.5 48.6206L104.346 52.6272C104.346 52.6272 104.423 54.6305 102.166 54.1473C101.846 54.1473 89.5637 54.3948 88.5065 54.0707C88.5124 54.0825 87.9423 54.0059 87.7819 54.3241Z" stroke="black" stroke-width="0.01"/>
<path d="M72.519 21.294C72.519 21.294 72.6794 22.8966 72.6794 23.3032C72.6794 23.7038 72.4418 46.4646 72.4418 46.4646C72.4418 46.4646 72.6794 48.2263 71.153 49.1101C71.153 49.1101 70.7432 49.2691 70.666 48.1438L70.8264 24.1045C70.8204 24.1104 70.9808 21.1349 72.519 21.294Z" fill="white"/>
<path d="M72.5192 21.294C72.5192 21.294 72.6736 22.8966 72.6736 23.3032C72.6736 23.7038 72.4361 46.4705 72.4361 46.4705C72.4361 46.4705 72.6736 48.2322 71.1414 49.116C71.1414 49.116 70.7316 49.275 70.6484 48.1556L70.8088 24.1104C70.8207 24.1104 70.981 21.1349 72.5192 21.294Z" stroke="black" stroke-width="0.012"/>
<path d="M69.8505 49.3517C69.8505 49.3517 70.0108 26.7501 69.9336 26.3494C69.8505 25.9547 70.0108 26.6794 70.0108 26.6794C70.0108 26.6794 69.7673 22.7435 70.8185 21.1409C70.8185 21.1409 70.4919 19.7858 68.633 21.465L68.5498 24.7468C68.5498 24.7468 68.5498 26.591 66.8572 26.5144C66.8572 26.5144 64.9151 26.4319 64.0302 27.3157C64.0302 27.3157 63.5432 29.0833 65.4021 28.7651C65.4021 28.7651 68.3123 28.7651 68.4726 29.9612L68.3123 42.0693C68.3123 42.0693 68.9596 44.0843 66.6968 44.0843C66.6968 44.0843 63.9411 43.9134 64.0302 45.5986C64.0302 45.5986 64.6004 47.0421 66.9403 46.5648C66.9403 46.5648 68.633 46.8771 68.5558 48.4915V51.5377C68.5558 51.5377 68.3954 52.7455 70.0108 52.8221H82.6134C82.6134 52.8221 83.2548 52.8987 83.2548 52.0974C83.2548 52.0974 83.1776 51.4552 82.2095 51.4552L71.7094 51.2961C71.7094 51.2784 70.0108 51.8382 69.8505 49.3517Z" fill="white"/>
<path d="M72.2764 49.3166C72.2764 49.3166 71.9498 50.436 73.1613 50.2063H81.4819L83.7387 50.6953C83.7387 50.6953 86.0787 50.1297 83.7387 48.8511C83.7387 48.8511 76.309 48.9218 75.6617 48.7686C75.6617 48.7686 74.1235 48.368 73.7968 48.2914C73.8027 48.2796 73.001 47.9614 72.2764 49.3166Z" fill="white"/>
<path d="M72.2764 49.3166C72.2764 49.3166 71.9498 50.4419 73.1613 50.2063H81.4878L83.7446 50.6953C83.7446 50.6953 86.0905 50.1238 83.7446 48.8452C83.7446 48.8452 76.3149 48.9159 75.6676 48.7627C75.6676 48.7627 74.1294 48.3621 73.8027 48.2796C73.8027 48.2796 73.001 47.9555 72.2764 49.3166Z" stroke="black" stroke-width="0.012"/>
<path d="M86.0888 50.4415C86.0888 50.4415 84.5565 50.4415 84.6337 52.4506C84.6337 52.4506 84.794 53.9649 86.4095 53.9649C86.4095 53.9649 87.8586 53.7292 87.7042 52.1266C87.7042 52.1266 86.8133 50.1233 86.0888 50.4415Z" fill="white"/>
<path d="M87.2245 49.6407C87.2245 49.6407 87.9491 48.8394 88.4361 48.8394C88.4361 48.8394 96.5131 49.5582 97.8791 48.5978C97.8791 48.5978 99.0966 48.3563 99.4233 48.5978C99.4233 48.5978 100.635 49.5582 100.635 50.118C100.635 50.118 100.558 50.8427 99.1025 50.4302C99.1025 50.4302 89.9743 50.5186 89.4873 50.5186C89.4813 50.5245 86.975 51.0842 87.2245 49.6407Z" fill="white"/>
<path d="M87.2166 49.6407C87.2166 49.6407 87.9412 48.8394 88.4282 48.8394C88.4282 48.8394 96.5112 49.5582 97.8772 48.5978C97.8772 48.5978 99.0947 48.3563 99.4213 48.5978C99.4213 48.5978 100.633 49.5582 100.633 50.1239C100.633 50.1239 100.556 50.8486 99.1006 50.4361C99.1006 50.4361 89.9664 50.5245 89.4794 50.5245C89.4794 50.5245 86.9672 51.0842 87.2166 49.6407Z" stroke="black" stroke-width="0.012"/>
<path d="M88.2676 52.2389C88.2676 52.2389 88.2676 51.5908 89.4019 51.5908L100.71 51.5142C100.71 51.5142 101.761 52.0739 101.761 50.159C101.761 50.159 102.177 41.4212 102.212 31.7996C102.224 28.9361 102.355 25.9312 102.254 23.1502C102.254 23.1502 102.005 21.9482 101.678 21.7007C101.678 21.7007 101.678 20.4222 103.056 20.8994C103.056 20.8994 104.267 20.9819 103.947 22.832L104.03 25.6248C104.03 25.6248 103.786 26.8326 105.96 26.5086C105.96 26.5086 108.14 26.8326 108.223 27.6281C108.223 27.6281 108.87 29.2366 106.287 29.0716H104.422C104.422 29.0716 103.614 29.5489 103.857 30.5151L103.614 42.14C103.614 42.14 103.454 44.1433 105.39 44.0667C105.39 44.0667 107.403 43.9842 107.813 44.6264C107.813 44.6264 109.197 46.6297 106.197 46.4706C106.197 46.4706 104.339 46.3881 103.935 46.7122C103.935 46.7122 103.608 47.1129 103.37 50.8837C103.37 50.8837 103.537 53.1286 101.838 52.8811C101.838 52.8811 90.6075 53.0402 89.5563 52.8045C89.5623 52.7986 88.4339 53.1286 88.2676 52.2389Z" fill="white"/>
<path d="M73.7302 20.5694L73.4867 46.3056C73.4867 46.3056 73.4095 47.5017 75.4288 47.7432C75.4288 47.7432 77.7687 47.9848 78.3329 47.7432C78.3329 47.7432 79.8771 47.6608 83.8265 47.8257C83.8265 47.8257 84.8005 48.7979 84.8837 47.5842C84.8837 47.5842 85.5251 26.7501 85.2103 22.4136C85.2103 22.4136 85.1212 20.5694 83.7553 20.4928C83.7553 20.4928 77.6143 20.9818 77.0501 20.4928L74.627 19.8565C74.6151 19.8506 73.6471 19.9331 73.7302 20.5694Z" fill="white"/>
<path d="M86.4931 21.8534C86.4931 21.8534 86.2496 33.9555 86.3327 34.3562L86.1724 44.5316L85.8457 48.0609C85.8457 48.0609 86.3327 48.7798 86.7366 48.3025C86.7366 48.3025 89.32 47.6544 90.9354 47.9019C90.9354 47.9019 96.1143 48.3791 97.1595 47.5719C97.1595 47.5719 97.9672 47.9726 98.2048 46.6881C98.2048 46.6881 98.5255 24.2514 98.377 23.8508C98.377 23.8508 98.6918 20.6337 98.5255 20.3215C98.5255 20.3215 98.4542 19.6026 97.0764 20.239C97.0764 20.239 97.2367 20.8812 89.5635 20.6337C89.5635 20.6455 86.6593 20.5689 86.4931 21.8534Z" fill="white"/>
<path d="M99.3448 21.5357L99.2676 46.8595C99.2676 46.8595 99.9149 49.1102 100.96 48.8745C100.96 48.8745 101.121 48.3855 101.198 47.5842L101.524 23.4565C101.518 23.4624 100.711 19.6208 99.3448 21.5357Z" fill="white"/>
<path d="M99.3409 21.5358L99.2637 46.8655C99.2637 46.8655 99.911 49.1162 100.962 48.8805C100.962 48.8805 101.123 48.3915 101.2 47.5902L101.526 23.4566C101.52 23.4566 100.713 19.6209 99.3409 21.5358Z" stroke="black" stroke-width="0.012"/>
<path d="M89.4222 29.1185C89.1787 28.4763 90.7941 28.3997 90.7941 28.3997L91.6018 28.5587C92.166 28.4821 92.7361 28.7237 92.7361 28.7237C93.3003 29.6016 92.3323 30.0789 92.3323 30.0789L92.0116 31.1218C91.9284 32.0056 92.0116 39.618 92.0116 39.618C92.1719 40.0128 92.8193 40.7316 92.8193 40.7316C92.8193 41.4563 91.9284 41.2972 91.9284 41.2972L89.5885 41.3797C88.858 41.2972 89.1015 40.4959 89.1015 40.4959C89.9092 40.0953 90.1527 38.6517 90.1527 38.6517V30.7211L89.4222 29.1185Z" fill="black"/>
<path d="M78.595 30.238C78.6722 32.0056 78.6722 34.4096 78.6722 34.4096C80.2104 35.6115 81.0953 33.9264 81.0953 33.9264C83.1146 32.0056 81.0953 30.238 80.7746 29.7608C80.4479 29.2776 78.8325 29.6783 78.8325 29.6783L78.595 30.238ZM78.5178 36.5778L78.3574 39.0642L79.076 40.2662C79.569 40.9084 78.7553 41.3916 78.7553 41.3916L76.1718 41.15C75.6908 40.9025 76.1718 40.1071 76.1718 40.1071C76.8192 39.7123 76.9024 38.6636 76.9024 38.6636L76.8192 34.0148L76.9024 30.6505C76.9024 30.2498 76.255 29.531 76.255 29.531C75.6908 29.4485 75.8511 28.7297 75.8511 28.7297C76.0115 28.329 77.3775 28.5647 77.3775 28.5647H80.7746C84.0054 29.6076 83.5244 31.9349 83.5244 31.9349C83.7679 34.2564 81.2616 35.2227 81.2616 35.2227L81.0953 36.5071L83.4412 40.1896C83.8451 40.5137 83.7679 40.8377 83.7679 40.8377C83.4412 41.7215 82.1465 40.8377 82.1465 40.8377L79.2423 36.348C78.9988 36.0122 78.5178 36.5778 78.5178 36.5778Z" fill="black"/>
<path d="M61.6861 67.717C61.6861 67.717 62.2503 67.4813 62.4106 67.0866C62.4106 67.0866 64.1092 66.9216 64.3467 66.6859L69.68 67.0866C69.68 67.0866 74.9301 67.4813 77.1928 65.8728C77.1928 65.8728 78.0065 65.8728 78.5707 66.1203C78.5707 66.1203 79.6932 66.3677 80.0198 66.8391L83.0903 66.7566C83.0903 66.7566 84.866 67.3222 84.7057 68.4476V69.8853C84.7057 69.8853 84.379 72.7723 85.1868 72.9373H87.5386C87.5386 72.9373 89.4807 73.8152 89.2372 74.9406C89.2372 74.9406 89.3203 76.5373 87.6277 76.8614C87.6277 76.8614 85.9232 77.3386 85.3649 77.262C85.3649 77.262 84.7948 77.9809 84.7116 78.8588L84.4741 89.3583C84.4741 89.3583 84.3078 90.4778 86.0063 90.3187C86.0063 90.3187 88.5067 90.0771 89.2372 91.4441C89.2372 91.4441 89.8845 93.7655 88.5898 94.1662L87.6217 94.6434L85.5193 94.9793C85.5193 94.9793 84.6344 95.05 84.5513 96.576V99.3747C84.5513 99.3747 84.6344 101.307 83.0962 101.307L80.8334 101.466C80.8334 101.466 80.2692 101.938 79.1408 101.62C79.1408 101.62 65.4039 101.867 64.9169 101.702L63.3015 102.026C63.3015 102.026 61.5257 103.629 60.0706 102.421L58.9422 101.537C58.9422 101.537 58.1345 101.696 57.8138 101.614C57.4872 101.537 42.6218 101.779 42.6218 101.779C42.6218 101.779 39.4682 102.103 39.2306 101.054C39.2306 101.054 38.8268 96.9707 38.9871 96.4817C38.9871 96.4817 38.9871 95.2856 38.2626 95.209C38.2626 95.209 35.109 95.05 35.0317 94.72C35.0317 94.72 33.3332 93.5239 33.8202 92.322C33.8202 92.322 34.3903 90.7135 36.0829 90.5544C36.0829 90.5544 38.6664 90.9609 38.6664 90.2362C38.6664 90.2362 38.8327 89.7531 38.8327 88.9576C38.8327 88.9576 38.9931 79.4126 38.9099 78.7763C38.9099 78.7763 39.1534 77.5743 38.1022 77.5743C38.1022 77.5743 36.9738 77.8925 36.2492 77.4152C36.2492 77.4152 34.3072 77.4977 33.9033 75.9717C33.9033 75.9717 33.5767 75.0113 34.0577 74.2041C34.0577 74.2041 34.9486 72.4424 37.5321 73.008C37.5321 73.008 38.9871 73.4087 39.1475 72.3717L39.0703 68.5183C39.0703 68.5183 38.7436 67.4813 40.7629 66.9216C40.7629 66.9216 43.3464 67.6404 44.1541 66.3618C44.1541 66.3618 45.0449 64.5942 45.7635 65.7962C45.7635 65.7962 47.3077 67.2398 51.5066 67.0866C51.5066 67.0866 58.7819 66.5209 58.9422 66.8332C58.9422 66.8332 60.718 67.0866 61.205 67.6404L61.6861 67.717Z" fill="black"/>
<path d="M61.6884 67.617C61.6884 67.617 62.2467 67.3813 62.413 66.9806C62.413 66.9806 64.1115 66.8157 64.3491 66.58L69.6823 66.9806C69.6823 66.9806 74.9324 67.3813 77.1952 65.7728C77.1952 65.7728 78.0088 65.7728 78.573 66.0203C78.573 66.0203 79.7015 66.2618 80.0162 66.7332L83.0926 66.6566C83.0926 66.6566 84.8684 67.2222 84.7021 68.3476V69.7911C84.7021 69.7911 84.3814 72.6782 85.1891 72.8373H87.535C87.535 72.8373 89.4711 73.7211 89.2336 74.8406C89.2336 74.8406 89.3167 76.4373 87.6182 76.7613C87.6182 76.7613 85.9137 77.2386 85.3554 77.162C85.3554 77.162 84.7853 77.8808 84.7021 78.7646L84.4645 89.27C84.4645 89.27 84.3042 90.3836 85.9968 90.2304C85.9968 90.2304 88.4971 89.9947 89.2336 91.3558C89.2336 91.3558 89.8809 93.6772 88.5862 94.0838L87.6182 94.561L85.5098 94.8851C85.5098 94.8851 84.6249 94.9617 84.5477 96.4818V99.2923C84.5477 99.2923 84.6249 101.213 83.0926 101.213L80.8299 101.372C80.8299 101.372 80.2657 101.849 79.1313 101.531C79.1313 101.531 65.3944 101.773 64.9074 101.608L63.286 101.932C63.286 101.932 61.5162 103.535 60.0611 102.327L58.9268 101.443C58.9268 101.443 58.1191 101.602 57.7984 101.531C57.4717 101.443 42.6063 101.69 42.6063 101.69C42.6063 101.69 39.4527 102.014 39.2092 100.966C39.2092 100.966 38.8054 96.8766 38.9657 96.3934C38.9657 96.3934 38.9657 95.1974 38.2352 95.1149C38.2352 95.1149 35.0875 94.9558 35.0044 94.6317C35.0044 94.6317 33.3058 93.4298 33.7928 92.2278C33.7928 92.2278 34.363 90.6193 36.0556 90.4602C36.0556 90.4602 38.6391 90.8727 38.6391 90.142C38.6391 90.142 38.8054 89.6648 38.8054 88.8694C38.8054 88.8694 38.9657 79.3244 38.8885 78.6821C38.8885 78.6821 39.132 77.4743 38.0749 77.4743C38.0749 77.4743 36.9465 77.7924 36.216 77.3152C36.216 77.3152 34.2798 77.3918 33.876 75.8717C33.876 75.8717 33.5493 74.9113 34.0363 74.1041C34.0363 74.1041 34.9213 72.3424 37.5107 72.9021C37.5107 72.9021 38.9657 73.3086 39.1261 72.2658L39.0429 68.4124C39.0429 68.4124 38.7163 67.3754 40.7415 66.8098C40.7415 66.8098 43.325 67.5345 44.1327 66.25C44.1327 66.25 45.0176 64.4824 45.7421 65.6785C45.7421 65.6785 47.2863 67.1221 51.4792 66.9689C51.4792 66.9689 58.7545 66.4032 58.9149 66.7214C58.9149 66.7214 60.6966 66.9689 61.1777 67.5286L61.6884 67.617Z" stroke="black" stroke-width="0.01"/>
<path d="M63.7893 99.2214C63.7893 99.2214 64.7633 98.7323 65.4107 98.9032C66.058 99.0623 75.507 98.8266 75.507 98.8266C75.507 98.8266 79.6287 99.1448 80.276 98.5792L81.2382 98.261C81.2382 98.261 81.642 97.7837 81.642 97.1474C81.642 96.4993 81.7252 94.3369 81.7252 94.3369L81.9746 93.5415C81.9746 93.5415 81.8914 92.7402 81.9746 71.3346C81.9746 71.3346 82.2894 69.6613 81.2382 68.6125C81.2382 68.6125 81.2382 67.9762 81.5589 68.0528C81.8855 68.1411 81.7252 68.1411 81.7252 68.1411C81.7252 68.1411 83.1802 67.7346 83.4178 68.2943C83.4178 68.2943 84.0711 70.2092 83.5009 71.3405C83.5009 71.3405 83.3406 73.6678 84.5581 73.6678C84.5581 73.6678 85.0332 74.151 86.0072 73.9094C86.0072 73.9094 88.1096 74.151 88.1096 74.7873C88.1096 74.7873 88.1096 76.2367 86.6545 75.9952L84.7125 76.1484C84.7125 76.1484 83.4178 76.3958 83.5841 77.9101C83.7504 79.4361 83.5009 90.3363 83.5009 90.3363C83.5009 90.3363 83.5009 91.6266 85.5261 91.5441C85.5261 91.5441 88.0264 91.4616 88.0264 92.1805C88.0264 92.1805 88.6738 93.7831 86.898 93.8656C86.898 93.8656 83.5009 93.7831 83.7504 94.7435C83.7504 94.7435 83.5069 96.9942 83.3406 97.389C83.3406 97.389 83.6731 99.2332 83.2574 99.5572C83.2574 99.5572 83.0199 100.594 80.8402 100.435C80.8402 100.435 66.9489 100.359 64.7633 100.518C64.7633 100.5 63.4686 100.341 63.7893 99.2214Z" fill="white"/>
<path d="M61.2874 97.6956C61.2874 97.6956 62.6593 97.9312 62.6593 99.2157C62.6593 100.494 62.7425 101.219 61.9288 101.378C61.1211 101.537 60.2362 101.301 59.9986 100.264C59.7492 99.2216 60.153 97.9312 61.2874 97.6956Z" fill="white"/>
<path d="M62.9034 97.0589C62.9034 97.0589 64.3584 96.0926 64.9226 96.2576C64.9226 96.2576 72.2752 96.7348 74.5379 96.34C76.8007 95.9394 75.4228 96.2576 75.4228 96.2576C75.4228 96.2576 77.3649 96.2576 77.9232 95.5328C77.9232 95.5328 78.4933 95.3797 78.814 95.9394L80.0196 97.2297C80.0196 97.2297 80.1087 98.0251 78.7309 97.9427C78.7309 97.9427 65.5581 97.9427 65.1602 98.0251C65.1661 98.0193 62.6599 98.414 62.9034 97.0589Z" fill="white"/>
<path d="M62.8968 97.0591C62.8968 97.0591 64.3518 96.0928 64.916 96.2578C64.916 96.2578 72.2685 96.7351 74.5372 96.3462C76.8 95.9397 75.4221 96.2578 75.4221 96.2578C75.4221 96.2578 77.3642 96.2578 77.9284 95.5272C77.9284 95.5272 78.4926 95.374 78.8193 95.9338L80.0249 97.2241C80.0249 97.2241 80.114 98.0195 78.7361 97.937C78.7361 97.937 65.5634 97.937 65.1595 98.0195C65.1595 98.0195 62.6592 98.4143 62.8968 97.0591Z" stroke="black" stroke-width="0.012"/>
<path d="M43.757 68.6008C43.757 68.6008 44.3212 68.6008 44.244 69.5612L44.0777 93.7655C44.0777 93.7655 44.3271 95.374 42.9492 96.411C42.9492 96.411 42.2188 97.2889 42.2188 95.9338L42.5513 71.2463C42.5454 71.2463 42.6226 69.4021 43.757 68.6008Z" fill="white"/>
<path d="M43.757 68.6008C43.757 68.6008 44.3212 68.6008 44.25 69.5612L44.0777 93.7714C44.0777 93.7714 44.3272 95.3799 42.9493 96.4169C42.9493 96.4169 42.2129 97.2948 42.2129 95.9396L42.5455 71.2463C42.5395 71.2463 42.6227 69.4021 43.757 68.6008Z" stroke="black" stroke-width="0.012"/>
<path d="M42.462 68.7599C42.462 68.7599 41.494 70.5275 41.5712 70.9282L41.488 76.2899C41.488 76.2899 41.4049 79.7367 41.488 80.1374C41.5712 80.538 41.4049 90.6369 41.4049 90.6369C41.4049 90.6369 41.3217 92.5577 41.4049 93.1999V97.5246C41.4049 97.5246 41.2445 99.4513 42.6936 98.9623C42.6936 98.9623 56.9176 98.6441 57.8084 98.8915C57.8084 98.8915 59.0972 99.1272 58.6162 99.7695C58.6162 99.7695 58.6162 100.335 57.7194 100.17C57.7194 100.17 51.0142 100.806 44.9564 100.571C44.9564 100.571 40.9179 100.806 40.6684 100.335C40.6684 100.335 40.027 100.253 40.027 97.9253C40.027 97.9253 40.027 95.7688 39.8726 95.3681C39.8726 95.3681 40.027 94.231 38.0137 94.0012C38.0137 94.0012 35.1867 94.4843 35.1036 92.7992C35.1036 92.7992 35.5074 91.5973 38.2572 91.7564C38.2572 91.7564 40.2765 92.0804 39.8726 90.4719L40.1102 78.6172C40.1102 78.6172 40.3596 76.5256 38.9818 76.4372C38.9818 76.4372 37.693 76.3724 37.2832 76.5197C37.2832 76.5197 34.9432 76.5197 35.1036 75.1645C35.1036 75.1645 35.9113 73.7151 38.2572 74.0392C38.2572 74.0392 40.033 74.3573 40.1161 72.3599C40.1161 72.3599 40.033 68.2709 41.001 68.1118C41.007 68.1236 43.0262 68.2002 42.462 68.7599Z" fill="white"/>
<path d="M44.8833 95.2913C44.8833 95.2913 46.0176 96.4873 47.8765 96.4166L58.8578 96.5698C58.8578 96.5698 60.0753 96.6582 59.9981 97.2886C59.9981 97.2886 59.8258 98.249 58.3767 97.9309L45.1268 97.7718L43.6717 97.8602C43.6717 97.8602 42.7037 97.6952 44.2419 95.851L44.8833 95.2913Z" fill="white"/>
<path d="M44.8794 95.2859C44.8794 95.2859 46.0137 96.4879 47.8786 96.4113L58.8598 96.5703C58.8598 96.5703 60.0773 96.6528 60.006 97.2892C60.006 97.2892 59.8338 98.2496 58.3906 97.9373L45.1288 97.7782L43.6678 97.8607C43.6678 97.8607 42.6998 97.6957 44.238 95.8515L44.8794 95.2859Z" stroke="black" stroke-width="0.012"/>
<path d="M78.8223 94.2426C78.8223 94.2426 79.7903 96.0868 80.2773 96.3402C80.2773 96.3402 81.1682 97.3713 80.9247 95.533L81.085 72.4481C81.085 72.4481 80.8415 71.6468 81.085 70.3683L80.117 68.6066C80.117 68.6066 79.0658 67.8053 79.0658 69.0838L78.9054 93.6947L78.8223 94.2426Z" fill="white"/>
<path d="M78.8145 94.2429C78.8145 94.2429 79.7884 96.0871 80.2754 96.3404C80.2754 96.3404 81.1663 97.3774 80.9228 95.5274L81.0832 72.4366C81.0832 72.4366 80.8397 71.6353 81.0832 70.3627L80.1151 68.5951C80.1151 68.5951 79.0579 67.7937 79.0579 69.0782L78.8976 93.689L78.8145 94.2429Z" stroke="black" stroke-width="0.012"/>
<path d="M60.8851 83.2661C60.8851 83.2661 60.9683 85.181 60.7188 87.0252C60.5882 88.0445 61.0455 92.7227 60.6357 95.1267C60.6357 95.1267 60.5644 95.928 58.8599 95.215C58.8599 95.215 48.5201 95.4507 48.1994 95.1267C48.1994 95.1267 45.3724 95.215 45.1289 93.7656C45.1289 93.7656 45.5328 82.783 45.2893 82.3764C45.2893 82.3764 45.1289 76.3666 45.2893 75.8068C45.2893 75.8068 45.5328 70.2743 45.3724 69.6379C45.3724 69.6379 45.4556 68.3535 45.2121 67.7113C45.2121 67.7113 45.2121 66.9099 46.5899 67.3872C46.5899 67.3872 47.065 68.271 49.7376 67.8762C49.7376 67.8762 51.6796 68.1944 53.5386 67.9528C53.5386 67.9528 57.6543 67.6347 58.7114 67.9528C58.7114 67.9528 60.3269 67.6347 60.8079 69.4023L60.7248 74.3692L61.2058 75.9718L61.776 75.5712L62.0135 74.3692L62.0967 69.0782C62.0967 69.0782 62.4174 68.1119 63.718 67.9528C63.718 67.9528 65.7373 67.7054 66.0639 67.8762C66.3847 68.0294 70.7439 68.271 71.9614 68.0294C73.1729 67.7879 73.4105 68.8307 77.0511 66.9924C77.0511 66.9924 78.0192 67.0749 78.0192 67.7054C78.0192 67.7054 77.6866 74.5283 78.0192 75.8009C78.0192 75.8009 78.0192 88.3037 77.7697 89.1875L77.936 93.1941C77.936 93.1941 78.0964 94.9558 75.2754 95.1208C75.2754 95.1208 77.0511 95.3623 65.8977 95.0442C65.8977 95.0442 64.1219 94.9617 62.1858 95.8396C62.1858 95.8396 61.7819 95.763 61.7819 94.7201C61.7819 94.7201 62.1026 90.9551 61.7819 87.2609L61.6275 83.1718L60.8851 83.2661Z" fill="white"/>
<path d="M53.6094 77.5799C53.6094 77.5799 53.8529 83.5072 53.6094 84.3085L53.5322 85.593C53.5322 85.593 53.8529 86.4709 54.3399 86.795C54.3399 86.795 54.7437 87.9144 53.7757 87.8378C53.7757 87.8378 51.7564 87.6788 51.2753 87.7495C51.2753 87.7495 50.141 87.7495 51.2753 86.3177C51.2753 86.3177 51.6792 85.7462 51.5961 84.3085C51.5961 84.3085 51.5961 77.5799 51.7624 77.1793C51.7624 77.1793 51.9227 76.2896 51.3585 76.048L50.3845 76.1305L49.1789 77.25C49.1789 77.25 48.9294 78.4578 48.3652 77.1734V76.5252L49.0957 74.6045L49.5827 74.522C49.5827 74.522 50.3073 75.0051 50.9487 75.1701H54.7497L56.1216 74.522C56.1216 74.522 56.6858 74.6045 56.5314 75.3233C56.5314 75.3233 56.7689 77.1734 55.7177 77.409C55.7177 77.409 55.0704 77.1734 54.7497 76.2896C54.7437 76.2955 53.6925 75.7416 53.6094 77.5799Z" fill="black"/>
<path d="M71.4615 75.4179C71.4615 75.4179 68.3969 75.1763 68.3197 78.464C68.3197 78.464 67.9871 80.7148 71.3843 82.1583C71.3843 82.1583 73.8905 83.3544 73.7242 84.8746C73.7242 84.8746 73.4035 87.6025 70.7369 86.2415C70.7369 86.2415 69.4481 85.5993 69.5313 84.8746C69.5313 84.8746 69.1215 83.9908 68.6345 84.1557C68.6345 84.1557 68.0643 84.3148 68.3197 86.9603C68.3197 86.9603 68.3197 88.0032 69.5313 86.9603L70.1668 87.1253C70.1668 87.1253 72.3523 88.887 74.2053 86.7187C74.2053 86.7187 76.2305 84.8745 74.7695 82.6356C74.7695 82.6356 73.7183 81.0389 71.8653 80.2316C71.8653 80.2316 70.0895 79.4244 69.6857 78.0634C69.6857 78.0634 70.2499 75.6536 72.4295 76.938C72.4295 76.938 73.2372 77.8984 73.7242 78.0634C73.7242 78.0634 74.3716 78.0634 74.2053 76.614L74.0568 75.4179C74.0568 75.4179 73.8965 74.5282 72.7562 75.4179C72.7562 75.4179 71.705 75.8126 71.4615 75.4179Z" fill="black"/>
<path d="M60.3206 79.018C60.2374 79.4186 59.6673 81.6635 59.6673 81.6635L60.1543 82.4707C60.1543 82.4707 61.449 82.5414 61.93 82.5414C62.4111 82.5414 62.4942 82.1466 62.4942 81.7401C62.4942 81.3453 61.6034 78.9414 61.6034 78.9414L61.1936 78.4583L60.3206 79.018ZM61.6093 73.727C62.1735 74.1335 62.2567 74.9348 62.2567 74.9348C63.8721 79.183 65.2499 85.3578 65.2499 85.3578C65.6538 86.1532 66.3784 86.7954 66.3784 86.7954C67.7503 87.2727 66.3784 87.6733 66.3784 87.6733C65.8141 87.9149 63.9552 87.6026 63.9552 87.6026C62.9812 87.4317 63.3792 87.1195 63.3792 87.1195C63.7889 86.7188 63.4623 85.1103 63.4623 85.1103C63.3792 84.474 62.6546 83.4311 62.6546 83.4311C62.3339 83.272 61.7637 83.9908 61.7637 83.9908C61.7637 83.9908 60.8788 84.3149 60.7897 83.9908C60.7066 83.6668 60.1424 83.3604 60.1424 83.3604C59.1743 83.3604 58.7705 85.7525 58.7705 85.7525C59.3347 87.7558 58.7705 87.4318 58.7705 87.4318C58.2894 88.0799 56.7512 87.6026 56.7512 87.6026C56.0266 87.4317 56.5137 86.872 56.5137 86.872C57.3986 86.7188 57.6361 85.7525 57.6361 85.7525C58.04 85.1928 60.6234 74.7758 60.6234 74.7758C60.8848 74.2867 61.0451 73.3263 61.6093 73.727Z" fill="black"/>
<path d="M39.7259 54.3181C39.7259 54.3181 38.8351 57.1286 34.8738 54.2356L21.3031 53.9116C21.3031 53.9116 19.5274 54.4772 19.2839 52.633C19.2839 52.633 19.6105 48.9505 19.4383 48.6265C19.4383 48.6265 19.5273 47.5836 17.7456 47.5836C17.7456 47.5836 15.0018 47.9135 14.9246 45.5037C14.9246 45.5037 14.4376 42.9289 18.2326 43.0173C18.2326 43.0173 19.4383 43.577 19.5274 42.051C19.5274 42.051 19.367 31.634 19.4383 30.8268C19.4383 30.8268 19.7708 29.8723 17.9119 29.7132C17.9119 29.7132 15.2453 30.2729 14.9246 28.5053C14.9246 28.5053 14.7583 25.8657 16.5341 25.7007C16.5341 25.7007 18.7137 25.8657 19.1235 25.3119C19.1235 25.3119 19.6105 25.6241 19.5274 23.6975L19.6105 20.4156C19.6105 20.4156 19.854 19.5318 21.22 19.6143C21.22 19.6143 23.7322 19.7734 24.0588 19.5318C24.0588 19.5318 24.623 18.813 24.7774 18.4889C24.7774 18.4889 26.0781 18.4124 26.3216 18.7246C26.3216 18.7246 28.2577 20.015 35.6161 19.5318C35.6161 19.5318 36.7386 19.5318 36.9821 19.8559C36.9821 19.8559 38.354 20.8988 39.1617 19.7734C39.1617 19.7734 40.3733 19.5318 44.0139 19.6143C44.0139 19.6143 47.9634 20.6572 50.7191 18.4124L51.604 18.5773C51.604 18.5773 52.7324 20.4156 53.552 19.8559C53.552 19.8559 55.9751 19.6143 56.379 20.0975C56.379 20.0975 57.1867 21.2994 56.7769 24.4281C56.7769 24.4281 56.2958 25.7891 58.6358 25.7891C58.6358 25.7891 61.3024 25.3119 60.9817 27.7865C60.9817 27.7865 61.7122 30.5911 57.2639 30.1963C57.2639 30.1963 56.6937 30.9976 56.7709 31.5574C56.7709 31.5574 56.6937 40.69 56.6106 41.7387C56.6106 41.7387 56.5334 43.1705 58.4695 43.0998C58.4695 43.0998 61.053 42.9289 61.1361 45.2621C61.1361 45.2621 61.4568 48.3083 57.7449 47.7427C57.7449 47.7427 56.6106 47.9076 56.4443 48.6265L56.2839 52.633C56.2839 52.633 56.3671 54.6363 54.0984 54.159C53.7777 54.159 41.5017 54.3947 40.4505 54.0824C40.4505 54.0824 39.8863 54.0058 39.7259 54.3181Z" fill="black"/>
<path d="M39.724 54.3245C39.724 54.3245 38.8332 57.1349 34.8718 54.242L21.2953 53.9179C21.2953 53.9179 19.5195 54.4835 19.276 52.6335C19.276 52.6335 19.6026 48.951 19.4363 48.6269C19.4363 48.6269 19.5195 47.584 17.7378 47.584C17.7378 47.584 14.994 47.914 14.9167 45.5042C14.9167 45.5042 14.4297 42.9294 18.2307 43.0177C18.2307 43.0177 19.4363 43.5775 19.5195 42.0573C19.5195 42.0573 19.3591 31.6344 19.4363 30.8272C19.4363 30.8272 19.7689 29.8727 17.9041 29.7136C17.9041 29.7136 15.2375 30.2734 14.9167 28.5058C14.9167 28.5058 14.7505 25.8662 16.5322 25.7071C16.5322 25.7071 18.7118 25.8662 19.1216 25.3123C19.1216 25.3123 19.6086 25.6246 19.5254 23.7038L19.6086 20.4161C19.6086 20.4161 19.8521 19.5323 21.218 19.6207C21.218 19.6207 23.7302 19.7739 24.051 19.5382C24.051 19.5382 24.6152 18.8252 24.7696 18.4953C24.7696 18.4953 26.0702 18.4187 26.3137 18.731C26.3137 18.731 28.2439 20.0213 35.6083 19.5323C35.6083 19.5323 36.7308 19.5323 36.9743 19.8563C36.9743 19.8563 38.3462 20.8992 39.1539 19.7739C39.1539 19.7739 40.3654 19.5323 44.0061 19.6207C44.0061 19.6207 47.9614 20.6577 50.7112 18.4187L51.6021 18.5837C51.6021 18.5837 52.7305 20.422 53.5441 19.8622C53.5441 19.8622 55.9672 19.6207 56.377 20.1038C56.377 20.1038 57.1847 21.3058 56.7749 24.4344C56.7749 24.4344 56.2939 25.8014 58.6339 25.8014C58.6339 25.8014 61.3005 25.3182 60.9798 27.7987C60.9798 27.7987 61.7103 30.6092 57.2679 30.2086C57.2679 30.2086 56.6977 31.0099 56.7749 31.5755C56.7749 31.5755 56.6918 40.7081 56.6146 41.7569C56.6146 41.7569 56.5314 43.1945 58.4735 43.1238C58.4735 43.1238 61.057 42.9529 61.1401 45.2862C61.1401 45.2862 61.4608 48.3264 57.7489 47.7608C57.7489 47.7608 56.6205 47.9317 56.4542 48.6446L56.2939 52.6511C56.2939 52.6511 56.383 54.6603 54.1083 54.1831C53.7876 54.1831 41.5117 54.4187 40.4545 54.1006C40.4486 54.0829 39.8844 54.0063 39.724 54.3245Z" stroke="black" stroke-width="0.01"/>
<path d="M24.447 21.3001C24.447 21.3001 24.6073 22.9027 24.6073 23.3034C24.6073 23.704 24.3579 46.4707 24.3579 46.4707C24.3579 46.4707 24.6073 48.2383 23.0632 49.1162C23.0632 49.1162 22.6593 49.2812 22.5762 48.1617L22.7425 24.1165C22.7543 24.1106 22.9147 21.141 24.447 21.3001Z" fill="white"/>
<path d="M24.4527 21.3001C24.4527 21.3001 24.6131 22.9027 24.6131 23.3034C24.6131 23.704 24.3696 46.4707 24.3696 46.4707C24.3696 46.4707 24.6131 48.2383 23.0749 49.1221C23.0749 49.1221 22.671 49.2812 22.5879 48.1617L22.7482 24.1106C22.7482 24.1106 22.9086 21.141 24.4527 21.3001Z" stroke="black" stroke-width="0.012"/>
<path d="M21.7827 49.3516C21.7827 49.3516 21.943 26.7499 21.8658 26.3434C21.7827 25.9486 21.943 26.6674 21.943 26.6674C21.943 26.6674 21.7055 22.7434 22.7567 21.1349C22.7567 21.1349 22.43 19.7738 20.5711 21.453L20.4999 24.7467C20.4999 24.7467 20.4999 26.5909 18.7954 26.5084C18.7954 26.5084 16.8533 26.4259 15.9624 27.3097C15.9624 27.3097 15.4814 29.0714 17.3344 28.7532C17.3344 28.7532 20.2445 28.7532 20.4048 29.9493L20.2504 42.0573C20.2504 42.0573 20.8978 44.0606 18.635 44.0606C18.635 44.0606 15.8912 43.9074 15.9684 45.5925C15.9684 45.5925 16.5326 47.036 18.8844 46.5529C18.8844 46.5529 20.5771 46.877 20.5058 48.4678V51.5198C20.5058 51.5198 20.3336 52.7218 21.949 52.7984H34.5575C34.5575 52.7984 35.2049 52.8809 35.2049 52.0737C35.2049 52.0737 35.1217 51.4432 34.1596 51.4432L23.6594 51.2783C23.6475 51.2783 21.943 51.838 21.7827 49.3516Z" fill="white"/>
<path d="M23.9684 49.5165C23.9684 49.5165 23.6477 50.6419 24.8533 50.3944H33.1738L35.4366 50.8717C35.4366 50.8717 37.7885 50.3119 35.4366 49.0275C35.4366 49.0275 28.001 49.1159 27.3536 48.9509C27.3536 48.9509 25.8213 48.5502 25.4947 48.4677C25.5006 48.4736 24.6929 48.1555 23.9684 49.5165Z" fill="white"/>
<path d="M23.9625 49.5108C23.9625 49.5108 23.6418 50.6421 24.8474 50.3887H33.1739L35.4367 50.8718C35.4367 50.8718 37.7885 50.3121 35.4367 49.0276C35.4367 49.0276 28.001 49.116 27.3537 48.9452C27.3537 48.9452 25.8214 48.5445 25.4948 48.4679C25.5007 48.4738 24.6871 48.1497 23.9625 49.5108Z" stroke="black" stroke-width="0.012"/>
<path d="M37.7806 50.6418C37.7806 50.6418 36.2424 50.6418 36.3255 52.6333C36.3255 52.6333 36.4859 54.1652 38.1013 54.1652C38.1013 54.1652 39.5563 53.9178 39.4019 52.321C39.396 52.321 38.5051 50.3119 37.7806 50.6418Z" fill="white"/>
<path d="M38.9112 49.8345C38.9112 49.8345 39.6358 49.0332 40.1228 49.0332C40.1228 49.0332 48.1998 49.7579 49.5717 48.7976C49.5717 48.7976 50.7892 48.556 51.104 48.7976C51.104 48.7976 52.3156 49.7579 52.3156 50.3177C52.3156 50.3177 52.2383 51.0483 50.7892 50.6476C50.7892 50.6476 41.6491 50.7242 41.174 50.7242C41.174 50.7183 38.6677 51.2781 38.9112 49.8345Z" fill="white"/>
<path d="M38.9112 49.8345C38.9112 49.8345 39.6358 49.0332 40.1228 49.0332C40.1228 49.0332 48.1998 49.7579 49.5777 48.7976C49.5777 48.7976 50.7952 48.556 51.1159 48.7976C51.1159 48.7976 52.3274 49.7579 52.3274 50.3177C52.3274 50.3177 52.2502 51.0483 50.8011 50.6417C50.8011 50.6417 41.661 50.7183 41.1799 50.7183C41.174 50.7183 38.6677 51.2781 38.9112 49.8345Z" stroke="black" stroke-width="0.012"/>
<path d="M40.2031 52.2388C40.2031 52.2388 40.2031 51.6025 41.3256 51.6025L52.6454 51.52C52.6454 51.52 53.6906 52.0738 53.6906 50.1589C53.6906 50.1589 54.1064 41.4211 54.142 31.7995C54.1598 28.936 54.2845 25.9311 54.1717 23.1501C54.1717 23.1501 53.9282 21.9481 53.6075 21.7065C53.6075 21.7065 53.6075 20.4221 54.9853 20.9111C54.9853 20.9111 56.191 20.9877 55.8703 22.826L55.9475 25.6306C55.9475 25.6306 55.704 26.8326 57.8895 26.5144C57.8895 26.5144 60.0691 26.8326 60.1464 27.6339C60.1464 27.6339 60.7996 29.2424 58.2162 29.0774H56.3573C56.3573 29.0774 55.5496 29.5547 55.7871 30.5209L55.5436 42.1399C55.5436 42.1399 55.3773 44.1432 57.3194 44.0725C57.3194 44.0725 59.3386 43.99 59.7366 44.6264C59.7366 44.6264 61.1144 46.6296 58.1211 46.4705C58.1211 46.4705 56.2622 46.3881 55.8584 46.7062C55.8584 46.7062 55.5377 47.1128 55.2942 50.8778C55.2942 50.8778 55.4545 53.1226 53.756 52.881C53.756 52.881 42.5253 53.0401 41.48 52.7985C41.4978 52.7985 40.3635 53.1226 40.2031 52.2388Z" fill="white"/>
<path d="M25.6599 20.5748L25.4224 46.3051C25.4224 46.3051 25.3392 47.5012 27.3585 47.7428C27.3585 47.7428 29.7044 47.9843 30.2686 47.7428C30.2686 47.7428 31.8009 47.6662 35.7622 47.8253C35.7622 47.8253 36.7302 48.7798 36.8134 47.5837C36.8134 47.5837 37.4607 26.7378 37.14 22.4131C37.14 22.4131 37.0628 20.5689 35.685 20.4923C35.685 20.4923 29.55 20.9696 28.9858 20.4923L26.5626 19.8501C26.5508 19.8501 25.5768 19.9267 25.6599 20.5748Z" fill="white"/>
<path d="M51.2686 21.5352L51.1914 46.8648C51.1914 46.8648 51.8388 49.1156 52.8959 48.874C52.8959 48.874 53.0563 48.3909 53.1335 47.5837L53.4601 23.456C53.4601 23.456 52.6465 19.6085 51.2686 21.5352Z" fill="white"/>
<path d="M51.2686 21.5352L51.1914 46.8648C51.1914 46.8648 51.8388 49.1156 52.8959 48.874C52.8959 48.874 53.0563 48.3909 53.1335 47.5837L53.4601 23.456C53.4601 23.456 52.6465 19.6085 51.2686 21.5352Z" stroke="black" stroke-width="0.012"/>
<path d="M51.2686 21.5352L51.1914 46.8648C51.1914 46.8648 51.8388 49.1156 52.8959 48.874C52.8959 48.874 53.0563 48.3909 53.1335 47.5837L53.4601 23.456C53.4601 23.456 52.6465 19.6085 51.2686 21.5352Z" stroke="black" stroke-width="0.012"/>
<path d="M38.4286 21.7537C38.4286 21.7537 38.1851 33.8559 38.2623 34.2624L38.1079 44.4438L37.7812 47.9613C37.7812 47.9613 38.2623 48.6919 38.6662 48.2088C38.6662 48.2088 41.2556 47.5724 42.871 47.8081C42.871 47.8081 48.0439 48.2912 49.0891 47.4899C49.0891 47.4899 49.8968 47.8906 50.1403 46.6061C50.1403 46.6061 50.4611 24.1695 50.3007 23.7629C50.3007 23.7629 50.6273 20.5577 50.4611 20.2454C50.4611 20.2454 50.3779 19.5148 49.0119 20.157C49.0119 20.157 49.1663 20.8051 41.4991 20.5636C41.4991 20.5577 38.589 20.4693 38.4286 21.7537Z" fill="white"/>
<path d="M35.9338 29.1654L35.2033 30.6973C35.2033 30.6973 33.4334 38.4688 32.4654 40.0656C32.4654 40.0656 32.305 41.6741 30.9272 40.3896C30.9272 40.3896 27.7736 30.5323 27.6132 30.2083L26.562 29.4894C26.562 29.4894 25.9265 28.6056 27.049 28.5291L30.0363 28.6056C30.0363 28.6056 31.0044 29.407 29.7156 30.2966C29.7156 30.2966 29.876 31.5752 31.5745 36.4597C31.5745 36.4597 32.0556 38.3039 32.6257 36.9428L34.2412 31.2512L33.7542 29.566C33.7542 29.566 33.2672 28.7647 33.9977 28.6881C33.9977 28.6881 35.6962 28.5291 35.9338 29.1654Z" fill="black"/>
<path d="M40.6272 30.45L40.5381 38.9462L40.3006 39.5885C40.3006 39.5885 39.4928 40.6254 40.0511 40.7079C40.0511 40.7079 39.3325 41.1911 45.2181 41.2677C45.2181 41.2677 47.4868 41.6683 46.9166 38.7813C46.9166 38.7813 46.6731 37.7384 45.8654 39.2644C45.8654 39.2644 45.6219 40.543 42.7237 40.1423C42.7237 40.1423 42.0763 39.5826 42.0763 38.9403V35.411C42.0763 35.411 41.9872 34.5272 43.3651 34.6156C43.3651 34.6156 44.8973 35.5701 45.1408 35.1695C45.1408 35.1695 45.7051 33.8909 45.1408 33.0896C45.1408 33.0896 44.4104 33.013 44.3331 33.3371C44.3331 33.3371 43.8461 34.2916 42.4742 33.7318C42.4742 33.7318 41.8269 32.4533 42.2307 31.4104C42.2307 31.4104 42.0704 29.4071 43.4423 29.5662C43.4423 29.5662 45.0577 29.8844 45.2121 30.3675C45.2121 30.3675 45.616 31.3338 46.0258 30.2084L45.616 28.8415C45.616 28.8415 45.3784 28.2817 44.9746 28.4408C44.9746 28.4408 42.2248 28.8415 41.8981 28.5174L39.7185 28.7649C39.7185 28.7649 39.3978 29.5662 40.3718 29.9668C40.3837 29.9609 40.6272 30.1259 40.6272 30.45Z" fill="black"/>
</svg>
