<svg height="56" viewBox="0 0 56 56" width="56" xmlns="http://www.w3.org/2000/svg"><path d="m56 0v56h-56v-56zm-42.6366 18.7285v16.6277c.1023.5998-.0867 1.2125-.5093 1.6505l-3.95176 4.7934v.6321h11.20536v-.6321l-3.9517-4.7934c-.4257-.4372-.6265-1.0459-.5445-1.6505v-14.3803l9.8354 21.4563h1.1416l8.448-21.4563v17.1018c0 .4565 0 .5443-.2986.8428l-3.0384 2.9498v.6321h14.7531v-.6321l-2.9331-2.8796c-.2589-.1973-.3873-.5217-.3337-.8427v-21.1578c-.0536-.3211.0748-.6454.3337-.8428l3.0034-2.8796v-.6321h-10.3975l-7.4117 18.4889-8.4304-18.4889h-10.90675v.6321l3.51265 4.2316c.3448.3108.521.7673.4742 1.2291z" fill="#fff"/></svg>