<svg fill="none" height="85" viewBox="0 0 500 85" width="500" xmlns="http://www.w3.org/2000/svg"><g fill="#000"><path d="m196.059 7.5717c.008-1.49755.46-2.95912 1.299-4.20029.837-1.24118 2.025-2.20636 3.41-2.77376 1.385-.5673977 2.909-.711594 4.377-.414397 1.467.297197 2.814 1.022467 3.87 2.084317 1.057 1.06184 1.775 2.41269 2.064 3.88207.289 1.46941.136 2.99153-.439 4.37436-.575 1.3828-1.547 2.5643-2.792 3.3955-1.246.8311-2.71 1.2747-4.208 1.2747-2.015-.011-3.942-.8189-5.364-2.2472-1.42-1.4283-2.217-3.36088-2.217-5.3753z"/><path d="m315.939 58.262c.009-1.4977.461-2.9592 1.299-4.2004s2.025-2.2063 3.411-2.7737c1.385-.5675 2.908-.7117 4.377-.4145 1.467.2972 2.814 1.0226 3.87 2.0844 1.057 1.0618 1.774 2.4126 2.063 3.8821.289 1.4694.137 2.9915-.438 4.3742-.575 1.3829-1.547 2.5645-2.793 3.3955-1.245.8313-2.709 1.2748-4.207 1.2748-2.015-.011-3.942-.8189-5.364-2.2472-1.42-1.4284-2.218-3.3608-2.218-5.3752z"/><path d="m71.3923 55.0139c-1.5663-.0387-3.1078-.3993-4.5286-1.0596-1.4205-.6603-2.6903-1.606-3.7297-2.7783-1.0394-1.1722-1.8262-2.5458-2.3116-4.0353-.4854-1.4897-.659-3.0633-.5098-4.6228-.1658-1.5623-.001-3.142.4834-4.6365.4845-1.4947 1.2777-2.8706 2.3285-4.0386 1.0507-1.1681 2.3354-2.1021 3.7705-2.7415 1.435-.6394 2.9887-.9698 4.5598-.9698s3.1246.3304 4.5598.9698c1.435.6394 2.7196 1.5734 3.7704 2.7415 1.0507 1.168 1.844 2.5439 2.3284 4.0386.4846 1.4945.6492 3.0742.4836 4.6365.1628 1.5724-.0053 3.1613-.4935 4.6649-.4881 1.5035-1.2854 2.8883-2.3407 4.0652-1.0554 1.1769-2.3452 2.1199-3.7869 2.7686-1.4416.6485-3.0028.9882-4.5836.9973zm0-36.405c-3.1548-.1158-6.2998.4183-9.2395 1.5688-2.9397 1.1507-5.6116 2.8932-7.8498 5.1196-2.2381 2.2264-3.9947 4.8892-5.1607 7.8229-1.1659 2.9336-1.7164 6.0758-1.6173 9.2311-.0991 3.1553.4514 6.2973 1.6173 9.2311 1.166 2.9337 2.9226 5.5965 5.1607 7.8229 2.2382 2.2264 4.9101 3.9689 7.8498 5.1194 2.9397 1.1507 6.0847 1.6846 9.2395 1.5689 3.1635.1271 6.3193-.3981 9.2711-1.543 2.9518-1.1448 5.6364-2.885 7.8869-5.1119 2.2503-2.2271 4.0184-4.8934 5.1942-7.8329 1.1757-2.9397 1.734-6.0899 1.64-9.2545.094-3.1646-.4643-6.3148-1.64-9.2545-1.1758-2.9397-2.9439-5.606-5.1942-7.8329-2.2505-2.2271-4.9351-3.9671-7.8869-5.1119-2.9518-1.1449-6.1076-1.6701-9.2711-1.5431z"/><path d="m181.357 43.561c-.491-.9278-1.108-1.7829-1.833-2.5409l-.416-.4583.457-.4164c.703-.7388 1.342-1.5328 1.917-2.3743l12.204-18.2025h-14.829l-9.162 14.2455c-.387.4195-.869.7404-1.406.9359-.536.1957-1.111.2603-1.677.1887h-2.083v-26.90796c0-5.37327-3.332-6.12303-6.956-6.12303h-6.29v63.52119h13.121v-19.0355h1.249c1.5 0 2.5 0 3 .9996l7.248 13.7038c.664 1.459 1.792 2.6579 3.209 3.4108 1.415.753 3.04 1.0183 4.621.7547h10.08l-7.497-12.496-4.957-9.4553"/><path d="m245.128 18.5267c-2.482-.0596-4.949.3985-7.244 1.3452-2.294.9465-4.367 2.361-6.085 4.1532l-.792.9162-.291-1.0829c-.43-1.3672-1.332-2.537-2.547-3.3-1.212-.7631-2.657-1.0697-4.076-.8654h-5.915v45.8186h13.038v-21.2432c-.023-1.8658.257-3.7229.832-5.4982.616-2.3315 2-4.3878 3.925-5.8385 1.927-1.4505 4.286-2.211 6.696-2.1588 4.167 0 5.667 2.1659 5.667 7.7058v19.7852c-.15.9477-.074 1.9171.222 2.8296.297.9123.806 1.7415 1.484 2.4199.677.6783 1.508 1.1866 2.42 1.4833.912.2965 1.882.373 2.829.2234h6.206v-29.1573c0-11.5796-5.623-17.7027-16.328-17.7027"/><path d="m203.809 19.5685h-6.164v45.8601h12.995v-38.904c.147-.9397.071-1.9005-.221-2.8055-.293-.9049-.793-1.7287-1.462-2.4051-.668-.6764-1.485-1.1867-2.387-1.4899-.901-.3031-1.861-.3907-2.803-.2556"/><path d="m122.627 55.0139c-1.566-.0387-3.107-.3993-4.528-1.0596s-2.691-1.606-3.73-2.7783c-1.039-1.1722-1.826-2.5458-2.312-4.0353-.485-1.4897-.658-3.0633-.509-4.6228-.218-1.591-.093-3.2103.367-4.7488.46-1.5386 1.244-2.9608 2.3-4.171 1.055-1.2101 2.358-2.1802 3.82-2.8448 1.462-.6648 3.049-1.0087 4.655-1.0087s3.193.3439 4.655 1.0087c1.462.6646 2.764 1.6347 3.82 2.8448 1.055 1.2102 1.84 2.6324 2.3 4.171.46 1.5385.585 3.1578.367 4.7488.163 1.5724-.005 3.1613-.493 4.6649-.488 1.5035-1.286 2.8883-2.341 4.0652s-2.345 2.1199-3.787 2.7686c-1.442.6485-3.003.9882-4.584.9973zm0-36.405c-3.158-.1216-6.307.4082-9.252 1.556-2.945 1.148-5.622 2.8897-7.864 5.1168-2.243 2.2269-4.003 4.8917-5.172 7.8282-1.1684 2.9367-1.7201 6.0824-1.6206 9.2414-.0995 3.159.4522 6.3046 1.6206 9.2412 1.169 2.9367 2.929 5.6015 5.172 7.8284 2.242 2.2271 4.919 3.9688 7.864 5.1166 2.945 1.148 6.094 1.6777 9.252 1.5561 3.164.1271 6.32-.3981 9.272-1.543 2.951-1.1448 5.636-2.885 7.886-5.1119 2.251-2.2271 4.019-4.8934 5.195-7.8329 1.175-2.9397 1.734-6.0899 1.64-9.2545.094-3.1646-.465-6.3148-1.64-9.2545-1.176-2.9397-2.944-5.606-5.195-7.8329-2.25-2.2271-4.935-3.9671-7.886-5.1119-2.952-1.1449-6.108-1.6701-9.272-1.5431z"/><path d="m402.369 55.0139c-1.566-.0387-3.108-.3993-4.528-1.0596-1.422-.6603-2.691-1.606-3.731-2.7783-1.038-1.1722-1.825-2.5458-2.31-4.0353-.487-1.4897-.66-3.0633-.51-4.6228-.22-1.591-.093-3.2103.367-4.7488.46-1.5386 1.244-2.9608 2.299-4.171 1.056-1.2101 2.358-2.1802 3.82-2.8448 1.462-.6648 3.05-1.0087 4.655-1.0087 1.606 0 3.194.3439 4.656 1.0087 1.462.6646 2.764 1.6347 3.819 2.8448 1.056 1.2102 1.84 2.6324 2.301 4.171.46 1.5385.584 3.1578.367 4.7488.162 1.5724-.005 3.1613-.494 4.6649-.488 1.5035-1.285 2.8882-2.34 4.0652-1.057 1.1769-2.346 2.1199-3.788 2.7686-1.441.6485-3.003.9882-4.583.9973zm0-36.405c-3.159-.1216-6.307.4082-9.252 1.556-2.945 1.148-5.621 2.8897-7.866 5.1168-2.242 2.2269-4.001 4.8917-5.171 7.8282-1.167 2.9367-1.719 6.0824-1.619 9.2414 0 6.352 2.523 12.444 7.015 16.9355 4.491 4.4917 10.583 7.015 16.935 7.015s12.443-2.5233 16.935-7.015c4.492-4.4915 7.015-10.5835 7.015-16.9355.095-3.1646-.463-6.3148-1.64-9.2545-1.176-2.9397-2.943-5.606-5.194-7.8329-2.251-2.2271-4.935-3.9671-7.887-5.1119-2.952-1.1449-6.108-1.6701-9.271-1.5431z"/><path d="m288.99 53.0147c-7.122 0-9.663-6.248-9.663-12.0794 0-2.5826.666-10.9548 8.997-10.9548 4.166 0 9.664 1.208 9.664 11.4129 0 10.205-4.874 11.663-8.998 11.663zm15.746-33.5726c-1.062-.0826-2.125.1354-3.069.6289-.941.4937-1.727 1.2429-2.264 2.162l-.373.7081-.627-.5415c-3.347-2.8208-7.619-4.3043-11.995-4.1653-12.204 0-20.41 9.1636-20.41 22.8259s8.331 23.2008 20.826 23.2008c3.583.1645 7.118-.8767 10.039-2.9574l.999-.7497v1.2912c0 6.1231-3.957 9.497-11.121 9.497-3-.0365-5.974-.586-8.789-1.6246-.525-.2601-1.103-.3977-1.69-.4018-.588-.0042-1.168.1249-1.696.3777-.53.2527-.995.6225-1.36 1.0813-.367.4586-.623.9945-.751 1.5671l-1.042 2.5825-1.458 3.7487.917.4998c4.938 2.5319 10.402 3.8728 15.952 3.9155 11.123 0 24.076-5.7065 24.076-21.743v-41.9032z"/><path d="m22.7842 54.5146h-10.6215v-12.9125c0-2.7074 1.0414-4.1654 3.3739-4.4569h7.2476c1.1269-.0563 2.2528.1277 3.303.5398 1.0503.412 2.0008 1.0427 2.7887 1.8504.7879.8074 1.3949 1.7734 1.7809 2.8335.3861 1.06.5422 2.1902.4581 3.3151.1037 1.1333-.0383 2.2756-.4161 3.349-.3779 1.0735-.9829 2.0527-1.7736 2.871-.7906.8184-1.7486 1.4566-2.8083 1.8712-1.0598.4147-2.1965.5957-3.3327.5311zm-10.6215-34.3223v-3.3322c0-2.9157 1.2496-4.1653 3.9571-4.4986h5.4149c1.0146-.1156 2.0424-.0037 3.0083.3276.966.3313 1.8459.8737 2.5759 1.5878.7301.7141 1.2919 1.5819 1.6444 2.5404.3526.9583.4872 1.9832.394 3.0001.0914 1.0135-.0367 2.0347-.3756 2.9942-.3387.9595-.8804 1.8347-1.588 2.566-.7075.7314-1.5645 1.3015-2.5121 1.6717-.9479.3703-1.9643.5319-2.9803.4739h-9.5386zm24.2006 12.4961-1.9161-1.0831 1.6661-1.4161c1.6694-1.4709 2.9995-3.2867 3.8983-5.3219.899-2.0353 1.3454-4.2414 1.3083-6.466 0-10.12176-7.7475-16.45306-19.702-16.45306h-15.2033c-1.71669.0644-3.34221.7892-4.53737 2.02317-1.195187 1.23399-1.8677005 2.88183-1.87723 4.59969v56.6483h21.9096c13.2874 0 21.868-7.2477 21.868-18.494.1069-2.7611-.5283-5.5003-1.8396-7.9326-1.3113-2.4322-3.2508-4.4682-5.6164-5.8963z"/><path d="m484.635 18.6922c-2.684.0189-5.332.6385-7.745 1.8132-2.416 1.175-4.537 2.8751-6.208 4.9763l-.959 1.208-.749-1.3329c-1.216-2.2004-3.043-4.0012-5.26-5.1841-2.218-1.1829-4.731-1.6972-7.236-1.4805-2.269.035-4.509.5333-6.578 1.4646-2.07.931-3.927 2.2754-5.461 3.9503l-1.249 1.3329-.458-1.7493c-.427-1.304-1.299-2.4157-2.465-3.1394-1.166-.7238-2.55-1.0133-3.907-.8178h-5.499v45.8186h12.495v-20.2852c.01-1.7973.233-3.5874.668-5.3316 1.208-4.8734 4.457-10.1217 9.955-9.5802 3.374.3332 5.04 2.9573 5.04 7.9973v27.0746h12.495v-20.1601c-.043-1.858.196-3.7118.71-5.4982.308-2.4373 1.438-4.6968 3.202-6.4073 1.764-1.7106 4.057-2.7707 6.502-3.0063 3.832 0 5.249 2.166 5.249 8.039v20.4102c0 4.6234 2.04 6.6644 6.664 6.6644h5.999v-29.1571c0-11.663-5.125-17.5778-15.205-17.5778"/><path d="m371.256 49.5581c-3.321 3.3748-7.771 5.4065-12.497 5.7065-1.721.1201-3.449-.1266-5.068-.7233-1.62-.5966-3.093-1.5302-4.326-2.7387-1.232-1.2084-2.194-2.6644-2.822-4.2719s-.907-3.3299-.821-5.0537c-.124-1.6938.11-3.395.688-4.9921.578-1.5974 1.487-3.0547 2.666-4.2771 1.178-1.2224 2.603-2.1826 4.178-2.8175 1.575-.6348 3.267-.9305 4.963-.8674 2.334 0 4.999.8331 5.416 2.2493v.25c.267.9753.848 1.8351 1.654 2.4454.806.6101 1.792.9367 2.802.9284h6.791v-5.9563c0-7.8725-9.997-10.7465-16.663-10.7465-3.241-.1956-6.486.2807-9.536 1.3988-3.048 1.1179-5.832 2.8538-8.18 5.0985-2.345 2.2447-4.204 4.95-5.455 7.9462-1.252 2.9962-1.872 6.2186-1.82 9.4654-.078 3.2254.51 6.4324 1.727 9.4205 1.218 2.9878 3.038 5.6923 5.349 7.9443 2.311 2.2518 5.061 4.0028 8.08 5.1432 3.018 1.1404 6.239 1.6457 9.462 1.4842 3.598.0228 7.161-.7066 10.46-2.1412 3.299-1.4345 6.262-3.5427 8.699-6.1895l.375-.4581-5.415-8.9971z"/></g></svg>