<svg width="961" height="961" viewBox="0 0 961 961" fill="none" xmlns="http://www.w3.org/2000/svg">
<path opacity="0.25" d="M495.696 0C408.552 46.8227 349.306 138.805 349.306 244.648C349.306 344.215 401.748 431.51 480.475 480.5C567.619 433.677 626.865 341.695 626.865 235.852C626.865 136.285 574.448 48.99 495.696 0Z" fill="#FFED00"/>
<path opacity="0.25" d="M412.03 4.66205C334.362 65.8995 291.974 166.778 310.346 271.007C327.633 369.063 394.44 445.925 480.475 480.5C558.143 419.262 600.53 318.384 582.159 214.155C564.872 116.099 498.09 39.2121 412.03 4.66205Z" fill="#F5D600"/>
<path opacity="0.25" d="M330.43 23.7893C264.556 97.5767 240.363 204.301 276.552 303.743C310.598 397.288 389.727 461.398 480.475 480.5C546.349 406.713 570.542 299.988 534.354 200.546C500.333 106.977 421.203 42.8662 330.43 23.7893Z" fill="#EBA700"/>
<path opacity="0.25" d="M253.417 56.777C201.353 140.897 196.061 250.167 248.957 341.846C298.728 428.058 387.787 477.451 480.475 480.5C532.514 396.38 537.832 287.085 484.91 195.431C435.164 109.194 346.105 59.8263 253.417 56.777Z" fill="#E89100"/>
<path opacity="0.25" d="M183.285 102.642C146.643 194.523 160.378 303.062 228.419 384.158C292.429 460.415 388.695 493.604 480.501 480.5C517.143 388.618 503.408 280.079 435.367 198.984C371.382 122.727 275.091 89.5377 183.285 102.642Z" fill="#E47D08"/>
<path opacity="0.25" d="M122.198 159.999C102.063 256.845 134.445 361.351 215.516 429.393C291.773 493.377 392.374 509.355 480.5 480.5C500.636 383.654 468.253 279.147 387.182 211.105C310.9 147.096 210.325 131.144 122.198 159.999Z" fill="#009640"/>
<path opacity="0.25" d="M71.9733 227.083C68.9492 325.945 118.998 423.244 210.652 476.166C296.863 525.937 398.699 524.198 480.5 480.475C483.524 381.613 433.476 284.288 341.821 231.367C255.585 181.621 153.774 183.385 71.9733 227.083Z" fill="#00853E"/>
<path opacity="0.25" d="M34.1719 301.878C48.3598 399.757 114.537 486.901 214.003 523.089C307.548 557.135 407.519 537.731 480.5 480.5C466.312 382.621 400.11 295.477 300.668 259.264C207.098 225.218 107.128 244.622 34.1719 301.878Z" fill="#00733C"/>
<path opacity="0.25" d="M9.92969 382.092C40.9012 476.039 121.216 550.356 225.445 568.727C323.501 586.015 418.583 549.55 480.475 480.5C449.504 386.552 369.19 312.235 264.96 293.864C166.929 276.577 71.8476 313.042 9.92969 382.092Z" fill="#009FE3"/>
<path opacity="0.25" d="M0 465.304C46.8227 552.423 138.805 611.669 244.648 611.669C344.215 611.669 431.51 559.252 480.5 480.5C433.677 393.356 341.695 334.11 235.852 334.11C136.285 334.11 48.9648 386.552 0 465.304Z" fill="#008CD3"/>
<path opacity="0.25" d="M4.66113 548.97C65.8986 626.638 166.777 669.026 271.006 650.629C369.062 633.342 445.924 566.56 480.499 480.5C419.262 402.832 318.384 360.444 214.129 378.841C116.098 396.103 39.2112 462.91 4.66113 548.97Z" fill="#0074BE"/>
<path opacity="0.25" d="M23.79 630.544C97.5774 696.394 204.277 720.611 303.744 684.423C397.288 650.377 461.399 571.247 480.501 480.5C406.713 414.651 299.989 390.433 200.522 426.621C106.977 460.667 42.8669 539.797 23.79 630.544Z" fill="#0052A1"/>
<path opacity="0.25" d="M56.7773 707.583C140.872 759.622 250.167 764.939 341.847 712.018C428.058 662.247 477.476 573.188 480.5 480.5C396.381 428.461 287.086 423.143 195.431 476.065C109.195 525.836 59.8266 614.895 56.7773 707.583Z" fill="#312783"/>
<path opacity="0.25" d="M102.642 777.716C194.498 814.358 303.062 800.623 384.133 732.582C460.39 668.597 493.579 572.306 480.475 480.5C388.593 443.858 280.054 457.593 198.959 525.634C122.727 589.619 89.5376 685.91 102.642 777.716Z" fill="#312978"/>
<path opacity="0.25" d="M159.999 838.802C256.819 858.938 361.352 826.555 429.393 745.484C493.403 669.227 509.355 568.652 480.5 480.5C383.654 460.365 279.147 492.747 211.106 573.818C147.096 650.075 131.144 750.676 159.999 838.802Z" fill="#312B6E"/>
<path opacity="0.25" d="M227.083 889.027C325.945 892.051 423.245 842.003 476.166 750.348C525.937 664.137 524.199 562.301 480.476 480.525C381.614 477.501 284.289 527.55 231.368 619.229C181.622 705.39 183.386 807.226 227.083 889.027Z" fill="#E6007E"/>
<path opacity="0.25" d="M301.879 926.828C399.758 912.64 486.901 846.463 523.09 746.996C557.136 653.452 537.731 553.481 480.5 480.5C382.621 494.688 295.478 560.89 259.264 660.332C225.218 753.876 244.623 853.872 301.879 926.828Z" fill="#E6005F"/>
<path opacity="0.25" d="M382.091 951.046C476.014 920.074 550.356 839.76 568.727 735.53C586.015 637.5 549.549 542.418 480.5 480.5C386.552 511.472 312.235 591.786 293.864 696.016C276.551 794.071 313.042 889.153 382.091 951.046Z" fill="#E50042"/>
<path opacity="0.25" d="M465.304 961C552.422 914.203 611.669 822.195 611.669 716.353C611.669 616.785 559.252 529.49 480.5 480.5C393.381 527.323 334.109 619.33 334.109 725.148C334.109 824.715 386.552 912.01 465.304 961Z" fill="#BE1622"/>
<path opacity="0.25" d="M548.97 956.338C626.638 895.126 669.025 794.222 650.629 689.993C633.341 591.937 566.56 515.075 480.5 480.5C402.831 541.737 360.444 642.641 378.815 746.87C396.103 844.901 462.91 921.788 548.97 956.338Z" fill="#951417"/>
<path opacity="0.25" d="M630.569 937.211C696.419 863.423 720.636 756.724 684.423 657.257C650.377 563.687 571.247 499.602 480.5 480.5C414.625 554.287 390.433 661.012 426.621 760.479C460.667 854.023 539.797 918.134 630.569 937.211Z" fill="#7B1A1C"/>
<path opacity="0.25" d="M707.583 904.223C759.623 820.129 764.94 710.834 712.019 619.154C662.247 532.942 573.188 483.549 480.501 480.5C428.461 564.62 423.144 673.915 476.065 765.569C525.836 851.781 614.895 901.174 707.583 904.223Z" fill="#E6332A"/>
<path opacity="0.25" d="M777.716 858.333C814.358 766.477 800.623 657.912 732.582 576.842C668.597 500.56 572.306 467.396 480.5 480.5C443.858 572.382 457.593 680.946 525.634 762.016C589.619 838.273 685.91 871.437 777.716 858.333Z" fill="#E73F1E"/>
<path opacity="0.25" d="M838.802 801.001C858.937 704.181 826.554 599.649 745.459 531.632C669.202 467.623 568.626 451.67 480.474 480.525C460.339 577.371 492.722 681.878 573.792 749.92C650.074 813.904 750.675 829.831 838.802 801.001Z" fill="#0296A2"/>
<path opacity="0.25" d="M889.027 733.917C892.051 635.055 842.002 537.756 750.323 484.835C664.111 435.038 562.276 436.802 480.5 480.5C477.476 579.362 527.524 676.687 619.204 729.608C705.39 779.379 807.226 777.615 889.027 733.917Z" fill="#0296A2"/>
<path opacity="0.25" d="M926.827 659.122C912.639 561.243 846.463 474.099 746.996 437.911C653.451 403.84 553.48 423.27 480.524 480.5C494.712 578.379 560.914 665.523 660.356 701.736C753.875 735.782 853.871 716.353 926.827 659.122Z" fill="#36A9E1"/>
<path opacity="0.25" d="M951.046 578.908C920.074 484.986 839.76 410.644 735.53 392.273C637.5 374.985 542.393 411.45 480.5 480.5C511.472 574.423 591.786 648.764 696.016 667.136C794.071 684.423 889.153 647.958 951.046 578.908Z" fill="#3AAA35"/>
<path opacity="0.25" d="M961 495.696C914.177 408.577 822.195 349.331 716.353 349.331C616.81 349.331 529.49 401.748 480.5 480.5C527.323 567.618 619.33 626.89 725.148 626.865C824.715 626.89 912.01 574.448 961 495.696Z" fill="#33912D"/>
<path opacity="0.25" d="M956.337 412.03C895.1 334.362 794.222 291.974 689.992 310.371C591.961 327.658 515.074 394.44 480.524 480.5C541.762 558.168 642.665 600.556 746.895 582.159C844.9 564.872 921.787 498.09 956.337 412.03Z" fill="#00A19A"/>
<path opacity="0.25" d="M937.211 330.43C863.423 264.581 756.724 240.363 657.257 276.577C563.712 310.623 499.602 389.753 480.5 480.5C554.287 546.374 661.012 570.567 760.479 534.379C854.023 500.333 918.134 421.178 937.211 330.43Z" fill="#E94E1B"/>
<path opacity="0.25" d="M904.223 253.417C820.129 201.378 710.834 196.061 619.154 248.982C532.942 298.753 483.549 387.812 480.5 480.5C564.62 532.539 673.915 537.857 765.569 484.935C851.781 435.164 901.174 346.105 904.223 253.417Z" fill="#C94515"/>
<path opacity="0.25" d="M858.333 183.284C766.477 146.642 657.913 160.377 576.842 228.418C500.585 292.403 467.396 388.694 480.5 480.5C572.382 517.142 680.946 503.407 762.016 435.366C838.273 371.381 871.463 275.09 858.333 183.284Z" fill="#FFED00"/>
<path opacity="0.25" d="M801.002 122.173C704.181 102.037 599.649 134.42 531.607 215.516C467.623 291.773 451.646 392.348 480.5 480.5C577.346 500.635 681.878 468.253 749.895 387.157C813.879 310.9 829.831 210.324 801.002 122.173Z" fill="#FFED00"/>
<path opacity="0.25" d="M733.893 71.973C635.031 68.9489 537.732 118.997 484.811 210.677C435.039 296.888 436.778 398.724 480.501 480.5C579.363 483.524 676.688 433.476 729.609 341.796C779.38 255.585 777.616 153.749 733.893 71.973Z" fill="#C90C0F"/>
<path opacity="0.25" d="M659.123 34.1721C561.243 48.3601 474.1 114.537 437.912 214.004C403.866 307.548 423.27 407.519 480.501 480.475C578.38 466.287 665.524 400.085 701.737 300.643C735.783 207.099 716.378 107.128 659.123 34.1721Z" fill="#C90C0F"/>
<path opacity="0.25" d="M578.909 9.92896C484.986 40.9005 410.644 121.215 392.273 225.445C374.986 323.475 411.451 418.582 480.5 480.475C574.448 449.503 648.765 369.189 667.136 264.959C684.424 166.929 647.959 71.8468 578.909 9.92896Z" fill="#C90C0F"/>
<path d="M480 405.764C452.974 405.764 432.704 424.678 432.704 449.452C432.704 462.508 438.106 469.722 445.32 480.086C451.179 488.197 457.936 497.645 463.795 512.513V512.971C464.253 513.868 465.15 517.933 466.047 521.522H493.531C494.428 517.915 495.326 513.868 495.783 512.971V512.513V512.056C501.185 497.646 508.399 487.74 513.801 480.068C521.015 470.162 526.417 462.948 526.417 449.434C527.296 424.696 507.027 405.763 479.999 405.763L480 405.764ZM480 331C397.566 331 330 398.106 330 481C330 563.871 397.106 631 480 631C562.871 631 630 563.894 630 481C630 398.111 562.434 331 480 331ZM480 626.036C399.818 626.036 334.504 560.723 334.504 480.541C334.504 400.358 399.818 335.045 480 335.045C560.182 335.045 625.496 400.358 625.496 480.541C625.496 560.723 560.182 626.036 480 626.036ZM480 340.009C402.07 340.009 339.009 403.07 339.009 481C339.009 558.93 402.07 621.991 480 621.991C557.93 621.991 620.991 558.93 620.991 481C620.991 403.07 557.93 340.009 480 340.009ZM495.308 569.732H464.235C460.188 569.732 457.021 566.582 457.021 562.517C457.021 558.47 460.17 555.303 464.235 555.303H495.308C499.355 555.303 502.522 558.453 502.522 562.517C502.522 566.582 499.372 569.732 495.308 569.732ZM495.308 553.069H464.235C460.188 553.069 457.021 549.919 457.021 545.855C457.021 541.808 460.17 538.641 464.235 538.641H495.308C499.355 538.641 502.522 541.79 502.522 545.855C502.522 549.902 499.372 553.069 495.308 553.069ZM526.398 488.197C520.997 495.851 514.68 504.42 509.736 517.018C509.278 518.813 507.026 526.484 506.586 529.634C506.129 532.783 502.979 535.493 499.372 535.493H460.627C457.02 535.493 454.328 533.241 453.413 529.634C452.955 526.484 450.703 518.373 450.263 517.018C445.301 504.402 439.46 495.851 434.04 488.197C426.387 477.394 418.733 467.03 418.733 449.452C418.733 416.567 445.301 391.355 480.001 391.355C515.139 391.355 541.27 416.129 541.27 449.452C541.27 467.487 534.055 477.393 526.402 488.197H526.398Z" fill="white"/>
</svg>
