<?xml version="1.0" encoding="UTF-8"?>
<svg width="1468px" height="710px" viewBox="0 0 1468 710" version="1.1" xmlns="http://www.w3.org/2000/svg" xmlns:xlink="http://www.w3.org/1999/xlink">
    <!-- Generator: Sketch 51.3 (57544) - http://www.bohemiancoding.com/sketch -->
    <title>path2830</title>
    <desc>Created with Sketch.</desc>
    <defs></defs>
    <g id="Page-1" stroke="none" stroke-width="1" fill="none" fill-rule="evenodd">
        <g id="world-map" transform="translate(-1.000000, 0.000000)" fill="#BDBDBD" fill-rule="nonzero">
            <path d="M361.959789,700.61916 C362.619997,698.88266 363.888149,697.46196 364.777897,697.46196 C365.66766,697.46196 369.56245,699.50876 373.43301,702.01036 C377.30356,704.51206 382.03644,707.12756 383.95049,707.82256 L387.4306,709.08616 L383.14922,709.17916 C380.79446,709.23016 377.33982,709.49396 375.47225,709.76476 C373.60468,710.03556 370.33774,709.60636 368.21239,708.81096 C362.212751,706.56596 360.534708,704.36746 361.959789,700.61916 Z M350.410019,696.81326 C348.933821,697.28176 347.793945,696.58386 346.701537,694.54276 C345.834087,692.92186 344.27936,691.30506 343.246583,690.94986 C340.877011,690.13486 335.909979,682.08746 333.145268,674.58415 C331.748969,670.79468 329.871148,668.17516 327.641982,666.90718 C323.686278,664.65715 323.403104,663.63669 326.464772,662.66495 C329.967524,661.55323 330.619215,655.37833 327.6708,651.23767 C326.2636,649.26143 325.523104,646.94098 325.947073,645.83611 C326.447387,644.53233 325.066537,642.24458 321.722982,638.83774 C317.502623,634.53752 316.722183,632.97431 316.533424,628.44324 C316.411231,625.51004 315.697048,622.37008 314.946359,621.46556 C314.000699,620.32611 313.807818,616.23636 314.318372,608.15063 C314.871704,599.38767 314.549401,593.97931 313.024626,586.44119 C310.760263,575.24667 309.603652,554.38906 310.192026,535.35984 C310.317562,531.29991 309.79136,525.72595 309.022695,522.97326 C307.150885,516.27008 298.538511,507.8087 287.894351,502.21535 C280.281257,498.21479 279.21071,497.18911 276.234705,491.04442 C274.432413,487.32316 270.987972,481.76154 268.580381,478.68526 C266.172778,475.60898 263.555169,471.09138 262.763461,468.64615 C260.250613,460.88506 255.820921,453.08684 252.801299,451.10831 C251.194439,450.05545 249.361617,447.31757 248.728362,445.0241 C247.703782,441.31337 247.97387,440.27734 251.181082,435.61583 C254.658723,430.56124 254.699718,430.35512 252.349575,429.74054 C246.574879,428.23042 249.003504,420.51188 259.36899,407.43179 C266.258229,398.73835 268.276456,392.11555 266.368045,384.46444 C265.640776,381.54872 264.989545,378.49876 264.920866,377.68678 C264.852127,376.87479 264.334393,376.21044 263.770218,376.21044 C263.206044,376.21044 263.314549,375.14516 264.01137,373.84316 C265.085023,371.83701 264.813837,371.26426 262.233727,370.08868 C258.473313,368.37533 252.795311,370.06918 252.773379,372.91096 C252.747039,376.31862 251.24845,376.56966 246.307177,373.99413 C243.660761,372.61475 240.911947,371.48615 240.198698,371.48615 C239.485437,371.48615 236.711525,369.59928 234.034437,367.29312 C231.357349,364.98695 228.502652,362.57433 227.690665,361.93173 C226.878679,361.28913 226.214326,359.53799 226.214326,358.04031 C226.214326,356.54263 225.171369,354.37339 223.89665,353.21978 C222.621919,352.06617 220.970108,349.27746 220.22595,347.02264 C219.247893,344.05911 218.515487,343.28041 217.583125,344.21277 C215.637357,346.15854 212.756475,345.78899 205.764189,342.69668 C202.108748,341.08006 198.300513,338.31921 196.779363,336.18296 C195.327259,334.14366 192.55291,331.65486 190.614146,330.65229 C187.414741,328.99781 186.614801,329.01057 181.954269,330.79045 L176.819418,332.75146 L161.06516,325.11739 C151.37434,320.42149 143.85338,315.94196 141.52387,313.47845 C137.91197,309.65878 137.7951,309.24399 138.99695,304.50909 C140.09794,300.17151 139.91098,298.82961 137.51633,293.8826 C136.00892,290.7685 132.71536,285.98538 130.19731,283.25346 C127.67926,280.52155 125.90505,277.82354 126.25464,277.25791 C126.60421,276.69229 124.83046,272.88015 122.31297,268.7865 C119.45303,264.13598 117.43464,259.1544 116.93324,255.50875 C116.29049,250.83536 115.54157,249.40554 113.17065,248.32528 C110.65743,247.18018 109.95467,247.32612 108.51565,249.29197 C106.48893,252.06069 107.06508,254.9837 111.54641,264.66785 C113.36747,268.60317 115.24943,274.43701 115.72854,277.63192 C116.20765,280.82684 117.62279,285.4464 118.8733,287.89761 C121.83528,293.70356 119.92276,293.60112 115.25187,287.70364 C112.49699,284.22533 111.75298,282.3177 112.30045,280.13634 C112.88501,277.80728 112.30945,276.68564 109.44617,274.56828 C105.1036,271.35769 104.18453,269.28658 105.77969,266.306 C106.7099,264.56788 106.28336,262.66173 103.92101,257.99985 C101.52197,253.26558 101.02019,250.97222 101.61416,247.45653 C102.58512,241.70945 100.0067,236.50789 95.19995,234.51687 C92.4247,233.36732 91.46798,232.08134 90.90252,228.74042 C90.50245,226.37668 89.73622,222.71959 89.1998,220.61353 C88.64181,218.42282 88.6824,216.50131 89.2947,216.12292 C89.8833,215.75915 89.49817,214.13875 88.43886,212.52204 C86.8787,210.14093 86.77187,209.01408 87.87646,206.58977 C88.62645,204.94373 88.90952,203.06212 88.50551,202.40842 C88.1015,201.75473 89.10828,199.8015 90.74279,198.06791 C92.3773,196.33432 94.55339,192.87689 95.57853,190.38472 C96.60368,187.89255 99.76284,183.27265 102.5989,180.11828 C105.43495,176.96389 109.03036,171.43839 110.5887,167.83937 C112.75175,162.84373 114.01964,161.29094 115.94821,161.27555 C117.33761,161.26495 118.40058,161.91975 118.31036,162.73173 C117.93438,166.11544 120.60991,165.07298 123.6151,160.66486 C125.38651,158.0665 126.34227,155.76341 125.73902,155.54688 C125.13578,155.33035 124.64221,154.35286 124.64221,153.37466 C124.64221,152.39647 122.19716,149.21981 119.20878,146.31544 C114.25224,141.49822 113.93393,140.85952 115.58208,139.03835 C116.91737,137.56286 117.07441,136.48017 116.18391,134.88894 C114.61898,132.09256 117.08838,125.83033 119.76594,125.80516 C118.98511,123.80017 118.29495,121.25849 118.50897,117.55574 C118.85079,111.64181 117.55661,109.16805 113.15977,107.33094 C110.7882,106.34003 107.16945,104.24913 105.11809,102.68448 C103.06673,101.11983 100.4641,99.83967 99.33446,99.83967 C98.20483,99.83967 93.07003,98.76461 87.92379,97.45066 C79.65005,95.33819 78.19181,95.25475 75.32575,96.72983 C69.3862,99.78674 63.09348,101.03267 60.52807,99.6597 C58.60379,98.62986 56.50381,99.26585 49.18118,103.09617 C44.2391,105.68128 38.3354,108.19752 36.06183,108.68782 C33.78827,109.17813 29.4372,110.8344 26.39278,112.36844 C17.75736,116.7197 5.38711,121.10595 1.96541,121.0299 C-0.24289,120.9808 1.25009,120.01226 7.12558,117.68229 C17.11099,113.7225 27.37147,108.5658 28.32055,107.03016 C29.48945,105.13884 26.95209,104.46021 23.90411,105.84897 C21.66002,106.87144 20.27703,106.77578 17.68747,105.41897 L14.35698,103.67395 L17.97985,101.80049 C22.07527,99.68267 23.36357,97.28662 22.42261,93.53756 C21.5113,89.90662 26.53593,87.23875 37.36028,85.60628 C43.17637,84.72913 47.59781,83.26908 50.57461,81.24265 C55.82385,77.66927 54.92203,74.96853 49.26237,77.31284 C46.58309,78.42263 44.63156,78.43477 40.6637,77.36634 C35.84171,76.06791 35.66993,75.88258 37.82676,74.30546 C41.43569,71.66655 48.89973,70.07925 53.80382,70.90779 C56.90701,71.43207 59.44892,71.06504 62.05769,69.71599 L65.82739,67.7666 L63.34587,65.12513 C61.98103,63.67232 60.86434,62.1713 60.86434,61.78952 C60.86434,60.69371 67.97445,58.50216 71.52961,58.50216 C73.3041,58.50216 78.16871,57.2176 82.33984,55.64759 C86.51098,54.07758 96.13434,51.93416 103.7251,50.88443 C116.03661,49.18187 118.64368,49.16108 127.87551,50.69182 C133.56747,51.63561 141.41342,52.76126 145.31096,53.19326 C149.2085,53.62526 156.10709,54.99649 160.64115,56.24044 C171.171644,59.12953 178.030423,59.09428 189.794699,56.0906 C194.989525,54.76424 200.239955,53.99646 201.462317,54.38442 C202.684667,54.77238 204.763022,54.51275 206.080874,53.80745 C207.896712,52.83565 209.304821,52.95321 211.895561,54.29294 C214.236303,55.50338 217.125642,55.84886 221.059531,55.38866 C225.209841,54.90315 228.843915,55.40596 234.149336,57.19989 C238.188779,58.56573 242.675091,59.68323 244.118916,59.68323 C242.261102,62.98247 242.254866,63.09495 244.311501,63.89191 C245.495466,64.35071 249.605513,64.39775 253.444917,63.99645 C260.378752,63.27172 260.438739,63.29211 262.372224,67.03105 L264.318784,70.79528 L266.845545,67.62642 C268.297554,65.80544 271.748173,63.74253 274.957983,62.77652 C279.809152,61.31653 281.281382,61.3214 286.153751,62.81352 C289.593161,63.86681 293.709645,64.25053 296.792738,63.80523 C300.718537,63.23823 302.541368,63.5914 305.10277,65.41527 C308.336402,67.71783 308.426022,67.719 311.294053,65.49627 C312.89463,64.2558 316.188225,62.6881 318.613131,62.01248 C324.418417,60.39505 326.387346,56.94846 322.901047,54.50656 C320.43563,52.77972 320.543474,52.64796 327.024061,49.46959 C331.857266,47.09916 334.033721,46.56087 334.97578,47.50292 C335.917838,48.44498 335.908271,49.48125 334.94082,51.28895 C333.291867,54.37004 335.344333,59.02723 337.916211,58.04031 C338.840777,57.68552 340.374482,57.69349 341.324441,58.05801 C342.81656,58.63058 342.792667,59.11606 341.148875,61.6248 C336.607796,68.55536 346.788492,66.59168 353.680706,59.20763 C356.482799,56.20557 360.82443,55.29538 364.893682,56.85691 C367.52173,57.86538 367.2755,58.69097 362.923407,63.46295 C357.736991,69.14976 355.082993,70.31287 347.293199,70.31287 C343.528274,70.31287 339.083771,71.1285 337.012738,72.19947 C334.145971,73.68193 332.748066,73.80522 330.486987,72.775 C326.271542,70.85432 324.804025,72.45297 327.827887,75.67172 L330.409024,78.41922 L325.259292,79.88077 C322.426941,80.68463 317.71789,81.42004 314.794738,81.51502 C310.555659,81.65276 309.478274,82.11295 309.471802,83.78867 C309.465902,85.22259 307.403851,86.73161 302.975908,88.54161 C288.628285,94.40643 276.457354,104.98088 280.863814,107.75322 C281.689465,108.27268 283.000089,110.14462 283.776313,111.91306 C284.67016,113.94953 286.393201,115.36978 288.475726,115.7867 C290.284195,116.14874 294.952735,118.01532 298.850271,119.93464 C302.747807,121.85397 307.531147,123.77182 309.479916,124.19654 C314.845063,125.36584 314.892046,125.48892 312.3933,131.82828 C310.255537,137.25182 310.212381,138.02573 311.869046,141.22937 C312.86195,143.14943 314.325026,144.70155 315.120336,144.67853 C318.990329,144.56657 322.619066,140.99497 324.873767,135.07878 C327.022798,129.43987 328.002095,128.38801 334.17023,125.09352 C343.273422,120.23134 347.058993,115.4426 346.050216,110.06536 C345.393127,106.56275 345.734433,105.7408 348.732382,103.60607 C350.62166,102.26078 353.123028,99.04098 354.290966,96.45096 C356.901595,90.66162 361.096726,88.65474 368.17054,89.81123 C374.44391,90.83685 381.86282,94.81977 382.75893,97.64317 C383.12678,98.80217 382.82133,100.88363 382.08006,102.26863 C380.95739,104.36635 381.16945,105.25208 383.35012,107.57329 L385.96787,110.35977 L390.24247,108.14393 C392.59351,106.92524 396.36169,104.54785 398.61623,102.86086 L402.7154,99.7936 L403.67843,102.39694 C404.20811,103.82878 404.35845,105.73783 404.01252,106.63928 C403.66661,107.54073 403.93562,109.30979 404.61035,110.57052 C405.36941,111.98883 405.42844,113.59302 404.76517,114.77819 C404.01736,116.11447 404.51714,118.14413 406.41803,121.49072 C409.14118,126.2849 409.14139,126.2888 406.74997,127.9638 C403.60326,130.16786 405.62217,132.50539 409.07602,130.65694 C412.50615,128.82119 416.43272,129.05992 418.85433,131.25145 C422.43397,134.49099 419.45714,138.36658 409.95567,142.83678 C399.62091,147.69902 395.01474,148.66216 381.52528,148.78149 C371.56445,148.86959 370.24541,149.18724 360.561263,153.82959 C354.877356,156.55433 350.226887,159.25121 350.226887,159.82267 C350.226887,162.2597 352.017935,162.04762 358.889244,158.79693 C362.937875,156.8816 368.15643,155.35149 370.64192,155.35097 C374.88734,155.35008 375.04219,155.4814 373.71646,157.95855 C372.94865,159.39322 371.29239,161.39952 370.03589,162.41696 C368.06057,164.01648 367.94491,164.69174 369.18143,167.4056 C371.03583,171.47557 375.87865,173.43405 381.67138,172.45663 L386.24957,171.68414 L382.72945,174.11267 C380.79339,175.44837 377.60449,176.88775 375.64302,177.31132 C373.68155,177.73489 369.65038,179.30384 366.68485,180.7979 C363.674533,182.31453 360.650245,183.11714 359.837786,182.615 C357.968658,181.45982 359.941602,179.72668 366.01428,177.18937 C371.41531,174.93267 370.55187,172.53536 364.731332,173.6273 C362.464123,174.05263 355.112401,176.8218 348.394182,179.781 C337.907944,184.39991 336.07857,185.6196 335.468074,188.39916 C334.71768,191.81568 332.157507,193.43164 323.156465,196.17013 C320.285138,197.04371 316.564763,199.15481 314.888964,200.8615 C313.213165,202.56818 310.004418,205.12348 307.758421,206.53995 C305.512424,207.95641 303.362024,210.43808 302.979758,212.05475 C302.349786,214.71901 302.203286,214.7822 301.41459,212.72978 C299.936739,208.88399 297.709934,212.64378 297.581753,219.20128 C297.450418,225.91996 294.044762,230.50297 286.575523,234.0124 C278.917538,237.61051 268.020593,246.11289 265.812721,250.21266 C263.863492,253.83217 263.781845,255.24223 264.982782,264.54553 C266.103135,273.22462 266.036263,275.40251 264.56186,278.25369 C263.460841,280.38283 262.176154,281.40059 261.107344,280.99045 C258.57313,280.01798 255.473408,269.58957 256.342145,264.95884 C256.945554,261.74236 256.545809,260.52355 254.148942,258.2718 C252.217075,256.4569 250.433846,255.76699 248.918153,256.24805 C247.652765,256.64967 244.075617,255.88796 240.964651,254.55443 C236.198259,252.51132 234.677252,252.34003 231.274218,253.46313 C228.967148,254.22454 226.674866,256.03038 225.924247,257.67782 C224.807509,260.1288 224.067874,260.44352 220.983612,259.78008 C218.988605,259.35095 215.921149,258.26664 214.167034,257.37049 C209.846662,255.16328 207.427284,255.31709 202.574508,258.10747 C200.311079,259.40896 195.692262,261.89988 192.310476,263.64286 C188.424077,265.64592 185.754289,267.92578 185.054267,269.8393 C184.44513,271.50435 182.267375,277.99495 180.214815,284.26284 L176.482876,295.65902 L178.38902,303.01509 C181.891228,316.53054 186.763892,320.5765 196.916467,318.39918 C204.570106,316.75776 209.166412,313.43178 210.856017,308.3122 C211.929045,305.06088 213.086483,303.98612 216.551145,303.02383 C221.765552,301.57557 223.943295,301.52211 225.946109,302.7932 C227.598747,303.84207 227.017672,305.56793 219.617833,321.58916 C214.540394,332.58222 214.906077,333.56555 223.604953,332.31081 C231.530216,331.16766 238.774649,332.04488 239.620899,334.25018 C239.950784,335.10985 239.414176,340.91096 238.428442,347.14152 C236.665019,358.28764 236.677692,358.53697 239.216275,362.64448 C240.635309,364.94054 243.295874,367.59457 245.128637,368.54233 C248.054435,370.05532 248.972376,370.05182 252.653646,368.51373 C258.503388,366.06956 261.680104,366.32801 265.742896,369.5787 C268.99154,372.17797 269.450859,372.25132 272.003887,370.57851 C273.519225,369.58563 275.586479,367.12488 276.597783,365.11017 C278.878137,360.56734 282.720376,357.37417 285.947878,357.3396 C287.296213,357.3252 289.647656,355.98462 291.173305,354.36065 C294.271634,351.06264 299.727276,349.98819 297.060747,353.20117 C294.822994,355.89748 293.543492,364.57007 294.985828,367.2651 C296.18673,369.50903 296.283247,369.49606 298.46856,366.7973 C300.024492,364.87581 300.338197,363.64365 299.487955,362.79341 C297.459299,360.76475 298.070102,359.07882 301.844807,356.28806 C305.763804,353.39062 308.79552,353.68802 312.177282,357.3016 C314.656836,359.95113 327.896153,363.5326 331.690523,362.58028 C337.468679,361.13006 353.081431,370.62297 358.947589,379.1532 C361.740812,383.21495 370.66419,387.3025 374.58806,386.31767 C382.65929,384.29192 393.72516,392.37877 396.31296,402.19405 C397.08365,405.1172 398.24556,407.83989 398.895,408.24448 C400.61815,409.31797 398.03702,413.55975 392.39446,418.92739 C388.78942,422.35679 387.92861,423.8332 388.94283,424.84742 C389.95706,425.86165 391.62406,424.97265 395.62711,421.28277 C401.44916,415.91619 403.39205,415.37151 406.30871,418.28817 C408.08302,420.06246 408.02854,420.42383 405.59666,423.01246 C404.14835,424.55413 402.1259,425.84917 401.10236,425.89035 C404.44673,428.04367 405.6504,427.78427 408.04475,425.84969 C414.28055,420.81131 415.74689,420.56925 421.2861,423.66388 C424.88715,425.67572 426.32941,427.20747 426.14784,428.82729 C425.64294,433.33109 426.70508,434.32841 429.82756,432.28249 C432.30932,430.65637 434.01194,430.57914 442.31533,431.71603 C451.14778,432.92536 452.30458,433.40745 456.54207,437.64493 C459.68803,440.7909 463.22684,442.85987 467.67209,444.15214 C473.64077,445.88729 474.28913,446.41648 475.37162,450.43653 C476.94112,456.26521 475.10222,462.73319 470.12882,468.87705 C468.00431,471.50156 465.40026,475.35444 464.34205,477.43901 C463.28386,479.52357 461.03348,482.6137 459.34122,484.30596 C456.47672,487.17046 456.31732,487.88699 457.03141,494.6887 C458.42644,507.97649 451.92659,532.76698 445.65757,538.06862 C443.61649,539.79475 441.86986,540.2001 438.6332,539.69885 C435.97279,539.28683 434.00344,539.55262 433.48353,540.39385 C433.02052,541.14304 430.44142,542.72342 427.75223,543.90581 C425.06305,545.08821 421.05939,547.59598 418.85523,549.47863 C415.04022,552.73716 414.91247,553.098 416.19629,556.98802 C417.67651,561.47314 416.67968,566.78362 413.50739,571.31269 C412.48176,572.77698 411.64261,575.26819 411.64261,576.84871 C411.64261,578.42922 410.41035,581.36698 408.90425,583.37707 C407.39815,585.38715 404.49284,589.98843 402.448,593.60213 C397.41723,602.49268 394.39226,604.033 387.09768,601.41855 C380.76718,599.14956 377.39153,598.87859 377.39153,600.63936 C377.39153,601.30287 378.65344,602.42071 380.19576,603.12343 C381.73809,603.82617 384.14158,606.68696 385.53688,609.48074 C387.61458,613.64096 387.83443,615.08561 386.75153,617.46233 C385.07398,621.14414 378.6593,624.23547 372.69688,624.23547 C367.41596,624.23547 366.10586,625.52711 367.9299,628.93534 C369.05581,631.03915 368.29845,634.42394 366.12113,637.01908 C365.94469,637.22937 364.095431,636.51979 362.011655,635.44223 C357.037359,632.86993 355.276393,634.50845 357.790387,639.36999 C358.812935,641.34737 360.757156,643.31676 362.1109,643.74642 C364.437588,644.48487 364.462768,644.64859 362.571152,646.7388 C361.469366,647.95625 360.897774,649.80404 361.29928,650.85035 C361.730749,651.97474 360.768435,654.40277 358.942534,656.79663 C355.974406,660.68806 355.9321,660.95786 357.83483,663.86178 C358.922881,665.52236 360.620069,667.19067 361.606358,667.56914 C365.163215,668.93403 365.75282,673.59744 363.040664,678.9137 C360.323561,684.23964 359.906584,689.57934 362.009883,692.11364 C363.92166,694.41724 357.488328,698.90524 354.595316,697.28624 C353.465605,696.65406 351.582233,696.44126 350.410019,696.81326 Z M281.308813,174.24718 C284.712744,174.24718 284.752795,174.79958 281.636195,178.7617 L279.185554,181.87718 L281.699913,183.91319 C283.725806,185.55365 284.771113,185.69547 287.080533,184.64323 C288.656969,183.92496 290.272852,182.30993 290.671381,181.05429 C291.213611,179.34587 292.09534,178.94682 294.174805,179.46873 C296.099799,179.95188 297.304952,179.53843 298.09705,178.12297 C300.496881,173.83473 294.389725,168.35048 289.89394,170.75655 C286.67715,172.47812 282.474377,169.05297 283.37139,165.44082 C283.703861,164.10198 283.019844,161.77185 281.835453,160.20862 C279.394249,156.98657 275.680357,156.64729 267.551833,158.90375 C264.62868,159.7152 261.295425,160.34271 260.144612,160.2982 C258.993788,160.2537 258.360804,160.7166 258.737968,161.32687 C259.115143,161.93714 258.993764,162.44829 258.468234,162.46273 C257.942705,162.47713 256.190195,163.50512 254.573757,164.74705 L251.634802,167.00512 L254.935413,168.26001 C257.51537,169.24091 259.036531,169.10094 261.902413,167.61894 C265.270557,165.8772 265.894305,165.87819 269.570166,167.63114 C271.78438,168.68702 274.807215,169.22912 276.338191,168.84487 C277.85986,168.46295 279.430839,168.67792 279.829249,169.32259 C280.236459,169.98145 278.572696,170.82938 276.029659,171.25902 C269.117508,172.42682 265.526401,175.30512 260.512882,183.69581 C256.325286,190.70425 256.085045,191.5495 257.754206,193.40216 C259.391927,195.21992 259.844159,195.24861 262.090876,193.67729 C263.470427,192.71244 265.927859,189.14644 267.551833,185.75284 C270.707514,179.15841 276.579743,174.24718 281.308813,174.24718 Z M289.009873,193.04293 C293.214192,190.89805 293.618674,190.35928 292.137008,188.87761 C290.655342,187.39595 289.719118,187.49258 284.898881,189.6248 C279.239186,192.12836 277.443119,195.50647 281.771746,195.50647 C283.096802,195.50647 286.353962,194.39788 289.009873,193.04293 Z M309.951536,184.11852 C312.411709,182.39534 312.502722,182.05731 310.767881,181.08645 C308.213743,179.65708 300.621838,182.11994 300.621838,184.37788 C300.621838,186.70436 306.492756,186.54113 309.951536,184.11852 Z M398.65078,694.15496 C398.65078,693.63526 399.28856,692.57226 400.06807,691.79276 C400.84758,691.01326 401.03904,690.37546 400.49354,690.37546 C399.94805,690.37546 398.86443,691.24706 398.0855,692.31226 C396.96714,693.84176 396.19453,693.97346 394.41208,692.93876 C393.138,692.19916 392.82827,691.61276 393.70094,691.59246 C394.55126,691.57246 394.9185,691.02506 394.51703,690.37546 C393.74602,689.12796 395.77276,688.78786 401.60346,689.18626 C406.80749,689.54176 407.33077,690.30166 404.11416,692.83176 C401.11778,695.18876 398.65078,695.78626 398.65078,694.15496 Z M1385.00146,664.51324 C1381.62226,662.37249 1388.65906,657.64512 1406.10486,650.33585 C1410.97676,648.29467 1418.40056,644.02593 1422.60216,640.84976 C1429.74686,635.44872 1430.33936,635.21482 1431.75516,637.23621 C1433.90456,640.30494 1432.63786,642.52612 1427.38836,644.89332 C1424.87986,646.02449 1421.72586,648.21702 1420.37936,649.7656 C1419.03286,651.31419 1416.86626,652.58121 1415.56466,652.58121 C1414.26306,652.58121 1411.20356,654.37116 1408.76576,656.55888 C1400.42096,664.04748 1389.85096,667.58545 1385.00146,664.51324 Z M1302.34396,649.17011 C1301.11666,648.39249 1301.04816,647.592 1302.04866,645.72263 C1302.76526,644.38354 1303.35166,641.62272 1303.35166,639.58747 C1303.35166,636.26039 1303.61976,635.98134 1306.00906,636.82177 C1307.47066,637.33588 1310.52666,637.82606 1312.80026,637.91105 C1315.07376,637.99605 1317.34486,638.1427 1317.84706,638.23696 C1319.80466,638.60444 1314.57256,644.55982 1309.87156,647.31479 C1304.27266,650.59594 1304.50406,650.53891 1302.34396,649.17011 Z M1438.82126,638.8421 C1438.41026,638.43106 1439.38326,637.06486 1440.98346,635.80608 C1443.39366,633.91027 1443.67466,633.10935 1442.62086,631.14034 C1441.09626,628.29138 1443.36116,625.23412 1448.60606,623.06161 C1452.66946,621.3785 1453.69276,617.96295 1452.60316,609.71998 C1451.85356,604.04921 1451.94526,603.69532 1453.77266,605.20664 C1455.20746,606.39326 1455.56016,607.88814 1455.04856,610.6149 C1454.48796,613.60321 1454.99156,615.15639 1457.48446,618.11821 C1460.17726,621.31848 1460.97716,621.66585 1463.07186,620.54478 C1465.15956,619.42755 1465.40426,619.5294 1464.74696,621.242 C1464.32366,622.34509 1463.97736,623.45623 1463.97736,623.71122 C1463.97736,623.9662 1462.25006,625.05926 1460.13886,626.14024 C1458.02776,627.22121 1453.90876,630.08028 1450.98556,632.49373 C1446.23216,636.41829 1441.34046,639.58942 1440.03986,639.58942 C1439.78066,639.58942 1439.23226,639.25312 1438.82126,638.8421 Z M1308.59146,622.40439 C1305.54656,624.3995 1299.82506,623.23362 1295.23926,619.68358 C1292.79276,617.78973 1292.62266,617.17943 1293.88426,614.82192 C1294.96086,612.81039 1294.99656,611.4002 1294.02466,609.26712 C1293.30816,607.69476 1292.72196,605.37031 1292.72196,604.1017 C1292.72196,601.24011 1290.86426,601.10358 1289.32606,603.85216 C1288.69286,604.98354 1287.83646,605.57082 1287.42306,605.15726 C1287.00936,604.7437 1288.37716,602.46204 1290.46266,600.08692 C1295.59476,594.24183 1293.59186,592.65492 1286.81286,597.19502 C1283.89176,599.15132 1281.31266,601.28851 1281.08136,601.94431 C1280.85016,602.60012 1279.44626,600.57605 1277.96176,597.44636 C1276.35216,594.05272 1273.57216,590.64233 1271.07406,588.99673 C1267.32096,586.52433 1266.04896,586.3207 1258.83966,587.03823 C1248.26718,588.09049 1238.06697,590.69742 1231.39061,594.05356 C1228.35573,595.57917 1222.43372,597.14092 1217.86675,597.62011 C1213.39805,598.08897 1206.29107,599.77148 1202.07346,601.35899 C1195.62351,603.78674 1193.78765,604.04164 1190.51974,602.96314 C1186.13596,601.51637 1184.31522,598.53438 1187.15109,597.44615 C1188.1778,597.05217 1190.04141,594.3419 1191.2924,591.42336 C1193.29503,586.75154 1193.40569,585.29689 1192.21813,579.2607 C1191.23559,574.26657 1191.20831,569.53784 1192.11773,561.84929 C1192.80417,556.04391 1193.06684,550.15108 1192.70154,548.75411 C1192.33623,547.35715 1192.90693,543.93712 1193.96977,541.15406 C1195.84378,536.24712 1196.29778,535.92644 1208.96844,530.55971 C1216.1549,527.51588 1223.51074,525.02547 1225.31494,525.02547 C1230.19666,525.02547 1236.24163,520.38078 1239.57414,514.06926 C1241.63381,510.16838 1243.06255,508.68424 1244.29842,509.16186 C1247.74822,510.49512 1248.42922,510.23329 1248.16348,507.67583 C1247.99246,506.03073 1248.69921,504.83424 1250.1054,504.38792 C1251.32131,504.002 1253.56818,501.85142 1255.0985,499.60884 C1256.66507,497.313 1259.88621,494.72625 1262.47063,493.68866 C1266.78226,491.95756 1267.21166,491.98342 1269.55706,494.11523 C1273.88416,498.04853 1276.95066,499.19674 1278.41526,497.43207 C1279.12736,496.57396 1279.37226,495.53407 1278.95946,495.12121 C1277.60736,493.76921 1283.79336,486.00747 1286.81696,485.2619 C1288.44096,484.86147 1291.77516,483.52915 1294.22636,482.3012 C1298.04876,480.38628 1299.39326,480.25931 1303.67496,481.40887 C1312.90846,483.88799 1313.21506,484.29345 1309.78046,489.48332 C1305.36356,496.15773 1306.53476,498.76761 1317.36856,506.39327 C1322.37046,509.9139 1327.09236,512.58459 1327.86176,512.32813 C1328.63106,512.07167 1331.06376,509.37597 1333.26756,506.33768 C1336.27106,502.19722 1337.43556,499.18638 1337.91706,494.3176 C1338.60086,487.40139 1341.90896,477.7826 1343.60366,477.7826 C1344.16466,477.7826 1345.45046,480.62705 1346.46116,484.10358 C1347.47176,487.58012 1349.58956,491.63735 1351.16746,493.11965 C1354.85476,496.58376 1356.99676,506.2702 1355.34096,511.99342 C1354.24386,515.78557 1354.45556,516.39417 1358.21566,520.26092 C1360.44796,522.55663 1363.97846,528.15531 1366.06116,532.70243 C1368.14386,537.24956 1371.89906,543.68336 1374.40606,546.99978 L1378.96436,553.02961 L1377.66856,562.34562 C1376.72856,569.10408 1375.27316,573.6093 1372.36726,578.75614 C1367.91576,586.64019 1361.26026,594.1633 1357.75186,595.27687 C1356.49016,595.67727 1353.56746,598.63637 1351.25686,601.85268 C1348.94606,605.06897 1346.53556,607.70048 1345.89996,607.70048 C1345.26446,607.70048 1342.56266,610.46061 1339.89616,613.83411 C1335.44866,619.46042 1334.62996,619.97559 1329.99616,620.06268 C1326.43986,620.12958 1323.71706,621.09394 1320.79706,623.32116 L1316.64946,626.4847 L1313.92806,623.58791 C1311.44086,620.94073 1310.98106,620.83875 1308.59146,622.40439 Z M735.65455,591.53046 C736.18062,588.28865 735.67955,586.38192 733.43286,583.07555 C731.83734,580.72754 730.53191,578.22857 730.53191,577.5223 C730.53191,576.81603 728.44337,573.43889 725.89071,570.01755 C721.94541,564.72966 721.13476,562.61688 720.48416,555.92666 C719.33619,544.12186 715.56693,531.34453 710.50046,522.08313 C708.00984,517.53032 705.61724,511.6189 705.18357,508.94665 C704.26082,503.26066 706.56977,494.79771 711.84138,484.54411 L715.34811,477.72329 L713.37766,471.79079 C712.27535,468.47206 711.73682,464.54498 712.15535,462.87745 C712.6452,460.9257 712.11875,458.60078 710.63045,456.14309 C709.38029,454.07865 707.52376,449.46641 706.50484,445.89367 C705.14386,441.12153 703.24663,438.01869 699.35528,434.20082 C691.8699,426.85677 690.89666,423.96559 693.21982,415.97421 C697.94905,399.70623 692.83995,390.21814 680.35868,392.08983 C675.49926,392.81854 675.31329,392.72784 674.62663,389.2945 C674.09981,386.66046 672.67231,385.11106 669.08725,383.2821 C664.42891,380.9056 662.43512,380.89661 656.71493,383.2264 C655.41576,383.75552 650.10093,385.58928 644.90422,387.30142 C637.09027,389.87585 634.74407,390.20803 631.34257,389.22152 C628.12041,388.28702 625.40632,388.52881 618.81243,390.33782 C611.99879,392.20711 609.52902,392.40779 605.84753,391.39128 C598.16553,389.27018 584.9675,377.3744 583.09019,370.87941 C581.63745,365.8533 572.60246,354.13953 569.52759,353.29562 C567.57353,352.75932 567.33316,352.34412 568.52967,351.5719 C569.7331,350.79524 569.5236,350.40241 567.64386,349.91085 C564.65908,349.1303 564.36208,346.6909 567.24876,346.66565 C566.42822,344.78157 566.30417,344.35107 567.20892,344.33967 C568.14689,344.32787 567.78988,342.87154 566.18025,340.14343 C563.91485,336.30386 563.8677,335.79663 565.59846,333.88416 C570.8825,328.04537 572.04027,315.47396 568.02341,307.55339 C566.10582,303.77223 567.3389,298.54907 571.43105,293.11893 C572.97175,291.07448 575.97984,286.0998 578.11569,282.06408 C581.85185,275.00453 590.18,265.18974 592.43405,265.18974 C594.92842,265.18974 602.97618,256.5377 602.97618,253.85602 C602.97618,247.8018 606.59603,241.76537 612.49748,237.97843 C615.66854,235.94356 619.38444,232.4642 620.75505,230.24652 C623.55852,225.7104 623.95556,225.56249 627.22061,227.83795 C628.50193,228.73091 631.68577,229.81975 634.2958,230.2576 C638.27659,230.9254 640.17986,230.44478 646.10651,227.27513 C656.30452,221.82109 662.60662,220.45904 674.27538,221.18702 C681.97137,221.66715 685.43583,221.36017 689.16638,219.8675 C694.65999,217.66939 699.40943,218.97026 698.12367,222.3209 C697.73728,223.3278 697.97323,224.81684 698.64798,225.62987 C699.49712,226.65301 699.4905,228.11897 698.62648,230.39142 C697.54109,233.24623 697.78182,234.09604 700.47108,236.90303 C702.17217,238.67858 705.21808,240.46214 707.23974,240.86647 C716.73171,242.76486 719.43064,243.99427 721.39077,247.31252 C722.82664,249.74324 724.70925,250.99108 727.82142,251.57494 C730.24166,252.02898 733.75604,253.19381 735.63114,254.16347 C738.81543,255.81013 739.22805,255.7502 741.88356,253.25549 C743.66877,251.57836 744.47853,249.80261 744.05974,248.48316 C743.69292,247.32742 743.97244,245.29878 744.68086,243.97506 C746.50817,240.56071 751.69622,240.89577 759.79708,244.95132 C768.62269,249.3697 785.35925,252.52224 791.29276,250.88391 C794.1468,250.09588 796.89055,250.08552 799.38883,250.85331 C807.54979,253.36156 811.7291,251.39828 812.84319,244.53301 C813.21321,242.25281 813.84504,240.38719 814.24723,240.38719 C815.01058,240.38719 815.41023,236.95872 815.52074,229.46228 C815.55664,227.02632 816.13239,225.03326 816.80016,225.03326 C817.59558,225.03326 817.55641,224.17772 816.68666,222.55248 C815.23413,219.83841 812.28871,219.90038 805.23913,222.79332 C801.8959,224.1653 800.9654,224.10699 797.97048,222.33784 C794.08704,220.04384 790.10146,219.69971 788.95224,221.55919 C788.09769,222.94187 782.05878,221.97269 778.78341,219.92718 C776.43025,218.45765 774.23155,214.08359 774.23155,210.87183 C774.23155,209.64005 773.03572,207.78988 771.57414,206.76035 C769.31209,205.16697 769.18031,204.71597 770.68834,203.72896 C771.66272,203.09121 773.667,202.85339 775.14229,203.20047 C777.02398,203.64316 778.75406,202.90208 780.9385,200.71764 C782.99419,198.66195 785.49424,197.52723 788.29527,197.37857 C790.62886,197.25471 794.00906,196.18411 795.80682,194.99946 C799.70964,192.42766 808.57045,193.14233 815.44513,196.58339 C824.7157,201.22369 832.94891,200.95078 836.26266,195.89335 C837.98667,193.26218 837.99616,192.70949 836.36006,190.21256 C835.36325,188.69123 830.57492,185.18619 825.71935,182.42357 L816.891,177.40062 L818.54505,174.20205 C819.45478,172.44284 819.90133,170.70571 819.5374,170.34178 C819.17346,169.97785 819.31259,168.98036 819.84655,168.12516 C820.38053,167.26996 820.92142,165.88398 821.04854,165.04522 C821.31966,163.25626 819.41501,163.75007 810.02246,167.9039 C804.5699,170.31528 803.75962,171.05409 804.96916,172.5115 C805.76145,173.46613 807.54044,174.2707 808.92247,174.29941 C810.86094,174.33971 810.40189,174.89684 806.91413,176.73703 C802.67944,178.97132 802.20675,179.00042 799.45339,177.19635 C797.09907,175.65374 796.79116,174.93604 797.90692,173.59163 C799.01448,172.25711 798.84911,171.74359 797.10015,171.08643 C795.89022,170.63181 794.33026,169.50012 793.63358,168.57156 C790.25055,164.06253 779.51768,175.92427 776.39618,187.62199 C774.93102,193.11263 774.97981,193.39829 777.7381,195.47888 L780.60046,197.63796 L775.34911,198.72093 C772.46087,199.31657 768.5683,199.3861 766.69896,198.87545 C763.24923,197.9331 758.87758,199.3533 758.87758,201.41635 C756.10827,201.45611 754.54821,201.77509 753.62413,202.542 C752.19088,203.73148 752.35315,204.70597 754.72825,209.17295 C757.30112,214.01184 757.38067,214.67385 755.77584,217.89081 C753.76497,221.9217 751.8949,221.62186 749.0543,216.81312 C747.074,213.46073 747.08724,213.3836 749.70734,213.01167 C753.01406,212.54228 753.22692,210.4374 750.01954,209.92455 C742.70197,208.75452 738.79936,204.8985 738.79936,198.83828 C738.79936,194.10918 734.41552,188.89597 729.09939,187.30321 C726.33682,186.47553 723.3336,184.73763 722.42555,183.44123 C721.51752,182.14481 718.85968,180.28402 716.51926,179.30613 C714.17884,178.32824 711.55943,176.52233 710.69837,175.29299 C709.46251,173.52855 708.65006,173.31618 706.84054,174.28462 C705.5798,174.95934 704.54829,176.27152 704.54829,177.20058 C704.54829,180.2671 719.60233,194.14004 726.96062,197.8545 C734.76268,201.79297 735.98143,203.19932 730.56068,202.00873 C725.72792,200.94727 724.41148,202.00973 726.0645,205.63785 C727.22562,208.18621 727.03561,208.96146 724.69984,211.20577 L721.98624,213.81311 L722.60374,210.29479 C723.58394,204.70995 716.22039,196.68757 710.114,196.68757 C707.87564,196.68757 699.27576,188.34546 697.02285,183.98881 C694.61557,179.33364 691.93685,178.43433 688.14214,181.00733 C682.42574,184.88334 678.13963,186.19374 673.65599,185.43624 C667.69949,184.42989 663.95204,186.50697 664.90121,190.28873 C665.39674,192.26307 665.12093,193.14436 664.00752,193.14436 C663.1218,193.14436 660.85288,194.47241 658.96546,196.0956 C657.07805,197.71878 655.12739,199.04748 654.63065,199.04828 C653.16954,199.05028 649.04714,206.51216 649.04234,209.16313 C649.03734,211.69853 644.41896,216.69395 639.96226,218.98362 C638.54339,219.71259 635.24032,220.30901 632.62212,220.30901 C629.01989,220.30901 627.54404,220.90262 626.5559,222.74899 C625.26184,225.16697 625.22251,225.16142 622.19561,222.13453 C619.35592,219.29483 617.72106,218.58406 611.99019,217.69757 C608.97916,217.23182 608.47077,210.41587 610.72276,200.70544 C611.68547,196.55435 612.15805,191.90263 611.77295,190.36828 C610.65381,185.90925 614.15718,183.2798 620.0179,184.18006 C633.55101,186.25885 641.467,186.37369 643.32255,184.51814 C645.87201,181.96868 647.02203,173.56024 645.46609,168.84567 C644.45125,165.77071 643.05561,164.51356 638.89104,162.9231 C632.76609,160.58396 632.637,158.32123 638.62507,158.26108 C640.90648,158.23818 644.19769,157.28598 645.93887,156.14511 C647.68004,155.00426 649.60551,154.38037 650.21767,154.75871 C651.88728,155.79058 658.20951,152.14648 660.30915,148.94203 C661.32383,147.39341 663.32189,145.82864 664.74928,145.46477 C666.17667,145.10089 670.00194,142.32779 673.24989,139.30234 C677.85448,135.01317 680.2706,133.66836 684.2189,133.19703 C689.11049,132.6131 694.02948,128.59054 691.72015,127.0628 C690.28483,126.11326 689.0857,120.39428 689.88512,118.31102 C690.26387,117.32399 691.93592,115.6239 693.60076,114.53305 L696.62775,112.54969 L695.85064,117.40946 C695.17616,121.62741 695.34822,122.22332 697.1535,121.92163 C698.29748,121.73045 700.43719,120.91273 701.9084,120.1045 C704.14856,118.87382 704.69794,118.93364 705.28847,120.47256 C706.30062,123.11015 703.48658,126.21157 701.54405,124.59941 C698.57271,125.71127 698.089,125.65691 697.37844,124.50719 C695.47536,123.87283 696.41955,125.66808 697.90491,127.5309 C700.40877,130.67104 700.88608,130.82008 704.45454,129.5761 C707.51078,128.51069 708.97841,128.58335 711.58042,129.92891 C714.51792,131.44795 715.50969,131.3756 721.15563,129.23031 C726.10236,127.35071 728.05211,127.1097 730.24146,128.10723 C732.25553,129.0249 733.74762,129.00599 735.61891,128.03913 C740.9313,125.2941 742.40293,123.2242 741.74341,119.42481 C740.76582,113.79317 742.55619,111.94848 747.27195,113.72849 C750.48078,114.93969 751.41836,114.89157 752.86864,113.44129 C754.40412,111.90581 754.27207,111.3386 751.75558,108.65992 C749.33449,106.08278 749.16503,105.44213 750.64102,104.44627 C751.59839,103.80034 755.18615,103.56891 758.61385,103.93197 C764.88686,104.59641 772.70411,102.14589 771.34203,99.942 C770.14921,98.01198 762.94912,97.45427 756.84914,98.81939 C751.43929,100.03006 750.01941,99.93214 745.8731,98.06241 C739.43329,95.15847 738.67471,91.7609 743.09168,85.60482 C748.77702,77.68097 749.81666,75.15582 748.19711,73.2044 C745.79904,70.3149 743.44312,71.25695 737.96477,77.29597 C735.06995,80.48704 731.12528,83.7508 729.19882,84.54876 C727.27238,85.34672 724.88943,87.55969 723.9034,89.46645 C722.29758,92.57178 722.3001,93.22249 723.9276,95.70641 C724.92695,97.23162 726.82173,98.82139 728.13821,99.23922 C731.76121,100.38912 731.04451,102.54746 725.86226,106.09324 C724.26838,107.1838 722.14245,110.26908 721.13798,112.94944 C719.87928,116.3081 717.96551,118.59998 714.98065,120.32323 C710.77271,122.75261 710.58166,122.76211 708.25643,120.6578 C706.94016,119.46658 705.54365,117.03705 705.15308,115.25881 C704.76252,113.48058 702.98874,110.28374 701.21136,108.15473 L697.97975,104.28378 L693.8823,106.78163 C691.6287,108.15546 688.72188,109.26966 687.4227,109.25765 C683.67481,109.22305 679.33593,105.1745 679.04549,101.44114 C678.90116,99.58599 678.41908,97.1582 677.97417,96.04605 C676.91591,93.40069 682.20482,88.4394 687.70088,86.92187 C693.21692,85.39882 704.40478,77.55798 706.3114,73.87897 C707.15952,72.24246 710.03293,68.94932 712.69674,66.56089 C715.36057,64.17246 717.54005,61.69188 717.54005,61.04848 C717.54005,60.40509 720.06459,58.97906 723.15014,57.87953 C726.23569,56.78 731.41764,54.78501 734.66559,53.44622 C738.65315,51.80256 743.63942,50.93356 750.01952,50.77035 C761.16732,50.48519 768.45794,51.96286 774.47341,55.72669 C777.49175,57.61524 779.87404,58.25953 782.15322,57.80369 C786.23105,56.98813 807.96816,63.72566 808.87387,66.08589 C809.78419,68.45816 803.54991,70.69748 798.18594,69.92493 C795.72922,69.5711 790.6484,68.62489 786.89522,67.82224 C781.84273,66.74173 779.72655,66.70762 778.74331,67.69084 C777.7601,68.67407 778.25149,69.39976 780.63629,70.48635 C782.4078,71.2935 784.62554,73.43966 785.56458,75.25559 C787.9556,79.87931 795.61369,83.64859 799.56473,82.1464 C803.36093,80.70309 803.33461,80.24786 799.32926,78.07493 C795.62468,76.06515 797.33458,75.63066 801.98712,77.39955 C805.70188,78.8119 809.91051,77.05483 808.93043,74.50079 C808.47138,73.30452 809.76215,72.44084 813.40343,71.50781 C821.19568,69.51115 821.76596,69.22571 821.11967,67.64559 C818.67503,61.6687 818.64074,61.84047 822.19768,62.24659 C824.09578,62.46331 825.48238,63.27502 825.32459,64.07706 C825.16867,64.86966 826.15775,66.11576 827.52258,66.84619 C829.57273,67.9434 831.19009,67.55255 836.82727,64.59762 C845.09344,60.26461 851.52898,58.85193 853.92881,60.84362 C855.26697,61.95419 857.48557,61.96199 863.90793,60.87872 C868.45006,60.11259 872.68228,59.80462 873.31285,60.19434 C876.1639,58.1449 873.59002,54.72784 872.18093,55.5987 C870.47991,56.64999 864.89392,54.76669 866.10903,53.55158 C867.3326,52.32801 900.20124,59.98703 902.16829,61.95409 C903.49434,63.28014 907.69259,61.5112 907.69259,59.62641 C907.69259,58.99124 905.34851,57.3327 902.48353,55.94079 C893.6004,51.62504 893.03007,44.71301 901.38406,42.61629 C906.23254,41.39939 908.32925,42.80317 915.03526,51.75598 C923.7416,63.37932 923.51965,62.78797 920.67516,66.78268 C918.56883,69.74076 918.44194,70.43304 919.90334,70.99383 C922.67234,72.05639 928.59856,68.33827 929.43261,65.01514 C930.40988,61.12136 928.58512,57.80293 924.22759,55.54957 C920.80183,53.77804 918.32223,50.53197 918.32223,47.81881 C918.32223,46.89398 919.60711,46.66333 922.16071,47.12976 C925.98938,47.82909 929.15634,46.44058 937.82664,40.26127 C939.80949,38.84809 943.16161,37.91684 946.5415,37.84019 C953.39733,37.6847 955.61631,36.53377 953.64343,34.15659 C952.86973,33.22434 952.4826,32.21568 952.78316,31.91513 C954.29154,30.40675 973.73557,27.68874 978.21376,28.36028 C982.52247,29.00642 983.85642,28.6569 987.40149,25.95295 C989.68244,24.21318 991.54867,22.32134 991.54867,21.74884 C991.54867,20.30517 981.22768,20.43411 980.32849,21.88903 C979.09125,23.89093 977.48752,23.19434 977.93879,20.85106 C978.31982,18.87254 977.32034,18.55059 968.71767,17.88079 C945.2264,16.05176 943.31711,15.62257 946.13524,12.80443 C948.61296,10.32671 954.69004,10.37475 959.77659,12.91225 C961.8607,13.95194 965.31303,14.8026 967.44846,14.8026 C969.58388,14.8026 971.65952,15.33408 972.06099,15.98367 C972.46246,16.63326 974.53111,17.16474 976.658,17.16474 C982.54863,17.16474 993.9376,19.70911 993.22293,20.86545 C992.875,21.42842 993.9768,21.88903 995.67137,21.88903 C997.36594,21.88903 1000.45333,22.8043 1002.53224,23.92296 C1005.328,25.42736 1009.2332,25.96859 1017.53225,26.00183 C1026.453,26.03753 1029.41806,26.49572 1032.00037,28.23748 C1033.78675,29.44238 1035.24067,30.76568 1035.2313,31.17817 C1035.2223,31.59065 1032.49622,33.42769 1029.17414,35.26049 C1021.15106,39.68684 1022.84742,41.61587 1032.55163,39.10125 C1038.83722,37.47249 1040.28155,37.46202 1045.48573,39.00755 C1049.75547,40.27553 1052.42149,40.43831 1055.31718,39.60784 C1058.20795,38.77878 1061.17521,38.95681 1066.20975,40.26139 C1071.4628,41.6226 1074.18544,41.76107 1077.51494,40.83637 C1085.11301,38.72616 1094.46052,39.32215 1099.88346,42.26256 C1102.57901,43.72414 1107.5499,46.42848 1110.92989,48.2722 C1116.92131,51.54042 1117.18214,51.57654 1121.33781,49.7135 C1124.8162,48.15408 1126.75678,48.02365 1131.8871,49.00445 C1136.98647,49.97933 1138.84263,49.86052 1141.71451,48.37541 C1144.52415,46.92249 1144.97614,46.20832 1143.90378,44.91621 C1141.83004,42.4175 1149.18794,41.48863 1158.22836,43.10785 C1162.36896,43.84947 1167.61692,44.58976 1169.89049,44.75294 C1172.16405,44.91612 1176.60606,46.21174 1179.76165,47.6321 C1184.57392,49.79821 1188.20536,50.2889 1202.28598,50.67564 C1215.6465,51.04261 1219.89966,51.57727 1223.12268,53.295 C1226.39425,55.03854 1230.1229,55.48204 1242.52639,55.60296 C1253.93732,55.71421 1259.04994,56.25535 1262.43477,57.71017 C1267.89879,60.05857 1270.08469,59.19728 1267.11049,55.86784 C1264.97124,53.47289 1264.984,53.4696 1273.23429,54.2892 C1287.05919,55.6626 1303.64279,58.68785 1309.25689,60.86056 C1312.18009,61.99185 1317.75149,63.30644 1321.63769,63.78186 C1325.52379,64.25729 1331.19449,65.90856 1334.23909,67.45135 C1338.86019,69.79304 1340.36189,70.05173 1343.32919,69.0173 C1347.38699,67.60272 1350.01959,68.62137 1356.21659,74.00391 L1360.06709,77.3484 L1357.16509,78.07676 C1354.25309,78.80764 1346.51979,76.8932 1343.85499,74.7817 C1343.07149,74.16085 1341.97289,73.93568 1341.41349,74.28134 C1340.85429,74.62699 1338.09189,74.11574 1335.27499,73.14523 C1328.67739,70.87218 1325.74789,71.72598 1328.75269,75.04616 C1330.80479,77.31376 1330.76039,77.3614 1326.84649,77.08841 C1319.52249,76.57757 1321.53569,78.74035 1332.28779,82.93412 C1338.13419,85.2144 1343.16789,87.32251 1343.47379,87.61881 C1344.58199,88.69182 1340.92769,90.02197 1338.26839,89.51361 C1335.34879,88.95549 1328.15409,92.08905 1328.15409,93.91877 C1328.15409,94.52637 1327.01729,96.08262 1325.62779,97.3771 C1323.30669,99.53951 1322.82699,99.58876 1319.72239,97.98332 C1316.81709,96.48091 1315.88809,96.46532 1313.09539,97.87212 C1311.30909,98.77202 1308.25599,99.89136 1306.31089,100.35954 C1304.36579,100.82772 1302.11249,101.75994 1301.30379,102.43113 C1298.92689,104.40382 1303.11809,110.14572 1309.02089,113.00315 C1312.23559,114.55942 1314.56339,116.64464 1315.25539,118.58815 C1315.86269,120.29397 1317.15029,123.09545 1318.11659,124.81369 C1319.69169,127.61402 1319.67809,128.0128 1317.98599,128.66213 C1316.74579,129.13807 1316.38029,130.09197 1316.92059,131.44343 C1317.37279,132.57473 1317.88399,134.82906 1318.05639,136.45303 C1318.22879,138.077 1318.74959,140.28779 1319.21359,141.36589 C1319.81789,142.76942 1319.31869,143.56042 1317.45709,144.15137 C1315.38479,144.80908 1313.98839,144.0167 1310.58059,140.24942 C1308.22859,137.64942 1304.30569,134.06984 1301.86299,132.29478 C1299.42019,130.51974 1295.04349,125.90389 1292.13699,122.03734 C1287.00989,115.21694 1286.90469,114.90613 1288.60599,111.61594 C1289.57059,109.75071 1290.37859,107.00239 1290.40159,105.50855 C1290.42559,104.01472 1291.17419,101.47252 1292.06719,99.85922 C1293.77289,96.7778 1293.11559,94.31758 1289.46879,90.13397 C1287.07439,87.38707 1282.81429,89.44619 1283.88859,92.83113 C1284.87829,95.94956 1281.84159,96.96009 1278.34919,94.67443 C1276.83519,93.68351 1273.34949,92.51414 1270.60339,92.07583 C1265.88859,91.3233 1265.53829,91.46804 1264.31681,94.67355 C1263.60533,96.54061 1263.30687,99.49212 1263.65352,101.23247 C1264.19351,103.94416 1263.81816,104.49899 1261.02847,105.11169 C1259.13013,105.52865 1255.87959,105.03539 1253.23009,103.92837 C1250.32005,102.71249 1247.57949,102.34491 1245.60663,102.90586 C1243.9125,103.38754 1238.18454,103.82482 1232.87786,103.8776 C1224.47147,103.9612 1222.85198,104.32815 1220.29709,106.7281 C1218.68434,108.24311 1216.74667,111.96348 1215.99102,114.9956 C1215.23549,118.02773 1213.8508,121.69162 1212.91397,123.13757 C1211.29484,125.63672 1211.45133,125.88929 1216.07984,128.25057 C1221.10364,130.81354 1226.5811,131.48873 1230.73351,130.05689 C1233.93634,128.95245 1243.70723,136.57011 1246.75794,142.55008 C1248.00763,144.99957 1250.0732,147.56199 1251.34817,148.24434 C1256.17238,150.82616 1257.15231,167.7659 1253.11812,178.84071 C1250.32501,186.5086 1247.1993,189.01577 1242.60895,187.27049 C1240.85494,186.60365 1239.24242,186.05804 1239.02558,186.05804 C1238.80861,186.05804 1237.49467,188.23845 1236.10561,190.90339 C1234.28157,194.40278 1233.92606,196.16564 1234.82569,197.24958 C1236.54686,199.32349 1235.27296,202.02093 1231.83179,203.58882 C1230.24348,204.31247 1228.94407,205.41914 1228.94407,206.04808 C1228.94407,206.67704 1232.63929,209.73466 1237.15559,212.84283 C1242.90126,216.79706 1245.97134,219.83415 1247.37942,222.95683 C1248.48632,225.41137 1249.17583,227.61463 1248.91186,227.85295 C1248.64777,228.09127 1246.23366,229.39438 1243.54707,230.74875 L1238.66252,233.21124 L1235.72354,226.46491 C1232.43414,218.91434 1229.61244,215.87787 1224.6419,214.54011 C1222.13897,213.86646 1221.2671,212.91143 1221.2671,210.8433 C1221.2671,208.94756 1220.0415,207.33666 1217.4389,205.81176 C1213.6473,203.59015 1213.57183,203.59277 1209.5367,206.08664 C1205.49802,208.58265 1205.45173,208.58422 1204.21148,206.26699 C1203.52351,204.98132 1202.96049,203.11594 1202.96049,202.12171 C1202.96049,201.12748 1201.9678,199.78272 1200.75437,199.13335 C1198.94981,198.16756 1197.81055,198.75106 1194.49398,202.33975 C1192.264,204.75262 1189.40711,207.31388 1188.14537,208.03144 C1186.18762,209.14478 1186.08322,209.61554 1187.43283,211.24181 C1188.3028,212.28996 1191.30603,214.42831 1194.10683,215.99372 C1198.56159,218.4835 1199.41432,218.62489 1200.91629,217.12281 C1202.34433,215.69487 1203.50627,215.64263 1207.81647,216.81254 L1212.9996,218.21938 L1210.11105,220.15005 C1204.7536,223.73088 1203.06443,225.61061 1202.29968,228.84225 C1201.67218,231.49439 1202.04658,232.29218 1204.4275,233.37704 C1206.01663,234.10109 1208.4324,236.98971 1209.79594,239.7962 C1211.15937,242.60267 1213.88292,245.84872 1215.84823,247.00963 C1220.17083,249.56304 1221.42466,252.27602 1218.92799,253.67321 C1216.60057,254.97573 1217.71208,256.92234 1220.78334,256.92234 C1224.46167,256.92234 1224.48292,259.11648 1220.92766,271.78082 C1216.62207,287.11801 1212.73516,292.23541 1202.56554,295.95566 C1198.56041,297.4208 1193.68908,298.70782 1191.74031,298.81568 C1187.21043,299.06643 1183.69757,300.9846 1180.63281,304.88071 L1178.20027,307.97329 L1177.06573,304.98924 C1175.58561,301.09623 1172.19145,300.11738 1167.31977,302.17851 C1162.85528,304.06737 1159.912,307.07938 1158.72473,310.97426 C1157.66233,314.45953 1161.42412,320.58986 1167.65203,325.52246 C1172.76533,329.57229 1178.5018,339.73391 1179.84905,347.12822 C1181.02079,353.55954 1178.94482,357.78095 1173.37536,360.29244 C1170.83816,361.43654 1168.46394,363.31269 1168.09926,364.46166 C1167.22352,367.2209 1161.9793,370.65619 1161.0178,369.10046 C1160.61721,368.45227 1160.60155,366.9386 1160.983,365.73675 C1161.36445,364.53489 1161.34563,362.6892 1160.9412,361.6352 C1160.35925,360.11865 1159.71412,359.98199 1157.84904,360.98015 C1155.90672,362.01965 1155.15757,361.75621 1153.58919,359.48219 C1149.73466,353.8934 1138.56298,344.91218 1135.46568,344.91218 C1134.37502,344.91218 1133.95442,346.22428 1134.1406,349.04593 C1134.29061,351.31949 1133.82748,355.75216 1133.11143,358.89629 C1131.94477,364.01906 1132.06438,364.95761 1134.26279,367.93111 C1135.61208,369.75614 1137.05135,372.58525 1137.46116,374.21806 C1137.87735,375.8763 1141.29337,379.66287 1145.19961,382.79596 C1151.70996,388.01773 1152.39623,389.04864 1155.13638,397.72275 C1156.75527,402.84744 1158.07982,407.54442 1158.07982,408.16048 C1158.07982,410.16377 1155.6125,409.35183 1150.46357,405.65415 C1145.14064,401.83149 1141.74093,395.78384 1138.906,385.09459 C1137.67504,380.45323 1136.3251,378.46364 1132.49512,375.64601 C1127.79807,372.1905 1127.65599,371.88874 1128.03455,366.17147 C1128.24961,362.92352 1128.78195,358.31979 1129.21751,355.94095 C1129.8307,352.59211 1129.32357,350.19269 1126.97097,345.31131 C1125.29982,341.84384 1123.32367,336.51842 1122.57956,333.47704 C1120.9172,326.68256 1118.56946,325.54466 1114.41851,329.52151 C1112.70236,331.1657 1110.96667,332.51092 1110.56142,332.51092 C1108.68171,332.51092 1106.09893,328.50948 1106.71855,326.55724 C1107.84373,323.01209 1100.92443,310.65418 1096.87518,308.97693 C1094.65975,308.05926 1092.63422,305.83365 1091.27866,302.82753 C1088.92351,297.60473 1086.28143,295.60623 1083.64181,297.05093 C1082.6842,297.57504 1078.8507,298.62937 1075.12292,299.39388 C1068.28911,300.79539 1065.83735,302.86493 1066.77283,306.4422 C1067.11729,307.75944 1065.92157,309.03174 1063.05394,310.39921 C1060.72932,311.50775 1058.22476,313.73727 1057.48827,315.3537 C1056.75178,316.97012 1055.13021,318.61607 1053.8848,319.01135 C1052.63937,319.40663 1050.71785,321.21416 1049.61473,323.02809 C1048.51162,324.84203 1045.22653,328.15713 1042.31452,330.395 C1038.32897,333.4579 1037.08503,335.17145 1037.28309,337.32588 C1038.44094,349.92072 1036.66417,360.45829 1032.3275,366.71611 C1028.09755,372.81992 1027.80042,372.99012 1024.22153,371.35948 C1022.25148,370.46186 1021.03893,368.70895 1020.53688,366.03276 C1020.1253,363.83891 1017.74644,357.65781 1015.2505,352.29698 C1000.14871,319.861 997.91585,313.67203 999.20233,307.81478 C1000.07166,303.8567 997.98594,297.8845 995.97048,298.5608 C995.16248,298.83191 994.48736,299.80521 994.47018,300.72367 C994.36944,306.11463 988.31308,306.94229 983.58238,302.21158 L980.44769,299.0769 L983.14444,298.07931 C986.17874,296.95684 985.90027,293.92971 982.81374,294.48455 C981.71702,294.6817 979.20684,293.48586 977.23556,291.82714 C975.26428,290.16841 973.19652,288.81127 972.64054,288.81127 C972.08457,288.81127 971.29046,287.74247 970.87586,286.43617 C969.78728,283.00635 963.52193,280.02235 960.38188,281.43821 C957.55617,282.71233 931.91949,282.44623 927.62846,281.09824 C926.08281,280.61269 923.22373,278.39058 921.27496,276.16025 C917.75346,272.12993 917.69916,272.11386 912.41684,273.53776 C907.41179,274.88691 906.68454,274.75973 899.94263,271.35643 C894.11698,268.41565 892.37164,266.82946 890.57332,262.8415 C888.27877,257.7531 883.18301,254.06873 880.08444,255.25776 C879.1086,255.63222 877.96888,257.49257 877.55172,259.39188 C876.95257,262.11981 877.56352,263.89221 880.45925,267.83013 C882.47555,270.57187 884.67243,274.84717 885.3412,277.3308 C886.77768,282.66545 889.61427,284.25232 891.96559,281.03669 C893.38466,279.096 893.76765,279.02847 894.72828,280.54952 C895.34166,281.52074 895.67253,282.84686 895.46354,283.49645 C894.80667,285.53816 901.62233,288.89768 904.80218,288.09958 C906.40933,287.69621 909.8431,284.95909 912.43275,282.01709 C916.5131,277.38156 917.93778,277.06869 917.2403,280.96135 C916.77087,283.58123 918.83229,286.65216 922.24447,288.41611 C927.51487,291.14069 934.85728,297.21011 934.85728,298.84217 C934.85728,299.59461 933.47686,301.49871 931.78966,303.07353 C930.10248,304.64833 927.67418,307.98048 926.39346,310.47828 C923.28174,316.54716 914.26246,325.42449 911.20828,325.42449 C907.67866,325.42449 902.42747,328.40528 900.3373,331.59529 C899.34688,333.10686 896.7434,335.23876 894.55182,336.33286 C883.32603,341.93702 869.8102,347.61851 866.00652,348.33208 C861.9398,349.095 861.61042,348.91046 859.45587,344.66165 C858.20813,342.20107 856.79259,337.26474 856.31024,333.692 C855.68288,329.04528 854.46619,326.09171 852.03613,323.31652 C850.16774,321.18276 848.63905,318.92456 848.63905,318.29832 C848.63905,317.67208 846.50773,314.96351 843.90277,312.27927 C840.65847,308.93626 838.56209,305.30829 837.24791,300.76247 C836.1927,297.11247 834.04541,292.53165 832.47616,290.58288 C821.63693,277.12227 818.42715,272.37603 816.81142,267.41975 C814.66991,260.85064 812.85889,259.78986 812.02311,264.61506 L811.42984,268.0401 L807.43431,262.99531 C801.2777,255.22197 800.50191,258.75546 806.28166,268.24522 C809.01668,272.73586 813.37655,280.66188 815.97027,285.85859 C818.56397,291.05531 821.92644,296.95179 823.4424,298.96186 C825.00331,301.03154 826.19869,304.26661 826.19869,306.42121 C826.19869,310.87178 827.52647,313.64935 832.74226,320.10967 C834.84006,322.70803 836.91249,326.50161 837.34764,328.53985 C837.90577,331.154 840.18569,333.88745 845.08678,337.81848 C852.5351,343.79257 857.36136,350.02817 858.55923,355.22507 C859.00923,357.17737 860.71372,359.18109 862.87537,360.29892 C866.16913,362.0022 867.32851,361.9555 877.73746,359.70032 C883.94675,358.35502 890.52434,356.48007 892.35432,355.53374 L895.68155,353.81317 L896.47138,358.48816 C897.18914,362.73652 896.41678,364.78259 888.0088,380.90876 C878.96843,398.24765 878.54554,398.82081 869.55667,405.9172 C864.49682,409.91176 859.20189,414.80218 857.79014,416.78479 C856.37839,418.76741 851.86166,424.12202 847.75294,428.68394 C835.76214,441.99737 834.13216,453.7063 842.08493,469.40033 C844.1049,473.38656 844.89397,476.40421 844.41518,478.3119 C844.017,479.89834 844.27225,483.90555 844.9824,487.21682 C846.10047,492.4302 845.97395,493.82436 844.03877,497.61603 C841.24611,503.08774 839.02458,505.05454 831.21825,508.9664 C827.8079,510.67536 825.01762,512.5784 825.01762,513.19537 C825.01762,513.81232 822.62595,517.01 819.7028,520.30132 C816.77965,523.59264 814.38798,526.82045 814.38798,527.47423 C814.38798,528.12801 815.48372,530.81074 816.82294,533.43585 C820.83797,541.30597 818.14002,547.00895 808.51594,550.99539 C804.45866,552.67596 803.12657,556.10708 804.13022,562.29181 C804.65609,565.53243 804.32159,566.61064 802.48549,567.5933 C801.21782,568.27174 798.92608,570.79702 797.39275,573.20506 C792.55123,580.80844 778.63416,594.26238 772.31169,597.45149 C767.03602,600.11259 765.68652,600.34717 761.81029,599.27688 C758.39289,598.3333 755.63488,598.48275 749.90509,599.92203 C740.6242,602.25331 741.60877,602.34987 738.01471,598.75581 C735.51349,596.25444 735.09557,594.97505 735.65455,591.53046 Z M897.06301,215.10843 C897.06301,211.88432 896.37367,209.39645 895.21352,208.43363 C894.19631,207.58941 892.54815,205.32093 891.55095,203.39256 C889.90135,200.20257 889.90836,199.95186 891.62875,200.61207 C893.90051,201.48382 897.06293,200.43532 897.06293,198.81038 C897.06293,198.16817 895.96412,196.09958 894.62113,194.21353 C892.59831,191.37273 891.7877,190.99394 889.89684,192.00589 C888.36797,192.82412 887.61436,192.83169 887.61436,192.02879 C887.61436,191.36953 885.50621,189.75466 882.92957,188.44016 C877.22783,185.53134 875.19882,182.30842 876.97725,178.98538 C878.32319,176.47048 883.13169,174.7082 885.18509,175.97727 C887.9536,177.68831 888.76957,175.16601 886.48532,171.95807 C880.94591,164.1787 873.23301,164.69074 863.66742,173.47291 C857.49458,179.14019 856.95861,180.64627 860.44971,182.51465 C861.74889,183.20995 862.81186,184.56923 862.81186,185.53528 C862.81186,186.50131 864.91265,189.57081 867.4803,192.35638 C873.394,198.77198 874.47846,201.70351 873.74684,209.29624 L873.15784,215.40908 L881.2719,219.57253 C885.73464,221.86243 889.54524,223.76213 889.73989,223.79407 C889.93454,223.82607 891.66186,223.04128 893.57837,222.05022 C896.62731,220.47363 897.06301,219.60564 897.06301,215.10843 Z M856.36066,542.0991 C855.66461,536.52816 855.95515,535.31736 859.28766,529.90136 C862.67468,524.39675 862.91843,523.3364 862.17138,517.35719 C861.09274,508.72406 862.92866,504.18729 867.94636,503.08654 C872.67385,502.04945 882.9026,493.01915 885.35358,487.71883 L887.22648,483.66864 L888.52827,486.52578 C891.80364,493.71443 891.47034,496.87216 885.77197,512.63943 C882.72304,521.07573 879.45199,531.16704 878.50298,535.06458 C875.46578,547.5381 873.7402,550.54567 868.76561,552.0361 C863.46928,553.62292 863.98197,553.62798 861.04033,551.9599 C857.70549,550.0688 857.23165,549.07037 856.36066,542.0991 Z M1442.83656,531.42618 C1439.06826,527.30294 1436.81276,523.7652 1436.81276,521.97761 C1436.81276,518.01464 1437.44906,518.36057 1440.85736,524.17624 C1442.48706,526.95711 1445.43256,530.77692 1447.40306,532.66471 C1449.37346,534.5525 1450.98556,536.52909 1450.98556,537.05715 C1450.98556,539.32888 1448.47146,537.59162 1442.83656,531.42618 Z M915.96016,529.74975 C915.96016,529.10016 916.49164,528.56868 917.14123,528.56868 C917.79082,528.56868 918.3223,529.10016 918.3223,529.74975 C918.3223,530.39934 917.79082,530.93083 917.14123,530.93083 C916.49164,530.93083 915.96016,530.39934 915.96016,529.74975 Z M924.22766,525.68571 C924.22766,525.39925 924.75914,524.8364 925.40873,524.43493 C926.05832,524.03346 926.5898,524.26783 926.5898,524.95576 C926.5898,525.64369 926.05832,526.20654 925.40873,526.20654 C924.75914,526.20654 924.22766,525.97217 924.22766,525.68571 Z M1459.54836,504.11203 C1457.12296,498.88932 1457.97296,496.88299 1460.48116,501.91019 C1463.09156,507.14179 1463.13696,507.31294 1461.91056,507.30018 C1461.42336,507.29518 1460.36036,505.86044 1459.54836,504.11203 Z M1464.69096,501.7239 C1465.08346,502.11636 1465.12536,503.13504 1464.78396,503.98763 C1464.40696,504.9298 1464.12706,504.64995 1464.07036,503.27406 C1464.01956,502.02902 1464.29856,501.33145 1464.69096,501.7239 Z M862.2214,486.0501 C861.81993,485.40051 862.0543,484.86903 862.74223,484.86903 C863.43015,484.86903 863.99301,485.40051 863.99301,486.0501 C863.99301,486.69969 863.75863,487.23117 863.47218,487.23117 C863.18572,487.23117 862.62287,486.69969 862.2214,486.0501 Z M1380.71186,474.95379 C1373.23766,472.59692 1369.84866,470.40759 1366.90716,466.03574 C1363.54676,461.04126 1357.39716,457.26041 1354.25586,458.25744 C1352.98606,458.66046 1350.84896,460.85152 1349.50666,463.12648 C1347.22176,466.9991 1346.78336,467.21252 1342.62976,466.47429 C1340.18966,466.04061 1336.78156,464.36981 1335.05626,462.76139 C1332.86296,460.71689 1331.18216,460.07087 1329.46986,460.61432 C1328.12286,461.04184 1326.17116,460.91618 1325.13276,460.33505 C1323.50966,459.4268 1323.66876,459.00057 1326.26546,457.29914 C1329.27356,455.32817 1329.27786,455.30191 1327.25976,451.06995 C1325.63886,447.67089 1323.40266,445.89976 1316.09026,442.22312 C1311.06156,439.69479 1305.37686,437.62616 1303.45746,437.62616 C1299.06526,437.62616 1297.25166,433.57769 1300.56006,431.15851 C1302.52806,429.71947 1302.24016,429.36178 1297.10606,426.8674 C1291.65406,424.21867 1291.57626,424.10664 1294.18036,422.66053 C1295.65176,421.84342 1298.02146,421.15602 1299.44616,421.13302 C1302.21326,421.08822 1305.71376,425.08064 1305.71376,428.28111 C1305.71376,429.34815 1306.86226,431.68127 1308.26606,433.46583 C1310.78146,436.66357 1310.84546,436.67661 1312.69506,434.36768 C1313.72726,433.07913 1317.02196,430.62086 1320.01656,428.90484 L1325.46136,425.7848 L1333.00836,429.1895 C1337.15926,431.06207 1343.05156,433.49376 1346.10246,434.59324 C1349.15336,435.69273 1355.25576,438.96093 1359.66346,441.85592 C1368.08086,447.38448 1371.73756,452.04549 1369.64026,454.57265 C1367.93076,456.63244 1374.64626,466.0156 1381.59766,471.28002 C1389.23826,477.06639 1389.10916,477.60173 1380.71186,474.95379 Z M1431.87406,473.05832 C1433.30156,473.05832 1434.96566,475.29905 1434.14656,476.11813 C1433.84936,476.4154 1432.93386,475.84856 1432.11216,474.85848 C1431.18056,473.736 1431.09096,473.05832 1431.87406,473.05832 Z M1233.66665,470.05086 C1231.95587,469.10406 1231.46029,468.40775 1232.48735,468.39398 C1234.59698,468.36558 1237.97024,470.33128 1237.17562,471.12586 C1236.86866,471.43282 1235.28968,470.94906 1233.66665,470.05086 Z M1253.63562,468.49002 C1256.98479,463.78642 1262.22685,461.7733 1267.07306,463.3296 C1270.60406,464.46356 1270.65926,464.55819 1267.85546,464.67025 C1266.19636,464.73665 1262.32453,466.38527 1259.25174,468.33404 C1252.2396,472.78097 1250.54665,472.82799 1253.63562,468.49002 Z M1425.00206,470.10563 C1423.40606,468.1826 1423.78776,467.94222 1426.67706,469.05093 C1427.70456,469.44521 1428.54526,470.24244 1428.54526,470.82253 C1428.54526,472.45623 1426.63156,472.06902 1425.00206,470.10563 Z M1430.53356,469.06352 C1430.08966,467.90646 1429.75996,466.07314 1429.80116,464.98948 C1429.85116,463.68454 1430.26096,463.98211 1431.01596,465.87069 C1431.64296,467.439 1431.97256,469.27232 1431.74846,469.94473 C1431.52426,470.61712 1430.97766,470.22059 1430.53356,469.06352 Z M1218.96739,463.50887 C1219.86961,462.04906 1227.43934,462.13041 1228.3536,463.60973 C1228.75505,464.25932 1228.3878,464.79805 1227.53748,464.80692 C1226.68723,464.81592 1224.92849,465.05201 1223.62932,465.33183 C1222.33014,465.61166 1220.59951,465.559 1219.78351,465.21478 C1218.96739,464.87066 1218.60019,464.10297 1218.96739,463.50887 Z M1237.31782,464.32826 C1235.17169,461.74225 1237.64486,460.95518 1243.209,462.45344 C1248.81437,463.96282 1248.79547,464.19856 1242.98531,465.2475 C1239.96802,465.79221 1238.30956,465.52321 1237.31782,464.32826 Z M1414.64656,463.60974 C1413.82936,462.30125 1413.68406,461.2476 1414.32076,461.2476 C1414.95316,461.2476 1416.03926,462.31056 1416.73456,463.60974 C1417.42986,464.90892 1417.57636,465.97188 1417.06016,465.97188 C1416.54406,465.97188 1415.45776,464.90892 1414.64656,463.60974 Z M1422.04286,462.42143 C1418.88526,458.93238 1420.57556,458.38365 1423.82536,461.84279 C1425.34856,463.4642 1426.05306,464.79081 1425.39096,464.79081 C1424.72886,464.79081 1423.22216,463.72459 1422.04286,462.42143 Z M1200.59842,462.21658 C1196.37609,461.63121 1190.4229,460.33244 1187.369,459.33043 C1184.31522,458.32844 1180.71709,457.85759 1179.37314,458.28411 C1176.66908,459.14236 1165.16627,455.76096 1165.16627,454.10781 C1165.16627,450.33246 1175.75434,450.04571 1181.38073,453.66867 C1183.48115,455.02121 1185.13701,455.11163 1189.57831,454.11633 C1194.49818,453.01377 1195.52312,453.14952 1198.41379,455.28674 C1200.21233,456.61644 1202.21885,457.70438 1202.87269,457.70438 C1205.20767,457.70438 1212.29658,461.65533 1211.69837,462.6233 C1211.36306,463.16585 1210.45564,463.53575 1209.68204,463.44532 C1208.90832,463.35482 1204.82075,462.80196 1200.59842,462.21658 Z M1412.60076,456.52331 C1411.42506,455.22413 1410.99456,454.16117 1411.64406,454.16117 C1412.29366,454.16117 1413.78716,455.22413 1414.96296,456.52331 C1416.13866,457.82249 1416.56916,458.88545 1415.91956,458.88545 C1415.26996,458.88545 1413.77656,457.82249 1412.60076,456.52331 Z M1405.15256,455.02737 C1404.48166,454.21889 1403.59066,451.96594 1403.17266,450.02081 C1402.49926,446.88764 1402.57466,446.75366 1403.83356,448.84634 C1404.61506,450.14552 1406.01196,452.08582 1406.93766,453.15811 C1407.91886,454.29457 1408.15206,455.39751 1407.49666,455.80251 C1406.87836,456.18465 1405.82356,455.83581 1405.15256,455.02737 Z M1380.13966,451.27211 L1377.20526,449.64784 L1381.75406,448.79447 C1384.25586,448.32511 1388.10096,446.36241 1390.29846,444.43289 C1392.69746,442.32659 1394.28696,441.56353 1394.27606,442.52337 C1394.24906,444.92506 1392.79626,446.77571 1388.38156,450.0327 C1383.77036,453.43484 1383.98766,453.40215 1380.13966,451.27211 Z M1158.58835,446.67339 C1154.24903,444.2014 1146.42284,434.63739 1143.87487,428.69279 C1142.5005,425.48627 1139.35074,420.20536 1136.87539,416.95741 C1134.40005,413.70946 1131.55869,409.4576 1130.56126,407.50884 C1129.56382,405.56007 1126.5342,401.83969 1123.82876,399.24133 C1118.12455,393.7629 1114.6164,388.00593 1117.00727,388.04709 C1120.10608,388.10049 1128.084,392.53617 1131.50573,396.10823 C1140.94517,405.96241 1142.87925,407.71611 1147.3352,410.46152 C1151.63563,413.1111 1153.67177,415.86853 1153.87615,419.31955 C1153.91465,419.96914 1155.13763,421.82933 1156.59395,423.4533 C1158.05028,425.07728 1160.79795,428.13158 1162.6999,430.24064 C1164.60184,432.34969 1166.50171,435.64029 1166.92183,437.55306 C1168.29694,443.8139 1163.25504,449.33187 1158.58835,446.67339 Z M920.68444,445.89367 C920.68444,445.24408 921.21593,444.71259 921.86551,444.71259 C922.5151,444.71259 923.04659,445.24408 923.04659,445.89367 C923.04659,446.54325 922.5151,447.07474 921.86551,447.07474 C921.21593,447.07474 920.68444,446.54325 920.68444,445.89367 Z M1233.05959,442.39368 C1233.46116,441.12833 1232.97339,438.85113 1231.97348,437.32541 C1230.32872,434.81507 1230.34431,434.28915 1232.14013,431.72529 C1233.23014,430.16901 1234.51633,425.98999 1234.99832,422.43857 C1235.59287,418.05677 1236.76709,415.08889 1238.65161,413.20437 C1241.22918,410.6268 1241.87712,410.51235 1247.67157,411.61124 C1252.64672,412.55477 1254.60446,412.43833 1257.31278,411.03779 C1261.8481,408.69247 1262.17903,408.79734 1260.67293,412.10286 C1258.75841,416.30465 1254.93328,417.64756 1250.89956,415.53405 C1243.69715,411.76033 1234.14086,417.36877 1239.18262,422.41052 C1241.03572,424.2637 1242.06125,424.43221 1245.49403,423.4477 C1251.37766,421.76028 1253.6974,422.07015 1250.04364,424.05544 C1245.90788,426.30256 1245.12306,428.79631 1247.25454,432.91802 C1248.22432,434.79337 1249.01776,437.70156 1249.01776,439.38064 C1249.01776,442.06838 1248.73501,442.2822 1246.65373,441.16831 C1245.35337,440.47243 1243.47759,437.95963 1242.48513,435.58431 C1240.69428,431.29835 1240.66298,431.28308 1238.37111,433.57502 C1236.36104,435.58508 1236.22545,436.478 1237.32551,440.46191 C1238.31961,444.06224 1238.25276,445.25269 1237.0124,446.03892 C1234.92592,447.36152 1233.95685,447.32324 1233.0668,445.88307 C1232.66629,445.22767 1232.6631,443.65744 1233.05959,442.39368 Z M1395.11516,439.5836 C1394.00176,437.88443 1391.45206,435.64674 1389.44906,434.61094 C1387.44596,433.57514 1386.07286,432.46193 1386.39766,432.13714 C1388.23416,430.30062 1398.48296,438.64194 1397.60956,441.26229 C1397.34126,442.06729 1396.27026,441.34649 1395.11516,439.5836 Z M1209.64377,435.65268 C1207.86201,434.71914 1205.46148,434.25456 1204.30911,434.6203 C1201.37108,435.55279 1189.69914,433.17739 1188.54298,431.41168 C1187.62293,430.00669 1184.91745,421.3532 1183.47005,415.18577 C1183.07202,413.48993 1183.47005,411.28965 1184.39955,410.01668 C1185.75152,408.16981 1186.45036,408.02951 1188.59105,409.17518 C1190.85056,410.3844 1191.32984,410.17751 1192.56879,407.45838 C1193.34357,405.75794 1195.92256,403.37434 1198.29994,402.1615 C1200.81774,400.87701 1203.23705,398.47247 1204.09463,396.4022 C1205.08318,394.01544 1206.88869,392.41177 1209.59157,391.51977 C1211.80514,390.7892 1215.00218,388.37444 1216.69607,386.15361 C1218.38996,383.9328 1220.40582,382.11577 1221.17564,382.11577 C1221.94558,382.11577 1224.27595,383.87025 1226.35428,386.01461 L1230.13324,389.91347 L1227.10403,393.98685 C1223.66286,398.61437 1223.84321,402.59439 1227.74228,408.07018 L1230.10301,411.38545 L1227.16143,413.31284 C1225.5436,414.3729 1224.2221,415.89233 1224.22469,416.68934 C1224.23649,419.39468 1216.66678,434.98721 1214.76986,436.17183 C1213.44919,436.99665 1211.91167,436.84093 1209.64377,435.65268 Z M1277.81096,432.90194 C1278.70426,432.90194 1281.20386,433.25572 1283.36576,433.68811 C1286.69436,434.35383 1286.94326,434.61252 1284.98976,435.3767 C1282.42516,436.37996 1281.28466,436.42302 1278.25386,435.631 C1275.80976,434.9923 1275.47056,432.90194 1277.81096,432.90194 Z M1466.33956,420.57039 C1466.33956,420.28393 1466.87106,419.72108 1467.52056,419.31961 C1468.17016,418.91814 1468.70166,419.15251 1468.70166,419.84044 C1468.70166,420.52837 1468.17016,421.09122 1467.52056,421.09122 C1466.87106,421.09122 1466.33956,420.85685 1466.33956,420.57039 Z M1273.93466,413.79945 C1274.58396,412.58636 1274.80026,411.08432 1274.41536,410.46158 C1273.35026,408.73816 1276.01846,404.55622 1278.18326,404.55622 C1279.91966,404.55622 1279.91286,404.75902 1278.10726,406.75319 C1276.54656,408.47763 1276.37306,409.61851 1277.30046,412.05775 C1279.17516,416.98851 1277.13606,420.38764 1274.11546,417.36707 C1273.17216,416.42289 1273.11646,415.32843 1273.93466,413.79945 Z M680.9269,413.48396 C680.9269,413.1975 681.45838,412.63465 682.10797,412.23318 C682.75756,411.83171 683.28905,412.06608 683.28905,412.75401 C683.28905,413.44194 682.75756,414.00479 682.10797,414.00479 C681.45838,414.00479 680.9269,413.77042 680.9269,413.48396 Z M688.01333,399.31104 C688.01333,399.02458 688.54481,398.46173 689.1944,398.06026 C689.84399,397.65879 690.37548,397.89316 690.37548,398.58109 C690.37548,399.26902 689.84399,399.83187 689.1944,399.83187 C688.54481,399.83187 688.01333,399.5975 688.01333,399.31104 Z M1256.12083,381.5534 C1253.86829,376.29837 1253.56759,376.06208 1250.10103,376.82346 C1246.64521,377.58249 1246.52451,377.48976 1247.81943,375.07024 C1248.89161,373.06677 1249.8856,372.66914 1252.42644,373.22719 C1254.87575,373.76515 1256.44067,373.22119 1258.84013,370.99725 C1260.58587,369.37941 1262.02584,367.10025 1262.04013,365.93246 C1262.07673,362.95144 1266.46296,372.94861 1267.46376,378.29356 C1268.22366,382.35189 1268.12876,382.5728 1266.28316,381.04383 C1263.5434,378.77431 1260.90583,381.12873 1263.15364,383.83735 C1264.05067,384.9181 1264.16558,385.65901 1263.43639,385.65901 C1262.76046,385.65901 1261.3714,385.9798 1260.34966,386.37189 C1258.97855,386.898 1257.87071,385.63562 1256.12083,381.5534 Z M1040.77761,383.64018 C1039.45722,381.4955 1038.70643,371.87105 1039.66027,369.31714 C1040.6718,366.60877 1040.7478,366.64164 1043.75685,371.08874 C1047.3631,376.41842 1048.51739,379.83634 1047.32741,381.66134 C1046.18834,383.40827 1041.5058,384.82296 1040.77761,383.64018 Z M1304.53276,377.53091 C1304.53276,376.88132 1305.06416,376.02137 1305.71376,375.6199 C1306.36336,375.21843 1306.89486,375.42145 1306.89486,376.07103 C1306.89486,376.72062 1306.36336,377.58057 1305.71376,377.98204 C1305.06416,378.38351 1304.53276,378.1805 1304.53276,377.53091 Z M1221.85771,370.56801 C1221.85771,370.06303 1224.22552,367.00701 1227.11962,363.77685 C1231.36026,359.04374 1232.3918,358.37481 1232.43444,360.33043 C1232.46394,361.66507 1230.68834,364.72109 1228.48954,367.12159 C1224.76114,371.19211 1221.85771,372.70094 1221.85771,370.56801 Z M1247.63283,363.63305 C1248.46501,362.14607 1248.8113,362.13176 1249.9769,363.53615 C1251.02073,364.79396 1250.97479,365.68954 1249.78285,367.31969 C1248.31891,369.3218 1248.17222,369.32786 1247.43878,367.41659 C1247.00851,366.29525 1247.09579,364.59265 1247.63283,363.63305 Z M342.985555,362.81471 C343.709044,361.94296 343.951282,360.88 343.523864,360.45257 C343.096434,360.02515 343.848517,359.67543 345.195139,359.67543 C347.062083,359.67543 347.496859,360.23642 347.025847,362.03758 C346.667132,363.40931 345.414842,364.39972 344.039118,364.39972 C342.191201,364.39972 341.959463,364.05108 342.985555,362.81471 Z M1255.36388,362.50189 C1254.9237,361.27214 1254.34828,359.86736 1254.08537,359.38017 C1253.82235,358.89297 1254.10777,358.49436 1254.72032,358.49436 C1255.89832,358.49436 1257.55796,363.3442 1256.68031,364.22192 C1256.39649,364.50566 1255.80419,363.73165 1255.36388,362.50189 Z M1243.39549,359.42048 C1241.73656,357.42156 1243.35299,354.57649 1245.8337,355.13021 C1247.38941,355.4775 1247.44633,355.96866 1246.19841,358.27902 C1244.99431,360.50831 1244.47417,360.72016 1243.39549,359.42048 Z M1257.35907,355.36138 C1256.00367,353.63823 1255.09177,352.03128 1255.3327,351.79036 C1256.29244,350.8306 1259.61385,352.94546 1261.38003,355.64086 C1264.09602,359.78612 1260.65119,359.54668 1257.35907,355.36138 Z M1237.94272,350.78927 C1236.8911,349.73755 1236.03057,348.26544 1236.03057,347.51789 C1236.03057,346.77035 1237.19688,347.32504 1238.62231,348.75052 C1240.04787,350.176 1240.90839,351.64813 1240.53458,352.0219 C1240.16078,352.39567 1238.99447,351.841 1237.94272,350.78927 Z M310.857796,350.62055 C310.424733,350.18749 310.070411,349.28398 310.070411,348.61272 C310.070411,347.87267 310.620519,347.9424 311.468009,348.78989 C312.236697,349.55857 312.591019,350.46209 312.255394,350.79771 C311.919769,351.13333 311.290848,351.05361 310.857796,350.62055 Z M304.165053,349.04579 C304.165053,348.3962 304.399425,347.86472 304.685882,347.86472 C304.972339,347.86472 305.535191,348.3962 305.936661,349.04579 C306.338131,349.69538 306.103759,350.22686 305.415832,350.22686 C304.727905,350.22686 304.165053,349.69538 304.165053,349.04579 Z M359.67542,346.68364 C359.67542,346.03406 359.909792,345.50257 360.196249,345.50257 C360.482706,345.50257 361.045557,346.03406 361.447027,346.68364 C361.848497,347.33323 361.614125,347.86472 360.926198,347.86472 C360.238271,347.86472 359.67542,347.33323 359.67542,346.68364 Z M1244.83451,346.00115 C1242.54796,346.57503 1240.97087,345.65516 1236.68996,341.25051 C1230.6424,335.02813 1229.46676,332.40464 1231.24085,329.08982 C1231.92646,327.80882 1232.48735,325.1627 1232.48735,323.20956 C1232.48735,316.79859 1236.78149,317.05773 1239.92929,323.65866 C1241.67314,327.31568 1241.68412,328.10082 1240.04503,332.02333 C1238.28051,336.2463 1238.31523,336.43452 1241.46267,339.71973 C1243.73612,342.09271 1245.44194,342.89831 1247.23847,342.4474 C1248.75709,342.06626 1250.39476,342.5386 1251.28836,343.61533 C1253.41523,346.17804 1252.48715,348.00679 1249.82253,346.50365 C1248.63874,345.83584 1246.39412,345.60971 1244.83451,346.00115 Z M352.58899,339.07639 C352.58899,338.78993 353.120472,338.22708 353.770062,337.82561 C354.419651,337.42414 354.951133,337.65851 354.951133,338.34644 C354.951133,339.03436 354.419651,339.59721 353.770062,339.59721 C353.120472,339.59721 352.58899,339.36284 352.58899,339.07639 Z M538.01724,334.87293 C538.01724,334.22334 538.54872,333.69186 539.19831,333.69186 C539.8479,333.69186 540.37938,334.22334 540.37938,334.87293 C540.37938,335.52252 539.8479,336.054 539.19831,336.054 C538.54872,336.054 538.01724,335.52252 538.01724,334.87293 Z M349.045775,330.28804 C349.045775,329.63845 349.577257,328.7785 350.226847,328.37703 C350.876436,327.97556 351.407918,328.17858 351.407918,328.82817 C351.407918,329.47776 350.876436,330.33771 350.226847,330.73918 C349.577257,331.14065 349.045775,330.93763 349.045775,330.28804 Z M339.015028,325.43788 C338.601252,324.76838 339.075378,324.57038 340.126393,324.97371 C342.172505,325.75887 342.546869,326.60543 340.847981,326.60543 C340.236729,326.60543 339.411892,326.08003 339.015028,325.43788 Z M526.79706,325.42435 C526.39559,324.77477 526.62996,324.24328 527.31788,324.24328 C528.00581,324.24328 528.56866,324.77477 528.56866,325.42435 C528.56866,326.07394 528.33429,326.60543 528.04783,326.60543 C527.76138,326.60543 527.19853,326.07394 526.79706,325.42435 Z M343.730953,323.06221 C343.329483,322.41262 343.563855,321.88114 344.251782,321.88114 C344.939709,321.88114 345.50256,322.41262 345.50256,323.06221 C345.50256,323.7118 345.268188,324.24328 344.981731,324.24328 C344.695274,324.24328 344.132423,323.7118 343.730953,323.06221 Z M349.045775,323.06221 C349.045775,322.41262 349.280147,321.88114 349.566604,321.88114 C349.853061,321.88114 350.415913,322.41262 350.817383,323.06221 C351.218852,323.7118 350.984481,324.24328 350.296554,324.24328 C349.608627,324.24328 349.045775,323.7118 349.045775,323.06221 Z M267.847101,319.91787 C267.035114,319.59023 266.370761,318.83496 266.370761,318.23951 C266.370761,316.53664 271.584271,316.97504 274.117256,318.8909 C276.295271,320.53827 276.232756,320.62216 272.866655,320.56926 C270.917887,320.53866 268.659087,320.24551 267.847101,319.91787 Z M297.733209,319.24783 C296.673976,318.65505 294.33386,318.49368 292.53295,318.88923 C290.732052,319.28478 287.962061,319.08978 286.377441,318.45593 C283.829574,317.43676 284.055112,317.3165 288.327308,317.41638 C294.606652,317.56317 296.282912,316.54055 294.678119,313.54196 C293.53907,311.41363 293.881533,311.25149 299.515989,311.25149 C304.966316,311.25149 312.829324,313.75126 314.16208,315.90769 C315.048085,317.34127 299.848343,320.43152 297.733209,319.24783 Z M320.3883,319.99461 C318.988648,318.59497 320.728201,317.15685 323.820861,317.15685 C325.677907,317.15685 326.618902,317.71361 326.316063,318.63319 C325.77153,320.28663 321.631225,321.23754 320.3883,319.99461 Z M1174.86582,318.11647 C1171.73846,314.9891 1174.83392,311.25149 1180.55126,311.25149 C1183.08573,311.25149 1183.08773,311.27209 1180.91338,314.99516 C1178.37868,319.3351 1176.86549,320.11612 1174.86582,318.11647 Z M330.148629,317.87375 C330.148629,317.61845 330.945852,317.10366 331.920236,316.72974 C332.894621,316.35584 333.691844,316.56472 333.691844,317.19392 C333.691844,317.82312 332.894621,318.33792 331.920236,318.33792 C330.945852,318.33792 330.148629,318.12904 330.148629,317.87375 Z M279.093395,309.40758 C278.728833,309.04301 276.23565,308.71443 273.552988,308.67742 C269.852029,308.62632 268.964064,308.26232 269.87193,307.1684 C270.749372,306.11115 269.489511,304.7036 265.147372,301.88999 C256.634077,296.37357 251.880559,295.29549 246.161102,297.58396 C240.79795,299.72987 240.387185,299.79071 240.387185,298.43908 C240.387185,295.96697 249.786992,293.24834 256.555406,293.76286 C263.028671,294.25495 266.65299,295.63259 279.362549,302.43205 C289.809446,308.02103 289.820938,308.03167 286.448979,308.99308 C282.619933,310.08483 279.922649,310.23682 279.093395,309.40758 Z M287.63005,299.44078 C289.919865,297.96099 291.173265,297.96099 291.173265,299.44078 C291.173265,300.09037 289.97743,300.61371 288.515854,300.60377 C286.366965,300.58917 286.197458,300.36658 287.63005,299.44078 Z M1228.23514,297.34617 C1227.52036,296.87423 1226.29145,295.26526 1225.50403,293.77068 C1224.31717,291.51767 1224.44024,290.42371 1226.22389,287.3696 C1228.97863,282.65277 1230.83893,282.06423 1231.73312,285.62666 C1232.67373,289.37417 1229.95525,298.48195 1228.23514,297.34617 Z M295.38453,295.77213 C296.17306,294.49627 300.622181,294.35197 300.621,295.6023 C300.620551,296.08949 299.295353,296.56453 297.676139,296.65794 C296.056926,296.75134 295.025697,296.35274 295.38453,295.77213 Z M272.029299,284.38935 C270.140529,282.2215 270.415223,279.36256 272.512286,279.36256 C273.183513,279.36256 273.461384,280.40004 273.129786,281.66807 C272.798188,282.9361 273.134506,284.19204 273.877841,284.45906 C274.620865,284.72607 274.915507,285.2863 274.532604,285.70401 C274.149689,286.12171 273.023206,285.53012 272.029299,284.38935 Z M278.89012,275.1107 C278.469789,274.01533 278.391614,272.85337 278.716408,272.52857 C279.041203,272.20378 279.65086,272.83426 280.071192,273.92963 C280.491524,275.025 280.569699,276.18696 280.244904,276.51176 C279.920109,276.83655 279.310452,276.20607 278.89012,275.1107 Z M271.488734,274.04774 C271.488734,273.07335 272.50109,272.27613 273.738404,272.27613 C275.7381,272.27613 275.791213,272.47298 274.216455,274.04774 C273.242071,275.02212 272.229715,275.81934 271.966797,275.81934 C271.703866,275.81934 271.488734,275.02212 271.488734,274.04774 Z M1262.01414,248.15478 C1262.01414,247.23023 1260.72394,244.94049 1259.14709,243.06644 C1255.4038,238.61778 1256.72968,235.64864 1261.16259,238.55318 C1264.34924,240.64112 1266.01476,244.90717 1264.83939,247.97031 C1263.94791,250.29343 1262.01414,250.4197 1262.01414,248.15478 Z M345.50256,241.04744 C345.50256,240.76098 346.034042,240.19813 346.683632,239.79666 C347.333221,239.39519 347.864703,239.62956 347.864703,240.31749 C347.864703,241.00541 347.333221,241.56827 346.683632,241.56827 C346.034042,241.56827 345.50256,241.33389 345.50256,241.04744 Z M1268.59636,239.59582 C1267.83066,237.60031 1269.63846,235.71419 1272.34856,235.68099 C1274.22536,235.65799 1274.26036,238.29829 1272.40756,240.15098 C1270.48186,242.07676 1269.49316,241.93276 1268.59636,239.59582 Z M1266.43936,233.36392 C1263.42411,234.20131 1261.34684,234.21069 1259.94349,233.39322 C1258.80883,232.73227 1258.504,232.17533 1259.26614,232.15558 C1260.02829,232.13588 1262.25307,230.77231 1264.21011,229.12553 C1266.73496,227.00106 1268.58516,226.33636 1270.57996,226.83705 C1272.69386,227.3676 1274.97566,226.35245 1279.77506,222.74627 C1289.11866,215.72558 1289.96366,213.51167 1286.16206,206.00982 C1282.51356,198.80963 1283.53046,196.49153 1288.93676,199.68512 C1292.87166,202.00946 1296.57936,208.66749 1295.50216,211.47458 C1295.11446,212.48493 1295.69256,215.65567 1296.78666,218.52068 C1298.33496,222.57485 1298.48176,224.27957 1297.44876,226.20964 C1295.93166,229.04432 1291.71046,230.9386 1286.91066,230.9386 C1284.22076,230.9386 1283.41716,231.62878 1282.53806,234.69403 L1281.46106,238.44946 L1279.38736,235.28456 C1277.09426,231.78494 1273.85506,231.30446 1266.43936,233.36392 Z M800.92351,231.25331 C799.51389,229.84367 800.26377,228.57648 802.50757,228.57648 C803.76841,228.57648 805.12849,228.045 805.52996,227.39541 C806.62784,225.619 808.50008,225.97568 807.79006,227.82597 C807.06142,229.72477 801.94751,232.27731 800.92351,231.25331 Z M757.10602,227.58726 L761.83031,227.50746 C767.71435,227.40816 772.04892,228.51161 771.1959,229.89183 C770.24573,231.42924 764.7154,231.07153 760.64924,229.20967 L757.10602,227.58726 Z M712.93809,217.42795 C708.21119,215.00802 707.98862,214.70603 710.45628,214.06073 C713.41157,213.28791 719.9528,214.24944 719.81925,215.43706 C719.77365,215.84305 719.37499,217.05522 718.93345,218.13076 C718.20761,219.89885 717.63293,219.83148 712.93809,217.42795 Z M689.26504,204.65002 C688.24287,201.7178 688.32349,200.5955 689.65174,199.26725 C692.05296,196.86603 693.91869,198.55361 693.91869,203.12678 C693.91869,208.52825 690.95516,209.49827 689.26504,204.65002 Z M661.56973,205.63138 C662.40757,203.448 666.00131,203.07872 665.27826,205.25031 C665.0079,206.0623 663.90251,206.89813 662.82183,207.10772 C661.45165,207.37347 661.07269,206.92664 661.56973,205.63138 Z M1278.05746,186.27525 C1279.62566,184.03615 1279.61986,183.36502 1278.00446,180.24128 C1275.34736,175.10321 1275.72066,174.79236 1280.32826,178.30668 C1282.60596,180.04401 1287.10076,182.24683 1290.31666,183.20183 C1296.96176,185.17526 1298.56556,186.72452 1295.10116,187.82406 C1293.79256,188.2394 1292.72186,189.35075 1292.72186,190.29374 C1292.72186,191.57823 1291.90716,191.79981 1289.47396,191.17716 C1283.24246,189.58263 1281.47126,189.97216 1281.87126,192.84906 C1282.36136,196.37415 1281.56566,196.19985 1278.68236,192.15051 C1276.52046,189.11422 1276.46086,188.55458 1278.05746,186.27525 Z M691.16286,193.53801 C689.79298,192.16815 690.30921,189.87927 692.14708,189.174 C693.427,188.68285 693.91869,189.30336 693.91869,191.40978 C693.91869,194.24484 692.76253,195.13769 691.16286,193.53801 Z M1271.18786,168.63709 C1270.18576,167.50031 1267.77056,163.38031 1265.82086,159.48153 C1263.87114,155.58275 1258.71636,148.4231 1254.36576,143.57117 C1249.50506,138.15047 1247.0352,134.55629 1247.95916,134.24831 C1248.78614,133.97265 1250.55952,135.20765 1251.89992,136.99276 C1255.14928,141.31986 1259.15064,145.0772 1265.46466,149.73013 C1270.69816,153.58687 1273.28626,157.15673 1269.90926,155.86086 C1266.01526,154.3666 1266.98716,157.91346 1272.02656,163.58743 C1274.96436,166.8953 1277.36806,169.84974 1277.36806,170.15285 C1277.36806,171.58924 1272.80336,170.4697 1271.18786,168.63709 Z M406.91828,166.57021 C406.91828,165.59583 407.43309,164.79861 408.06229,164.79861 C408.69149,164.79861 408.90037,165.59583 408.52647,166.57021 C408.15255,167.5446 407.63776,168.34182 407.38246,168.34182 C407.12717,168.34182 406.91828,167.5446 406.91828,166.57021 Z M400.7467,162.7589 L396.34673,162.29733 L404.6264,154.0994 C409.18021,149.59054 413.50138,145.90146 414.22898,145.90146 C414.9967,145.90146 414.7666,146.76919 413.68072,147.96908 C411.22192,150.68603 412.89852,153.73832 417.39182,154.72521 C419.35335,155.15603 421.30854,156.65933 422.06411,158.31762 C423.2768,160.97919 423.07125,161.25033 418.97931,162.38678 C414.68649,163.57902 409.56192,163.68362 400.7467,162.7589 Z M112.95636,154.28564 C108.86513,150.46386 108.40878,148.85381 111.12173,147.81275 C113.55123,146.88046 118.036,149.91981 119.73584,153.65057 C121.51949,157.56525 121.48788,157.71218 118.86172,157.71218 C117.63123,157.71218 114.97382,156.17024 112.95636,154.28564 Z M633.0935,148.28497 C634.39268,147.64418 636.9492,146.581 638.77466,145.92235 C642.79683,144.4711 642.13002,142.92542 637.04286,141.908 C633.55321,141.21007 633.43038,141.03253 635.42712,139.57248 C636.61567,138.70338 637.24183,137.43197 636.81855,136.74712 C636.38616,136.04748 637.60079,134.96096 639.5908,134.26723 C641.53879,133.58816 643.13261,132.50803 643.13261,131.86693 C643.13261,129.1389 640.67071,124.54989 639.3029,124.72832 C636.15001,125.1396 634.68926,124.58364 635.19763,123.16583 C635.48877,122.35384 635.24863,120.7594 634.66396,119.62262 C633.14369,116.6667 636.63721,110.5537 639.88466,110.48739 C640.37186,110.47839 640.6376,111.12105 640.4752,111.91761 C640.3128,112.71417 641.42733,113.55512 642.95194,113.78637 L645.72395,114.20685 L643.07528,117.02623 L640.42661,119.84561 L643.41239,120.98081 C646.61715,122.19925 649.70601,126.1688 652.85141,133.11107 C654.35842,136.4372 655.34923,137.30667 657.1083,136.84666 C660.71763,135.9028 661.14578,138.3487 657.7596,140.5674 C655.46554,142.07054 655.03015,142.91749 656.03496,143.9223 C657.03975,144.9271 655.05901,145.60127 648.18898,146.59275 C643.13442,147.32222 637.13867,148.26353 634.86511,148.68455 C631.70286,149.27014 631.28651,149.17623 633.0935,148.28497 Z M613.17605,141.76078 C612.77203,140.70791 613.23295,138.31585 614.20038,136.4451 C615.31037,134.29862 615.52516,132.77541 614.78256,132.31646 C612.73581,131.05149 613.50321,129.43722 616.51005,128.68255 C618.10738,128.28164 620.03264,127.20854 620.78842,126.2979 C622.36187,124.40201 629.63737,124.05312 630.73008,125.82118 C631.13084,126.46962 630.63078,128.18233 629.61871,129.62718 C628.60669,131.07204 627.77868,133.66738 627.77868,135.39461 C627.77868,138.02852 626.9691,138.81605 622.75913,140.27739 C619.99837,141.23568 616.87806,142.3922 615.8251,142.84741 C614.5904,143.3812 613.64981,142.99537 613.17605,141.76078 Z M634.86511,130.0267 C634.86511,129.74024 635.39659,129.17739 636.04618,128.77592 C636.69577,128.37445 637.22725,128.60882 637.22725,129.29675 C637.22725,129.98468 636.69577,130.54753 636.04618,130.54753 C635.39659,130.54753 634.86511,130.31316 634.86511,130.0267 Z M110.70531,124.336 C109.54832,122.94191 109.62201,122.29225 111.07381,121.08736 C113.47406,119.09534 114.66456,120.44666 113.26755,123.57746 C112.30417,125.73648 111.95371,125.84023 110.70531,124.336 Z M108.85834,115.45352 C108.4595,114.80818 108.92454,113.6234 109.89177,112.82066 C111.81208,111.22694 112.2131,112.47681 110.59886,115.02442 C109.98209,115.9978 109.29883,116.16625 108.85834,115.45352 Z M41.18031,111.18544 C43.10624,110.71887 44.24492,110.8314 43.8623,111.4505 C43.49659,112.04221 41.72474,112.82353 39.92485,113.18673 C38.12497,113.54994 35.72224,114.20693 34.58545,114.64671 C33.44867,115.0865 32.51858,115.11056 32.51858,114.70021 C32.51858,113.86943 36.09984,112.41622 41.18031,111.18544 Z M734.37039,101.41961 C732.19145,100.54038 732.57704,99.18515 735.05935,98.99816 C736.25027,98.90846 737.22465,99.59257 737.22465,100.51843 C737.22465,102.27695 736.81537,102.40617 734.37039,101.41961 Z M465.94885,79.81701 C466.97378,77.34262 467.0051,75.7867 466.0653,74.03074 C464.10952,70.37633 466.66126,66.09371 473.18689,62.07845 C476.28635,60.17133 479.38097,57.56702 480.06383,56.2911 C481.95571,52.75609 480.27075,46.69823 476.97837,45.19813 C475.31206,44.43891 474.40524,43.23837 474.77339,42.279 C475.61183,40.09403 471.67963,32.63161 467.76323,28.97537 C464.88076,26.28436 463.64069,26.0164 453.7707,25.95176 C440.3302,25.86376 437.82647,25.11658 438.04876,21.26007 C438.14116,19.6581 438.49634,18.34701 438.83816,18.34655 C439.18,18.3461 443.96334,17.79175 449.46781,17.11467 C456.49612,16.25015 462.79732,14.46725 470.63125,11.12654 C482.76026,5.95425 483.68417,5.8532 512.62416,6.53342 C521.76269,6.74822 530.16979,6.07189 540.96988,4.2531 C551.02751,2.55933 558.42817,1.92083 562.42433,2.40208 C565.81979,2.81098 570.73611,2.54131 573.51173,1.79392 C579.95278,0.05952 596.68771,2.14582 603.26985,5.50377 C607.16114,7.48896 609.21996,7.7511 615.78607,7.0974 C622.87855,6.39129 623.41455,6.48417 621.28275,8.04988 C619.98357,9.00406 615.99745,10.16965 612.42471,10.64007 C604.67204,11.66087 597.54834,17.18647 599.4365,20.71455 C600.25101,22.23645 599.6669,23.53545 597.03366,26.05825 C595.12025,27.8914 593.27469,30.27364 592.9324,31.3521 C592.11009,33.94296 581.66866,38.76485 576.49133,38.94464 C570.74115,39.14432 570.13979,40.36672 574.58677,42.81608 C576.68749,43.97314 579.75403,45.94466 581.40128,47.19722 L584.39629,49.47461 L581.68858,50.47626 C579.61291,51.24409 577.92915,50.74907 574.47532,48.35556 C569.78833,45.10748 564.74556,45.09115 567.43586,48.33276 C568.48503,49.59692 568.23246,50.08797 566.26898,50.60143 C561.87991,51.7492 564.9845,54.01883 569.82495,53.20105 C572.90574,52.68055 574.63837,52.95487 575.60173,54.11566 C576.74799,55.49681 575.25292,56.13633 566.65083,57.9444 C560.97101,59.13824 553.40069,60.15869 549.82795,60.21207 C543.19086,60.31127 538.40779,62.2166 531.37181,67.56426 C529.07744,69.30808 524.20163,71.03625 518.49613,72.12789 C506.57135,74.40948 502.54161,77.0481 495.35642,87.27943 C489.58527,95.49726 486.10533,98.56017 482.50687,98.58914 C481.53249,98.59714 478.07785,97.15424 474.8299,95.38305 C467.35594,91.30729 463.78322,85.0453 465.94885,79.81701 Z M384.17933,81.02481 C381.71452,77.13193 379.44204,76.63738 372.78794,78.54575 C370.53535,79.19178 368.00756,79.25404 366.99679,78.68838 C363.499375,76.73113 369.81657,74.80616 376.85229,75.68521 C382.20316,76.35376 383.39209,76.16323 384.01605,74.53722 C385.26975,71.27015 391.00763,68.92878 394.19804,70.38243 C396.16205,71.2773 397.94751,71.25234 400.45586,70.29493 C403.83059,69.00686 403.8774,68.89056 401.67299,67.27195 C400.41206,66.34609 398.97289,65.58857 398.47483,65.58857 C397.97678,65.58857 396.17882,63.21592 394.47937,60.31603 C392.77991,57.41613 389.59479,53.93432 387.40129,52.57866 C383.67346,50.27474 383.18028,50.23425 379.84595,51.95851 C376.9309,53.46594 375.2469,53.57148 370.6345,52.53581 C367.53016,51.83876 363.195805,51.604 361.00259,52.01411 C357.19785,52.72558 350.226847,50.86369 350.226847,49.13601 C350.226847,45.96224 360.229531,38.83949 366.17131,37.78222 L370.8956,36.94159 L367.51863,40.53946 C362.86025,45.50257 364.612098,47.78663 369.67062,43.3452 C371.8164,41.46117 375.52498,39.55333 377.91189,39.10554 C381.55906,38.42132 383.12151,38.86749 387.70107,41.90086 C393.79424,45.93681 394.26375,46.04505 397.69999,44.20604 C399.76922,43.09862 400.53664,43.40277 402.78372,46.22088 C404.338,48.17013 407.80907,50.29269 411.19386,51.36367 C416.58836,53.07055 416.95739,53.44184 416.95739,57.16247 C416.95739,59.95251 417.76205,61.71308 419.65638,63.06783 C427.58256,68.73631 427.40972,68.50216 425.69467,71.2484 C423.34312,75.01384 421.48621,75.2867 416.28175,72.63158 C412.66113,70.78447 411.07934,70.53117 409.25671,71.50662 C407.02634,72.70028 407.00257,72.95528 408.79796,76.42718 C410.27143,79.27656 410.40602,80.71534 409.40472,82.91296 C408.17087,85.62096 407.97433,85.66279 404.6241,83.93032 C398.03794,80.52448 393.60286,82.76564 399.74679,86.39495 C401.67169,87.53202 402.97841,88.89631 402.6506,89.42671 C401.50669,91.27761 395.66309,90.29583 391.08647,87.48383 C388.55007,85.92541 385.44186,83.01884 384.17933,81.02481 Z M633.68404,89.01317 C633.68404,88.47185 634.48126,88.02895 635.45565,88.02895 C636.43003,88.02895 637.22725,88.47185 637.22725,89.01317 C637.22725,89.5545 636.43003,89.9974 635.45565,89.9974 C634.48126,89.9974 633.68404,89.5545 633.68404,89.01317 Z M346.554505,82.66142 C344.226082,81.43727 342.417648,81.33249 339.156934,82.23282 C333.61296,83.76358 331.674255,82.64339 334.487496,79.5348 C338.088974,75.55521 340.531512,74.77253 344.875388,76.20614 C349.764481,77.81969 351.934334,80.2179 350.615407,82.55025 C349.774591,84.03713 349.201074,84.05283 346.554505,82.66142 Z M581.12635,82.12359 C579.17758,80.84224 576.69708,80.07415 575.61415,80.41671 C574.12268,80.88851 573.79173,80.47901 574.24956,78.72829 C574.95223,76.04127 585.32947,72.163 588.83743,73.27638 C590.06047,73.66456 593.18646,73.34538 595.78406,72.56714 C599.86196,71.34537 600.943,71.43782 603.69974,73.24411 L606.89251,75.33609 L604.04854,77.55244 C601.64813,79.42311 597.19598,81.04621 586.44117,83.97145 C585.46679,84.23648 583.07512,83.40494 581.12635,82.12359 Z M251.674226,56.98886 L245.835729,54.36841 L254.036369,53.77787 C258.546717,53.45308 262.23701,52.65585 262.23701,52.00626 C262.23701,51.35667 259.048117,50.54033 255.150581,50.19216 C250.004581,49.73246 249.034366,49.40906 251.607366,49.01109 C255.915419,48.34475 256.225852,46.47896 252.197902,45.46171 C249.297331,44.72917 249.31852,44.68443 253.398591,42.92649 C260.469619,39.87986 268.001289,39.29623 274.674167,41.27786 C280.152839,42.90486 281.008762,42.89791 283.591754,41.20546 C285.418458,40.00855 286.502221,39.80829 286.596613,40.65023 C286.677753,41.37453 286.810682,42.5872 286.891881,43.34506 C287.166019,45.90373 289.521926,45.57264 292.333019,42.58037 C294.935404,39.81026 299.446353,38.48328 299.436349,40.4908 C299.433949,40.97799 298.383212,43.09661 297.101442,45.19884 L294.770963,49.02108 L298.582198,51.00944 L302.393446,52.9978 L296.135609,55.85405 C290.488669,58.43147 289.330215,58.57894 284.268614,57.36468 C279.360789,56.18731 277.952786,56.32197 273.007722,58.44167 C267.422399,60.83583 266.244505,60.98931 260.465403,60.07595 C258.84143,59.8193 254.885395,58.43011 251.674226,56.98886 Z M307.833757,59.2439 C306.766966,57.9585 307.207411,57.32591 309.964221,56.184 C311.883144,55.38915 314.635796,55.12419 316.110801,55.59234 C318.668825,56.40422 318.609902,56.5319 314.72153,58.60273 C309.760616,61.24478 309.513442,61.26779 307.833757,59.2439 Z M633.68404,53.77787 C635.97385,52.29808 637.22725,52.29808 637.22725,53.77787 C637.22725,54.42746 636.03142,54.9508 634.56984,54.94086 C632.42095,54.92626 632.25144,54.70368 633.68404,53.77787 Z M846.25324,46.12945 C847.07493,45.13936 847.28355,44.31239 846.71681,44.29174 C846.15008,44.27104 846.74941,43.45097 848.04854,42.46929 C849.34772,41.4876 850.41957,40.30867 850.43044,39.84944 C850.47174,38.10255 855.2803,33.49572 858.67818,31.94763 C860.62695,31.05977 865.67603,30.05906 869.89836,29.72385 C874.12069,29.38863 879.77627,28.77448 882.4663,28.35907 C885.32931,27.91694 887.66257,28.09772 888.09354,28.79507 C888.93094,30.15001 887.33283,30.72594 878.16586,32.37284 C869.0695,34.00705 863.60185,36.55366 860.00061,40.83349 C856.20688,45.34207 856.07987,48.18879 859.56399,50.61918 L862.2214,52.4729 L858.67818,52.4201 C856.72941,52.3911 853.00904,51.52755 850.41068,50.50122 C844.37225,48.11607 844.49626,48.24647 846.25324,46.12945 Z M231.830085,47.07674 C229.925312,45.17197 230.359556,44.75731 239.498051,39.75455 C250.205363,33.89297 255.585758,33.11483 265.189689,36.03889 L270.504512,37.65707 L263.418082,39.0622 C257.622552,40.21137 245.34073,44.31841 235.641852,48.35058 C234.652468,48.7619 232.944438,48.1911 231.830085,47.07674 Z M317.156841,45.54809 C317.156841,44.91925 315.695265,43.56584 313.908894,42.54052 L310.660947,40.6763 L315.009747,41.36019 C318.099714,41.84613 319.638178,41.55666 320.32457,40.3602 C321.140903,38.93725 328.658022,36.08993 331.655298,36.06838 C332.159167,36.06438 331.747898,37.65442 330.741255,39.60096 C328.370431,44.18563 317.156841,49.09483 317.156841,45.54809 Z M335.545288,42.09956 C333.853166,39.36166 345.409988,35.12352 350.319195,36.68164 C353.897074,37.81722 351.505782,39.76857 345.265023,40.80596 C342.472521,41.27015 339.311406,42.02329 338.240328,42.4796 C337.169249,42.93592 335.956478,42.7649 335.545288,42.09956 Z M373.25774,33.40249 C365.46267,32.78244 358.939506,32.14024 358.761814,31.97536 C357.705735,30.99546 360.339619,27.80575 363.174463,26.63152 C365.96159,25.47705 367.24604,25.63026 371.06182,27.5723 C374.781,29.46517 377.17832,29.7798 384.08759,29.28185 C388.74484,28.9462 394.05966,29.05235 395.89831,29.51775 L399.24132,30.36392 L395.10757,32.57282 C392.83401,33.78771 390.17659,34.72504 389.20221,34.65578 C388.22783,34.58648 381.05282,34.02253 373.25774,33.40249 Z M711.3395,24.23299 C713.12587,24.22299 715.38467,23.64143 716.35905,22.94051 C717.89058,21.83881 717.87007,21.74873 716.20771,22.27576 C715.15008,22.61107 713.66637,22.26676 712.91057,21.51124 C711.86572,20.4664 711.32144,20.4849 710.63939,21.58844 C710.00793,22.61018 708.71139,22.73108 706.25955,21.99685 C700.03143,20.13174 698.64298,19.3037 698.64298,17.45448 C698.64298,15.8881 700.20429,15.74466 709.86316,16.42361 C717.21929,16.94069 721.08334,16.79735 721.08334,16.0074 C721.08334,13.68243 724.3603,14.83049 725.22928,17.4599 L726.1075,20.11731 L726.63024,17.4599 C726.91775,15.99832 727.91324,14.80249 728.84245,14.80249 C729.77166,14.80249 730.53191,14.16471 730.53191,13.3852 C730.53191,12.28287 730.84687,12.28287 731.9492,13.3852 C732.77363,14.20963 736.72597,14.80249 741.39777,14.80249 C749.84182,14.80249 751.82493,16.31218 746.19341,18.45329 C743.2668,19.56598 738.17701,19.25123 732.59879,17.6126 C731.46201,17.27867 730.53528,17.43988 730.53938,17.97084 C730.54738,19.06079 737.18384,23.06999 738.97949,23.06999 C739.62283,23.06999 740.89481,23.81559 741.8061,24.72688 C743.22791,26.14869 743.21595,26.47858 741.7218,27.05196 C740.76412,27.41946 739.98055,27.14616 739.98055,26.44469 C739.98055,25.62006 738.47836,25.45106 735.73055,25.96655 C732.75484,26.5248 731.72293,26.37163 732.289,25.45572 C732.73366,24.73625 732.45516,23.37364 731.67012,22.42771 C730.15558,20.60286 725.80765,20.04413 725.80765,21.67437 C725.80765,22.20596 724.08034,24.5506 721.96917,26.88467 L718.13069,31.12845 L713.14402,28.57556 C707.34212,25.60536 706.7824,24.25837 711.3395,24.23299 Z M399.83186,25.97731 C397.78436,24.77538 394.88777,24.42722 390.38328,24.84161 C386.17296,25.22895 382.93575,24.89501 381.18272,23.8925 C378.76592,22.5104 379.35666,22.3529 386.73306,22.41263 C395.95688,22.48733 400.00783,20.51278 395.01252,18.37702 C392.63945,17.36241 392.98549,17.2703 397.05323,17.83381 C402.36359,18.56947 404.42802,17.14667 401.53456,14.74532 C398.44927,12.18476 401.84172,11.38986 412.81954,12.10108 C419.6127,12.54119 423.88145,12.29433 425.62639,11.36046 C428.96923,9.57143 427.65758,7.29408 423.83666,8.25307 C421.19592,8.91585 402.86918,7.82827 403.64277,7.05468 C404.19562,6.50184 430.15999,4.09716 447.20864,3.01984 C456.05176,2.46104 465.88418,1.68153 469.05847,1.2876 L474.8299,0.57135 L465.30247,5.14777 C456.36982,9.43847 441.84365,13.62143 435.87592,13.62143 C434.42307,13.62143 430.24645,15.21588 426.59454,17.16465 C422.94263,19.11342 419.22233,20.70786 418.32722,20.70786 C417.4321,20.70786 413.56882,22.29558 409.74213,24.23612 C405.91545,26.17666 402.78453,27.75227 402.78453,27.73748 C402.78453,27.72268 401.45583,26.93061 399.83186,25.97731 Z M376.80096,15.18688 C371.07691,13.9203 370.8671,13.44384 375.07346,11.26375 C381.20477,8.08597 387.00679,7.2715 389.64465,9.21829 C391.73309,10.7596 391.61201,10.99785 387.51027,13.41794 C383.23533,15.94021 381.50049,16.22677 376.80096,15.18688 Z" id="path2830"></path>
        </g>
    </g>
</svg>