<svg height="710" viewBox="0 0 1468 710" width="1468" xmlns="http://www.w3.org/2000/svg"><path d="m361.959789 700.61916c.660208-1.7365 1.92836-3.1572 2.818108-3.1572.889763 0 4.784553 2.0468 8.655113 4.5484 3.87055 2.5017 8.60343 5.1172 10.51748 5.8122l3.48011 1.2636-4.28138.093c-2.35476.051-5.8094.3148-7.67697.5856s-5.13451-.1584-7.25986-.9538c-5.999639-2.245-7.677682-4.4435-6.252601-8.1918zm-11.54977-3.8059c-1.476198.4685-2.616074-.2294-3.708482-2.2705-.86745-1.6209-2.422177-3.2377-3.454954-3.5929-2.369572-.815-7.336604-8.8624-10.101315-16.36571-1.396299-3.78947-3.27412-6.40899-5.503286-7.67697-3.955704-2.25003-4.238878-3.27049-1.17721-4.24223 3.502752-1.11172 4.154443-7.28662 1.206028-11.42728-1.4072-1.97624-2.147696-4.29669-1.723727-5.40156.500314-1.30378-.880536-3.59153-4.224091-6.99837-4.220359-4.30022-5.000799-5.86343-5.189558-10.3945-.122193-2.9332-.836376-6.07316-1.587065-6.97768-.94566-1.13945-1.138541-5.2292-.627987-13.31493.553332-8.76296.231029-14.17132-1.293746-21.70944-2.264363-11.19452-3.420974-32.05213-2.8326-51.08135.125536-4.05993-.400666-9.63389-1.169331-12.38658-1.87181-6.70318-10.484184-15.16456-21.128344-20.75791-7.613094-4.00056-8.683641-5.02624-11.659646-11.17093-1.802292-3.72126-5.246733-9.28288-7.654324-12.35916-2.407603-3.07628-5.025212-7.59388-5.81692-10.03911-2.512848-7.76109-6.94254-15.55931-9.962162-17.53784-1.60686-1.05286-3.439682-3.79074-4.072937-6.08421-1.02458-3.71073-.754492-4.74676 2.45272-9.40827 3.477641-5.05459 3.518636-5.26071 1.168493-5.87529-5.774696-1.51012-3.346071-9.22866 7.019415-22.30875 6.889239-8.69344 8.907466-15.31624 6.999055-22.96735-.727269-2.91572-1.3785-5.96568-1.447179-6.77766-.068739-.81199-.586473-1.47634-1.150648-1.47634-.564174 0-.455669-1.06528.241152-2.36728 1.073653-2.00615.802467-2.5789-1.777643-3.75448-3.760414-1.71335-9.438416-.0195-9.460348 2.82228-.02634 3.40766-1.524929 3.6587-6.466202 1.08317-2.646416-1.37938-5.39523-2.50798-6.108479-2.50798-.713261 0-3.487173-1.88687-6.164261-4.19303-2.677088-2.30617-5.531785-4.71879-6.343772-5.36139-.811986-.6426-1.476339-2.39374-1.476339-3.89142s-1.042957-3.66692-2.317676-4.82053c-1.274731-1.15361-2.926542-3.94232-3.6707-6.19714-.978057-2.96353-1.710463-3.74223-2.642825-2.80987-1.945768 1.94577-4.82665 1.57622-11.818936-1.51609-3.655441-1.61662-7.463676-4.37747-8.984826-6.51372-1.452104-2.0393-4.226453-4.5281-6.165217-5.53067-3.199405-1.65448-3.999345-1.64172-8.659877.13816l-5.134851 1.96101-15.754258-7.63407c-9.69082-4.6959-17.21178-9.17543-19.54129-11.63894-3.6119-3.81967-3.72877-4.23446-2.52692-8.96936 1.10099-4.33758.91403-5.67948-1.48062-10.62649-1.50741-3.1141-4.80097-7.89722-7.31902-10.62914-2.51805-2.73191-4.29226-5.42992-3.94267-5.99555.34957-.56562-1.42418-4.37776-3.94167-8.47141-2.85994-4.65052-4.87833-9.6321-5.37973-13.27775-.64275-4.67339-1.39167-6.10321-3.76259-7.18347-2.51322-1.1451-3.21598-.99916-4.655.96669-2.02672 2.76872-1.45057 5.69173 3.03076 15.37588 1.82106 3.93532 3.70302 9.76916 4.18213 12.96407.47911 3.19492 1.89425 7.81448 3.14476 10.26569 2.96198 5.80595 1.04946 5.70351-3.62143-.19397-2.75488-3.47831-3.49889-5.38594-2.95142-7.5673.58456-2.32906.009-3.4507-2.85428-5.56806-4.34257-3.21059-5.26164-5.2817-3.66648-8.26228.93021-1.73812.50367-3.64427-1.85868-8.30615-2.39904-4.73427-2.90082-7.02763-2.30685-10.54332.97096-5.74708-1.60746-10.94864-6.41421-12.93966-2.77525-1.14955-3.73197-2.43553-4.29743-5.77645-.40007-2.36374-1.1663-6.02083-1.70272-8.12689-.55799-2.19071-.5174-4.11222.0949-4.49061.5886-.36377.20347-1.98417-.85584-3.60088-1.56016-2.38111-1.66699-3.50796-.5624-5.93227.74999-1.64604 1.03306-3.52765.62905-4.18135-.40401-.65369.60277-2.60692 2.23728-4.34051s3.8106-5.19102 4.83574-7.68319c1.02515-2.49217 4.18431-7.11207 7.02037-10.26644 2.83605-3.15439 6.43146-8.67989 7.9898-12.27891 2.16305-4.99564 3.43094-6.54843 5.35951-6.56382 1.3894-.0106 2.45237.6442 2.36215 1.45618-.37598 3.38371 2.29955 2.34125 5.30474-2.06687 1.77141-2.59836 2.72717-4.90145 2.12392-5.11798-.60324-.21653-1.09681-1.19402-1.09681-2.17222 0-.97819-2.44505-4.15485-5.43343-7.05922-4.95654-4.81722-5.27485-5.45592-3.6267-7.27709 1.33529-1.47549 1.49233-2.55818.60183-4.14941-1.56493-2.79638.90447-9.05861 3.58203-9.08378-.78083-2.00499-1.47099-4.54667-1.25697-8.24942.34182-5.91393-.95236-8.38769-5.3492-10.2248-2.37157-.99091-5.99032-3.08181-8.04168-4.64646s-4.65399-2.84481-5.78363-2.84481c-1.12963 0-6.26443-1.07506-11.41067-2.38901-8.27374-2.11247-9.73198-2.19591-12.59804-.72083-5.93955 3.05691-12.23227 4.30284-14.79768 2.92987-1.92428-1.02984-4.02426-.39385-11.34689 3.43647-4.94208 2.58511-10.84578 5.10135-13.11935 5.59165-2.27356.49031-6.62463 2.14658-9.66905 3.68062-8.63542 4.35126-21.00567 8.73751-24.42737 8.66146-2.2083-.0491-.71532-1.01764 5.16017-3.34761 9.98541-3.95979 20.24589-9.11649 21.19497-10.65213 1.1689-1.89132-1.36846-2.56995-4.41644-1.18119-2.24409 1.02247-3.62708.92681-6.21664-.43l-3.33049-1.74502 3.62287-1.87346c4.09542-2.11782 5.38372-4.51387 4.44276-8.26293-.91131-3.63094 4.11332-6.29881 14.93767-7.93128 5.81609-.87715 10.23753-2.3372 13.21433-4.36363 5.24924-3.57338 4.34742-6.27412-1.31224-3.92981-2.67928 1.10979-4.63081 1.12193-8.59867.0535-4.82199-1.29843-4.99377-1.48376-2.83694-3.06088 3.60893-2.63891 11.07297-4.22621 15.97706-3.39767 3.10319.52428 5.6451.15725 8.25387-1.1918l3.7697-1.94939-2.48152-2.64147c-1.36484-1.45281-2.48153-2.95383-2.48153-3.33561 0-1.09581 7.11011-3.28736 10.66527-3.28736 1.77449 0 6.6391-1.28456 10.81023-2.85457 4.17114-1.57001 13.7945-3.71343 21.38526-4.76316 12.31151-1.70256 14.91858-1.72335 24.15041-.19261 5.69196.94379 13.53791 2.06944 17.43545 2.50144s10.79613 1.80323 15.33019 3.04718c10.530494 2.88909 17.389273 2.85384 29.153549-.14984 5.194826-1.32636 10.445256-2.09414 11.667618-1.70618 1.22235.38796 3.300705.12833 4.618557-.57697 1.815838-.9718 3.223947-.85424 5.814687.48549 2.340742 1.21044 5.230081 1.55592 9.16397 1.09572 4.15031-.48551 7.784384.0173 13.089805 1.81123 4.039443 1.36584 8.525755 2.48334 9.96958 2.48334-1.857814 3.29924-1.86405 3.41172.192585 4.20868 1.183965.4588 5.294012.50584 9.133416.10454 6.933835-.72473 6.993822-.70434 8.927307 3.0346l1.94656 3.76423 2.526761-3.16886c1.452009-1.82098 4.902628-3.88389 8.112438-4.8499 4.851169-1.45999 6.323399-1.45512 11.195768.037 3.43941 1.05329 7.555894 1.43701 10.638987.99171 3.925799-.567 5.74863-.21383 8.310032 1.61004 3.233632 2.30256 3.323252 2.30373 6.191283.081 1.600577-1.24047 4.894172-2.80817 7.319078-3.48379 5.805286-1.61743 7.774215-5.06402 4.287916-7.50592-2.465417-1.72684-2.357573-1.8586 4.123014-5.03697 4.833205-2.37043 7.00966-2.90872 7.951719-1.96667.942058.94206.932491 1.97833-.03496 3.78603-1.648953 3.08109.403513 7.73828 2.975391 6.75136.924566-.35479 2.458271-.34682 3.40823.0177 1.492119.57257 1.468226 1.05805-.175566 3.56679-4.541079 6.93056 5.639617 4.96688 12.531831-2.41717 2.802093-3.00206 7.143724-3.91225 11.212976-2.35072 2.628048 1.00847 2.381818 1.83406-1.970275 6.60604-5.186416 5.68681-7.840414 6.84992-15.630208 6.84992-3.764925 0-8.209428.81563-10.280461 1.8866-2.866767 1.48246-4.264672 1.60575-6.525751.57553-4.215445-1.92068-5.682962-.32203-2.6591 2.89672l2.581137 2.7475-5.149732 1.46155c-2.832351.80386-7.541402 1.53927-10.464554 1.63425-4.239079.13774-5.316464.59793-5.322936 2.27365-.0059 1.43392-2.067951 2.94294-6.495894 4.75294-14.347623 5.86482-26.518554 16.43927-22.112094 19.21161.825651.51946 2.136275 2.3914 2.912499 4.15984.893847 2.03647 2.616888 3.45672 4.699413 3.87364 1.808469.36204 6.477009 2.22862 10.374545 4.14794 3.897536 1.91933 8.680876 3.83718 10.629645 4.2619 5.365147 1.1693 5.41213 1.29238 2.913384 7.63174-2.137763 5.42354-2.180919 6.19745-.524254 9.40109.992904 1.92006 2.45598 3.47218 3.25129 3.44916 3.869993-.11196 7.49873-3.68356 9.753431-9.59975 2.149031-5.63891 3.128328-6.69077 9.296463-9.98526 9.103192-4.86218 12.888763-9.65092 11.879986-15.02816-.657089-3.50261-.315783-4.32456 2.682166-6.45929 1.889278-1.34529 4.390646-4.56509 5.558584-7.15511 2.610629-5.78934 6.80576-7.79622 13.879574-6.63973 6.27337 1.02562 13.69228 5.00854 14.58839 7.83194.36785 1.159.0624 3.24046-.67887 4.62546-1.12267 2.09772-.91061 2.98345 1.27006 5.30466l2.61775 2.78648 4.2746-2.21584c2.35104-1.21869 6.11922-3.59608 8.37376-5.28307l4.09917-3.06726.96303 2.60334c.52968 1.43184.68002 3.34089.33409 4.24234-.34591.90145-.0769 2.67051.59783 3.93124.75906 1.41831.81809 3.0225.15482 4.20767-.74781 1.33628-.24803 3.36594 1.65286 6.71253 2.72315 4.79418 2.72336 4.79808.33194 6.47308-3.14671 2.20406-1.1278 4.54159 2.32605 2.69314 3.43013-1.83575 7.3567-1.59702 9.77831.59451 3.57964 3.23954.60281 7.11513-8.89866 11.58533-10.33476 4.86224-14.94093 5.82538-28.43039 5.94471-9.96083.0881-11.27987.40575-20.964017 5.0481-5.683907 2.72474-10.334376 5.42162-10.334376 5.99308 0 2.43703 1.791048 2.22495 8.662357-1.02574 4.048631-1.91533 9.267186-3.44544 11.752676-3.44596 4.24542-.00089 4.40027.13043 3.07454 2.60758-.76781 1.43467-2.42407 3.44097-3.68057 4.45841-1.97532 1.59952-2.09098 2.27478-.85446 4.98864 1.8544 4.06997 6.69722 6.02845 12.48995 5.05103l4.57819-.77249-3.52012 2.42853c-1.93606 1.3357-5.12496 2.77508-7.08643 3.19865s-5.99264 1.99252-8.95817 3.48658c-3.010317 1.51663-6.034605 2.31924-6.847064 1.8171-1.869128-1.15518.103816-2.88832 6.176494-5.42563 5.40103-2.2567 4.53759-4.65401-1.282948-3.56207-2.267209.42533-9.618931 3.1945-16.33715 6.1537-10.486238 4.61891-12.315612 5.8386-12.926108 8.61816-.750394 3.41652-3.310567 5.03248-12.311609 7.77097-2.871327.87358-6.591702 2.98468-8.267501 4.69137-1.675799 1.70668-4.884546 4.26198-7.130543 5.67845-2.245997 1.41646-4.396397 3.89813-4.778663 5.5148-.629972 2.66426-.776472 2.72745-1.565168.67503-1.477851-3.84579-3.704656-.086-3.832837 6.4715-.131335 6.71868-3.536991 11.30169-11.00623 14.81112-7.657985 3.59811-18.55493 12.10049-20.762802 16.20026-1.949229 3.61951-2.030876 5.02957-.829939 14.33287 1.120353 8.67909 1.053481 10.85698-.420922 13.70816-1.101019 2.12914-2.385706 3.1469-3.454516 2.73676-2.534214-.97247-5.633936-11.40088-4.765199-16.03161.603409-3.21648.203664-4.43529-2.193203-6.68704-1.931867-1.8149-3.715096-2.50481-5.230789-2.02375-1.265388.40162-4.842536-.36009-7.953502-1.69362-4.766392-2.04311-6.287399-2.2144-9.690433-1.0913-2.30707.76141-4.599352 2.56725-5.349971 4.21469-1.116738 2.45098-1.856373 2.7657-4.940635 2.10226-1.995007-.42913-5.062463-1.51344-6.816578-2.40959-4.320372-2.20721-6.73975-2.0534-11.592526.73698-2.263429 1.30149-6.882246 3.79241-10.264032 5.53539-3.886399 2.00306-6.556187 4.28292-7.256209 6.19644-.609137 1.66505-2.786892 8.15565-4.839452 14.42354l-3.731939 11.39618 1.906144 7.35607c3.502208 13.51545 8.374872 17.56141 18.527447 15.38409 7.653639-1.64142 12.249945-4.9674 13.93955-10.08698 1.073028-3.25132 2.230466-4.32608 5.695128-5.28837 5.214407-1.44826 7.39215-1.50172 9.394964-.23063 1.652638 1.04887 1.071563 2.77473-6.328276 18.79596-5.077439 10.99306-4.711756 11.97639 3.98712 10.72165 7.925263-1.14315 15.169696-.26593 16.015946 1.93937.329885.85967-.206723 6.66078-1.192457 12.89134-1.763423 11.14612-1.75075 11.39545.787833 15.50296 1.419034 2.29606 4.079599 4.95009 5.912362 5.89785 2.925798 1.51299 3.843739 1.50949 7.525009-.0286 5.849742-2.44417 9.026458-2.18572 13.08925 1.06497 3.248644 2.59927 3.707963 2.67262 6.260991.99981 1.515338-.99288 3.582592-3.45363 4.593896-5.46834 2.280354-4.54283 6.122593-7.736 9.350095-7.77057 1.348335-.0144 3.699778-1.35498 5.225427-2.97895 3.098329-3.29801 8.553971-4.37246 5.887442-1.15948-2.237753 2.69631-3.517255 11.3689-2.074919 14.06393 1.200902 2.24393 1.297419 2.23096 3.482732-.4678 1.555932-1.92149 1.869637-3.15365 1.019395-4.00389-2.028656-2.02866-1.417853-3.71459 2.356852-6.50535 3.918997-2.89744 6.950713-2.60004 10.332475 1.01354 2.479554 2.64953 15.718871 6.231 19.513241 5.27868 5.778156-1.45022 21.390908 8.04269 27.257066 16.57292 2.793223 4.06175 11.716601 8.1493 15.640471 7.16447 8.07123-2.02575 19.1371 6.0611 21.7249 15.87638.77069 2.92315 1.9326 5.64584 2.58204 6.05043 1.72315 1.07349-.85798 5.31527-6.50054 10.68291-3.60504 3.4294-4.46585 4.90581-3.45163 5.92003 1.01423 1.01423 2.68123.12523 6.68428-3.56465 5.82205-5.36658 7.76494-5.91126 10.6816-2.9946 1.77431 1.77429 1.71983 2.13566-.71205 4.72429-1.44831 1.54167-3.47076 2.83671-4.4943 2.87789 3.34437 2.15332 4.54804 1.89392 6.94239-.04066 6.2358-5.03838 7.70214-5.28044 13.24135-2.18581 3.60105 2.01184 5.04331 3.54359 4.86174 5.16341-.5049 4.5038.55724 5.50112 3.67972 3.4552 2.48176-1.62612 4.18438-1.70335 12.48777-.56646 8.83245 1.20933 9.98925 1.69142 14.22674 5.9289 3.14596 3.14597 6.68477 5.21494 11.13002 6.50721 5.96868 1.73515 6.61704 2.26434 7.69953 6.28439 1.5695 5.82868-.2694 12.29666-5.2428 18.44052-2.12451 2.62451-4.72856 6.47739-5.78677 8.56196-1.05819 2.08456-3.30857 5.17469-5.00083 6.86695-2.8645 2.8645-3.0239 3.58103-2.30981 10.38274 1.39503 13.28779-5.10482 38.07828-11.37384 43.37992-2.04108 1.72613-3.78771 2.13148-7.02437 1.63023-2.66041-.41202-4.62976-.14623-5.14967.695-.46301.74919-3.04211 2.32957-5.7313 3.51196-2.68918 1.1824-6.69284 3.69017-8.897 5.57282-3.81501 3.25853-3.94276 3.61937-2.65894 7.50939 1.48022 4.48512.48339 9.7956-2.6889 14.32467-1.02563 1.46429-1.86478 3.9555-1.86478 5.53602 0 1.58051-1.23226 4.51827-2.73836 6.52836-1.5061 2.01008-4.41141 6.61136-6.45625 10.22506-5.03077 8.89055-8.05574 10.43087-15.35032 7.81642-6.3305-2.26899-9.70615-2.53996-9.70615-.77919 0 .66351 1.26191 1.78135 2.80423 2.48407 1.54233.70274 3.94582 3.56353 5.34112 6.35731 2.0777 4.16022 2.29755 5.60487 1.21465 7.98159-1.67755 3.68181-8.09223 6.77314-14.05465 6.77314-5.28092 0-6.59102 1.29164-4.76698 4.69987 1.12591 2.10381.36855 5.4886-1.80877 8.08374-.17644.21029-2.025699-.49929-4.109475-1.57685-4.974296-2.5723-6.735262-.93378-4.221268 3.92776 1.022548 1.97738 2.966769 3.94677 4.320513 4.37643 2.326688.73845 2.351868.90217.460252 2.99238-1.101786 1.21745-1.673378 3.06524-1.271872 4.11155.431469 1.12439-.530845 3.55242-2.356746 5.94628-2.968128 3.89143-3.010434 4.16123-1.107704 7.06515 1.088051 1.66058 2.785239 3.32889 3.771528 3.70736 3.556857 1.36489 4.146462 6.0283 1.434306 11.34456-2.717103 5.32594-3.13408 10.66564-1.030781 13.19994 1.911777 2.3036-4.521555 6.7916-7.414567 5.1726-1.129711-.63218-3.013083-.84498-4.185297-.47298zm-69.101206-522.56608c3.403931 0 3.443982.5524.327382 4.51452l-2.450641 3.11548 2.514359 2.03601c2.025893 1.64046 3.0712 1.78228 5.38062.73004 1.576436-.71827 3.192319-2.3333 3.590848-3.58894.54223-1.70842 1.423959-2.10747 3.503424-1.58556 1.924994.48315 3.130147.0697 3.922245-1.34576 2.399831-4.28824-3.707325-9.77249-8.20311-7.36642-3.21679 1.72157-7.419563-1.70358-6.52255-5.31573.332471-1.33884-.351546-3.66897-1.535937-5.2322-2.441204-3.22205-6.155096-3.56133-14.28362-1.30487-2.923153.81145-6.256408 1.43896-7.407221 1.39445-1.150824-.0445-1.783808.4184-1.406644 1.02867.377175.61027.255796 1.12142-.269734 1.13586-.525529.0144-2.278039 1.04239-3.894477 2.28432l-2.938955 2.25807 3.300611 1.25489c2.579957.9809 4.101118.84093 6.967-.64107 3.368144-1.74174 3.991892-1.74075 7.667753.0122 2.214214 1.05588 5.237049 1.59798 6.768025 1.21373 1.521669-.38192 3.092648-.16695 3.491058.47772.40721.65886-1.256553 1.50679-3.79959 1.93643-6.912151 1.1678-10.503258 4.0461-15.516777 12.43679-4.187596 7.00844-4.427837 7.85369-2.758676 9.70635 1.637721 1.81776 2.089953 1.84645 4.33667.27513 1.379551-.96485 3.836983-4.53085 5.460957-7.92445 3.155681-6.59443 9.02791-11.50566 13.75698-11.50566zm7.70106 18.79575c4.204319-2.14488 4.608801-2.68365 3.127135-4.16532-1.481666-1.48166-2.41789-1.38503-7.238127.74719-5.659695 2.50356-7.455762 5.88167-3.127135 5.88167 1.325056 0 4.582216-1.10859 7.238127-2.46354zm20.941663-8.92441c2.460173-1.72318 2.551186-2.06121.816345-3.03207-2.554138-1.42937-10.146043 1.03349-10.146043 3.29143 0 2.32648 5.870918 2.16325 9.329698-.25936zm88.699244 510.03644c0-.5197.63778-1.5827 1.41729-2.3622s.97097-1.4173.42547-1.4173c-.54549 0-1.62911.8716-2.40804 1.9368-1.11836 1.5295-1.89097 1.6612-3.67342.6265-1.27408-.7396-1.58381-1.326-.71114-1.3463.85032-.02 1.21756-.5674.81609-1.217-.77101-1.2475 1.25573-1.5876 7.08643-1.1892 5.20403.3555 5.72731 1.1154 2.5107 3.6455-2.99638 2.357-5.46338 2.9545-5.46338 1.3232zm986.35068-29.64172c-3.3792-2.14075 3.6576-6.86812 21.1034-14.17739 4.8719-2.04118 12.2957-6.30992 16.4973-9.48609 7.1447-5.40104 7.7372-5.63494 9.153-3.61355 2.1494 3.06873.8827 5.28991-4.3668 7.65711-2.5085 1.13117-5.6625 3.3237-7.009 4.87228-1.3465 1.54859-3.5131 2.81561-4.8147 2.81561s-4.3611 1.78995-6.7989 3.97767c-8.3448 7.4886-18.9148 11.02657-23.7643 7.95436zm-82.6575-15.34313c-1.2273-.77762-1.2958-1.57811-.2953-3.44748.7166-1.33909 1.303-4.09991 1.303-6.13516 0-3.32708.2681-3.60613 2.6574-2.7657 1.4616.51411 4.5176 1.00429 6.7912 1.08928 2.2735.085 4.5446.23165 5.0468.32591 1.9576.36748-3.2745 6.32286-7.9755 9.07783-5.5989 3.28115-5.3675 3.22412-7.5276 1.85532zm136.4773-10.32801c-.411-.41104.562-1.77724 2.1622-3.03602 2.4102-1.89581 2.6912-2.69673 1.6374-4.66574-1.5246-2.84896.7403-5.90622 5.9852-8.07873 4.0634-1.68311 5.0867-5.09866 3.9971-13.34163-.7496-5.67077-.6579-6.02466 1.1695-4.51334 1.4348 1.18662 1.7875 2.6815 1.2759 5.40826-.5606 2.98831-.057 4.54149 2.4359 7.50331 2.6928 3.20027 3.4927 3.54764 5.5874 2.42657 2.0877-1.11723 2.3324-1.01538 1.6751.69722-.4233 1.10309-.7696 2.21423-.7696 2.46922 0 .25498-1.7273 1.34804-3.8385 2.42902-2.1111 1.08097-6.2301 3.94004-9.1533 6.35349-4.7534 3.92456-9.6451 7.09569-10.9457 7.09569-.2592 0-.8076-.3363-1.2186-.74732zm-130.2298-16.43771c-3.0449 1.99511-8.7664.82923-13.3522-2.72081-2.4465-1.89385-2.6166-2.50415-1.355-4.86166 1.0766-2.01153 1.1123-3.42172.1404-5.5548-.7165-1.57236-1.3027-3.89681-1.3027-5.16542 0-2.86159-1.8577-2.99812-3.3959-.24954-.6332 1.13138-1.4896 1.71866-1.903 1.3051-.4137-.41356.9541-2.69522 3.0396-5.07034 5.1321-5.84509 3.1292-7.432-3.6498-2.8919-2.9211 1.9563-5.5002 4.09349-5.7315 4.74929-.2312.65581-1.6351-1.36826-3.1196-4.49795-1.6096-3.39364-4.3896-6.80403-6.8877-8.44963-3.7531-2.4724-5.0251-2.67603-12.2344-1.9585-10.57248 1.05226-20.77269 3.65919-27.44905 7.01533-3.03488 1.52561-8.95689 3.08736-13.52386 3.56655-4.4687.46886-11.57568 2.15137-15.79329 3.73888-6.44995 2.42775-8.28581 2.68265-11.55372 1.60415-4.38378-1.44677-6.20452-4.42876-3.36865-5.51699 1.02671-.39398 2.89032-3.10425 4.14131-6.02279 2.00263-4.67182 2.11329-6.12647.92573-12.16266-.98254-4.99413-1.00982-9.72286-.1004-17.41141.68644-5.80538.94911-11.69821.58381-13.09518-.36531-1.39696.20539-4.81699 1.26823-7.60005 1.87401-4.90694 2.32801-5.22762 14.99867-10.59435 7.18646-3.04383 14.5423-5.53424 16.3465-5.53424 4.88172 0 10.92669-4.64469 14.2592-10.95621 2.05967-3.90088 3.48841-5.38502 4.72428-4.9074 3.4498 1.33326 4.1308 1.07143 3.86506-1.48603-.17102-1.6451.53573-2.84159 1.94192-3.28791 1.21591-.38592 3.46278-2.5365 4.9931-4.77908 1.56657-2.29584 4.78771-4.88259 7.37213-5.92018 4.31163-1.7311 4.74103-1.70524 7.08643.42657 4.3271 3.9333 7.3936 5.08151 8.8582 3.31684.7121-.85811.957-1.898.5442-2.31086-1.3521-1.352 4.8339-9.11374 7.8575-9.85931 1.624-.40043 4.9582-1.73275 7.4094-2.9607 3.8224-1.91492 5.1669-2.04189 9.4486-.89233 9.2335 2.47912 9.5401 2.88458 6.1055 8.07445-4.4169 6.67441-3.2457 9.28429 7.5881 16.90995 5.0019 3.52063 9.7238 6.19132 10.4932 5.93486.7693-.25646 3.202-2.95216 5.4058-5.99045 3.0035-4.14046 4.168-7.1513 4.6495-12.02008.6838-6.91621 3.9919-16.535 5.6866-16.535.561 0 1.8468 2.84445 2.8575 6.32098 1.0106 3.47654 3.1284 7.53377 4.7063 9.01607 3.6873 3.46411 5.8293 13.15055 4.1735 18.87377-1.0971 3.79215-.8854 4.40075 2.8747 8.2675 2.2323 2.29571 5.7628 7.89439 7.8455 12.44151 2.0827 4.54713 5.8379 10.98093 8.3449 14.29735l4.5583 6.02983-1.2958 9.31601c-.94 6.75846-2.3954 11.26368-5.3013 16.41052-4.4515 7.88405-11.107 15.40716-14.6154 16.52073-1.2617.4004-4.1844 3.3595-6.495 6.57581-2.3108 3.21629-4.7213 5.8478-5.3569 5.8478-.6355 0-3.3373 2.76013-6.0038 6.13363-4.4475 5.62631-5.2662 6.14148-9.9 6.22857-3.5563.0669-6.2791 1.03126-9.1991 3.25848l-4.1476 3.16354-2.7214-2.89679c-2.4872-2.64718-2.947-2.74916-5.3366-1.18352zm-572.93691-30.87393c.52607-3.24181.025-5.14854-2.22169-8.45491-1.59552-2.34801-2.90095-4.84698-2.90095-5.55325s-2.08854-4.08341-4.6412-7.50475c-3.9453-5.28789-4.75595-7.40067-5.40655-14.09089-1.14797-11.8048-4.91723-24.58213-9.9837-33.84353-2.49062-4.55281-4.88322-10.46423-5.31689-13.13648-.92275-5.68599 1.3862-14.14894 6.65781-24.40254l3.50673-6.82082-1.97045-5.9325c-1.10231-3.31873-1.64084-7.24581-1.22231-8.91334.48985-1.95175-.0366-4.27667-1.5249-6.73436-1.25016-2.06444-3.10669-6.67668-4.12561-10.24942-1.36098-4.77214-3.25821-7.87498-7.14956-11.69285-7.48538-7.34405-8.45862-10.23523-6.13546-18.22661 4.72923-16.26798-.37987-25.75607-12.86114-23.88438-4.85942.72871-5.04539.63801-5.73205-2.79533-.52682-2.63404-1.95432-4.18344-5.53938-6.0124-4.65834-2.3765-6.65213-2.38549-12.37232-.0557-1.29917.52912-6.614 2.36288-11.81071 4.07502-7.81395 2.57443-10.16015 2.90661-13.56165 1.9201-3.22216-.9345-5.93625-.69271-12.53014 1.1163-6.81364 1.86929-9.28341 2.06997-12.9649 1.05346-7.682-2.1211-20.88003-14.01688-22.75734-20.51187-1.45274-5.02611-10.48773-16.73988-13.5626-17.58379-1.95406-.5363-2.19443-.9515-.99792-1.72372 1.20343-.77666.99393-1.16949-.88581-1.66105-2.98478-.78055-3.28178-3.21995-.3951-3.2452-.82054-1.88408-.94459-2.31458-.03984-2.32598.93797-.0118.58096-1.46813-1.02867-4.19624-2.2654-3.83957-2.31255-4.3468-.58179-6.25927 5.28404-5.83879 6.44181-18.4102 2.42495-26.33077-1.91759-3.78116-.68451-9.00432 3.40764-14.43446 1.5407-2.04445 4.54879-7.01913 6.68464-11.05485 3.73616-7.05955 12.06431-16.87434 14.31836-16.87434 2.49437 0 10.54213-8.65204 10.54213-11.33372 0-6.05422 3.61985-12.09065 9.5213-15.87759 3.17106-2.03487 6.88696-5.51423 8.25757-7.73191 2.80347-4.53612 3.20051-4.68403 6.46556-2.40857 1.28132.89296 4.46516 1.9818 7.07519 2.41965 3.98079.6678 5.88406.18718 11.81071-2.98247 10.19801-5.45404 16.50011-6.81609 28.16887-6.08811 7.69599.48013 11.16045.17315 14.891-1.31952 5.49361-2.19811 10.24305-.89724 8.95729 2.4534-.38639 1.0069-.15044 2.49594.52431 3.30897.84914 1.02314.84252 2.4891-.0215 4.76155-1.08539 2.85481-.84466 3.70462 1.8446 6.51161 1.70109 1.77555 4.747 3.55911 6.76866 3.96344 9.49197 1.89839 12.1909 3.1278 14.15103 6.44605 1.43587 2.43072 3.31848 3.67856 6.43065 4.26242 2.42024.45404 5.93462 1.61887 7.80972 2.58853 3.18429 1.64666 3.59691 1.58673 6.25242-.90798 1.78521-1.67713 2.59497-3.45288 2.17618-4.77233-.36682-1.15574-.0873-3.18438.62112-4.5081 1.82731-3.41435 7.01536-3.07929 15.11622.97626 8.82561 4.41838 25.56217 7.57092 31.49568 5.93259 2.85404-.78803 5.59779-.79839 8.09607-.0306 8.16096 2.50825 12.34027.54497 13.45436-6.3203.37002-2.2802 1.00185-4.14582 1.40404-4.14582.76335 0 1.163-3.42847 1.27351-10.92491.0359-2.43596.61165-4.42902 1.27942-4.42902.79542 0 .75625-.85554-.1135-2.48078-1.45253-2.71407-4.39795-2.6521-11.44753.24084-3.34323 1.37198-4.27373 1.31367-7.26865-.45548-3.88344-2.294-7.86902-2.63813-9.01824-.77865-.85455 1.38268-6.89346.4135-10.16883-1.63201-2.35316-1.46953-4.55186-5.84359-4.55186-9.05535 0-1.23178-1.19583-3.08195-2.65741-4.11148-2.26205-1.59338-2.39383-2.04438-.8858-3.03139.97438-.63775 2.97866-.87557 4.45395-.52849 1.88169.44269 3.61177-.29839 5.79621-2.48283 2.05569-2.05569 4.55574-3.19041 7.35677-3.33907 2.33359-.12386 5.71379-1.19446 7.51155-2.37911 3.90282-2.5718 12.76363-1.85713 19.63831 1.58393 9.27057 4.6403 17.50378 4.36739 20.81753-.69004 1.72401-2.63117 1.7335-3.18386.0974-5.68079-.99681-1.52133-5.78514-5.02637-10.64071-7.78899l-8.82835-5.02295 1.65405-3.19857c.90973-1.75921 1.35628-3.49634.99235-3.86027-.36394-.36393-.22481-1.36142.30915-2.21662.53398-.8552 1.07487-2.24118 1.20199-3.07994.27112-1.78896-1.63353-1.29515-11.02608 2.85868-5.45256 2.41138-6.26284 3.15019-5.0533 4.6076.79229.95463 2.57128 1.7592 3.95331 1.78791 1.93847.0403 1.47942.59743-2.00834 2.43762-4.23469 2.23429-4.70738 2.26339-7.46074.45932-2.35432-1.54261-2.66223-2.26031-1.54647-3.60472 1.10756-1.33452.94219-1.84804-.80677-2.5052-1.20993-.45462-2.76989-1.58631-3.46657-2.51487-3.38303-4.50903-14.1159 7.35271-17.2374 19.05043-1.46516 5.49064-1.41637 5.7763 1.34192 7.85689l2.86236 2.15908-5.25135 1.08297c-2.88824.59564-6.78081.66517-8.65015.15452-3.44973-.94235-7.82138.47785-7.82138 2.5409-2.76931.03976-4.32937.35874-5.25345 1.12565-1.43325 1.18948-1.27098 2.16397 1.10412 6.63095 2.57287 4.83889 2.65242 5.5009 1.04759 8.71786-2.01087 4.03089-3.88094 3.73105-6.72154-1.07769-1.9803-3.35239-1.96706-3.42952.65304-3.80145 3.30672-.46939 3.51958-2.57427.3122-3.08712-7.31757-1.17003-11.22018-5.02605-11.22018-11.08627 0-4.7291-4.38384-9.94231-9.69997-11.53507-2.76257-.82768-5.76579-2.56558-6.67384-3.86198-.90803-1.29642-3.56587-3.15721-5.90629-4.1351s-4.95983-2.7838-5.82089-4.01314c-1.23586-1.76444-2.04831-1.97681-3.85783-1.00837-1.26074.67472-2.29225 1.9869-2.29225 2.91596 0 3.06652 15.05404 16.93946 22.41233 20.65392 7.80206 3.93847 9.02081 5.34482 3.60006 4.15423-4.83276-1.06146-6.1492.001-4.49618 3.62912 1.16112 2.54836.97111 3.32361-1.36466 5.56792l-2.7136 2.60734.6175-3.51832c.9802-5.58484-6.38335-13.60722-12.48974-13.60722-2.23836 0-10.83824-8.34211-13.09115-12.69876-2.40728-4.65517-5.086-5.55448-8.88071-2.98148-5.7164 3.87601-10.00251 5.18641-14.48615 4.42891-5.9565-1.00635-9.70395 1.07073-8.75478 4.85249.49553 1.97434.21972 2.85563-.89369 2.85563-.88572 0-3.15464 1.32805-5.04206 2.95124-1.88741 1.62318-3.83807 2.95188-4.33481 2.95268-1.46111.002-5.58351 7.46388-5.58831 10.11485-.005 2.5354-4.62338 7.53082-9.08008 9.82049-1.41887.72897-4.72194 1.32539-7.34014 1.32539-3.60223 0-5.07808.59361-6.06622 2.43998-1.29406 2.41798-1.33339 2.41243-4.36029-.61446-2.83969-2.8397-4.47455-3.55047-10.20542-4.43696-3.01103-.46575-3.51942-7.2817-1.26743-16.99213.96271-4.15109 1.43529-8.80281 1.05019-10.33716-1.11914-4.45903 2.38423-7.08848 8.24495-6.18822 13.53311 2.07879 21.4491 2.19363 23.30465.33808 2.54946-2.54946 3.69948-10.9579 2.14354-15.67247-1.01484-3.07496-2.41048-4.33211-6.57505-5.92257-6.12495-2.33914-6.25404-4.60187-.26597-4.66202 2.28141-.0229 5.57262-.9751 7.3138-2.11597 1.74117-1.14085 3.66664-1.76474 4.2788-1.3864 1.66961 1.03187 7.99184-2.61223 10.09148-5.81668 1.01468-1.54862 3.01274-3.11339 4.44013-3.47726 1.42739-.36388 5.25266-3.13698 8.50061-6.16243 4.60459-4.28917 7.02071-5.63398 10.96901-6.10531 4.89159-.58393 9.81058-4.60649 7.50125-6.13423-1.43532-.94954-2.63445-6.66852-1.83503-8.75178.37875-.98703 2.0508-2.68712 3.71564-3.77797l3.02699-1.98336-.77711 4.85977c-.67448 4.21795-.50242 4.81386 1.30286 4.51217 1.14398-.19118 3.28369-1.0089 4.7549-1.81713 2.24016-1.23068 2.78954-1.17086 3.38007.36806 1.01215 2.63759-1.80189 5.73901-3.74442 4.12685-2.97134 1.11186-3.45505 1.0575-4.16561-.09222-1.90308-.63436-.95889 1.16089.52647 3.02371 2.50386 3.14014 2.98117 3.28918 6.54963 2.0452 3.05624-1.06541 4.52387-.99275 7.12588.35281 2.9375 1.51904 3.92927 1.44669 9.57521-.6986 4.94673-1.8796 6.89648-2.12061 9.08583-1.12308 2.01407.91767 3.50616.89876 5.37745-.0681 5.31239-2.74503 6.78402-4.81493 6.1245-8.61432-.97759-5.63164.81278-7.47633 5.52854-5.69632 3.20883 1.2112 4.14641 1.16308 5.59669-.2872 1.53548-1.53548 1.40343-2.10269-1.11306-4.78137-2.42109-2.57714-2.59055-3.21779-1.11456-4.21365.95737-.64593 4.54513-.87736 7.97283-.5143 6.27301.66444 14.09026-1.78608 12.72818-3.98997-1.19282-1.93002-8.39291-2.48773-14.49289-1.12261-5.40985 1.21067-6.82973 1.11275-10.97604-.75698-6.43981-2.90394-7.19839-6.30151-2.78142-12.45759 5.68534-7.92385 6.72498-10.449 5.10543-12.40042-2.39807-2.8895-4.75399-1.94745-10.23234 4.09157-2.89482 3.19107-6.83949 6.45483-8.76595 7.25279-1.92644.79796-4.30939 3.01093-5.29542 4.91769-1.60582 3.10533-1.6033 3.75604.0242 6.23996.99935 1.52521 2.89413 3.11498 4.21061 3.53281 3.623 1.1499 2.9063 3.30824-2.27595 6.85402-1.59388 1.09056-3.71981 4.17584-4.72428 6.8562-1.2587 3.35866-3.17247 5.65054-6.15733 7.37379-4.20794 2.42938-4.39899 2.43888-6.72422.33457-1.31627-1.19122-2.71278-3.62075-3.10335-5.39899-.39056-1.77823-2.16434-4.97507-3.94172-7.10408l-3.23161-3.87095-4.09745 2.49785c-2.2536 1.37383-5.16042 2.48803-6.4596 2.47602-3.74789-.0346-8.08677-4.08315-8.37721-7.81651-.14433-1.85515-.62641-4.28294-1.07132-5.39509-1.05826-2.64536 4.23065-7.60665 9.72671-9.12418 5.51604-1.52305 16.7039-9.36389 18.61052-13.0429.84812-1.63651 3.72153-4.92965 6.38534-7.31808 2.66383-2.38843 4.84331-4.86901 4.84331-5.51241 0-.64339 2.52454-2.06942 5.61009-3.16895s8.2675-3.09452 11.51545-4.43331c3.98756-1.64366 8.97383-2.51266 15.35393-2.67587 11.1478-.28516 18.43842 1.19251 24.45389 4.95634 3.01834 1.88855 5.40063 2.53284 7.67981 2.077 4.07783-.81556 25.81494 5.92197 26.72065 8.2822.91032 2.37227-5.32396 4.61159-10.68793 3.83904-2.45672-.35383-7.53754-1.30004-11.29072-2.10269-5.05249-1.08051-7.16867-1.11462-8.15191-.1314-.98321.98323-.49182 1.70892 1.89298 2.79551 1.77151.80715 3.98925 2.95331 4.92829 4.76924 2.39102 4.62372 10.04911 8.393 14.00015 6.89081 3.7962-1.44331 3.76988-1.89854-.23547-4.07147-3.70458-2.00978-1.99468-2.44427 2.65786-.67538 3.71476 1.41235 7.92339-.34472 6.94331-2.89876-.45905-1.19627.83172-2.05995 4.473-2.99298 7.79225-1.99666 8.36253-2.2821 7.71624-3.86222-2.44464-5.97689-2.47893-5.80512 1.07801-5.399 1.8981.21672 3.2847 1.02843 3.12691 1.83047-.15592.7926.83316 2.0387 2.19799 2.76913 2.05015 1.09721 3.66751.70636 9.30469-2.24857 8.26617-4.33301 14.70171-5.74569 17.10154-3.754 1.33816 1.11057 3.55676 1.11837 9.97912.0351 4.54213-.76613 8.77435-1.0741 9.40492-.68438 2.85105-2.04944.27717-5.4665-1.13192-4.59564-1.70102 1.05129-7.28701-.83201-6.0719-2.04712 1.22357-1.22357 34.09221 6.43545 36.05926 8.40251 1.32605 1.32605 5.5243-.44289 5.5243-2.32768 0-.63517-2.34408-2.29371-5.20906-3.68562-8.88313-4.31575-9.45346-11.22778-1.09947-13.3245 4.84848-1.2169 6.94519.18688 13.6512 9.13969 8.70634 11.62334 8.48439 11.03199 5.6399 15.0267-2.10633 2.95808-2.23322 3.65036-.77182 4.21115 2.769 1.06256 8.69522-2.65556 9.52927-5.97869.97727-3.89378-.84749-7.21221-5.20502-9.46557-3.42576-1.77153-5.90536-5.0176-5.90536-7.73076 0-.92483 1.28488-1.15548 3.83848-.68905 3.82867.69933 6.99563-.68918 15.66593-6.86849 1.98285-1.41318 5.33497-2.34443 8.71486-2.42108 6.85583-.15549 9.07481-1.30642 7.10193-3.6836-.7737-.93225-1.16083-1.94091-.86027-2.24146 1.50838-1.50838 20.95241-4.22639 25.4306-3.55485 4.30871.64614 5.64266.29662 9.18773-2.40733 2.28095-1.73977 4.14718-3.63161 4.14718-4.20411 0-1.44367-10.32099-1.31473-11.22018.14019-1.23724 2.0019-2.84097 1.30531-2.3897-1.03797.38103-1.97852-.61845-2.30047-9.22112-2.97027-23.49127-1.82903-25.40056-2.25822-22.58243-5.07636 2.47772-2.47772 8.5548-2.42968 13.64135.10782 2.08411 1.03969 5.53644 1.89035 7.67187 1.89035 2.13542 0 4.21106.53148 4.61253 1.18107s2.47012 1.18107 4.59701 1.18107c5.89063 0 17.2796 2.54437 16.56493 3.70071-.34793.56297.75387 1.02358 2.44844 1.02358s4.78196.91527 6.86087 2.03393c2.79576 1.5044 6.70096 2.04563 15.00001 2.07887 8.92075.0357 11.88581.49389 14.46812 2.23565 1.78638 1.2049 3.2403 2.5282 3.23093 2.94069-.009.41248-2.73508 2.24952-6.05716 4.08232-8.02308 4.42635-6.32672 6.35538 3.37749 3.84076 6.28559-1.62876 7.72992-1.63923 12.9341-.0937 4.26974 1.26798 6.93576 1.43076 9.83145.60029 2.89077-.82906 5.85803-.65103 10.89257.65355 5.25305 1.36121 7.97569 1.49968 11.30519.57498 7.59807-2.11021 16.94558-1.51422 22.36852 1.42619 2.69555 1.46158 7.66644 4.16592 11.04643 6.00964 5.99142 3.26822 6.25225 3.30434 10.40792 1.4413 3.47839-1.55942 5.41897-1.68985 10.54929-.70905 5.09937.97488 6.95553.85607 9.82741-.62904 2.80964-1.45292 3.26163-2.16709 2.18927-3.4592-2.07374-2.49871 5.28416-3.42758 14.32458-1.80836 4.1406.74162 9.38856 1.48191 11.66213 1.64509 2.27356.16318 6.71557 1.4588 9.87116 2.87916 4.81227 2.16611 8.44371 2.6568 22.52433 3.04354 13.36052.36697 17.61368.90163 20.8367 2.61936 3.27157 1.74354 7.00022 2.18704 19.40371 2.30796 11.41093.11125 16.52355.65239 19.90838 2.10721 5.46402 2.3484 7.64992 1.48711 4.67572-1.84233-2.13925-2.39495-2.12649-2.39824 6.1238-1.57864 13.8249 1.3734 30.4085 4.39865 36.0226 6.57136 2.9232 1.13129 8.4946 2.44588 12.3808 2.9213 3.8861.47543 9.5568 2.1267 12.6014 3.66949 4.6211 2.34169 6.1228 2.60038 9.0901 1.56595 4.0578-1.41458 6.6904-.39593 12.8874 4.98661l3.8505 3.34449-2.902.72836c-2.912.73088-10.6453-1.18356-13.3101-3.29506-.7835-.62085-1.8821-.84602-2.4415-.50036-.5592.34565-3.3216-.1656-6.1385-1.13611-6.5976-2.27305-9.5271-1.41925-6.5223 1.90093 2.0521 2.2676 2.0077 2.31524-1.9062 2.04225-7.324-.51084-5.3108 1.65194 5.4413 5.84571 5.8464 2.28028 10.8801 4.38839 11.186 4.68469 1.1082 1.07301-2.5461 2.40316-5.2054 1.8948-2.9196-.55812-10.1143 2.57544-10.1143 4.40516 0 .6076-1.1368 2.16385-2.5263 3.45833-2.3211 2.16241-2.8008 2.21166-5.9054.60622-2.9053-1.50241-3.8343-1.518-6.627-.1112-1.7863.8999-4.8394 2.01924-6.7845 2.48742s-4.1984 1.4004-5.0071 2.07159c-2.3769 1.97269 1.8143 7.71459 7.7171 10.57202 3.2147 1.55627 5.5425 3.64149 6.2345 5.585.6073 1.70582 1.8949 4.5073 2.8612 6.22554 1.5751 2.80033 1.5615 3.19911-.1306 3.84844-1.2402.47594-1.6057 1.42984-1.0654 2.7813.4522 1.1313.9634 3.38563 1.1358 5.0096s.6932 3.83476 1.1572 4.91286c.6043 1.40353.1051 2.19453-1.7565 2.78548-2.0723.65771-3.4687-.13467-6.8765-3.90195-2.352-2.6-6.2749-6.17958-8.7176-7.95464-2.4428-1.77504-6.8195-6.39089-9.726-10.25744-5.1271-6.8204-5.2323-7.13121-3.531-10.4214.9646-1.86523 1.7726-4.61355 1.7956-6.10739.024-1.49383.7726-4.03603 1.6656-5.64933 1.7057-3.08142 1.0484-5.54164-2.5984-9.72525-2.3944-2.7469-6.6545-.68778-5.5802 2.69716.9897 3.11843-2.047 4.12896-5.5394 1.8433-1.514-.99092-4.9997-2.16029-7.7458-2.5986-4.7148-.75253-5.0651-.60779-6.28658 2.59772-.71148 1.86706-1.00994 4.81857-.66329 6.55892.53999 2.71169.16464 3.26652-2.62505 3.87922-1.89834.41696-5.14888-.0763-7.79838-1.18332-2.91004-1.21588-5.6506-1.58346-7.62346-1.02251-1.69413.48168-7.42209.91896-12.72877.97174-8.40639.0836-10.02588.45055-12.58077 2.8505-1.61275 1.51501-3.55042 5.23538-4.30607 8.2675-.75553 3.03213-2.14022 6.69602-3.07705 8.14197-1.61913 2.49915-1.46264 2.75172 3.16587 5.113 5.0238 2.56297 10.50126 3.23816 14.65367 1.80632 3.20283-1.10444 12.97372 6.51322 16.02443 12.49319 1.24969 2.44949 3.31526 5.01191 4.59023 5.69426 4.82421 2.58182 5.80414 19.52156 1.76995 30.59637-2.79311 7.66789-5.91882 10.17506-10.50917 8.42978-1.75401-.66684-3.36653-1.21245-3.58337-1.21245-.21697 0-1.53091 2.18041-2.91997 4.84535-1.82404 3.49939-2.17955 5.26225-1.27992 6.34619 1.72117 2.07391.44727 4.77135-2.9939 6.33924-1.58831.72365-2.88772 1.83032-2.88772 2.45926 0 .62896 3.69522 3.68658 8.21152 6.79475 5.74567 3.95423 8.81575 6.99132 10.22383 10.114 1.1069 2.45454 1.79641 4.6578 1.53244 4.89612-.26409.23832-2.6782 1.54143-5.36479 2.8958l-4.88455 2.46249-2.93898-6.74633c-3.2894-7.55057-6.1111-10.58704-11.08164-11.9248-2.50293-.67365-3.3748-1.62868-3.3748-3.69681 0-1.89574-1.2256-3.50664-3.8282-5.03154-3.7916-2.22161-3.86707-2.21899-7.9022.27488-4.03868 2.49601-4.08497 2.49758-5.32522.18035-.68797-1.28567-1.25099-3.15105-1.25099-4.14528s-.99269-2.33899-2.20612-2.98836c-1.80456-.96579-2.94382-.38229-6.26039 3.2064-2.22998 2.41287-5.08687 4.97413-6.34861 5.69169-1.95775 1.11334-2.06215 1.5841-.71254 3.21037.86997 1.04815 3.8732 3.1865 6.674 4.75191 4.45476 2.48978 5.30749 2.63117 6.80946 1.12909 1.42804-1.42794 2.58998-1.48018 6.90018-.31027l5.18313 1.40684-2.88855 1.93067c-5.35745 3.58083-7.04662 5.46056-7.81137 8.6922-.6275 2.65214-.2531 3.44993 2.12782 4.53479 1.58913.72405 4.0049 3.61267 5.36844 6.41916 1.36343 2.80647 4.08698 6.05252 6.05229 7.21343 4.3226 2.55341 5.57643 5.26639 3.07976 6.66358-2.32742 1.30252-1.21591 3.24913 1.85535 3.24913 3.67833 0 3.69958 2.19414.14432 14.85848-4.30559 15.33719-8.1925 20.45459-18.36212 24.17484-4.00513 1.46514-8.87646 2.75216-10.82523 2.86002-4.52988.25075-8.04274 2.16892-11.1075 6.06503l-2.43254 3.09258-1.13454-2.98405c-1.48012-3.89301-4.87428-4.87186-9.74596-2.81073-4.46449 1.88886-7.40777 4.90087-8.59504 8.79575-1.0624 3.48527 2.69939 9.6156 8.9273 14.5482 5.1133 4.04983 10.84977 14.21145 12.19702 21.60576 1.17174 6.43132-.90423 10.65273-6.47369 13.16422-2.5372 1.1441-4.91142 3.02025-5.2761 4.16922-.87574 2.75924-6.11996 6.19453-7.08146 4.6388-.40059-.64819-.41625-2.16186-.0348-3.36371.38145-1.20186.36263-3.04755-.0418-4.10155-.58195-1.51655-1.22708-1.65321-3.09216-.65505-1.94232 1.0395-2.69147.77606-4.25985-1.49796-3.85453-5.58879-15.02621-14.57001-18.12351-14.57001-1.09066 0-1.51126 1.3121-1.32508 4.13375.15001 2.27356-.31312 6.70623-1.02917 9.85036-1.16666 5.12277-1.04705 6.06132 1.15136 9.03482 1.34929 1.82503 2.78856 4.65414 3.19837 6.28695.41619 1.65824 3.83221 5.44481 7.73845 8.5779 6.51035 5.22177 7.19662 6.25268 9.93677 14.92679 1.61889 5.12469 2.94344 9.82167 2.94344 10.43773 0 2.00329-2.46732 1.19135-7.61625-2.50633-5.32293-3.82266-8.72264-9.87031-11.55757-20.55956-1.23096-4.64136-2.5809-6.63095-6.41088-9.44858-4.69705-3.45551-4.83913-3.75727-4.46057-9.47454.21506-3.24795.7474-7.85168 1.18296-10.23052.61319-3.34884.10606-5.74826-2.24654-10.62964-1.67115-3.46747-3.6473-8.79289-4.39141-11.83427-1.66236-6.79448-4.0101-7.93238-8.16105-3.95553-1.71615 1.64419-3.45184 2.98941-3.85709 2.98941-1.87971 0-4.46249-4.00144-3.84287-5.95368 1.12518-3.54515-5.79412-15.90306-9.84337-17.58031-2.21543-.91767-4.24096-3.14328-5.59652-6.1494-2.35515-5.2228-4.99723-7.2213-7.63685-5.7766-.95761.52411-4.79111 1.57844-8.51889 2.34295-6.83381 1.40151-9.28557 3.47105-8.35009 7.04832.34446 1.31724-.85126 2.58954-3.71889 3.95701-2.32462 1.10854-4.82918 3.33806-5.56567 4.95449-.73649 1.61642-2.35806 3.26237-3.60347 3.65765-1.24543.39528-3.16695 2.20281-4.27007 4.01674-1.10311 1.81394-4.3882 5.12904-7.30021 7.36691-3.98555 3.0629-5.22949 4.77645-5.03143 6.93088 1.15785 12.59484-.61892 23.13241-4.95559 29.39023-4.22995 6.10381-4.52708 6.27401-8.10597 4.64337-1.97005-.89762-3.1826-2.65053-3.68465-5.32672-.41158-2.19385-2.79044-8.37495-5.28638-13.73578-15.10179-32.43598-17.33465-38.62495-16.04817-44.4822.86933-3.95808-1.21639-9.93028-3.23185-9.25398-.808.27111-1.48312 1.24441-1.5003 2.16287-.10074 5.39096-6.1571 6.21862-10.8878 1.48791l-3.13469-3.13468 2.69675-.99759c3.0343-1.12247 2.75583-4.1496-.3307-3.59476-1.09672.19715-3.6069-.99869-5.57818-2.65741-1.97128-1.65873-4.03904-3.01587-4.59502-3.01587-.55597 0-1.35008-1.0688-1.76468-2.3751-1.08858-3.42982-7.35393-6.41382-10.49398-4.99796-2.82571 1.27412-28.46239 1.00802-32.75342-.33997-1.54565-.48555-4.40473-2.70766-6.3535-4.93799-3.5215-4.03032-3.5758-4.04639-8.85812-2.62249-5.00505 1.34915-5.7323 1.22197-12.47421-2.18133-5.82565-2.94078-7.57099-4.52697-9.36931-8.51493-2.29455-5.0884-7.39031-8.77277-10.48888-7.58374-.97584.37446-2.11556 2.23481-2.53272 4.13412-.59915 2.72793.0118 4.50033 2.90753 8.43825 2.0163 2.74174 4.21318 7.01704 4.88195 9.50067 1.43648 5.33465 4.27307 6.92152 6.62439 3.70589 1.41907-1.94069 1.80206-2.00822 2.76269-.48717.61338.97122.94425 2.29734.73526 2.94693-.65687 2.04171 6.15879 5.40123 9.33864 4.60313 1.60715-.40337 5.04092-3.14049 7.63057-6.08249 4.08035-4.63553 5.50503-4.9484 4.80755-1.05574-.46943 2.61988 1.59199 5.69081 5.00417 7.45476 5.2704 2.72458 12.61281 8.794 12.61281 10.42606 0 .75244-1.38042 2.65654-3.06762 4.23136-1.68718 1.5748-4.11548 4.90695-5.3962 7.40475-3.11172 6.06888-12.131 14.94621-15.18518 14.94621-3.52962 0-8.78081 2.98079-10.87098 6.1708-.99042 1.51157-3.5939 3.64347-5.78548 4.73757-11.22579 5.60416-24.74162 11.28565-28.5453 11.99922-4.06672.76292-4.3961.57838-6.55065-3.67043-1.24774-2.46058-2.66328-7.39691-3.14563-10.96965-.62736-4.64672-1.84405-7.60029-4.27411-10.37548-1.86839-2.13376-3.39708-4.39196-3.39708-5.0182s-2.13132-3.33481-4.73628-6.01905c-3.2443-3.34301-5.34068-6.97098-6.65486-11.5168-1.05521-3.65-3.2025-8.23082-4.77175-10.17959-10.83923-13.46061-14.04901-18.20685-15.66474-23.16313-2.14151-6.56911-3.95253-7.62989-4.78831-2.80469l-.59327 3.42504-3.99553-5.04479c-6.15661-7.77334-6.9324-4.23985-1.15265 5.24991 2.73502 4.49064 7.09489 12.41666 9.68861 17.61337 2.5937 5.19672 5.95617 11.0932 7.47213 13.10327 1.56091 2.06968 2.75629 5.30475 2.75629 7.45935 0 4.45057 1.32778 7.22814 6.54357 13.68846 2.0978 2.59836 4.17023 6.39194 4.60538 8.43018.55813 2.61415 2.83805 5.3476 7.73914 9.27863 7.44832 5.97409 12.27458 12.20969 13.47245 17.40659.45 1.9523 2.15449 3.95602 4.31614 5.07385 3.29376 1.70328 4.45314 1.65658 14.86209-.5986 6.20929-1.3453 12.78688-3.22025 14.61686-4.16658l3.32723-1.72057.78983 4.67499c.71776 4.24836-.0546 6.29443-8.46258 22.4206-9.04037 17.33889-9.46326 17.91205-18.45213 25.00844-5.05985 3.99456-10.35478 8.88498-11.76653 10.86759-1.41175 1.98262-5.92848 7.33723-10.0372 11.89915-11.9908 13.31343-13.62078 25.02236-5.66801 40.71639 2.01997 3.98623 2.80904 7.00388 2.33025 8.91157-.39818 1.58644-.14293 5.59365.56722 8.90492 1.11807 5.21338.99155 6.60754-.94363 10.39921-2.79266 5.47171-5.01419 7.43851-12.82052 11.35037-3.41035 1.70896-6.20063 3.612-6.20063 4.22897 0 .61695-2.39167 3.81463-5.31482 7.10595s-5.31482 6.51913-5.31482 7.17291 1.09574 3.33651 2.43496 5.96162c4.01503 7.87012 1.31708 13.5731-8.307 17.55954-4.05728 1.68057-5.38937 5.11169-4.38572 11.29642.52587 3.24062.19137 4.31883-1.64473 5.30149-1.26767.67844-3.55941 3.20372-5.09274 5.61176-4.84152 7.60338-18.75859 21.05732-25.08106 24.24643-5.27567 2.6611-6.62517 2.89568-10.5014 1.82539-3.4174-.94358-6.17541-.79413-11.9052.64515-9.28089 2.33128-8.29632 2.42784-11.89038-1.16622-2.50122-2.50137-2.91914-3.78076-2.36016-7.22535zm161.40846-376.42203c0-3.22411-.68934-5.71198-1.84949-6.6748-1.01721-.84422-2.66537-3.1127-3.66257-5.04107-1.6496-3.18999-1.64259-3.4407.0778-2.78049 2.27176.87175 5.43418-.17675 5.43418-1.80169 0-.64221-1.09881-2.7108-2.4418-4.59685-2.02282-2.8408-2.83343-3.21959-4.72429-2.20764-1.52887.81823-2.28248.8258-2.28248.0229 0-.65926-2.10815-2.27413-4.68479-3.58863-5.70174-2.90882-7.73075-6.13174-5.95232-9.45478 1.34594-2.5149 6.15444-4.27718 8.20784-3.00811 2.76851 1.71104 3.58448-.81126 1.30023-4.0192-5.53941-7.77937-13.25231-7.26733-22.8179 1.51484-6.17284 5.66728-6.70881 7.17336-3.21771 9.04174 1.29918.6953 2.36215 2.05458 2.36215 3.02063 0 .96603 2.10079 4.03553 4.66844 6.8211 5.9137 6.4156 6.99816 9.34713 6.26654 16.93986l-.589 6.11284 8.11406 4.16345c4.46274 2.2899 8.27334 4.1896 8.46799 4.22154.19465.032 1.92197-.75279 3.83848-1.74385 3.04894-1.57659 3.48464-2.44458 3.48464-6.94179zm-40.70235 326.99067c-.69605-5.57094-.40551-6.78174 2.927-12.19774 3.38702-5.50461 3.63077-6.56496 2.88372-12.54417-1.07864-8.63313.75728-13.1699 5.77498-14.27065 4.72749-1.03709 14.95624-10.06739 17.40722-15.36771l1.8729-4.05019 1.30179 2.85714c3.27537 7.18865 2.94207 10.34638-2.7563 26.11365-3.04893 8.4363-6.31998 18.52761-7.26899 22.42515-3.0372 12.47352-4.76278 15.48109-9.73737 16.97152-5.29633 1.58682-4.78364 1.59188-7.72528-.0762-3.33484-1.8911-3.80868-2.88953-4.67967-9.8608zm586.4759-10.67292c-3.7683-4.12324-6.0238-7.66098-6.0238-9.44857 0-3.96297.6363-3.61704 4.0446 2.19863 1.6297 2.78087 4.5752 6.60068 6.5457 8.48847 1.9704 1.88779 3.5825 3.86438 3.5825 4.39244 0 2.27173-2.5141.53447-8.149-5.63097zm-526.8764-1.67643c0-.64959.53148-1.18107 1.18107-1.18107s1.18107.53148 1.18107 1.18107-.53148 1.18108-1.18107 1.18108-1.18107-.53149-1.18107-1.18108zm8.2675-4.06404c0-.28646.53148-.84931 1.18107-1.25078s1.18107-.1671 1.18107.52083-.53148 1.25078-1.18107 1.25078-1.18107-.23437-1.18107-.52083zm535.3207-21.57368c-2.4254-5.22271-1.5754-7.22904.9328-2.20184 2.6104 5.2316 2.6558 5.40275 1.4294 5.38999-.4872-.005-1.5502-1.43974-2.3622-3.18815zm5.1426-2.38813c.3925.39246.4344 1.41114.093 2.26373-.377.94217-.6569.66232-.7136-.71357-.0508-1.24504.2282-1.94261.6206-1.55016zm-602.46956-15.6738c-.40147-.64959-.1671-1.18107.52083-1.18107.68792 0 1.25078.53148 1.25078 1.18107s-.23438 1.18107-.52083 1.18107c-.28646 0-.84931-.53148-1.25078-1.18107zm518.49046-11.09631c-7.4742-2.35687-10.8632-4.5462-13.8047-8.91805-3.3604-4.99448-9.51-8.77533-12.6513-7.7783-1.2698.40302-3.4069 2.59408-4.7492 4.86904-2.2849 3.87262-2.7233 4.08604-6.8769 3.34781-2.4401-.43368-5.8482-2.10448-7.5735-3.7129-2.1933-2.0445-3.8741-2.69052-5.5864-2.14707-1.347.42752-3.2987.30186-4.3371-.27927-1.6231-.90825-1.464-1.33448 1.1327-3.03591 3.0081-1.97097 3.0124-1.99723.9943-6.22919-1.6209-3.39906-3.8571-5.17019-11.1695-8.84683-5.0287-2.52833-10.7134-4.59696-12.6328-4.59696-4.3922 0-6.2058-4.04847-2.8974-6.46765 1.968-1.43904 1.6801-1.79673-3.454-4.29111-5.452-2.64873-5.5298-2.76076-2.9257-4.20687 1.4714-.81711 3.8411-1.50451 5.2658-1.52751 2.7671-.0448 6.2676 3.94762 6.2676 7.14809 0 1.06704 1.1485 3.40016 2.5523 5.18472 2.5154 3.19774 2.5794 3.21078 4.429.90185 1.0322-1.28855 4.3269-3.74682 7.3215-5.46284l5.4448-3.12004 7.547 3.4047c4.1509 1.87257 10.0432 4.30426 13.0941 5.40374 3.0509 1.09949 9.1533 4.36769 13.561 7.26268 8.4174 5.52856 12.0741 10.18957 9.9768 12.71673-1.7095 2.05979 5.006 11.44295 11.9574 16.70737 7.6406 5.78637 7.5115 6.32171-.8858 3.67377zm51.1622-1.89547c1.4275 0 3.0916 2.24073 2.2725 3.05981-.2972.29727-1.2127-.26957-2.0344-1.25965-.9316-1.12248-1.0212-1.80016-.2381-1.80016zm-198.20741-3.00746c-1.71078-.9468-2.20636-1.64311-1.1793-1.65688 2.10963-.0284 5.48289 1.9373 4.68827 2.73188-.30696.30696-1.88594-.1768-3.50897-1.075zm19.96897-1.56084c3.34917-4.7036 8.59123-6.71672 13.43744-5.16042 3.531 1.13396 3.5862 1.22859.7824 1.34065-1.6591.0664-5.53093 1.71502-8.60372 3.66379-7.01214 4.44693-8.70509 4.49395-5.61612.15598zm171.36644 1.61561c-1.596-1.92303-1.2143-2.16341 1.675-1.0547 1.0275.39428 1.8682 1.19151 1.8682 1.7716 0 1.6337-1.9137 1.24649-3.5432-.7169zm5.5315-1.04211c-.4439-1.15706-.7736-2.99038-.7324-4.07404.05-1.30494.4598-1.00737 1.2148.88121.627 1.56831.9566 3.40163.7325 4.07404-.2242.67239-.7708.27586-1.2149-.88121zm-211.56617-5.55465c.90222-1.45981 8.47195-1.37846 9.38621.10086.40145.64959.0342 1.18832-.81612 1.19719-.85025.009-2.60899.24509-3.90816.52491-1.29918.27983-3.02981.22717-3.84581-.11705-.81612-.34412-1.18332-1.11181-.81612-1.70591zm18.35043.81939c-2.14613-2.58601.32704-3.37308 5.89118-1.87482 5.60537 1.50938 5.58647 1.74512-.22369 2.79406-3.01729.54471-4.67575.27571-5.66749-.91924zm177.32874-.71852c-.8172-1.30849-.9625-2.36214-.3258-2.36214.6324 0 1.7185 1.06296 2.4138 2.36214s.8418 2.36214.3256 2.36214c-.5161 0-1.6024-1.06296-2.4136-2.36214zm7.3963-1.18831c-3.1576-3.48905-1.4673-4.03778 1.7825-.57864 1.5232 1.62141 2.2277 2.94802 1.5656 2.94802s-2.1688-1.06622-3.3481-2.36938zm-221.44444-.20485c-4.22233-.58537-10.17552-1.88414-13.22942-2.88615-3.05378-1.00199-6.65191-1.47284-7.99586-1.04632-2.70406.85825-14.20687-2.52315-14.20687-4.1763 0-3.77535 10.58807-4.0621 16.21446-.43914 2.10042 1.35254 3.75628 1.44296 8.19758.44766 4.91987-1.10256 5.94481-.96681 8.83548 1.17041 1.79854 1.3297 3.80506 2.41764 4.4589 2.41764 2.33498 0 9.42389 3.95095 8.82568 4.91892-.33531.54255-1.24273.91245-2.01633.82202-.77372-.0905-4.86129-.64336-9.08362-1.22874zm212.00234-5.69327c-1.1757-1.29918-1.6062-2.36214-.9567-2.36214.6496 0 2.1431 1.06296 3.3189 2.36214 1.1757 1.29918 1.6062 2.36214.9566 2.36214s-2.143-1.06296-3.3188-2.36214zm-7.4482-1.49594c-.6709-.80848-1.5619-3.06143-1.9799-5.00656-.6734-3.13317-.598-3.26715.6609-1.17447.7815 1.29918 2.1784 3.23948 3.1041 4.31177.9812 1.13646 1.2144 2.2394.559 2.6444-.6183.38214-1.6731.0333-2.3441-.77514zm-25.0129-3.75526-2.9344-1.62427 4.5488-.85337c2.5018-.46936 6.3469-2.43206 8.5444-4.36158 2.399-2.1063 3.9885-2.86936 3.9776-1.90952-.027 2.40169-1.4798 4.25234-5.8945 7.50933-4.6112 3.40214-4.3939 3.36945-8.2419 1.23941zm-221.55131-4.59872c-4.33932-2.47199-12.16551-12.036-14.71348-17.9806-1.37437-3.20652-4.52413-8.48743-6.99948-11.73538-2.47534-3.24795-5.3167-7.49981-6.31413-9.44857-.99744-1.94877-4.02706-5.66915-6.7325-8.26751-5.70421-5.47843-9.21236-11.2354-6.82149-11.19424 3.09881.0534 11.07673 4.48908 14.49846 8.06114 9.43944 9.85418 11.37352 11.60788 15.82947 14.35329 4.30043 2.64958 6.33657 5.40701 6.54095 8.85803.0385.64959 1.26148 2.50978 2.7178 4.13375 1.45633 1.62398 4.204 4.67828 6.10595 6.78734 1.90194 2.10905 3.80181 5.39965 4.22193 7.31242 1.37511 6.26084-3.66679 11.77881-8.33348 9.12033zm-237.90391-.77972c0-.64959.53149-1.18108 1.18107-1.18108.64959 0 1.18108.53149 1.18108 1.18108 0 .64958-.53149 1.18107-1.18108 1.18107-.64958 0-1.18107-.53149-1.18107-1.18107zm312.37515-3.49999c.40157-1.26535-.0862-3.54255-1.08611-5.06827-1.64476-2.51034-1.62917-3.03626.16665-5.60012 1.09001-1.55628 2.3762-5.7353 2.85819-9.28672.59455-4.3818 1.76877-7.34968 3.65329-9.2342 2.57757-2.57757 3.22551-2.69202 9.01996-1.59313 4.97515.94353 6.93289.82709 9.64121-.57345 4.53532-2.34532 4.86625-2.24045 3.36015 1.06507-1.91452 4.20179-5.73965 5.5447-9.77337 3.43119-7.20241-3.77372-16.7587 1.83472-11.71694 6.87647 1.8531 1.85318 2.87863 2.02169 6.31141 1.03718 5.88363-1.68742 8.20337-1.37755 4.54961.60774-4.13576 2.24712-4.92058 4.74087-2.7891 8.86258.96978 1.87535 1.76322 4.78354 1.76322 6.46262 0 2.68774-.28275 2.90156-2.36403 1.78767-1.30036-.69588-3.17614-3.20868-4.1686-5.584-1.79085-4.28596-1.82215-4.30123-4.11402-2.00929-2.01007 2.01006-2.14566 2.90298-1.0456 6.88689.9941 3.60033.92725 4.79078-.31311 5.57701-2.08648 1.3226-3.05555 1.28432-3.9456-.15585-.40051-.6554-.4037-2.22563-.00721-3.48939zm162.05557-2.81008c-1.1134-1.69917-3.6631-3.93686-5.6661-4.97266-2.0031-1.0358-3.3762-2.14901-3.0514-2.4738 1.8365-1.83652 12.0853 6.5048 11.2119 9.12515-.2683.805-1.3393.0842-2.4944-1.67869zm-185.47139-3.93092c-1.78176-.93354-4.18229-1.39812-5.33466-1.03238-2.93803.93249-14.60997-1.44291-15.76613-3.20862-.92005-1.40499-3.62553-10.05848-5.07293-16.22591-.39803-1.69584 0-3.89612.9295-5.16909 1.35197-1.84687 2.05081-1.98717 4.1915-.8415 2.25951 1.20922 2.73879 1.00233 3.97774-1.7168.77478-1.70044 3.35377-4.08404 5.73115-5.29688 2.5178-1.28449 4.93711-3.68903 5.79469-5.7593.98855-2.38676 2.79406-3.99043 5.49694-4.88243 2.21357-.73057 5.41061-3.14533 7.1045-5.36616 1.69389-2.22081 3.70975-4.03784 4.47957-4.03784.76994 0 3.10031 1.75448 5.17864 3.89884l3.77896 3.89886-3.02921 4.07338c-3.44117 4.62752-3.26082 8.60754.63825 14.08333l2.36073 3.31527-2.94158 1.92739c-1.61783 1.06006-2.93933 2.57949-2.93674 3.3765.0118 2.70534-7.55791 18.29787-9.45483 19.48249-1.32067.82482-2.85819.6691-5.12609-.51915zm68.16719-2.75074c.8933 0 3.3929.35378 5.5548.78617 3.3286.66572 3.5775.92441 1.624 1.68859-2.5646 1.00326-3.7051 1.04632-6.7359.2543-2.4441-.6387-2.7833-2.72906-.4429-2.72906zm188.5286-12.33155c0-.28646.5315-.84931 1.181-1.25078.6496-.40147 1.1811-.1671 1.1811.52083s-.5315 1.25078-1.1811 1.25078c-.6495 0-1.181-.23437-1.181-.52083zm-192.4049-6.77094c.6493-1.21309.8656-2.71513.4807-3.33787-1.0651-1.72342 1.6031-5.90536 3.7679-5.90536 1.7364 0 1.7296.2028-.076 2.19697-1.5607 1.72444-1.7342 2.86532-.8068 5.30456 1.8747 4.93076-.1644 8.32989-3.185 5.30932-.9433-.94418-.999-2.03864-.1808-3.56762zm-593.00776-.31549c0-.28646.53148-.84931 1.18107-1.25078s1.18108-.1671 1.18108.52083-.53149 1.25078-1.18108 1.25078-1.18107-.23437-1.18107-.52083zm7.08643-14.17292c0-.28646.53148-.84931 1.18107-1.25078s1.18108-.1671 1.18108.52083-.53149 1.25078-1.18108 1.25078-1.18107-.23437-1.18107-.52083zm568.1075-17.75764c-2.25254-5.25503-2.55324-5.49132-6.0198-4.72994-3.45582.75903-3.57652.6663-2.2816-1.75322 1.07218-2.00347 2.06617-2.4011 4.60701-1.84305 2.44931.53796 4.01423-.006 6.41369-2.22994 1.74574-1.61784 3.18571-3.897 3.2-5.06479.0366-2.98102 4.42283 7.01615 5.42363 12.3611.7599 4.05833.665 4.27924-1.1806 2.75027-2.73976-2.26952-5.37733.0849-3.12952 2.79352.89703 1.08075 1.01194 1.82166.28275 1.82166-.67593 0-2.06499.32079-3.08673.71288-1.37111.52611-2.47895-.73627-4.22883-4.81849zm-215.34322 2.08678c-1.32039-2.14468-2.07118-11.76913-1.11734-14.32304 1.01153-2.70837 1.08753-2.6755 4.09658 1.7716 3.60625 5.32968 4.76054 8.7476 3.57056 10.5726-1.13907 1.74693-5.82161 3.16162-6.5498 1.97884zm263.75515-6.10927c0-.64959.5314-1.50954 1.181-1.91101s1.1811-.19845 1.1811.45113c0 .64959-.5315 1.50954-1.1811 1.91101s-1.181.19846-1.181-.45113zm-82.67505-6.9629c0-.50498 2.36781-3.561 5.26191-6.79116 4.24064-4.73311 5.27218-5.40204 5.31482-3.44642.0295 1.33464-1.7461 4.39066-3.9449 6.79116-3.7284 4.07052-6.63183 5.57935-6.63183 3.44642zm25.77512-6.93496c.83218-1.48698 1.17847-1.50129 2.34407-.0969 1.04383 1.25781.99789 2.15339-.19405 3.78354-1.46394 2.00211-1.61063 2.00817-2.34407.0969-.43027-1.12134-.34299-2.82394.19405-3.78354zm-904.647275-.81834c.723489-.87175.965727-1.93471.538309-2.36214-.42743-.42742.324653-.77714 1.671275-.77714 1.866944 0 2.30172.56099 1.830708 2.36215-.358715 1.37173-1.611005 2.36214-2.986729 2.36214-1.847917 0-2.079655-.34864-1.053563-1.58501zm912.378325-.31282c-.44018-1.22975-1.0156-2.63453-1.27851-3.12172-.26302-.4872.0224-.88581.63495-.88581 1.178 0 2.83764 4.84984 1.95999 5.72756-.28382.28374-.87612-.49027-1.31643-1.72003zm-11.96839-3.08141c-1.65893-1.99892-.0425-4.84399 2.43821-4.29027 1.55571.34729 1.61263.83845.36471 3.14881-1.2041 2.22929-1.72424 2.44114-2.80292 1.14146zm13.96358-4.0591c-1.3554-1.72315-2.2673-3.3301-2.02637-3.57102.95974-.95976 4.28115 1.1551 6.04733 3.8505 2.71599 4.14526-.72884 3.90582-4.02096-.27948zm-19.41635-4.57211c-1.05162-1.05172-1.91215-2.52383-1.91215-3.27138 0-.74754 1.16631-.19285 2.59174 1.23263 1.42556 1.42548 2.28608 2.89761 1.91227 3.27138-.3738.37377-1.54011-.1809-2.59186-1.23263zm-927.084924-.16872c-.433063-.43306-.787385-1.33657-.787385-2.00783 0-.74005.550108-.67032 1.397598.17717.768688.76868 1.12301 1.6722.787385 2.00782s-.964546.2559-1.397598-.17716zm-6.692743-1.57476c0-.64959.234372-1.18107.520829-1.18107s.849309.53148 1.250779 1.18107.167098 1.18107-.520829 1.18107-1.250779-.53148-1.250779-1.18107zm55.510367-2.36215c0-.64958.234372-1.18107.520829-1.18107s.849308.53149 1.250778 1.18107c.40147.64959.167098 1.18108-.520829 1.18108s-1.250778-.53149-1.250778-1.18108zm885.15909-.68249c-2.28655.57388-3.86364-.34599-8.14455-4.75064-6.04756-6.22238-7.2232-8.84587-5.44911-12.16069.68561-1.281 1.2465-3.92712 1.2465-5.88026 0-6.41097 4.29414-6.15183 7.44194.4491 1.74385 3.65702 1.75483 4.44216.11574 8.36467-1.76452 4.22297-1.7298 4.41119 1.41764 7.6964 2.27345 2.37298 3.97927 3.17858 5.7758 2.72767 1.51862-.38114 3.15629.0912 4.04989 1.16793 2.12687 2.56271 1.19879 4.39146-1.46583 2.88832-1.18379-.66781-3.42841-.89394-4.98802-.5025zm-892.24552-6.92476c0-.28646.531482-.84931 1.181072-1.25078.649589-.40147 1.181071-.1671 1.181071.52083 0 .68792-.531482 1.25077-1.181071 1.25077-.64959 0-1.181072-.23437-1.181072-.52082zm185.42825-4.20346c0-.64959.53148-1.18107 1.18107-1.18107s1.18107.53148 1.18107 1.18107-.53148 1.18107-1.18107 1.18107-1.18107-.53148-1.18107-1.18107zm-188.971465-4.58489c0-.64959.531482-1.50954 1.181072-1.91101.649589-.40147 1.181071-.19845 1.181071.45114s-.531482 1.50954-1.181071 1.91101c-.64959.40147-1.181072.19845-1.181072-.45114zm-10.030747-4.85016c-.413776-.6695.06035-.8675 1.111365-.46417 2.046112.78516 2.420476 1.63172.721588 1.63172-.611252 0-1.436089-.5254-1.832953-1.16755zm187.782032-.01353c-.40147-.64958-.1671-1.18107.52082-1.18107.68793 0 1.25078.53149 1.25078 1.18107 0 .64959-.23437 1.18108-.52083 1.18108-.28645 0-.8493-.53149-1.25077-1.18108zm-183.066107-2.36214c-.40147-.64959-.167098-1.18107.520829-1.18107s1.250778.53148 1.250778 1.18107-.234372 1.18107-.520829 1.18107-.849308-.53148-1.250778-1.18107zm5.314822 0c0-.64959.234372-1.18107.520829-1.18107s.849309.53148 1.250779 1.18107c.401469.64959.167098 1.18107-.520829 1.18107s-1.250779-.53148-1.250779-1.18107zm-81.198674-3.14434c-.811987-.32764-1.47634-1.08291-1.47634-1.67836 0-1.70287 5.21351-1.26447 7.746495.65139 2.178015 1.64737 2.1155 1.73126-1.250601 1.67836-1.948768-.0306-4.207568-.32375-5.019554-.65139zm29.886108-.67004c-1.059233-.59278-3.399349-.75415-5.200259-.3586-1.800898.39555-4.570889.20055-6.155509-.4333-2.547867-1.01917-2.322329-1.13943 1.949867-1.03955 6.279344.14679 7.955604-.87583 6.350811-3.87442-1.139049-2.12833-.796586-2.29047 4.83787-2.29047 5.450327 0 13.313335 2.49977 14.646091 4.6562.886005 1.43358-14.313737 4.52383-16.428871 3.34014zm22.655091.74678c-1.399652-1.39964.339901-2.83776 3.432561-2.83776 1.857046 0 2.798041.55676 2.495202 1.47634-.544533 1.65344-4.684838 2.60435-5.927763 1.36142zm854.47752-1.87814c-3.12736-3.12737-.0319-6.86498 5.68544-6.86498 2.53447 0 2.53647.0206.36212 3.74367-2.5347 4.33994-4.04789 5.12096-6.04756 3.12131zm-844.717191-.24272c0-.2553.797223-.77009 1.771607-1.14401.974385-.3739 1.771608-.16502 1.771608.46418s-.797223 1.144-1.771608 1.144c-.974384 0-1.771607-.20888-1.771607-.46417zm-51.055234-8.46617c-.364562-.36457-2.857745-.69315-5.540407-.73016-3.700959-.0511-4.588924-.4151-3.681058-1.50902.877442-1.05725-.382419-2.4648-4.724558-5.27841-8.513295-5.51642-13.266813-6.5945-18.98627-4.30603-5.363152 2.14591-5.773917 2.20675-5.773917.85512 0-2.47211 9.399807-5.19074 16.168221-4.67622 6.473265.49209 10.097584 1.86973 22.807143 8.66919 10.446897 5.58898 10.458389 5.59962 7.08643 6.56103-3.829046 1.09175-6.52633 1.24374-7.355584.4145zm8.536655-9.9668c2.289815-1.47979 3.543215-1.47979 3.543215 0 0 .64959-1.195835 1.17293-2.657411 1.16299-2.148889-.0146-2.318396-.23719-.885804-1.16299zm940.60509-2.09461c-.71478-.47194-1.94369-2.08091-2.73111-3.57549-1.18686-2.25301-1.06379-3.34697.71986-6.40108 2.75474-4.71683 4.61504-5.30537 5.50923-1.74294.94061 3.74751-1.77787 12.85529-3.49798 11.71951zm-932.85061-1.57404c.78853-1.27586 5.237651-1.42016 5.23647-.16983-.000449.48719-1.325647.96223-2.944861 1.05564-1.619213.0934-2.650442-.3052-2.291609-.88581zm-23.355231-11.38278c-1.88877-2.16785-1.614076-5.02679.482987-5.02679.671227 0 .949098 1.03748.6175 2.30551s.00472 2.52397.748055 2.79099c.743024.26701 1.037666.82724.654763 1.24495-.382915.4177-1.509398-.17389-2.503305-1.31466zm6.860821-9.27865c-.420331-1.09537-.498506-2.25733-.173712-2.58213.324795-.32479.934452.30569 1.354784 1.40106s.498507 2.25733.173712 2.58213c-.324795.32479-.934452-.30569-1.354784-1.40106zm-7.401386-1.06296c0-.97439 1.012356-1.77161 2.24967-1.77161 1.999696 0 2.052809.19685.478051 1.77161-.974384.97438-1.98674 1.7716-2.249658 1.7716-.262931 0-.478063-.79722-.478063-1.7716zm990.525406-25.89296c0-.92455-1.2902-3.21429-2.86705-5.08834-3.74329-4.44866-2.41741-7.4178 2.0155-4.51326 3.18665 2.08794 4.85217 6.35399 3.6768 9.41713-.89148 2.32312-2.82525 2.44939-2.82525.18447zm-916.51158-7.10734c0-.28646.531482-.84931 1.181072-1.25078.649589-.40147 1.181071-.1671 1.181071.52083 0 .68792-.531482 1.25078-1.181071 1.25078-.64959 0-1.181072-.23438-1.181072-.52083zm923.0938-1.45162c-.7657-1.99551 1.0421-3.88163 3.7522-3.91483 1.8768-.023 1.9118 2.6173.059 4.46999-1.9257 1.92578-2.9144 1.78178-3.8112-.55516zm-2.157-6.2319c-3.01525.83739-5.09252.84677-6.49587.0293-1.13466-.66095-1.43949-1.21789-.67735-1.23764.76215-.0197 2.98693-1.38327 4.94397-3.03005 2.52485-2.12447 4.37505-2.78917 6.36985-2.28848 2.1139.53055 4.3957-.4846 9.1951-4.09078 9.3436-7.02069 10.1886-9.2346 6.387-16.73645-3.6485-7.20019-2.6316-9.51829 2.7747-6.3247 3.9349 2.32434 7.6426 8.98237 6.5654 11.78946-.3877 1.01035.1904 4.18109 1.2845 7.0461 1.5483 4.05417 1.6951 5.75889.6621 7.68896-1.5171 2.83468-5.7383 4.72896-10.5381 4.72896-2.6899 0-3.4935.69018-4.3726 3.75543l-1.077 3.75543-2.0737-3.1649c-2.2931-3.49962-5.5323-3.9801-12.948-1.92064zm-465.51585-2.11061c-1.40962-1.40964-.65974-2.67683 1.58406-2.67683 1.26084 0 2.62092-.53148 3.02239-1.18107 1.09788-1.77641 2.97012-1.41973 2.2601.43056-.72864 1.8988-5.84255 4.45134-6.86655 3.42734zm-43.81749-3.66605 4.72429-.0798c5.88404-.0993 10.21861 1.00415 9.36559 2.38437-.95017 1.53741-6.4805 1.1797-10.54666-.68216zm-44.16793-10.15931c-4.7269-2.41993-4.94947-2.72192-2.48181-3.36722 2.95529-.77282 9.49652.18871 9.36297 1.37633-.0456.40599-.44426 1.61816-.8858 2.6937-.72584 1.76809-1.30052 1.70072-5.99536-.70281zm-23.67305-12.77793c-1.02217-2.93222-.94155-4.05452.3867-5.38277 2.40122-2.40122 4.26695-.71364 4.26695 3.85953 0 5.40147-2.96353 6.37149-4.65365 1.52324zm-27.69531.98136c.83784-2.18338 4.43158-2.55266 3.70853-.38107-.27036.81199-1.37575 1.64782-2.45643 1.85741-1.37018.26575-1.74914-.18108-1.2521-1.47634zm616.48773-19.35613c1.5682-2.2391 1.5624-2.91023-.053-6.03397-2.6571-5.13807-2.2838-5.44892 2.3238-1.9346 2.2777 1.73733 6.7725 3.94015 9.9884 4.89515 6.6451 1.97343 8.2489 3.52269 4.7845 4.62223-1.3086.41534-2.3793 1.52669-2.3793 2.46968 0 1.28449-.8147 1.50607-3.2479.88342-6.2315-1.59453-8.0027-1.205-7.6027 1.6719.4901 3.52509-.3056 3.35079-3.1889-.69855-2.1619-3.03629-2.2215-3.59593-.6249-5.87526zm-586.8946 7.26276c-1.36988-1.36986-.85365-3.65874.98422-4.36401 1.27992-.49115 1.77161.12936 1.77161 2.23578 0 2.83506-1.15616 3.72791-2.75583 2.12823zm580.025-24.90092c-1.0021-1.13678-3.4173-5.25678-5.367-9.15556-1.94972-3.89878-7.1045-11.05843-11.4551-15.91036-4.8607-5.4207-7.33056-9.01488-6.4066-9.32286.82698-.27566 2.60036.95934 3.94076 2.74445 3.24936 4.3271 7.25072 8.08444 13.56474 12.73737 5.2335 3.85674 7.8216 7.4266 4.4446 6.13073-3.894-1.49426-2.9221 2.0526 2.1173 7.72657 2.9378 3.30787 5.3415 6.26231 5.3415 6.56542 0 1.43639-4.5647.31685-6.1802-1.51576zm-864.26958-2.06688c0-.97438.51481-1.7716 1.14401-1.7716s.83808.79722.46418 1.7716c-.37392.97439-.88871 1.77161-1.14401 1.77161-.25529 0-.46418-.79722-.46418-1.77161zm-6.17158-3.81131-4.39997-.46157 8.27967-8.19793c4.55381-4.50886 8.87498-8.19794 9.60258-8.19794.76772 0 .53762.86773-.54826 2.06762-2.4588 2.71695-.7822 5.76924 3.7111 6.75613 1.96153.43082 3.91672 1.93412 4.67229 3.59241 1.21269 2.66157 1.00714 2.93271-3.0848 4.06916-4.29282 1.19224-9.41739 1.29684-18.23261.37212zm-287.79034-8.47326c-4.09123-3.82178-4.54758-5.43183-1.83463-6.47289 2.4295-.93229 6.91427 2.10706 8.61411 5.83782 1.78365 3.91468 1.75204 4.06161-.87412 4.06161-1.23049 0-3.8879-1.54194-5.90536-3.42654zm520.13714-6.00067c1.29918-.64079 3.8557-1.70397 5.68116-2.36262 4.02217-1.45125 3.35536-2.99693-1.7318-4.01435-3.48965-.69793-3.61248-.87547-1.61574-2.33552 1.18855-.8691 1.81471-2.14051 1.39143-2.82536-.43239-.69964.78224-1.78616 2.77225-2.47989 1.94799-.67907 3.54181-1.7592 3.54181-2.4003 0-2.72803-2.4619-7.31704-3.82971-7.13861-3.15289.41128-4.61364-.14468-4.10527-1.56249.29114-.81199.051-2.40643-.53367-3.54321-1.52027-2.95592 1.97325-9.06892 5.2207-9.13523.4872-.009.75294.63366.59054 1.43022s.95213 1.63751 2.47674 1.86876l2.77201.42048-2.64867 2.81938-2.64867 2.81938 2.98578 1.1352c3.20476 1.21844 6.29362 5.18799 9.43902 12.13026 1.50701 3.32613 2.49782 4.1956 4.25689 3.73559 3.60933-.94386 4.03748 1.50204.6513 3.72074-2.29406 1.50314-2.72945 2.35009-1.72464 3.3549 1.00479 1.0048-.97595 1.67897-7.84598 2.67045-5.05456.72947-11.05031 1.67078-13.32387 2.0918-3.16225.58559-3.5786.49168-1.77161-.39958zm-19.91745-6.52419c-.40402-1.05287.0569-3.44493 1.02433-5.31568 1.10999-2.14648 1.32478-3.66969.58218-4.12864-2.04675-1.26497-1.27935-2.87924 1.72749-3.63391 1.59733-.40091 3.52259-1.47401 4.27837-2.38465 1.57345-1.89589 8.84895-2.24478 9.94166-.47672.40076.64844-.0993 2.36115-1.11137 3.806-1.01202 1.44486-1.84003 4.0402-1.84003 5.76743 0 2.63391-.80958 3.42144-5.01955 4.88278-2.76076.95829-5.88107 2.11481-6.93403 2.57002-1.2347.53379-2.17529.14796-2.64905-1.08663zm21.68906-11.73408c0-.28646.53148-.84931 1.18107-1.25078s1.18107-.1671 1.18107.52083-.53148 1.25078-1.18107 1.25078-1.18107-.23437-1.18107-.52083zm-524.1598-5.6907c-1.15699-1.39409-1.0833-2.04375.3685-3.24864 2.40025-1.99202 3.59075-.6407 2.19374 2.4901-.96338 2.15902-1.31384 2.26277-2.56224.75854zm-1.84697-8.88248c-.39884-.64534.0662-1.83012 1.03343-2.63286 1.92031-1.59372 2.32133-.34385.70709 2.20376-.61677.97338-1.30003 1.14183-1.74052.4291zm-67.67803-4.26808c1.92593-.46657 3.06461-.35404 2.68199.26506-.36571.59171-2.13756 1.37303-3.93745 1.73623-1.79988.36321-4.20261 1.0202-5.3394 1.45998-1.13678.43979-2.06687.46385-2.06687.0535 0-.83078 3.58126-2.28399 8.66173-3.51477zm693.19008-9.76583c-2.17894-.87923-1.79335-2.23446.68896-2.42145 1.19092-.0897 2.1653.59441 2.1653 1.52027 0 1.75852-.40928 1.88774-2.85426.90118zm-268.42154-21.6026c1.02493-2.47439 1.05625-4.03031.11645-5.78627-1.95578-3.65441.59596-7.93703 7.12159-11.95229 3.09946-1.90712 6.19408-4.51143 6.87694-5.78735 1.89188-3.53501.20692-9.59287-3.08546-11.09297-1.66631-.75922-2.57313-1.95976-2.20498-2.91913.83844-2.18497-3.09376-9.64739-7.01016-13.30363-2.88247-2.69101-4.12254-2.95897-13.99253-3.02361-13.4405-.088-15.94423-.83518-15.72194-4.69169.0924-1.60197.44758-2.91306.7894-2.91352.34184-.00045 5.12518-.5548 10.62965-1.23188 7.02831-.86452 13.32951-2.64742 21.16344-5.98813 12.12901-5.17229 13.05292-5.27334 41.99291-4.59312 9.13853.2148 17.54563-.46153 28.34572-2.28032 10.05763-1.69377 17.45829-2.33227 21.45445-1.85102 3.39546.4089 8.31178.13923 11.0874-.60816 6.44105-1.7344 23.17598.3519 29.75812 3.70985 3.89129 1.98519 5.95011 2.24733 12.51622 1.59363 7.09248-.70611 7.62848-.61323 5.49668.95248-1.29918.95418-5.2853 2.11977-8.85804 2.59019-7.75267 1.0208-14.87637 6.5464-12.98821 10.07448.81451 1.5219.2304 2.8209-2.40284 5.3437-1.91341 1.83315-3.75897 4.21539-4.10126 5.29385-.82231 2.59086-11.26374 7.41275-16.44107 7.59254-5.75018.19968-6.35154 1.42208-1.90456 3.87144 2.10072 1.15706 5.16726 3.12858 6.81451 4.38114l2.99501 2.27739-2.70771 1.00165c-2.07567.76783-3.75943.27281-7.21326-2.1207-4.68699-3.24808-9.72976-3.26441-7.03946-.0228 1.04917 1.26416.7966 1.75521-1.16688 2.26867-4.38907 1.14777-1.28448 3.4174 3.55597 2.59962 3.08079-.5205 4.81342-.24618 5.77678.91461 1.14626 1.38115-.34881 2.02067-8.9509 3.82874-5.67982 1.19384-13.25014 2.21429-16.82288 2.26767-6.63709.0992-11.42016 2.00453-18.45614 7.35219-2.29437 1.74382-7.17018 3.47199-12.87568 4.56363-11.92478 2.28159-15.95452 4.92021-23.13971 15.15154-5.77115 8.21783-9.25109 11.28074-12.84955 11.30971-.97438.008-4.42902-1.4349-7.67697-3.20609-7.47396-4.07576-11.04668-10.33775-8.88105-15.56604zm-81.76952 1.2078c-2.46481-3.89288-4.73729-4.38743-11.39139-2.47906-2.25259.64603-4.78038.70829-5.79115.14263-3.497415-1.95725 2.81978-3.88222 9.8555-3.00317 5.35087.66855 6.5398.47802 7.16376-1.14799 1.2537-3.26707 6.99158-5.60844 10.18199-4.15479 1.96401.89487 3.74947.86991 6.25782-.0875 3.37473-1.28807 3.42154-1.40437 1.21713-3.02298-1.26093-.92586-2.7001-1.68338-3.19816-1.68338-.49805 0-2.29601-2.37265-3.99546-5.27254-1.69946-2.8999-4.88458-6.38171-7.07808-7.73737-3.72783-2.30392-4.22101-2.34441-7.55534-.62015-2.91505 1.50743-4.59905 1.61297-9.21145.5773-3.10434-.69705-7.438695-.93181-9.63191-.5217-3.80474.71147-10.775743-1.15042-10.775743-2.8781 0-3.17377 10.002684-10.29652 15.944463-11.35379l4.72429-.84063-3.37697 3.59787c-4.65838 4.96311-2.906532 7.24717 2.15199 2.80574 2.14578-1.88403 5.85436-3.79187 8.24127-4.23966 3.64717-.68422 5.20962-.23805 9.78918 2.79532 6.09317 4.03595 6.56268 4.14419 9.99892 2.30518 2.06923-1.10742 2.83665-.80327 5.08373 2.01484 1.55428 1.94925 5.02535 4.07181 8.41014 5.14279 5.3945 1.70688 5.76353 2.07817 5.76353 5.7988 0 2.79004.80466 4.55061 2.69899 5.90536 7.92618 5.66848 7.75334 5.43433 6.03829 8.18057-2.35155 3.76544-4.20846 4.0383-9.41292 1.38318-3.62062-1.84711-5.20241-2.10041-7.02504-1.12496-2.23037 1.19366-2.25414 1.44866-.45875 4.92056 1.47347 2.84938 1.60806 4.28816.60676 6.48578-1.23385 2.708-1.43039 2.74983-4.78062 1.01736-6.58616-3.40584-11.02124-1.16468-4.87731 2.46463 1.9249 1.13707 3.23162 2.50136 2.90381 3.03176-1.14391 1.8509-6.98751.86912-11.56413-1.94288-2.5364-1.55842-5.64461-4.46499-6.90714-6.45902zm249.50471 7.98836c0-.54132.79722-.98422 1.77161-.98422.97438 0 1.7716.4429 1.7716.98422 0 .54133-.79722.98423-1.7716.98423-.97439 0-1.77161-.4429-1.77161-.98423zm-287.129535-6.35175c-2.328423-1.22415-4.136857-1.32893-7.397571-.4286-5.543974 1.53076-7.482679.41057-4.669438-2.69802 3.601478-3.97959 6.044016-4.76227 10.387892-3.32866 4.889093 1.61355 7.058946 4.01176 5.740019 6.34411-.840816 1.48688-1.414333 1.50258-4.060902.11117zm234.571845-.53783c-1.94877-1.28135-4.42927-2.04944-5.5122-1.70688-1.49147.4718-1.82242.0623-1.36459-1.68842.70267-2.68702 11.07991-6.56529 14.58787-5.45191 1.22304.38818 4.34903.069 6.94663-.70924 4.0779-1.22177 5.15894-1.12932 7.91568.67697l3.19277 2.09198-2.84397 2.21635c-2.40041 1.87067-6.85256 3.49377-17.60737 6.41901-.97438.26503-3.36605-.56651-5.31482-1.84786zm-329.452124-25.13473-5.838497-2.62045 8.20064-.59054c4.510348-.32479 8.200641-1.12202 8.200641-1.77161s-3.188893-1.46593-7.086429-1.8141c-5.146-.4597-6.116215-.7831-3.543215-1.18107 4.308053-.66634 4.618486-2.53213.590536-3.54938-2.900571-.73254-2.879382-.77728 1.200689-2.53522 7.071028-3.04663 14.602698-3.63026 21.275576-1.64863 5.478672 1.627 6.334595 1.62005 8.917587-.0724 1.826704-1.19691 2.910467-1.39717 3.004859-.55523.08114.7243.214069 1.93697.295268 2.69483.274138 2.55867 2.630045 2.22758 5.441138-.76469 2.602385-2.77011 7.113334-4.09709 7.10333-2.08957-.0024.48719-1.053137 2.60581-2.334907 4.70804l-2.330479 3.82224 3.811235 1.98836 3.811248 1.98836-6.257837 2.85625c-5.64694 2.57742-6.805394 2.72489-11.866995 1.51063-4.907825-1.17737-6.315828-1.04271-11.260892 1.07699-5.585323 2.39416-6.763217 2.54764-12.542319 1.63428-1.623973-.25665-5.580008-1.64584-8.791177-3.08709zm56.159531 2.25504c-1.066791-1.2854-.626346-1.91799 2.130464-3.0599 1.918923-.79485 4.671575-1.05981 6.14658-.59166 2.558024.81188 2.499101.93956-1.389271 3.01039-4.960914 2.64205-5.208088 2.66506-6.887773.64117zm325.850283-5.46603c2.28981-1.47979 3.54321-1.47979 3.54321 0 0 .64959-1.19583 1.17293-2.65741 1.16299-2.14889-.0146-2.3184-.23718-.8858-1.16299zm212.5692-7.64842c.82169-.99009 1.03031-1.81706.46357-1.83771-.56673-.0207.0326-.84077 1.33173-1.82245 1.29918-.98169 2.37103-2.16062 2.3819-2.61985.0413-1.74689 4.84986-6.35372 8.24774-7.90181 1.94877-.88786 6.99785-1.88857 11.22018-2.22378 4.22233-.33522 9.87791-.94937 12.56794-1.36478 2.86301-.44213 5.19627-.26135 5.62724.436.8374 1.35494-.76071 1.93087-9.92768 3.57777-9.09636 1.63421-14.56401 4.18082-18.16525 8.46065-3.79373 4.50858-3.92074 7.3553-.43662 9.78569l2.65741 1.85372-3.54322-.0528c-1.94877-.029-5.66914-.89255-8.2675-1.91888-6.03843-2.38515-5.91442-2.25475-4.15744-4.37177zm-614.423155.94729c-1.904773-1.90477-1.470529-2.31943 7.667966-7.32219 10.707312-5.86158 16.087707-6.63972 25.691638-3.71566l5.314823 1.61818-7.08643 1.40513c-5.79553 1.14917-18.077352 5.25621-27.77623 9.28838-.989384.41132-2.697414-.15948-3.811767-1.27384zm85.326756-1.52865c0-.62884-1.461576-1.98225-3.247947-3.00757l-3.247947-1.86422 4.3488.68389c3.089967.48594 4.628431.19647 5.314823-.99999.816333-1.42295 8.333452-4.27027 11.330728-4.29182.503869-.004.0926 1.58604-.914043 3.53258-2.370824 4.58467-13.584414 9.49387-13.584414 5.94713zm18.388447-3.44853c-1.692122-2.7379 9.8647-6.97604 14.773907-5.41792 3.577879 1.13558 1.186587 3.08693-5.054172 4.12432-2.792502.46419-5.953617 1.21733-7.024695 1.67364-1.071079.45632-2.28385.2853-2.69504-.38004zm37.712452-8.69707c-7.79507-.62005-14.318234-1.26225-14.495926-1.42713-1.056079-.9799 1.577805-4.16961 4.412649-5.34384 2.787127-1.15447 4.071577-1.00126 7.887357.94078 3.71918 1.89287 6.1165 2.2075 13.02577 1.70955 4.65725-.33565 9.97207-.2295 11.81072.2359l3.34301.84617-4.13375 2.2089c-2.27356 1.21489-4.93098 2.15222-5.90536 2.08296-.97438-.0693-8.14939-.63325-15.94447-1.25329zm338.08176-9.1695c1.78637-.01 4.04517-.59156 5.01955-1.29248 1.53153-1.1017 1.51102-1.19178-.15134-.66475-1.05763.33531-2.54134-.009-3.29714-.76452-1.04485-1.04484-1.58913-1.02634-2.27118.0772-.63146 1.02174-1.928 1.14264-4.37984.40841-6.22812-1.86511-7.61657-2.69315-7.61657-4.54237 0-1.56638 1.56131-1.70982 11.22018-1.03087 7.35613.51708 11.22018.37374 11.22018-.41621 0-2.32497 3.27696-1.17691 4.14594 1.4525l.87822 2.65741.52274-2.65741c.28751-1.46158 1.283-2.65741 2.21221-2.65741s1.68946-.63778 1.68946-1.41729c0-1.10233.31496-1.10233 1.41729 0 .82443.82443 4.77677 1.41729 9.44857 1.41729 8.44405 0 10.42716 1.50969 4.79564 3.6508-2.92661 1.11269-8.0164.79794-13.59462-.84069-1.13678-.33393-2.06351-.17272-2.05941.35824.008 1.08995 6.64446 5.09915 8.44011 5.09915.64334 0 1.91532.7456 2.82661 1.65689 1.42181 1.42181 1.40985 1.7517-.0843 2.32508-.95768.3675-1.74125.0942-1.74125-.60727 0-.82463-1.50219-.99363-4.25-.47814-2.97571.55825-4.00762.40508-3.44155-.51083.44466-.71947.16616-2.08208-.61888-3.02801-1.51454-1.82485-5.86247-2.38358-5.86247-.75334 0 .53159-1.72731 2.87623-3.83848 5.2103l-3.83848 4.24378-4.98667-2.55289c-5.8019-2.9702-6.36162-4.31719-1.80452-4.34257zm-311.50764 1.74432c-2.0475-1.20193-4.94409-1.55009-9.44858-1.1357-4.21032.38734-7.44753.0534-9.20056-.94911-2.4168-1.3821-1.82606-1.5396 5.55034-1.47987 9.22382.0747 13.27477-1.89985 8.27946-4.03561-2.37307-1.01461-2.02703-1.10672 2.04071-.54321 5.31036.73566 7.37479-.68714 4.48133-3.08849-3.08529-2.56056.30716-3.35546 11.28498-2.64424 6.79316.44011 11.06191.19325 12.80685-.74062 3.34284-1.78903 2.03119-4.06638-1.78973-3.10739-2.64074.66278-20.96748-.4248-20.19389-1.19839.55285-.55284 26.51722-2.95752 43.56587-4.03484 8.84312-.5588 18.67554-1.33831 21.84983-1.73224l5.77143-.71625-9.52743 4.57642c-8.93265 4.2907-23.45882 8.47366-29.42655 8.47366-1.45285 0-5.62947 1.59445-9.28138 3.54322s-7.37221 3.54321-8.26732 3.54321c-.89512 0-4.7584 1.58772-8.58509 3.52826-3.82668 1.94054-6.9576 3.51615-6.9576 3.50136 0-.0148-1.3287-.80687-2.95267-1.76017zm-23.0309-10.79043c-5.72405-1.26658-5.93386-1.74304-1.7275-3.92313 6.13131-3.17778 11.93333-3.99225 14.57119-2.04546 2.08844 1.54131 1.96736 1.77956-2.13438 4.19965-4.27494 2.52227-6.00978 2.80883-10.70931 1.76894z" fill="#bdbdbd" transform="translate(-1)"/></svg>