<svg fill="none" height="60" viewBox="0 0 77 60" width="77" xmlns="http://www.w3.org/2000/svg"><path d="m41.7882 37.5719c0-8.4345 2.8115-15.9745 8.4345-22.6198 5.623-6.64539 13.099-11.62941 22.4281-14.95209933l3.4505 8.05110933c-2.5559 1.40576-5.3035 3.45049-8.2428 6.13419-3.0671 2.8115-5.8786 6.0064-8.4345 9.5847l9.3929 6.3259c2.9393 2.0447 4.9202 4.2172 5.9425 6.5175 1.0224 2.4281 1.5336 4.984 1.5336 7.6678 0 2.1725-.4473 4.2172-1.3419 6.1341-.8946 1.917-2.1086 3.5783-3.6422 4.9841-1.5335 1.4057-3.2587 2.492-5.1757 3.2588-1.9169.8945-3.8977 1.3418-5.9425 1.3418-3.1949 0-5.8786-.639-8.0511-1.9169-2.1725-1.278-4.0256-2.492-5.5591-3.6422-1.6613-2.5559-2.8754-5.3035-3.6422-8.2428-.7667-2.8115-1.1501-5.6869-1.1501-8.6262zm-41.78917227 0c-.00000074-8.4345 2.81149227-15.9744 8.43450227-22.6198 5.62297-6.64538 13.09907-11.62941 22.42807-14.95209568l3.4505 8.05111568c-2.5559 1.40575-5.3035 3.45048-8.2428 6.13418-3.0671 2.8115-5.8786 6.0064-8.4345 9.5847l9.393 6.3259c2.9393 2.0447 4.9201 4.2172 5.9425 6.5175 1.0223 2.4281 1.5335 4.9841 1.5335 7.6678 0 2.1725-.4473 4.2172-1.3418 6.1341-.8946 1.917-2.1087 3.5783-3.6422 4.9841-1.5335 1.4057-3.2588 2.492-5.1757 3.2588-1.917.8945-3.8978 1.3418-5.9425 1.3418-3.1949 0-5.8786-.639-8.0511-1.9169-2.17256-1.278-4.02559-2.492-5.55914-3.6422-1.66134-2.5559-2.8754-5.3035-3.64217-8.2428-.76678-2.8115-1.15016201-5.6869-1.15016227-8.6262z" fill="#dbc1be"/></svg>